999
dxfrw 0.5.10
0
SECTION
2
HEADER
9
$ACADVER
1
AC1021
9
$HANDSEED
5
20000
9
$DWGCODEPAGE
3
ANSI_1252
9
$INSBASE
10
0
20
0
30
0
9
$EXTMIN
10
10000000000
20
10000000000
30
0
9
$EXTMAX
10
-10000000000
20
-10000000000
30
0
9
$LIMMIN
10
0
20
0
9
$LIMMAX
10
420
20
297
9
$ORTHOMODE
70
0
9
$LTSCALE
40
1
9
$TEXTSTYLE
7
Standard
9
$CLAYER
8
cut
9
$DIMASZ
40
2.5
9
$DIMLFAC
40
1
9
$DIMSCALE
40
1
9
$DIMEXO
40
0.625
9
$DIMEXE
40
1.25
9
$DIMTXT
40
2.5
9
$DIMTSZ
40
0
9
$DIMAUNIT
70
0
9
$DIMADEC
70
0
9
$DIMLUNIT
70
2
9
$DIMSTYLE
2
Standard
9
$DIMGAP
40
0.625
9
$DIMTIH
70
0
9
$LUNITS
70
2
9
$LUPREC
70
3
9
$AUNITS
70
0
9
$AUPREC
70
0
9
$SPLINESEGS
70
8
9
$GRIDMODE
70
0
9
$SNAPSTYLE
70
0
9
$PINSBASE
10
98.4729790903
20
155.714703394
30
0
9
$PLIMMIN
10
-0.124999519408
20
-0.124999998123
9
$PLIMMAX
10
11.5691670095
20
8.14166644427
9
$INSUNITS
70
0
9
$PSVPSCALE
40
2
0
ENDSEC
0
SECTION
2
CLASSES
0
ENDSEC
0
SECTION
2
TABLES
0
TABLE
2
VPORT
5
8
330
0
100
AcDbSymbolTable
70
1
0
VPORT
5
31
330
2
100
AcDbSymbolTableRecord
100
AcDbViewportTableRecord
2
*ACTIVE
70
0
10
0
20
0
11
1
21
1
12
81.3560405872
22
17.1041035969
13
0
23
0
14
10
24
10
15
10
25
10
16
0
26
0
36
1
17
0
27
0
37
0
40
103.963203602
41
2.25035765379
42
50
43
0
44
0
50
0
51
0
71
0
72
100
73
1
74
3
75
0
76
0
77
0
78
0
281
0
65
1
110
0
120
0
130
0
111
1
121
0
131
0
112
0
122
1
132
0
79
0
146
0
348
10020
60
7
61
5
292
1
282
1
141
0
142
0
63
250
421
3358443
0
ENDTAB
0
TABLE
2
LTYPE
5
5
330
0
100
AcDbSymbolTable
70
4
0
LTYPE
5
14
330
5
100
AcDbSymbolTableRecord
100
AcDbLinetypeTableRecord
2
ByBlock
70
0
3

72
65
73
0
40
0
0
LTYPE
5
15
330
5
100
AcDbSymbolTableRecord
100
AcDbLinetypeTableRecord
2
ByLayer
70
0
3

72
65
73
0
40
0
0
LTYPE
5
16
330
5
100
AcDbSymbolTableRecord
100
AcDbLinetypeTableRecord
2
Continuous
70
0
3
Solid line
72
65
73
0
40
0
0
LTYPE
5
32
330
5
100
AcDbSymbolTableRecord
100
AcDbLinetypeTableRecord
2
DOT
70
0
3
Dot . . . . . . . . . . . . . . . . . . . . . .
72
65
73
2
40
6.35
49
0
74
0
49
-6.35
74
0
0
LTYPE
5
33
330
5
100
AcDbSymbolTableRecord
100
AcDbLinetypeTableRecord
2
DOT2
70
0
3
Dot (.5x) .....................................
72
65
73
2
40
3.175
49
0
74
0
49
-3.175
74
0
0
LTYPE
5
34
330
5
100
AcDbSymbolTableRecord
100
AcDbLinetypeTableRecord
2
DOTX2
70
0
3
Dot (2x) .  .  .  .  .  .  .  .  .  .  .  .  .
72
65
73
2
40
12.7
49
0
74
0
49
-12.7
74
0
0
LTYPE
5
35
330
5
100
AcDbSymbolTableRecord
100
AcDbLinetypeTableRecord
2
DASHED
70
0
3
Dot . . . . . . . . . . . . . . . . . . . . . .
72
65
73
2
40
19.05
49
12.7
74
0
49
-6.35
74
0
0
LTYPE
5
36
330
5
100
AcDbSymbolTableRecord
100
AcDbLinetypeTableRecord
2
DASHED2
70
0
3
Dashed (.5x) _ _ _ _ _ _ _ _ _ _ _ _ _ _ _ _ _
72
65
73
2
40
9.525
49
6.35
74
0
49
-3.175
74
0
0
LTYPE
5
37
330
5
100
AcDbSymbolTableRecord
100
AcDbLinetypeTableRecord
2
DASHEDX2
70
0
3
Dashed (2x) ____  ____  ____  ____  ____  ___
72
65
73
2
40
38.1
49
25.4
74
0
49
-12.7
74
0
0
LTYPE
5
38
330
5
100
AcDbSymbolTableRecord
100
AcDbLinetypeTableRecord
2
DASHDOT
70
0
3
Dash dot __ . __ . __ . __ . __ . __ . __ . __
72
65
73
4
40
25.4
49
12.7
74
0
49
-6.35
74
0
49
0
74
0
49
-6.35
74
0
0
LTYPE
5
39
330
5
100
AcDbSymbolTableRecord
100
AcDbLinetypeTableRecord
2
DASHDOT2
70
0
3
Dash dot (.5x) _._._._._._._._._._._._._._._.
72
65
73
4
40
12.7
49
6.35
74
0
49
-3.175
74
0
49
0
74
0
49
-3.175
74
0
0
LTYPE
5
3A
330
5
100
AcDbSymbolTableRecord
100
AcDbLinetypeTableRecord
2
DASHDOTX2
70
0
3
Dash dot (2x) ____  .  ____  .  ____  .  ___
72
65
73
4
40
50.8
49
25.4
74
0
49
-12.7
74
0
49
0
74
0
49
-12.7
74
0
0
LTYPE
5
3B
330
5
100
AcDbSymbolTableRecord
100
AcDbLinetypeTableRecord
2
DIVIDE
70
0
3
Divide ____ . . ____ . . ____ . . ____ . . ____
72
65
73
6
40
31.75
49
12.7
74
0
49
-6.35
74
0
49
0
74
0
49
-6.35
74
0
49
0
74
0
49
-6.35
74
0
0
LTYPE
5
3C
330
5
100
AcDbSymbolTableRecord
100
AcDbLinetypeTableRecord
2
DIVIDE2
70
0
3
Divide (.5x) __..__..__..__..__..__..__..__.._
72
65
73
6
40
15.875
49
6.35
74
0
49
-3.175
74
0
49
0
74
0
49
-3.175
74
0
49
0
74
0
49
-3.175
74
0
0
LTYPE
5
3D
330
5
100
AcDbSymbolTableRecord
100
AcDbLinetypeTableRecord
2
DIVIDEX2
70
0
3
Divide (2x) ________  .  .  ________  .  .  _
72
65
73
6
40
63.5
49
25.4
74
0
49
-12.7
74
0
49
0
74
0
49
-12.7
74
0
49
0
74
0
49
-12.7
74
0
0
LTYPE
5
3E
330
5
100
AcDbSymbolTableRecord
100
AcDbLinetypeTableRecord
2
BORDER
70
0
3
Border __ __ . __ __ . __ __ . __ __ . __ __ .
72
65
73
6
40
44.45
49
12.7
74
0
49
-6.35
74
0
49
12.7
74
0
49
-6.35
74
0
49
0
74
0
49
-6.35
74
0
0
LTYPE
5
3F
330
5
100
AcDbSymbolTableRecord
100
AcDbLinetypeTableRecord
2
BORDER2
70
0
3
Border (.5x) __.__.__.__.__.__.__.__.__.__.__.
72
65
73
6
40
22.225
49
6.35
74
0
49
-3.175
74
0
49
6.35
74
0
49
-3.175
74
0
49
0
74
0
49
-3.175
74
0
0
LTYPE
5
40
330
5
100
AcDbSymbolTableRecord
100
AcDbLinetypeTableRecord
2
BORDERX2
70
0
3
Border (2x) ____  ____  .  ____  ____  .  ___
72
65
73
6
40
88.9
49
25.4
74
0
49
-12.7
74
0
49
25.4
74
0
49
-12.7
74
0
49
0
74
0
49
-12.7
74
0
0
LTYPE
5
41
330
5
100
AcDbSymbolTableRecord
100
AcDbLinetypeTableRecord
2
CENTER
70
0
3
Center ____ _ ____ _ ____ _ ____ _ ____ _ ____
72
65
73
4
40
50.8
49
31.75
74
0
49
-6.35
74
0
49
6.35
74
0
49
-6.35
74
0
0
LTYPE
5
42
330
5
100
AcDbSymbolTableRecord
100
AcDbLinetypeTableRecord
2
CENTER2
70
0
3
Center (.5x) ___ _ ___ _ ___ _ ___ _ ___ _ ___
72
65
73
4
40
28.575
49
19.05
74
0
49
-3.175
74
0
49
3.175
74
0
49
-3.175
74
0
0
LTYPE
5
43
330
5
100
AcDbSymbolTableRecord
100
AcDbLinetypeTableRecord
2
CENTERX2
70
0
3
Center (2x) ________  __  ________  __  _____
72
65
73
4
40
101.6
49
63.5
74
0
49
-12.7
74
0
49
12.7
74
0
49
-12.7
74
0
0
ENDTAB
0
TABLE
2
LAYER
5
2
330
0
100
AcDbSymbolTable
70
1
0
LAYER
5
10
330
2
100
AcDbSymbolTableRecord
100
AcDbLayerTableRecord
2
0
70
0
62
7
6
CONTINUOUS
370
-3
390
F
0
LAYER
5
44
330
2
100
AcDbSymbolTableRecord
100
AcDbLayerTableRecord
2
cut
70
0
62
7
6
CONTINUOUS
370
0
390
F
0
LAYER
5
45
330
2
100
AcDbSymbolTableRecord
100
AcDbLayerTableRecord
2
engrave
70
0
62
5
6
CONTINUOUS
370
5
390
F
0
ENDTAB
0
TABLE
2
STYLE
5
3
330
0
100
AcDbSymbolTable
70
3
0
STYLE
5
46
330
2
100
AcDbSymbolTableRecord
100
AcDbTextStyleTableRecord
2
Standard
70
0
40
0
41
1
50
0
71
0
42
1
3
txt
4

0
ENDTAB
0
TABLE
2
VIEW
5
6
330
0
100
AcDbSymbolTable
70
0
0
ENDTAB
0
TABLE
2
UCS
5
7
330
0
100
AcDbSymbolTable
70
0
0
ENDTAB
0
TABLE
2
APPID
5
9
330
0
100
AcDbSymbolTable
70
1
0
APPID
5
12
330
9
100
AcDbSymbolTableRecord
100
AcDbRegAppTableRecord
2
ACAD
70
0
0
ENDTAB
0
TABLE
2
DIMSTYLE
5
A
330
0
100
AcDbSymbolTable
70
1
100
AcDbDimStyleTable
71
1
0
DIMSTYLE
105
47
330
A
100
AcDbSymbolTableRecord
100
AcDbDimStyleTableRecord
2
Standard
70
0
40
1
41
2.5
42
0.625
43
0.38
44
1.25
45
0
46
0
47
0
48
0
140
2.5
141
0.09
142
0
143
25.4
144
1
145
0
146
1
147
0.625
148
0
71
0
72
0
73
0
74
1
75
0
76
0
77
0
78
0
79
0
170
0
171
2
172
0
173
0
174
0
175
0
176
0
177
0
178
0
179
0
271
4
272
4
273
2
274
2
275
0
276
0
277
2
278
46
279
0
280
0
281
0
282
0
283
1
284
0
285
0
286
0
288
0
289
3
340
Standard
341

371
-2
372
-2
0
ENDTAB
0
TABLE
2
BLOCK_RECORD
5
1
330
0
100
AcDbSymbolTable
70
2
0
BLOCK_RECORD
5
1F
330
1
100
AcDbSymbolTableRecord
100
AcDbBlockTableRecord
2
*Model_Space
70
0
280
1
281
0
0
BLOCK_RECORD
5
1E
330
1
100
AcDbSymbolTableRecord
100
AcDbBlockTableRecord
2
*Paper_Space
70
0
280
1
281
0
0
ENDTAB
0
ENDSEC
0
SECTION
2
BLOCKS
0
BLOCK
5
20
330
1F
100
AcDbEntity
8
0
100
AcDbBlockBegin
2
*Model_Space
70
0
10
0
20
0
30
0
3
*Model_Space
1

0
ENDBLK
5
21
330
1F
100
AcDbEntity
8
0
100
AcDbBlockEnd
0
BLOCK
5
1C
330
1B
100
AcDbEntity
8
0
100
AcDbBlockBegin
2
*Paper_Space
70
0
10
0
20
0
30
0
3
*Paper_Space
1

0
ENDBLK
5
1D
330
1F
100
AcDbEntity
8
0
100
AcDbBlockEnd
0
ENDSEC
0
SECTION
2
ENTITIES
0
LWPOLYLINE
5
48
100
AcDbEntity
8
cut
6
CONTINUOUS
62
256
370
-1
100
AcDbPolyline
90
4
70
0
43
0
10
1.71739130435
20
22.5
10
1
20
22.5
10
1
20
24
10
1.65217391304
20
24
0
LWPOLYLINE
5
49
100
AcDbEntity
8
cut
6
CONTINUOUS
62
256
370
-1
100
AcDbPolyline
90
16
70
0
43
0
10
1.71739130435
20
22.5
10
1.75
20
22.5
10
1.92934782609
20
22.5326086957
10
2.07608695652
20
22.6304347826
10
2.17391304348
20
22.7608695652
10
2.20652173913
20
22.9239130435
10
2.17391304348
20
23.0869565217
10
2.07608695652
20
23.2173913043
10
1.92934782609
20
23.3152173913
10
1.99456521739
20
23.3641304348
10
2.10869565217
20
23.4945652174
10
2.14130434783
20
23.625
10
2.10869565217
20
23.7554347826
10
1.99456521739
20
23.8858695652
10
1.84782608696
20
23.9673913043
10
1.65217391304
20
24
0
LINE
5
4A
100
AcDbEntity
8
cut
6
CONTINUOUS
62
256
370
-1
100
AcDbLine
10
-27
20
22.5
11
-26.6902173913
21
22.5
0
LINE
5
4B
100
AcDbEntity
8
cut
6
CONTINUOUS
62
256
370
-1
100
AcDbLine
10
-25.6630434783
20
22.5
11
-25.972826087
21
22.5
0
LINE
5
4C
100
AcDbEntity
8
cut
6
CONTINUOUS
62
256
370
-1
100
AcDbLine
10
-26.5923913043
20
22.8260869565
11
-26.0706521739
21
22.8260869565
0
LINE
5
4D
100
AcDbEntity
8
cut
6
CONTINUOUS
62
256
370
-1
100
AcDbLine
10
-26.5923913043
20
22.8260869565
11
-26.6902173913
21
22.5
0
LINE
5
4E
100
AcDbEntity
8
cut
6
CONTINUOUS
62
256
370
-1
100
AcDbLine
10
-26.0706521739
20
22.8260869565
11
-25.972826087
21
22.5
0
LINE
5
4F
100
AcDbEntity
8
cut
6
CONTINUOUS
62
256
370
-1
100
AcDbLine
10
-26.1358695652
20
24
11
-25.6630434783
21
22.5
0
LINE
5
50
100
AcDbEntity
8
cut
6
CONTINUOUS
62
256
370
-1
100
AcDbLine
10
-26.527173913
20
24
11
-27
21
22.5
0
LINE
5
51
100
AcDbEntity
8
cut
6
CONTINUOUS
62
256
370
-1
100
AcDbLine
10
-26.527173913
20
24
11
-26.1358695652
21
24
0
LWPOLYLINE
5
52
100
AcDbEntity
8
cut
6
CONTINUOUS
62
256
370
-1
100
AcDbPolyline
90
18
70
1
43
0
10
1
20
-5.5
10
1
20
-4
10
1.55434782609
20
-4
10
1.71398240914
20
-4.01798649778
10
1.86561224763
20
-4.07104407303
10
2.00163398829
20
-4.15651219736
10
2.11522693307
20
-4.27010514214
10
2.20069505741
20
-4.40612688281
10
2.25375263265
20
-4.55775672129
10
2.27173913043
20
-4.71739130435
10
2.27173913043
20
-4.78260869565
10
2.25375263265
20
-4.94224327871
10
2.20069505741
20
-5.09387311719
10
2.11522693307
20
-5.22989485786
10
2.00163398829
20
-5.34348780264
10
1.86561224763
20
-5.42895592697
10
1.71398240914
20
-5.48201350222
10
1.55434782609
20
-5.5
0
CIRCLE
5
53
100
AcDbEntity
8
cut
6
ByLayer
62
256
370
-1
100
AcDbCircle
10
-25.5
20
5.5
40
0.5
0
LWPOLYLINE
5
54
100
AcDbEntity
8
cut
6
CONTINUOUS
62
256
370
-1
100
AcDbPolyline
90
12
70
1
43
0
10
-2.6
20
22
10
-2.6
20
22.35
10
-2.95
20
22.35
10
-2.95
20
22.65
10
-2.6
20
22.65
10
-2.6
20
23
10
-2.3
20
23
10
-2.3
20
22.65
10
-1.95
20
22.65
10
-1.95
20
22.35
10
-2.3
20
22.35
10
-2.3
20
22
0
LWPOLYLINE
5
55
100
AcDbEntity
8
cut
6
CONTINUOUS
62
256
370
-1
100
AcDbPolyline
90
20
70
1
43
0
10
-27.75
20
8
10
-27.75
20
20
10
-26
20
20
10
-26
20
16
10
-25
20
16
10
-25
20
15
10
-3
20
15
10
-3
20
16
10
-2
20
16
10
-2
20
20
10
-0.25
20
20
10
-0.25
20
8
10
-2
20
8
10
-2
20
12
10
-3
20
12
10
-3
20
13
10
-25
20
13
10
-25
20
12
10
-26
20
12
10
-26
20
8
0
CIRCLE
5
56
100
AcDbEntity
8
cut
6
ByLayer
62
256
370
-1
100
AcDbCircle
10
2.5
20
5.5
40
0.5
0
LWPOLYLINE
5
57
100
AcDbEntity
8
cut
6
CONTINUOUS
62
256
370
-1
100
AcDbPolyline
90
12
70
1
43
0
10
25.4
20
22
10
25.4
20
22.35
10
25.05
20
22.35
10
25.05
20
22.65
10
25.4
20
22.65
10
25.4
20
23
10
25.7
20
23
10
25.7
20
22.65
10
26.05
20
22.65
10
26.05
20
22.35
10
25.7
20
22.35
10
25.7
20
22
0
LWPOLYLINE
5
58
100
AcDbEntity
8
cut
6
CONTINUOUS
62
256
370
-1
100
AcDbPolyline
90
20
70
1
43
0
10
0.25
20
8
10
0.25
20
20
10
2
20
20
10
2
20
16
10
3
20
16
10
3
20
15
10
25
20
15
10
25
20
16
10
26
20
16
10
26
20
20
10
27.75
20
20
10
27.75
20
8
10
26
20
8
10
26
20
12
10
25
20
12
10
25
20
13
10
3
20
13
10
3
20
12
10
2
20
12
10
2
20
8
0
CIRCLE
5
59
100
AcDbEntity
8
cut
6
ByLayer
62
256
370
-1
100
AcDbCircle
10
-25.5
20
-22.5
40
0.5
0
LWPOLYLINE
5
5A
100
AcDbEntity
8
cut
6
CONTINUOUS
62
256
370
-1
100
AcDbPolyline
90
12
70
1
43
0
10
-2.6
20
-6
10
-2.6
20
-5.65
10
-2.95
20
-5.65
10
-2.95
20
-5.35
10
-2.6
20
-5.35
10
-2.6
20
-5
10
-2.3
20
-5
10
-2.3
20
-5.35
10
-1.95
20
-5.35
10
-1.95
20
-5.65
10
-2.3
20
-5.65
10
-2.3
20
-6
0
LWPOLYLINE
5
5B
100
AcDbEntity
8
cut
6
CONTINUOUS
62
256
370
-1
100
AcDbPolyline
90
20
70
1
43
0
10
-27.75
20
-20
10
-27.75
20
-8
10
-26
20
-8
10
-26
20
-12
10
-25
20
-12
10
-25
20
-13
10
-3
20
-13
10
-3
20
-12
10
-2
20
-12
10
-2
20
-8
10
-0.25
20
-8
10
-0.25
20
-20
10
-2
20
-20
10
-2
20
-16
10
-3
20
-16
10
-3
20
-15
10
-25
20
-15
10
-25
20
-16
10
-26
20
-16
10
-26
20
-20
0
CIRCLE
5
5C
100
AcDbEntity
8
cut
6
ByLayer
62
256
370
-1
100
AcDbCircle
10
2.5
20
-22.5
40
0.5
0
LWPOLYLINE
5
5D
100
AcDbEntity
8
cut
6
CONTINUOUS
62
256
370
-1
100
AcDbPolyline
90
12
70
1
43
0
10
25.4
20
-6
10
25.4
20
-5.65
10
25.05
20
-5.65
10
25.05
20
-5.35
10
25.4
20
-5.35
10
25.4
20
-5
10
25.7
20
-5
10
25.7
20
-5.35
10
26.05
20
-5.35
10
26.05
20
-5.65
10
25.7
20
-5.65
10
25.7
20
-6
0
LWPOLYLINE
5
5E
100
AcDbEntity
8
cut
6
CONTINUOUS
62
256
370
-1
100
AcDbPolyline
90
20
70
1
43
0
10
0.25
20
-20
10
0.25
20
-8
10
2
20
-8
10
2
20
-12
10
3
20
-12
10
3
20
-13
10
25
20
-13
10
25
20
-12
10
26
20
-12
10
26
20
-8
10
27.75
20
-8
10
27.75
20
-20
10
26
20
-20
10
26
20
-16
10
25
20
-16
10
25
20
-15
10
3
20
-15
10
3
20
-16
10
2
20
-16
10
2
20
-20
0
LINE
5
5F
100
AcDbEntity
8
cut
6
CONTINUOUS
62
256
370
-1
100
AcDbLine
10
-27.0003402366
20
-4.66765928111
11
-27.0003402366
21
-4.74918102024
0
LWPOLYLINE
5
60
100
AcDbEntity
8
cut
6
CONTINUOUS
62
256
370
-1
100
AcDbPolyline
90
3
70
0
43
0
10
-26.7068619757
20
-4.60244188981
10
-26.7068619757
20
-4.74918102024
10
-26.7068619757
20
-4.89592015068
0
LINE
5
61
100
AcDbEntity
8
cut
6
CONTINUOUS
62
256
370
-1
100
AcDbLine
10
-27.0003402366
20
-4.83070275937
11
-27.0003402366
21
-4.74918102024
0
LINE
5
62
100
AcDbEntity
8
cut
6
CONTINUOUS
62
256
370
-1
100
AcDbLine
10
-25.8918038887
20
-5.05934543437
11
-25.5983256279
21
-5.05934543437
0
LINE
5
63
100
AcDbEntity
8
cut
6
CONTINUOUS
62
256
370
-1
100
AcDbLine
10
-25.8918038887
20
-4.43978021698
11
-25.5983256279
21
-4.43978021698
0
LWPOLYLINE
5
64
100
AcDbEntity
8
cut
6
CONTINUOUS
62
256
370
-1
100
AcDbPolyline
90
7
70
0
43
0
10
-25.6028190325
20
-4.43927028224
10
-25.7800267348
20
-4.15655868109
10
-26.0659522537
20
-3.98458479714
10
-26.3987445868
20
-3.96054977696
10
-26.7064145687
20
-4.08965284202
10
-26.9224074654
20
-4.34396660046
10
-27
20
-4.66847826087
0
LWPOLYLINE
5
65
100
AcDbEntity
8
cut
6
CONTINUOUS
62
256
370
-1
100
AcDbPolyline
90
5
70
0
43
0
10
-25.8913043478
20
-4.4402173913
10
-26.0831177069
20
-4.22858396253
10
-26.3656502644
20
-4.18667421659
10
-26.6106381462
20
-4.33351430195
10
-26.7068619757
20
-4.60244188981
0
LWPOLYLINE
5
66
100
AcDbEntity
8
cut
6
CONTINUOUS
62
256
370
-1
100
AcDbPolyline
90
5
70
0
43
0
10
-26.7068619757
20
-4.89592015068
10
-26.6108443147
20
-5.16459632497
10
-26.3662879465
20
-5.31156047252
10
-26.0839784714
20
-5.27023689375
10
-25.8918038887
20
-5.05934543437
0
LWPOLYLINE
5
67
100
AcDbEntity
8
cut
6
CONTINUOUS
62
256
370
-1
100
AcDbPolyline
90
7
70
0
43
0
10
-27.0004995409
20
-4.83108456481
10
-26.9229070063
20
-5.15559622521
10
-26.7069141096
20
-5.40990998365
10
-26.3992441277
20
-5.53901304872
10
-26.0664517947
20
-5.51497802854
10
-25.7805262757
20
-5.34300414458
10
-25.6033185734
20
-5.06029254343
0
ARC
5
68
100
AcDbEntity
8
cut
6
CONTINUOUS
62
256
370
-1
100
AcDbCircle
10
-23.25
20
25.5
40
4.95
100
AcDbArc
50
90
51
180
0
LINE
5
69
100
AcDbEntity
8
cut
6
CONTINUOUS
62
256
370
-1
100
AcDbLine
10
-23.25
20
30.45
11
23.25
21
30.45
0
ARC
5
6A
100
AcDbEntity
8
cut
6
CONTINUOUS
62
256
370
-1
100
AcDbCircle
10
23.25
20
25.5
40
4.95
100
AcDbArc
50
0
51
90
0
LINE
5
6B
100
AcDbEntity
8
cut
6
CONTINUOUS
62
256
370
-1
100
AcDbLine
10
28.2
20
25.5
11
28.2
21
-25.5
0
ARC
5
6C
100
AcDbEntity
8
cut
6
CONTINUOUS
62
256
370
-1
100
AcDbCircle
10
23.25
20
-25.5
40
4.95
100
AcDbArc
50
270
51
0
0
LINE
5
6D
100
AcDbEntity
8
cut
6
CONTINUOUS
62
256
370
-1
100
AcDbLine
10
23.25
20
-30.45
11
-23.25
21
-30.45
0
ARC
5
6E
100
AcDbEntity
8
cut
6
CONTINUOUS
62
256
370
-1
100
AcDbCircle
10
-23.25
20
-25.5
40
4.95
100
AcDbArc
50
180
51
270
0
LINE
5
6F
100
AcDbEntity
8
cut
6
CONTINUOUS
62
256
370
-1
100
AcDbLine
10
-28.2
20
-25.5
11
-28.2
21
25.5
0
LINE
5
70
100
AcDbEntity
8
engrave
6
CONTINUOUS
62
256
370
5
100
AcDbLine
10
0
20
22.5
11
0
21
26
0
LINE
5
71
100
AcDbEntity
8
engrave
6
CONTINUOUS
62
256
370
5
100
AcDbLine
10
0
20
26
11
-0.25
21
25.5
0
LINE
5
72
100
AcDbEntity
8
engrave
6
CONTINUOUS
62
256
370
5
100
AcDbLine
10
0
20
26
11
0.25
21
25.5
0
LWPOLYLINE
5
73
100
AcDbEntity
8
engrave
6
CONTINUOUS
62
256
370
5
100
AcDbPolyline
90
5
70
0
43
0
10
2.505
20
-24.12
10
2.94
20
-24.12
10
2.94
20
-24.06
10
2.925
20
-24
10
2.895
20
-23.94
0
LWPOLYLINE
5
74
100
AcDbEntity
8
engrave
6
CONTINUOUS
62
256
370
5
100
AcDbPolyline
90
15
70
0
43
0
10
2.895
20
-23.94
10
2.835
20
-23.895
10
2.79
20
-23.88
10
2.685
20
-23.88
10
2.61
20
-23.91
10
2.55
20
-23.97
10
2.505
20
-24.06
10
2.505
20
-24.165
10
2.535
20
-24.255
10
2.595
20
-24.33
10
2.685
20
-24.375
10
2.79
20
-24.375
10
2.865
20
-24.345
10
2.91
20
-24.3
10
2.94
20
-24.255
0
LINE
5
75
100
AcDbEntity
8
engrave
6
CONTINUOUS
62
256
370
5
100
AcDbLine
10
2.325
20
-24.375
11
2.325
21
-23.625
0
LWPOLYLINE
5
76
100
AcDbEntity
8
engrave
6
CONTINUOUS
62
256
370
5
100
AcDbPolyline
90
16
70
0
43
0
10
2.325
20
-24
10
2.28
20
-23.94
10
2.22
20
-23.895
10
2.175
20
-23.88
10
2.07
20
-23.88
10
1.995
20
-23.91
10
1.935
20
-23.97
10
1.89
20
-24.06
10
1.89
20
-24.165
10
1.92
20
-24.255
10
1.98
20
-24.33
10
2.07
20
-24.375
10
2.175
20
-24.375
10
2.25
20
-24.345
10
2.295
20
-24.3
10
2.325
20
-24.255
0
LINE
5
77
100
AcDbEntity
8
engrave
6
CONTINUOUS
62
256
370
5
100
AcDbLine
10
1.71
20
-23.745
11
1.71
21
-23.655
0
LINE
5
78
100
AcDbEntity
8
engrave
6
CONTINUOUS
62
256
370
5
100
AcDbLine
10
1.71
20
-24.375
11
1.71
21
-23.88
0
LWPOLYLINE
5
79
100
AcDbEntity
8
engrave
6
CONTINUOUS
62
256
370
5
100
AcDbPolyline
90
17
70
0
43
0
10
1.53
20
-23.985
10
1.5
20
-23.91
10
1.395
20
-23.88
10
1.275
20
-23.88
10
1.17
20
-23.91
10
1.14
20
-23.97
10
1.17
20
-24.045
10
1.245
20
-24.09
10
1.425
20
-24.12
10
1.5
20
-24.165
10
1.53
20
-24.225
10
1.53
20
-24.27
10
1.5
20
-24.345
10
1.395
20
-24.375
10
1.275
20
-24.375
10
1.185
20
-24.345
10
1.14
20
-24.27
0
LWPOLYLINE
5
7A
100
AcDbEntity
8
engrave
6
CONTINUOUS
62
256
370
5
100
AcDbPolyline
90
5
70
0
43
0
10
-0.225
20
-24.12
10
0.21
20
-24.12
10
0.21
20
-24.06
10
0.195
20
-24
10
0.165
20
-23.94
0
LWPOLYLINE
5
7B
100
AcDbEntity
8
engrave
6
CONTINUOUS
62
256
370
5
100
AcDbPolyline
90
15
70
0
43
0
10
0.165
20
-23.94
10
0.105
20
-23.895
10
0.06
20
-23.88
10
-0.045
20
-23.88
10
-0.12
20
-23.91
10
-0.18
20
-23.97
10
-0.225
20
-24.06
10
-0.225
20
-24.165
10
-0.195
20
-24.255
10
-0.135
20
-24.33
10
-0.045
20
-24.375
10
0.06
20
-24.375
10
0.135
20
-24.345
10
0.18
20
-24.3
10
0.21
20
-24.255
0
LWPOLYLINE
5
7C
100
AcDbEntity
8
engrave
6
CONTINUOUS
62
256
370
5
100
AcDbPolyline
90
16
70
0
43
0
10
-0.405
20
-24
10
-0.45
20
-23.94
10
-0.51
20
-23.895
10
-0.555
20
-23.88
10
-0.66
20
-23.88
10
-0.735
20
-23.91
10
-0.795
20
-23.97
10
-0.84
20
-24.06
10
-0.84
20
-24.165
10
-0.81
20
-24.255
10
-0.75
20
-24.33
10
-0.66
20
-24.375
10
-0.555
20
-24.375
10
-0.48
20
-24.345
10
-0.435
20
-24.3
10
-0.405
20
-24.255
0
LINE
5
7D
100
AcDbEntity
8
engrave
6
CONTINUOUS
62
256
370
5
100
AcDbLine
10
-1.02
20
-23.745
11
-1.02
21
-23.655
0
LINE
5
7E
100
AcDbEntity
8
engrave
6
CONTINUOUS
62
256
370
5
100
AcDbLine
10
-1.02
20
-24.375
11
-1.02
21
-23.88
0
LWPOLYLINE
5
7F
100
AcDbEntity
8
engrave
6
CONTINUOUS
62
256
370
5
100
AcDbPolyline
90
3
70
0
43
0
10
-1.65
20
-23.88
10
-1.425
20
-24.375
10
-1.2
20
-23.88
0
LWPOLYLINE
5
80
100
AcDbEntity
8
engrave
6
CONTINUOUS
62
256
370
5
100
AcDbPolyline
90
5
70
0
43
0
10
-2.265
20
-24.12
10
-1.83
20
-24.12
10
-1.83
20
-24.06
10
-1.845
20
-24
10
-1.875
20
-23.94
0
LWPOLYLINE
5
81
100
AcDbEntity
8
engrave
6
CONTINUOUS
62
256
370
5
100
AcDbPolyline
90
15
70
0
43
0
10
-1.875
20
-23.94
10
-1.935
20
-23.895
10
-1.98
20
-23.88
10
-2.085
20
-23.88
10
-2.16
20
-23.91
10
-2.22
20
-23.97
10
-2.265
20
-24.06
10
-2.265
20
-24.165
10
-2.235
20
-24.255
10
-2.175
20
-24.33
10
-2.085
20
-24.375
10
-1.98
20
-24.375
10
-1.905
20
-24.345
10
-1.86
20
-24.3
10
-1.83
20
-24.255
0
LWPOLYLINE
5
82
100
AcDbEntity
8
engrave
6
CONTINUOUS
62
256
370
5
100
AcDbPolyline
90
10
70
1
43
0
10
-2.94
20
-23.625
10
-2.685
20
-23.625
10
-2.595
20
-23.655
10
-2.505
20
-23.73
10
-2.445
20
-23.91
10
-2.445
20
-24.09
10
-2.505
20
-24.255
10
-2.595
20
-24.345
10
-2.685
20
-24.375
10
-2.94
20
-24.375
0
LINE
5
83
100
AcDbEntity
8
engrave
6
CONTINUOUS
62
256
370
5
100
AcDbLine
10
2.12273086619
20
-25.6141875413
11
2.60273086619
21
-25.6141875413
0
LWPOLYLINE
5
84
100
AcDbEntity
8
engrave
6
CONTINUOUS
62
256
370
5
100
AcDbPolyline
90
3
70
0
43
0
10
2.39273086619
20
-24.8641875413
10
2.28773086619
20
-24.9691875413
10
2.19773086619
20
-25.0141875413
0
LINE
5
85
100
AcDbEntity
8
engrave
6
CONTINUOUS
62
256
370
5
100
AcDbLine
10
2.39273086619
20
-24.8641875413
11
2.39273086619
21
-25.6141875413
0
LWPOLYLINE
5
86
100
AcDbEntity
8
engrave
6
CONTINUOUS
62
256
370
5
100
AcDbPolyline
90
28
70
1
43
0
10
1.70273086619
20
-24.8641875413
10
1.67273086619
20
-24.8641875413
10
1.59773086619
20
-24.8791875413
10
1.53773086619
20
-24.9241875413
10
1.49273086619
20
-24.9991875413
10
1.47773086619
20
-25.0591875413
10
1.46273086619
20
-25.1341875413
10
1.46273086619
20
-25.2391875413
10
1.46273086619
20
-25.3441875413
10
1.47773086619
20
-25.4191875413
10
1.49273086619
20
-25.4791875413
10
1.53773086619
20
-25.5541875413
10
1.59773086619
20
-25.5991875413
10
1.67273086619
20
-25.6141875413
10
1.70273086619
20
-25.6141875413
10
1.73273086619
20
-25.6141875413
10
1.80773086619
20
-25.5991875413
10
1.86773086619
20
-25.5541875413
10
1.91273086619
20
-25.4791875413
10
1.92773086619
20
-25.4191875413
10
1.94273086619
20
-25.3441875413
10
1.94273086619
20
-25.2391875413
10
1.94273086619
20
-25.1341875413
10
1.92773086619
20
-25.0591875413
10
1.91273086619
20
-24.9991875413
10
1.86773086619
20
-24.9241875413
10
1.80773086619
20
-24.8791875413
10
1.73273086619
20
-24.8641875413
0
LINE
5
87
100
AcDbEntity
8
engrave
6
CONTINUOUS
62
256
370
5
100
AcDbLine
10
0.802730866193
20
-25.2841875413
11
1.28273086619
21
-25.2841875413
0
LWPOLYLINE
5
88
100
AcDbEntity
8
engrave
6
CONTINUOUS
62
256
370
5
100
AcDbPolyline
90
3
70
0
43
0
10
0.142730866193
20
-24.8641875413
10
0.622730866193
20
-24.8641875413
10
0.277730866192
20
-25.6141875413
0
LINE
5
89
100
AcDbEntity
8
engrave
6
CONTINUOUS
62
256
370
5
100
AcDbLine
10
-0.517269133807
20
-25.6141875413
11
-0.0372691338075
21
-25.6141875413
0
LWPOLYLINE
5
8A
100
AcDbEntity
8
engrave
6
CONTINUOUS
62
256
370
5
100
AcDbPolyline
90
3
70
0
43
0
10
-0.247269133807
20
-24.8641875413
10
-0.352269133807
20
-24.9691875413
10
-0.442269133807
20
-25.0141875413
0
LINE
5
8B
100
AcDbEntity
8
engrave
6
CONTINUOUS
62
256
370
5
100
AcDbLine
10
-0.247269133807
20
-24.8641875413
11
-0.247269133807
21
-25.6141875413
0
LWPOLYLINE
5
8C
100
AcDbEntity
8
engrave
6
CONTINUOUS
62
256
370
5
100
AcDbPolyline
90
28
70
1
43
0
10
-0.937269133808
20
-24.8641875413
10
-0.967269133807
20
-24.8641875413
10
-1.04226913381
20
-24.8791875413
10
-1.10226913381
20
-24.9241875413
10
-1.14726913381
20
-24.9991875413
10
-1.16226913381
20
-25.0591875413
10
-1.17726913381
20
-25.1341875413
10
-1.17726913381
20
-25.2391875413
10
-1.17726913381
20
-25.3441875413
10
-1.16226913381
20
-25.4191875413
10
-1.14726913381
20
-25.4791875413
10
-1.10226913381
20
-25.5541875413
10
-1.04226913381
20
-25.5991875413
10
-0.967269133807
20
-25.6141875413
10
-0.937269133808
20
-25.6141875413
10
-0.907269133807
20
-25.6141875413
10
-0.832269133808
20
-25.5991875413
10
-0.772269133807
20
-25.5541875413
10
-0.727269133807
20
-25.4791875413
10
-0.712269133807
20
-25.4191875413
10
-0.697269133807
20
-25.3441875413
10
-0.697269133807
20
-25.2391875413
10
-0.697269133807
20
-25.1341875413
10
-0.712269133807
20
-25.0591875413
10
-0.727269133807
20
-24.9991875413
10
-0.772269133807
20
-24.9241875413
10
-0.832269133808
20
-24.8791875413
10
-0.907269133807
20
-24.8641875413
0
LWPOLYLINE
5
8D
100
AcDbEntity
8
engrave
6
CONTINUOUS
62
256
370
5
100
AcDbPolyline
90
14
70
0
43
0
10
-1.80726913381
20
-25.0441875413
10
-1.80726913381
20
-25.0141875413
10
-1.79226913381
20
-24.9541875413
10
-1.73226913381
20
-24.8941875413
10
-1.65726913381
20
-24.8641875413
10
-1.50726913381
20
-24.8641875413
10
-1.43226913381
20
-24.9091875413
10
-1.38726913381
20
-24.9691875413
10
-1.37226913381
20
-25.0141875413
10
-1.37226913381
20
-25.0891875413
10
-1.40226913381
20
-25.1491875413
10
-1.46226913381
20
-25.2391875413
10
-1.83726913381
20
-25.6141875413
10
-1.35726913381
20
-25.6141875413
0
LWPOLYLINE
5
8E
100
AcDbEntity
8
engrave
6
CONTINUOUS
62
256
370
5
100
AcDbPolyline
90
3
70
0
43
0
10
-2.46726913381
20
-25.1191875413
10
-2.24226913381
20
-25.6141875413
10
-2.01726913381
20
-25.1191875413
0
LINE
5
8F
100
AcDbEntity
8
cut
6
CONTINUOUS
62
256
370
-1
100
AcDbLine
10
-15
20
2.5
11
-15
21
0.25
0
LINE
5
90
100
AcDbEntity
8
cut
6
CONTINUOUS
62
256
370
-1
100
AcDbLine
10
-15
20
0.25
11
-19
21
0.25
0
LINE
5
91
100
AcDbEntity
8
cut
6
CONTINUOUS
62
256
370
-1
100
AcDbLine
10
-19
20
0.25
11
-19
21
2.5
0
LINE
5
92
100
AcDbEntity
8
cut
6
CONTINUOUS
62
256
370
-1
100
AcDbLine
10
-9
20
2.5
11
-9
21
0.25
0
LINE
5
93
100
AcDbEntity
8
cut
6
CONTINUOUS
62
256
370
-1
100
AcDbLine
10
-9
20
0.25
11
-13
21
0.25
0
LINE
5
94
100
AcDbEntity
8
cut
6
CONTINUOUS
62
256
370
-1
100
AcDbLine
10
-13
20
0.25
11
-13
21
2.5
0
LINE
5
95
100
AcDbEntity
8
cut
6
CONTINUOUS
62
256
370
-1
100
AcDbLine
10
-19
20
25.5
11
-19
21
27.75
0
LINE
5
96
100
AcDbEntity
8
cut
6
CONTINUOUS
62
256
370
-1
100
AcDbLine
10
-19
20
27.75
11
-15
21
27.75
0
LINE
5
97
100
AcDbEntity
8
cut
6
CONTINUOUS
62
256
370
-1
100
AcDbLine
10
-15
20
27.75
11
-15
21
25.5
0
LINE
5
98
100
AcDbEntity
8
cut
6
CONTINUOUS
62
256
370
-1
100
AcDbLine
10
-13
20
25.5
11
-13
21
27.75
0
LINE
5
99
100
AcDbEntity
8
cut
6
CONTINUOUS
62
256
370
-1
100
AcDbLine
10
-13
20
27.75
11
-9
21
27.75
0
LINE
5
9A
100
AcDbEntity
8
cut
6
CONTINUOUS
62
256
370
-1
100
AcDbLine
10
-9
20
27.75
11
-9
21
25.5
0
LINE
5
9B
100
AcDbEntity
8
cut
6
CONTINUOUS
62
256
370
-1
100
AcDbLine
10
-7
20
25.5
11
-7
21
27.75
0
LINE
5
9C
100
AcDbEntity
8
cut
6
CONTINUOUS
62
256
370
-1
100
AcDbLine
10
-7
20
27.75
11
-3
21
27.75
0
LINE
5
9D
100
AcDbEntity
8
cut
6
CONTINUOUS
62
256
370
-1
100
AcDbLine
10
-3
20
27.75
11
-3
21
25.5
0
LINE
5
9E
100
AcDbEntity
8
cut
6
CONTINUOUS
62
256
370
-1
100
AcDbLine
10
-21
20
2.5
11
-21
21
0.25
0
LINE
5
9F
100
AcDbEntity
8
cut
6
CONTINUOUS
62
256
370
-1
100
AcDbLine
10
-21
20
0.25
11
-25
21
0.25
0
LINE
5
A0
100
AcDbEntity
8
cut
6
CONTINUOUS
62
256
370
-1
100
AcDbLine
10
-25
20
0.25
11
-25
21
2.5
0
LINE
5
A1
100
AcDbEntity
8
cut
6
CONTINUOUS
62
256
370
-1
100
AcDbLine
10
-7
20
0.25
11
-7
21
2.5
0
LINE
5
A2
100
AcDbEntity
8
cut
6
CONTINUOUS
62
256
370
-1
100
AcDbLine
10
-3
20
2.5
11
-3
21
0.25
0
LINE
5
A3
100
AcDbEntity
8
cut
6
CONTINUOUS
62
256
370
-1
100
AcDbLine
10
-3
20
0.25
11
-7
21
0.25
0
LINE
5
A4
100
AcDbEntity
8
cut
6
CONTINUOUS
62
256
370
-1
100
AcDbLine
10
-21
20
27.75
11
-21
21
25.5
0
LINE
5
A5
100
AcDbEntity
8
cut
6
CONTINUOUS
62
256
370
-1
100
AcDbLine
10
-25
20
25.5
11
-25
21
27.75
0
LINE
5
A6
100
AcDbEntity
8
cut
6
CONTINUOUS
62
256
370
-1
100
AcDbLine
10
-25
20
27.75
11
-21
21
27.75
0
LINE
5
A7
100
AcDbEntity
8
cut
6
CONTINUOUS
62
256
370
-1
100
AcDbLine
10
13
20
2.5
11
13
21
0.25
0
LINE
5
A8
100
AcDbEntity
8
cut
6
CONTINUOUS
62
256
370
-1
100
AcDbLine
10
13
20
0.25
11
9
21
0.25
0
LINE
5
A9
100
AcDbEntity
8
cut
6
CONTINUOUS
62
256
370
-1
100
AcDbLine
10
9
20
0.25
11
9
21
2.5
0
LINE
5
AA
100
AcDbEntity
8
cut
6
CONTINUOUS
62
256
370
-1
100
AcDbLine
10
19
20
2.5
11
19
21
0.25
0
LINE
5
AB
100
AcDbEntity
8
cut
6
CONTINUOUS
62
256
370
-1
100
AcDbLine
10
19
20
0.25
11
15
21
0.25
0
LINE
5
AC
100
AcDbEntity
8
cut
6
CONTINUOUS
62
256
370
-1
100
AcDbLine
10
15
20
0.25
11
15
21
2.5
0
LINE
5
AD
100
AcDbEntity
8
cut
6
CONTINUOUS
62
256
370
-1
100
AcDbLine
10
9
20
25.5
11
9
21
27.75
0
LINE
5
AE
100
AcDbEntity
8
cut
6
CONTINUOUS
62
256
370
-1
100
AcDbLine
10
9
20
27.75
11
13
21
27.75
0
LINE
5
AF
100
AcDbEntity
8
cut
6
CONTINUOUS
62
256
370
-1
100
AcDbLine
10
13
20
27.75
11
13
21
25.5
0
LINE
5
B0
100
AcDbEntity
8
cut
6
CONTINUOUS
62
256
370
-1
100
AcDbLine
10
15
20
25.5
11
15
21
27.75
0
LINE
5
B1
100
AcDbEntity
8
cut
6
CONTINUOUS
62
256
370
-1
100
AcDbLine
10
15
20
27.75
11
19
21
27.75
0
LINE
5
B2
100
AcDbEntity
8
cut
6
CONTINUOUS
62
256
370
-1
100
AcDbLine
10
19
20
27.75
11
19
21
25.5
0
LINE
5
B3
100
AcDbEntity
8
cut
6
CONTINUOUS
62
256
370
-1
100
AcDbLine
10
21
20
25.5
11
21
21
27.75
0
LINE
5
B4
100
AcDbEntity
8
cut
6
CONTINUOUS
62
256
370
-1
100
AcDbLine
10
21
20
27.75
11
25
21
27.75
0
LINE
5
B5
100
AcDbEntity
8
cut
6
CONTINUOUS
62
256
370
-1
100
AcDbLine
10
25
20
27.75
11
25
21
25.5
0
LINE
5
B6
100
AcDbEntity
8
cut
6
CONTINUOUS
62
256
370
-1
100
AcDbLine
10
7
20
2.5
11
7
21
0.25
0
LINE
5
B7
100
AcDbEntity
8
cut
6
CONTINUOUS
62
256
370
-1
100
AcDbLine
10
7
20
0.25
11
3
21
0.25
0
LINE
5
B8
100
AcDbEntity
8
cut
6
CONTINUOUS
62
256
370
-1
100
AcDbLine
10
3
20
0.25
11
3
21
2.5
0
LINE
5
B9
100
AcDbEntity
8
cut
6
CONTINUOUS
62
256
370
-1
100
AcDbLine
10
21
20
0.25
11
21
21
2.5
0
LINE
5
BA
100
AcDbEntity
8
cut
6
CONTINUOUS
62
256
370
-1
100
AcDbLine
10
25
20
2.5
11
25
21
0.25
0
LINE
5
BB
100
AcDbEntity
8
cut
6
CONTINUOUS
62
256
370
-1
100
AcDbLine
10
25
20
0.25
11
21
21
0.25
0
LINE
5
BC
100
AcDbEntity
8
cut
6
CONTINUOUS
62
256
370
-1
100
AcDbLine
10
7
20
27.75
11
7
21
25.5
0
LINE
5
BD
100
AcDbEntity
8
cut
6
CONTINUOUS
62
256
370
-1
100
AcDbLine
10
3
20
25.5
11
3
21
27.75
0
LINE
5
BE
100
AcDbEntity
8
cut
6
CONTINUOUS
62
256
370
-1
100
AcDbLine
10
3
20
27.75
11
7
21
27.75
0
LINE
5
BF
100
AcDbEntity
8
cut
6
CONTINUOUS
62
256
370
-1
100
AcDbLine
10
-15
20
-25.5
11
-15
21
-27.75
0
LINE
5
C0
100
AcDbEntity
8
cut
6
CONTINUOUS
62
256
370
-1
100
AcDbLine
10
-15
20
-27.75
11
-19
21
-27.75
0
LINE
5
C1
100
AcDbEntity
8
cut
6
CONTINUOUS
62
256
370
-1
100
AcDbLine
10
-19
20
-27.75
11
-19
21
-25.5
0
LINE
5
C2
100
AcDbEntity
8
cut
6
CONTINUOUS
62
256
370
-1
100
AcDbLine
10
-9
20
-25.5
11
-9
21
-27.75
0
LINE
5
C3
100
AcDbEntity
8
cut
6
CONTINUOUS
62
256
370
-1
100
AcDbLine
10
-9
20
-27.75
11
-13
21
-27.75
0
LINE
5
C4
100
AcDbEntity
8
cut
6
CONTINUOUS
62
256
370
-1
100
AcDbLine
10
-13
20
-27.75
11
-13
21
-25.5
0
LINE
5
C5
100
AcDbEntity
8
cut
6
CONTINUOUS
62
256
370
-1
100
AcDbLine
10
-19
20
-2.5
11
-19
21
-0.25
0
LINE
5
C6
100
AcDbEntity
8
cut
6
CONTINUOUS
62
256
370
-1
100
AcDbLine
10
-19
20
-0.25
11
-15
21
-0.25
0
LINE
5
C7
100
AcDbEntity
8
cut
6
CONTINUOUS
62
256
370
-1
100
AcDbLine
10
-15
20
-0.25
11
-15
21
-2.5
0
LINE
5
C8
100
AcDbEntity
8
cut
6
CONTINUOUS
62
256
370
-1
100
AcDbLine
10
-13
20
-2.5
11
-13
21
-0.25
0
LINE
5
C9
100
AcDbEntity
8
cut
6
CONTINUOUS
62
256
370
-1
100
AcDbLine
10
-13
20
-0.25
11
-9
21
-0.25
0
LINE
5
CA
100
AcDbEntity
8
cut
6
CONTINUOUS
62
256
370
-1
100
AcDbLine
10
-9
20
-0.25
11
-9
21
-2.5
0
LINE
5
CB
100
AcDbEntity
8
cut
6
CONTINUOUS
62
256
370
-1
100
AcDbLine
10
-7
20
-2.5
11
-7
21
-0.25
0
LINE
5
CC
100
AcDbEntity
8
cut
6
CONTINUOUS
62
256
370
-1
100
AcDbLine
10
-7
20
-0.25
11
-3
21
-0.25
0
LINE
5
CD
100
AcDbEntity
8
cut
6
CONTINUOUS
62
256
370
-1
100
AcDbLine
10
-3
20
-0.25
11
-3
21
-2.5
0
LINE
5
CE
100
AcDbEntity
8
cut
6
CONTINUOUS
62
256
370
-1
100
AcDbLine
10
-21
20
-25.5
11
-21
21
-27.75
0
LINE
5
CF
100
AcDbEntity
8
cut
6
CONTINUOUS
62
256
370
-1
100
AcDbLine
10
-21
20
-27.75
11
-25
21
-27.75
0
LINE
5
D0
100
AcDbEntity
8
cut
6
CONTINUOUS
62
256
370
-1
100
AcDbLine
10
-25
20
-27.75
11
-25
21
-25.5
0
LINE
5
D1
100
AcDbEntity
8
cut
6
CONTINUOUS
62
256
370
-1
100
AcDbLine
10
-7
20
-27.75
11
-7
21
-25.5
0
LINE
5
D2
100
AcDbEntity
8
cut
6
CONTINUOUS
62
256
370
-1
100
AcDbLine
10
-3
20
-25.5
11
-3
21
-27.75
0
LINE
5
D3
100
AcDbEntity
8
cut
6
CONTINUOUS
62
256
370
-1
100
AcDbLine
10
-3
20
-27.75
11
-7
21
-27.75
0
LINE
5
D4
100
AcDbEntity
8
cut
6
CONTINUOUS
62
256
370
-1
100
AcDbLine
10
-21
20
-0.25
11
-21
21
-2.5
0
LINE
5
D5
100
AcDbEntity
8
cut
6
CONTINUOUS
62
256
370
-1
100
AcDbLine
10
-25
20
-2.5
11
-25
21
-0.25
0
LINE
5
D6
100
AcDbEntity
8
cut
6
CONTINUOUS
62
256
370
-1
100
AcDbLine
10
-25
20
-0.25
11
-21
21
-0.25
0
LINE
5
D7
100
AcDbEntity
8
cut
6
CONTINUOUS
62
256
370
-1
100
AcDbLine
10
13
20
-25.5
11
13
21
-27.75
0
LINE
5
D8
100
AcDbEntity
8
cut
6
CONTINUOUS
62
256
370
-1
100
AcDbLine
10
13
20
-27.75
11
9
21
-27.75
0
LINE
5
D9
100
AcDbEntity
8
cut
6
CONTINUOUS
62
256
370
-1
100
AcDbLine
10
9
20
-27.75
11
9
21
-25.5
0
LINE
5
DA
100
AcDbEntity
8
cut
6
CONTINUOUS
62
256
370
-1
100
AcDbLine
10
19
20
-25.5
11
19
21
-27.75
0
LINE
5
DB
100
AcDbEntity
8
cut
6
CONTINUOUS
62
256
370
-1
100
AcDbLine
10
19
20
-27.75
11
15
21
-27.75
0
LINE
5
DC
100
AcDbEntity
8
cut
6
CONTINUOUS
62
256
370
-1
100
AcDbLine
10
15
20
-27.75
11
15
21
-25.5
0
LINE
5
DD
100
AcDbEntity
8
cut
6
CONTINUOUS
62
256
370
-1
100
AcDbLine
10
9
20
-2.5
11
9
21
-0.25
0
LINE
5
DE
100
AcDbEntity
8
cut
6
CONTINUOUS
62
256
370
-1
100
AcDbLine
10
9
20
-0.25
11
13
21
-0.25
0
LINE
5
DF
100
AcDbEntity
8
cut
6
CONTINUOUS
62
256
370
-1
100
AcDbLine
10
13
20
-0.25
11
13
21
-2.5
0
LINE
5
E0
100
AcDbEntity
8
cut
6
CONTINUOUS
62
256
370
-1
100
AcDbLine
10
15
20
-2.5
11
15
21
-0.25
0
LINE
5
E1
100
AcDbEntity
8
cut
6
CONTINUOUS
62
256
370
-1
100
AcDbLine
10
15
20
-0.25
11
19
21
-0.25
0
LINE
5
E2
100
AcDbEntity
8
cut
6
CONTINUOUS
62
256
370
-1
100
AcDbLine
10
19
20
-0.25
11
19
21
-2.5
0
LINE
5
E3
100
AcDbEntity
8
cut
6
CONTINUOUS
62
256
370
-1
100
AcDbLine
10
21
20
-2.5
11
21
21
-0.25
0
LINE
5
E4
100
AcDbEntity
8
cut
6
CONTINUOUS
62
256
370
-1
100
AcDbLine
10
21
20
-0.25
11
25
21
-0.25
0
LINE
5
E5
100
AcDbEntity
8
cut
6
CONTINUOUS
62
256
370
-1
100
AcDbLine
10
25
20
-0.25
11
25
21
-2.5
0
LINE
5
E6
100
AcDbEntity
8
cut
6
CONTINUOUS
62
256
370
-1
100
AcDbLine
10
7
20
-25.5
11
7
21
-27.75
0
LINE
5
E7
100
AcDbEntity
8
cut
6
CONTINUOUS
62
256
370
-1
100
AcDbLine
10
7
20
-27.75
11
3
21
-27.75
0
LINE
5
E8
100
AcDbEntity
8
cut
6
CONTINUOUS
62
256
370
-1
100
AcDbLine
10
3
20
-27.75
11
3
21
-25.5
0
LINE
5
E9
100
AcDbEntity
8
cut
6
CONTINUOUS
62
256
370
-1
100
AcDbLine
10
21
20
-27.75
11
21
21
-25.5
0
LINE
5
EA
100
AcDbEntity
8
cut
6
CONTINUOUS
62
256
370
-1
100
AcDbLine
10
25
20
-25.5
11
25
21
-27.75
0
LINE
5
EB
100
AcDbEntity
8
cut
6
CONTINUOUS
62
256
370
-1
100
AcDbLine
10
25
20
-27.75
11
21
21
-27.75
0
LINE
5
EC
100
AcDbEntity
8
cut
6
CONTINUOUS
62
256
370
-1
100
AcDbLine
10
7
20
-0.25
11
7
21
-2.5
0
LINE
5
ED
100
AcDbEntity
8
cut
6
CONTINUOUS
62
256
370
-1
100
AcDbLine
10
3
20
-2.5
11
3
21
-0.25
0
LINE
5
EE
100
AcDbEntity
8
cut
6
CONTINUOUS
62
256
370
-1
100
AcDbLine
10
3
20
-0.25
11
7
21
-0.25
0
LINE
5
EF
100
AcDbEntity
8
cut
6
ByLayer
62
256
370
-1
100
AcDbLine
10
-11.871618692
20
20.9164507105
11
-11.2451452544
21
25.2
0
LINE
5
F0
100
AcDbEntity
8
cut
6
ByLayer
62
256
370
-1
100
AcDbLine
10
-10.234507159
20
25.2
11
-10.8822030411
21
20.7713409877
0
ARC
5
F1
100
AcDbEntity
8
cut
6
ByLayer
62
256
370
-1
100
AcDbCircle
10
-16.349154095
20
20.5224485402
40
1.97
100
AcDbArc
50
116.397906298
51
87.0251978726
0
ARC
5
F2
100
AcDbEntity
8
cut
6
ByLayer
62
256
370
-1
100
AcDbCircle
10
-11.6534162676
20
18.958572343
40
1.97
100
AcDbArc
50
96.359280969
51
66.9534543035
0
LINE
5
F3
100
AcDbEntity
8
cut
6
ByLayer
62
256
370
-1
100
AcDbLine
10
-16.128381308
20
7.0835492895
11
-16.7548547456
21
2.8
0
LINE
5
F4
100
AcDbEntity
8
cut
6
ByLayer
62
256
370
-1
100
AcDbLine
10
-17.765492841
20
2.8
11
-17.1177969589
21
7.2286590123
0
ARC
5
F5
100
AcDbEntity
8
cut
6
ByLayer
62
256
370
-1
100
AcDbCircle
10
-11.650845905
20
7.4775514598
40
1.97
100
AcDbArc
50
296.397906298
51
267.025197873
0
ARC
5
F6
100
AcDbEntity
8
cut
6
ByLayer
62
256
370
-1
100
AcDbCircle
10
-16.3465837324
20
9.041427657
40
1.97
100
AcDbArc
50
276.359280969
51
246.953454303
0
LINE
5
F7
100
AcDbEntity
8
cut
6
ByLayer
62
256
370
-1
100
AcDbLine
10
-10.7749790828
20
5.712967285
11
-10.196006162
21
2.8
0
LINE
5
F8
100
AcDbEntity
8
cut
6
ByLayer
62
256
370
-1
100
AcDbLine
10
-11.2155669426
20
2.8
11
-11.7530825381
21
5.5102061239
0
LINE
5
F9
100
AcDbEntity
8
cut
6
ByLayer
62
256
370
-1
100
AcDbLine
10
-17.2250209172
20
22.287032715
11
-17.803993838
21
25.2
0
LINE
5
FA
100
AcDbEntity
8
cut
6
ByLayer
62
256
370
-1
100
AcDbLine
10
-16.7844330574
20
25.2
11
-16.2469174619
21
22.4897938761
0
LINE
5
FB
100
AcDbEntity
8
cut
6
ByLayer
62
256
370
-1
100
AcDbLine
10
-21.9559823923
20
20.7082735306
11
-23.0280907528
21
25.2
0
LINE
5
FC
100
AcDbEntity
8
cut
6
ByLayer
62
256
370
-1
100
AcDbLine
10
-20.9833056152
20
20.9404370232
11
-22
21
25.2
0
ARC
5
FD
100
AcDbEntity
8
cut
6
ByLayer
62
256
370
-1
100
AcDbCircle
10
-21.0272583114
20
18.9709273988
40
1.97
100
AcDbArc
50
118.127391251
51
88.721567021
0
ARC
5
FE
100
AcDbEntity
8
cut
6
ByLayer
62
256
370
-1
100
AcDbCircle
10
-6.97274168856
20
9.0290726012
40
1.97
100
AcDbArc
50
298.127391251
51
268.721567021
0
LINE
5
FF
100
AcDbEntity
8
cut
6
ByLayer
62
256
370
-1
100
AcDbLine
10
-6.04401760772
20
7.2917264694
11
-4.9719092472
21
2.8
0
LINE
5
100
100
AcDbEntity
8
cut
6
ByLayer
62
256
370
-1
100
AcDbLine
10
-7.01669438483
20
7.05956297683
11
-6
21
2.8
0
ARC
5
101
100
AcDbEntity
8
cut
6
ByLayer
62
256
370
-1
100
AcDbCircle
10
-21.0218106094
20
7.4637372743
40
1.97
100
AcDbArc
50
266.834239052
51
237.428414823
0
LINE
5
102
100
AcDbEntity
8
cut
6
ByLayer
62
256
370
-1
100
AcDbLine
10
-21.1306035494
20
5.49674360471
11
-22
21
2.8
0
LINE
5
103
100
AcDbEntity
8
cut
6
ByLayer
62
256
370
-1
100
AcDbLine
10
-22.0823658608
20
5.80357988454
11
-23.0506824507
21
2.8000001374
0
ARC
5
104
100
AcDbEntity
8
cut
6
ByLayer
62
256
370
-1
100
AcDbCircle
10
-6.9781893906
20
20.5362627257
40
1.97
100
AcDbArc
50
86.8342390524
51
57.4284148229
0
LINE
5
105
100
AcDbEntity
8
cut
6
ByLayer
62
256
370
-1
100
AcDbLine
10
-6.8693964506
20
22.5032563953
11
-6
21
25.2
0
LINE
5
106
100
AcDbEntity
8
cut
6
ByLayer
62
256
370
-1
100
AcDbLine
10
-5.91763413921
20
22.1964201155
11
-4.94931754927
21
25.1999998626
0
LINE
5
107
100
AcDbEntity
8
cut
6
ByLayer
62
256
370
-1
100
AcDbLine
10
16.128381308
20
20.9164507105
11
16.7548547456
21
25.2
0
LINE
5
108
100
AcDbEntity
8
cut
6
ByLayer
62
256
370
-1
100
AcDbLine
10
17.765492841
20
25.2
11
17.1177969589
21
20.7713409877
0
ARC
5
109
100
AcDbEntity
8
cut
6
ByLayer
62
256
370
-1
100
AcDbCircle
10
11.650845905
20
20.5224485402
40
1.97
100
AcDbArc
50
116.397906298
51
87.0251978726
0
ARC
5
10A
100
AcDbEntity
8
cut
6
ByLayer
62
256
370
-1
100
AcDbCircle
10
16.3465837324
20
18.958572343
40
1.97
100
AcDbArc
50
96.359280969
51
66.9534543035
0
LINE
5
10B
100
AcDbEntity
8
cut
6
ByLayer
62
256
370
-1
100
AcDbLine
10
11.871618692
20
7.0835492895
11
11.2451452544
21
2.8
0
LINE
5
10C
100
AcDbEntity
8
cut
6
ByLayer
62
256
370
-1
100
AcDbLine
10
10.234507159
20
2.8
11
10.8822030411
21
7.2286590123
0
ARC
5
10D
100
AcDbEntity
8
cut
6
ByLayer
62
256
370
-1
100
AcDbCircle
10
16.349154095
20
7.4775514598
40
1.97
100
AcDbArc
50
296.397906298
51
267.025197873
0
ARC
5
10E
100
AcDbEntity
8
cut
6
ByLayer
62
256
370
-1
100
AcDbCircle
10
11.6534162676
20
9.041427657
40
1.97
100
AcDbArc
50
276.359280969
51
246.953454303
0
LINE
5
10F
100
AcDbEntity
8
cut
6
ByLayer
62
256
370
-1
100
AcDbLine
10
17.2250209172
20
5.712967285
11
17.803993838
21
2.8
0
LINE
5
110
100
AcDbEntity
8
cut
6
ByLayer
62
256
370
-1
100
AcDbLine
10
16.7844330574
20
2.8
11
16.2469174619
21
5.5102061239
0
LINE
5
111
100
AcDbEntity
8
cut
6
ByLayer
62
256
370
-1
100
AcDbLine
10
10.7749790828
20
22.287032715
11
10.196006162
21
25.2
0
LINE
5
112
100
AcDbEntity
8
cut
6
ByLayer
62
256
370
-1
100
AcDbLine
10
11.2155669426
20
25.2
11
11.7530825381
21
22.4897938761
0
LINE
5
113
100
AcDbEntity
8
cut
6
ByLayer
62
256
370
-1
100
AcDbLine
10
6.04401760772
20
20.7082735306
11
4.9719092472
21
25.2
0
LINE
5
114
100
AcDbEntity
8
cut
6
ByLayer
62
256
370
-1
100
AcDbLine
10
7.01669438483
20
20.9404370232
11
6
21
25.2
0
ARC
5
115
100
AcDbEntity
8
cut
6
ByLayer
62
256
370
-1
100
AcDbCircle
10
6.97274168856
20
18.9709273988
40
1.97
100
AcDbArc
50
118.127391251
51
88.721567021
0
ARC
5
116
100
AcDbEntity
8
cut
6
ByLayer
62
256
370
-1
100
AcDbCircle
10
21.0272583114
20
9.0290726012
40
1.97
100
AcDbArc
50
298.127391251
51
268.721567021
0
LINE
5
117
100
AcDbEntity
8
cut
6
ByLayer
62
256
370
-1
100
AcDbLine
10
21.9559823923
20
7.2917264694
11
23.0280907528
21
2.8
0
LINE
5
118
100
AcDbEntity
8
cut
6
ByLayer
62
256
370
-1
100
AcDbLine
10
20.9833056152
20
7.05956297683
11
22
21
2.8
0
ARC
5
119
100
AcDbEntity
8
cut
6
ByLayer
62
256
370
-1
100
AcDbCircle
10
6.9781893906
20
7.4637372743
40
1.97
100
AcDbArc
50
266.834239052
51
237.428414823
0
LINE
5
11A
100
AcDbEntity
8
cut
6
ByLayer
62
256
370
-1
100
AcDbLine
10
6.8693964506
20
5.49674360471
11
6
21
2.8
0
LINE
5
11B
100
AcDbEntity
8
cut
6
ByLayer
62
256
370
-1
100
AcDbLine
10
5.91763413921
20
5.80357988454
11
4.94931754927
21
2.8000001374
0
ARC
5
11C
100
AcDbEntity
8
cut
6
ByLayer
62
256
370
-1
100
AcDbCircle
10
21.0218106094
20
20.5362627257
40
1.97
100
AcDbArc
50
86.8342390524
51
57.4284148229
0
LINE
5
11D
100
AcDbEntity
8
cut
6
ByLayer
62
256
370
-1
100
AcDbLine
10
21.1306035494
20
22.5032563953
11
22
21
25.2
0
LINE
5
11E
100
AcDbEntity
8
cut
6
ByLayer
62
256
370
-1
100
AcDbLine
10
22.0823658608
20
22.1964201155
11
23.0506824507
21
25.1999998626
0
LINE
5
11F
100
AcDbEntity
8
cut
6
ByLayer
62
256
370
-1
100
AcDbLine
10
-11.871618692
20
-7.0835492895
11
-11.2451452544
21
-2.8
0
LINE
5
120
100
AcDbEntity
8
cut
6
ByLayer
62
256
370
-1
100
AcDbLine
10
-10.234507159
20
-2.8
11
-10.8822030411
21
-7.2286590123
0
ARC
5
121
100
AcDbEntity
8
cut
6
ByLayer
62
256
370
-1
100
AcDbCircle
10
-16.349154095
20
-7.4775514598
40
1.97
100
AcDbArc
50
116.397906298
51
87.0251978726
0
ARC
5
122
100
AcDbEntity
8
cut
6
ByLayer
62
256
370
-1
100
AcDbCircle
10
-11.6534162676
20
-9.041427657
40
1.97
100
AcDbArc
50
96.359280969
51
66.9534543035
0
LINE
5
123
100
AcDbEntity
8
cut
6
ByLayer
62
256
370
-1
100
AcDbLine
10
-16.128381308
20
-20.9164507105
11
-16.7548547456
21
-25.2
0
LINE
5
124
100
AcDbEntity
8
cut
6
ByLayer
62
256
370
-1
100
AcDbLine
10
-17.765492841
20
-25.2
11
-17.1177969589
21
-20.7713409877
0
ARC
5
125
100
AcDbEntity
8
cut
6
ByLayer
62
256
370
-1
100
AcDbCircle
10
-11.650845905
20
-20.5224485402
40
1.97
100
AcDbArc
50
296.397906298
51
267.025197873
0
ARC
5
126
100
AcDbEntity
8
cut
6
ByLayer
62
256
370
-1
100
AcDbCircle
10
-16.3465837324
20
-18.958572343
40
1.97
100
AcDbArc
50
276.359280969
51
246.953454303
0
LINE
5
127
100
AcDbEntity
8
cut
6
ByLayer
62
256
370
-1
100
AcDbLine
10
-10.7749790828
20
-22.287032715
11
-10.196006162
21
-25.2
0
LINE
5
128
100
AcDbEntity
8
cut
6
ByLayer
62
256
370
-1
100
AcDbLine
10
-11.2155669426
20
-25.2
11
-11.7530825381
21
-22.4897938761
0
LINE
5
129
100
AcDbEntity
8
cut
6
ByLayer
62
256
370
-1
100
AcDbLine
10
-17.2250209172
20
-5.712967285
11
-17.803993838
21
-2.8
0
LINE
5
12A
100
AcDbEntity
8
cut
6
ByLayer
62
256
370
-1
100
AcDbLine
10
-16.7844330574
20
-2.8
11
-16.2469174619
21
-5.5102061239
0
LINE
5
12B
100
AcDbEntity
8
cut
6
ByLayer
62
256
370
-1
100
AcDbLine
10
-21.9559823923
20
-7.2917264694
11
-23.0280907528
21
-2.8
0
LINE
5
12C
100
AcDbEntity
8
cut
6
ByLayer
62
256
370
-1
100
AcDbLine
10
-20.9833056152
20
-7.05956297683
11
-22
21
-2.8
0
ARC
5
12D
100
AcDbEntity
8
cut
6
ByLayer
62
256
370
-1
100
AcDbCircle
10
-21.0272583114
20
-9.0290726012
40
1.97
100
AcDbArc
50
118.127391251
51
88.721567021
0
ARC
5
12E
100
AcDbEntity
8
cut
6
ByLayer
62
256
370
-1
100
AcDbCircle
10
-6.97274168856
20
-18.9709273988
40
1.97
100
AcDbArc
50
298.127391251
51
268.721567021
0
LINE
5
12F
100
AcDbEntity
8
cut
6
ByLayer
62
256
370
-1
100
AcDbLine
10
-6.04401760772
20
-20.7082735306
11
-4.9719092472
21
-25.2
0
LINE
5
130
100
AcDbEntity
8
cut
6
ByLayer
62
256
370
-1
100
AcDbLine
10
-7.01669438483
20
-20.9404370232
11
-6
21
-25.2
0
ARC
5
131
100
AcDbEntity
8
cut
6
ByLayer
62
256
370
-1
100
AcDbCircle
10
-21.0218106094
20
-20.5362627257
40
1.97
100
AcDbArc
50
266.834239052
51
237.428414823
0
LINE
5
132
100
AcDbEntity
8
cut
6
ByLayer
62
256
370
-1
100
AcDbLine
10
-21.1306035494
20
-22.5032563953
11
-22
21
-25.2
0
LINE
5
133
100
AcDbEntity
8
cut
6
ByLayer
62
256
370
-1
100
AcDbLine
10
-22.0823658608
20
-22.1964201155
11
-23.0506824507
21
-25.1999998626
0
ARC
5
134
100
AcDbEntity
8
cut
6
ByLayer
62
256
370
-1
100
AcDbCircle
10
-6.9781893906
20
-7.4637372743
40
1.97
100
AcDbArc
50
86.8342390524
51
57.4284148229
0
LINE
5
135
100
AcDbEntity
8
cut
6
ByLayer
62
256
370
-1
100
AcDbLine
10
-6.8693964506
20
-5.49674360471
11
-6
21
-2.8
0
LINE
5
136
100
AcDbEntity
8
cut
6
ByLayer
62
256
370
-1
100
AcDbLine
10
-5.91763413921
20
-5.80357988454
11
-4.94931754927
21
-2.8000001374
0
LINE
5
137
100
AcDbEntity
8
cut
6
ByLayer
62
256
370
-1
100
AcDbLine
10
16.128381308
20
-7.0835492895
11
16.7548547456
21
-2.8
0
LINE
5
138
100
AcDbEntity
8
cut
6
ByLayer
62
256
370
-1
100
AcDbLine
10
17.765492841
20
-2.8
11
17.1177969589
21
-7.2286590123
0
ARC
5
139
100
AcDbEntity
8
cut
6
ByLayer
62
256
370
-1
100
AcDbCircle
10
11.650845905
20
-7.4775514598
40
1.97
100
AcDbArc
50
116.397906298
51
87.0251978726
0
ARC
5
13A
100
AcDbEntity
8
cut
6
ByLayer
62
256
370
-1
100
AcDbCircle
10
16.3465837324
20
-9.041427657
40
1.97
100
AcDbArc
50
96.359280969
51
66.9534543035
0
LINE
5
13B
100
AcDbEntity
8
cut
6
ByLayer
62
256
370
-1
100
AcDbLine
10
11.871618692
20
-20.9164507105
11
11.2451452544
21
-25.2
0
LINE
5
13C
100
AcDbEntity
8
cut
6
ByLayer
62
256
370
-1
100
AcDbLine
10
10.234507159
20
-25.2
11
10.8822030411
21
-20.7713409877
0
ARC
5
13D
100
AcDbEntity
8
cut
6
ByLayer
62
256
370
-1
100
AcDbCircle
10
16.349154095
20
-20.5224485402
40
1.97
100
AcDbArc
50
296.397906298
51
267.025197873
0
ARC
5
13E
100
AcDbEntity
8
cut
6
ByLayer
62
256
370
-1
100
AcDbCircle
10
11.6534162676
20
-18.958572343
40
1.97
100
AcDbArc
50
276.359280969
51
246.953454303
0
LINE
5
13F
100
AcDbEntity
8
cut
6
ByLayer
62
256
370
-1
100
AcDbLine
10
17.2250209172
20
-22.287032715
11
17.803993838
21
-25.2
0
LINE
5
140
100
AcDbEntity
8
cut
6
ByLayer
62
256
370
-1
100
AcDbLine
10
16.7844330574
20
-25.2
11
16.2469174619
21
-22.4897938761
0
LINE
5
141
100
AcDbEntity
8
cut
6
ByLayer
62
256
370
-1
100
AcDbLine
10
10.7749790828
20
-5.712967285
11
10.196006162
21
-2.8
0
LINE
5
142
100
AcDbEntity
8
cut
6
ByLayer
62
256
370
-1
100
AcDbLine
10
11.2155669426
20
-2.8
11
11.7530825381
21
-5.5102061239
0
LINE
5
143
100
AcDbEntity
8
cut
6
ByLayer
62
256
370
-1
100
AcDbLine
10
6.04401760772
20
-7.2917264694
11
4.9719092472
21
-2.8
0
LINE
5
144
100
AcDbEntity
8
cut
6
ByLayer
62
256
370
-1
100
AcDbLine
10
7.01669438483
20
-7.05956297683
11
6
21
-2.8
0
ARC
5
145
100
AcDbEntity
8
cut
6
ByLayer
62
256
370
-1
100
AcDbCircle
10
6.97274168856
20
-9.0290726012
40
1.97
100
AcDbArc
50
118.127391251
51
88.721567021
0
ARC
5
146
100
AcDbEntity
8
cut
6
ByLayer
62
256
370
-1
100
AcDbCircle
10
21.0272583114
20
-18.9709273988
40
1.97
100
AcDbArc
50
298.127391251
51
268.721567021
0
LINE
5
147
100
AcDbEntity
8
cut
6
ByLayer
62
256
370
-1
100
AcDbLine
10
21.9559823923
20
-20.7082735306
11
23.0280907528
21
-25.2
0
LINE
5
148
100
AcDbEntity
8
cut
6
ByLayer
62
256
370
-1
100
AcDbLine
10
20.9833056152
20
-20.9404370232
11
22
21
-25.2
0
ARC
5
149
100
AcDbEntity
8
cut
6
ByLayer
62
256
370
-1
100
AcDbCircle
10
6.9781893906
20
-20.5362627257
40
1.97
100
AcDbArc
50
266.834239052
51
237.428414823
0
LINE
5
14A
100
AcDbEntity
8
cut
6
ByLayer
62
256
370
-1
100
AcDbLine
10
6.8693964506
20
-22.5032563953
11
6
21
-25.2
0
LINE
5
14B
100
AcDbEntity
8
cut
6
ByLayer
62
256
370
-1
100
AcDbLine
10
5.91763413921
20
-22.1964201155
11
4.94931754927
21
-25.1999998626
0
ARC
5
14C
100
AcDbEntity
8
cut
6
ByLayer
62
256
370
-1
100
AcDbCircle
10
21.0218106094
20
-7.4637372743
40
1.97
100
AcDbArc
50
86.8342390524
51
57.4284148229
0
LINE
5
14D
100
AcDbEntity
8
cut
6
ByLayer
62
256
370
-1
100
AcDbLine
10
21.1306035494
20
-5.49674360471
11
22
21
-2.8
0
LINE
5
14E
100
AcDbEntity
8
cut
6
ByLayer
62
256
370
-1
100
AcDbLine
10
22.0823658608
20
-5.80357988454
11
23.0506824507
21
-2.8000001374
0
LINE
5
14F
100
AcDbEntity
8
cut
6
ByLayer
62
256
370
-1
100
AcDbLine
10
-25
20
25.5
11
-23.0280907528
21
25.2
0
LINE
5
150
100
AcDbEntity
8
cut
6
ByLayer
62
256
370
-1
100
AcDbLine
10
-22
20
25.2
11
-21
21
25.5
0
LINE
5
151
100
AcDbEntity
8
cut
6
ByLayer
62
256
370
-1
100
AcDbLine
10
-19
20
25.5
11
-17.803993838
21
25.2
0
LINE
5
152
100
AcDbEntity
8
cut
6
ByLayer
62
256
370
-1
100
AcDbLine
10
-16.7844330574
20
25.2
11
-15
21
25.5
0
LINE
5
153
100
AcDbEntity
8
cut
6
ByLayer
62
256
370
-1
100
AcDbLine
10
-13
20
25.5
11
-11.2451452544
21
25.2
0
LINE
5
154
100
AcDbEntity
8
cut
6
ByLayer
62
256
370
-1
100
AcDbLine
10
-10.234507159
20
25.2
11
-9
21
25.5
0
LINE
5
155
100
AcDbEntity
8
cut
6
ByLayer
62
256
370
-1
100
AcDbLine
10
-7
20
25.5
11
-6
21
25.2
0
LINE
5
156
100
AcDbEntity
8
cut
6
ByLayer
62
256
370
-1
100
AcDbLine
10
-4.94931754927
20
25.1999998626
11
-3
21
25.5
0
LINE
5
157
100
AcDbEntity
8
cut
6
ByLayer
62
256
370
-1
100
AcDbLine
10
3
20
25.5
11
4.9719092472
21
25.2
0
LINE
5
158
100
AcDbEntity
8
cut
6
ByLayer
62
256
370
-1
100
AcDbLine
10
6
20
25.2
11
7
21
25.5
0
LINE
5
159
100
AcDbEntity
8
cut
6
ByLayer
62
256
370
-1
100
AcDbLine
10
9
20
25.5
11
10.196006162
21
25.2
0
LINE
5
15A
100
AcDbEntity
8
cut
6
ByLayer
62
256
370
-1
100
AcDbLine
10
11.2155669426
20
25.2
11
13
21
25.5
0
LINE
5
15B
100
AcDbEntity
8
cut
6
ByLayer
62
256
370
-1
100
AcDbLine
10
15
20
25.5
11
16.7548547456
21
25.2
0
LINE
5
15C
100
AcDbEntity
8
cut
6
ByLayer
62
256
370
-1
100
AcDbLine
10
17.765492841
20
25.2
11
19
21
25.5
0
LINE
5
15D
100
AcDbEntity
8
cut
6
ByLayer
62
256
370
-1
100
AcDbLine
10
21
20
25.5
11
22
21
25.2
0
LINE
5
15E
100
AcDbEntity
8
cut
6
ByLayer
62
256
370
-1
100
AcDbLine
10
23.0506824507
20
25.1999998626
11
25
21
25.5
0
LINE
5
15F
100
AcDbEntity
8
cut
6
ByLayer
62
256
370
-1
100
AcDbLine
10
23.0280907528
20
2.8
11
25
21
2.5
0
LINE
5
160
100
AcDbEntity
8
cut
6
ByLayer
62
256
370
-1
100
AcDbLine
10
22
20
2.8
11
21
21
2.5
0
LINE
5
161
100
AcDbEntity
8
cut
6
ByLayer
62
256
370
-1
100
AcDbLine
10
17.803993838
20
2.8
11
19
21
2.5
0
LINE
5
162
100
AcDbEntity
8
cut
6
ByLayer
62
256
370
-1
100
AcDbLine
10
16.7844330574
20
2.8
11
15
21
2.5
0
LINE
5
163
100
AcDbEntity
8
cut
6
ByLayer
62
256
370
-1
100
AcDbLine
10
13
20
2.5
11
11.2451452544
21
2.8
0
LINE
5
164
100
AcDbEntity
8
cut
6
ByLayer
62
256
370
-1
100
AcDbLine
10
10.234507159
20
2.8
11
9
21
2.5
0
LINE
5
165
100
AcDbEntity
8
cut
6
ByLayer
62
256
370
-1
100
AcDbLine
10
7
20
2.5
11
6
21
2.8
0
LINE
5
166
100
AcDbEntity
8
cut
6
ByLayer
62
256
370
-1
100
AcDbLine
10
4.94931754927
20
2.8000001374
11
3
21
2.5
0
LINE
5
167
100
AcDbEntity
8
cut
6
ByLayer
62
256
370
-1
100
AcDbLine
10
-3
20
2.5
11
-4.9719092472
21
2.8
0
LINE
5
168
100
AcDbEntity
8
cut
6
ByLayer
62
256
370
-1
100
AcDbLine
10
-6
20
2.8
11
-7
21
2.5
0
LINE
5
169
100
AcDbEntity
8
cut
6
ByLayer
62
256
370
-1
100
AcDbLine
10
-9
20
2.5
11
-10.196006162
21
2.8
0
LINE
5
16A
100
AcDbEntity
8
cut
6
ByLayer
62
256
370
-1
100
AcDbLine
10
-11.2155669426
20
2.8
11
-13
21
2.5
0
LINE
5
16B
100
AcDbEntity
8
cut
6
ByLayer
62
256
370
-1
100
AcDbLine
10
-15
20
2.5
11
-16.7548547456
21
2.8
0
LINE
5
16C
100
AcDbEntity
8
cut
6
ByLayer
62
256
370
-1
100
AcDbLine
10
-17.765492841
20
2.8
11
-19
21
2.5
0
LINE
5
16D
100
AcDbEntity
8
cut
6
ByLayer
62
256
370
-1
100
AcDbLine
10
-22
20
2.8
11
-21
21
2.5
0
LINE
5
16E
100
AcDbEntity
8
cut
6
ByLayer
62
256
370
-1
100
AcDbLine
10
-23.0506824507
20
2.8000001374
11
-25
21
2.5
0
LINE
5
16F
100
AcDbEntity
8
cut
6
ByLayer
62
256
370
-1
100
AcDbLine
10
-25
20
-2.5
11
-23.0280907528
21
-2.8
0
LINE
5
170
100
AcDbEntity
8
cut
6
ByLayer
62
256
370
-1
100
AcDbLine
10
-22
20
-2.8
11
-21
21
-2.5
0
LINE
5
171
100
AcDbEntity
8
cut
6
ByLayer
62
256
370
-1
100
AcDbLine
10
-19
20
-2.5
11
-17.803993838
21
-2.8
0
LINE
5
172
100
AcDbEntity
8
cut
6
ByLayer
62
256
370
-1
100
AcDbLine
10
-16.7844330574
20
-2.8
11
-15
21
-2.5
0
LINE
5
173
100
AcDbEntity
8
cut
6
ByLayer
62
256
370
-1
100
AcDbLine
10
-13
20
-2.5
11
-11.2451452544
21
-2.8
0
LINE
5
174
100
AcDbEntity
8
cut
6
ByLayer
62
256
370
-1
100
AcDbLine
10
-10.234507159
20
-2.8
11
-9
21
-2.5
0
LINE
5
175
100
AcDbEntity
8
cut
6
ByLayer
62
256
370
-1
100
AcDbLine
10
-7
20
-2.5
11
-6
21
-2.8
0
LINE
5
176
100
AcDbEntity
8
cut
6
ByLayer
62
256
370
-1
100
AcDbLine
10
-4.94931754927
20
-2.8000001374
11
-3
21
-2.5
0
LINE
5
177
100
AcDbEntity
8
cut
6
ByLayer
62
256
370
-1
100
AcDbLine
10
6
20
-2.8
11
7
21
-2.5
0
LINE
5
178
100
AcDbEntity
8
cut
6
ByLayer
62
256
370
-1
100
AcDbLine
10
4.9719092472
20
-2.8
11
3
21
-2.5
0
LINE
5
179
100
AcDbEntity
8
cut
6
ByLayer
62
256
370
-1
100
AcDbLine
10
9
20
-2.5
11
10.196006162
21
-2.8
0
LINE
5
17A
100
AcDbEntity
8
cut
6
ByLayer
62
256
370
-1
100
AcDbLine
10
11.2155669426
20
-2.8
11
13
21
-2.5
0
LINE
5
17B
100
AcDbEntity
8
cut
6
ByLayer
62
256
370
-1
100
AcDbLine
10
16.7548547456
20
-2.8
11
15
21
-2.5
0
LINE
5
17C
100
AcDbEntity
8
cut
6
ByLayer
62
256
370
-1
100
AcDbLine
10
19
20
-2.5
11
17.765492841
21
-2.8
0
LINE
5
17D
100
AcDbEntity
8
cut
6
ByLayer
62
256
370
-1
100
AcDbLine
10
21
20
-2.5
11
22
21
-2.8
0
LINE
5
17E
100
AcDbEntity
8
cut
6
ByLayer
62
256
370
-1
100
AcDbLine
10
23.0506824507
20
-2.8000001374
11
25
21
-2.5
0
LINE
5
17F
100
AcDbEntity
8
cut
6
ByLayer
62
256
370
-1
100
AcDbLine
10
25
20
-25.5
11
23.0280907528
21
-25.2
0
LINE
5
180
100
AcDbEntity
8
cut
6
ByLayer
62
256
370
-1
100
AcDbLine
10
22
20
-25.2
11
21
21
-25.5
0
LINE
5
181
100
AcDbEntity
8
cut
6
ByLayer
62
256
370
-1
100
AcDbLine
10
19
20
-25.5
11
17.803993838
21
-25.2
0
LINE
5
182
100
AcDbEntity
8
cut
6
ByLayer
62
256
370
-1
100
AcDbLine
10
16.7844330574
20
-25.2
11
15
21
-25.5
0
LINE
5
183
100
AcDbEntity
8
cut
6
ByLayer
62
256
370
-1
100
AcDbLine
10
13
20
-25.5
11
11.2451452544
21
-25.2
0
LINE
5
184
100
AcDbEntity
8
cut
6
ByLayer
62
256
370
-1
100
AcDbLine
10
10.234507159
20
-25.2
11
9
21
-25.5
0
LINE
5
185
100
AcDbEntity
8
cut
6
ByLayer
62
256
370
-1
100
AcDbLine
10
7
20
-25.5
11
6
21
-25.2
0
LINE
5
186
100
AcDbEntity
8
cut
6
ByLayer
62
256
370
-1
100
AcDbLine
10
4.94931754927
20
-25.1999998626
11
3
21
-25.5
0
LINE
5
187
100
AcDbEntity
8
cut
6
ByLayer
62
256
370
-1
100
AcDbLine
10
-4.9719092472
20
-25.2
11
-3
21
-25.5
0
LINE
5
188
100
AcDbEntity
8
cut
6
ByLayer
62
256
370
-1
100
AcDbLine
10
-6
20
-25.2
11
-7
21
-25.5
0
LINE
5
189
100
AcDbEntity
8
cut
6
ByLayer
62
256
370
-1
100
AcDbLine
10
-9
20
-25.5
11
-10.196006162
21
-25.2
0
LINE
5
18A
100
AcDbEntity
8
cut
6
ByLayer
62
256
370
-1
100
AcDbLine
10
-11.2155669426
20
-25.2
11
-13
21
-25.5
0
LINE
5
18B
100
AcDbEntity
8
cut
6
ByLayer
62
256
370
-1
100
AcDbLine
10
-15
20
-25.5
11
-16.7548547456
21
-25.2
0
LINE
5
18C
100
AcDbEntity
8
cut
6
ByLayer
62
256
370
-1
100
AcDbLine
10
-17.765492841
20
-25.2
11
-19
21
-25.5
0
LINE
5
18D
100
AcDbEntity
8
cut
6
ByLayer
62
256
370
-1
100
AcDbLine
10
-25
20
-25.5
11
-23.0506824507
21
-25.1999998626
0
LINE
5
18E
100
AcDbEntity
8
cut
6
ByLayer
62
256
370
-1
100
AcDbLine
10
-22
20
-25.2
11
-21
21
-25.5
0
ENDSEC
0
SECTION
2
OBJECTS
0
DICTIONARY
5
C
330
0
100
AcDbDictionary
281
1
3
ACAD_GROUP
350
D
0
DICTIONARY
5
D
330
C
100
AcDbDictionary
281
1
0
ENDSEC
0
EOF
