  0
SECTION
  2
HEADER
  9
$ACADVER
  1
AC1021
  9
$ACADMAINTVER
 70
    25
  9
$DWGCODEPAGE
  3
ANSI_1252
  9
$LASTSAVEDBY
  1
giulio
  9
$INSBASE
 10
0.0
 20
0.0
 30
0.0
  9
$EXTMIN
 10
-28.19999999999999
 20
-30.45000000000001
 30
0.0
  9
$EXTMAX
 10
28.2
 20
30.45
 30
0.0
  9
$LIMMIN
 10
0.0
 20
0.0
  9
$LIMMAX
 10
420.0
 20
297.0
  9
$ORTHOMODE
 70
     0
  9
$REGENMODE
 70
     1
  9
$FILLMODE
 70
     1
  9
$QTEXTMODE
 70
     0
  9
$MIRRTEXT
 70
     0
  9
$LTSCALE
 40
1.0
  9
$ATTMODE
 70
     2
  9
$TEXTSIZE
 40
1.0
  9
$TRACEWID
 40
0.05
  9
$TEXTSTYLE
  7
Standard
  9
$CLAYER
  8
engrave
  9
$CELTYPE
  6
Continuous
  9
$CECOLOR
 62
   256
  9
$CELTSCALE
 40
1.0
  9
$DISPSILH
 70
     0
  9
$DIMSCALE
 40
1.0
  9
$DIMASZ
 40
2.5
  9
$DIMEXO
 40
0.625
  9
$DIMDLI
 40
0.38
  9
$DIMRND
 40
0.0
  9
$DIMDLE
 40
0.0
  9
$DIMEXE
 40
1.25
  9
$DIMTP
 40
0.0
  9
$DIMTM
 40
0.0
  9
$DIMTXT
 40
2.5
  9
$DIMCEN
 40
0.09
  9
$DIMTSZ
 40
0.0
  9
$DIMTOL
 70
     0
  9
$DIMLIM
 70
     0
  9
$DIMTIH
 70
     0
  9
$DIMTOH
 70
     1
  9
$DIMSE1
 70
     0
  9
$DIMSE2
 70
     0
  9
$DIMTAD
 70
     0
  9
$DIMZIN
 70
     0
  9
$DIMBLK
  1

  9
$DIMASO
 70
     1
  9
$DIMSHO
 70
     1
  9
$DIMPOST
  1

  9
$DIMAPOST
  1

  9
$DIMALT
 70
     0
  9
$DIMALTD
 70
     2
  9
$DIMALTF
 40
25.4
  9
$DIMLFAC
 40
1.0
  9
$DIMTOFL
 70
     0
  9
$DIMTVP
 40
0.0
  9
$DIMTIX
 70
     0
  9
$DIMSOXD
 70
     0
  9
$DIMSAH
 70
     0
  9
$DIMBLK1
  1

  9
$DIMBLK2
  1

  9
$DIMSTYLE
  2
Standard
  9
$DIMCLRD
 70
     0
  9
$DIMCLRE
 70
     0
  9
$DIMCLRT
 70
     0
  9
$DIMTFAC
 40
1.0
  9
$DIMGAP
 40
0.625
  9
$DIMJUST
 70
     0
  9
$DIMSD1
 70
     0
  9
$DIMSD2
 70
     0
  9
$DIMTOLJ
 70
     1
  9
$DIMTZIN
 70
     0
  9
$DIMALTZ
 70
     0
  9
$DIMALTTZ
 70
     0
  9
$DIMUPT
 70
     0
  9
$DIMDEC
 70
     4
  9
$DIMTDEC
 70
     4
  9
$DIMALTU
 70
     2
  9
$DIMALTTD
 70
     2
  9
$DIMTXSTY
  7
Standard
  9
$DIMAUNIT
 70
     0
  9
$DIMADEC
 70
     0
  9
$DIMALTRND
 40
0.0
  9
$DIMAZIN
 70
     0
  9
$DIMDSEP
 70
    46
  9
$DIMATFIT
 70
     3
  9
$DIMFRAC
 70
     0
  9
$DIMLDRBLK
  1

  9
$DIMLUNIT
 70
     2
  9
$DIMLWD
 70
    -2
  9
$DIMLWE
 70
    -2
  9
$DIMTMOVE
 70
     0
  9
$DIMFXL
 40
1.0
  9
$DIMFXLON
 70
     0
  9
$DIMJOGANG
 40
0.7853981633974483
  9
$DIMTFILL
 70
     0
  9
$DIMTFILLCLR
 70
     0
  9
$DIMARCSYM
 70
     0
  9
$DIMLTYPE
  6

  9
$DIMLTEX1
  6

  9
$DIMLTEX2
  6

  9
$LUNITS
 70
     2
  9
$LUPREC
 70
     3
  9
$SKETCHINC
 40
0.1
  9
$FILLETRAD
 40
0.0
  9
$AUNITS
 70
     0
  9
$AUPREC
 70
     0
  9
$MENU
  1
.
  9
$ELEVATION
 40
0.0
  9
$PELEVATION
 40
0.0
  9
$THICKNESS
 40
0.0
  9
$LIMCHECK
 70
     0
  9
$CHAMFERA
 40
0.0
  9
$CHAMFERB
 40
0.0
  9
$CHAMFERC
 40
0.0
  9
$CHAMFERD
 40
0.0
  9
$SKPOLY
 70
     0
  9
$TDCREATE
 40
2457843.882106482
  9
$TDUCREATE
 40
2457843.882106482
  9
$TDUPDATE
 40
2457897.688796262
  9
$TDUUPDATE
 40
2457897.688796262
  9
$TDINDWG
 40
0.0512386111
  9
$TDUSRTIMER
 40
2457897.688291354
  9
$USRTIMER
 70
     1
  9
$ANGBASE
 50
0.0
  9
$ANGDIR
 70
     0
  9
$PDMODE
 70
     0
  9
$PDSIZE
 40
0.0
  9
$PLINEWID
 40
0.0
  9
$SPLFRAME
 70
     0
  9
$SPLINETYPE
 70
     6
  9
$SPLINESEGS
 70
     8
  9
$HANDSEED
  5
2020F12
  9
$SURFTAB1
 70
     6
  9
$SURFTAB2
 70
     6
  9
$SURFTYPE
 70
     6
  9
$SURFU
 70
     6
  9
$SURFV
 70
     6
  9
$UCSBASE
  2

  9
$UCSNAME
  2

  9
$UCSORG
 10
0.0
 20
0.0
 30
0.0
  9
$UCSXDIR
 10
1.0
 20
0.0
 30
0.0
  9
$UCSYDIR
 10
0.0
 20
1.0
 30
0.0
  9
$UCSORTHOREF
  2

  9
$UCSORTHOVIEW
 70
     0
  9
$UCSORGTOP
 10
0.0
 20
0.0
 30
0.0
  9
$UCSORGBOTTOM
 10
0.0
 20
0.0
 30
0.0
  9
$UCSORGLEFT
 10
0.0
 20
0.0
 30
0.0
  9
$UCSORGRIGHT
 10
0.0
 20
0.0
 30
0.0
  9
$UCSORGFRONT
 10
0.0
 20
0.0
 30
0.0
  9
$UCSORGBACK
 10
0.0
 20
0.0
 30
0.0
  9
$PUCSBASE
  2

  9
$PUCSNAME
  2

  9
$PUCSORG
 10
0.0
 20
0.0
 30
0.0
  9
$PUCSXDIR
 10
1.0
 20
0.0
 30
0.0
  9
$PUCSYDIR
 10
0.0
 20
1.0
 30
0.0
  9
$PUCSORTHOREF
  2

  9
$PUCSORTHOVIEW
 70
     0
  9
$PUCSORGTOP
 10
0.0
 20
0.0
 30
0.0
  9
$PUCSORGBOTTOM
 10
0.0
 20
0.0
 30
0.0
  9
$PUCSORGLEFT
 10
0.0
 20
0.0
 30
0.0
  9
$PUCSORGRIGHT
 10
0.0
 20
0.0
 30
0.0
  9
$PUCSORGFRONT
 10
0.0
 20
0.0
 30
0.0
  9
$PUCSORGBACK
 10
0.0
 20
0.0
 30
0.0
  9
$USERI1
 70
     0
  9
$USERI2
 70
     0
  9
$USERI3
 70
     0
  9
$USERI4
 70
     0
  9
$USERI5
 70
     0
  9
$USERR1
 40
0.0
  9
$USERR2
 40
0.0
  9
$USERR3
 40
0.0
  9
$USERR4
 40
0.0
  9
$USERR5
 40
0.0
  9
$WORLDVIEW
 70
     1
  9
$SHADEDGE
 70
     3
  9
$SHADEDIF
 70
    70
  9
$TILEMODE
 70
     1
  9
$MAXACTVP
 70
    64
  9
$PINSBASE
 10
98.4729790903
 20
155.714703394
 30
0.0
  9
$PLIMCHECK
 70
     0
  9
$PEXTMIN
 10
1.144416701136609
 20
0.8016666324119865
 30
0.0
  9
$PEXTMAX
 10
10.2997503102295
 20
7.214999691707879
 30
0.0
  9
$PLIMMIN
 10
-0.1249995194082185
 20
-0.1249999981226883
  9
$PLIMMAX
 10
11.5691670094888
 20
8.141666444267809
  9
$UNITMODE
 70
     0
  9
$VISRETAIN
 70
     1
  9
$PLINEGEN
 70
     0
  9
$PSLTSCALE
 70
     1
  9
$TREEDEPTH
 70
  3020
  9
$CMLSTYLE
  2
Standard
  9
$CMLJUST
 70
     0
  9
$CMLSCALE
 40
1.0
  9
$PROXYGRAPHICS
 70
     1
  9
$MEASUREMENT
 70
     0
  9
$CELWEIGHT
370
    -1
  9
$ENDCAPS
280
     0
  9
$JOINSTYLE
280
     0
  9
$LWDISPLAY
290
     0
  9
$INSUNITS
 70
     0
  9
$HYPERLINKBASE
  1

  9
$STYLESHEET
  1

  9
$XEDIT
290
     1
  9
$CEPSNTYPE
380
     0
  9
$PSTYLEMODE
290
     1
  9
$FINGERPRINTGUID
  2
{456A8752-AC7B-934D-85B2-90B4A496401E}
  9
$VERSIONGUID
  2
{E2AE0CC2-0E3E-B842-8D02-A9B69453C67A}
  9
$EXTNAMES
290
     1
  9
$PSVPSCALE
 40
2.0
  9
$OLESTARTUP
290
     0
  9
$SORTENTS
280
   127
  9
$INDEXCTL
280
     0
  9
$HIDETEXT
280
     1
  9
$XCLIPFRAME
290
     0
  9
$HALOGAP
280
     0
  9
$OBSCOLOR
 70
   257
  9
$OBSLTYPE
280
     0
  9
$INTERSECTIONDISPLAY
280
     0
  9
$INTERSECTIONCOLOR
 70
   257
  9
$DIMASSOC
280
     2
  9
$PROJECTNAME
  1

  9
$CAMERADISPLAY
290
     0
  9
$LENSLENGTH
 40
50.0
  9
$CAMERAHEIGHT
 40
0.0
  9
$STEPSPERSEC
 40
2.0
  9
$STEPSIZE
 40
6.0
  9
$3DDWFPREC
 40
2.0
  9
$PSOLWIDTH
 40
0.25
  9
$PSOLHEIGHT
 40
4.0
  9
$LOFTANG1
 40
1.570796326794896
  9
$LOFTANG2
 40
1.570796326794896
  9
$LOFTMAG1
 40
0.0
  9
$LOFTMAG2
 40
0.0
  9
$LOFTPARAM
 70
     7
  9
$LOFTNORMALS
280
     1
  9
$LATITUDE
 40
37.795
  9
$LONGITUDE
 40
-122.394
  9
$NORTHDIRECTION
 40
0.0
  9
$TIMEZONE
 70
 -8000
  9
$LIGHTGLYPHDISPLAY
280
     1
  9
$TILEMODELIGHTSYNCH
280
     1
  9
$CMATERIAL
347
2020005
  9
$SOLIDHIST
280
     0
  9
$SHOWHIST
280
     1
  9
$DWFFRAME
280
     2
  9
$DGNFRAME
280
     0
  9
$REALWORLDSCALE
290
     1
  9
$INTERFERECOLOR
 62
     1
  9
$INTERFEREOBJVS
345
2020027
  9
$INTERFEREVPVS
346
2020024
  9
$CSHADOW
280
     0
  9
$SHADOWPLANELOCATION
 40
0.0
  0
ENDSEC
  0
SECTION
  2
CLASSES
  0
CLASS
  1
ACDBDICTIONARYWDFLT
  2
AcDbDictionaryWithDefault
  3
ObjectDBX Classes
 90
        0
 91
        8
280
     0
281
     0
  0
CLASS
  1
MATERIAL
  2
AcDbMaterial
  3
ObjectDBX Classes
 90
     1153
 91
        8
280
     0
281
     0
  0
CLASS
  1
VISUALSTYLE
  2
AcDbVisualStyle
  3
ObjectDBX Classes
 90
     4095
 91
        8
280
     0
281
     0
  0
CLASS
  1
TABLESTYLE
  2
AcDbTableStyle
  3
ObjectDBX Classes
 90
     4095
 91
        8
280
     0
281
     0
  0
CLASS
  1
SCALE
  2
AcDbScale
  3
ObjectDBX Classes
 90
     1153
 91
        8
280
     0
281
     0
  0
CLASS
  1
MLEADERSTYLE
  2
AcDbMLeaderStyle
  3
ACDB_MLEADERSTYLE_CLASS
 90
     4095
 91
        8
280
     0
281
     0
  0
CLASS
  1
ACDBSECTIONVIEWSTYLE
  2
AcDbSectionViewStyle
  3
ObjectDBX Classes
 90
     1025
 91
        8
280
     0
281
     0
  0
CLASS
  1
ACDBDETAILVIEWSTYLE
  2
AcDbDetailViewStyle
  3
ObjectDBX Classes
 90
     1025
 91
        8
280
     0
281
     0
  0
CLASS
  1
RAPIDRTRENDERSETTINGS
  2
AcDbRapidRTRenderSettings
  3
ObjectDBX Classes
 90
     1024
 91
        8
280
     0
281
     0
  0
CLASS
  1
DICTIONARYVAR
  2
AcDbDictionaryVar
  3
ObjectDBX Classes
 90
        0
 91
        8
280
     0
281
     0
  0
CLASS
  1
SORTENTSTABLE
  2
AcDbSortentsTable
  3
ObjectDBX Classes
 90
        0
 91
        8
280
     0
281
     0
  0
CLASS
  1
CELLSTYLEMAP
  2
AcDbCellStyleMap
  3
ObjectDBX Classes
 90
     1152
 91
        8
280
     0
281
     0
  0
CLASS
  1
MENTALRAYRENDERSETTINGS
  2
AcDbMentalRayRenderSettings
  3
SCENEOE
 90
     1024
 91
        8
280
     0
281
     0
  0
CLASS
  1
SUN
  2
AcDbSun
  3
SCENEOE
 90
     1153
 91
        8
280
     0
281
     0
  0
CLASS
  1
RASTERVARIABLES
  2
AcDbRasterVariables
  3
ISM
 90
        0
 91
        8
280
     0
281
     0
  0
CLASS
  1
DIMASSOC
  2
AcDbDimAssoc
  3
"AcDbDimAssoc|Product Desc:     AcDim ARX App For Dimension|Company:          Autodesk, Inc.|WEB Address:      www.autodesk.com"
 90
        0
 91
        8
280
     0
281
     0
  0
CLASS
  1
SOLID_BACKGROUND
  2
AcDbSolidBackground
  3
SCENEOE
 90
     4095
 91
        4
280
     0
281
     0
  0
CLASS
  1
NPOCOLLECTION
  2
AcDbImpNonPersistentObjectsCollection
  3
ObjectDBX Classes
 90
     1153
 91
        1
280
     1
281
     0
  0
ENDSEC
  0
SECTION
  2
TABLES
  0
TABLE
  2
VPORT
  5
8
330
0
100
AcDbSymbolTable
 70
     1
  0
VPORT
  5
31
330
8
100
AcDbSymbolTableRecord
100
AcDbViewportTableRecord
  2
*ACTIVE
 70
     0
 10
0.0
 20
0.0
 11
1.0
 21
1.0
 12
10.57762097000778
 22
-2.278355038108007
 13
0.0
 23
0.0
 14
10.0
 24
10.0
 15
0.1
 25
0.1
 16
0.0
 26
0.0
 36
285.3097526947456
 17
12.98325195416426
 27
-3.15700645790097
 37
0.0
 40
83.40853301884103
 41
1.70697012802276
 42
50.0
 43
0.0
 44
0.0
 50
0.0
 51
0.0
 71
    16
 72
   100
 73
     1
 74
     3
 75
     0
 76
     0
 77
     0
 78
     0
281
     1
 65
     1
110
0.0
120
0.0
130
0.0
111
1.0
121
0.0
131
0.0
112
0.0
122
1.0
132
0.0
 79
     0
146
0.0
348
20208C5
 60
     3
 61
     5
292
     1
282
     1
141
0.0
142
0.0
 63
   160
421
  3358443
361
20202E4
1001
ACAD_NAV_VCDISPLAY
1070
     3
  0
ENDTAB
  0
TABLE
  2
LTYPE
  5
5
330
0
100
AcDbSymbolTable
 70
     1
  0
LTYPE
  5
14
330
5
100
AcDbSymbolTableRecord
100
AcDbLinetypeTableRecord
  2
ByBlock
 70
     0
  3

 72
    65
 73
     0
 40
0.0
  0
LTYPE
  5
15
330
5
100
AcDbSymbolTableRecord
100
AcDbLinetypeTableRecord
  2
ByLayer
 70
     0
  3

 72
    65
 73
     0
 40
0.0
  0
LTYPE
  5
16
330
5
100
AcDbSymbolTableRecord
100
AcDbLinetypeTableRecord
  2
Continuous
 70
     0
  3
Solid line
 72
    65
 73
     0
 40
0.0
  0
ENDTAB
  0
TABLE
  2
LAYER
  5
2
102
{ACAD_XDICTIONARY
360
2020065
102
}
330
0
100
AcDbSymbolTable
 70
     3
  0
LAYER
  5
10
102
{ACAD_XDICTIONARY
360
2020B77
102
}
330
2
100
AcDbSymbolTableRecord
100
AcDbLayerTableRecord
  2
0
 70
     0
 62
     7
  6
Continuous
370
    -3
390
2020003
347
2020015
  0
LAYER
  5
46
102
{ACAD_XDICTIONARY
360
2020B79
102
}
330
2
100
AcDbSymbolTableRecord
100
AcDbLayerTableRecord
  2
cut
 70
     0
 62
     7
  6
Continuous
370
     0
390
2020003
347
2020015
  0
LAYER
  5
2020BB9
330
2
100
AcDbSymbolTableRecord
100
AcDbLayerTableRecord
  2
engrave
 70
     0
 62
     5
  6
Continuous
370
     0
390
2020003
347
2020015
1001
AcAecLayerStandard
1000

1000

  0
ENDTAB
  0
TABLE
  2
STYLE
  5
3
330
0
100
AcDbSymbolTable
 70
     1
  0
STYLE
  5
4A
330
3
100
AcDbSymbolTableRecord
100
AcDbTextStyleTableRecord
  2
Standard
 70
     0
 40
0.0
 41
1.0
 50
0.0
 71
     0
 42
1.0
  3
APOUTLIN.SHX
  4

  0
ENDTAB
  0
TABLE
  2
VIEW
  5
6
330
0
100
AcDbSymbolTable
 70
     0
  0
ENDTAB
  0
TABLE
  2
UCS
  5
7
330
0
100
AcDbSymbolTable
 70
     0
  0
ENDTAB
  0
TABLE
  2
APPID
  5
9
330
0
100
AcDbSymbolTable
 70
     7
  0
APPID
  5
12
330
9
100
AcDbSymbolTableRecord
100
AcDbRegAppTableRecord
  2
ACAD
 70
     0
  0
APPID
  5
202006B
330
9
100
AcDbSymbolTableRecord
100
AcDbRegAppTableRecord
  2
ACAD_NAV_VCDISPLAY
 70
     0
  0
APPID
  5
2020071
330
9
100
AcDbSymbolTableRecord
100
AcDbRegAppTableRecord
  2
ACAD_PSEXT
 70
     0
  0
APPID
  5
2020085
330
9
100
AcDbSymbolTableRecord
100
AcDbRegAppTableRecord
  2
ACAD_EXEMPT_FROM_CAD_STANDARDS
 70
     0
  0
APPID
  5
2020165
330
9
100
AcDbSymbolTableRecord
100
AcDbRegAppTableRecord
  2
AcAecLayerStandard
 70
     0
  0
APPID
  5
2020166
330
9
100
AcDbSymbolTableRecord
100
AcDbRegAppTableRecord
  2
AcCmTransparency
 70
     0
  0
APPID
  5
2020214
330
9
100
AcDbSymbolTableRecord
100
AcDbRegAppTableRecord
  2
ACAD_MLEADERVER
 70
     0
  0
ENDTAB
  0
TABLE
  2
DIMSTYLE
  5
A
330
0
100
AcDbSymbolTable
 70
     1
100
AcDbDimStyleTable
  0
DIMSTYLE
105
4B
330
A
100
AcDbSymbolTableRecord
100
AcDbDimStyleTableRecord
  2
Standard
 70
     0
 41
2.5
 42
0.625
 44
1.25
 73
     0
140
2.5
147
0.625
178
     0
340
4A
  0
ENDTAB
  0
TABLE
  2
BLOCK_RECORD
  5
1
330
0
100
AcDbSymbolTable
 70
     2
  0
BLOCK_RECORD
  5
1F
102
{ACAD_XDICTIONARY
360
20200B9
102
}
330
1
100
AcDbSymbolTableRecord
100
AcDbBlockTableRecord
  2
*Model_Space
340
2020055
 70
     0
280
     1
281
     0
  0
BLOCK_RECORD
  5
1E
330
1
100
AcDbSymbolTableRecord
100
AcDbBlockTableRecord
  2
*Paper_Space
340
2020056
 70
     0
280
     1
281
     0
  0
ENDTAB
  0
ENDSEC
  0
SECTION
  2
BLOCKS
  0
BLOCK
  5
20
330
1F
100
AcDbEntity
  8
0
100
AcDbBlockBegin
  2
*Model_Space
 70
     0
 10
0.0
 20
0.0
 30
0.0
  3
*Model_Space
  1

  0
ENDBLK
  5
21
330
1F
100
AcDbEntity
  8
0
100
AcDbBlockEnd
  0
BLOCK
  5
1C
330
1E
100
AcDbEntity
 67
     1
  8
0
100
AcDbBlockBegin
  2
*Paper_Space
 70
     0
 10
0.0
 20
0.0
 30
0.0
  3
*Paper_Space
  1

  0
ENDBLK
  5
1D
330
1E
100
AcDbEntity
 67
     1
  8
0
100
AcDbBlockEnd
  0
ENDSEC
  0
SECTION
  2
ENTITIES
  0
POLYLINE
  5
20208D5
330
1F
100
AcDbEntity
  8
cut
  6
Continuous
100
AcDb2dPolyline
 66
     1
 10
0.0
 20
0.0
 30
0.0
  0
VERTEX
  5
20208D6
330
20208D5
100
AcDbEntity
  8
cut
  6
Continuous
100
AcDbVertex
100
AcDb2dVertex
 10
1.717391304347825
 20
22.5
 30
0.0
  0
VERTEX
  5
20208D7
330
20208D5
100
AcDbEntity
  8
cut
  6
Continuous
100
AcDbVertex
100
AcDb2dVertex
 10
1.0
 20
22.5
 30
0.0
  0
VERTEX
  5
20208D8
330
20208D5
100
AcDbEntity
  8
cut
  6
Continuous
100
AcDbVertex
100
AcDb2dVertex
 10
1.0
 20
24.0
 30
0.0
  0
VERTEX
  5
20208D9
330
20208D5
100
AcDbEntity
  8
cut
  6
Continuous
100
AcDbVertex
100
AcDb2dVertex
 10
1.652173913043478
 20
24.0
 30
0.0
  0
SEQEND
  5
202090C
330
20208D5
100
AcDbEntity
  8
cut
  6
Continuous
  0
POLYLINE
  5
20208F4
330
1F
100
AcDbEntity
  8
cut
  6
Continuous
100
AcDb2dPolyline
 66
     1
 10
0.0
 20
0.0
 30
0.0
  0
VERTEX
  5
20208F5
330
20208F4
100
AcDbEntity
  8
cut
  6
Continuous
100
AcDbVertex
100
AcDb2dVertex
 10
1.717391304347825
 20
22.5
 30
0.0
  0
VERTEX
  5
20208F6
330
20208F4
100
AcDbEntity
  8
cut
  6
Continuous
100
AcDbVertex
100
AcDb2dVertex
 10
1.75
 20
22.5
 30
0.0
  0
VERTEX
  5
20208F7
330
20208F4
100
AcDbEntity
  8
cut
  6
Continuous
100
AcDbVertex
100
AcDb2dVertex
 10
1.929347826086956
 20
22.53260869565218
 30
0.0
  0
VERTEX
  5
20208F8
330
20208F4
100
AcDbEntity
  8
cut
  6
Continuous
100
AcDbVertex
100
AcDb2dVertex
 10
2.076086956521739
 20
22.6304347826087
 30
0.0
  0
VERTEX
  5
20208F9
330
20208F4
100
AcDbEntity
  8
cut
  6
Continuous
100
AcDbVertex
100
AcDb2dVertex
 10
2.17391304347826
 20
22.76086956521739
 30
0.0
  0
VERTEX
  5
20208FA
330
20208F4
100
AcDbEntity
  8
cut
  6
Continuous
100
AcDbVertex
100
AcDb2dVertex
 10
2.206521739130435
 20
22.92391304347826
 30
0.0
  0
VERTEX
  5
20208FB
330
20208F4
100
AcDbEntity
  8
cut
  6
Continuous
100
AcDbVertex
100
AcDb2dVertex
 10
2.17391304347826
 20
23.08695652173913
 30
0.0
  0
VERTEX
  5
20208FC
330
20208F4
100
AcDbEntity
  8
cut
  6
Continuous
100
AcDbVertex
100
AcDb2dVertex
 10
2.076086956521739
 20
23.21739130434782
 30
0.0
  0
VERTEX
  5
20208FD
330
20208F4
100
AcDbEntity
  8
cut
  6
Continuous
100
AcDbVertex
100
AcDb2dVertex
 10
1.929347826086956
 20
23.31521739130435
 30
0.0
  0
VERTEX
  5
20208FE
330
20208F4
100
AcDbEntity
  8
cut
  6
Continuous
100
AcDbVertex
100
AcDb2dVertex
 10
1.994565217391303
 20
23.36413043478261
 30
0.0
  0
VERTEX
  5
20208FF
330
20208F4
100
AcDbEntity
  8
cut
  6
Continuous
100
AcDbVertex
100
AcDb2dVertex
 10
2.108695652173913
 20
23.4945652173913
 30
0.0
  0
VERTEX
  5
2020900
330
20208F4
100
AcDbEntity
  8
cut
  6
Continuous
100
AcDbVertex
100
AcDb2dVertex
 10
2.141304347826086
 20
23.625
 30
0.0
  0
VERTEX
  5
2020901
330
20208F4
100
AcDbEntity
  8
cut
  6
Continuous
100
AcDbVertex
100
AcDb2dVertex
 10
2.108695652173913
 20
23.7554347826087
 30
0.0
  0
VERTEX
  5
2020902
330
20208F4
100
AcDbEntity
  8
cut
  6
Continuous
100
AcDbVertex
100
AcDb2dVertex
 10
1.994565217391303
 20
23.88586956521739
 30
0.0
  0
VERTEX
  5
2020903
330
20208F4
100
AcDbEntity
  8
cut
  6
Continuous
100
AcDbVertex
100
AcDb2dVertex
 10
1.847826086956521
 20
23.96739130434782
 30
0.0
  0
VERTEX
  5
2020904
330
20208F4
100
AcDbEntity
  8
cut
  6
Continuous
100
AcDbVertex
100
AcDb2dVertex
 10
1.652173913043478
 20
24.0
 30
0.0
  0
SEQEND
  5
2020908
330
20208F4
100
AcDbEntity
  8
cut
  6
Continuous
  0
LINE
  5
202090D
330
1F
100
AcDbEntity
  8
cut
  6
Continuous
100
AcDbLine
 10
-27.0
 20
22.5
 30
0.0
 11
-26.69021739130435
 21
22.5
 31
0.0
  0
LINE
  5
202090E
330
1F
100
AcDbEntity
  8
cut
  6
Continuous
100
AcDbLine
 10
-25.66304347826087
 20
22.5
 30
0.0
 11
-25.97282608695652
 21
22.5
 31
0.0
  0
LINE
  5
202090F
330
1F
100
AcDbEntity
  8
cut
  6
Continuous
100
AcDbLine
 10
-26.59239130434782
 20
22.82608695652174
 30
0.0
 11
-26.07065217391304
 21
22.82608695652174
 31
0.0
  0
LINE
  5
2020914
330
1F
100
AcDbEntity
  8
cut
  6
Continuous
100
AcDbLine
 10
-26.59239130434782
 20
22.82608695652174
 30
0.0
 11
-26.69021739130435
 21
22.5
 31
0.0
  0
LINE
  5
2020915
330
1F
100
AcDbEntity
  8
cut
  6
Continuous
100
AcDbLine
 10
-26.07065217391304
 20
22.82608695652174
 30
0.0
 11
-25.97282608695652
 21
22.5
 31
0.0
  0
LINE
  5
2020916
330
1F
100
AcDbEntity
  8
cut
  6
Continuous
100
AcDbLine
 10
-26.13586956521739
 20
24.0
 30
0.0
 11
-25.66304347826087
 21
22.5
 31
0.0
  0
LINE
  5
2020917
330
1F
100
AcDbEntity
  8
cut
  6
Continuous
100
AcDbLine
 10
-26.52717391304348
 20
24.0
 30
0.0
 11
-27.0
 21
22.5
 31
0.0
  0
LINE
  5
2020918
330
1F
100
AcDbEntity
  8
cut
  6
Continuous
100
AcDbLine
 10
-26.52717391304348
 20
24.0
 30
0.0
 11
-26.13586956521739
 21
24.0
 31
0.0
  0
LWPOLYLINE
  5
202091A
330
1F
100
AcDbEntity
  8
cut
  6
Continuous
100
AcDbPolyline
 90
       18
 70
     1
 43
0.0
 10
1.0
 20
-5.5
 10
1.0
 20
-4.0
 10
1.554347826086956
 20
-4.0
 10
1.713982409142573
 20
-4.017986497782604
 10
1.865612247627813
 20
-4.071044073026526
 10
2.00163398828996
 20
-4.156512197359891
 10
2.11522693307489
 20
-4.270105142144821
 10
2.200695057408256
 20
-4.406126882806968
 10
2.253752632652178
 20
-4.557756721292209
 10
2.271739130434781
 20
-4.717391304347826
 10
2.271739130434783
 20
-4.782608695652174
 10
2.253752632652178
 20
-4.94224327870779
 10
2.200695057408256
 20
-5.093873117193031
 10
2.11522693307489
 20
-5.229894857855178
 10
2.00163398828996
 20
-5.343487802640108
 10
1.865612247627813
 20
-5.428955926973474
 10
1.713982409142574
 20
-5.482013502217394
 10
1.554347826086956
 20
-5.5
  0
LWPOLYLINE
  5
2020A10
330
1F
100
AcDbEntity
  8
cut
  6
Continuous
100
AcDbPolyline
 90
        8
 70
     1
 43
0.0
 10
-14.5
 20
12.0
 10
-14.5
 20
6.0
 10
-15.0
 20
2.500000000000003
 10
-15.0
 20
0.25
 10
-19.0
 20
0.249999999999998
 10
-19.0
 20
2.500000000000002
 10
-16.5
 20
6.000000000000003
 10
-16.5
 20
12.0
  0
LWPOLYLINE
  5
2020A11
330
1F
100
AcDbEntity
  8
cut
  6
Continuous
100
AcDbPolyline
 90
        9
 70
     1
 43
0.0
 10
-12.5
 20
9.0
 10
-11.5
 20
9.0
 10
-11.5
 20
6.0
 10
-9.0
 20
2.5
 10
-9.0
 20
0.2500000000000002
 10
-13.0
 20
0.25
 10
-13.0
 20
2.5
 10
-12.5
 20
6.0
 10
-12.5
 20
9.0
  0
CIRCLE
  5
2020A12
330
1F
100
AcDbEntity
  8
cut
100
AcDbCircle
 10
-25.5
 20
5.5
 30
0.0
 40
0.5
  0
LWPOLYLINE
  5
2020A13
330
1F
100
AcDbEntity
  8
cut
  6
Continuous
100
AcDbPolyline
 90
        9
 70
     1
 43
0.0
 10
-15.5
 20
19.0
 10
-16.5
 20
19.0
 10
-16.5
 20
22.0
 10
-19.0
 20
25.5
 10
-19.0
 20
27.75
 10
-15.0
 20
27.75
 10
-15.0
 20
25.5
 10
-15.5
 20
22.0
 10
-15.5
 20
19.0
  0
LWPOLYLINE
  5
2020A14
330
1F
100
AcDbEntity
  8
cut
  6
Continuous
100
AcDbPolyline
 90
        8
 70
     1
 43
0.0
 10
-13.5
 20
16.0
 10
-13.5
 20
22.0
 10
-13.0
 20
25.5
 10
-13.0
 20
27.75
 10
-9.0
 20
27.75
 10
-9.0
 20
25.5
 10
-11.5
 20
22.0
 10
-11.5
 20
16.0
  0
LWPOLYLINE
  5
2020A15
330
1F
100
AcDbEntity
  8
cut
  6
Continuous
100
AcDbPolyline
 90
       12
 70
     1
 43
0.0
 10
-2.6
 20
22.0
 10
-2.6
 20
22.35
 10
-2.949999999999998
 20
22.35
 10
-2.949999999999998
 20
22.65
 10
-2.6
 20
22.65
 10
-2.6
 20
23.0
 10
-2.3
 20
23.0
 10
-2.3
 20
22.65
 10
-1.949999999999999
 20
22.65
 10
-1.949999999999999
 20
22.35
 10
-2.3
 20
22.35
 10
-2.3
 20
22.0
  0
LWPOLYLINE
  5
2020A16
330
1F
100
AcDbEntity
  8
cut
  6
Continuous
100
AcDbPolyline
 90
       20
 70
     1
 43
0.0
 10
-27.75
 20
8.0
 10
-27.75
 20
20.0
 10
-26.0
 20
20.0
 10
-26.0
 20
16.0
 10
-25.0
 20
16.0
 10
-25.0
 20
15.0
 10
-3.0
 20
15.0
 10
-3.0
 20
16.0
 10
-2.0
 20
16.0
 10
-2.0
 20
20.0
 10
-0.25
 20
20.0
 10
-0.25
 20
8.0
 10
-2.0
 20
8.0
 10
-2.0
 20
12.0
 10
-3.0
 20
12.0
 10
-3.0
 20
13.0
 10
-25.0
 20
13.0
 10
-25.0
 20
12.0
 10
-26.0
 20
12.0
 10
-26.0
 20
8.0
  0
LWPOLYLINE
  5
2020A17
330
1F
100
AcDbEntity
  8
cut
  6
Continuous
100
AcDbPolyline
 90
        8
 70
     1
 43
0.0
 10
-9.5
 20
22.0
 10
-7.0
 20
25.5
 10
-7.0
 20
27.75
 10
-3.0
 20
27.75
 10
-3.0
 20
25.5
 10
-7.5
 20
22.0
 10
-7.5
 20
16.0
 10
-9.5
 20
16.0
  0
LWPOLYLINE
  5
2020A18
330
1F
100
AcDbEntity
  8
cut
  6
Continuous
100
AcDbPolyline
 90
        8
 70
     1
 43
0.0
 10
-18.5
 20
6.000000000000003
 10
-21.0
 20
2.500000000000003
 10
-21.0
 20
0.25
 10
-25.0
 20
0.25
 10
-25.0
 20
2.500000000000003
 10
-20.5
 20
6.000000000000003
 10
-20.5
 20
12.0
 10
-18.5
 20
12.0
  0
LWPOLYLINE
  5
2020A19
330
1F
100
AcDbEntity
  8
cut
  6
Continuous
100
AcDbPolyline
 90
        8
 70
     1
 43
0.0
 10
-7.0
 20
0.25
 10
-7.0
 20
2.5
 10
-9.5
 20
6.0
 10
-9.5
 20
12.0
 10
-7.5
 20
12.0
 10
-7.5
 20
6.0
 10
-3.0
 20
2.5
 10
-3.0
 20
0.2500000000000002
  0
LWPOLYLINE
  5
2020A1A
330
1F
100
AcDbEntity
  8
cut
  6
Continuous
100
AcDbPolyline
 90
        8
 70
     1
 43
0.0
 10
-21.0
 20
27.75
 10
-21.0
 20
25.5
 10
-18.5
 20
22.0
 10
-18.5
 20
16.0
 10
-20.5
 20
16.0
 10
-20.5
 20
22.0
 10
-25.0
 20
25.5
 10
-25.0
 20
27.75
  0
LWPOLYLINE
  5
2020A53
330
1F
100
AcDbEntity
  8
cut
  6
Continuous
100
AcDbPolyline
 90
        8
 70
     1
 43
0.0
 10
13.5
 20
12.0
 10
13.5
 20
6.0
 10
13.0
 20
2.500000000000003
 10
13.0
 20
0.25
 10
9.0
 20
0.249999999999998
 10
9.0
 20
2.500000000000002
 10
11.5
 20
6.000000000000003
 10
11.5
 20
12.0
  0
LWPOLYLINE
  5
2020A54
330
1F
100
AcDbEntity
  8
cut
  6
Continuous
100
AcDbPolyline
 90
        9
 70
     1
 43
0.0
 10
15.5
 20
9.0
 10
16.5
 20
9.0
 10
16.5
 20
6.0
 10
19.0
 20
2.5
 10
19.0
 20
0.2500000000000002
 10
15.0
 20
0.25
 10
15.0
 20
2.5
 10
15.5
 20
6.0
 10
15.5
 20
9.0
  0
CIRCLE
  5
2020A55
330
1F
100
AcDbEntity
  8
cut
100
AcDbCircle
 10
2.5
 20
5.5
 30
0.0
 40
0.5
  0
LWPOLYLINE
  5
2020A56
330
1F
100
AcDbEntity
  8
cut
  6
Continuous
100
AcDbPolyline
 90
        9
 70
     1
 43
0.0
 10
12.5
 20
19.0
 10
11.5
 20
19.0
 10
11.5
 20
22.0
 10
9.0
 20
25.5
 10
9.0
 20
27.75
 10
13.0
 20
27.75
 10
13.0
 20
25.5
 10
12.5
 20
22.0
 10
12.5
 20
19.0
  0
LWPOLYLINE
  5
2020A57
330
1F
100
AcDbEntity
  8
cut
  6
Continuous
100
AcDbPolyline
 90
        8
 70
     1
 43
0.0
 10
14.5
 20
16.0
 10
14.5
 20
22.0
 10
15.0
 20
25.5
 10
15.0
 20
27.75
 10
19.0
 20
27.75
 10
19.0
 20
25.5
 10
16.5
 20
22.0
 10
16.5
 20
16.0
  0
LWPOLYLINE
  5
2020A58
330
1F
100
AcDbEntity
  8
cut
  6
Continuous
100
AcDbPolyline
 90
       12
 70
     1
 43
0.0
 10
25.4
 20
22.0
 10
25.4
 20
22.35
 10
25.05
 20
22.35
 10
25.05
 20
22.65
 10
25.4
 20
22.65
 10
25.4
 20
23.0
 10
25.7
 20
23.0
 10
25.7
 20
22.65
 10
26.05
 20
22.65
 10
26.05
 20
22.35
 10
25.7
 20
22.35
 10
25.7
 20
22.0
  0
LWPOLYLINE
  5
2020A59
330
1F
100
AcDbEntity
  8
cut
  6
Continuous
100
AcDbPolyline
 90
       20
 70
     1
 43
0.0
 10
0.2500000000000002
 20
8.0
 10
0.2500000000000002
 20
20.0
 10
2.0
 20
20.0
 10
2.0
 20
16.0
 10
3.0
 20
16.0
 10
3.0
 20
15.0
 10
25.0
 20
15.0
 10
25.0
 20
16.0
 10
26.0
 20
16.0
 10
26.0
 20
20.0
 10
27.75
 20
20.0
 10
27.75
 20
8.0
 10
26.0
 20
8.0
 10
26.0
 20
12.0
 10
25.0
 20
12.0
 10
25.0
 20
13.0
 10
3.0
 20
13.0
 10
3.0
 20
12.0
 10
2.0
 20
12.0
 10
2.0
 20
8.0
  0
LWPOLYLINE
  5
2020A5A
330
1F
100
AcDbEntity
  8
cut
  6
Continuous
100
AcDbPolyline
 90
        8
 70
     1
 43
0.0
 10
18.5
 20
22.0
 10
21.0
 20
25.5
 10
21.0
 20
27.75
 10
25.0
 20
27.75
 10
25.0
 20
25.5
 10
20.5
 20
22.0
 10
20.5
 20
16.0
 10
18.5
 20
16.0
  0
LWPOLYLINE
  5
2020A5B
330
1F
100
AcDbEntity
  8
cut
  6
Continuous
100
AcDbPolyline
 90
        8
 70
     1
 43
0.0
 10
9.499999999999996
 20
6.000000000000003
 10
6.999999999999996
 20
2.500000000000003
 10
7.0
 20
0.25
 10
3.000000000000001
 20
0.25
 10
2.999999999999998
 20
2.500000000000003
 10
7.499999999999996
 20
6.000000000000003
 10
7.499999999999996
 20
12.0
 10
9.499999999999996
 20
12.0
  0
LWPOLYLINE
  5
2020A5C
330
1F
100
AcDbEntity
  8
cut
  6
Continuous
100
AcDbPolyline
 90
        8
 70
     1
 43
0.0
 10
21.0
 20
0.25
 10
21.0
 20
2.5
 10
18.5
 20
6.0
 10
18.5
 20
12.0
 10
20.5
 20
12.0
 10
20.5
 20
6.0
 10
25.0
 20
2.5
 10
25.0
 20
0.2500000000000002
  0
LWPOLYLINE
  5
2020A5D
330
1F
100
AcDbEntity
  8
cut
  6
Continuous
100
AcDbPolyline
 90
        8
 70
     1
 43
0.0
 10
7.0
 20
27.75
 10
7.0
 20
25.5
 10
9.5
 20
22.0
 10
9.5
 20
16.0
 10
7.5
 20
16.0
 10
7.5
 20
22.0
 10
3.0
 20
25.5
 10
3.0
 20
27.75
  0
LWPOLYLINE
  5
2020A96
330
1F
100
AcDbEntity
  8
cut
  6
Continuous
100
AcDbPolyline
 90
        8
 70
     1
 43
0.0
 10
-14.5
 20
-16.0
 10
-14.5
 20
-22.0
 10
-15.0
 20
-25.5
 10
-15.0
 20
-27.75
 10
-19.0
 20
-27.75
 10
-19.0
 20
-25.5
 10
-16.5
 20
-22.0
 10
-16.5
 20
-16.0
  0
LWPOLYLINE
  5
2020A97
330
1F
100
AcDbEntity
  8
cut
  6
Continuous
100
AcDbPolyline
 90
        9
 70
     1
 43
0.0
 10
-12.5
 20
-19.0
 10
-11.5
 20
-19.0
 10
-11.5
 20
-22.0
 10
-9.0
 20
-25.5
 10
-9.0
 20
-27.75
 10
-13.0
 20
-27.75
 10
-13.0
 20
-25.5
 10
-12.5
 20
-22.0
 10
-12.5
 20
-19.0
  0
CIRCLE
  5
2020A98
330
1F
100
AcDbEntity
  8
cut
100
AcDbCircle
 10
-25.5
 20
-22.5
 30
0.0
 40
0.5
  0
LWPOLYLINE
  5
2020A99
330
1F
100
AcDbEntity
  8
cut
  6
Continuous
100
AcDbPolyline
 90
        9
 70
     1
 43
0.0
 10
-15.5
 20
-9.0
 10
-16.5
 20
-9.0
 10
-16.5
 20
-6.0
 10
-19.0
 20
-2.5
 10
-19.0
 20
-0.25
 10
-15.0
 20
-0.25
 10
-15.0
 20
-2.5
 10
-15.5
 20
-6.0
 10
-15.5
 20
-9.0
  0
LWPOLYLINE
  5
2020A9A
330
1F
100
AcDbEntity
  8
cut
  6
Continuous
100
AcDbPolyline
 90
        8
 70
     1
 43
0.0
 10
-13.5
 20
-12.0
 10
-13.5
 20
-6.0
 10
-13.0
 20
-2.5
 10
-13.0
 20
-0.25
 10
-9.0
 20
-0.25
 10
-9.0
 20
-2.5
 10
-11.5
 20
-6.0
 10
-11.5
 20
-12.0
  0
LWPOLYLINE
  5
2020A9B
330
1F
100
AcDbEntity
  8
cut
  6
Continuous
100
AcDbPolyline
 90
       12
 70
     1
 43
0.0
 10
-2.6
 20
-6.0
 10
-2.6
 20
-5.649999999999998
 10
-2.949999999999998
 20
-5.649999999999998
 10
-2.949999999999998
 20
-5.350000000000001
 10
-2.6
 20
-5.350000000000001
 10
-2.6
 20
-5.0
 10
-2.3
 20
-5.0
 10
-2.3
 20
-5.350000000000001
 10
-1.949999999999999
 20
-5.350000000000001
 10
-1.949999999999999
 20
-5.649999999999998
 10
-2.3
 20
-5.649999999999998
 10
-2.3
 20
-6.0
  0
LWPOLYLINE
  5
2020A9C
330
1F
100
AcDbEntity
  8
cut
  6
Continuous
100
AcDbPolyline
 90
       20
 70
     1
 43
0.0
 10
-27.75
 20
-20.0
 10
-27.75
 20
-8.0
 10
-26.0
 20
-8.0
 10
-26.0
 20
-12.0
 10
-25.0
 20
-12.0
 10
-25.0
 20
-13.0
 10
-3.0
 20
-13.0
 10
-3.0
 20
-12.0
 10
-2.0
 20
-12.0
 10
-2.0
 20
-8.0
 10
-0.25
 20
-8.0
 10
-0.25
 20
-20.0
 10
-2.0
 20
-20.0
 10
-2.0
 20
-16.0
 10
-3.0
 20
-16.0
 10
-3.0
 20
-15.0
 10
-25.0
 20
-15.0
 10
-25.0
 20
-16.0
 10
-26.0
 20
-16.0
 10
-26.0
 20
-20.0
  0
LWPOLYLINE
  5
2020A9D
330
1F
100
AcDbEntity
  8
cut
  6
Continuous
100
AcDbPolyline
 90
        8
 70
     1
 43
0.0
 10
-9.5
 20
-6.0
 10
-7.0
 20
-2.5
 10
-7.0
 20
-0.25
 10
-3.0
 20
-0.25
 10
-3.0
 20
-2.5
 10
-7.5
 20
-6.0
 10
-7.5
 20
-12.0
 10
-9.5
 20
-12.0
  0
LWPOLYLINE
  5
2020A9E
330
1F
100
AcDbEntity
  8
cut
  6
Continuous
100
AcDbPolyline
 90
        8
 70
     1
 43
0.0
 10
-18.5
 20
-22.0
 10
-21.0
 20
-25.5
 10
-21.0
 20
-27.75
 10
-25.0
 20
-27.75
 10
-25.0
 20
-25.5
 10
-20.5
 20
-22.0
 10
-20.5
 20
-16.0
 10
-18.5
 20
-16.0
  0
LWPOLYLINE
  5
2020A9F
330
1F
100
AcDbEntity
  8
cut
  6
Continuous
100
AcDbPolyline
 90
        8
 70
     1
 43
0.0
 10
-7.0
 20
-27.75
 10
-7.0
 20
-25.5
 10
-9.5
 20
-22.0
 10
-9.5
 20
-16.0
 10
-7.5
 20
-16.0
 10
-7.5
 20
-22.0
 10
-3.0
 20
-25.5
 10
-3.0
 20
-27.75
  0
LWPOLYLINE
  5
2020AA0
330
1F
100
AcDbEntity
  8
cut
  6
Continuous
100
AcDbPolyline
 90
        8
 70
     1
 43
0.0
 10
-21.0
 20
-0.25
 10
-21.0
 20
-2.5
 10
-18.5
 20
-6.0
 10
-18.5
 20
-12.0
 10
-20.5
 20
-12.0
 10
-20.5
 20
-6.0
 10
-25.0
 20
-2.5
 10
-25.0
 20
-0.25
  0
LWPOLYLINE
  5
2020AD9
330
1F
100
AcDbEntity
  8
cut
  6
Continuous
100
AcDbPolyline
 90
        8
 70
     1
 43
0.0
 10
13.5
 20
-16.0
 10
13.5
 20
-22.0
 10
13.0
 20
-25.5
 10
13.0
 20
-27.75
 10
9.0
 20
-27.75
 10
9.0
 20
-25.5
 10
11.5
 20
-22.0
 10
11.5
 20
-16.0
  0
LWPOLYLINE
  5
2020ADA
330
1F
100
AcDbEntity
  8
cut
  6
Continuous
100
AcDbPolyline
 90
        9
 70
     1
 43
0.0
 10
15.5
 20
-19.0
 10
16.5
 20
-19.0
 10
16.5
 20
-22.0
 10
19.0
 20
-25.5
 10
19.0
 20
-27.75
 10
15.0
 20
-27.75
 10
15.0
 20
-25.5
 10
15.5
 20
-22.0
 10
15.5
 20
-19.0
  0
CIRCLE
  5
2020ADB
330
1F
100
AcDbEntity
  8
cut
100
AcDbCircle
 10
2.5
 20
-22.5
 30
0.0
 40
0.5
  0
LWPOLYLINE
  5
2020ADC
330
1F
100
AcDbEntity
  8
cut
  6
Continuous
100
AcDbPolyline
 90
        9
 70
     1
 43
0.0
 10
12.5
 20
-9.0
 10
11.5
 20
-9.0
 10
11.5
 20
-6.0
 10
9.0
 20
-2.5
 10
9.0
 20
-0.25
 10
13.0
 20
-0.25
 10
13.0
 20
-2.5
 10
12.5
 20
-6.0
 10
12.5
 20
-9.0
  0
LWPOLYLINE
  5
2020ADD
330
1F
100
AcDbEntity
  8
cut
  6
Continuous
100
AcDbPolyline
 90
        8
 70
     1
 43
0.0
 10
14.5
 20
-12.0
 10
14.5
 20
-6.0
 10
15.0
 20
-2.5
 10
15.0
 20
-0.25
 10
19.0
 20
-0.25
 10
19.0
 20
-2.5
 10
16.5
 20
-6.0
 10
16.5
 20
-12.0
  0
LWPOLYLINE
  5
2020ADE
330
1F
100
AcDbEntity
  8
cut
  6
Continuous
100
AcDbPolyline
 90
       12
 70
     1
 43
0.0
 10
25.4
 20
-6.0
 10
25.4
 20
-5.649999999999998
 10
25.05
 20
-5.649999999999998
 10
25.05
 20
-5.350000000000001
 10
25.4
 20
-5.350000000000001
 10
25.4
 20
-5.0
 10
25.7
 20
-5.0
 10
25.7
 20
-5.350000000000001
 10
26.05
 20
-5.350000000000001
 10
26.05
 20
-5.649999999999998
 10
25.7
 20
-5.649999999999998
 10
25.7
 20
-6.0
  0
LWPOLYLINE
  5
2020ADF
330
1F
100
AcDbEntity
  8
cut
  6
Continuous
100
AcDbPolyline
 90
       20
 70
     1
 43
0.0
 10
0.2500000000000002
 20
-20.0
 10
0.2500000000000002
 20
-8.0
 10
2.0
 20
-8.0
 10
2.0
 20
-12.0
 10
3.0
 20
-12.0
 10
3.0
 20
-13.0
 10
25.0
 20
-13.0
 10
25.0
 20
-12.0
 10
26.0
 20
-12.0
 10
26.0
 20
-8.0
 10
27.75
 20
-8.0
 10
27.75
 20
-20.0
 10
26.0
 20
-20.0
 10
26.0
 20
-16.0
 10
25.0
 20
-16.0
 10
25.0
 20
-15.0
 10
3.0
 20
-15.0
 10
3.0
 20
-16.0
 10
2.0
 20
-16.0
 10
2.0
 20
-20.0
  0
LWPOLYLINE
  5
2020AE0
330
1F
100
AcDbEntity
  8
cut
  6
Continuous
100
AcDbPolyline
 90
        8
 70
     1
 43
0.0
 10
18.5
 20
-6.0
 10
21.0
 20
-2.5
 10
21.0
 20
-0.25
 10
25.0
 20
-0.25
 10
25.0
 20
-2.5
 10
20.5
 20
-6.0
 10
20.5
 20
-12.0
 10
18.5
 20
-12.0
  0
LWPOLYLINE
  5
2020AE1
330
1F
100
AcDbEntity
  8
cut
  6
Continuous
100
AcDbPolyline
 90
        8
 70
     1
 43
0.0
 10
9.499999999999996
 20
-22.0
 10
6.999999999999996
 20
-25.5
 10
7.0
 20
-27.75
 10
3.000000000000001
 20
-27.75
 10
2.999999999999998
 20
-25.5
 10
7.499999999999996
 20
-22.0
 10
7.499999999999996
 20
-16.0
 10
9.499999999999996
 20
-16.0
  0
LWPOLYLINE
  5
2020AE2
330
1F
100
AcDbEntity
  8
cut
  6
Continuous
100
AcDbPolyline
 90
        8
 70
     1
 43
0.0
 10
21.0
 20
-27.75
 10
21.0
 20
-25.5
 10
18.5
 20
-22.0
 10
18.5
 20
-16.0
 10
20.5
 20
-16.0
 10
20.5
 20
-22.0
 10
25.0
 20
-25.5
 10
25.0
 20
-27.75
  0
LWPOLYLINE
  5
2020AE3
330
1F
100
AcDbEntity
  8
cut
  6
Continuous
100
AcDbPolyline
 90
        8
 70
     1
 43
0.0
 10
7.0
 20
-0.25
 10
7.0
 20
-2.5
 10
9.5
 20
-6.0
 10
9.5
 20
-12.0
 10
7.5
 20
-12.0
 10
7.5
 20
-6.0
 10
3.0
 20
-2.5
 10
3.0
 20
-0.25
  0
LINE
  5
2020B24
330
1F
100
AcDbEntity
  8
cut
  6
Continuous
100
AcDbLine
 10
-27.00034023660805
 20
-4.667659281111288
 30
0.0
 11
-27.00034023660805
 21
-4.749181020241722
 31
0.0
  0
POLYLINE
  5
2020B25
330
1F
100
AcDbEntity
  8
cut
  6
Continuous
100
AcDb3dPolyline
 66
     1
 10
0.0
 20
0.0
 30
0.0
 70
     8
  0
VERTEX
  5
2020B26
330
2020B25
100
AcDbEntity
  8
cut
  6
Continuous
100
AcDbVertex
100
AcDb3dPolylineVertex
 10
-26.70686197573849
 20
-4.60244188980694
 30
0.0
 70
    32
  0
VERTEX
  5
2020B27
330
2020B25
100
AcDbEntity
  8
cut
  6
Continuous
100
AcDbVertex
100
AcDb3dPolylineVertex
 10
-26.70686197573849
 20
-4.749181020241722
 30
0.0
 70
    32
  0
VERTEX
  5
2020B28
330
2020B25
100
AcDbEntity
  8
cut
  6
Continuous
100
AcDbVertex
100
AcDb3dPolylineVertex
 10
-26.70686197573849
 20
-4.895920150676505
 30
0.0
 70
    32
  0
SEQEND
  5
2020B4C
330
2020B25
100
AcDbEntity
  8
cut
  6
Continuous
  0
LINE
  5
2020B29
330
1F
100
AcDbEntity
  8
cut
  6
Continuous
100
AcDbLine
 10
-27.00034023660805
 20
-4.830702759372157
 30
0.0
 11
-27.00034023660805
 21
-4.749181020241722
 31
0.0
  0
LINE
  5
2020B2A
330
1F
100
AcDbEntity
  8
cut
  6
Continuous
100
AcDbLine
 10
-25.89180388872738
 20
-5.05934543437121
 30
0.0
 11
-25.59832562785781
 21
-5.05934543437121
 31
0.0
  0
LINE
  5
2020B2B
330
1F
100
AcDbEntity
  8
cut
  6
Continuous
100
AcDbLine
 10
-25.89180388872738
 20
-4.439780216979905
 30
0.0
 11
-25.59832562785781
 21
-4.439780216979905
 31
0.0
  0
POLYLINE
  5
2020B2C
330
1F
100
AcDbEntity
  8
cut
  6
Continuous
100
AcDb2dPolyline
 66
     1
 10
0.0
 20
0.0
 30
0.0
  0
VERTEX
  5
2020B2D
330
2020B2C
100
AcDbEntity
  8
cut
  6
Continuous
100
AcDbVertex
100
AcDb2dVertex
 10
-25.60281903253075
 20
-4.439270282240684
 30
0.0
  0
VERTEX
  5
2020B2E
330
2020B2C
100
AcDbEntity
  8
cut
  6
Continuous
100
AcDbVertex
100
AcDb2dVertex
 10
-25.78002673477985
 20
-4.156558681092039
 30
0.0
  0
VERTEX
  5
2020B2F
330
2020B2C
100
AcDbEntity
  8
cut
  6
Continuous
100
AcDbVertex
100
AcDb2dVertex
 10
-26.06595225374925
 20
-3.984584797137209
 30
0.0
  0
VERTEX
  5
2020B30
330
2020B2C
100
AcDbEntity
  8
cut
  6
Continuous
100
AcDbVertex
100
AcDb2dVertex
 10
-26.39874458684226
 20
-3.960549776959388
 30
0.0
  0
VERTEX
  5
2020B31
330
2020B2C
100
AcDbEntity
  8
cut
  6
Continuous
100
AcDbVertex
100
AcDb2dVertex
 10
-26.70641456872485
 20
-4.089652842022927
 30
0.0
  0
VERTEX
  5
2020B32
330
2020B2C
100
AcDbEntity
  8
cut
  6
Continuous
100
AcDbVertex
100
AcDb2dVertex
 10
-26.92240746543364
 20
-4.34396660046273
 30
0.0
  0
VERTEX
  5
2020B33
330
2020B2C
100
AcDbEntity
  8
cut
  6
Continuous
100
AcDbVertex
100
AcDb2dVertex
 10
-27.0
 20
-4.668478260869565
 30
0.0
  0
SEQEND
  5
2020B4B
330
2020B2C
100
AcDbEntity
  8
cut
  6
Continuous
  0
POLYLINE
  5
2020B34
330
1F
100
AcDbEntity
  8
cut
  6
Continuous
100
AcDb2dPolyline
 66
     1
 10
0.0
 20
0.0
 30
0.0
  0
VERTEX
  5
2020B35
330
2020B34
100
AcDbEntity
  8
cut
  6
Continuous
100
AcDbVertex
100
AcDb2dVertex
 10
-25.89130434782609
 20
-4.440217391304347
 30
0.0
  0
VERTEX
  5
2020B36
330
2020B34
100
AcDbEntity
  8
cut
  6
Continuous
100
AcDbVertex
100
AcDb2dVertex
 10
-26.08311770686659
 20
-4.228583962528833
 30
0.0
  0
VERTEX
  5
2020B37
330
2020B34
100
AcDbEntity
  8
cut
  6
Continuous
100
AcDbVertex
100
AcDb2dVertex
 10
-26.36565026441923
 20
-4.186674216592527
 30
0.0
  0
VERTEX
  5
2020B38
330
2020B34
100
AcDbEntity
  8
cut
  6
Continuous
100
AcDbVertex
100
AcDb2dVertex
 10
-26.61063814618573
 20
-4.333514301954959
 30
0.0
  0
VERTEX
  5
2020B39
330
2020B34
100
AcDbEntity
  8
cut
  6
Continuous
100
AcDbVertex
100
AcDb2dVertex
 10
-26.70686197573849
 20
-4.60244188980694
 30
0.0
  0
SEQEND
  5
2020B4A
330
2020B34
100
AcDbEntity
  8
cut
  6
Continuous
  0
POLYLINE
  5
2020B3A
330
1F
100
AcDbEntity
  8
cut
  6
Continuous
100
AcDb2dPolyline
 66
     1
 10
0.0
 20
0.0
 30
0.0
  0
VERTEX
  5
2020B3B
330
2020B3A
100
AcDbEntity
  8
cut
  6
Continuous
100
AcDbVertex
100
AcDb2dVertex
 10
-26.70686197573849
 20
-4.895920150676505
 30
0.0
  0
VERTEX
  5
2020B3C
330
2020B3A
100
AcDbEntity
  8
cut
  6
Continuous
100
AcDbVertex
100
AcDb2dVertex
 10
-26.61084431465649
 20
-5.164596324972262
 30
0.0
  0
VERTEX
  5
2020B3D
330
2020B3A
100
AcDbEntity
  8
cut
  6
Continuous
100
AcDbVertex
100
AcDb2dVertex
 10
-26.36628794648993
 20
-5.311560472515258
 30
0.0
  0
VERTEX
  5
2020B3E
330
2020B3A
100
AcDbEntity
  8
cut
  6
Continuous
100
AcDbVertex
100
AcDb2dVertex
 10
-26.08397847142409
 20
-5.270236893750683
 30
0.0
  0
VERTEX
  5
2020B3F
330
2020B3A
100
AcDbEntity
  8
cut
  6
Continuous
100
AcDbVertex
100
AcDb2dVertex
 10
-25.89180388872738
 20
-5.05934543437121
 30
0.0
  0
SEQEND
  5
2020B49
330
2020B3A
100
AcDbEntity
  8
cut
  6
Continuous
  0
POLYLINE
  5
2020B40
330
1F
100
AcDbEntity
  8
cut
  6
Continuous
100
AcDb2dPolyline
 66
     1
 10
0.0
 20
0.0
 30
0.0
  0
VERTEX
  5
2020B41
330
2020B40
100
AcDbEntity
  8
cut
  6
Continuous
100
AcDbVertex
100
AcDb2dVertex
 10
-27.00049954090129
 20
-4.831084564805993
 30
0.0
  0
VERTEX
  5
2020B42
330
2020B40
100
AcDbEntity
  8
cut
  6
Continuous
100
AcDbVertex
100
AcDb2dVertex
 10
-26.92290700633493
 20
-5.155596225212828
 30
0.0
  0
VERTEX
  5
2020B43
330
2020B40
100
AcDbEntity
  8
cut
  6
Continuous
100
AcDbVertex
100
AcDb2dVertex
 10
-26.70691410962614
 20
-5.409909983652631
 30
0.0
  0
VERTEX
  5
2020B44
330
2020B40
100
AcDbEntity
  8
cut
  6
Continuous
100
AcDbVertex
100
AcDb2dVertex
 10
-26.39924412774355
 20
-5.539013048716169
 30
0.0
  0
VERTEX
  5
2020B45
330
2020B40
100
AcDbEntity
  8
cut
  6
Continuous
100
AcDbVertex
100
AcDb2dVertex
 10
-26.06645179465054
 20
-5.514978028538349
 30
0.0
  0
VERTEX
  5
2020B46
330
2020B40
100
AcDbEntity
  8
cut
  6
Continuous
100
AcDbVertex
100
AcDb2dVertex
 10
-25.78052627568114
 20
-5.343004144583518
 30
0.0
  0
VERTEX
  5
2020B47
330
2020B40
100
AcDbEntity
  8
cut
  6
Continuous
100
AcDbVertex
100
AcDb2dVertex
 10
-25.60331857343204
 20
-5.060292543434873
 30
0.0
  0
SEQEND
  5
2020B48
330
2020B40
100
AcDbEntity
  8
cut
  6
Continuous
  0
ARC
  5
2020B6F
330
1F
100
AcDbEntity
  8
cut
  6
Continuous
100
AcDbCircle
 10
-23.24999999999999
 20
25.5
 30
0.0
 40
4.95
100
AcDbArc
 50
90.0
 51
180.0
  0
LINE
  5
2020B70
330
1F
100
AcDbEntity
  8
cut
  6
Continuous
100
AcDbLine
 10
-23.24999999999999
 20
30.45
 30
0.0
 11
23.25
 21
30.45
 31
0.0
  0
ARC
  5
2020B71
330
1F
100
AcDbEntity
  8
cut
  6
Continuous
100
AcDbCircle
 10
23.25
 20
25.5
 30
0.0
 40
4.95
100
AcDbArc
 50
0.0
 51
90.0
  0
LINE
  5
2020B72
330
1F
100
AcDbEntity
  8
cut
  6
Continuous
100
AcDbLine
 10
28.2
 20
25.5
 30
0.0
 11
28.2
 21
-25.50000000000001
 31
0.0
  0
ARC
  5
2020B73
330
1F
100
AcDbEntity
  8
cut
  6
Continuous
100
AcDbCircle
 10
23.25
 20
-25.50000000000001
 30
0.0
 40
4.95
100
AcDbArc
 50
270.0
 51
0.0
  0
LINE
  5
2020B74
330
1F
100
AcDbEntity
  8
cut
  6
Continuous
100
AcDbLine
 10
23.25
 20
-30.45000000000001
 30
0.0
 11
-23.24999999999999
 21
-30.45000000000001
 31
0.0
  0
ARC
  5
2020B75
330
1F
100
AcDbEntity
  8
cut
  6
Continuous
100
AcDbCircle
 10
-23.24999999999999
 20
-25.50000000000001
 30
0.0
 40
4.95
100
AcDbArc
 50
180.0
 51
270.0
  0
LINE
  5
2020B76
330
1F
100
AcDbEntity
  8
cut
  6
Continuous
100
AcDbLine
 10
-28.19999999999999
 20
-25.50000000000001
 30
0.0
 11
-28.19999999999999
 21
25.5
 31
0.0
  0
LINE
  5
2020E0D
330
1F
100
AcDbEntity
  8
engrave
  6
Continuous
370
    70
100
AcDbLine
 10
0.0
 20
22.5
 30
0.0
 11
0.0
 21
26.0
 31
0.0
  0
LINE
  5
2020E0E
330
1F
100
AcDbEntity
  8
engrave
  6
Continuous
370
    70
100
AcDbLine
 10
0.0
 20
26.0
 30
0.0
 11
-0.25
 21
25.5
 31
0.0
  0
LINE
  5
2020E0F
330
1F
100
AcDbEntity
  8
engrave
  6
Continuous
370
    70
100
AcDbLine
 10
0.0
 20
26.0
 30
0.0
 11
0.25
 21
25.5
 31
0.0
  0
POLYLINE
  5
2020E10
330
1F
100
AcDbEntity
  8
engrave
  6
Continuous
370
    70
100
AcDb2dPolyline
 66
     1
 10
0.0
 20
0.0
 30
0.0
  0
VERTEX
  5
2020E11
330
2020E10
100
AcDbEntity
  8
engrave
  6
Continuous
370
    70
100
AcDbVertex
100
AcDb2dVertex
 10
2.504999999999999
 20
-24.12
 30
0.0
  0
VERTEX
  5
2020E12
330
2020E10
100
AcDbEntity
  8
engrave
  6
Continuous
370
    70
100
AcDbVertex
100
AcDb2dVertex
 10
2.940000000000001
 20
-24.12
 30
0.0
  0
VERTEX
  5
2020E13
330
2020E10
100
AcDbEntity
  8
engrave
  6
Continuous
370
    70
100
AcDbVertex
100
AcDb2dVertex
 10
2.940000000000001
 20
-24.06
 30
0.0
  0
VERTEX
  5
2020E14
330
2020E10
100
AcDbEntity
  8
engrave
  6
Continuous
370
    70
100
AcDbVertex
100
AcDb2dVertex
 10
2.925000000000001
 20
-24.0
 30
0.0
  0
VERTEX
  5
2020E15
330
2020E10
100
AcDbEntity
  8
engrave
  6
Continuous
370
    70
100
AcDbVertex
100
AcDb2dVertex
 10
2.895
 20
-23.94
 30
0.0
  0
SEQEND
  5
2020E16
330
2020E10
100
AcDbEntity
  8
engrave
  6
Continuous
370
    70
  0
POLYLINE
  5
2020E17
330
1F
100
AcDbEntity
  8
engrave
  6
Continuous
370
    70
100
AcDb2dPolyline
 66
     1
 10
0.0
 20
0.0
 30
0.0
  0
VERTEX
  5
2020E18
330
2020E17
100
AcDbEntity
  8
engrave
  6
Continuous
370
    70
100
AcDbVertex
100
AcDb2dVertex
 10
2.895
 20
-23.94
 30
0.0
  0
VERTEX
  5
2020E19
330
2020E17
100
AcDbEntity
  8
engrave
  6
Continuous
370
    70
100
AcDbVertex
100
AcDb2dVertex
 10
2.835000000000001
 20
-23.895
 30
0.0
  0
VERTEX
  5
2020E1A
330
2020E17
100
AcDbEntity
  8
engrave
  6
Continuous
370
    70
100
AcDbVertex
100
AcDb2dVertex
 10
2.789999999999999
 20
-23.88
 30
0.0
  0
VERTEX
  5
2020E1B
330
2020E17
100
AcDbEntity
  8
engrave
  6
Continuous
370
    70
100
AcDbVertex
100
AcDb2dVertex
 10
2.684999999999999
 20
-23.88
 30
0.0
  0
VERTEX
  5
2020E1C
330
2020E17
100
AcDbEntity
  8
engrave
  6
Continuous
370
    70
100
AcDbVertex
100
AcDb2dVertex
 10
2.609999999999999
 20
-23.91
 30
0.0
  0
VERTEX
  5
2020E1D
330
2020E17
100
AcDbEntity
  8
engrave
  6
Continuous
370
    70
100
AcDbVertex
100
AcDb2dVertex
 10
2.550000000000001
 20
-23.97
 30
0.0
  0
VERTEX
  5
2020E1E
330
2020E17
100
AcDbEntity
  8
engrave
  6
Continuous
370
    70
100
AcDbVertex
100
AcDb2dVertex
 10
2.504999999999999
 20
-24.06
 30
0.0
  0
VERTEX
  5
2020E1F
330
2020E17
100
AcDbEntity
  8
engrave
  6
Continuous
370
    70
100
AcDbVertex
100
AcDb2dVertex
 10
2.504999999999999
 20
-24.165
 30
0.0
  0
VERTEX
  5
2020E20
330
2020E17
100
AcDbEntity
  8
engrave
  6
Continuous
370
    70
100
AcDbVertex
100
AcDb2dVertex
 10
2.535
 20
-24.255
 30
0.0
  0
VERTEX
  5
2020E21
330
2020E17
100
AcDbEntity
  8
engrave
  6
Continuous
370
    70
100
AcDbVertex
100
AcDb2dVertex
 10
2.594999999999999
 20
-24.33
 30
0.0
  0
VERTEX
  5
2020E22
330
2020E17
100
AcDbEntity
  8
engrave
  6
Continuous
370
    70
100
AcDbVertex
100
AcDb2dVertex
 10
2.684999999999999
 20
-24.375
 30
0.0
  0
VERTEX
  5
2020E23
330
2020E17
100
AcDbEntity
  8
engrave
  6
Continuous
370
    70
100
AcDbVertex
100
AcDb2dVertex
 10
2.789999999999999
 20
-24.375
 30
0.0
  0
VERTEX
  5
2020E24
330
2020E17
100
AcDbEntity
  8
engrave
  6
Continuous
370
    70
100
AcDbVertex
100
AcDb2dVertex
 10
2.864999999999998
 20
-24.345
 30
0.0
  0
VERTEX
  5
2020E25
330
2020E17
100
AcDbEntity
  8
engrave
  6
Continuous
370
    70
100
AcDbVertex
100
AcDb2dVertex
 10
2.91
 20
-24.3
 30
0.0
  0
VERTEX
  5
2020E26
330
2020E17
100
AcDbEntity
  8
engrave
  6
Continuous
370
    70
100
AcDbVertex
100
AcDb2dVertex
 10
2.940000000000001
 20
-24.255
 30
0.0
  0
SEQEND
  5
2020E27
330
2020E17
100
AcDbEntity
  8
engrave
  6
Continuous
370
    70
  0
LINE
  5
2020E28
330
1F
100
AcDbEntity
  8
engrave
  6
Continuous
370
    70
100
AcDbLine
 10
2.324999999999999
 20
-24.375
 30
0.0
 11
2.324999999999999
 21
-23.625
 31
0.0
  0
POLYLINE
  5
2020E29
330
1F
100
AcDbEntity
  8
engrave
  6
Continuous
370
    70
100
AcDb2dPolyline
 66
     1
 10
0.0
 20
0.0
 30
0.0
  0
VERTEX
  5
2020E2A
330
2020E29
100
AcDbEntity
  8
engrave
  6
Continuous
370
    70
100
AcDbVertex
100
AcDb2dVertex
 10
2.324999999999999
 20
-24.0
 30
0.0
  0
VERTEX
  5
2020E2B
330
2020E29
100
AcDbEntity
  8
engrave
  6
Continuous
370
    70
100
AcDbVertex
100
AcDb2dVertex
 10
2.280000000000001
 20
-23.94
 30
0.0
  0
VERTEX
  5
2020E2C
330
2020E29
100
AcDbEntity
  8
engrave
  6
Continuous
370
    70
100
AcDbVertex
100
AcDb2dVertex
 10
2.219999999999999
 20
-23.895
 30
0.0
  0
VERTEX
  5
2020E2D
330
2020E29
100
AcDbEntity
  8
engrave
  6
Continuous
370
    70
100
AcDbVertex
100
AcDb2dVertex
 10
2.175000000000001
 20
-23.88
 30
0.0
  0
VERTEX
  5
2020E2E
330
2020E29
100
AcDbEntity
  8
engrave
  6
Continuous
370
    70
100
AcDbVertex
100
AcDb2dVertex
 10
2.07
 20
-23.88
 30
0.0
  0
VERTEX
  5
2020E2F
330
2020E29
100
AcDbEntity
  8
engrave
  6
Continuous
370
    70
100
AcDbVertex
100
AcDb2dVertex
 10
1.995000000000001
 20
-23.91
 30
0.0
  0
VERTEX
  5
2020E30
330
2020E29
100
AcDbEntity
  8
engrave
  6
Continuous
370
    70
100
AcDbVertex
100
AcDb2dVertex
 10
1.934999999999999
 20
-23.97
 30
0.0
  0
VERTEX
  5
2020E31
330
2020E29
100
AcDbEntity
  8
engrave
  6
Continuous
370
    70
100
AcDbVertex
100
AcDb2dVertex
 10
1.890000000000001
 20
-24.06
 30
0.0
  0
VERTEX
  5
2020E32
330
2020E29
100
AcDbEntity
  8
engrave
  6
Continuous
370
    70
100
AcDbVertex
100
AcDb2dVertex
 10
1.890000000000001
 20
-24.165
 30
0.0
  0
VERTEX
  5
2020E33
330
2020E29
100
AcDbEntity
  8
engrave
  6
Continuous
370
    70
100
AcDbVertex
100
AcDb2dVertex
 10
1.920000000000002
 20
-24.255
 30
0.0
  0
VERTEX
  5
2020E34
330
2020E29
100
AcDbEntity
  8
engrave
  6
Continuous
370
    70
100
AcDbVertex
100
AcDb2dVertex
 10
1.98
 20
-24.33
 30
0.0
  0
VERTEX
  5
2020E35
330
2020E29
100
AcDbEntity
  8
engrave
  6
Continuous
370
    70
100
AcDbVertex
100
AcDb2dVertex
 10
2.07
 20
-24.375
 30
0.0
  0
VERTEX
  5
2020E36
330
2020E29
100
AcDbEntity
  8
engrave
  6
Continuous
370
    70
100
AcDbVertex
100
AcDb2dVertex
 10
2.175000000000001
 20
-24.375
 30
0.0
  0
VERTEX
  5
2020E37
330
2020E29
100
AcDbEntity
  8
engrave
  6
Continuous
370
    70
100
AcDbVertex
100
AcDb2dVertex
 10
2.25
 20
-24.345
 30
0.0
  0
VERTEX
  5
2020E38
330
2020E29
100
AcDbEntity
  8
engrave
  6
Continuous
370
    70
100
AcDbVertex
100
AcDb2dVertex
 10
2.295000000000002
 20
-24.3
 30
0.0
  0
VERTEX
  5
2020E39
330
2020E29
100
AcDbEntity
  8
engrave
  6
Continuous
370
    70
100
AcDbVertex
100
AcDb2dVertex
 10
2.324999999999999
 20
-24.255
 30
0.0
  0
SEQEND
  5
2020E3A
330
2020E29
100
AcDbEntity
  8
engrave
  6
Continuous
370
    70
  0
LINE
  5
2020E3B
330
1F
100
AcDbEntity
  8
engrave
  6
Continuous
370
    70
100
AcDbLine
 10
1.710000000000001
 20
-23.745
 30
0.0
 11
1.710000000000001
 21
-23.655
 31
0.0
  0
LINE
  5
2020E3C
330
1F
100
AcDbEntity
  8
engrave
  6
Continuous
370
    70
100
AcDbLine
 10
1.710000000000001
 20
-24.375
 30
0.0
 11
1.710000000000001
 21
-23.88
 31
0.0
  0
POLYLINE
  5
2020E3D
330
1F
100
AcDbEntity
  8
engrave
  6
Continuous
370
    70
100
AcDb2dPolyline
 66
     1
 10
0.0
 20
0.0
 30
0.0
  0
VERTEX
  5
2020E3E
330
2020E3D
100
AcDbEntity
  8
engrave
  6
Continuous
370
    70
100
AcDbVertex
100
AcDb2dVertex
 10
1.530000000000001
 20
-23.985
 30
0.0
  0
VERTEX
  5
2020E3F
330
2020E3D
100
AcDbEntity
  8
engrave
  6
Continuous
370
    70
100
AcDbVertex
100
AcDb2dVertex
 10
1.5
 20
-23.91
 30
0.0
  0
VERTEX
  5
2020E40
330
2020E3D
100
AcDbEntity
  8
engrave
  6
Continuous
370
    70
100
AcDbVertex
100
AcDb2dVertex
 10
1.395
 20
-23.88
 30
0.0
  0
VERTEX
  5
2020E41
330
2020E3D
100
AcDbEntity
  8
engrave
  6
Continuous
370
    70
100
AcDbVertex
100
AcDb2dVertex
 10
1.274999999999999
 20
-23.88
 30
0.0
  0
VERTEX
  5
2020E42
330
2020E3D
100
AcDbEntity
  8
engrave
  6
Continuous
370
    70
100
AcDbVertex
100
AcDb2dVertex
 10
1.170000000000002
 20
-23.91
 30
0.0
  0
VERTEX
  5
2020E43
330
2020E3D
100
AcDbEntity
  8
engrave
  6
Continuous
370
    70
100
AcDbVertex
100
AcDb2dVertex
 10
1.140000000000001
 20
-23.97
 30
0.0
  0
VERTEX
  5
2020E44
330
2020E3D
100
AcDbEntity
  8
engrave
  6
Continuous
370
    70
100
AcDbVertex
100
AcDb2dVertex
 10
1.170000000000002
 20
-24.045
 30
0.0
  0
VERTEX
  5
2020E45
330
2020E3D
100
AcDbEntity
  8
engrave
  6
Continuous
370
    70
100
AcDbVertex
100
AcDb2dVertex
 10
1.245000000000001
 20
-24.09
 30
0.0
  0
VERTEX
  5
2020E46
330
2020E3D
100
AcDbEntity
  8
engrave
  6
Continuous
370
    70
100
AcDbVertex
100
AcDb2dVertex
 10
1.425000000000001
 20
-24.12
 30
0.0
  0
VERTEX
  5
2020E47
330
2020E3D
100
AcDbEntity
  8
engrave
  6
Continuous
370
    70
100
AcDbVertex
100
AcDb2dVertex
 10
1.5
 20
-24.165
 30
0.0
  0
VERTEX
  5
2020E48
330
2020E3D
100
AcDbEntity
  8
engrave
  6
Continuous
370
    70
100
AcDbVertex
100
AcDb2dVertex
 10
1.530000000000001
 20
-24.225
 30
0.0
  0
VERTEX
  5
2020E49
330
2020E3D
100
AcDbEntity
  8
engrave
  6
Continuous
370
    70
100
AcDbVertex
100
AcDb2dVertex
 10
1.530000000000001
 20
-24.27
 30
0.0
  0
VERTEX
  5
2020E4A
330
2020E3D
100
AcDbEntity
  8
engrave
  6
Continuous
370
    70
100
AcDbVertex
100
AcDb2dVertex
 10
1.5
 20
-24.345
 30
0.0
  0
VERTEX
  5
2020E4B
330
2020E3D
100
AcDbEntity
  8
engrave
  6
Continuous
370
    70
100
AcDbVertex
100
AcDb2dVertex
 10
1.395
 20
-24.375
 30
0.0
  0
VERTEX
  5
2020E4C
330
2020E3D
100
AcDbEntity
  8
engrave
  6
Continuous
370
    70
100
AcDbVertex
100
AcDb2dVertex
 10
1.274999999999999
 20
-24.375
 30
0.0
  0
VERTEX
  5
2020E4D
330
2020E3D
100
AcDbEntity
  8
engrave
  6
Continuous
370
    70
100
AcDbVertex
100
AcDb2dVertex
 10
1.184999999999999
 20
-24.345
 30
0.0
  0
VERTEX
  5
2020E4E
330
2020E3D
100
AcDbEntity
  8
engrave
  6
Continuous
370
    70
100
AcDbVertex
100
AcDb2dVertex
 10
1.140000000000001
 20
-24.27
 30
0.0
  0
SEQEND
  5
2020E4F
330
2020E3D
100
AcDbEntity
  8
engrave
  6
Continuous
370
    70
  0
POLYLINE
  5
2020E50
330
1F
100
AcDbEntity
  8
engrave
  6
Continuous
370
    70
100
AcDb2dPolyline
 66
     1
 10
0.0
 20
0.0
 30
0.0
  0
VERTEX
  5
2020E51
330
2020E50
100
AcDbEntity
  8
engrave
  6
Continuous
370
    70
100
AcDbVertex
100
AcDb2dVertex
 10
-0.2250000000000014
 20
-24.12
 30
0.0
  0
VERTEX
  5
2020E52
330
2020E50
100
AcDbEntity
  8
engrave
  6
Continuous
370
    70
100
AcDbVertex
100
AcDb2dVertex
 10
0.2100000000000009
 20
-24.12
 30
0.0
  0
VERTEX
  5
2020E53
330
2020E50
100
AcDbEntity
  8
engrave
  6
Continuous
370
    70
100
AcDbVertex
100
AcDb2dVertex
 10
0.2100000000000009
 20
-24.06
 30
0.0
  0
VERTEX
  5
2020E54
330
2020E50
100
AcDbEntity
  8
engrave
  6
Continuous
370
    70
100
AcDbVertex
100
AcDb2dVertex
 10
0.1950000000000003
 20
-24.0
 30
0.0
  0
VERTEX
  5
2020E55
330
2020E50
100
AcDbEntity
  8
engrave
  6
Continuous
370
    70
100
AcDbVertex
100
AcDb2dVertex
 10
0.1649999999999991
 20
-23.94
 30
0.0
  0
SEQEND
  5
2020E56
330
2020E50
100
AcDbEntity
  8
engrave
  6
Continuous
370
    70
  0
POLYLINE
  5
2020E57
330
1F
100
AcDbEntity
  8
engrave
  6
Continuous
370
    70
100
AcDb2dPolyline
 66
     1
 10
0.0
 20
0.0
 30
0.0
  0
VERTEX
  5
2020E58
330
2020E57
100
AcDbEntity
  8
engrave
  6
Continuous
370
    70
100
AcDbVertex
100
AcDb2dVertex
 10
0.1649999999999991
 20
-23.94
 30
0.0
  0
VERTEX
  5
2020E59
330
2020E57
100
AcDbEntity
  8
engrave
  6
Continuous
370
    70
100
AcDbVertex
100
AcDb2dVertex
 10
0.1050000000000004
 20
-23.895
 30
0.0
  0
VERTEX
  5
2020E5A
330
2020E57
100
AcDbEntity
  8
engrave
  6
Continuous
370
    70
100
AcDbVertex
100
AcDb2dVertex
 10
0.0599999999999987
 20
-23.88
 30
0.0
  0
VERTEX
  5
2020E5B
330
2020E57
100
AcDbEntity
  8
engrave
  6
Continuous
370
    70
100
AcDbVertex
100
AcDb2dVertex
 10
-0.0450000000000017
 20
-23.88
 30
0.0
  0
VERTEX
  5
2020E5C
330
2020E57
100
AcDbEntity
  8
engrave
  6
Continuous
370
    70
100
AcDbVertex
100
AcDb2dVertex
 10
-0.120000000000001
 20
-23.91
 30
0.0
  0
VERTEX
  5
2020E5D
330
2020E57
100
AcDbEntity
  8
engrave
  6
Continuous
370
    70
100
AcDbVertex
100
AcDb2dVertex
 10
-0.1799999999999997
 20
-23.97
 30
0.0
  0
VERTEX
  5
2020E5E
330
2020E57
100
AcDbEntity
  8
engrave
  6
Continuous
370
    70
100
AcDbVertex
100
AcDb2dVertex
 10
-0.2250000000000014
 20
-24.06
 30
0.0
  0
VERTEX
  5
2020E5F
330
2020E57
100
AcDbEntity
  8
engrave
  6
Continuous
370
    70
100
AcDbVertex
100
AcDb2dVertex
 10
-0.2250000000000014
 20
-24.165
 30
0.0
  0
VERTEX
  5
2020E60
330
2020E57
100
AcDbEntity
  8
engrave
  6
Continuous
370
    70
100
AcDbVertex
100
AcDb2dVertex
 10
-0.1950000000000003
 20
-24.255
 30
0.0
  0
VERTEX
  5
2020E61
330
2020E57
100
AcDbEntity
  8
engrave
  6
Continuous
370
    70
100
AcDbVertex
100
AcDb2dVertex
 10
-0.1350000000000016
 20
-24.33
 30
0.0
  0
VERTEX
  5
2020E62
330
2020E57
100
AcDbEntity
  8
engrave
  6
Continuous
370
    70
100
AcDbVertex
100
AcDb2dVertex
 10
-0.0450000000000017
 20
-24.375
 30
0.0
  0
VERTEX
  5
2020E63
330
2020E57
100
AcDbEntity
  8
engrave
  6
Continuous
370
    70
100
AcDbVertex
100
AcDb2dVertex
 10
0.0599999999999987
 20
-24.375
 30
0.0
  0
VERTEX
  5
2020E64
330
2020E57
100
AcDbEntity
  8
engrave
  6
Continuous
370
    70
100
AcDbVertex
100
AcDb2dVertex
 10
0.1350000000000016
 20
-24.345
 30
0.0
  0
VERTEX
  5
2020E65
330
2020E57
100
AcDbEntity
  8
engrave
  6
Continuous
370
    70
100
AcDbVertex
100
AcDb2dVertex
 10
0.1799999999999997
 20
-24.3
 30
0.0
  0
VERTEX
  5
2020E66
330
2020E57
100
AcDbEntity
  8
engrave
  6
Continuous
370
    70
100
AcDbVertex
100
AcDb2dVertex
 10
0.2100000000000009
 20
-24.255
 30
0.0
  0
SEQEND
  5
2020E67
330
2020E57
100
AcDbEntity
  8
engrave
  6
Continuous
370
    70
  0
POLYLINE
  5
2020E68
330
1F
100
AcDbEntity
  8
engrave
  6
Continuous
370
    70
100
AcDb2dPolyline
 66
     1
 10
0.0
 20
0.0
 30
0.0
  0
VERTEX
  5
2020E69
330
2020E68
100
AcDbEntity
  8
engrave
  6
Continuous
370
    70
100
AcDbVertex
100
AcDb2dVertex
 10
-0.4050000000000011
 20
-24.0
 30
0.0
  0
VERTEX
  5
2020E6A
330
2020E68
100
AcDbEntity
  8
engrave
  6
Continuous
370
    70
100
AcDbVertex
100
AcDb2dVertex
 10
-0.4499999999999993
 20
-23.94
 30
0.0
  0
VERTEX
  5
2020E6B
330
2020E68
100
AcDbEntity
  8
engrave
  6
Continuous
370
    70
100
AcDbVertex
100
AcDb2dVertex
 10
-0.5100000000000016
 20
-23.895
 30
0.0
  0
VERTEX
  5
2020E6C
330
2020E68
100
AcDbEntity
  8
engrave
  6
Continuous
370
    70
100
AcDbVertex
100
AcDb2dVertex
 10
-0.5549999999999997
 20
-23.88
 30
0.0
  0
VERTEX
  5
2020E6D
330
2020E68
100
AcDbEntity
  8
engrave
  6
Continuous
370
    70
100
AcDbVertex
100
AcDb2dVertex
 10
-0.6600000000000001
 20
-23.88
 30
0.0
  0
VERTEX
  5
2020E6E
330
2020E68
100
AcDbEntity
  8
engrave
  6
Continuous
370
    70
100
AcDbVertex
100
AcDb2dVertex
 10
-0.7349999999999994
 20
-23.91
 30
0.0
  0
VERTEX
  5
2020E6F
330
2020E68
100
AcDbEntity
  8
engrave
  6
Continuous
370
    70
100
AcDbVertex
100
AcDb2dVertex
 10
-0.7950000000000017
 20
-23.97
 30
0.0
  0
VERTEX
  5
2020E70
330
2020E68
100
AcDbEntity
  8
engrave
  6
Continuous
370
    70
100
AcDbVertex
100
AcDb2dVertex
 10
-0.8399999999999999
 20
-24.06
 30
0.0
  0
VERTEX
  5
2020E71
330
2020E68
100
AcDbEntity
  8
engrave
  6
Continuous
370
    70
100
AcDbVertex
100
AcDb2dVertex
 10
-0.8399999999999999
 20
-24.165
 30
0.0
  0
VERTEX
  5
2020E72
330
2020E68
100
AcDbEntity
  8
engrave
  6
Continuous
370
    70
100
AcDbVertex
100
AcDb2dVertex
 10
-0.8099999999999987
 20
-24.255
 30
0.0
  0
VERTEX
  5
2020E73
330
2020E68
100
AcDbEntity
  8
engrave
  6
Continuous
370
    70
100
AcDbVertex
100
AcDb2dVertex
 10
-0.75
 20
-24.33
 30
0.0
  0
VERTEX
  5
2020E74
330
2020E68
100
AcDbEntity
  8
engrave
  6
Continuous
370
    70
100
AcDbVertex
100
AcDb2dVertex
 10
-0.6600000000000001
 20
-24.375
 30
0.0
  0
VERTEX
  5
2020E75
330
2020E68
100
AcDbEntity
  8
engrave
  6
Continuous
370
    70
100
AcDbVertex
100
AcDb2dVertex
 10
-0.5549999999999997
 20
-24.375
 30
0.0
  0
VERTEX
  5
2020E76
330
2020E68
100
AcDbEntity
  8
engrave
  6
Continuous
370
    70
100
AcDbVertex
100
AcDb2dVertex
 10
-0.4800000000000004
 20
-24.345
 30
0.0
  0
VERTEX
  5
2020E77
330
2020E68
100
AcDbEntity
  8
engrave
  6
Continuous
370
    70
100
AcDbVertex
100
AcDb2dVertex
 10
-0.4349999999999987
 20
-24.3
 30
0.0
  0
VERTEX
  5
2020E78
330
2020E68
100
AcDbEntity
  8
engrave
  6
Continuous
370
    70
100
AcDbVertex
100
AcDb2dVertex
 10
-0.4050000000000011
 20
-24.255
 30
0.0
  0
SEQEND
  5
2020E79
330
2020E68
100
AcDbEntity
  8
engrave
  6
Continuous
370
    70
  0
LINE
  5
2020E7A
330
1F
100
AcDbEntity
  8
engrave
  6
Continuous
370
    70
100
AcDbLine
 10
-1.02
 20
-23.745
 30
0.0
 11
-1.02
 21
-23.655
 31
0.0
  0
LINE
  5
2020E7B
330
1F
100
AcDbEntity
  8
engrave
  6
Continuous
370
    70
100
AcDbLine
 10
-1.02
 20
-24.375
 30
0.0
 11
-1.02
 21
-23.88
 31
0.0
  0
POLYLINE
  5
2020E7C
330
1F
100
AcDbEntity
  8
engrave
  6
Continuous
370
    70
100
AcDb2dPolyline
 66
     1
 10
0.0
 20
0.0
 30
0.0
  0
VERTEX
  5
2020E7D
330
2020E7C
100
AcDbEntity
  8
engrave
  6
Continuous
370
    70
100
AcDbVertex
100
AcDb2dVertex
 10
-1.649999999999999
 20
-23.88
 30
0.0
  0
VERTEX
  5
2020E7E
330
2020E7C
100
AcDbEntity
  8
engrave
  6
Continuous
370
    70
100
AcDbVertex
100
AcDb2dVertex
 10
-1.425000000000001
 20
-24.375
 30
0.0
  0
VERTEX
  5
2020E7F
330
2020E7C
100
AcDbEntity
  8
engrave
  6
Continuous
370
    70
100
AcDbVertex
100
AcDb2dVertex
 10
-1.199999999999999
 20
-23.88
 30
0.0
  0
SEQEND
  5
2020E80
330
2020E7C
100
AcDbEntity
  8
engrave
  6
Continuous
370
    70
  0
POLYLINE
  5
2020E81
330
1F
100
AcDbEntity
  8
engrave
  6
Continuous
370
    70
100
AcDb2dPolyline
 66
     1
 10
0.0
 20
0.0
 30
0.0
  0
VERTEX
  5
2020E82
330
2020E81
100
AcDbEntity
  8
engrave
  6
Continuous
370
    70
100
AcDbVertex
100
AcDb2dVertex
 10
-2.265000000000001
 20
-24.12
 30
0.0
  0
VERTEX
  5
2020E83
330
2020E81
100
AcDbEntity
  8
engrave
  6
Continuous
370
    70
100
AcDbVertex
100
AcDb2dVertex
 10
-1.829999999999998
 20
-24.12
 30
0.0
  0
VERTEX
  5
2020E84
330
2020E81
100
AcDbEntity
  8
engrave
  6
Continuous
370
    70
100
AcDbVertex
100
AcDb2dVertex
 10
-1.829999999999998
 20
-24.06
 30
0.0
  0
VERTEX
  5
2020E85
330
2020E81
100
AcDbEntity
  8
engrave
  6
Continuous
370
    70
100
AcDbVertex
100
AcDb2dVertex
 10
-1.844999999999999
 20
-24.0
 30
0.0
  0
VERTEX
  5
2020E86
330
2020E81
100
AcDbEntity
  8
engrave
  6
Continuous
370
    70
100
AcDbVertex
100
AcDb2dVertex
 10
-1.875
 20
-23.94
 30
0.0
  0
SEQEND
  5
2020E87
330
2020E81
100
AcDbEntity
  8
engrave
  6
Continuous
370
    70
  0
POLYLINE
  5
2020E88
330
1F
100
AcDbEntity
  8
engrave
  6
Continuous
370
    70
100
AcDb2dPolyline
 66
     1
 10
0.0
 20
0.0
 30
0.0
  0
VERTEX
  5
2020E89
330
2020E88
100
AcDbEntity
  8
engrave
  6
Continuous
370
    70
100
AcDbVertex
100
AcDb2dVertex
 10
-1.875
 20
-23.94
 30
0.0
  0
VERTEX
  5
2020E8A
330
2020E88
100
AcDbEntity
  8
engrave
  6
Continuous
370
    70
100
AcDbVertex
100
AcDb2dVertex
 10
-1.934999999999999
 20
-23.895
 30
0.0
  0
VERTEX
  5
2020E8B
330
2020E88
100
AcDbEntity
  8
engrave
  6
Continuous
370
    70
100
AcDbVertex
100
AcDb2dVertex
 10
-1.98
 20
-23.88
 30
0.0
  0
VERTEX
  5
2020E8C
330
2020E88
100
AcDbEntity
  8
engrave
  6
Continuous
370
    70
100
AcDbVertex
100
AcDb2dVertex
 10
-2.085000000000001
 20
-23.88
 30
0.0
  0
VERTEX
  5
2020E8D
330
2020E88
100
AcDbEntity
  8
engrave
  6
Continuous
370
    70
100
AcDbVertex
100
AcDb2dVertex
 10
-2.16
 20
-23.91
 30
0.0
  0
VERTEX
  5
2020E8E
330
2020E88
100
AcDbEntity
  8
engrave
  6
Continuous
370
    70
100
AcDbVertex
100
AcDb2dVertex
 10
-2.219999999999999
 20
-23.97
 30
0.0
  0
VERTEX
  5
2020E8F
330
2020E88
100
AcDbEntity
  8
engrave
  6
Continuous
370
    70
100
AcDbVertex
100
AcDb2dVertex
 10
-2.265000000000001
 20
-24.06
 30
0.0
  0
VERTEX
  5
2020E90
330
2020E88
100
AcDbEntity
  8
engrave
  6
Continuous
370
    70
100
AcDbVertex
100
AcDb2dVertex
 10
-2.265000000000001
 20
-24.165
 30
0.0
  0
VERTEX
  5
2020E91
330
2020E88
100
AcDbEntity
  8
engrave
  6
Continuous
370
    70
100
AcDbVertex
100
AcDb2dVertex
 10
-2.234999999999999
 20
-24.255
 30
0.0
  0
VERTEX
  5
2020E92
330
2020E88
100
AcDbEntity
  8
engrave
  6
Continuous
370
    70
100
AcDbVertex
100
AcDb2dVertex
 10
-2.175000000000001
 20
-24.33
 30
0.0
  0
VERTEX
  5
2020E93
330
2020E88
100
AcDbEntity
  8
engrave
  6
Continuous
370
    70
100
AcDbVertex
100
AcDb2dVertex
 10
-2.085000000000001
 20
-24.375
 30
0.0
  0
VERTEX
  5
2020E94
330
2020E88
100
AcDbEntity
  8
engrave
  6
Continuous
370
    70
100
AcDbVertex
100
AcDb2dVertex
 10
-1.98
 20
-24.375
 30
0.0
  0
VERTEX
  5
2020E95
330
2020E88
100
AcDbEntity
  8
engrave
  6
Continuous
370
    70
100
AcDbVertex
100
AcDb2dVertex
 10
-1.905000000000001
 20
-24.345
 30
0.0
  0
VERTEX
  5
2020E96
330
2020E88
100
AcDbEntity
  8
engrave
  6
Continuous
370
    70
100
AcDbVertex
100
AcDb2dVertex
 10
-1.859999999999999
 20
-24.3
 30
0.0
  0
VERTEX
  5
2020E97
330
2020E88
100
AcDbEntity
  8
engrave
  6
Continuous
370
    70
100
AcDbVertex
100
AcDb2dVertex
 10
-1.829999999999998
 20
-24.255
 30
0.0
  0
SEQEND
  5
2020E98
330
2020E88
100
AcDbEntity
  8
engrave
  6
Continuous
370
    70
  0
POLYLINE
  5
2020E99
330
1F
100
AcDbEntity
  8
engrave
  6
Continuous
370
    70
100
AcDb2dPolyline
 66
     1
 10
0.0
 20
0.0
 30
0.0
 70
     1
  0
VERTEX
  5
2020E9A
330
2020E99
100
AcDbEntity
  8
engrave
  6
Continuous
370
    70
100
AcDbVertex
100
AcDb2dVertex
 10
-2.940000000000001
 20
-23.625
 30
0.0
  0
VERTEX
  5
2020E9B
330
2020E99
100
AcDbEntity
  8
engrave
  6
Continuous
370
    70
100
AcDbVertex
100
AcDb2dVertex
 10
-2.684999999999999
 20
-23.625
 30
0.0
  0
VERTEX
  5
2020E9C
330
2020E99
100
AcDbEntity
  8
engrave
  6
Continuous
370
    70
100
AcDbVertex
100
AcDb2dVertex
 10
-2.594999999999999
 20
-23.655
 30
0.0
  0
VERTEX
  5
2020E9D
330
2020E99
100
AcDbEntity
  8
engrave
  6
Continuous
370
    70
100
AcDbVertex
100
AcDb2dVertex
 10
-2.504999999999999
 20
-23.73
 30
0.0
  0
VERTEX
  5
2020E9E
330
2020E99
100
AcDbEntity
  8
engrave
  6
Continuous
370
    70
100
AcDbVertex
100
AcDb2dVertex
 10
-2.445
 20
-23.91
 30
0.0
  0
VERTEX
  5
2020E9F
330
2020E99
100
AcDbEntity
  8
engrave
  6
Continuous
370
    70
100
AcDbVertex
100
AcDb2dVertex
 10
-2.445
 20
-24.09
 30
0.0
  0
VERTEX
  5
2020EA0
330
2020E99
100
AcDbEntity
  8
engrave
  6
Continuous
370
    70
100
AcDbVertex
100
AcDb2dVertex
 10
-2.504999999999999
 20
-24.255
 30
0.0
  0
VERTEX
  5
2020EA1
330
2020E99
100
AcDbEntity
  8
engrave
  6
Continuous
370
    70
100
AcDbVertex
100
AcDb2dVertex
 10
-2.594999999999999
 20
-24.345
 30
0.0
  0
VERTEX
  5
2020EA2
330
2020E99
100
AcDbEntity
  8
engrave
  6
Continuous
370
    70
100
AcDbVertex
100
AcDb2dVertex
 10
-2.684999999999999
 20
-24.375
 30
0.0
  0
VERTEX
  5
2020EA3
330
2020E99
100
AcDbEntity
  8
engrave
  6
Continuous
370
    70
100
AcDbVertex
100
AcDb2dVertex
 10
-2.940000000000001
 20
-24.375
 30
0.0
  0
SEQEND
  5
2020EA4
330
2020E99
100
AcDbEntity
  8
engrave
  6
Continuous
370
    70
  0
LINE
  5
2020EA5
330
1F
100
AcDbEntity
  8
engrave
  6
Continuous
370
    70
100
AcDbLine
 10
2.122730866192498
 20
-25.614187541303
 30
0.0
 11
2.602730866192498
 21
-25.614187541303
 31
0.0
  0
POLYLINE
  5
2020EA6
330
1F
100
AcDbEntity
  8
engrave
  6
Continuous
370
    70
100
AcDb2dPolyline
 66
     1
 10
0.0
 20
0.0
 30
0.0
  0
VERTEX
  5
2020EA7
330
2020EA6
100
AcDbEntity
  8
engrave
  6
Continuous
370
    70
100
AcDbVertex
100
AcDb2dVertex
 10
2.392730866192501
 20
-24.864187541303
 30
0.0
  0
VERTEX
  5
2020EA8
330
2020EA6
100
AcDbEntity
  8
engrave
  6
Continuous
370
    70
100
AcDbVertex
100
AcDb2dVertex
 10
2.287730866192501
 20
-24.969187541303
 30
0.0
  0
VERTEX
  5
2020EA9
330
2020EA6
100
AcDbEntity
  8
engrave
  6
Continuous
370
    70
100
AcDbVertex
100
AcDb2dVertex
 10
2.197730866192501
 20
-25.014187541303
 30
0.0
  0
SEQEND
  5
2020EAA
330
2020EA6
100
AcDbEntity
  8
engrave
  6
Continuous
370
    70
  0
LINE
  5
2020EAB
330
1F
100
AcDbEntity
  8
engrave
  6
Continuous
370
    70
100
AcDbLine
 10
2.392730866192501
 20
-24.864187541303
 30
0.0
 11
2.392730866192501
 21
-25.614187541303
 31
0.0
  0
POLYLINE
  5
2020EAC
330
1F
100
AcDbEntity
  8
engrave
  6
Continuous
370
    70
100
AcDb2dPolyline
 66
     1
 10
0.0
 20
0.0
 30
0.0
 70
     1
  0
VERTEX
  5
2020EAD
330
2020EAC
100
AcDbEntity
  8
engrave
  6
Continuous
370
    70
100
AcDbVertex
100
AcDb2dVertex
 10
1.7027308661925
 20
-24.864187541303
 30
0.0
  0
VERTEX
  5
2020EAE
330
2020EAC
100
AcDbEntity
  8
engrave
  6
Continuous
370
    70
100
AcDbVertex
100
AcDb2dVertex
 10
1.672730866192499
 20
-24.864187541303
 30
0.0
  0
VERTEX
  5
2020EAF
330
2020EAC
100
AcDbEntity
  8
engrave
  6
Continuous
370
    70
100
AcDbVertex
100
AcDb2dVertex
 10
1.597730866192499
 20
-24.879187541303
 30
0.0
  0
VERTEX
  5
2020EB0
330
2020EAC
100
AcDbEntity
  8
engrave
  6
Continuous
370
    70
100
AcDbVertex
100
AcDb2dVertex
 10
1.537730866192501
 20
-24.924187541303
 30
0.0
  0
VERTEX
  5
2020EB1
330
2020EAC
100
AcDbEntity
  8
engrave
  6
Continuous
370
    70
100
AcDbVertex
100
AcDb2dVertex
 10
1.492730866192499
 20
-24.99918754130301
 30
0.0
  0
VERTEX
  5
2020EB2
330
2020EAC
100
AcDbEntity
  8
engrave
  6
Continuous
370
    70
100
AcDbVertex
100
AcDb2dVertex
 10
1.477730866192498
 20
-25.059187541303
 30
0.0
  0
VERTEX
  5
2020EB3
330
2020EAC
100
AcDbEntity
  8
engrave
  6
Continuous
370
    70
100
AcDbVertex
100
AcDb2dVertex
 10
1.462730866192501
 20
-25.134187541303
 30
0.0
  0
VERTEX
  5
2020EB4
330
2020EAC
100
AcDbEntity
  8
engrave
  6
Continuous
370
    70
100
AcDbVertex
100
AcDb2dVertex
 10
1.462730866192501
 20
-25.239187541303
 30
0.0
  0
VERTEX
  5
2020EB5
330
2020EAC
100
AcDbEntity
  8
engrave
  6
Continuous
370
    70
100
AcDbVertex
100
AcDb2dVertex
 10
1.462730866192501
 20
-25.344187541303
 30
0.0
  0
VERTEX
  5
2020EB6
330
2020EAC
100
AcDbEntity
  8
engrave
  6
Continuous
370
    70
100
AcDbVertex
100
AcDb2dVertex
 10
1.477730866192498
 20
-25.419187541303
 30
0.0
  0
VERTEX
  5
2020EB7
330
2020EAC
100
AcDbEntity
  8
engrave
  6
Continuous
370
    70
100
AcDbVertex
100
AcDb2dVertex
 10
1.492730866192499
 20
-25.479187541303
 30
0.0
  0
VERTEX
  5
2020EB8
330
2020EAC
100
AcDbEntity
  8
engrave
  6
Continuous
370
    70
100
AcDbVertex
100
AcDb2dVertex
 10
1.537730866192501
 20
-25.554187541303
 30
0.0
  0
VERTEX
  5
2020EB9
330
2020EAC
100
AcDbEntity
  8
engrave
  6
Continuous
370
    70
100
AcDbVertex
100
AcDb2dVertex
 10
1.597730866192499
 20
-25.599187541303
 30
0.0
  0
VERTEX
  5
2020EBA
330
2020EAC
100
AcDbEntity
  8
engrave
  6
Continuous
370
    70
100
AcDbVertex
100
AcDb2dVertex
 10
1.672730866192499
 20
-25.614187541303
 30
0.0
  0
VERTEX
  5
2020EBB
330
2020EAC
100
AcDbEntity
  8
engrave
  6
Continuous
370
    70
100
AcDbVertex
100
AcDb2dVertex
 10
1.7027308661925
 20
-25.614187541303
 30
0.0
  0
VERTEX
  5
2020EBC
330
2020EAC
100
AcDbEntity
  8
engrave
  6
Continuous
370
    70
100
AcDbVertex
100
AcDb2dVertex
 10
1.732730866192501
 20
-25.614187541303
 30
0.0
  0
VERTEX
  5
2020EBD
330
2020EAC
100
AcDbEntity
  8
engrave
  6
Continuous
370
    70
100
AcDbVertex
100
AcDb2dVertex
 10
1.8077308661925
 20
-25.599187541303
 30
0.0
  0
VERTEX
  5
2020EBE
330
2020EAC
100
AcDbEntity
  8
engrave
  6
Continuous
370
    70
100
AcDbVertex
100
AcDb2dVertex
 10
1.867730866192499
 20
-25.554187541303
 30
0.0
  0
VERTEX
  5
2020EBF
330
2020EAC
100
AcDbEntity
  8
engrave
  6
Continuous
370
    70
100
AcDbVertex
100
AcDb2dVertex
 10
1.912730866192501
 20
-25.479187541303
 30
0.0
  0
VERTEX
  5
2020EC0
330
2020EAC
100
AcDbEntity
  8
engrave
  6
Continuous
370
    70
100
AcDbVertex
100
AcDb2dVertex
 10
1.927730866192501
 20
-25.419187541303
 30
0.0
  0
VERTEX
  5
2020EC1
330
2020EAC
100
AcDbEntity
  8
engrave
  6
Continuous
370
    70
100
AcDbVertex
100
AcDb2dVertex
 10
1.942730866192498
 20
-25.344187541303
 30
0.0
  0
VERTEX
  5
2020EC2
330
2020EAC
100
AcDbEntity
  8
engrave
  6
Continuous
370
    70
100
AcDbVertex
100
AcDb2dVertex
 10
1.942730866192498
 20
-25.239187541303
 30
0.0
  0
VERTEX
  5
2020EC3
330
2020EAC
100
AcDbEntity
  8
engrave
  6
Continuous
370
    70
100
AcDbVertex
100
AcDb2dVertex
 10
1.942730866192498
 20
-25.134187541303
 30
0.0
  0
VERTEX
  5
2020EC4
330
2020EAC
100
AcDbEntity
  8
engrave
  6
Continuous
370
    70
100
AcDbVertex
100
AcDb2dVertex
 10
1.927730866192501
 20
-25.059187541303
 30
0.0
  0
VERTEX
  5
2020EC5
330
2020EAC
100
AcDbEntity
  8
engrave
  6
Continuous
370
    70
100
AcDbVertex
100
AcDb2dVertex
 10
1.912730866192501
 20
-24.99918754130301
 30
0.0
  0
VERTEX
  5
2020EC6
330
2020EAC
100
AcDbEntity
  8
engrave
  6
Continuous
370
    70
100
AcDbVertex
100
AcDb2dVertex
 10
1.867730866192499
 20
-24.924187541303
 30
0.0
  0
VERTEX
  5
2020EC7
330
2020EAC
100
AcDbEntity
  8
engrave
  6
Continuous
370
    70
100
AcDbVertex
100
AcDb2dVertex
 10
1.8077308661925
 20
-24.879187541303
 30
0.0
  0
VERTEX
  5
2020EC8
330
2020EAC
100
AcDbEntity
  8
engrave
  6
Continuous
370
    70
100
AcDbVertex
100
AcDb2dVertex
 10
1.732730866192501
 20
-24.864187541303
 30
0.0
  0
SEQEND
  5
2020EC9
330
2020EAC
100
AcDbEntity
  8
engrave
  6
Continuous
370
    70
  0
LINE
  5
2020ECA
330
1F
100
AcDbEntity
  8
engrave
  6
Continuous
370
    70
100
AcDbLine
 10
0.8027308661925012
 20
-25.28418754130301
 30
0.0
 11
1.282730866192502
 21
-25.28418754130301
 31
0.0
  0
POLYLINE
  5
2020ECB
330
1F
100
AcDbEntity
  8
engrave
  6
Continuous
370
    70
100
AcDb2dPolyline
 66
     1
 10
0.0
 20
0.0
 30
0.0
  0
VERTEX
  5
2020ECC
330
2020ECB
100
AcDbEntity
  8
engrave
  6
Continuous
370
    70
100
AcDbVertex
100
AcDb2dVertex
 10
0.1427308661925011
 20
-24.864187541303
 30
0.0
  0
VERTEX
  5
2020ECD
330
2020ECB
100
AcDbEntity
  8
engrave
  6
Continuous
370
    70
100
AcDbVertex
100
AcDb2dVertex
 10
0.6227308661925015
 20
-24.864187541303
 30
0.0
  0
VERTEX
  5
2020ECE
330
2020ECB
100
AcDbEntity
  8
engrave
  6
Continuous
370
    70
100
AcDbVertex
100
AcDb2dVertex
 10
0.2777308661924991
 20
-25.614187541303
 30
0.0
  0
SEQEND
  5
2020ECF
330
2020ECB
100
AcDbEntity
  8
engrave
  6
Continuous
370
    70
  0
LINE
  5
2020ED0
330
1F
100
AcDbEntity
  8
engrave
  6
Continuous
370
    70
100
AcDbLine
 10
-0.5172691338074991
 20
-25.614187541303
 30
0.0
 11
-0.0372691338074986
 21
-25.614187541303
 31
0.0
  0
POLYLINE
  5
2020ED1
330
1F
100
AcDbEntity
  8
engrave
  6
Continuous
370
    70
100
AcDb2dPolyline
 66
     1
 10
0.0
 20
0.0
 30
0.0
  0
VERTEX
  5
2020ED2
330
2020ED1
100
AcDbEntity
  8
engrave
  6
Continuous
370
    70
100
AcDbVertex
100
AcDb2dVertex
 10
-0.2472691338074995
 20
-24.864187541303
 30
0.0
  0
VERTEX
  5
2020ED3
330
2020ED1
100
AcDbEntity
  8
engrave
  6
Continuous
370
    70
100
AcDbVertex
100
AcDb2dVertex
 10
-0.3522691338074999
 20
-24.969187541303
 30
0.0
  0
VERTEX
  5
2020ED4
330
2020ED1
100
AcDbEntity
  8
engrave
  6
Continuous
370
    70
100
AcDbVertex
100
AcDb2dVertex
 10
-0.4422691338074998
 20
-25.014187541303
 30
0.0
  0
SEQEND
  5
2020ED5
330
2020ED1
100
AcDbEntity
  8
engrave
  6
Continuous
370
    70
  0
LINE
  5
2020ED6
330
1F
100
AcDbEntity
  8
engrave
  6
Continuous
370
    70
100
AcDbLine
 10
-0.2472691338074995
 20
-24.864187541303
 30
0.0
 11
-0.2472691338074995
 21
-25.614187541303
 31
0.0
  0
POLYLINE
  5
2020ED7
330
1F
100
AcDbEntity
  8
engrave
  6
Continuous
370
    70
100
AcDb2dPolyline
 66
     1
 10
0.0
 20
0.0
 30
0.0
 70
     1
  0
VERTEX
  5
2020ED8
330
2020ED7
100
AcDbEntity
  8
engrave
  6
Continuous
370
    70
100
AcDbVertex
100
AcDb2dVertex
 10
-0.9372691338075008
 20
-24.864187541303
 30
0.0
  0
VERTEX
  5
2020ED9
330
2020ED7
100
AcDbEntity
  8
engrave
  6
Continuous
370
    70
100
AcDbVertex
100
AcDb2dVertex
 10
-0.9672691338074983
 20
-24.864187541303
 30
0.0
  0
VERTEX
  5
2020EDA
330
2020ED7
100
AcDbEntity
  8
engrave
  6
Continuous
370
    70
100
AcDbVertex
100
AcDb2dVertex
 10
-1.042269133807501
 20
-24.879187541303
 30
0.0
  0
VERTEX
  5
2020EDB
330
2020ED7
100
AcDbEntity
  8
engrave
  6
Continuous
370
    70
100
AcDbVertex
100
AcDb2dVertex
 10
-1.1022691338075
 20
-24.924187541303
 30
0.0
  0
VERTEX
  5
2020EDC
330
2020ED7
100
AcDbEntity
  8
engrave
  6
Continuous
370
    70
100
AcDbVertex
100
AcDb2dVertex
 10
-1.147269133807498
 20
-24.99918754130301
 30
0.0
  0
VERTEX
  5
2020EDD
330
2020ED7
100
AcDbEntity
  8
engrave
  6
Continuous
370
    70
100
AcDbVertex
100
AcDb2dVertex
 10
-1.162269133807499
 20
-25.059187541303
 30
0.0
  0
VERTEX
  5
2020EDE
330
2020ED7
100
AcDbEntity
  8
engrave
  6
Continuous
370
    70
100
AcDbVertex
100
AcDb2dVertex
 10
-1.177269133807499
 20
-25.134187541303
 30
0.0
  0
VERTEX
  5
2020EDF
330
2020ED7
100
AcDbEntity
  8
engrave
  6
Continuous
370
    70
100
AcDbVertex
100
AcDb2dVertex
 10
-1.177269133807499
 20
-25.239187541303
 30
0.0
  0
VERTEX
  5
2020EE0
330
2020ED7
100
AcDbEntity
  8
engrave
  6
Continuous
370
    70
100
AcDbVertex
100
AcDb2dVertex
 10
-1.177269133807499
 20
-25.344187541303
 30
0.0
  0
VERTEX
  5
2020EE1
330
2020ED7
100
AcDbEntity
  8
engrave
  6
Continuous
370
    70
100
AcDbVertex
100
AcDb2dVertex
 10
-1.162269133807499
 20
-25.419187541303
 30
0.0
  0
VERTEX
  5
2020EE2
330
2020ED7
100
AcDbEntity
  8
engrave
  6
Continuous
370
    70
100
AcDbVertex
100
AcDb2dVertex
 10
-1.147269133807498
 20
-25.479187541303
 30
0.0
  0
VERTEX
  5
2020EE3
330
2020ED7
100
AcDbEntity
  8
engrave
  6
Continuous
370
    70
100
AcDbVertex
100
AcDb2dVertex
 10
-1.1022691338075
 20
-25.554187541303
 30
0.0
  0
VERTEX
  5
2020EE4
330
2020ED7
100
AcDbEntity
  8
engrave
  6
Continuous
370
    70
100
AcDbVertex
100
AcDb2dVertex
 10
-1.042269133807501
 20
-25.599187541303
 30
0.0
  0
VERTEX
  5
2020EE5
330
2020ED7
100
AcDbEntity
  8
engrave
  6
Continuous
370
    70
100
AcDbVertex
100
AcDb2dVertex
 10
-0.9672691338074983
 20
-25.614187541303
 30
0.0
  0
VERTEX
  5
2020EE6
330
2020ED7
100
AcDbEntity
  8
engrave
  6
Continuous
370
    70
100
AcDbVertex
100
AcDb2dVertex
 10
-0.9372691338075008
 20
-25.614187541303
 30
0.0
  0
VERTEX
  5
2020EE7
330
2020ED7
100
AcDbEntity
  8
engrave
  6
Continuous
370
    70
100
AcDbVertex
100
AcDb2dVertex
 10
-0.9072691338074996
 20
-25.614187541303
 30
0.0
  0
VERTEX
  5
2020EE8
330
2020ED7
100
AcDbEntity
  8
engrave
  6
Continuous
370
    70
100
AcDbVertex
100
AcDb2dVertex
 10
-0.8322691338075003
 20
-25.599187541303
 30
0.0
  0
VERTEX
  5
2020EE9
330
2020ED7
100
AcDbEntity
  8
engrave
  6
Continuous
370
    70
100
AcDbVertex
100
AcDb2dVertex
 10
-0.7722691338074981
 20
-25.554187541303
 30
0.0
  0
VERTEX
  5
2020EEA
330
2020ED7
100
AcDbEntity
  8
engrave
  6
Continuous
370
    70
100
AcDbVertex
100
AcDb2dVertex
 10
-0.7272691338074999
 20
-25.479187541303
 30
0.0
  0
VERTEX
  5
2020EEB
330
2020ED7
100
AcDbEntity
  8
engrave
  6
Continuous
370
    70
100
AcDbVertex
100
AcDb2dVertex
 10
-0.7122691338074993
 20
-25.419187541303
 30
0.0
  0
VERTEX
  5
2020EEC
330
2020ED7
100
AcDbEntity
  8
engrave
  6
Continuous
370
    70
100
AcDbVertex
100
AcDb2dVertex
 10
-0.6972691338074988
 20
-25.344187541303
 30
0.0
  0
VERTEX
  5
2020EED
330
2020ED7
100
AcDbEntity
  8
engrave
  6
Continuous
370
    70
100
AcDbVertex
100
AcDb2dVertex
 10
-0.6972691338074988
 20
-25.239187541303
 30
0.0
  0
VERTEX
  5
2020EEE
330
2020ED7
100
AcDbEntity
  8
engrave
  6
Continuous
370
    70
100
AcDbVertex
100
AcDb2dVertex
 10
-0.6972691338074988
 20
-25.134187541303
 30
0.0
  0
VERTEX
  5
2020EEF
330
2020ED7
100
AcDbEntity
  8
engrave
  6
Continuous
370
    70
100
AcDbVertex
100
AcDb2dVertex
 10
-0.7122691338074993
 20
-25.059187541303
 30
0.0
  0
VERTEX
  5
2020EF0
330
2020ED7
100
AcDbEntity
  8
engrave
  6
Continuous
370
    70
100
AcDbVertex
100
AcDb2dVertex
 10
-0.7272691338074999
 20
-24.99918754130301
 30
0.0
  0
VERTEX
  5
2020EF1
330
2020ED7
100
AcDbEntity
  8
engrave
  6
Continuous
370
    70
100
AcDbVertex
100
AcDb2dVertex
 10
-0.7722691338074981
 20
-24.924187541303
 30
0.0
  0
VERTEX
  5
2020EF2
330
2020ED7
100
AcDbEntity
  8
engrave
  6
Continuous
370
    70
100
AcDbVertex
100
AcDb2dVertex
 10
-0.8322691338075003
 20
-24.879187541303
 30
0.0
  0
VERTEX
  5
2020EF3
330
2020ED7
100
AcDbEntity
  8
engrave
  6
Continuous
370
    70
100
AcDbVertex
100
AcDb2dVertex
 10
-0.9072691338074996
 20
-24.864187541303
 30
0.0
  0
SEQEND
  5
2020EF4
330
2020ED7
100
AcDbEntity
  8
engrave
  6
Continuous
370
    70
  0
POLYLINE
  5
2020EF5
330
1F
100
AcDbEntity
  8
engrave
  6
Continuous
370
    70
100
AcDb2dPolyline
 66
     1
 10
0.0
 20
0.0
 30
0.0
  0
VERTEX
  5
2020EF6
330
2020EF5
100
AcDbEntity
  8
engrave
  6
Continuous
370
    70
100
AcDbVertex
100
AcDb2dVertex
 10
-1.807269133807498
 20
-25.044187541303
 30
0.0
  0
VERTEX
  5
2020EF7
330
2020EF5
100
AcDbEntity
  8
engrave
  6
Continuous
370
    70
100
AcDbVertex
100
AcDb2dVertex
 10
-1.807269133807498
 20
-25.014187541303
 30
0.0
  0
VERTEX
  5
2020EF8
330
2020EF5
100
AcDbEntity
  8
engrave
  6
Continuous
370
    70
100
AcDbVertex
100
AcDb2dVertex
 10
-1.792269133807501
 20
-24.954187541303
 30
0.0
  0
VERTEX
  5
2020EF9
330
2020EF5
100
AcDbEntity
  8
engrave
  6
Continuous
370
    70
100
AcDbVertex
100
AcDb2dVertex
 10
-1.732269133807499
 20
-24.894187541303
 30
0.0
  0
VERTEX
  5
2020EFA
330
2020EF5
100
AcDbEntity
  8
engrave
  6
Continuous
370
    70
100
AcDbVertex
100
AcDb2dVertex
 10
-1.6572691338075
 20
-24.864187541303
 30
0.0
  0
VERTEX
  5
2020EFB
330
2020EF5
100
AcDbEntity
  8
engrave
  6
Continuous
370
    70
100
AcDbVertex
100
AcDb2dVertex
 10
-1.507269133807501
 20
-24.864187541303
 30
0.0
  0
VERTEX
  5
2020EFC
330
2020EF5
100
AcDbEntity
  8
engrave
  6
Continuous
370
    70
100
AcDbVertex
100
AcDb2dVertex
 10
-1.432269133807498
 20
-24.90918754130301
 30
0.0
  0
VERTEX
  5
2020EFD
330
2020EF5
100
AcDbEntity
  8
engrave
  6
Continuous
370
    70
100
AcDbVertex
100
AcDb2dVertex
 10
-1.3872691338075
 20
-24.969187541303
 30
0.0
  0
VERTEX
  5
2020EFE
330
2020EF5
100
AcDbEntity
  8
engrave
  6
Continuous
370
    70
100
AcDbVertex
100
AcDb2dVertex
 10
-1.372269133807499
 20
-25.014187541303
 30
0.0
  0
VERTEX
  5
2020EFF
330
2020EF5
100
AcDbEntity
  8
engrave
  6
Continuous
370
    70
100
AcDbVertex
100
AcDb2dVertex
 10
-1.372269133807499
 20
-25.089187541303
 30
0.0
  0
VERTEX
  5
2020F00
330
2020EF5
100
AcDbEntity
  8
engrave
  6
Continuous
370
    70
100
AcDbVertex
100
AcDb2dVertex
 10
-1.402269133807501
 20
-25.149187541303
 30
0.0
  0
VERTEX
  5
2020F01
330
2020EF5
100
AcDbEntity
  8
engrave
  6
Continuous
370
    70
100
AcDbVertex
100
AcDb2dVertex
 10
-1.462269133807499
 20
-25.239187541303
 30
0.0
  0
VERTEX
  5
2020F02
330
2020EF5
100
AcDbEntity
  8
engrave
  6
Continuous
370
    70
100
AcDbVertex
100
AcDb2dVertex
 10
-1.837269133807499
 20
-25.614187541303
 30
0.0
  0
VERTEX
  5
2020F03
330
2020EF5
100
AcDbEntity
  8
engrave
  6
Continuous
370
    70
100
AcDbVertex
100
AcDb2dVertex
 10
-1.357269133807499
 20
-25.614187541303
 30
0.0
  0
SEQEND
  5
2020F04
330
2020EF5
100
AcDbEntity
  8
engrave
  6
Continuous
370
    70
  0
POLYLINE
  5
2020F05
330
1F
100
AcDbEntity
  8
engrave
  6
Continuous
370
    70
100
AcDb2dPolyline
 66
     1
 10
0.0
 20
0.0
 30
0.0
  0
VERTEX
  5
2020F06
330
2020F05
100
AcDbEntity
  8
engrave
  6
Continuous
370
    70
100
AcDbVertex
100
AcDb2dVertex
 10
-2.467269133807498
 20
-25.119187541303
 30
0.0
  0
VERTEX
  5
2020F07
330
2020F05
100
AcDbEntity
  8
engrave
  6
Continuous
370
    70
100
AcDbVertex
100
AcDb2dVertex
 10
-2.2422691338075
 20
-25.614187541303
 30
0.0
  0
VERTEX
  5
2020F08
330
2020F05
100
AcDbEntity
  8
engrave
  6
Continuous
370
    70
100
AcDbVertex
100
AcDb2dVertex
 10
-2.017269133807499
 20
-25.119187541303
 30
0.0
  0
SEQEND
  5
2020F09
330
2020F05
100
AcDbEntity
  8
engrave
  6
Continuous
370
    70
  0
VIEWPORT
  5
202006E
102
{ACAD_XDICTIONARY
360
202006F
102
}
330
1E
100
AcDbEntity
 67
     1
  8
0
  6
Continuous
100
AcDbViewport
 10
5.722083745040293
 20
4.008333223072559
 30
0.0
 40
21.82510742364959
 41
8.746133096049151
 68
     1
 69
     1
 12
5.722083745040293
 22
4.008333223072559
 13
0.0
 23
0.0
 14
10.0
 24
10.0
 15
10.0
 25
10.0
 16
0.0
 26
0.0
 36
1.0
 17
0.0
 27
0.0
 37
0.0
 42
50.0
 43
0.0
 44
0.0
 45
8.746133096049151
 50
0.0
 51
0.0
 72
   100
 90
   819232
  1

281
     0
 71
     1
 74
     0
110
0.0
120
0.0
130
0.0
111
1.0
121
0.0
131
0.0
112
0.0
122
1.0
132
0.0
 79
     0
146
0.0
170
     0
 61
     5
348
2020023
292
     1
282
     1
141
0.0
142
0.0
 63
   160
421
  3358443
  0
ENDSEC
  0
SECTION
  2
OBJECTS
  0
DICTIONARY
  5
C
330
0
100
AcDbDictionary
281
     1
  3
ACAD_BACKGROUND
350
2020B5F
  3
ACAD_CIP_PREVIOUS_PRODUCT_INFO
350
2020059
  3
ACAD_COLOR
350
2020036
  3
ACAD_DETAILVIEWSTYLE
350
2020051
  3
ACAD_GROUP
350
D
  3
ACAD_IMAGE_VARS
350
20202E5
  3
ACAD_LAYOUT
350
2020053
  3
ACAD_MATERIAL
350
2020004
  3
ACAD_MLEADERSTYLE
350
202004D
  3
ACAD_MLINESTYLE
350
2020039
  3
ACAD_PLOTSETTINGS
350
2020054
  3
ACAD_PLOTSTYLENAME
350
2020002
  3
ACAD_RENDER_ACTIVE_RAPIDRT_SETTINGS
350
2020061
  3
ACAD_RENDER_ACTIVE_SETTINGS
350
2020219
  3
ACAD_SCALELIST
350
202003B
  3
ACAD_SECTIONVIEWSTYLE
350
202004F
  3
ACAD_TABLESTYLE
350
2020037
  3
ACAD_VISUALSTYLE
350
202001D
  3
ACDB_RECOMPOSE_DATA
350
2020F11
  3
AcDbVariableDictionary
350
20201D2
  3
APPDATA
350
20202E3
  3
CENTERLINE
350
20208CB
  3
DimOffsetDictionary
350
20208C6
  0
SUN
  5
20202E4
330
31
100
AcDbSun
 90
        1
290
     1
 63
     7
421
 16777215
 40
1.0
291
     1
 91
  2455826
 92
 54000000
292
     0
 70
     0
 71
   256
280
     1
1001
ACAD
1000
AcDbSavedByObjectVersion
1070
     0
  0
DICTIONARY
  5
2020065
330
2
100
AcDbDictionary
280
     1
281
     1
  3
ACAD_LAYERSTATES
360
2020066
  3
ACLYDICTIONARY
360
2020B54
  0
DICTIONARY
  5
2020B77
330
10
100
AcDbDictionary
280
     1
281
     1
  3
ADSK_XREC_LAYER_RECONCILED
360
2020B78
  0
DICTIONARY
  5
2020B79
330
46
100
AcDbDictionary
280
     1
281
     1
  3
ADSK_XREC_LAYER_RECONCILED
360
2020B7A
  0
DICTIONARY
  5
20200B9
330
1F
100
AcDbDictionary
280
     1
281
     1
  3
ACAD_SORTENTS
360
20200BA
  0
DICTIONARY
  5
202006F
330
202006E
100
AcDbDictionary
280
     1
281
     1
  3
ASDK_XREC_ANNOTATION_SCALE_INFO
360
2020070
  0
DICTIONARY
  5
2020B5F
102
{ACAD_REACTORS
330
C
102
}
330
C
100
AcDbDictionary
281
     1
  0
XRECORD
  5
2020059
102
{ACAD_REACTORS
330
C
102
}
330
C
100
AcDbXrecord
280
     1
300
ACD
300
2017
300
ACD_F_S
  0
DICTIONARY
  5
2020036
102
{ACAD_REACTORS
330
C
102
}
330
C
100
AcDbDictionary
281
     1
  0
DICTIONARY
  5
2020051
102
{ACAD_REACTORS
330
C
102
}
330
C
100
AcDbDictionary
281
     1
  3
Imperial24
350
2020052
  0
DICTIONARY
  5
D
330
C
100
AcDbDictionary
281
     1
  0
RASTERVARIABLES
  5
20202E5
102
{ACAD_REACTORS
330
C
102
}
330
C
100
AcDbRasterVariables
 90
        0
 70
     1
 71
     1
 72
     0
  0
DICTIONARY
  5
2020053
102
{ACAD_REACTORS
330
C
102
}
330
C
100
AcDbDictionary
281
     1
  3
Layout1
350
2020056
  3
Model
350
2020055
  0
DICTIONARY
  5
2020004
102
{ACAD_REACTORS
330
C
102
}
330
C
100
AcDbDictionary
281
     1
  3
ByBlock
350
202000D
  3
ByLayer
350
2020005
  3
Global
350
2020015
  0
DICTIONARY
  5
202004D
102
{ACAD_REACTORS
330
C
102
}
330
C
100
AcDbDictionary
281
     1
  3
Standard
350
202004E
  0
DICTIONARY
  5
2020039
102
{ACAD_REACTORS
330
C
102
}
330
C
100
AcDbDictionary
281
     1
  3
Standard
350
202003A
  0
DICTIONARY
  5
2020054
102
{ACAD_REACTORS
330
C
102
}
330
C
100
AcDbDictionary
281
     1
  0
ACDBDICTIONARYWDFLT
  5
2020002
102
{ACAD_REACTORS
330
C
102
}
330
C
100
AcDbDictionary
281
     1
  3
Normal
350
2020003
100
AcDbDictionaryWithDefault
340
2020003
  0
RAPIDRTRENDERSETTINGS
  5
2020061
102
{ACAD_REACTORS
330
C
102
}
330
C
100
AcDbRenderSettings
 90
        2
  1
Medium
290
     1
290
     0
290
     1
290
     1
  1

  1
Applies 5 rendering levels
 90
        0
100
AcDbRapidRTRenderSettings
 90
        3
 70
     0
 90
        5
 90
        1
 70
     1
 70
     2
 40
3.0
 40
3.0
290
     1
  0
MENTALRAYRENDERSETTINGS
  5
2020219
102
{ACAD_REACTORS
330
C
102
}
102
{ACAD_XDICTIONARY
360
202021A
102
}
330
C
100
AcDbRenderSettings
 90
        2
  1
Medium
290
     1
290
     1
290
     1
290
     1
  1

  1

 90
        0
100
AcDbMentalRayRenderSettings
 90
        2
 90
        0
 90
        1
 70
     2
 40
3.0
 40
3.0
 40
0.0500000007450581
 40
0.0500000007450581
 40
0.0500000007450581
 40
0.0500000007450581
 70
     0
290
     0
290
     1
 90
        5
 90
        5
 90
        5
290
     0
 90
      500
290
     0
 40
1.0
 90
    10000
 90
        5
 90
        5
 90
        5
290
     0
 90
      200
290
     0
290
     0
290
     0
 40
1.0
 40
1.0
 40
1500.0
 70
     0
 70
     0
 40
10.0
 70
     0
 70
     0
290
     0
  1

 90
       32
 70
     0
 90
     1048
290
     0
 40
1.0
  0
DICTIONARY
  5
202003B
102
{ACAD_REACTORS
330
C
102
}
330
C
100
AcDbDictionary
281
     1
  3
A0
350
202003C
  3
A1
350
202003D
  3
A2
350
202003E
  3
A3
350
202003F
  3
A4
350
2020040
  3
A5
350
2020041
  3
A6
350
2020042
  3
A7
350
2020043
  3
A8
350
2020044
  3
A9
350
2020045
  3
B0
350
2020046
  3
B1
350
2020047
  3
B2
350
2020048
  3
B3
350
2020049
  3
B4
350
202004A
  3
B5
350
202004B
  3
B6
350
202004C
  0
DICTIONARY
  5
202004F
102
{ACAD_REACTORS
330
C
102
}
330
C
100
AcDbDictionary
281
     1
  3
Imperial24
350
2020050
  0
DICTIONARY
  5
2020037
102
{ACAD_REACTORS
330
C
102
}
330
C
100
AcDbDictionary
281
     1
  3
Standard
350
2020038
  0
DICTIONARY
  5
202001D
102
{ACAD_REACTORS
330
C
102
}
330
C
100
AcDbDictionary
281
     1
  3
*A1
350
20208C5
  3
2dWireframe
350
2020023
  3
Basic
350
2020022
  3
Brighten
350
2020029
  3
ColorChange
350
202002D
  3
Conceptual
350
2020026
  3
Dim
350
2020028
  3
EdgeColorOff
350
2020035
  3
Facepattern
350
202002C
  3
Flat
350
202001E
  3
FlatWithEdges
350
202001F
  3
Gouraud
350
2020020
  3
GouraudWithEdges
350
2020021
  3
Hidden
350
2020025
  3
JitterOff
350
2020033
  3
Linepattern
350
202002B
  3
OverhangOff
350
2020034
  3
Realistic
350
2020027
  3
Shaded
350
2020032
  3
Shaded with edges
350
2020031
  3
Shades of Gray
350
202002E
  3
Sketchy
350
202002F
  3
Thicken
350
202002A
  3
Wireframe
350
2020024
  3
X-Ray
350
2020030
  0
XRECORD
  5
2020F11
102
{ACAD_REACTORS
330
C
102
}
330
C
100
AcDbXrecord
280
     1
 90
        1
330
2020038
  0
DICTIONARY
  5
20201D2
102
{ACAD_REACTORS
330
C
102
}
330
C
100
AcDbDictionary
281
     1
  3
CANNOSCALE
350
20201D7
  3
CMLEADERSTYLE
350
20201D4
  3
CTABLESTYLE
350
20201D3
  3
CVIEWDETAILSTYLE
350
20201D5
  3
CVIEWSECTIONSTYLE
350
20201D6
  3
HPTRANSPARENCY
350
20208C4
  3
LAYEREVAL
350
2020B7B
  3
LAYERNOTIFY
350
2020B7C
  3
XCLIPFRAME
350
2020B7D
  0
DICTIONARY
  5
20202E3
102
{ACAD_REACTORS
330
C
102
}
330
C
100
AcDbDictionary
281
     1
  0
DICTIONARY
  5
20208CB
102
{ACAD_REACTORS
330
C
102
}
330
C
100
AcDbDictionary
281
     1
  3
CLEXTENSION
350
20208CC
  0
DICTIONARY
  5
20208C6
102
{ACAD_REACTORS
330
C
102
}
330
C
100
AcDbDictionary
281
     1
  3
DIMRAILANGLE
350
20208C9
  3
DIMRAILFIRSTOFFSET
350
20208C7
  3
DIMRAILOFFSET
350
20208C8
  3
DIMRAILSENABLED
350
20208CA
  0
DICTIONARY
  5
2020066
102
{ACAD_REACTORS
330
2020065
102
}
330
2020065
100
AcDbDictionary
281
     1
  0
DICTIONARY
  5
2020B54
102
{ACAD_REACTORS
330
2020065
102
}
330
2020065
100
AcDbDictionary
281
     1
1001
ACAD
1000
<All
  0
XRECORD
  5
2020B78
102
{ACAD_REACTORS
330
2020B77
102
}
330
2020B77
100
AcDbXrecord
280
     1
290
     1
  0
XRECORD
  5
2020B7A
102
{ACAD_REACTORS
330
2020B79
102
}
330
2020B79
100
AcDbXrecord
280
     1
290
     1
  0
SORTENTSTABLE
  5
20200BA
102
{ACAD_REACTORS
330
20200B9
102
}
330
20200B9
100
AcDbSortentsTable
330
1F
331
20208D5
  5
20208D5
331
20208F4
  5
20208F4
331
202090D
  5
202090D
331
202090E
  5
202090E
331
202090F
  5
202090F
331
2020914
  5
2020914
331
2020915
  5
2020915
331
2020916
  5
2020916
331
2020917
  5
2020917
331
2020918
  5
2020918
331
202091A
  5
202091A
331
2020A10
  5
2020A10
331
2020A11
  5
2020A11
331
2020A12
  5
2020A12
331
2020A13
  5
2020A13
331
2020A14
  5
2020A14
331
2020A15
  5
2020A15
331
2020A16
  5
2020A16
331
2020A17
  5
2020A17
331
2020A18
  5
2020A18
331
2020A19
  5
2020A19
331
2020A1A
  5
2020A1A
331
2020A53
  5
2020A53
331
2020A54
  5
2020A54
331
2020A55
  5
2020A55
331
2020A56
  5
2020A56
331
2020A57
  5
2020A57
331
2020A58
  5
2020A58
331
2020A59
  5
2020A59
331
2020A5A
  5
2020A5A
331
2020A5B
  5
2020A5B
331
2020A5C
  5
2020A5C
331
2020A5D
  5
2020A5D
331
2020A96
  5
2020A96
331
2020A97
  5
2020A97
331
2020A98
  5
2020A98
331
2020A99
  5
2020A99
331
2020A9A
  5
2020A9A
331
2020A9B
  5
2020A9B
331
2020A9C
  5
2020A9C
331
2020A9D
  5
2020A9D
331
2020A9E
  5
2020A9E
331
2020A9F
  5
2020A9F
331
2020AA0
  5
2020AA0
331
2020AD9
  5
2020AD9
331
2020ADA
  5
2020ADA
331
2020ADB
  5
2020ADB
331
2020ADC
  5
2020ADC
331
2020ADD
  5
2020ADD
331
2020ADE
  5
2020ADE
331
2020ADF
  5
2020ADF
331
2020AE0
  5
2020AE0
331
2020AE1
  5
2020AE1
331
2020AE2
  5
2020AE2
331
2020AE3
  5
2020AE3
331
2020B24
  5
2020B40
331
2020B25
  5
2020B6F
331
2020B29
  5
2020B70
331
2020B2A
  5
2020B71
331
2020B2B
  5
2020B72
331
2020B2C
  5
2020B73
331
2020B34
  5
2020B74
331
2020B3A
  5
2020B75
331
2020B40
  5
2020B76
331
2020B6F
  5
2020B1F
331
2020B70
  5
2020B1D
331
2020B71
  5
2020B3A
331
2020B72
  5
2020B2C
331
2020B73
  5
2020B2A
331
2020B74
  5
2020B25
331
2020B75
  5
2020B23
331
2020B76
  5
2020B21
  0
XRECORD
  5
2020070
102
{ACAD_REACTORS
330
202006F
102
}
330
202006F
100
AcDbXrecord
280
     1
 90
        1
340
202003C
  0
ACDBDETAILVIEWSTYLE
  5
2020052
102
{ACAD_REACTORS
330
2020051
102
}
102
{ACAD_XDICTIONARY
360
2020BB2
102
}
330
2020051
100
AcDbModelDocViewStyle
 70
     0
  3
Imperial24
290
     0
100
AcDbDetailViewStyle
 70
     0
 71
     0
 90
        3
 71
     1
340
4A
 62
   256
 40
0.24
340
0
 62
   256
 40
0.24
300

 40
0.36
280
     3
 71
     2
340
16
 90
       25
 62
   256
 71
     3
340
4A
 62
   256
 40
0.24
 90
        1
 40
0.75
 90
        1
300
%<\AcVar ViewType \f "%tc1">% %<\AcVar ViewDetailId>%\PSCALE %<\AcVar ViewScale \f "%sn">%
 71
     4
340
16
 90
       25
 62
   256
340
16
 90
       25
 62
   256
280
     0
  0
LAYOUT
  5
2020056
102
{ACAD_REACTORS
330
2020053
102
}
330
2020053
100
AcDbPlotSettings
  1

  2
Adobe PDF
  4
A4
  6

 40
3.174999952316282
 41
3.174999952316282
 42
3.175003051757812
 43
3.17498779296875
 44
209.9733276367186
 45
297.0318298339844
 46
0.0
 47
0.0
 48
0.0
 49
0.0
140
0.0
141
0.0
142
1.0
143
1.0
 70
   688
 72
     0
 73
     1
 74
     5
  7

 75
    16
 76
     0
 77
     2
 78
   300
147
1.0
148
0.0
149
0.0
100
AcDbLayout
  1
Layout1
 70
     1
 71
     1
 10
-0.1249995194082185
 20
-0.1249999981226883
 11
11.5691670094888
 21
8.141666444267809
 12
98.4729790903
 22
155.714703394
 32
0.0
 14
1.144416701136609
 24
0.8016666324119865
 34
0.0
 15
10.2997503102295
 25
7.214999691707879
 35
0.0
146
0.0
 13
0.0
 23
0.0
 33
0.0
 16
1.0
 26
0.0
 36
0.0
 17
0.0
 27
1.0
 37
0.0
 76
     0
330
1E
331
202006E
1001
ACAD_PSEXT
1000
Adobe PDF
1000
Adobe PDF Converter
1000
Documents\*.pdf
1000

1070
     0
  0
LAYOUT
  5
2020055
102
{ACAD_REACTORS
330
2020053
102
}
330
2020053
100
AcDbPlotSettings
  1

  2
Adobe PDF
  4

  6

 40
0.0
 41
0.0
 42
0.0
 43
0.0
 44
0.0
 45
0.0
 46
0.0
 47
0.0
 48
0.0
 49
0.0
140
0.0
141
0.0
142
1.0
143
1.0
 70
  1712
 72
     0
 73
     0
 74
     0
  7

 75
     0
 76
     0
 77
     2
 78
   300
147
1.0
148
0.0
149
0.0
100
AcDbLayout
  1
Model
 70
     1
 71
     0
 10
0.0
 20
0.0
 11
12.0
 21
9.0
 12
0.0
 22
0.0
 32
0.0
 14
-28.19999999999999
 24
-30.45000000000001
 34
0.0
 15
28.2
 25
30.45
 35
0.0
146
0.0
 13
0.0
 23
0.0
 33
0.0
 16
1.0
 26
0.0
 36
0.0
 17
0.0
 27
1.0
 37
0.0
 76
     0
330
1F
331
31
  0
MATERIAL
  5
202000D
102
{ACAD_REACTORS
330
2020004
102
}
330
2020004
100
AcDbMaterial
  1
ByBlock
 72
     0
 43
0.0208333333333333
 43
0.0
 43
0.0
 43
0.0
 43
0.0
 43
0.0208333333333333
 43
0.0
 43
0.0
 43
0.0
 43
0.0
 43
1.0
 43
0.0
 43
0.0
 43
0.0
 43
0.0
 43
1.0
 77
     0
 47
0.0208333333333333
 47
0.0
 47
0.0
 47
0.0
 47
0.0
 47
0.0208333333333333
 47
0.0
 47
0.0
 47
0.0
 47
0.0
 47
1.0
 47
0.0
 47
0.0
 47
0.0
 47
0.0
 47
1.0
171
     0
 49
0.0208333333333333
 49
0.0
 49
0.0
 49
0.0
 49
0.0
 49
0.0208333333333333
 49
0.0
 49
0.0
 49
0.0
 49
0.0
 49
1.0
 49
0.0
 49
0.0
 49
0.0
 49
0.0
 49
1.0
175
     0
142
0.0208333333333333
142
0.0
142
0.0
142
0.0
142
0.0
142
0.0208333333333333
142
0.0
142
0.0
142
0.0
142
0.0
142
1.0
142
0.0
142
0.0
142
0.0
142
0.0
142
1.0
179
     0
144
0.0208333333333333
144
0.0
144
0.0
144
0.0
144
0.0
144
0.0208333333333333
144
0.0
144
0.0
144
0.0
144
0.0
144
1.0
144
0.0
144
0.0
144
0.0
144
0.0
144
1.0
147
0.0208333333333333
147
0.0
147
0.0
147
0.0
147
0.0
147
0.0208333333333333
147
0.0
147
0.0
147
0.0
147
0.0
147
1.0
147
0.0
147
0.0
147
0.0
147
0.0
147
1.0
 94
      127
  0
MATERIAL
  5
2020005
102
{ACAD_REACTORS
330
2020004
102
}
330
2020004
100
AcDbMaterial
  1
ByLayer
 72
     0
 43
0.0208333333333333
 43
0.0
 43
0.0
 43
0.0
 43
0.0
 43
0.0208333333333333
 43
0.0
 43
0.0
 43
0.0
 43
0.0
 43
1.0
 43
0.0
 43
0.0
 43
0.0
 43
0.0
 43
1.0
 77
     0
 47
0.0208333333333333
 47
0.0
 47
0.0
 47
0.0
 47
0.0
 47
0.0208333333333333
 47
0.0
 47
0.0
 47
0.0
 47
0.0
 47
1.0
 47
0.0
 47
0.0
 47
0.0
 47
0.0
 47
1.0
171
     0
 49
0.0208333333333333
 49
0.0
 49
0.0
 49
0.0
 49
0.0
 49
0.0208333333333333
 49
0.0
 49
0.0
 49
0.0
 49
0.0
 49
1.0
 49
0.0
 49
0.0
 49
0.0
 49
0.0
 49
1.0
175
     0
142
0.0208333333333333
142
0.0
142
0.0
142
0.0
142
0.0
142
0.0208333333333333
142
0.0
142
0.0
142
0.0
142
0.0
142
1.0
142
0.0
142
0.0
142
0.0
142
0.0
142
1.0
179
     0
144
0.0208333333333333
144
0.0
144
0.0
144
0.0
144
0.0
144
0.0208333333333333
144
0.0
144
0.0
144
0.0
144
0.0
144
1.0
144
0.0
144
0.0
144
0.0
144
0.0
144
1.0
147
0.0208333333333333
147
0.0
147
0.0
147
0.0
147
0.0
147
0.0208333333333333
147
0.0
147
0.0
147
0.0
147
0.0
147
1.0
147
0.0
147
0.0
147
0.0
147
0.0
147
1.0
 94
      127
  0
MATERIAL
  5
2020015
102
{ACAD_REACTORS
330
2020004
102
}
330
2020004
100
AcDbMaterial
  1
Global
 72
     0
 43
0.0208333333333333
 43
0.0
 43
0.0
 43
0.0
 43
0.0
 43
0.0208333333333333
 43
0.0
 43
0.0
 43
0.0
 43
0.0
 43
1.0
 43
0.0
 43
0.0
 43
0.0
 43
0.0
 43
1.0
 77
     0
 47
0.0208333333333333
 47
0.0
 47
0.0
 47
0.0
 47
0.0
 47
0.0208333333333333
 47
0.0
 47
0.0
 47
0.0
 47
0.0
 47
1.0
 47
0.0
 47
0.0
 47
0.0
 47
0.0
 47
1.0
171
     0
 49
0.0208333333333333
 49
0.0
 49
0.0
 49
0.0
 49
0.0
 49
0.0208333333333333
 49
0.0
 49
0.0
 49
0.0
 49
0.0
 49
1.0
 49
0.0
 49
0.0
 49
0.0
 49
0.0
 49
1.0
175
     0
142
0.0208333333333333
142
0.0
142
0.0
142
0.0
142
0.0
142
0.0208333333333333
142
0.0
142
0.0
142
0.0
142
0.0
142
1.0
142
0.0
142
0.0
142
0.0
142
0.0
142
1.0
179
     0
144
0.0208333333333333
144
0.0
144
0.0
144
0.0
144
0.0
144
0.0208333333333333
144
0.0
144
0.0
144
0.0
144
0.0
144
1.0
144
0.0
144
0.0
144
0.0
144
0.0
144
1.0
147
0.0208333333333333
147
0.0
147
0.0
147
0.0
147
0.0
147
0.0208333333333333
147
0.0
147
0.0
147
0.0
147
0.0
147
1.0
147
0.0
147
0.0
147
0.0
147
0.0
147
1.0
 94
      127
  0
MLEADERSTYLE
  5
202004E
102
{ACAD_REACTORS
330
202004D
102
}
330
202004D
100
AcDbMLeaderStyle
170
     2
171
     1
172
     0
 90
        2
 40
0.0
 41
0.0
173
     1
 91
-1056964608
340
14
 92
       -2
290
     1
 42
0.09
291
     1
 43
0.36
  3
Standard
341
0
 44
0.18
300

342
4A
174
     1
178
     6
175
     1
176
     0
 93
-1056964608
 45
0.18
292
     0
297
     0
 46
0.18
343
0
 94
-1056964608
 47
1.0
 49
1.0
140
1.0
293
     1
141
0.0
294
     1
177
     0
142
1.0
295
     0
296
     0
143
0.125
1001
ACAD_MLEADERVER
1070
     2
  0
MLINESTYLE
  5
202003A
102
{ACAD_REACTORS
330
2020039
102
}
330
2020039
100
AcDbMlineStyle
  2
STANDARD
 70
     0
  3

 62
   256
 51
90.0
 52
90.0
 71
     2
 49
0.5
 62
   256
  6
BYLAYER
 49
-0.5
 62
   256
  6
BYLAYER
  0
ACDBPLACEHOLDER
  5
2020003
102
{ACAD_REACTORS
330
2020002
102
}
330
2020002
  0
DICTIONARY
  5
202021A
330
2020219
100
AcDbDictionary
280
     1
281
     1
  3
ADSK_XREC_MENTALRAYSETTINGSINFO
360
202021B
  0
SCALE
  5
202003C
102
{ACAD_REACTORS
330
202003B
102
}
330
202003B
100
AcDbScale
 70
     0
300
1:1
140
1.0
141
1.0
290
     1
  0
SCALE
  5
202003D
102
{ACAD_REACTORS
330
202003B
102
}
330
202003B
100
AcDbScale
 70
     0
300
1/128" = 1'-0"
140
0.0078125
141
12.0
290
     0
  0
SCALE
  5
202003E
102
{ACAD_REACTORS
330
202003B
102
}
330
202003B
100
AcDbScale
 70
     0
300
1/64" = 1'-0"
140
0.015625
141
12.0
290
     0
  0
SCALE
  5
202003F
102
{ACAD_REACTORS
330
202003B
102
}
330
202003B
100
AcDbScale
 70
     0
300
1/32" = 1'-0"
140
0.03125
141
12.0
290
     0
  0
SCALE
  5
2020040
102
{ACAD_REACTORS
330
202003B
102
}
330
202003B
100
AcDbScale
 70
     0
300
1/16" = 1'-0"
140
0.0625
141
12.0
290
     0
  0
SCALE
  5
2020041
102
{ACAD_REACTORS
330
202003B
102
}
330
202003B
100
AcDbScale
 70
     0
300
3/32" = 1'-0"
140
0.09375
141
12.0
290
     0
  0
SCALE
  5
2020042
102
{ACAD_REACTORS
330
202003B
102
}
330
202003B
100
AcDbScale
 70
     0
300
1/8" = 1'-0"
140
0.125
141
12.0
290
     0
  0
SCALE
  5
2020043
102
{ACAD_REACTORS
330
202003B
102
}
330
202003B
100
AcDbScale
 70
     0
300
3/16" = 1'-0"
140
0.1875
141
12.0
290
     0
  0
SCALE
  5
2020044
102
{ACAD_REACTORS
330
202003B
102
}
330
202003B
100
AcDbScale
 70
     0
300
1/4" = 1'-0"
140
0.25
141
12.0
290
     0
  0
SCALE
  5
2020045
102
{ACAD_REACTORS
330
202003B
102
}
330
202003B
100
AcDbScale
 70
     0
300
3/8" = 1'-0"
140
0.375
141
12.0
290
     0
  0
SCALE
  5
2020046
102
{ACAD_REACTORS
330
202003B
102
}
330
202003B
100
AcDbScale
 70
     0
300
1/2" = 1'-0"
140
0.5
141
12.0
290
     0
  0
SCALE
  5
2020047
102
{ACAD_REACTORS
330
202003B
102
}
330
202003B
100
AcDbScale
 70
     0
300
3/4" = 1'-0"
140
0.75
141
12.0
290
     0
  0
SCALE
  5
2020048
102
{ACAD_REACTORS
330
202003B
102
}
330
202003B
100
AcDbScale
 70
     0
300
1" = 1'-0"
140
1.0
141
12.0
290
     0
  0
SCALE
  5
2020049
102
{ACAD_REACTORS
330
202003B
102
}
330
202003B
100
AcDbScale
 70
     0
300
1-1/2" = 1'-0"
140
1.5
141
12.0
290
     0
  0
SCALE
  5
202004A
102
{ACAD_REACTORS
330
202003B
102
}
330
202003B
100
AcDbScale
 70
     0
300
3" = 1'-0"
140
3.0
141
12.0
290
     0
  0
SCALE
  5
202004B
102
{ACAD_REACTORS
330
202003B
102
}
330
202003B
100
AcDbScale
 70
     0
300
6" = 1'-0"
140
6.0
141
12.0
290
     0
  0
SCALE
  5
202004C
102
{ACAD_REACTORS
330
202003B
102
}
330
202003B
100
AcDbScale
 70
     0
300
1'-0" = 1'-0"
140
12.0
141
12.0
290
     0
  0
ACDBSECTIONVIEWSTYLE
  5
2020050
102
{ACAD_REACTORS
330
202004F
102
}
102
{ACAD_XDICTIONARY
360
2020BB0
102
}
330
202004F
100
AcDbModelDocViewStyle
 70
     0
  3
Imperial24
290
     0
100
AcDbSectionViewStyle
 70
     0
 71
     0
 90
       78
 71
     1
340
4A
 62
   256
 40
0.24
340
0
340
0
 62
   256
 40
0.24
300
I, O, Q, S, X, Z
 40
0.48
 90
        3
 40
0.18
 90
        1
 71
     2
340
16
 90
       25
 62
   256
340
16
 90
       50
 62
   256
 40
0.24
 40
0.0
 40
0.24
 71
     3
340
4A
 62
   256
 40
0.24
 90
        1
 40
0.75
 90
        1
300
%<\AcVar ViewType \f "%tc1">% %<\AcVar ViewSectionStartId>%-%<\AcVar ViewSectionEndId>%\PSCALE %<\AcVar ViewScale \f "%sn">%
 71
     4
 62
   256
 62
   257
300
ANSI31
 40
1.0
 90
        0
290
     0
290
     0
 90
        6
 40
0.0
 40
1.570796326794896
 40
0.2617993877991494
 40
1.308996938995747
 40
-0.2617993877991494
 40
1.832595714594044
  0
TABLESTYLE
  5
2020038
102
{ACAD_REACTORS
330
2020037
102
}
102
{ACAD_XDICTIONARY
360
2020F0F
102
}
330
2020037
100
AcDbTableStyle
  3
Standard
 70
     0
 71
     0
 40
0.06
 41
0.06
280
     0
281
     0
  7
Standard
140
0.18
170
     2
 62
     0
 63
   257
283
     0
 90
      512
 91
        0
  1

274
    -2
284
     1
 64
     0
275
    -2
285
     1
 65
     0
276
    -2
286
     1
 66
     0
277
    -2
287
     1
 67
     0
278
    -2
288
     1
 68
     0
279
    -2
289
     1
 69
     0
  7
Standard
140
0.25
170
     5
 62
     0
 63
   257
283
     0
 90
      512
 91
        0
  1

274
    -2
284
     1
 64
     0
275
    -2
285
     1
 65
     0
276
    -2
286
     1
 66
     0
277
    -2
287
     1
 67
     0
278
    -2
288
     1
 68
     0
279
    -2
289
     1
 69
     0
  7
Standard
140
0.18
170
     5
 62
     0
 63
   257
283
     0
 90
      512
 91
        0
  1

274
    -2
284
     1
 64
     0
275
    -2
285
     1
 65
     0
276
    -2
286
     1
 66
     0
277
    -2
287
     1
 67
     0
278
    -2
288
     1
 68
     0
279
    -2
289
     1
 69
     0
  0
VISUALSTYLE
  5
20208C5
102
{ACAD_REACTORS
330
202001D
102
}
330
202001D
100
AcDbVisualStyle
  2

 70
    10
 71
     0
 72
     2
 73
     0
 90
        0
 40
-0.6
 41
-30.0
 62
     5
 63
     7
421
 16777215
 74
     1
 91
        4
 64
     7
 65
   257
 75
     1
175
     1
 42
1.0
 92
        8
 66
     7
 43
1.0
 76
     1
 77
     6
 78
     2
 67
     7
 79
     5
170
     0
171
     0
290
     0
174
     0
 93
        1
 44
0.0
173
     0
291
     0
 45
0.0
  0
VISUALSTYLE
  5
2020023
102
{ACAD_REACTORS
330
202001D
102
}
330
202001D
100
AcDbVisualStyle
  2

 70
     4
 71
     0
 72
     2
 73
     0
 90
        0
 40
-0.6
 41
-30.0
 62
     5
 63
     7
421
 16777215
 74
     1
 91
        4
 64
     7
 65
   257
 75
     1
175
     1
 42
1.0
 92
        0
 66
   257
 43
1.0
 76
     1
 77
     6
 78
     2
 67
     7
 79
     5
170
     0
171
     0
290
     0
174
     0
 93
        1
 44
0.0
173
     0
291
     0
 45
0.0
  0
VISUALSTYLE
  5
2020022
102
{ACAD_REACTORS
330
202001D
102
}
330
202001D
100
AcDbVisualStyle
  2

 70
     7
 71
     1
 72
     0
 73
     1
 90
        0
 40
-0.6
 41
-30.0
 62
     5
 63
     7
421
 16777215
 74
     0
 91
        4
 64
     7
 65
   257
 75
     1
175
     1
 42
1.0
 92
        8
 66
     7
 43
1.0
 76
     1
 77
     6
 78
     2
 67
     7
 79
     5
170
     0
171
     0
290
     0
174
     0
 93
        1
 44
0.0
173
     0
291
     1
 45
0.0
  0
VISUALSTYLE
  5
2020029
102
{ACAD_REACTORS
330
202001D
102
}
330
202001D
100
AcDbVisualStyle
  2

 70
    12
 71
     2
 72
     2
 73
     0
 90
        0
 40
-0.6
 41
-30.0
 62
     5
 63
     7
421
 16777215
 74
     1
 91
        4
 64
     7
 65
   257
 75
     1
175
     1
 42
1.0
 92
        8
 66
     7
 43
1.0
 76
     1
 77
     6
 78
     2
 67
     7
 79
     5
170
     0
171
     0
290
     0
174
     0
 93
        1
 44
50.0
173
     0
291
     1
 45
0.0
  0
VISUALSTYLE
  5
202002D
102
{ACAD_REACTORS
330
202001D
102
}
330
202001D
100
AcDbVisualStyle
  2

 70
    16
 71
     2
 72
     2
 73
     3
 90
        0
 40
-0.6
 41
-30.0
 62
     5
 63
     8
421
  8421504
 74
     1
 91
        4
 64
     7
 65
   257
 75
     1
175
     1
 42
1.0
 92
        8
 66
     8
424
  8421504
 43
1.0
 76
     1
 77
     6
 78
     2
 67
     7
 79
     5
170
     0
171
     0
290
     0
174
     0
 93
        1
 44
0.0
173
     0
291
     1
 45
0.0
  0
VISUALSTYLE
  5
2020026
102
{ACAD_REACTORS
330
202001D
102
}
330
202001D
100
AcDbVisualStyle
  2

 70
     9
 71
     3
 72
     2
 73
     0
 90
        0
 40
-0.6
 41
-30.0
 62
     5
 63
     7
421
 16777215
 74
     2
 91
        2
 64
     7
 65
   257
 75
     1
175
     1
 42
179.0
 92
        8
 66
     7
 43
1.0
 76
     1
 77
     6
 78
     2
 67
     7
 79
     3
170
     0
171
     0
290
     0
174
     0
 93
        1
 44
0.0
173
     0
291
     0
 45
0.0
  0
VISUALSTYLE
  5
2020028
102
{ACAD_REACTORS
330
202001D
102
}
330
202001D
100
AcDbVisualStyle
  2

 70
    11
 71
     2
 72
     2
 73
     0
 90
        0
 40
-0.6
 41
-30.0
 62
     5
 63
     7
421
 16777215
 74
     1
 91
        4
 64
     7
 65
   257
 75
     1
175
     1
 42
1.0
 92
        8
 66
     7
 43
1.0
 76
     1
 77
     6
 78
     2
 67
     7
 79
     5
170
     0
171
     0
290
     0
174
     0
 93
        1
 44
-50.0
173
     0
291
     1
 45
0.0
  0
VISUALSTYLE
  5
2020035
102
{ACAD_REACTORS
330
202001D
102
}
330
202001D
100
AcDbVisualStyle
  2

 70
    22
 71
     2
 72
     2
 73
     0
 90
        0
 40
-0.6
 41
-30.0
 62
     5
 63
     7
421
 16777215
 74
     1
 91
        4
 64
     7
 65
   257
 75
     1
175
     1
 42
1.0
 92
        8
 66
     7
 43
1.0
 76
     1
 77
     6
 78
     2
 67
     7
 79
     5
170
     0
171
     0
290
     0
174
     0
 93
        1
 44
0.0
173
     0
291
     1
 45
0.0
  0
VISUALSTYLE
  5
202002C
102
{ACAD_REACTORS
330
202001D
102
}
330
202001D
100
AcDbVisualStyle
  2

 70
    15
 71
     2
 72
     2
 73
     0
 90
        0
 40
-0.6
 41
-30.0
 62
     5
 63
     7
421
 16777215
 74
     1
 91
        4
 64
     7
 65
   257
 75
     1
175
     1
 42
1.0
 92
        8
 66
     7
 43
1.0
 76
     1
 77
     6
 78
     2
 67
     7
 79
     5
170
     0
171
     0
290
     0
174
     0
 93
        1
 44
0.0
173
     0
291
     1
 45
0.0
  0
VISUALSTYLE
  5
202001E
102
{ACAD_REACTORS
330
202001D
102
}
330
202001D
100
AcDbVisualStyle
  2

 70
     0
 71
     2
 72
     1
 73
     1
 90
        2
 40
-0.6
 41
30.0
 62
     5
 63
     7
421
 16777215
 74
     0
 91
        0
 64
     7
 65
   257
 75
     1
175
     1
 42
1.0
 92
        8
 66
     7
 43
1.0
 76
     1
 77
     6
 78
     2
 67
     7
 79
     5
170
     0
171
     0
290
     0
174
     0
 93
       13
 44
0.0
173
     0
291
     1
 45
0.0
  0
VISUALSTYLE
  5
202001F
102
{ACAD_REACTORS
330
202001D
102
}
330
202001D
100
AcDbVisualStyle
  2

 70
     1
 71
     2
 72
     1
 73
     1
 90
        2
 40
-0.6
 41
30.0
 62
     5
 63
     7
421
 16777215
 74
     1
 91
        0
 64
     7
 65
   257
 75
     1
175
     1
 42
1.0
 92
        0
 66
   257
 43
1.0
 76
     1
 77
     6
 78
     2
 67
     7
 79
     5
170
     0
171
     0
290
     0
174
     0
 93
       13
 44
0.0
173
     0
291
     1
 45
0.0
  0
VISUALSTYLE
  5
2020020
102
{ACAD_REACTORS
330
202001D
102
}
330
202001D
100
AcDbVisualStyle
  2

 70
     2
 71
     2
 72
     2
 73
     1
 90
        2
 40
-0.6
 41
30.0
 62
     5
 63
     7
421
 16777215
 74
     0
 91
        0
 64
     7
 65
   257
 75
     1
175
     1
 42
1.0
 92
        0
 66
     7
 43
1.0
 76
     1
 77
     6
 78
     2
 67
     7
 79
     5
170
     0
171
     0
290
     0
174
     0
 93
       13
 44
0.0
173
     0
291
     1
 45
0.0
  0
VISUALSTYLE
  5
2020021
102
{ACAD_REACTORS
330
202001D
102
}
330
202001D
100
AcDbVisualStyle
  2

 70
     3
 71
     2
 72
     2
 73
     1
 90
        2
 40
-0.6
 41
30.0
 62
     5
 63
     7
421
 16777215
 74
     1
 91
        0
 64
     7
 65
   257
 75
     1
175
     1
 42
1.0
 92
        0
 66
   257
 43
1.0
 76
     1
 77
     6
 78
     2
 67
     7
 79
     5
170
     0
171
     0
290
     0
174
     0
 93
       13
 44
0.0
173
     0
291
     1
 45
0.0
  0
VISUALSTYLE
  5
2020025
102
{ACAD_REACTORS
330
202001D
102
}
330
202001D
100
AcDbVisualStyle
  2

 70
     6
 71
     1
 72
     2
 73
     2
 90
        0
 40
-0.6
 41
-30.0
 62
     5
 63
     7
421
 16777215
 74
     2
 91
        2
 64
     7
 65
   257
 75
     2
175
     1
 42
40.0
 92
        0
 66
   257
 43
1.0
 76
     1
 77
     6
 78
     2
 67
     7
 79
     3
170
     0
171
     0
290
     0
174
     0
 93
        1
 44
0.0
173
     0
291
     0
 45
0.0
  0
VISUALSTYLE
  5
2020033
102
{ACAD_REACTORS
330
202001D
102
}
330
202001D
100
AcDbVisualStyle
  2

 70
    20
 71
     2
 72
     2
 73
     0
 90
        0
 40
-0.6
 41
-30.0
 62
     5
 63
     7
421
 16777215
 74
     1
 91
        4
 64
     7
 65
   257
 75
     1
175
     1
 42
1.0
 92
       10
 66
     7
 43
1.0
 76
     1
 77
     6
 78
     2
 67
     7
 79
     5
170
     0
171
     0
290
     0
174
     0
 93
        1
 44
0.0
173
     0
291
     1
 45
0.0
  0
VISUALSTYLE
  5
202002B
102
{ACAD_REACTORS
330
202001D
102
}
330
202001D
100
AcDbVisualStyle
  2

 70
    14
 71
     2
 72
     2
 73
     0
 90
        0
 40
-0.6
 41
-30.0
 62
     5
 63
     7
421
 16777215
 74
     1
 91
        4
 64
     7
 65
   257
 75
     7
175
     7
 42
1.0
 92
        8
 66
     7
 43
1.0
 76
     1
 77
     6
 78
     2
 67
     7
 79
     5
170
     0
171
     0
290
     0
174
     0
 93
        1
 44
0.0
173
     0
291
     1
 45
0.0
  0
VISUALSTYLE
  5
2020034
102
{ACAD_REACTORS
330
202001D
102
}
330
202001D
100
AcDbVisualStyle
  2

 70
    21
 71
     2
 72
     2
 73
     0
 90
        0
 40
-0.6
 41
-30.0
 62
     5
 63
     7
421
 16777215
 74
     1
 91
        4
 64
     7
 65
   257
 75
     1
175
     1
 42
1.0
 92
        9
 66
     7
 43
1.0
 76
     1
 77
     6
 78
     2
 67
     7
 79
     5
170
     0
171
     0
290
     0
174
     0
 93
        1
 44
0.0
173
     0
291
     1
 45
0.0
  0
VISUALSTYLE
  5
2020027
102
{ACAD_REACTORS
330
202001D
102
}
330
202001D
100
AcDbVisualStyle
  2

 70
     8
 71
     2
 72
     3
 73
     0
 90
        2
 40
-0.6
 41
30.0
 62
     5
 63
     7
421
 16777215
 74
     0
 91
        0
 64
     7
 65
   257
 75
     1
175
     1
 42
1.0
 92
        8
 66
   257
 43
1.0
 76
     1
 77
     6
 78
     2
 67
     7
 79
     3
170
     0
171
     0
290
     0
174
     0
 93
       13
 44
0.0
173
     0
291
     0
 45
0.0
  0
VISUALSTYLE
  5
2020032
102
{ACAD_REACTORS
330
202001D
102
}
330
202001D
100
AcDbVisualStyle
  2

 70
    27
 71
     2
 72
     2
 73
     1
 90
        2
 40
-0.6
 41
30.0
 62
     5
 63
     7
421
 16777215
 74
     0
 91
        4
 64
     7
 65
   257
 75
     1
175
     1
 42
1.0
 92
        8
 66
   257
 43
1.0
 76
     1
 77
     6
 78
     2
 67
     8
425
  7895160
 79
     3
170
     0
171
     0
290
     0
174
     0
 93
        5
 44
0.0
173
     0
291
     0
 45
0.0
  0
VISUALSTYLE
  5
2020031
102
{ACAD_REACTORS
330
202001D
102
}
330
202001D
100
AcDbVisualStyle
  2

 70
    26
 71
     2
 72
     2
 73
     1
 90
        2
 40
-0.6
 41
30.0
 62
     5
 63
     7
421
 16777215
 74
     1
 91
        2
 64
     7
 65
   257
 75
     2
175
     1
 42
1.0
 92
        8
 66
   257
 43
1.0
 76
     1
 77
     6
 78
     2
 67
     7
 79
     3
170
     0
171
     0
290
     0
174
     0
 93
        5
 44
0.0
173
     0
291
     0
 45
0.0
  0
VISUALSTYLE
  5
202002E
102
{ACAD_REACTORS
330
202001D
102
}
330
202001D
100
AcDbVisualStyle
  2

 70
    23
 71
     2
 72
     2
 73
     3
 90
        0
 40
-0.6
 41
-30.0
 62
     5
 63
     7
421
 16777215
 74
     2
 91
        2
 64
     7
 65
     7
 75
     1
175
     1
 42
40.0
 92
        8
 66
     7
 43
1.0
 76
     1
 77
     6
 78
     2
 67
     7
 79
     3
170
     0
171
     0
290
     0
174
     0
 93
        1
 44
0.0
173
     0
291
     0
 45
0.0
  0
VISUALSTYLE
  5
202002F
102
{ACAD_REACTORS
330
202001D
102
}
330
202001D
100
AcDbVisualStyle
  2

 70
    24
 71
     1
 72
     2
 73
     2
 90
        0
 40
-0.6
 41
-30.0
 62
     5
 63
     7
421
 16777215
 74
     2
 91
        2
 64
     7
 65
     7
 75
     1
175
     1
 42
40.0
 92
       11
 66
     7
 43
1.0
 76
     1
 77
     6
 78
     2
 67
     7
 79
     6
170
     0
171
     0
290
     0
174
     0
 93
        1
 44
0.0
173
     0
291
     0
 45
0.0
  0
VISUALSTYLE
  5
202002A
102
{ACAD_REACTORS
330
202001D
102
}
330
202001D
100
AcDbVisualStyle
  2

 70
    13
 71
     2
 72
     2
 73
     0
 90
        0
 40
-0.6
 41
-30.0
 62
     5
 63
     7
421
 16777215
 74
     1
 91
        4
 64
     7
 65
   257
 75
     1
175
     1
 42
1.0
 92
       12
 66
     7
 43
1.0
 76
     1
 77
     6
 78
     2
 67
     7
 79
     5
170
     0
171
     0
290
     0
174
     0
 93
        1
 44
0.0
173
     0
291
     1
 45
0.0
  0
VISUALSTYLE
  5
2020024
102
{ACAD_REACTORS
330
202001D
102
}
330
202001D
100
AcDbVisualStyle
  2

 70
     5
 71
     0
 72
     2
 73
     0
 90
        0
 40
-0.6
 41
-30.0
 62
     5
 63
     7
421
 16777215
 74
     1
 91
        4
 64
     7
 65
   257
 75
     1
175
     1
 42
1.0
 92
        0
 66
   257
 43
1.0
 76
     1
 77
     6
 78
     2
 67
     7
 79
     3
170
     0
171
     0
290
     0
174
     0
 93
        1
 44
0.0
173
     0
291
     0
 45
0.0
  0
VISUALSTYLE
  5
2020030
102
{ACAD_REACTORS
330
202001D
102
}
330
202001D
100
AcDbVisualStyle
  2

 70
    25
 71
     2
 72
     2
 73
     1
 90
        1
 40
0.5
 41
-30.0
 62
     5
 63
     7
421
 16777215
 74
     1
 91
        0
 64
     7
 65
   257
 75
     1
175
     1
 42
1.0
 92
        8
 66
     7
 43
1.0
 76
     1
 77
     6
 78
     2
 67
     7
 79
     3
170
     0
171
     0
290
     0
174
     0
 93
       13
 44
0.0
173
     0
291
     0
 45
0.0
  0
DICTIONARYVAR
  5
20201D7
102
{ACAD_REACTORS
330
20201D2
102
}
330
20201D2
100
DictionaryVariables
280
     0
  1
1:1
  0
DICTIONARYVAR
  5
20201D4
102
{ACAD_REACTORS
330
20201D2
102
}
330
20201D2
100
DictionaryVariables
280
     0
  1
Standard
  0
DICTIONARYVAR
  5
20201D3
102
{ACAD_REACTORS
330
20201D2
102
}
330
20201D2
100
DictionaryVariables
280
     0
  1
Standard
  0
DICTIONARYVAR
  5
20201D5
102
{ACAD_REACTORS
330
20201D2
102
}
330
20201D2
100
DictionaryVariables
280
     0
  1
Imperial24
  0
DICTIONARYVAR
  5
20201D6
102
{ACAD_REACTORS
330
20201D2
102
}
330
20201D2
100
DictionaryVariables
280
     0
  1
Imperial24
  0
DICTIONARYVAR
  5
20208C4
102
{ACAD_REACTORS
330
20201D2
102
}
330
20201D2
100
DictionaryVariables
280
     0
  1
.
  0
DICTIONARYVAR
  5
2020B7B
102
{ACAD_REACTORS
330
20201D2
102
}
330
20201D2
100
DictionaryVariables
280
     0
  1
1
  0
DICTIONARYVAR
  5
2020B7C
102
{ACAD_REACTORS
330
20201D2
102
}
330
20201D2
100
DictionaryVariables
280
     0
  1
15
  0
DICTIONARYVAR
  5
2020B7D
102
{ACAD_REACTORS
330
20201D2
102
}
330
20201D2
100
DictionaryVariables
280
     0
  1
2
  0
DICTIONARYVAR
  5
20208CC
102
{ACAD_REACTORS
330
20208CB
102
}
330
20208CB
100
DictionaryVariables
280
     0
  1
0.250000
  0
DICTIONARYVAR
  5
20208C9
102
{ACAD_REACTORS
330
20208C6
102
}
330
20208C6
100
DictionaryVariables
280
     0
  1
0.261799
  0
DICTIONARYVAR
  5
20208C7
102
{ACAD_REACTORS
330
20208C6
102
}
330
20208C6
100
DictionaryVariables
280
     0
  1
0.400000
  0
DICTIONARYVAR
  5
20208C8
102
{ACAD_REACTORS
330
20208C6
102
}
330
20208C6
100
DictionaryVariables
280
     0
  1
0.250000
  0
DICTIONARYVAR
  5
20208CA
102
{ACAD_REACTORS
330
20208C6
102
}
330
20208C6
100
DictionaryVariables
280
     0
  1
0
  0
DICTIONARY
  5
2020BB2
330
2020052
100
AcDbDictionary
280
     1
281
     1
  3
ACAD_XREC_ROUNDTRIP
360
2020F0D
  0
XRECORD
  5
202021B
102
{ACAD_REACTORS
330
202021A
102
}
330
202021A
100
AcDbXrecord
280
     1
 70
     2
 71
     3
 72
     0
  0
DICTIONARY
  5
2020BB0
330
2020050
100
AcDbDictionary
280
     1
281
     1
  3
ACAD_XREC_ROUNDTRIP
360
2020F0E
  0
DICTIONARY
  5
2020F0F
330
2020038
100
AcDbDictionary
280
     1
281
     1
  3
ACAD_ROUNDTRIP_2008_TABLESTYLE_CELLSTYLEMAP
360
2020F10
  0
XRECORD
  5
2020F0D
102
{ACAD_REACTORS
330
2020BB2
102
}
330
2020BB2
100
AcDbXrecord
280
     1
102
DISPLAYNAME
  1
Imperial24
102
FLAGS
 90
        0
  0
XRECORD
  5
2020F0E
102
{ACAD_REACTORS
330
2020BB0
102
}
330
2020BB0
100
AcDbXrecord
280
     1
102
DISPLAYNAME
  1
Imperial24
102
FLAGS
 90
        0
  0
CELLSTYLEMAP
  5
2020F10
102
{ACAD_REACTORS
330
2020F0F
102
}
330
2020F0F
100
AcDbCellStyleMap
 90
        3
300
CELLSTYLE
  1
TABLEFORMAT_BEGIN
 90
        5
170
     1
 91
        0
 92
    32768
 62
   257
 93
        1
300
CONTENTFORMAT
  1
CONTENTFORMAT_BEGIN
 90
        0
 91
        0
 92
      512
 93
        0
300

 40
0.0
140
1.0
 94
        5
 62
     0
340
4A
144
0.25
309
CONTENTFORMAT_END
171
     1
301
MARGIN
  1
CELLMARGIN_BEGIN
 40
0.06
 40
0.06
 40
0.06
 40
0.06
 40
0.18
 40
0.18
309
CELLMARGIN_END
 94
        6
 95
        1
302
GRIDFORMAT
  1
GRIDFORMAT_BEGIN
 90
        0
 91
        1
 62
     0
 92
       -2
340
0
 93
        0
 40
0.045
309
GRIDFORMAT_END
 95
        2
302
GRIDFORMAT
  1
GRIDFORMAT_BEGIN
 90
        0
 91
        1
 62
     0
 92
       -2
340
0
 93
        0
 40
0.045
309
GRIDFORMAT_END
 95
        4
302
GRIDFORMAT
  1
GRIDFORMAT_BEGIN
 90
        0
 91
        1
 62
     0
 92
       -2
340
0
 93
        0
 40
0.045
309
GRIDFORMAT_END
 95
        8
302
GRIDFORMAT
  1
GRIDFORMAT_BEGIN
 90
        0
 91
        1
 62
     0
 92
       -2
340
0
 93
        0
 40
0.045
309
GRIDFORMAT_END
 95
       16
302
GRIDFORMAT
  1
GRIDFORMAT_BEGIN
 90
        0
 91
        1
 62
     0
 92
       -2
340
0
 93
        0
 40
0.045
309
GRIDFORMAT_END
 95
       32
302
GRIDFORMAT
  1
GRIDFORMAT_BEGIN
 90
        0
 91
        1
 62
     0
 92
       -2
340
0
 93
        0
 40
0.045
309
GRIDFORMAT_END
309
TABLEFORMAT_END
  1
CELLSTYLE_BEGIN
 90
        1
 91
        1
300
_TITLE
309
CELLSTYLE_END
300
CELLSTYLE
  1
TABLEFORMAT_BEGIN
 90
        5
170
     1
 91
        0
 92
        0
 62
   257
 93
        1
300
CONTENTFORMAT
  1
CONTENTFORMAT_BEGIN
 90
        0
 91
        0
 92
      512
 93
        0
300

 40
0.0
140
1.0
 94
        5
 62
     0
340
4A
144
0.18
309
CONTENTFORMAT_END
171
     1
301
MARGIN
  1
CELLMARGIN_BEGIN
 40
0.06
 40
0.06
 40
0.06
 40
0.06
 40
0.18
 40
0.18
309
CELLMARGIN_END
 94
        6
 95
        1
302
GRIDFORMAT
  1
GRIDFORMAT_BEGIN
 90
        0
 91
        1
 62
     0
 92
       -2
340
0
 93
        0
 40
0.045
309
GRIDFORMAT_END
 95
        2
302
GRIDFORMAT
  1
GRIDFORMAT_BEGIN
 90
        0
 91
        1
 62
     0
 92
       -2
340
0
 93
        0
 40
0.045
309
GRIDFORMAT_END
 95
        4
302
GRIDFORMAT
  1
GRIDFORMAT_BEGIN
 90
        0
 91
        1
 62
     0
 92
       -2
340
0
 93
        0
 40
0.045
309
GRIDFORMAT_END
 95
        8
302
GRIDFORMAT
  1
GRIDFORMAT_BEGIN
 90
        0
 91
        1
 62
     0
 92
       -2
340
0
 93
        0
 40
0.045
309
GRIDFORMAT_END
 95
       16
302
GRIDFORMAT
  1
GRIDFORMAT_BEGIN
 90
        0
 91
        1
 62
     0
 92
       -2
340
0
 93
        0
 40
0.045
309
GRIDFORMAT_END
 95
       32
302
GRIDFORMAT
  1
GRIDFORMAT_BEGIN
 90
        0
 91
        1
 62
     0
 92
       -2
340
0
 93
        0
 40
0.045
309
GRIDFORMAT_END
309
TABLEFORMAT_END
  1
CELLSTYLE_BEGIN
 90
        2
 91
        1
300
_HEADER
309
CELLSTYLE_END
300
CELLSTYLE
  1
TABLEFORMAT_BEGIN
 90
        5
170
     1
 91
        0
 92
        0
 62
   257
 93
        1
300
CONTENTFORMAT
  1
CONTENTFORMAT_BEGIN
 90
        0
 91
        0
 92
      512
 93
        0
300

 40
0.0
140
1.0
 94
        2
 62
     0
340
4A
144
0.18
309
CONTENTFORMAT_END
171
     1
301
MARGIN
  1
CELLMARGIN_BEGIN
 40
0.06
 40
0.06
 40
0.06
 40
0.06
 40
0.18
 40
0.18
309
CELLMARGIN_END
 94
        6
 95
        1
302
GRIDFORMAT
  1
GRIDFORMAT_BEGIN
 90
        0
 91
        1
 62
     0
 92
       -2
340
0
 93
        0
 40
0.045
309
GRIDFORMAT_END
 95
        2
302
GRIDFORMAT
  1
GRIDFORMAT_BEGIN
 90
        0
 91
        1
 62
     0
 92
       -2
340
0
 93
        0
 40
0.045
309
GRIDFORMAT_END
 95
        4
302
GRIDFORMAT
  1
GRIDFORMAT_BEGIN
 90
        0
 91
        1
 62
     0
 92
       -2
340
0
 93
        0
 40
0.045
309
GRIDFORMAT_END
 95
        8
302
GRIDFORMAT
  1
GRIDFORMAT_BEGIN
 90
        0
 91
        1
 62
     0
 92
       -2
340
0
 93
        0
 40
0.045
309
GRIDFORMAT_END
 95
       16
302
GRIDFORMAT
  1
GRIDFORMAT_BEGIN
 90
        0
 91
        1
 62
     0
 92
       -2
340
0
 93
        0
 40
0.045
309
GRIDFORMAT_END
 95
       32
302
GRIDFORMAT
  1
GRIDFORMAT_BEGIN
 90
        0
 91
        1
 62
     0
 92
       -2
340
0
 93
        0
 40
0.045
309
GRIDFORMAT_END
309
TABLEFORMAT_END
  1
CELLSTYLE_BEGIN
 90
        3
 91
        2
300
_DATA
309
CELLSTYLE_END
  0
ENDSEC
  0
EOF
