999
dxfrw 0.5.10
0
SECTION
2
HEADER
9
$ACADVER
1
AC1021
9
$HANDSEED
5
20000
9
$DWGCODEPAGE
3
ANSI_1252
9
$INSBASE
10
0
20
0
30
0
9
$EXTMIN
10
10000000000
20
10000000000
30
0
9
$EXTMAX
10
-10000000000
20
-10000000000
30
0
9
$LIMMIN
10
0
20
0
9
$LIMMAX
10
420
20
297
9
$ORTHOMODE
70
0
9
$LTSCALE
40
1
9
$TEXTSTYLE
7
Standard
9
$CLAYER
8
cut
9
$DIMASZ
40
2.5
9
$DIMLFAC
40
1
9
$DIMSCALE
40
1
9
$DIMEXO
40
0.625
9
$DIMEXE
40
1.25
9
$DIMTXT
40
2.5
9
$DIMTSZ
40
0
9
$DIMAUNIT
70
0
9
$DIMADEC
70
0
9
$DIMLUNIT
70
2
9
$DIMSTYLE
2
Standard
9
$DIMGAP
40
0.625
9
$DIMTIH
70
0
9
$LUNITS
70
2
9
$LUPREC
70
3
9
$AUNITS
70
0
9
$AUPREC
70
0
9
$SPLINESEGS
70
8
9
$GRIDMODE
70
0
9
$SNAPSTYLE
70
0
9
$PINSBASE
10
98.4729790903
20
155.714703394
30
0
9
$PLIMMIN
10
-0.124999519408
20
-0.124999998123
9
$PLIMMAX
10
11.5691670095
20
8.14166644427
9
$INSUNITS
70
0
9
$PSVPSCALE
40
2
0
ENDSEC
0
SECTION
2
CLASSES
0
ENDSEC
0
SECTION
2
TABLES
0
TABLE
2
VPORT
5
8
330
0
100
AcDbSymbolTable
70
1
0
VPORT
5
31
330
2
100
AcDbSymbolTableRecord
100
AcDbViewportTableRecord
2
*ACTIVE
70
0
10
0
20
0
11
1
21
1
12
138.137253437
22
16.5815724347
13
0
23
0
14
10
24
10
15
10
25
10
16
0
26
0
36
1
17
0
27
0
37
0
40
178.825881181
41
2.24393723252
42
50
43
0
44
0
50
0
51
0
71
0
72
100
73
1
74
3
75
0
76
0
77
0
78
0
281
0
65
1
110
0
120
0
130
0
111
1
121
0
131
0
112
0
122
1
132
0
79
0
146
0
348
10020
60
7
61
5
292
1
282
1
141
0
142
0
63
250
421
3358443
0
ENDTAB
0
TABLE
2
LTYPE
5
5
330
0
100
AcDbSymbolTable
70
4
0
LTYPE
5
14
330
5
100
AcDbSymbolTableRecord
100
AcDbLinetypeTableRecord
2
ByBlock
70
0
3

72
65
73
0
40
0
0
LTYPE
5
15
330
5
100
AcDbSymbolTableRecord
100
AcDbLinetypeTableRecord
2
ByLayer
70
0
3

72
65
73
0
40
0
0
LTYPE
5
16
330
5
100
AcDbSymbolTableRecord
100
AcDbLinetypeTableRecord
2
Continuous
70
0
3
Solid line
72
65
73
0
40
0
0
LTYPE
5
32
330
5
100
AcDbSymbolTableRecord
100
AcDbLinetypeTableRecord
2
DOT
70
0
3
Dot . . . . . . . . . . . . . . . . . . . . . .
72
65
73
2
40
6.35
49
0
74
0
49
-6.35
74
0
0
LTYPE
5
33
330
5
100
AcDbSymbolTableRecord
100
AcDbLinetypeTableRecord
2
DOT2
70
0
3
Dot (.5x) .....................................
72
65
73
2
40
3.175
49
0
74
0
49
-3.175
74
0
0
LTYPE
5
34
330
5
100
AcDbSymbolTableRecord
100
AcDbLinetypeTableRecord
2
DOTX2
70
0
3
Dot (2x) .  .  .  .  .  .  .  .  .  .  .  .  .
72
65
73
2
40
12.7
49
0
74
0
49
-12.7
74
0
0
LTYPE
5
35
330
5
100
AcDbSymbolTableRecord
100
AcDbLinetypeTableRecord
2
DASHED
70
0
3
Dot . . . . . . . . . . . . . . . . . . . . . .
72
65
73
2
40
19.05
49
12.7
74
0
49
-6.35
74
0
0
LTYPE
5
36
330
5
100
AcDbSymbolTableRecord
100
AcDbLinetypeTableRecord
2
DASHED2
70
0
3
Dashed (.5x) _ _ _ _ _ _ _ _ _ _ _ _ _ _ _ _ _
72
65
73
2
40
9.525
49
6.35
74
0
49
-3.175
74
0
0
LTYPE
5
37
330
5
100
AcDbSymbolTableRecord
100
AcDbLinetypeTableRecord
2
DASHEDX2
70
0
3
Dashed (2x) ____  ____  ____  ____  ____  ___
72
65
73
2
40
38.1
49
25.4
74
0
49
-12.7
74
0
0
LTYPE
5
38
330
5
100
AcDbSymbolTableRecord
100
AcDbLinetypeTableRecord
2
DASHDOT
70
0
3
Dash dot __ . __ . __ . __ . __ . __ . __ . __
72
65
73
4
40
25.4
49
12.7
74
0
49
-6.35
74
0
49
0
74
0
49
-6.35
74
0
0
LTYPE
5
39
330
5
100
AcDbSymbolTableRecord
100
AcDbLinetypeTableRecord
2
DASHDOT2
70
0
3
Dash dot (.5x) _._._._._._._._._._._._._._._.
72
65
73
4
40
12.7
49
6.35
74
0
49
-3.175
74
0
49
0
74
0
49
-3.175
74
0
0
LTYPE
5
3A
330
5
100
AcDbSymbolTableRecord
100
AcDbLinetypeTableRecord
2
DASHDOTX2
70
0
3
Dash dot (2x) ____  .  ____  .  ____  .  ___
72
65
73
4
40
50.8
49
25.4
74
0
49
-12.7
74
0
49
0
74
0
49
-12.7
74
0
0
LTYPE
5
3B
330
5
100
AcDbSymbolTableRecord
100
AcDbLinetypeTableRecord
2
DIVIDE
70
0
3
Divide ____ . . ____ . . ____ . . ____ . . ____
72
65
73
6
40
31.75
49
12.7
74
0
49
-6.35
74
0
49
0
74
0
49
-6.35
74
0
49
0
74
0
49
-6.35
74
0
0
LTYPE
5
3C
330
5
100
AcDbSymbolTableRecord
100
AcDbLinetypeTableRecord
2
DIVIDE2
70
0
3
Divide (.5x) __..__..__..__..__..__..__..__.._
72
65
73
6
40
15.875
49
6.35
74
0
49
-3.175
74
0
49
0
74
0
49
-3.175
74
0
49
0
74
0
49
-3.175
74
0
0
LTYPE
5
3D
330
5
100
AcDbSymbolTableRecord
100
AcDbLinetypeTableRecord
2
DIVIDEX2
70
0
3
Divide (2x) ________  .  .  ________  .  .  _
72
65
73
6
40
63.5
49
25.4
74
0
49
-12.7
74
0
49
0
74
0
49
-12.7
74
0
49
0
74
0
49
-12.7
74
0
0
LTYPE
5
3E
330
5
100
AcDbSymbolTableRecord
100
AcDbLinetypeTableRecord
2
BORDER
70
0
3
Border __ __ . __ __ . __ __ . __ __ . __ __ .
72
65
73
6
40
44.45
49
12.7
74
0
49
-6.35
74
0
49
12.7
74
0
49
-6.35
74
0
49
0
74
0
49
-6.35
74
0
0
LTYPE
5
3F
330
5
100
AcDbSymbolTableRecord
100
AcDbLinetypeTableRecord
2
BORDER2
70
0
3
Border (.5x) __.__.__.__.__.__.__.__.__.__.__.
72
65
73
6
40
22.225
49
6.35
74
0
49
-3.175
74
0
49
6.35
74
0
49
-3.175
74
0
49
0
74
0
49
-3.175
74
0
0
LTYPE
5
40
330
5
100
AcDbSymbolTableRecord
100
AcDbLinetypeTableRecord
2
BORDERX2
70
0
3
Border (2x) ____  ____  .  ____  ____  .  ___
72
65
73
6
40
88.9
49
25.4
74
0
49
-12.7
74
0
49
25.4
74
0
49
-12.7
74
0
49
0
74
0
49
-12.7
74
0
0
LTYPE
5
41
330
5
100
AcDbSymbolTableRecord
100
AcDbLinetypeTableRecord
2
CENTER
70
0
3
Center ____ _ ____ _ ____ _ ____ _ ____ _ ____
72
65
73
4
40
50.8
49
31.75
74
0
49
-6.35
74
0
49
6.35
74
0
49
-6.35
74
0
0
LTYPE
5
42
330
5
100
AcDbSymbolTableRecord
100
AcDbLinetypeTableRecord
2
CENTER2
70
0
3
Center (.5x) ___ _ ___ _ ___ _ ___ _ ___ _ ___
72
65
73
4
40
28.575
49
19.05
74
0
49
-3.175
74
0
49
3.175
74
0
49
-3.175
74
0
0
LTYPE
5
43
330
5
100
AcDbSymbolTableRecord
100
AcDbLinetypeTableRecord
2
CENTERX2
70
0
3
Center (2x) ________  __  ________  __  _____
72
65
73
4
40
101.6
49
63.5
74
0
49
-12.7
74
0
49
12.7
74
0
49
-12.7
74
0
0
ENDTAB
0
TABLE
2
LAYER
5
2
330
0
100
AcDbSymbolTable
70
1
0
LAYER
5
10
330
2
100
AcDbSymbolTableRecord
100
AcDbLayerTableRecord
2
0
70
0
62
7
6
CONTINUOUS
370
-3
390
F
0
LAYER
5
44
330
2
100
AcDbSymbolTableRecord
100
AcDbLayerTableRecord
2
cut
70
0
62
255
6
CONTINUOUS
370
0
390
F
0
LAYER
5
45
330
2
100
AcDbSymbolTableRecord
100
AcDbLayerTableRecord
2
engrave
70
0
62
5
6
CONTINUOUS
370
5
390
F
0
ENDTAB
0
TABLE
2
STYLE
5
3
330
0
100
AcDbSymbolTable
70
3
0
STYLE
5
46
330
2
100
AcDbSymbolTableRecord
100
AcDbTextStyleTableRecord
2
iso
70
0
40
0
41
1
50
0
71
0
42
1
3
iso
4

0
STYLE
5
47
330
2
100
AcDbSymbolTableRecord
100
AcDbTextStyleTableRecord
2
Standard
70
0
40
0
41
1
50
0
71
0
42
1
3
txt
4

0
ENDTAB
0
TABLE
2
VIEW
5
6
330
0
100
AcDbSymbolTable
70
0
0
ENDTAB
0
TABLE
2
UCS
5
7
330
0
100
AcDbSymbolTable
70
0
0
ENDTAB
0
TABLE
2
APPID
5
9
330
0
100
AcDbSymbolTable
70
1
0
APPID
5
12
330
9
100
AcDbSymbolTableRecord
100
AcDbRegAppTableRecord
2
ACAD
70
0
0
ENDTAB
0
TABLE
2
DIMSTYLE
5
A
330
0
100
AcDbSymbolTable
70
1
100
AcDbDimStyleTable
71
1
0
DIMSTYLE
105
48
330
A
100
AcDbSymbolTableRecord
100
AcDbDimStyleTableRecord
2
Standard
70
0
40
1
41
2.5
42
0.625
43
0.38
44
1.25
45
0
46
0
47
0
48
0
140
2.5
141
0.09
142
0
143
25.4
144
1
145
0
146
1
147
0.625
148
0
71
0
72
0
73
0
74
1
75
0
76
0
77
0
78
0
79
0
170
0
171
2
172
0
173
0
174
0
175
0
176
0
177
0
178
0
179
0
271
4
272
4
273
2
274
2
275
0
276
0
277
2
278
46
279
0
280
0
281
0
282
0
283
1
284
0
285
0
286
0
288
0
289
3
340
Standard
341

371
-2
372
-2
0
ENDTAB
0
TABLE
2
BLOCK_RECORD
5
1
330
0
100
AcDbSymbolTable
70
2
0
BLOCK_RECORD
5
1F
330
1
100
AcDbSymbolTableRecord
100
AcDbBlockTableRecord
2
*Model_Space
70
0
280
1
281
0
0
BLOCK_RECORD
5
1E
330
1
100
AcDbSymbolTableRecord
100
AcDbBlockTableRecord
2
*Paper_Space
70
0
280
1
281
0
0
ENDTAB
0
ENDSEC
0
SECTION
2
BLOCKS
0
BLOCK
5
20
330
1F
100
AcDbEntity
8
0
100
AcDbBlockBegin
2
*Model_Space
70
0
10
0
20
0
30
0
3
*Model_Space
1

0
ENDBLK
5
21
330
1F
100
AcDbEntity
8
0
100
AcDbBlockEnd
0
BLOCK
5
1C
330
1B
100
AcDbEntity
8
0
100
AcDbBlockBegin
2
*Paper_Space
70
0
10
0
20
0
30
0
3
*Paper_Space
1

0
ENDBLK
5
1D
330
1F
100
AcDbEntity
8
0
100
AcDbBlockEnd
0
ENDSEC
0
SECTION
2
ENTITIES
0
LWPOLYLINE
5
49
100
AcDbEntity
8
cut
6
CONTINUOUS
62
256
370
-1
100
AcDbPolyline
90
12
70
1
43
0
10
-27.45
20
-22.45
42
0.138849512139
10
-26.707729168
20
-25.0714008339
42
0.260388249433
10
-22.45
20
-27.45
10
22.45
20
-27.45
42
0.260388249433
10
26.707729168
20
-25.0714008339
42
0.138849512139
10
27.45
20
-22.45
10
27.45
20
22.45
42
0.138849512139
10
26.707729168
20
25.0714008339
42
0.260388249433
10
22.45
20
27.45
10
-22.45
20
27.45
42
0.260388249433
10
-26.707729168
20
25.0714008339
42
0.138849512139
10
-27.45
20
22.45
0
LINE
5
4A
100
AcDbEntity
8
engrave
6
CONTINUOUS
62
256
370
5
100
AcDbLine
10
0
20
22.5
11
0
21
26
0
LINE
5
4B
100
AcDbEntity
8
engrave
6
CONTINUOUS
62
256
370
5
100
AcDbLine
10
0
20
26
11
-0.25
21
25.5
0
LINE
5
4C
100
AcDbEntity
8
engrave
6
CONTINUOUS
62
256
370
5
100
AcDbLine
10
0
20
26
11
0.25
21
25.5
0
LWPOLYLINE
5
4D
100
AcDbEntity
8
engrave
6
CONTINUOUS
62
256
370
5
100
AcDbPolyline
90
5
70
0
43
0
10
2.505
20
-24.12
10
2.94
20
-24.12
10
2.94
20
-24.06
10
2.925
20
-24
10
2.895
20
-23.94
0
LWPOLYLINE
5
4E
100
AcDbEntity
8
engrave
6
CONTINUOUS
62
256
370
5
100
AcDbPolyline
90
15
70
0
43
0
10
2.895
20
-23.94
10
2.835
20
-23.895
10
2.79
20
-23.88
10
2.685
20
-23.88
10
2.61
20
-23.91
10
2.55
20
-23.97
10
2.505
20
-24.06
10
2.505
20
-24.165
10
2.535
20
-24.255
10
2.595
20
-24.33
10
2.685
20
-24.375
10
2.79
20
-24.375
10
2.865
20
-24.345
10
2.91
20
-24.3
10
2.94
20
-24.255
0
LINE
5
4F
100
AcDbEntity
8
engrave
6
CONTINUOUS
62
256
370
5
100
AcDbLine
10
2.325
20
-24.375
11
2.325
21
-23.625
0
LWPOLYLINE
5
50
100
AcDbEntity
8
engrave
6
CONTINUOUS
62
256
370
5
100
AcDbPolyline
90
16
70
0
43
0
10
2.325
20
-24
10
2.28
20
-23.94
10
2.22
20
-23.895
10
2.175
20
-23.88
10
2.07
20
-23.88
10
1.995
20
-23.91
10
1.935
20
-23.97
10
1.89
20
-24.06
10
1.89
20
-24.165
10
1.92
20
-24.255
10
1.98
20
-24.33
10
2.07
20
-24.375
10
2.175
20
-24.375
10
2.25
20
-24.345
10
2.295
20
-24.3
10
2.325
20
-24.255
0
LINE
5
51
100
AcDbEntity
8
engrave
6
CONTINUOUS
62
256
370
5
100
AcDbLine
10
1.71
20
-23.745
11
1.71
21
-23.655
0
LINE
5
52
100
AcDbEntity
8
engrave
6
CONTINUOUS
62
256
370
5
100
AcDbLine
10
1.71
20
-24.375
11
1.71
21
-23.88
0
LWPOLYLINE
5
53
100
AcDbEntity
8
engrave
6
CONTINUOUS
62
256
370
5
100
AcDbPolyline
90
17
70
0
43
0
10
1.53
20
-23.985
10
1.5
20
-23.91
10
1.395
20
-23.88
10
1.275
20
-23.88
10
1.17
20
-23.91
10
1.14
20
-23.97
10
1.17
20
-24.045
10
1.245
20
-24.09
10
1.425
20
-24.12
10
1.5
20
-24.165
10
1.53
20
-24.225
10
1.53
20
-24.27
10
1.5
20
-24.345
10
1.395
20
-24.375
10
1.275
20
-24.375
10
1.185
20
-24.345
10
1.14
20
-24.27
0
LWPOLYLINE
5
54
100
AcDbEntity
8
engrave
6
CONTINUOUS
62
256
370
5
100
AcDbPolyline
90
5
70
0
43
0
10
-0.225
20
-24.12
10
0.21
20
-24.12
10
0.21
20
-24.06
10
0.195
20
-24
10
0.165
20
-23.94
0
LWPOLYLINE
5
55
100
AcDbEntity
8
engrave
6
CONTINUOUS
62
256
370
5
100
AcDbPolyline
90
15
70
0
43
0
10
0.165
20
-23.94
10
0.105
20
-23.895
10
0.06
20
-23.88
10
-0.045
20
-23.88
10
-0.12
20
-23.91
10
-0.18
20
-23.97
10
-0.225
20
-24.06
10
-0.225
20
-24.165
10
-0.195
20
-24.255
10
-0.135
20
-24.33
10
-0.045
20
-24.375
10
0.06
20
-24.375
10
0.135
20
-24.345
10
0.18
20
-24.3
10
0.21
20
-24.255
0
LWPOLYLINE
5
56
100
AcDbEntity
8
engrave
6
CONTINUOUS
62
256
370
5
100
AcDbPolyline
90
16
70
0
43
0
10
-0.405
20
-24
10
-0.45
20
-23.94
10
-0.51
20
-23.895
10
-0.555
20
-23.88
10
-0.66
20
-23.88
10
-0.735
20
-23.91
10
-0.795
20
-23.97
10
-0.84
20
-24.06
10
-0.84
20
-24.165
10
-0.81
20
-24.255
10
-0.75
20
-24.33
10
-0.66
20
-24.375
10
-0.555
20
-24.375
10
-0.48
20
-24.345
10
-0.435
20
-24.3
10
-0.405
20
-24.255
0
LINE
5
57
100
AcDbEntity
8
engrave
6
CONTINUOUS
62
256
370
5
100
AcDbLine
10
-1.02
20
-23.745
11
-1.02
21
-23.655
0
LINE
5
58
100
AcDbEntity
8
engrave
6
CONTINUOUS
62
256
370
5
100
AcDbLine
10
-1.02
20
-24.375
11
-1.02
21
-23.88
0
LWPOLYLINE
5
59
100
AcDbEntity
8
engrave
6
CONTINUOUS
62
256
370
5
100
AcDbPolyline
90
3
70
0
43
0
10
-1.65
20
-23.88
10
-1.425
20
-24.375
10
-1.2
20
-23.88
0
LWPOLYLINE
5
5A
100
AcDbEntity
8
engrave
6
CONTINUOUS
62
256
370
5
100
AcDbPolyline
90
5
70
0
43
0
10
-2.265
20
-24.12
10
-1.83
20
-24.12
10
-1.83
20
-24.06
10
-1.845
20
-24
10
-1.875
20
-23.94
0
LWPOLYLINE
5
5B
100
AcDbEntity
8
engrave
6
CONTINUOUS
62
256
370
5
100
AcDbPolyline
90
15
70
0
43
0
10
-1.875
20
-23.94
10
-1.935
20
-23.895
10
-1.98
20
-23.88
10
-2.085
20
-23.88
10
-2.16
20
-23.91
10
-2.22
20
-23.97
10
-2.265
20
-24.06
10
-2.265
20
-24.165
10
-2.235
20
-24.255
10
-2.175
20
-24.33
10
-2.085
20
-24.375
10
-1.98
20
-24.375
10
-1.905
20
-24.345
10
-1.86
20
-24.3
10
-1.83
20
-24.255
0
LWPOLYLINE
5
5C
100
AcDbEntity
8
engrave
6
CONTINUOUS
62
256
370
5
100
AcDbPolyline
90
10
70
1
43
0
10
-2.94
20
-23.625
10
-2.685
20
-23.625
10
-2.595
20
-23.655
10
-2.505
20
-23.73
10
-2.445
20
-23.91
10
-2.445
20
-24.09
10
-2.505
20
-24.255
10
-2.595
20
-24.345
10
-2.685
20
-24.375
10
-2.94
20
-24.375
0
LINE
5
5D
100
AcDbEntity
8
engrave
6
CONTINUOUS
62
256
370
5
100
AcDbLine
10
2.12273086619
20
-25.6141875413
11
2.60273086619
21
-25.6141875413
0
LWPOLYLINE
5
5E
100
AcDbEntity
8
engrave
6
CONTINUOUS
62
256
370
5
100
AcDbPolyline
90
3
70
0
43
0
10
2.39273086619
20
-24.8641875413
10
2.28773086619
20
-24.9691875413
10
2.19773086619
20
-25.0141875413
0
LINE
5
5F
100
AcDbEntity
8
engrave
6
CONTINUOUS
62
256
370
5
100
AcDbLine
10
2.39273086619
20
-24.8641875413
11
2.39273086619
21
-25.6141875413
0
LWPOLYLINE
5
60
100
AcDbEntity
8
engrave
6
CONTINUOUS
62
256
370
5
100
AcDbPolyline
90
28
70
1
43
0
10
1.70273086619
20
-24.8641875413
10
1.67273086619
20
-24.8641875413
10
1.59773086619
20
-24.8791875413
10
1.53773086619
20
-24.9241875413
10
1.49273086619
20
-24.9991875413
10
1.47773086619
20
-25.0591875413
10
1.46273086619
20
-25.1341875413
10
1.46273086619
20
-25.2391875413
10
1.46273086619
20
-25.3441875413
10
1.47773086619
20
-25.4191875413
10
1.49273086619
20
-25.4791875413
10
1.53773086619
20
-25.5541875413
10
1.59773086619
20
-25.5991875413
10
1.67273086619
20
-25.6141875413
10
1.70273086619
20
-25.6141875413
10
1.73273086619
20
-25.6141875413
10
1.80773086619
20
-25.5991875413
10
1.86773086619
20
-25.5541875413
10
1.91273086619
20
-25.4791875413
10
1.92773086619
20
-25.4191875413
10
1.94273086619
20
-25.3441875413
10
1.94273086619
20
-25.2391875413
10
1.94273086619
20
-25.1341875413
10
1.92773086619
20
-25.0591875413
10
1.91273086619
20
-24.9991875413
10
1.86773086619
20
-24.9241875413
10
1.80773086619
20
-24.8791875413
10
1.73273086619
20
-24.8641875413
0
LINE
5
61
100
AcDbEntity
8
engrave
6
CONTINUOUS
62
256
370
5
100
AcDbLine
10
0.802730866193
20
-25.2841875413
11
1.28273086619
21
-25.2841875413
0
LWPOLYLINE
5
62
100
AcDbEntity
8
engrave
6
CONTINUOUS
62
256
370
5
100
AcDbPolyline
90
3
70
0
43
0
10
0.142730866193
20
-24.8641875413
10
0.622730866193
20
-24.8641875413
10
0.277730866192
20
-25.6141875413
0
LINE
5
63
100
AcDbEntity
8
engrave
6
CONTINUOUS
62
256
370
5
100
AcDbLine
10
-0.517269133807
20
-25.6141875413
11
-0.0372691338075
21
-25.6141875413
0
LWPOLYLINE
5
64
100
AcDbEntity
8
engrave
6
CONTINUOUS
62
256
370
5
100
AcDbPolyline
90
3
70
0
43
0
10
-0.247269133807
20
-24.8641875413
10
-0.352269133807
20
-24.9691875413
10
-0.442269133807
20
-25.0141875413
0
LINE
5
65
100
AcDbEntity
8
engrave
6
CONTINUOUS
62
256
370
5
100
AcDbLine
10
-0.247269133807
20
-24.8641875413
11
-0.247269133807
21
-25.6141875413
0
LWPOLYLINE
5
66
100
AcDbEntity
8
engrave
6
CONTINUOUS
62
256
370
5
100
AcDbPolyline
90
28
70
1
43
0
10
-0.937269133808
20
-24.8641875413
10
-0.967269133807
20
-24.8641875413
10
-1.04226913381
20
-24.8791875413
10
-1.10226913381
20
-24.9241875413
10
-1.14726913381
20
-24.9991875413
10
-1.16226913381
20
-25.0591875413
10
-1.17726913381
20
-25.1341875413
10
-1.17726913381
20
-25.2391875413
10
-1.17726913381
20
-25.3441875413
10
-1.16226913381
20
-25.4191875413
10
-1.14726913381
20
-25.4791875413
10
-1.10226913381
20
-25.5541875413
10
-1.04226913381
20
-25.5991875413
10
-0.967269133807
20
-25.6141875413
10
-0.937269133808
20
-25.6141875413
10
-0.907269133807
20
-25.6141875413
10
-0.832269133808
20
-25.5991875413
10
-0.772269133808
20
-25.5541875413
10
-0.727269133807
20
-25.4791875413
10
-0.712269133807
20
-25.4191875413
10
-0.697269133807
20
-25.3441875413
10
-0.697269133807
20
-25.2391875413
10
-0.697269133807
20
-25.1341875413
10
-0.712269133807
20
-25.0591875413
10
-0.727269133807
20
-24.9991875413
10
-0.772269133808
20
-24.9241875413
10
-0.832269133808
20
-24.8791875413
10
-0.907269133807
20
-24.8641875413
0
LWPOLYLINE
5
67
100
AcDbEntity
8
engrave
6
CONTINUOUS
62
256
370
5
100
AcDbPolyline
90
14
70
0
43
0
10
-1.80726913381
20
-25.0441875413
10
-1.80726913381
20
-25.0141875413
10
-1.79226913381
20
-24.9541875413
10
-1.73226913381
20
-24.8941875413
10
-1.65726913381
20
-24.8641875413
10
-1.50726913381
20
-24.8641875413
10
-1.43226913381
20
-24.9091875413
10
-1.38726913381
20
-24.9691875413
10
-1.37226913381
20
-25.0141875413
10
-1.37226913381
20
-25.0891875413
10
-1.40226913381
20
-25.1491875413
10
-1.46226913381
20
-25.2391875413
10
-1.83726913381
20
-25.6141875413
10
-1.35726913381
20
-25.6141875413
0
LWPOLYLINE
5
68
100
AcDbEntity
8
engrave
6
CONTINUOUS
62
256
370
5
100
AcDbPolyline
90
3
70
0
43
0
10
-2.46726913381
20
-25.1191875413
10
-2.24226913381
20
-25.6141875413
10
-2.01726913381
20
-25.1191875413
0
LINE
5
69
100
AcDbEntity
8
cut
6
CONTINUOUS
62
256
370
0
100
AcDbLine
10
-24.499999261
20
15.8000048125
11
-24.499999261
21
24.2000048125
0
LINE
5
6A
100
AcDbEntity
8
cut
6
CONTINUOUS
62
256
370
0
100
AcDbLine
10
-3.499999261
20
15.8000048125
11
-3.499999261
21
24.2000048125
0
LINE
5
6B
100
AcDbEntity
8
cut
6
CONTINUOUS
62
256
370
0
100
AcDbLine
10
-24.499999261
20
24.2000048125
11
-3.499999261
21
24.2000048125
0
LINE
5
6C
100
AcDbEntity
8
cut
6
CONTINUOUS
62
256
370
0
100
AcDbLine
10
-24.499999261
20
15.8000048125
11
-3.499999261
21
15.8000048125
0
LINE
5
6D
100
AcDbEntity
8
cut
6
CONTINUOUS
62
256
370
0
100
AcDbLine
10
-24.499998389
20
12.200005125
11
-24.499998389
21
3.80000512496
0
LINE
5
6E
100
AcDbEntity
8
cut
6
CONTINUOUS
62
256
370
0
100
AcDbLine
10
-3.499998389
20
12.200005125
11
-3.499998389
21
3.80000512496
0
LINE
5
6F
100
AcDbEntity
8
cut
6
CONTINUOUS
62
256
370
0
100
AcDbLine
10
-24.499998389
20
12.200005125
11
-3.499998389
21
12.200005125
0
LINE
5
70
100
AcDbEntity
8
cut
6
CONTINUOUS
62
256
370
0
100
AcDbLine
10
-3.499998389
20
3.80000512496
11
-24.499998389
21
3.80000512496
0
LINE
5
71
100
AcDbEntity
8
cut
6
CONTINUOUS
62
256
370
0
100
AcDbLine
10
-24.524999224
20
-12.19999385
11
-24.524999224
21
-3.79999385003
0
LINE
5
72
100
AcDbEntity
8
cut
6
CONTINUOUS
62
256
370
0
100
AcDbLine
10
-3.524999224
20
-12.19999385
11
-3.524999224
21
-3.79999385003
0
LINE
5
73
100
AcDbEntity
8
cut
6
CONTINUOUS
62
256
370
0
100
AcDbLine
10
-24.524999224
20
-3.79999385003
11
-3.524999224
21
-3.79999385003
0
LINE
5
74
100
AcDbEntity
8
cut
6
CONTINUOUS
62
256
370
0
100
AcDbLine
10
-24.524999224
20
-12.19999385
11
-3.524999224
21
-12.19999385
0
LINE
5
75
100
AcDbEntity
8
cut
6
CONTINUOUS
62
256
370
0
100
AcDbLine
10
-24.551249185
20
-15.7999941705
11
-24.551249185
21
-24.1999941705
0
LINE
5
76
100
AcDbEntity
8
cut
6
CONTINUOUS
62
256
370
0
100
AcDbLine
10
-3.551249185
20
-15.7999941705
11
-3.551249185
21
-24.1999941705
0
LINE
5
77
100
AcDbEntity
8
cut
6
CONTINUOUS
62
256
370
0
100
AcDbLine
10
-24.551249185
20
-15.7999941705
11
-3.551249185
21
-15.7999941705
0
LINE
5
78
100
AcDbEntity
8
cut
6
CONTINUOUS
62
256
370
0
100
AcDbLine
10
-3.551249185
20
-24.1999941705
11
-24.551249185
21
-24.1999941705
0
LINE
5
79
100
AcDbEntity
8
cut
6
CONTINUOUS
62
256
370
0
100
AcDbLine
10
24
20
23.9999920007
11
24
21
23.9999920007
0
LINE
5
7A
100
AcDbEntity
8
cut
6
CONTINUOUS
62
256
370
0
100
AcDbLine
10
24
20
23.9999920007
11
24
21
23.9999920007
0
LINE
5
7B
100
AcDbEntity
8
cut
6
CONTINUOUS
62
256
370
0
100
AcDbLine
10
24
20
23.9999920007
11
24
21
23.9999920007
0
LINE
5
7C
100
AcDbEntity
8
cut
6
CONTINUOUS
62
256
370
0
100
AcDbLine
10
24
20
23.9999920007
11
24
21
23.9999920007
0
LINE
5
7D
100
AcDbEntity
8
cut
6
CONTINUOUS
62
256
370
0
100
AcDbLine
10
24.4999992607
20
15.8000048125
11
24.4999992607
21
24.2000048125
0
LINE
5
7E
100
AcDbEntity
8
cut
6
CONTINUOUS
62
256
370
0
100
AcDbLine
10
3.4999992607
20
15.8000048125
11
3.4999992607
21
24.2000048125
0
LINE
5
7F
100
AcDbEntity
8
cut
6
CONTINUOUS
62
256
370
0
100
AcDbLine
10
24.4999992607
20
24.2000048125
11
3.4999992607
21
24.2000048125
0
LINE
5
80
100
AcDbEntity
8
cut
6
CONTINUOUS
62
256
370
0
100
AcDbLine
10
24.4999992607
20
15.8000048125
11
3.4999992607
21
15.8000048125
0
LINE
5
81
100
AcDbEntity
8
cut
6
CONTINUOUS
62
256
370
0
100
AcDbLine
10
24.4999983893
20
12.200005125
11
24.4999983893
21
3.80000512496
0
LINE
5
82
100
AcDbEntity
8
cut
6
CONTINUOUS
62
256
370
0
100
AcDbLine
10
3.4999983893
20
12.200005125
11
3.4999983893
21
3.80000512496
0
LINE
5
83
100
AcDbEntity
8
cut
6
CONTINUOUS
62
256
370
0
100
AcDbLine
10
24.4999983893
20
12.200005125
11
3.4999983893
21
12.200005125
0
LINE
5
84
100
AcDbEntity
8
cut
6
CONTINUOUS
62
256
370
0
100
AcDbLine
10
3.4999983893
20
3.80000512496
11
24.4999983893
21
3.80000512496
0
LINE
5
85
100
AcDbEntity
8
cut
6
CONTINUOUS
62
256
370
0
100
AcDbLine
10
24.5249992238
20
-12.19999385
11
24.5249992238
21
-3.79999385003
0
LINE
5
86
100
AcDbEntity
8
cut
6
CONTINUOUS
62
256
370
0
100
AcDbLine
10
3.5249992238
20
-12.19999385
11
3.5249992238
21
-3.79999385003
0
LINE
5
87
100
AcDbEntity
8
cut
6
CONTINUOUS
62
256
370
0
100
AcDbLine
10
24.5249992238
20
-3.79999385003
11
3.5249992238
21
-3.79999385003
0
LINE
5
88
100
AcDbEntity
8
cut
6
CONTINUOUS
62
256
370
0
100
AcDbLine
10
24.5249992238
20
-12.19999385
11
3.5249992238
21
-12.19999385
0
LINE
5
89
100
AcDbEntity
8
cut
6
CONTINUOUS
62
256
370
0
100
AcDbLine
10
24.551249185
20
-15.7999941705
11
24.551249185
21
-24.1999941705
0
LINE
5
8A
100
AcDbEntity
8
cut
6
CONTINUOUS
62
256
370
0
100
AcDbLine
10
3.551249185
20
-15.7999941705
11
3.551249185
21
-24.1999941705
0
LINE
5
8B
100
AcDbEntity
8
cut
6
CONTINUOUS
62
256
370
0
100
AcDbLine
10
24.551249185
20
-15.7999941705
11
3.551249185
21
-15.7999941705
0
LINE
5
8C
100
AcDbEntity
8
cut
6
CONTINUOUS
62
256
370
0
100
AcDbLine
10
3.551249185
20
-24.1999941705
11
24.551249185
21
-24.1999941705
0
MTEXT
5
8D
100
AcDbEntity
8
engrave
6
ByLayer
62
256
370
5
100
AcDbMText
10
0
20
0
30
0
40
1
41
21.1111108991
71
5
72
1
1
compatible with old HJS layout
7
iso
210
0
220
0
230
1
50
0
73
2
44
1
0
ENDSEC
0
SECTION
2
OBJECTS
0
DICTIONARY
5
C
330
0
100
AcDbDictionary
281
1
3
ACAD_GROUP
350
D
0
DICTIONARY
5
D
330
C
100
AcDbDictionary
281
1
0
ENDSEC
0
EOF
