999
dxfrw 0.5.10
0
SECTION
2
HEADER
9
$ACADVER
1
AC1021
9
$HANDSEED
5
20000
9
$DWGCODEPAGE
3
ANSI_1252
9
$INSBASE
10
0
20
0
30
0
9
$EXTMIN
10
10000000000
20
10000000000
30
0
9
$EXTMAX
10
-10000000000
20
-10000000000
30
0
9
$LIMMIN
10
0
20
0
9
$LIMMAX
10
420
20
297
9
$ORTHOMODE
70
0
9
$LTSCALE
40
1
9
$TEXTSTYLE
7
STANDARD
9
$CLAYER
8
TCO
9
$DIMASZ
40
2.5
9
$DIMLFAC
40
1
9
$DIMSCALE
40
1
9
$DIMEXO
40
0.625
9
$DIMEXE
40
1.25
9
$DIMTXT
40
2.5
9
$DIMTSZ
40
0
9
$DIMAUNIT
70
0
9
$DIMADEC
70
0
9
$DIMLUNIT
70
2
9
$DIMSTYLE
2
ISO-25
9
$DIMGAP
40
0.625
9
$DIMTIH
70
0
9
$LUNITS
70
2
9
$LUPREC
70
3
9
$AUNITS
70
0
9
$AUPREC
70
0
9
$SPLINESEGS
70
8
9
$GRIDMODE
70
0
9
$SNAPSTYLE
70
0
9
$GRIDUNIT
10
0.1
20
0.1
9
$PINSBASE
10
98.4729790903
20
155.714703394
30
0
9
$PLIMMIN
10
0
20
0
9
$PLIMMAX
10
210
20
297
9
$INSUNITS
70
0
9
$PSVPSCALE
40
2
0
ENDSEC
0
SECTION
2
CLASSES
0
ENDSEC
0
SECTION
2
TABLES
0
TABLE
2
VPORT
5
8
330
0
100
AcDbSymbolTable
70
1
0
VPORT
5
31
330
2
100
AcDbSymbolTableRecord
100
AcDbViewportTableRecord
2
*ACTIVE
70
0
10
0
20
0
11
1
21
1
12
9.35422759319
22
12.78233941
13
0
23
0
14
10
24
10
15
0.1
25
0.1
16
0
26
0
36
1
17
0
27
0
37
0
40
48.3656085784
41
1.72857142857
42
50
43
0
44
0
50
0
51
0
71
0
72
100
73
1
74
3
75
0
76
0
77
0
78
0
281
0
65
1
110
0
120
0
130
0
111
1
121
0
131
0
112
0
122
1
132
0
79
0
146
0
348
10020
60
3
61
5
292
1
282
1
141
0
142
0
63
250
421
3358443
0
ENDTAB
0
TABLE
2
LTYPE
5
5
330
0
100
AcDbSymbolTable
70
4
0
LTYPE
5
14
330
5
100
AcDbSymbolTableRecord
100
AcDbLinetypeTableRecord
2
ByBlock
70
0
3

72
65
73
0
40
0
0
LTYPE
5
15
330
5
100
AcDbSymbolTableRecord
100
AcDbLinetypeTableRecord
2
ByLayer
70
0
3

72
65
73
0
40
0
0
LTYPE
5
16
330
5
100
AcDbSymbolTableRecord
100
AcDbLinetypeTableRecord
2
Continuous
70
0
3
Solid line
72
65
73
0
40
0
0
LTYPE
5
32
330
5
100
AcDbSymbolTableRecord
100
AcDbLinetypeTableRecord
2
DOT
70
0
3
Dot . . . . . . . . . . . . . . . . . . . . . .
72
65
73
2
40
6.35
49
0
74
0
49
-6.35
74
0
0
LTYPE
5
33
330
5
100
AcDbSymbolTableRecord
100
AcDbLinetypeTableRecord
2
DOT2
70
0
3
Dot (.5x) .....................................
72
65
73
2
40
3.175
49
0
74
0
49
-3.175
74
0
0
LTYPE
5
34
330
5
100
AcDbSymbolTableRecord
100
AcDbLinetypeTableRecord
2
DOTX2
70
0
3
Dot (2x) .  .  .  .  .  .  .  .  .  .  .  .  .
72
65
73
2
40
12.7
49
0
74
0
49
-12.7
74
0
0
LTYPE
5
35
330
5
100
AcDbSymbolTableRecord
100
AcDbLinetypeTableRecord
2
DASHED
70
0
3
Dot . . . . . . . . . . . . . . . . . . . . . .
72
65
73
2
40
19.05
49
12.7
74
0
49
-6.35
74
0
0
LTYPE
5
36
330
5
100
AcDbSymbolTableRecord
100
AcDbLinetypeTableRecord
2
DASHED2
70
0
3
Dashed (.5x) _ _ _ _ _ _ _ _ _ _ _ _ _ _ _ _ _
72
65
73
2
40
9.525
49
6.35
74
0
49
-3.175
74
0
0
LTYPE
5
37
330
5
100
AcDbSymbolTableRecord
100
AcDbLinetypeTableRecord
2
DASHEDX2
70
0
3
Dashed (2x) ____  ____  ____  ____  ____  ___
72
65
73
2
40
38.1
49
25.4
74
0
49
-12.7
74
0
0
LTYPE
5
38
330
5
100
AcDbSymbolTableRecord
100
AcDbLinetypeTableRecord
2
DASHDOT
70
0
3
Dash dot __ . __ . __ . __ . __ . __ . __ . __
72
65
73
4
40
25.4
49
12.7
74
0
49
-6.35
74
0
49
0
74
0
49
-6.35
74
0
0
LTYPE
5
39
330
5
100
AcDbSymbolTableRecord
100
AcDbLinetypeTableRecord
2
DASHDOT2
70
0
3
Dash dot (.5x) _._._._._._._._._._._._._._._.
72
65
73
4
40
12.7
49
6.35
74
0
49
-3.175
74
0
49
0
74
0
49
-3.175
74
0
0
LTYPE
5
3A
330
5
100
AcDbSymbolTableRecord
100
AcDbLinetypeTableRecord
2
DASHDOTX2
70
0
3
Dash dot (2x) ____  .  ____  .  ____  .  ___
72
65
73
4
40
50.8
49
25.4
74
0
49
-12.7
74
0
49
0
74
0
49
-12.7
74
0
0
LTYPE
5
3B
330
5
100
AcDbSymbolTableRecord
100
AcDbLinetypeTableRecord
2
DIVIDE
70
0
3
Divide ____ . . ____ . . ____ . . ____ . . ____
72
65
73
6
40
31.75
49
12.7
74
0
49
-6.35
74
0
49
0
74
0
49
-6.35
74
0
49
0
74
0
49
-6.35
74
0
0
LTYPE
5
3C
330
5
100
AcDbSymbolTableRecord
100
AcDbLinetypeTableRecord
2
DIVIDE2
70
0
3
Divide (.5x) __..__..__..__..__..__..__..__.._
72
65
73
6
40
15.875
49
6.35
74
0
49
-3.175
74
0
49
0
74
0
49
-3.175
74
0
49
0
74
0
49
-3.175
74
0
0
LTYPE
5
3D
330
5
100
AcDbSymbolTableRecord
100
AcDbLinetypeTableRecord
2
DIVIDEX2
70
0
3
Divide (2x) ________  .  .  ________  .  .  _
72
65
73
6
40
63.5
49
25.4
74
0
49
-12.7
74
0
49
0
74
0
49
-12.7
74
0
49
0
74
0
49
-12.7
74
0
0
LTYPE
5
3E
330
5
100
AcDbSymbolTableRecord
100
AcDbLinetypeTableRecord
2
BORDER
70
0
3
Border __ __ . __ __ . __ __ . __ __ . __ __ .
72
65
73
6
40
44.45
49
12.7
74
0
49
-6.35
74
0
49
12.7
74
0
49
-6.35
74
0
49
0
74
0
49
-6.35
74
0
0
LTYPE
5
3F
330
5
100
AcDbSymbolTableRecord
100
AcDbLinetypeTableRecord
2
BORDER2
70
0
3
Border (.5x) __.__.__.__.__.__.__.__.__.__.__.
72
65
73
6
40
22.225
49
6.35
74
0
49
-3.175
74
0
49
6.35
74
0
49
-3.175
74
0
49
0
74
0
49
-3.175
74
0
0
LTYPE
5
40
330
5
100
AcDbSymbolTableRecord
100
AcDbLinetypeTableRecord
2
BORDERX2
70
0
3
Border (2x) ____  ____  .  ____  ____  .  ___
72
65
73
6
40
88.9
49
25.4
74
0
49
-12.7
74
0
49
25.4
74
0
49
-12.7
74
0
49
0
74
0
49
-12.7
74
0
0
LTYPE
5
41
330
5
100
AcDbSymbolTableRecord
100
AcDbLinetypeTableRecord
2
CENTER
70
0
3
Center ____ _ ____ _ ____ _ ____ _ ____ _ ____
72
65
73
4
40
50.8
49
31.75
74
0
49
-6.35
74
0
49
6.35
74
0
49
-6.35
74
0
0
LTYPE
5
42
330
5
100
AcDbSymbolTableRecord
100
AcDbLinetypeTableRecord
2
CENTER2
70
0
3
Center (.5x) ___ _ ___ _ ___ _ ___ _ ___ _ ___
72
65
73
4
40
28.575
49
19.05
74
0
49
-3.175
74
0
49
3.175
74
0
49
-3.175
74
0
0
LTYPE
5
43
330
5
100
AcDbSymbolTableRecord
100
AcDbLinetypeTableRecord
2
CENTERX2
70
0
3
Center (2x) ________  __  ________  __  _____
72
65
73
4
40
101.6
49
63.5
74
0
49
-12.7
74
0
49
12.7
74
0
49
-12.7
74
0
0
ENDTAB
0
TABLE
2
LAYER
5
2
330
0
100
AcDbSymbolTable
70
1
0
LAYER
5
10
330
2
100
AcDbSymbolTableRecord
100
AcDbLayerTableRecord
2
0
70
1
62
256
6
CONTINUOUS
370
-3
390
F
0
LAYER
5
44
330
2
100
AcDbSymbolTableRecord
100
AcDbLayerTableRecord
2
Shadow-mask
70
5
62
2
6
CONTINUOUS
370
0
390
F
0
LAYER
5
45
330
2
100
AcDbSymbolTableRecord
100
AcDbLayerTableRecord
2
TCO
70
0
62
1
6
CONTINUOUS
370
-3
390
F
0
LAYER
5
46
330
2
100
AcDbSymbolTableRecord
100
AcDbLayerTableRecord
2
active_windows
70
1
62
4
6
CONTINUOUS
370
0
390
F
0
LAYER
5
47
330
2
100
AcDbSymbolTableRecord
100
AcDbLayerTableRecord
2
encapsulation
70
1
62
3
6
CONTINUOUS
370
0
390
F
0
LAYER
5
48
330
2
100
AcDbSymbolTableRecord
100
AcDbLayerTableRecord
2
metal_layer_evap_std
70
4
62
7
6
CONTINUOUS
370
0
390
F
0
LAYER
5
49
330
2
100
AcDbSymbolTableRecord
100
AcDbLayerTableRecord
2
pin_contacts
70
1
62
6
6
CONTINUOUS
370
-3
390
F
0
LAYER
5
4A
330
2
100
AcDbSymbolTableRecord
100
AcDbLayerTableRecord
2
quotes
70
1
62
6
6
CONTINUOUS
370
0
390
F
0
LAYER
5
4B
330
2
100
AcDbSymbolTableRecord
100
AcDbLayerTableRecord
2
safety_border
70
1
62
3
6
CONTINUOUS
370
-3
390
F
0
ENDTAB
0
TABLE
2
STYLE
5
3
330
0
100
AcDbSymbolTable
70
3
0
STYLE
5
4C
330
2
100
AcDbSymbolTableRecord
100
AcDbTextStyleTableRecord
2
standard
70
0
40
0
41
1
50
0
71
0
42
1
3
standard
4

0
ENDTAB
0
TABLE
2
VIEW
5
6
330
0
100
AcDbSymbolTable
70
0
0
ENDTAB
0
TABLE
2
UCS
5
7
330
0
100
AcDbSymbolTable
70
0
0
ENDTAB
0
TABLE
2
APPID
5
9
330
0
100
AcDbSymbolTable
70
1
0
APPID
5
12
330
9
100
AcDbSymbolTableRecord
100
AcDbRegAppTableRecord
2
ACAD
70
0
0
ENDTAB
0
TABLE
2
DIMSTYLE
5
A
330
0
100
AcDbSymbolTable
70
1
100
AcDbDimStyleTable
71
1
0
DIMSTYLE
105
4D
330
A
100
AcDbSymbolTableRecord
100
AcDbDimStyleTableRecord
2
Standard
70
0
40
1
41
2.5
42
0.625
43
0.38
44
1.25
45
0
46
0
47
0
48
0
140
2.5
141
0.09
142
0
143
25.4
144
1
145
0
146
1
147
0.625
148
0
71
0
72
0
73
0
74
1
75
0
76
0
77
0
78
0
79
0
170
0
171
2
172
0
173
0
174
0
175
0
176
0
177
0
178
0
179
0
271
4
272
4
273
2
274
2
275
0
276
0
277
2
278
46
279
0
280
0
281
0
282
0
283
1
284
0
285
0
286
0
288
0
289
3
340
Standard
341

371
-2
372
-2
0
ENDTAB
0
TABLE
2
BLOCK_RECORD
5
1
330
0
100
AcDbSymbolTable
70
2
0
BLOCK_RECORD
5
1F
330
1
100
AcDbSymbolTableRecord
100
AcDbBlockTableRecord
2
*Model_Space
70
0
280
1
281
0
0
BLOCK_RECORD
5
1E
330
1
100
AcDbSymbolTableRecord
100
AcDbBlockTableRecord
2
*Paper_Space
70
0
280
1
281
0
0
BLOCK_RECORD
5
4E
330
1
100
AcDbSymbolTableRecord
100
AcDbBlockTableRecord
2
*D3
70
0
280
1
281
0
0
BLOCK_RECORD
5
51
330
1
100
AcDbSymbolTableRecord
100
AcDbBlockTableRecord
2
*D1
70
0
280
1
281
0
0
BLOCK_RECORD
5
54
330
1
100
AcDbSymbolTableRecord
100
AcDbBlockTableRecord
2
*D4
70
0
280
1
281
0
0
BLOCK_RECORD
5
57
330
1
100
AcDbSymbolTableRecord
100
AcDbBlockTableRecord
2
*D2
70
0
280
1
281
0
0
BLOCK_RECORD
5
5A
330
1
100
AcDbSymbolTableRecord
100
AcDbBlockTableRecord
2
*D6
70
0
280
1
281
0
0
BLOCK_RECORD
5
5D
330
1
100
AcDbSymbolTableRecord
100
AcDbBlockTableRecord
2
*D7
70
0
280
1
281
0
0
BLOCK_RECORD
5
60
330
1
100
AcDbSymbolTableRecord
100
AcDbBlockTableRecord
2
*D5
70
0
280
1
281
0
0
ENDTAB
0
ENDSEC
0
SECTION
2
BLOCKS
0
BLOCK
5
20
330
1F
100
AcDbEntity
8
0
100
AcDbBlockBegin
2
*Model_Space
70
0
10
0
20
0
30
0
3
*Model_Space
1

0
ENDBLK
5
21
330
1F
100
AcDbEntity
8
0
100
AcDbBlockEnd
0
BLOCK
5
1C
330
1B
100
AcDbEntity
8
0
100
AcDbBlockBegin
2
*Paper_Space
70
0
10
0
20
0
30
0
3
*Paper_Space
1

0
ENDBLK
5
1D
330
1F
100
AcDbEntity
8
0
100
AcDbBlockEnd
0
BLOCK
5
4F
330
4E
100
AcDbEntity
8
0
100
AcDbBlockBegin
2
*D3
70
1
10
0
20
0
3
*D3
1

0
LINE
5
63
100
AcDbEntity
8
quotes
6
CONTINUOUS
62
7
370
0
100
AcDbLine
10
-3
20
-18.5739720988
11
8
21
-18.5739720988
0
SOLID
5
64
100
AcDbEntity
8
quotes
6
CONTINUOUS
62
7
370
0
100
AcDbTrace
10
2
20
-18.5739720988
30
0
11
-0.5
21
-18.9902567566
31
0
12
-0.5
22
-18.157687441
32
0
13
-0.5
23
-18.157687441
33
0
0
SOLID
5
65
100
AcDbEntity
8
quotes
6
CONTINUOUS
62
7
370
0
100
AcDbTrace
10
3
20
-18.5739720988
30
0
11
5.5
21
-18.157687441
31
0
12
5.5
22
-18.9902567566
32
0
13
5.5
23
-18.9902567566
33
0
0
MTEXT
5
66
100
AcDbEntity
8
quotes
6
CONTINUOUS
62
7
370
0
100
AcDbMText
10
2.5
20
-16.6989720988
30
0
40
2.5
41
0.555555555556
71
5
72
1
1
1
7
standard
210
0
220
0
230
1
50
0
73
2
44
1
0
LINE
5
67
100
AcDbEntity
8
quotes
6
CONTINUOUS
62
7
370
0
100
AcDbLine
10
2
20
-8.625
11
2
21
-19.8239720988
0
LINE
5
68
100
AcDbEntity
8
quotes
6
CONTINUOUS
62
7
370
0
100
AcDbLine
10
3
20
-8.625
11
3
21
-19.8239720988
0
ENDBLK
5
50
330
4E
100
AcDbEntity
8
0
100
AcDbBlockEnd
0
BLOCK
5
52
330
51
100
AcDbEntity
8
0
100
AcDbBlockBegin
2
*D1
70
1
10
0
20
0
3
*D1
1

0
LINE
5
69
100
AcDbEntity
8
quotes
6
CONTINUOUS
62
7
370
0
100
AcDbLine
10
-19.3100834354
20
13
11
-19.3100834354
21
-2
0
SOLID
5
6A
100
AcDbEntity
8
quotes
6
CONTINUOUS
62
7
370
0
100
AcDbTrace
10
-19.3100834354
20
8
30
0
11
-19.7263680932
21
10.5
31
0
12
-18.8937987776
22
10.5
32
0
13
-18.8937987776
23
10.5
33
0
0
SOLID
5
6B
100
AcDbEntity
8
quotes
6
CONTINUOUS
62
7
370
0
100
AcDbTrace
10
-19.3100834354
20
3
30
0
11
-18.8937987776
21
0.5
31
0
12
-19.7263680932
22
0.5
32
0
13
-19.7263680932
23
0.5
33
0
0
MTEXT
5
6C
100
AcDbEntity
8
quotes
6
CONTINUOUS
62
7
370
0
100
AcDbMText
10
-21.1850834354
20
5.5
30
0
40
2.5
41
1.11111111111
71
5
72
1
1
5
7
standard
210
0
220
0
230
1
50
90
73
2
44
1
0
LINE
5
6D
100
AcDbEntity
8
quotes
6
CONTINUOUS
62
7
370
0
100
AcDbLine
10
-14.625
20
8
11
-20.5600834354
21
8
0
LINE
5
6E
100
AcDbEntity
8
quotes
6
CONTINUOUS
62
7
370
0
100
AcDbLine
10
-14.625
20
3
11
-20.5600834354
21
3
0
ENDBLK
5
53
330
51
100
AcDbEntity
8
0
100
AcDbBlockEnd
0
BLOCK
5
55
330
54
100
AcDbEntity
8
0
100
AcDbBlockBegin
2
*D4
70
1
10
0
20
0
3
*D4
1

0
LINE
5
6F
100
AcDbEntity
8
quotes
6
CONTINUOUS
62
7
370
0
100
AcDbLine
10
-13
20
15.3932863698
11
-1
21
15.3932863698
0
SOLID
5
70
100
AcDbEntity
8
quotes
6
CONTINUOUS
62
7
370
0
100
AcDbTrace
10
-8
20
15.3932863698
30
0
11
-10.5
21
14.977001712
31
0
12
-10.5
22
15.8095710276
32
0
13
-10.5
23
15.8095710276
33
0
0
SOLID
5
71
100
AcDbEntity
8
quotes
6
CONTINUOUS
62
7
370
0
100
AcDbTrace
10
-6
20
15.3932863698
30
0
11
-3.5
21
15.8095710276
31
0
12
-3.5
22
14.977001712
32
0
13
-3.5
23
14.977001712
33
0
0
MTEXT
5
72
100
AcDbEntity
8
quotes
6
CONTINUOUS
62
7
370
0
100
AcDbMText
10
-7
20
17.2682863698
30
0
40
2.5
41
1.11111111111
71
5
72
1
1
2
7
standard
210
0
220
0
230
1
50
0
73
2
44
1
0
LINE
5
73
100
AcDbEntity
8
quotes
6
CONTINUOUS
62
7
370
0
100
AcDbLine
10
-8
20
9.625
11
-8
21
16.6432863698
0
LINE
5
74
100
AcDbEntity
8
quotes
6
CONTINUOUS
62
7
370
0
100
AcDbLine
10
-6
20
9.625
11
-6
21
16.6432863698
0
ENDBLK
5
56
330
54
100
AcDbEntity
8
0
100
AcDbBlockEnd
0
BLOCK
5
58
330
57
100
AcDbEntity
8
0
100
AcDbBlockBegin
2
*D2
70
1
10
0
20
0
3
*D2
1

0
LINE
5
75
100
AcDbEntity
8
quotes
6
CONTINUOUS
62
7
370
0
100
AcDbLine
10
-16.1602116694
20
-2
11
-16.1602116694
21
-13
0
SOLID
5
76
100
AcDbEntity
8
quotes
6
CONTINUOUS
62
7
370
0
100
AcDbTrace
10
-16.1602116694
20
-7
30
0
11
-16.5764963272
21
-4.5
31
0
12
-15.7439270116
22
-4.5
32
0
13
-15.7439270116
23
-4.5
33
0
0
SOLID
5
77
100
AcDbEntity
8
quotes
6
CONTINUOUS
62
7
370
0
100
AcDbTrace
10
-16.1602116694
20
-8
30
0
11
-15.7439270116
21
-10.5
31
0
12
-16.5764963272
22
-10.5
32
0
13
-16.5764963272
23
-10.5
33
0
0
MTEXT
5
78
100
AcDbEntity
8
quotes
6
CONTINUOUS
62
7
370
0
100
AcDbMText
10
-18.0352116694
20
-7.5
30
0
40
2.5
41
0.555555555556
71
5
72
1
1
1
7
standard
210
0
220
0
230
1
50
90
73
2
44
1
0
LINE
5
79
100
AcDbEntity
8
quotes
6
CONTINUOUS
62
7
370
0
100
AcDbLine
10
1.375
20
-7
11
-17.4102116694
21
-7
0
LINE
5
7A
100
AcDbEntity
8
quotes
6
CONTINUOUS
62
7
370
0
100
AcDbLine
10
1.375
20
-8
11
-17.4102116694
21
-8
0
ENDBLK
5
59
330
57
100
AcDbEntity
8
0
100
AcDbBlockEnd
0
BLOCK
5
5B
330
5A
100
AcDbEntity
8
0
100
AcDbBlockBegin
2
*D6
70
1
10
0
20
0
3
*D6
1

0
LINE
5
7B
100
AcDbEntity
8
quotes
6
CONTINUOUS
62
7
370
0
100
AcDbLine
10
19.4470343818
20
9
11
19.4470343818
21
2
0
SOLID
5
7C
100
AcDbEntity
8
quotes
6
CONTINUOUS
62
7
370
0
100
AcDbTrace
10
19.4470343818
20
9
30
0
11
19.8633190396
21
6.5
31
0
12
19.030749724
22
6.5
32
0
13
19.030749724
23
6.5
33
0
0
SOLID
5
7D
100
AcDbEntity
8
quotes
6
CONTINUOUS
62
7
370
0
100
AcDbTrace
10
19.4470343818
20
2
30
0
11
19.030749724
21
4.5
31
0
12
19.8633190396
22
4.5
32
0
13
19.8633190396
23
4.5
33
0
0
MTEXT
5
7E
100
AcDbEntity
8
quotes
6
CONTINUOUS
62
7
370
0
100
AcDbMText
10
17.5720343818
20
5.5
30
0
40
2.5
41
1.11111111111
71
5
72
1
1
7
7
standard
210
0
220
0
230
1
50
90
73
2
44
1
0
LINE
5
7F
100
AcDbEntity
8
quotes
6
CONTINUOUS
62
7
370
0
100
AcDbLine
10
9.125
20
9
11
20.6970343818
21
9
0
LINE
5
80
100
AcDbEntity
8
quotes
6
CONTINUOUS
62
7
370
0
100
AcDbLine
10
9.125
20
2
11
20.6970343818
21
2
0
ENDBLK
5
5C
330
5A
100
AcDbEntity
8
0
100
AcDbBlockEnd
0
BLOCK
5
5E
330
5D
100
AcDbEntity
8
0
100
AcDbBlockBegin
2
*D7
70
1
10
0
20
0
3
*D7
1

0
LINE
5
81
100
AcDbEntity
8
quotes
6
CONTINUOUS
62
7
370
0
100
AcDbLine
10
-31
20
-18.5739720988
11
-20
21
-18.5739720988
0
SOLID
5
82
100
AcDbEntity
8
quotes
6
CONTINUOUS
62
7
370
0
100
AcDbTrace
10
-26
20
-18.5739720988
30
0
11
-28.5
21
-18.9902567566
31
0
12
-28.5
22
-18.157687441
32
0
13
-28.5
23
-18.157687441
33
0
0
SOLID
5
83
100
AcDbEntity
8
quotes
6
CONTINUOUS
62
7
370
0
100
AcDbTrace
10
-25
20
-18.5739720988
30
0
11
-22.5
21
-18.157687441
31
0
12
-22.5
22
-18.9902567566
32
0
13
-22.5
23
-18.9902567566
33
0
0
MTEXT
5
84
100
AcDbEntity
8
quotes
6
CONTINUOUS
62
7
370
0
100
AcDbMText
10
-25.5
20
-16.6989720988
30
0
40
2.5
41
0.555555555556
71
5
72
1
1
1
7
standard
210
0
220
0
230
1
50
0
73
2
44
1
0
LINE
5
85
100
AcDbEntity
8
quotes
6
CONTINUOUS
62
7
370
0
100
AcDbLine
10
-26
20
-8.625
11
-26
21
-19.8239720988
0
LINE
5
86
100
AcDbEntity
8
quotes
6
CONTINUOUS
62
7
370
0
100
AcDbLine
10
-25
20
-8.625
11
-25
21
-19.8239720988
0
ENDBLK
5
5F
330
5D
100
AcDbEntity
8
0
100
AcDbBlockEnd
0
BLOCK
5
61
330
60
100
AcDbEntity
8
0
100
AcDbBlockBegin
2
*D5
70
1
10
0
20
0
3
*D5
1

0
LINE
5
87
100
AcDbEntity
8
quotes
6
CONTINUOUS
62
7
370
0
100
AcDbLine
10
-13.5
20
19.9434815623
11
-0.5
21
19.9434815623
0
SOLID
5
88
100
AcDbEntity
8
quotes
6
CONTINUOUS
62
7
370
0
100
AcDbTrace
10
-8.5
20
19.9434815623
30
0
11
-11
21
19.5271969045
31
0
12
-11
22
20.3597662201
32
0
13
-11
23
20.3597662201
33
0
0
SOLID
5
89
100
AcDbEntity
8
quotes
6
CONTINUOUS
62
7
370
0
100
AcDbTrace
10
-5.5
20
19.9434815623
30
0
11
-3
21
20.3597662201
31
0
12
-3
22
19.5271969045
32
0
13
-3
23
19.5271969045
33
0
0
MTEXT
5
8A
100
AcDbEntity
8
quotes
6
CONTINUOUS
62
7
370
0
100
AcDbMText
10
-7
20
21.8184815623
30
0
40
2.5
41
1.11111111111
71
5
72
1
1
3
7
standard
210
0
220
0
230
1
50
0
73
2
44
1
0
LINE
5
8B
100
AcDbEntity
8
quotes
6
CONTINUOUS
62
7
370
0
100
AcDbLine
10
-8.5
20
9.625
11
-8.5
21
21.1934815623
0
LINE
5
8C
100
AcDbEntity
8
quotes
6
CONTINUOUS
62
7
370
0
100
AcDbLine
10
-5.5
20
9.625
11
-5.5
21
21.1934815623
0
ENDBLK
5
62
330
60
100
AcDbEntity
8
0
100
AcDbBlockEnd
0
ENDSEC
0
SECTION
2
ENTITIES
0
HATCH
5
8D
100
AcDbEntity
8
encapsulation
6
ByLayer
62
256
370
-1
100
AcDbHatch
10
0
20
0
30
0
210
0
220
0
230
1
2
SOLID
70
1
71
0
91
1
92
0
93
8
72
1
10
-169
20
-43
11
-147
21
-43
72
1
10
-147
20
-43
11
-147
21
-21
72
1
10
-147
20
-21
11
-169
21
-21
72
1
10
-169
20
-21
11
-169
21
-43
72
1
10
-148
20
-22
11
-168
21
-22
72
1
10
-168
20
-22
11
-168
21
-42
72
1
10
-168
20
-42
11
-148
21
-42
72
1
10
-148
20
-42
11
-148
21
-22
97
0
75
0
76
1
98
0
0
HATCH
5
8E
100
AcDbEntity
8
encapsulation
6
ByLayer
62
256
370
-1
100
AcDbHatch
10
0
20
0
30
0
210
0
220
0
230
1
2
SOLID
70
1
71
0
91
1
92
0
93
8
72
1
10
-197
20
-43
11
-175
21
-43
72
1
10
-175
20
-43
11
-175
21
-21
72
1
10
-175
20
-21
11
-197
21
-21
72
1
10
-197
20
-21
11
-197
21
-43
72
1
10
-176
20
-22
11
-196
21
-22
72
1
10
-196
20
-22
11
-196
21
-42
72
1
10
-196
20
-42
11
-176
21
-42
72
1
10
-176
20
-42
11
-176
21
-22
97
0
75
0
76
1
98
0
0
HATCH
5
8F
100
AcDbEntity
8
encapsulation
6
ByLayer
62
256
370
-1
100
AcDbHatch
10
0
20
0
30
0
210
0
220
0
230
1
2
SOLID
70
1
71
0
91
1
92
0
93
8
72
1
10
-169
20
-15
11
-147
21
-15
72
1
10
-147
20
-15
11
-147
21
7
72
1
10
-147
20
7
11
-169
21
7
72
1
10
-169
20
7
11
-169
21
-15
72
1
10
-148
20
6
11
-168
21
6
72
1
10
-168
20
6
11
-168
21
-14
72
1
10
-168
20
-14
11
-148
21
-14
72
1
10
-148
20
-14
11
-148
21
6
97
0
75
0
76
1
98
0
0
HATCH
5
90
100
AcDbEntity
8
encapsulation
6
ByLayer
62
256
370
-1
100
AcDbHatch
10
0
20
0
30
0
210
0
220
0
230
1
2
SOLID
70
1
71
0
91
1
92
0
93
8
72
1
10
-197
20
-15
11
-175
21
-15
72
1
10
-175
20
-15
11
-175
21
7
72
1
10
-175
20
7
11
-197
21
7
72
1
10
-197
20
7
11
-197
21
-15
72
1
10
-176
20
6
11
-196
21
6
72
1
10
-196
20
6
11
-196
21
-14
72
1
10
-196
20
-14
11
-176
21
-14
72
1
10
-176
20
-14
11
-176
21
6
97
0
75
0
76
1
98
0
0
HATCH
5
91
100
AcDbEntity
8
active_windows
6
ByLayer
62
256
370
-1
100
AcDbHatch
10
0
20
0
30
0
210
0
220
0
230
1
2
kerpele
70
0
71
0
91
1
92
0
93
32
72
1
10
-36.5
20
9
11
-33.5
21
9
72
1
10
-33.5
20
9
11
-33.5
21
2
72
1
10
-33.5
20
2
11
-36.5
21
2
72
1
10
-36.5
20
2
11
-36.5
21
9
72
1
10
-31.5
20
9
11
-29.5
21
9
72
1
10
-29.5
20
9
11
-29.5
21
6
72
1
10
-29.5
20
6
11
-31.5
21
6
72
1
10
-31.5
20
6
11
-31.5
21
9
72
1
10
-27.5
20
9
11
-24.5
21
9
72
1
10
-24.5
20
9
11
-24.5
21
2
72
1
10
-24.5
20
2
11
-27.5
21
2
72
1
10
-27.5
20
2
11
-27.5
21
9
72
1
10
-22.5
20
9
11
-19.5
21
9
72
1
10
-19.5
20
9
11
-19.5
21
2
72
1
10
-19.5
20
2
11
-22.5
21
2
72
1
10
-22.5
20
2
11
-22.5
21
9
72
1
10
-19.5
20
-9
11
-22.5
21
-9
72
1
10
-22.5
20
-9
11
-22.5
21
-2
72
1
10
-22.5
20
-2
11
-19.5
21
-2
72
1
10
-19.5
20
-2
11
-19.5
21
-9
72
1
10
-24.5
20
-9
11
-26.5
21
-9
72
1
10
-26.5
20
-9
11
-26.5
21
-6
72
1
10
-26.5
20
-6
11
-24.5
21
-6
72
1
10
-24.5
20
-6
11
-24.5
21
-9
72
1
10
-28.5
20
-9
11
-31.5
21
-9
72
1
10
-31.5
20
-9
11
-31.5
21
-2
72
1
10
-31.5
20
-2
11
-28.5
21
-2
72
1
10
-28.5
20
-2
11
-28.5
21
-9
72
1
10
-33.5
20
-9
11
-36.5
21
-9
72
1
10
-36.5
20
-9
11
-36.5
21
-2
72
1
10
-36.5
20
-2
11
-33.5
21
-2
72
1
10
-33.5
20
-2
11
-33.5
21
-9
97
0
75
0
76
1
52
1.0471975512
41
0.05
77
0
78
0
98
0
0
HATCH
5
92
100
AcDbEntity
8
active_windows
6
ByLayer
62
256
370
-1
100
AcDbHatch
10
0
20
0
30
0
210
0
220
0
230
1
2
kerpele
70
0
71
0
91
1
92
0
93
32
72
1
10
-8.5
20
9
11
-5.5
21
9
72
1
10
-5.5
20
9
11
-5.5
21
2
72
1
10
-5.5
20
2
11
-8.5
21
2
72
1
10
-8.5
20
2
11
-8.5
21
9
72
1
10
-3.5
20
9
11
-1.5
21
9
72
1
10
-1.5
20
9
11
-1.5
21
6
72
1
10
-1.5
20
6
11
-3.5
21
6
72
1
10
-3.5
20
6
11
-3.5
21
9
72
1
10
0.5
20
9
11
3.5
21
9
72
1
10
3.5
20
9
11
3.5
21
2
72
1
10
3.5
20
2
11
0.5
21
2
72
1
10
0.5
20
2
11
0.5
21
9
72
1
10
5.5
20
9
11
8.5
21
9
72
1
10
8.5
20
9
11
8.5
21
2
72
1
10
8.5
20
2
11
5.5
21
2
72
1
10
5.5
20
2
11
5.5
21
9
72
1
10
8.5
20
-9
11
5.5
21
-9
72
1
10
5.5
20
-9
11
5.5
21
-2
72
1
10
5.5
20
-2
11
8.5
21
-2
72
1
10
8.5
20
-2
11
8.5
21
-9
72
1
10
3.5
20
-9
11
1.5
21
-9
72
1
10
1.5
20
-9
11
1.5
21
-6
72
1
10
1.5
20
-6
11
3.5
21
-6
72
1
10
3.5
20
-6
11
3.5
21
-9
72
1
10
-0.5
20
-9
11
-3.5
21
-9
72
1
10
-3.5
20
-9
11
-3.5
21
-2
72
1
10
-3.5
20
-2
11
-0.5
21
-2
72
1
10
-0.5
20
-2
11
-0.5
21
-9
72
1
10
-5.5
20
-9
11
-8.5
21
-9
72
1
10
-8.5
20
-9
11
-8.5
21
-2
72
1
10
-8.5
20
-2
11
-5.5
21
-2
72
1
10
-5.5
20
-2
11
-5.5
21
-9
97
0
75
0
76
1
52
1.0471975512
41
0.05
77
0
78
0
98
0
0
HATCH
5
93
100
AcDbEntity
8
TCO
6
ByLayer
62
256
370
-1
100
AcDbHatch
10
0
20
0
30
0
210
0
220
0
230
1
2
kerpele
70
0
71
0
91
1
92
0
93
16
72
1
10
-14
20
8
11
14
21
8
72
1
10
14
20
8
11
14
21
3
72
1
10
14
20
3
11
-0.5
21
3
72
1
10
-0.5
20
3
11
-0.5
21
7
72
1
10
-0.5
20
7
11
-4.5
21
7
72
1
10
-4.5
20
7
11
-4.5
21
3
72
1
10
-4.5
20
3
11
-14
21
3
72
1
10
-14
20
3
11
-14
21
8
72
1
10
14
20
-8
11
-14
21
-8
72
1
10
-14
20
-8
11
-14
21
-3
72
1
10
-14
20
-3
11
0.5
21
-3
72
1
10
0.5
20
-3
11
0.5
21
-7
72
1
10
0.5
20
-7
11
4.5
21
-7
72
1
10
4.5
20
-7
11
4.5
21
-3
72
1
10
4.5
20
-3
11
14
21
-3
72
1
10
14
20
-3
11
14
21
-8
97
0
75
0
76
1
52
-1.57079632679
41
0.05
77
0
78
0
98
0
0
HATCH
5
94
100
AcDbEntity
8
metal_layer_evap_std
6
ByLayer
62
256
370
-1
100
AcDbHatch
10
0
20
0
30
0
210
0
220
0
230
1
2
kerpele
70
0
71
0
91
1
92
0
93
64
72
1
10
-6
20
11.2
11
-6
21
14
72
1
10
-6
20
14
11
-1
21
14
72
1
10
-1
20
14
11
-1
21
11.2
72
1
10
-1
20
11.2
11
-2
21
9
72
1
10
-2
20
9
11
-2
21
6
72
1
10
-2
20
6
11
-3
21
6
72
1
10
-3
20
6
11
-3
21
9
72
1
10
-3
20
9
11
-6
21
11.2
72
1
10
6
20
14
11
6
21
11.2
72
1
10
6
20
11.2
11
3
21
9
72
1
10
3
20
9
11
3
21
2
72
1
10
3
20
2
11
1
21
2
72
1
10
1
20
2
11
1
21
9
72
1
10
1
20
9
11
1
21
11.2
72
1
10
1
20
11.2
11
1
21
14
72
1
10
1
20
14
11
6
21
14
72
1
10
13
20
14
11
13
21
11.2
72
1
10
13
20
11.2
11
8
21
9
72
1
10
8
20
9
11
8
21
2
72
1
10
8
20
2
11
6
21
2
72
1
10
6
20
2
11
6
21
9
72
1
10
6
20
9
11
8
21
11.2
72
1
10
8
20
11.2
11
8
21
14
72
1
10
8
20
14
11
13
21
14
72
1
10
-8
20
14
11
-13
21
14
72
1
10
-13
20
14
11
-13
21
11.2
72
1
10
-13
20
11.2
11
-8
21
9
72
1
10
-8
20
9
11
-8
21
2
72
1
10
-8
20
2
11
-6
21
2
72
1
10
-6
20
2
11
-6
21
9
72
1
10
-6
20
9
11
-8
21
11.2
72
1
10
-8
20
11.2
11
-8
21
14
72
1
10
-6
20
-11.2
11
-6
21
-14
72
1
10
-6
20
-14
11
-1
21
-14
72
1
10
-1
20
-14
11
-1
21
-11.2
72
1
10
-1
20
-11.2
11
-1
21
-9
72
1
10
-1
20
-9
11
-1
21
-2
72
1
10
-1
20
-2
11
-3
21
-2
72
1
10
-3
20
-2
11
-3
21
-9
72
1
10
-3
20
-9
11
-6
21
-11.2
72
1
10
6
20
-14
11
6
21
-11.2
72
1
10
6
20
-11.2
11
3
21
-9
72
1
10
3
20
-9
11
3
21
-6
72
1
10
3
20
-6
11
2
21
-6
72
1
10
2
20
-6
11
2
21
-9
72
1
10
2
20
-9
11
1
21
-11.2
72
1
10
1
20
-11.2
11
1
21
-14
72
1
10
1
20
-14
11
6
21
-14
72
1
10
13
20
-14
11
13
21
-11.2
72
1
10
13
20
-11.2
11
8
21
-9
72
1
10
8
20
-9
11
8
21
-2
72
1
10
8
20
-2
11
6
21
-2
72
1
10
6
20
-2
11
6
21
-9
72
1
10
6
20
-9
11
8
21
-11.2
72
1
10
8
20
-11.2
11
8
21
-14
72
1
10
8
20
-14
11
13
21
-14
72
1
10
-8
20
-14
11
-13
21
-14
72
1
10
-13
20
-14
11
-13
21
-11.2
72
1
10
-13
20
-11.2
11
-8
21
-9
72
1
10
-8
20
-9
11
-8
21
-2
72
1
10
-8
20
-2
11
-6
21
-2
72
1
10
-6
20
-2
11
-6
21
-9
72
1
10
-6
20
-9
11
-8
21
-11.2
72
1
10
-8
20
-11.2
11
-8
21
-14
97
0
75
0
76
1
52
0
41
0.05
77
0
78
0
98
0
0
HATCH
5
95
100
AcDbEntity
8
metal_layer_evap_std
6
ByLayer
62
256
370
-1
100
AcDbHatch
10
0
20
0
30
0
210
0
220
0
230
1
2
SOLID
70
1
71
0
91
1
92
0
93
60
72
1
10
-14
20
-6
11
-14
21
6
72
1
10
-14
20
6
11
-12
21
6
72
1
10
-12
20
6
11
-12
21
2
72
1
10
-12
20
2
11
-11
21
2
72
1
10
-11
20
2
11
-11
21
1
72
1
10
-11
20
1
11
-10
21
1
72
1
10
-10
20
1
11
-10
21
9
72
1
10
-10
20
9
11
-9
21
9
72
1
10
-9
20
9
11
-9
21
1
72
1
10
-9
20
1
11
-5
21
1
72
1
10
-5
20
1
11
-5
21
9
72
1
10
-5
20
9
11
-4
21
9
72
1
10
-4
20
9
11
-4
21
5
72
1
10
-4
20
5
11
-1
21
5
72
1
10
-1
20
5
11
-1
21
9
72
1
10
-1
20
9
11
0
21
9
72
1
10
0
20
9
11
0
21
1
72
1
10
0
20
1
11
4
21
1
72
1
10
4
20
1
11
4
21
9
72
1
10
4
20
9
11
5
21
9
72
1
10
5
20
9
11
5
21
1
72
1
10
5
20
1
11
9
21
1
72
1
10
9
20
1
11
9
21
9
72
1
10
9
20
9
11
10
21
9
72
1
10
10
20
9
11
10
21
1
72
1
10
10
20
1
11
11
21
1
72
1
10
11
20
1
11
11
21
2
72
1
10
11
20
2
11
12
21
2
72
1
10
12
20
2
11
12
21
6
72
1
10
12
20
6
11
14
21
6
72
1
10
14
20
6
11
14
21
-6
72
1
10
14
20
-6
11
12
21
-6
72
1
10
12
20
-6
11
12
21
-2
72
1
10
12
20
-2
11
11
21
-2
72
1
10
11
20
-2
11
11
21
-1
72
1
10
11
20
-1
11
10
21
-1
72
1
10
10
20
-1
11
10
21
-9
72
1
10
10
20
-9
11
9
21
-9
72
1
10
9
20
-9
11
9
21
-1
72
1
10
9
20
-1
11
5
21
-1
72
1
10
5
20
-1
11
5
21
-9
72
1
10
5
20
-9
11
4
21
-9
72
1
10
4
20
-9
11
4
21
-5
72
1
10
4
20
-5
11
1
21
-5
72
1
10
1
20
-5
11
1
21
-9
72
1
10
1
20
-9
11
0
21
-9
72
1
10
0
20
-9
11
0
21
-1
72
1
10
0
20
-1
11
-4
21
-1
72
1
10
-4
20
-1
11
-4
21
-9
72
1
10
-4
20
-9
11
-5
21
-9
72
1
10
-5
20
-9
11
-5
21
-1
72
1
10
-5
20
-1
11
-9
21
-1
72
1
10
-9
20
-1
11
-9
21
-9
72
1
10
-9
20
-9
11
-10
21
-9
72
1
10
-10
20
-9
11
-10
21
-1
72
1
10
-10
20
-1
11
-11
21
-1
72
1
10
-11
20
-1
11
-11
21
-2
72
1
10
-11
20
-2
11
-12
21
-2
72
1
10
-12
20
-2
11
-12
21
-6
72
1
10
-12
20
-6
11
-14
21
-6
97
0
75
0
76
1
98
0
0
HATCH
5
96
100
AcDbEntity
8
encapsulation
6
ByLayer
62
256
370
-1
100
AcDbHatch
10
0
20
0
30
0
210
0
220
0
230
1
2
SOLID
70
1
71
0
91
1
92
0
93
8
72
1
10
-11
20
-11
11
11
21
-11
72
1
10
11
20
-11
11
11
21
11
72
1
10
11
20
11
11
-11
21
11
72
1
10
-11
20
11
11
-11
21
-11
72
1
10
10
20
10
11
-10
21
10
72
1
10
-10
20
10
11
-10
21
-10
72
1
10
-10
20
-10
11
10
21
-10
72
1
10
10
20
-10
11
10
21
10
97
0
75
0
76
1
98
0
0
LINE
5
97
100
AcDbEntity
8
0
6
ByLayer
62
256
370
-1
100
AcDbLine
10
-14
20
-14
11
14
21
-14
0
LINE
5
98
100
AcDbEntity
8
0
6
ByLayer
62
256
370
-1
100
AcDbLine
10
14
20
-14
11
14
21
14
0
LINE
5
99
100
AcDbEntity
8
0
6
ByLayer
62
256
370
-1
100
AcDbLine
10
14
20
14
11
-14
21
14
0
LINE
5
9A
100
AcDbEntity
8
0
6
ByLayer
62
256
370
-1
100
AcDbLine
10
-14
20
14
11
-14
21
-14
0
CIRCLE
5
9B
100
AcDbEntity
8
pin_contacts
6
ByLayer
62
256
370
-1
100
AcDbCircle
10
-12.73
20
0
40
0.87
0
CIRCLE
5
9C
100
AcDbEntity
8
pin_contacts
6
ByLayer
62
256
370
-1
100
AcDbCircle
10
12.73
20
0
40
0.87
0
CIRCLE
5
9D
100
AcDbEntity
8
pin_contacts
6
ByLayer
62
256
370
-1
100
AcDbCircle
10
-11.78
20
-12.744
40
0.87
0
CIRCLE
5
9E
100
AcDbEntity
8
pin_contacts
6
ByLayer
62
256
370
-1
100
AcDbCircle
10
-9.22
20
-12.744
40
0.87
0
CIRCLE
5
9F
100
AcDbEntity
8
pin_contacts
6
ByLayer
62
256
370
-1
100
AcDbCircle
10
-4.77
20
-12.744
40
0.87
0
CIRCLE
5
A0
100
AcDbEntity
8
pin_contacts
6
ByLayer
62
256
370
-1
100
AcDbCircle
10
-2.24
20
-12.744
40
0.87
0
CIRCLE
5
A1
100
AcDbEntity
8
pin_contacts
6
ByLayer
62
256
370
-1
100
AcDbCircle
10
2.23
20
-12.744
40
0.87
0
CIRCLE
5
A2
100
AcDbEntity
8
pin_contacts
6
ByLayer
62
256
370
-1
100
AcDbCircle
10
4.77
20
-12.744
40
0.87
0
CIRCLE
5
A3
100
AcDbEntity
8
pin_contacts
6
ByLayer
62
256
370
-1
100
AcDbCircle
10
9.23
20
-12.744
40
0.87
0
CIRCLE
5
A4
100
AcDbEntity
8
pin_contacts
6
ByLayer
62
256
370
-1
100
AcDbCircle
10
11.77
20
-12.744
40
0.87
0
CIRCLE
5
A5
100
AcDbEntity
8
pin_contacts
6
ByLayer
62
256
370
-1
100
AcDbCircle
10
-11.78
20
12.744
40
0.87
0
CIRCLE
5
A6
100
AcDbEntity
8
pin_contacts
6
ByLayer
62
256
370
-1
100
AcDbCircle
10
-9.22
20
12.744
40
0.87
0
CIRCLE
5
A7
100
AcDbEntity
8
pin_contacts
6
ByLayer
62
256
370
-1
100
AcDbCircle
10
-4.77
20
12.744
40
0.87
0
CIRCLE
5
A8
100
AcDbEntity
8
pin_contacts
6
ByLayer
62
256
370
-1
100
AcDbCircle
10
-2.24
20
12.744
40
0.87
0
CIRCLE
5
A9
100
AcDbEntity
8
pin_contacts
6
ByLayer
62
256
370
-1
100
AcDbCircle
10
2.23
20
12.744
40
0.87
0
CIRCLE
5
AA
100
AcDbEntity
8
pin_contacts
6
ByLayer
62
256
370
-1
100
AcDbCircle
10
4.77
20
12.744
40
0.87
0
CIRCLE
5
AB
100
AcDbEntity
8
pin_contacts
6
ByLayer
62
256
370
-1
100
AcDbCircle
10
9.23
20
12.744
40
0.87
0
CIRCLE
5
AC
100
AcDbEntity
8
pin_contacts
6
ByLayer
62
256
370
-1
100
AcDbCircle
10
11.77
20
12.744
40
0.87
0
LWPOLYLINE
5
AD
100
AcDbEntity
8
safety_border
6
ByLayer
62
256
370
-1
100
AcDbPolyline
90
4
70
1
43
0
10
-10
20
-10
10
10
20
-10
10
10
20
10
10
-10
20
10
0
LINE
5
AE
100
AcDbEntity
8
encapsulation
6
ByLayer
62
256
370
-1
100
AcDbLine
10
-11
20
-11
11
11
21
-11
0
LINE
5
AF
100
AcDbEntity
8
encapsulation
6
ByLayer
62
256
370
-1
100
AcDbLine
10
11
20
-11
11
11
21
11
0
LINE
5
B0
100
AcDbEntity
8
encapsulation
6
ByLayer
62
256
370
-1
100
AcDbLine
10
11
20
11
11
-11
21
11
0
LINE
5
B1
100
AcDbEntity
8
encapsulation
6
ByLayer
62
256
370
-1
100
AcDbLine
10
-11
20
11
11
-11
21
-11
0
LINE
5
B2
100
AcDbEntity
8
encapsulation
6
ByLayer
62
256
370
-1
100
AcDbLine
10
10
20
10
11
-10
21
10
0
LINE
5
B3
100
AcDbEntity
8
encapsulation
6
ByLayer
62
256
370
-1
100
AcDbLine
10
-10
20
10
11
-10
21
-10
0
LINE
5
B4
100
AcDbEntity
8
encapsulation
6
ByLayer
62
256
370
-1
100
AcDbLine
10
10
20
-10
11
10
21
10
0
LINE
5
B5
100
AcDbEntity
8
metal_layer_evap_std
6
ByLayer
62
256
370
-1
100
AcDbLine
10
-14
20
-6
11
-14
21
6
0
LINE
5
B6
100
AcDbEntity
8
metal_layer_evap_std
6
ByLayer
62
256
370
-1
100
AcDbLine
10
-14
20
6
11
-12
21
6
0
LINE
5
B7
100
AcDbEntity
8
metal_layer_evap_std
6
ByLayer
62
256
370
-1
100
AcDbLine
10
-12
20
6
11
-12
21
2
0
LINE
5
B8
100
AcDbEntity
8
metal_layer_evap_std
6
ByLayer
62
256
370
-1
100
AcDbLine
10
14
20
6
11
14
21
-6
0
LINE
5
B9
100
AcDbEntity
8
metal_layer_evap_std
6
ByLayer
62
256
370
-1
100
AcDbLine
10
12
20
6
11
14
21
6
0
LINE
5
BA
100
AcDbEntity
8
metal_layer_evap_std
6
ByLayer
62
256
370
-1
100
AcDbLine
10
-6
20
11.2
11
-6
21
14
0
LINE
5
BB
100
AcDbEntity
8
metal_layer_evap_std
6
ByLayer
62
256
370
-1
100
AcDbLine
10
-1
20
14
11
-1
21
11.2
0
LINE
5
BC
100
AcDbEntity
8
metal_layer_evap_std
6
ByLayer
62
256
370
-1
100
AcDbLine
10
6
20
14
11
6
21
11.2
0
LINE
5
BD
100
AcDbEntity
8
metal_layer_evap_std
6
ByLayer
62
256
370
-1
100
AcDbLine
10
1
20
11.2
11
1
21
14
0
LINE
5
BE
100
AcDbEntity
8
metal_layer_evap_std
6
ByLayer
62
256
370
-1
100
AcDbLine
10
1
20
14
11
6
21
14
0
LINE
5
BF
100
AcDbEntity
8
metal_layer_evap_std
6
ByLayer
62
256
370
-1
100
AcDbLine
10
13
20
14
11
13
21
11.2
0
LINE
5
C0
100
AcDbEntity
8
metal_layer_evap_std
6
ByLayer
62
256
370
-1
100
AcDbLine
10
8
20
14
11
13
21
14
0
LINE
5
C1
100
AcDbEntity
8
metal_layer_evap_std
6
ByLayer
62
256
370
-1
100
AcDbLine
10
-8
20
14
11
-13
21
14
0
LINE
5
C2
100
AcDbEntity
8
metal_layer_evap_std
6
ByLayer
62
256
370
-1
100
AcDbLine
10
-13
20
14
11
-13
21
11.2
0
LINE
5
C3
100
AcDbEntity
8
metal_layer_evap_std
6
ByLayer
62
256
370
-1
100
AcDbLine
10
-8
20
11.2
11
-8
21
14
0
LINE
5
C4
100
AcDbEntity
8
metal_layer_evap_std
6
ByLayer
62
256
370
-1
100
AcDbLine
10
8
20
11.2
11
8
21
14
0
LINE
5
C5
100
AcDbEntity
8
encapsulation
6
ByLayer
62
256
370
-1
100
AcDbLine
10
-11
20
11
11
11
21
11
0
LINE
5
C6
100
AcDbEntity
8
encapsulation
6
ByLayer
62
256
370
-1
100
AcDbLine
10
11
20
11
11
11
21
-11
0
LINE
5
C7
100
AcDbEntity
8
encapsulation
6
ByLayer
62
256
370
-1
100
AcDbLine
10
11
20
-11
11
-11
21
-11
0
LINE
5
C8
100
AcDbEntity
8
encapsulation
6
ByLayer
62
256
370
-1
100
AcDbLine
10
-11
20
-11
11
-11
21
11
0
LINE
5
C9
100
AcDbEntity
8
encapsulation
6
ByLayer
62
256
370
-1
100
AcDbLine
10
-10
20
10
11
10
21
10
0
LINE
5
CA
100
AcDbEntity
8
encapsulation
6
ByLayer
62
256
370
-1
100
AcDbLine
10
10
20
10
11
10
21
-10
0
LINE
5
CB
100
AcDbEntity
8
encapsulation
6
ByLayer
62
256
370
-1
100
AcDbLine
10
10
20
-10
11
-10
21
-10
0
LINE
5
CC
100
AcDbEntity
8
encapsulation
6
ByLayer
62
256
370
-1
100
AcDbLine
10
-10
20
-10
11
-10
21
10
0
LINE
5
CD
100
AcDbEntity
8
metal_layer_evap_std
6
ByLayer
62
256
370
-1
100
AcDbLine
10
-6
20
14
11
-1
21
14
0
LINE
5
CE
100
AcDbEntity
8
metal_layer_evap_std
6
ByLayer
62
256
370
-1
100
AcDbLine
10
-6
20
-11.2
11
-6
21
-14
0
LINE
5
CF
100
AcDbEntity
8
metal_layer_evap_std
6
ByLayer
62
256
370
-1
100
AcDbLine
10
-1
20
-14
11
-1
21
-11.2
0
LINE
5
D0
100
AcDbEntity
8
metal_layer_evap_std
6
ByLayer
62
256
370
-1
100
AcDbLine
10
6
20
-14
11
6
21
-11.2
0
LINE
5
D1
100
AcDbEntity
8
metal_layer_evap_std
6
ByLayer
62
256
370
-1
100
AcDbLine
10
1
20
-11.2
11
1
21
-14
0
LINE
5
D2
100
AcDbEntity
8
metal_layer_evap_std
6
ByLayer
62
256
370
-1
100
AcDbLine
10
1
20
-14
11
6
21
-14
0
LINE
5
D3
100
AcDbEntity
8
metal_layer_evap_std
6
ByLayer
62
256
370
-1
100
AcDbLine
10
13
20
-14
11
13
21
-11.2
0
LINE
5
D4
100
AcDbEntity
8
metal_layer_evap_std
6
ByLayer
62
256
370
-1
100
AcDbLine
10
8
20
-14
11
13
21
-14
0
LINE
5
D5
100
AcDbEntity
8
metal_layer_evap_std
6
ByLayer
62
256
370
-1
100
AcDbLine
10
-8
20
-14
11
-13
21
-14
0
LINE
5
D6
100
AcDbEntity
8
metal_layer_evap_std
6
ByLayer
62
256
370
-1
100
AcDbLine
10
-13
20
-14
11
-13
21
-11.2
0
LINE
5
D7
100
AcDbEntity
8
metal_layer_evap_std
6
ByLayer
62
256
370
-1
100
AcDbLine
10
-8
20
-11.2
11
-8
21
-14
0
LINE
5
D8
100
AcDbEntity
8
metal_layer_evap_std
6
ByLayer
62
256
370
-1
100
AcDbLine
10
8
20
-11.2
11
8
21
-14
0
LINE
5
D9
100
AcDbEntity
8
metal_layer_evap_std
6
ByLayer
62
256
370
-1
100
AcDbLine
10
-6
20
-14
11
-1
21
-14
0
MTEXT
5
DA
100
AcDbEntity
8
active_windows
6
ByLayer
62
256
370
-1
100
AcDbMText
10
28.3769222737
20
13.9701771193
30
0
40
2
41
17.7777777778
71
1
72
1
1
Active_layer
7
standard
210
0
220
0
230
1
50
0
73
2
44
1
0
MTEXT
5
DB
100
AcDbEntity
8
TCO
6
ByLayer
62
256
370
-1
100
AcDbMText
10
28.3724983842
20
9.29854989063
30
0
40
2
41
4.44444444444
71
1
72
1
1
TCO
7
standard
210
0
220
0
230
1
50
0
73
2
44
1
0
MTEXT
5
DC
100
AcDbEntity
8
metal_layer_evap_std
6
ByLayer
62
256
370
-1
100
AcDbMText
10
28.3600621698
20
4.21885222361
30
0
40
2
41
6.66666666667
71
1
72
1
1
Metal
7
standard
210
0
220
0
230
1
50
0
73
2
44
1
0
LINE
5
DD
100
AcDbEntity
8
metal_layer_evap_std
6
ByLayer
62
256
370
-1
100
AcDbLine
10
-8
20
11.2
11
-6
21
9
0
LINE
5
DE
100
AcDbEntity
8
metal_layer_evap_std
6
ByLayer
62
256
370
-1
100
AcDbLine
10
-1
20
11.2
11
-2
21
9
0
LINE
5
DF
100
AcDbEntity
8
metal_layer_evap_std
6
ByLayer
62
256
370
-1
100
AcDbLine
10
1
20
11.2
11
1
21
9
0
LINE
5
E0
100
AcDbEntity
8
metal_layer_evap_std
6
ByLayer
62
256
370
-1
100
AcDbLine
10
8
20
11.2
11
6
21
9
0
LINE
5
E1
100
AcDbEntity
8
metal_layer_evap_std
6
ByLayer
62
256
370
-1
100
AcDbLine
10
-5
20
9
11
-4
21
9
0
LINE
5
E2
100
AcDbEntity
8
metal_layer_evap_std
6
ByLayer
62
256
370
-1
100
AcDbLine
10
-9
20
9
11
-10
21
9
0
LINE
5
E3
100
AcDbEntity
8
metal_layer_evap_std
6
ByLayer
62
256
370
-1
100
AcDbLine
10
-1
20
9
11
0
21
9
0
LINE
5
E4
100
AcDbEntity
8
metal_layer_evap_std
6
ByLayer
62
256
370
-1
100
AcDbLine
10
4
20
9
11
5
21
9
0
LINE
5
E5
100
AcDbEntity
8
metal_layer_evap_std
6
ByLayer
62
256
370
-1
100
AcDbLine
10
9
20
9
11
10
21
9
0
LINE
5
E6
100
AcDbEntity
8
metal_layer_evap_std
6
ByLayer
62
256
370
-1
100
AcDbLine
10
-12
20
2
11
-11
21
2
0
LINE
5
E7
100
AcDbEntity
8
metal_layer_evap_std
6
ByLayer
62
256
370
-1
100
AcDbLine
10
12
20
6
11
12
21
2
0
LINE
5
E8
100
AcDbEntity
8
metal_layer_evap_std
6
ByLayer
62
256
370
-1
100
AcDbLine
10
12
20
2
11
11
21
2
0
LINE
5
E9
100
AcDbEntity
8
active_windows
6
ByLayer
62
256
370
-1
100
AcDbLine
10
-8.5
20
9
11
-5.5
21
9
0
LINE
5
EA
100
AcDbEntity
8
active_windows
6
ByLayer
62
256
370
-1
100
AcDbLine
10
-5.5
20
9
11
-5.5
21
2
0
LINE
5
EB
100
AcDbEntity
8
active_windows
6
ByLayer
62
256
370
-1
100
AcDbLine
10
-5.5
20
2
11
-8.5
21
2
0
LINE
5
EC
100
AcDbEntity
8
active_windows
6
ByLayer
62
256
370
-1
100
AcDbLine
10
-8.5
20
2
11
-8.5
21
9
0
LINE
5
ED
100
AcDbEntity
8
active_windows
6
ByLayer
62
256
370
-1
100
AcDbLine
10
-3.5
20
9
11
-1.5
21
9
0
LINE
5
EE
100
AcDbEntity
8
active_windows
6
ByLayer
62
256
370
-1
100
AcDbLine
10
0.5
20
9
11
3.5
21
9
0
LINE
5
EF
100
AcDbEntity
8
active_windows
6
ByLayer
62
256
370
-1
100
AcDbLine
10
3.5
20
9
11
3.5
21
2
0
LINE
5
F0
100
AcDbEntity
8
active_windows
6
ByLayer
62
256
370
-1
100
AcDbLine
10
3.5
20
2
11
0.5
21
2
0
LINE
5
F1
100
AcDbEntity
8
active_windows
6
ByLayer
62
256
370
-1
100
AcDbLine
10
0.5
20
2
11
0.5
21
9
0
LINE
5
F2
100
AcDbEntity
8
active_windows
6
ByLayer
62
256
370
-1
100
AcDbLine
10
5.5
20
9
11
8.5
21
9
0
LINE
5
F3
100
AcDbEntity
8
active_windows
6
ByLayer
62
256
370
-1
100
AcDbLine
10
8.5
20
9
11
8.5
21
2
0
LINE
5
F4
100
AcDbEntity
8
active_windows
6
ByLayer
62
256
370
-1
100
AcDbLine
10
8.5
20
2
11
5.5
21
2
0
LINE
5
F5
100
AcDbEntity
8
active_windows
6
ByLayer
62
256
370
-1
100
AcDbLine
10
5.5
20
2
11
5.5
21
9
0
LINE
5
F6
100
AcDbEntity
8
metal_layer_evap_std
6
ByLayer
62
256
370
-1
100
AcDbLine
10
-6
20
9
11
-6
21
2
0
LINE
5
F7
100
AcDbEntity
8
metal_layer_evap_std
6
ByLayer
62
256
370
-1
100
AcDbLine
10
-6
20
2
11
-8
21
2
0
LINE
5
F8
100
AcDbEntity
8
metal_layer_evap_std
6
ByLayer
62
256
370
-1
100
AcDbLine
10
-8
20
2
11
-8
21
9
0
LINE
5
F9
100
AcDbEntity
8
metal_layer_evap_std
6
ByLayer
62
256
370
-1
100
AcDbLine
10
3
20
9
11
3
21
2
0
LINE
5
FA
100
AcDbEntity
8
metal_layer_evap_std
6
ByLayer
62
256
370
-1
100
AcDbLine
10
3
20
2
11
1
21
2
0
LINE
5
FB
100
AcDbEntity
8
metal_layer_evap_std
6
ByLayer
62
256
370
-1
100
AcDbLine
10
1
20
2
11
1
21
9
0
LINE
5
FC
100
AcDbEntity
8
metal_layer_evap_std
6
ByLayer
62
256
370
-1
100
AcDbLine
10
8
20
9
11
8
21
2
0
LINE
5
FD
100
AcDbEntity
8
metal_layer_evap_std
6
ByLayer
62
256
370
-1
100
AcDbLine
10
8
20
2
11
6
21
2
0
LINE
5
FE
100
AcDbEntity
8
metal_layer_evap_std
6
ByLayer
62
256
370
-1
100
AcDbLine
10
6
20
2
11
6
21
9
0
LINE
5
FF
100
AcDbEntity
8
metal_layer_evap_std
6
ByLayer
62
256
370
-1
100
AcDbLine
10
-5
20
1
11
-5
21
9
0
LINE
5
100
100
AcDbEntity
8
metal_layer_evap_std
6
ByLayer
62
256
370
-1
100
AcDbLine
10
-10
20
9
11
-10
21
1
0
LINE
5
101
100
AcDbEntity
8
metal_layer_evap_std
6
ByLayer
62
256
370
-1
100
AcDbLine
10
-9
20
1
11
-9
21
9
0
LINE
5
102
100
AcDbEntity
8
metal_layer_evap_std
6
ByLayer
62
256
370
-1
100
AcDbLine
10
0
20
9
11
0
21
1
0
LINE
5
103
100
AcDbEntity
8
metal_layer_evap_std
6
ByLayer
62
256
370
-1
100
AcDbLine
10
5
20
9
11
5
21
1
0
LINE
5
104
100
AcDbEntity
8
metal_layer_evap_std
6
ByLayer
62
256
370
-1
100
AcDbLine
10
4
20
1
11
4
21
9
0
LINE
5
105
100
AcDbEntity
8
metal_layer_evap_std
6
ByLayer
62
256
370
-1
100
AcDbLine
10
10
20
9
11
10
21
1
0
LINE
5
106
100
AcDbEntity
8
metal_layer_evap_std
6
ByLayer
62
256
370
-1
100
AcDbLine
10
9
20
1
11
9
21
9
0
LINE
5
107
100
AcDbEntity
8
metal_layer_evap_std
6
ByLayer
62
256
370
-1
100
AcDbLine
10
-10
20
1
11
-11
21
1
0
LINE
5
108
100
AcDbEntity
8
metal_layer_evap_std
6
ByLayer
62
256
370
-1
100
AcDbLine
10
-9
20
1
11
-5
21
1
0
LINE
5
109
100
AcDbEntity
8
metal_layer_evap_std
6
ByLayer
62
256
370
-1
100
AcDbLine
10
0
20
1
11
4
21
1
0
LINE
5
10A
100
AcDbEntity
8
metal_layer_evap_std
6
ByLayer
62
256
370
-1
100
AcDbLine
10
5
20
1
11
9
21
1
0
LINE
5
10B
100
AcDbEntity
8
metal_layer_evap_std
6
ByLayer
62
256
370
-1
100
AcDbLine
10
10
20
1
11
11
21
1
0
LINE
5
10C
100
AcDbEntity
8
metal_layer_evap_std
6
ByLayer
62
256
370
-1
100
AcDbLine
10
13
20
11.2
11
8
21
9
0
LINE
5
10D
100
AcDbEntity
8
metal_layer_evap_std
6
ByLayer
62
256
370
-1
100
AcDbLine
10
6
20
11.2
11
3
21
9
0
LINE
5
10E
100
AcDbEntity
8
metal_layer_evap_std
6
ByLayer
62
256
370
-1
100
AcDbLine
10
-6
20
11.2
11
-3
21
9
0
LINE
5
10F
100
AcDbEntity
8
metal_layer_evap_std
6
ByLayer
62
256
370
-1
100
AcDbLine
10
-13
20
11.2
11
-8
21
9
0
LINE
5
110
100
AcDbEntity
8
metal_layer_evap_std
6
ByLayer
62
256
370
-1
100
AcDbLine
10
-11
20
2
11
-11
21
1
0
LINE
5
111
100
AcDbEntity
8
metal_layer_evap_std
6
ByLayer
62
256
370
-1
100
AcDbLine
10
11
20
2
11
11
21
1
0
LINE
5
112
100
AcDbEntity
8
TCO
6
ByLayer
62
256
370
-1
100
AcDbLine
10
-14
20
8
11
14
21
8
0
LINE
5
113
100
AcDbEntity
8
TCO
6
ByLayer
62
256
370
-1
100
AcDbLine
10
14
20
8
11
14
21
3
0
LINE
5
114
100
AcDbEntity
8
TCO
6
ByLayer
62
256
370
-1
100
AcDbLine
10
-14
20
3
11
-4.5
21
3
0
LINE
5
115
100
AcDbEntity
8
TCO
6
ByLayer
62
256
370
-1
100
AcDbLine
10
14
20
3
11
-0.5
21
3
0
LINE
5
116
100
AcDbEntity
8
TCO
6
ByLayer
62
256
370
-1
100
AcDbLine
10
-0.5
20
3
11
-0.5
21
7
0
LINE
5
117
100
AcDbEntity
8
TCO
6
ByLayer
62
256
370
-1
100
AcDbLine
10
-4.5
20
3
11
-4.5
21
7
0
LINE
5
118
100
AcDbEntity
8
metal_layer_evap_std
6
ByLayer
62
256
370
-1
100
AcDbLine
10
-4
20
9
11
-4
21
5
0
LINE
5
119
100
AcDbEntity
8
metal_layer_evap_std
6
ByLayer
62
256
370
-1
100
AcDbLine
10
-1
20
5
11
-1
21
9
0
LINE
5
11A
100
AcDbEntity
8
metal_layer_evap_std
6
ByLayer
62
256
370
-1
100
AcDbLine
10
-4
20
5
11
-1
21
5
0
LINE
5
11B
100
AcDbEntity
8
metal_layer_evap_std
6
ByLayer
62
256
370
-1
100
AcDbLine
10
-2
20
9
11
-2
21
6
0
LINE
5
11C
100
AcDbEntity
8
metal_layer_evap_std
6
ByLayer
62
256
370
-1
100
AcDbLine
10
-2
20
6
11
-3
21
6
0
LINE
5
11D
100
AcDbEntity
8
metal_layer_evap_std
6
ByLayer
62
256
370
-1
100
AcDbLine
10
-3
20
6
11
-3
21
9
0
LINE
5
11E
100
AcDbEntity
8
active_windows
6
ByLayer
62
256
370
-1
100
AcDbLine
10
-1.5
20
9
11
-1.5
21
6
0
LINE
5
11F
100
AcDbEntity
8
active_windows
6
ByLayer
62
256
370
-1
100
AcDbLine
10
-1.5
20
6
11
-3.5
21
6
0
LINE
5
120
100
AcDbEntity
8
active_windows
6
ByLayer
62
256
370
-1
100
AcDbLine
10
-3.5
20
6
11
-3.5
21
9
0
LINE
5
121
100
AcDbEntity
8
TCO
6
ByLayer
62
256
370
-1
100
AcDbLine
10
-4.5
20
7
11
-0.5
21
7
0
LINE
5
122
100
AcDbEntity
8
metal_layer_evap_std
6
ByLayer
62
256
370
-1
100
AcDbLine
10
14
20
-6
11
12
21
-6
0
LINE
5
123
100
AcDbEntity
8
metal_layer_evap_std
6
ByLayer
62
256
370
-1
100
AcDbLine
10
12
20
-6
11
12
21
-2
0
LINE
5
124
100
AcDbEntity
8
metal_layer_evap_std
6
ByLayer
62
256
370
-1
100
AcDbLine
10
-12
20
-6
11
-14
21
-6
0
LINE
5
125
100
AcDbEntity
8
metal_layer_evap_std
6
ByLayer
62
256
370
-1
100
AcDbLine
10
8
20
-11.2
11
6
21
-9
0
LINE
5
126
100
AcDbEntity
8
metal_layer_evap_std
6
ByLayer
62
256
370
-1
100
AcDbLine
10
1
20
-11.2
11
2
21
-9
0
LINE
5
127
100
AcDbEntity
8
metal_layer_evap_std
6
ByLayer
62
256
370
-1
100
AcDbLine
10
-1
20
-11.2
11
-1
21
-9
0
LINE
5
128
100
AcDbEntity
8
metal_layer_evap_std
6
ByLayer
62
256
370
-1
100
AcDbLine
10
-8
20
-11.2
11
-6
21
-9
0
LINE
5
129
100
AcDbEntity
8
metal_layer_evap_std
6
ByLayer
62
256
370
-1
100
AcDbLine
10
5
20
-9
11
4
21
-9
0
LINE
5
12A
100
AcDbEntity
8
metal_layer_evap_std
6
ByLayer
62
256
370
-1
100
AcDbLine
10
9
20
-9
11
10
21
-9
0
LINE
5
12B
100
AcDbEntity
8
metal_layer_evap_std
6
ByLayer
62
256
370
-1
100
AcDbLine
10
1
20
-9
11
0
21
-9
0
LINE
5
12C
100
AcDbEntity
8
metal_layer_evap_std
6
ByLayer
62
256
370
-1
100
AcDbLine
10
-4
20
-9
11
-5
21
-9
0
LINE
5
12D
100
AcDbEntity
8
metal_layer_evap_std
6
ByLayer
62
256
370
-1
100
AcDbLine
10
-9
20
-9
11
-10
21
-9
0
LINE
5
12E
100
AcDbEntity
8
metal_layer_evap_std
6
ByLayer
62
256
370
-1
100
AcDbLine
10
12
20
-2
11
11
21
-2
0
LINE
5
12F
100
AcDbEntity
8
metal_layer_evap_std
6
ByLayer
62
256
370
-1
100
AcDbLine
10
-12
20
-6
11
-12
21
-2
0
LINE
5
130
100
AcDbEntity
8
metal_layer_evap_std
6
ByLayer
62
256
370
-1
100
AcDbLine
10
-12
20
-2
11
-11
21
-2
0
LINE
5
131
100
AcDbEntity
8
active_windows
6
ByLayer
62
256
370
-1
100
AcDbLine
10
8.5
20
-9
11
5.5
21
-9
0
LINE
5
132
100
AcDbEntity
8
active_windows
6
ByLayer
62
256
370
-1
100
AcDbLine
10
5.5
20
-9
11
5.5
21
-2
0
LINE
5
133
100
AcDbEntity
8
active_windows
6
ByLayer
62
256
370
-1
100
AcDbLine
10
5.5
20
-2
11
8.5
21
-2
0
LINE
5
134
100
AcDbEntity
8
active_windows
6
ByLayer
62
256
370
-1
100
AcDbLine
10
8.5
20
-2
11
8.5
21
-9
0
LINE
5
135
100
AcDbEntity
8
active_windows
6
ByLayer
62
256
370
-1
100
AcDbLine
10
3.5
20
-9
11
1.5
21
-9
0
LINE
5
136
100
AcDbEntity
8
active_windows
6
ByLayer
62
256
370
-1
100
AcDbLine
10
-0.5
20
-9
11
-3.5
21
-9
0
LINE
5
137
100
AcDbEntity
8
active_windows
6
ByLayer
62
256
370
-1
100
AcDbLine
10
-3.5
20
-9
11
-3.5
21
-2
0
LINE
5
138
100
AcDbEntity
8
active_windows
6
ByLayer
62
256
370
-1
100
AcDbLine
10
-3.5
20
-2
11
-0.5
21
-2
0
LINE
5
139
100
AcDbEntity
8
active_windows
6
ByLayer
62
256
370
-1
100
AcDbLine
10
-0.5
20
-2
11
-0.5
21
-9
0
LINE
5
13A
100
AcDbEntity
8
active_windows
6
ByLayer
62
256
370
-1
100
AcDbLine
10
-5.5
20
-9
11
-8.5
21
-9
0
LINE
5
13B
100
AcDbEntity
8
active_windows
6
ByLayer
62
256
370
-1
100
AcDbLine
10
-8.5
20
-9
11
-8.5
21
-2
0
LINE
5
13C
100
AcDbEntity
8
active_windows
6
ByLayer
62
256
370
-1
100
AcDbLine
10
-8.5
20
-2
11
-5.5
21
-2
0
LINE
5
13D
100
AcDbEntity
8
active_windows
6
ByLayer
62
256
370
-1
100
AcDbLine
10
-5.5
20
-2
11
-5.5
21
-9
0
LINE
5
13E
100
AcDbEntity
8
metal_layer_evap_std
6
ByLayer
62
256
370
-1
100
AcDbLine
10
6
20
-9
11
6
21
-2
0
LINE
5
13F
100
AcDbEntity
8
metal_layer_evap_std
6
ByLayer
62
256
370
-1
100
AcDbLine
10
6
20
-2
11
8
21
-2
0
LINE
5
140
100
AcDbEntity
8
metal_layer_evap_std
6
ByLayer
62
256
370
-1
100
AcDbLine
10
8
20
-2
11
8
21
-9
0
LINE
5
141
100
AcDbEntity
8
metal_layer_evap_std
6
ByLayer
62
256
370
-1
100
AcDbLine
10
-3
20
-9
11
-3
21
-2
0
LINE
5
142
100
AcDbEntity
8
metal_layer_evap_std
6
ByLayer
62
256
370
-1
100
AcDbLine
10
-3
20
-2
11
-1
21
-2
0
LINE
5
143
100
AcDbEntity
8
metal_layer_evap_std
6
ByLayer
62
256
370
-1
100
AcDbLine
10
-1
20
-2
11
-1
21
-9
0
LINE
5
144
100
AcDbEntity
8
metal_layer_evap_std
6
ByLayer
62
256
370
-1
100
AcDbLine
10
-8
20
-9
11
-8
21
-2
0
LINE
5
145
100
AcDbEntity
8
metal_layer_evap_std
6
ByLayer
62
256
370
-1
100
AcDbLine
10
-8
20
-2
11
-6
21
-2
0
LINE
5
146
100
AcDbEntity
8
metal_layer_evap_std
6
ByLayer
62
256
370
-1
100
AcDbLine
10
-6
20
-2
11
-6
21
-9
0
LINE
5
147
100
AcDbEntity
8
metal_layer_evap_std
6
ByLayer
62
256
370
-1
100
AcDbLine
10
5
20
-1
11
5
21
-9
0
LINE
5
148
100
AcDbEntity
8
metal_layer_evap_std
6
ByLayer
62
256
370
-1
100
AcDbLine
10
10
20
-9
11
10
21
-1
0
LINE
5
149
100
AcDbEntity
8
metal_layer_evap_std
6
ByLayer
62
256
370
-1
100
AcDbLine
10
9
20
-1
11
9
21
-9
0
LINE
5
14A
100
AcDbEntity
8
metal_layer_evap_std
6
ByLayer
62
256
370
-1
100
AcDbLine
10
0
20
-9
11
0
21
-1
0
LINE
5
14B
100
AcDbEntity
8
metal_layer_evap_std
6
ByLayer
62
256
370
-1
100
AcDbLine
10
-5
20
-9
11
-5
21
-1
0
LINE
5
14C
100
AcDbEntity
8
metal_layer_evap_std
6
ByLayer
62
256
370
-1
100
AcDbLine
10
-4
20
-1
11
-4
21
-9
0
LINE
5
14D
100
AcDbEntity
8
metal_layer_evap_std
6
ByLayer
62
256
370
-1
100
AcDbLine
10
-10
20
-9
11
-10
21
-1
0
LINE
5
14E
100
AcDbEntity
8
metal_layer_evap_std
6
ByLayer
62
256
370
-1
100
AcDbLine
10
-9
20
-1
11
-9
21
-9
0
LINE
5
14F
100
AcDbEntity
8
metal_layer_evap_std
6
ByLayer
62
256
370
-1
100
AcDbLine
10
10
20
-1
11
11
21
-1
0
LINE
5
150
100
AcDbEntity
8
metal_layer_evap_std
6
ByLayer
62
256
370
-1
100
AcDbLine
10
9
20
-1
11
5
21
-1
0
LINE
5
151
100
AcDbEntity
8
metal_layer_evap_std
6
ByLayer
62
256
370
-1
100
AcDbLine
10
0
20
-1
11
-4
21
-1
0
LINE
5
152
100
AcDbEntity
8
metal_layer_evap_std
6
ByLayer
62
256
370
-1
100
AcDbLine
10
-5
20
-1
11
-9
21
-1
0
LINE
5
153
100
AcDbEntity
8
metal_layer_evap_std
6
ByLayer
62
256
370
-1
100
AcDbLine
10
-10
20
-1
11
-11
21
-1
0
LINE
5
154
100
AcDbEntity
8
metal_layer_evap_std
6
ByLayer
62
256
370
-1
100
AcDbLine
10
-13
20
-11.2
11
-8
21
-9
0
LINE
5
155
100
AcDbEntity
8
metal_layer_evap_std
6
ByLayer
62
256
370
-1
100
AcDbLine
10
-6
20
-11.2
11
-3
21
-9
0
LINE
5
156
100
AcDbEntity
8
metal_layer_evap_std
6
ByLayer
62
256
370
-1
100
AcDbLine
10
6
20
-11.2
11
3
21
-9
0
LINE
5
157
100
AcDbEntity
8
metal_layer_evap_std
6
ByLayer
62
256
370
-1
100
AcDbLine
10
13
20
-11.2
11
8
21
-9
0
LINE
5
158
100
AcDbEntity
8
metal_layer_evap_std
6
ByLayer
62
256
370
-1
100
AcDbLine
10
11
20
-2
11
11
21
-1
0
LINE
5
159
100
AcDbEntity
8
metal_layer_evap_std
6
ByLayer
62
256
370
-1
100
AcDbLine
10
-11
20
-2
11
-11
21
-1
0
LINE
5
15A
100
AcDbEntity
8
TCO
6
ByLayer
62
256
370
-1
100
AcDbLine
10
14
20
-8
11
-14
21
-8
0
LINE
5
15B
100
AcDbEntity
8
TCO
6
ByLayer
62
256
370
-1
100
AcDbLine
10
14
20
-3
11
14
21
-8
0
LINE
5
15C
100
AcDbEntity
8
TCO
6
ByLayer
62
256
370
-1
100
AcDbLine
10
14
20
-3
11
4.5
21
-3
0
LINE
5
15D
100
AcDbEntity
8
TCO
6
ByLayer
62
256
370
-1
100
AcDbLine
10
-14
20
-3
11
0.5
21
-3
0
LINE
5
15E
100
AcDbEntity
8
TCO
6
ByLayer
62
256
370
-1
100
AcDbLine
10
0.5
20
-3
11
0.5
21
-7
0
LINE
5
15F
100
AcDbEntity
8
TCO
6
ByLayer
62
256
370
-1
100
AcDbLine
10
4.5
20
-3
11
4.5
21
-7
0
LINE
5
160
100
AcDbEntity
8
metal_layer_evap_std
6
ByLayer
62
256
370
-1
100
AcDbLine
10
4
20
-9
11
4
21
-5
0
LINE
5
161
100
AcDbEntity
8
metal_layer_evap_std
6
ByLayer
62
256
370
-1
100
AcDbLine
10
1
20
-5
11
1
21
-9
0
LINE
5
162
100
AcDbEntity
8
metal_layer_evap_std
6
ByLayer
62
256
370
-1
100
AcDbLine
10
4
20
-5
11
1
21
-5
0
LINE
5
163
100
AcDbEntity
8
metal_layer_evap_std
6
ByLayer
62
256
370
-1
100
AcDbLine
10
2
20
-9
11
2
21
-6
0
LINE
5
164
100
AcDbEntity
8
metal_layer_evap_std
6
ByLayer
62
256
370
-1
100
AcDbLine
10
2
20
-6
11
3
21
-6
0
LINE
5
165
100
AcDbEntity
8
metal_layer_evap_std
6
ByLayer
62
256
370
-1
100
AcDbLine
10
3
20
-6
11
3
21
-9
0
LINE
5
166
100
AcDbEntity
8
active_windows
6
ByLayer
62
256
370
-1
100
AcDbLine
10
1.5
20
-9
11
1.5
21
-6
0
LINE
5
167
100
AcDbEntity
8
active_windows
6
ByLayer
62
256
370
-1
100
AcDbLine
10
1.5
20
-6
11
3.5
21
-6
0
LINE
5
168
100
AcDbEntity
8
active_windows
6
ByLayer
62
256
370
-1
100
AcDbLine
10
3.5
20
-6
11
3.5
21
-9
0
LINE
5
169
100
AcDbEntity
8
TCO
6
ByLayer
62
256
370
-1
100
AcDbLine
10
4.5
20
-7
11
0.5
21
-7
0
CIRCLE
5
16A
100
AcDbEntity
8
metal_layer_evap_std
6
ByLayer
62
256
370
-1
100
AcDbCircle
10
-11.5
20
-8.5
40
0.5
0
LINE
5
16B
100
AcDbEntity
8
metal_layer_evap_std
6
ByLayer
62
256
370
-1
100
AcDbLine
10
11.05
20
8.65
11
11.4
21
8.65
0
LINE
5
16C
100
AcDbEntity
8
metal_layer_evap_std
6
ByLayer
62
256
370
-1
100
AcDbLine
10
11.4
20
8.65
11
11.4
21
9
0
LINE
5
16D
100
AcDbEntity
8
metal_layer_evap_std
6
ByLayer
62
256
370
-1
100
AcDbLine
10
11.7
20
9
11
11.7
21
8.65
0
LINE
5
16E
100
AcDbEntity
8
metal_layer_evap_std
6
ByLayer
62
256
370
-1
100
AcDbLine
10
11.7
20
8.65
11
12.05
21
8.65
0
LINE
5
16F
100
AcDbEntity
8
metal_layer_evap_std
6
ByLayer
62
256
370
-1
100
AcDbLine
10
12.05
20
8.65
11
12.05
21
8.35
0
LINE
5
170
100
AcDbEntity
8
metal_layer_evap_std
6
ByLayer
62
256
370
-1
100
AcDbLine
10
12.05
20
8.35
11
11.7
21
8.35
0
LINE
5
171
100
AcDbEntity
8
metal_layer_evap_std
6
ByLayer
62
256
370
-1
100
AcDbLine
10
11.7
20
8.35
11
11.7
21
8
0
LINE
5
172
100
AcDbEntity
8
metal_layer_evap_std
6
ByLayer
62
256
370
-1
100
AcDbLine
10
11.7
20
8
11
11.4
21
8
0
LINE
5
173
100
AcDbEntity
8
metal_layer_evap_std
6
ByLayer
62
256
370
-1
100
AcDbLine
10
11.4
20
8
11
11.4
21
8.35
0
LINE
5
174
100
AcDbEntity
8
metal_layer_evap_std
6
ByLayer
62
256
370
-1
100
AcDbLine
10
11.4
20
8.35
11
11.05
21
8.35
0
LINE
5
175
100
AcDbEntity
8
metal_layer_evap_std
6
ByLayer
62
256
370
-1
100
AcDbLine
10
11.05
20
8.35
11
11.05
21
8.65
0
LINE
5
176
100
AcDbEntity
8
metal_layer_evap_std
6
ByLayer
62
256
370
-1
100
AcDbLine
10
11.4
20
9
11
11.7
21
9
0
LINE
5
177
100
AcDbEntity
8
metal_layer_evap_std
6
ByLayer
62
256
370
-1
100
AcDbLine
10
-13
20
8.5
11
-12.486969785
21
9.90953893118
0
LINE
5
178
100
AcDbEntity
8
metal_layer_evap_std
6
ByLayer
62
256
370
-1
100
AcDbLine
10
-12.486969785
20
9.90953893118
11
-12.286969785
21
9.90953893118
0
LINE
5
179
100
AcDbEntity
8
metal_layer_evap_std
6
ByLayer
62
256
370
-1
100
AcDbLine
10
-12.286969785
20
9.90953893118
11
-11.77393957
21
8.5
0
LINE
5
17A
100
AcDbEntity
8
metal_layer_evap_std
6
ByLayer
62
256
370
-1
100
AcDbLine
10
-13
20
8.5
11
-12.8
21
8.5
0
LINE
5
17B
100
AcDbEntity
8
metal_layer_evap_std
6
ByLayer
62
256
370
-1
100
AcDbLine
10
-11.77393957
20
8.5
11
-11.97393957
21
8.5
0
LINE
5
17C
100
AcDbEntity
8
metal_layer_evap_std
6
ByLayer
62
256
370
-1
100
AcDbLine
10
-11.97393957
20
8.5
11
-12.1449496417
21
8.96984631039
0
LINE
5
17D
100
AcDbEntity
8
metal_layer_evap_std
6
ByLayer
62
256
370
-1
100
AcDbLine
10
-12.8
20
8.5
11
-12.6289899283
21
8.96984631039
0
LINE
5
17E
100
AcDbEntity
8
metal_layer_evap_std
6
ByLayer
62
256
370
-1
100
AcDbLine
10
-12.6289899283
20
8.96984631039
11
-12.1449496417
21
8.96984631039
0
DIMENSION
5
17F
100
AcDbEntity
8
quotes
6
ByLayer
62
256
370
-1
100
AcDbDimension
2
*D1
10
-19.3100834354
20
3
30
0
11
-21.1850834354
21
5.5
31
0
70
32
71
5
72
0
3
Standard
53
0
210
0
220
0
230
1
100
AcDbAlignedDimension
13
-14
23
8
33
0
14
-14
24
3
34
0
50
90
100
AcDbRotatedDimension
0
DIMENSION
5
180
100
AcDbEntity
8
quotes
6
ByLayer
62
256
370
-1
100
AcDbDimension
2
*D2
10
-16.1602116694
20
-8
30
0
11
-18.0352116694
21
-7.5
31
0
70
32
71
5
72
0
3
Standard
53
0
210
0
220
0
230
1
100
AcDbAlignedDimension
13
2
23
-7
33
0
14
2
24
-8
34
0
50
90
100
AcDbRotatedDimension
0
DIMENSION
5
181
100
AcDbEntity
8
quotes
6
ByLayer
62
256
370
-1
100
AcDbDimension
2
*D3
10
3
20
-18.5739720988
30
0
11
2.5
21
-16.6989720988
31
0
70
32
71
5
72
0
3
Standard
53
0
210
0
220
0
230
1
100
AcDbAlignedDimension
13
2
23
-8
33
0
14
3
24
-8
34
0
100
AcDbRotatedDimension
0
DIMENSION
5
182
100
AcDbEntity
8
quotes
6
ByLayer
62
256
370
-1
100
AcDbDimension
2
*D4
10
-6
20
15.3932863698
30
0
11
-7
21
17.2682863698
31
0
70
32
71
5
72
0
3
Standard
53
0
210
0
220
0
230
1
100
AcDbAlignedDimension
13
-8
23
9
33
0
14
-6
24
9
34
0
100
AcDbRotatedDimension
0
DIMENSION
5
183
100
AcDbEntity
8
quotes
6
ByLayer
62
256
370
-1
100
AcDbDimension
2
*D5
10
-5.5
20
19.9434815623
30
0
11
-7
21
21.8184815623
31
0
70
32
71
5
72
0
3
Standard
53
0
210
0
220
0
230
1
100
AcDbAlignedDimension
13
-8.5
23
9
33
0
14
-5.5
24
9
34
0
100
AcDbRotatedDimension
0
DIMENSION
5
184
100
AcDbEntity
8
quotes
6
ByLayer
62
256
370
-1
100
AcDbDimension
2
*D6
10
19.4470343818
20
2
30
0
11
17.5720343818
21
5.5
31
0
70
32
71
5
72
0
3
Standard
53
0
210
0
220
0
230
1
100
AcDbAlignedDimension
13
8.5
23
9
33
0
14
8.5
24
2
34
0
50
90
100
AcDbRotatedDimension
0
LINE
5
185
100
AcDbEntity
8
Shadow-mask
6
ByLayer
62
256
370
-1
100
AcDbLine
10
-7.75
20
7.8
11
-6.25
21
7.8
0
LINE
5
186
100
AcDbEntity
8
Shadow-mask
6
ByLayer
62
256
370
-1
100
AcDbLine
10
-6.25
20
7.8
11
-6.25
21
3.2
0
LINE
5
187
100
AcDbEntity
8
Shadow-mask
6
ByLayer
62
256
370
-1
100
AcDbLine
10
-6.25
20
3.2
11
-7.75
21
3.2
0
LINE
5
188
100
AcDbEntity
8
Shadow-mask
6
ByLayer
62
256
370
-1
100
AcDbLine
10
-7.75
20
3.2
11
-7.75
21
7.8
0
LINE
5
189
100
AcDbEntity
8
Shadow-mask
6
ByLayer
62
256
370
-1
100
AcDbLine
10
1.25
20
7.8
11
2.75
21
7.8
0
LINE
5
18A
100
AcDbEntity
8
Shadow-mask
6
ByLayer
62
256
370
-1
100
AcDbLine
10
2.75
20
7.8
11
2.75
21
3.2
0
LINE
5
18B
100
AcDbEntity
8
Shadow-mask
6
ByLayer
62
256
370
-1
100
AcDbLine
10
2.75
20
3.2
11
1.25
21
3.2
0
LINE
5
18C
100
AcDbEntity
8
Shadow-mask
6
ByLayer
62
256
370
-1
100
AcDbLine
10
1.25
20
3.2
11
1.25
21
7.8
0
LINE
5
18D
100
AcDbEntity
8
Shadow-mask
6
ByLayer
62
256
370
-1
100
AcDbLine
10
6.25
20
7.8
11
7.75
21
7.8
0
LINE
5
18E
100
AcDbEntity
8
Shadow-mask
6
ByLayer
62
256
370
-1
100
AcDbLine
10
7.75
20
7.8
11
7.75
21
3.2
0
LINE
5
18F
100
AcDbEntity
8
Shadow-mask
6
ByLayer
62
256
370
-1
100
AcDbLine
10
7.75
20
3.2
11
6.25
21
3.2
0
LINE
5
190
100
AcDbEntity
8
Shadow-mask
6
ByLayer
62
256
370
-1
100
AcDbLine
10
6.25
20
3.2
11
6.25
21
7.8
0
LINE
5
191
100
AcDbEntity
8
Shadow-mask
6
ByLayer
62
256
370
-1
100
AcDbLine
10
-2.83333333334
20
7.83333333333
11
-2.16666666667
21
7.83333333333
0
LINE
5
192
100
AcDbEntity
8
Shadow-mask
6
ByLayer
62
256
370
-1
100
AcDbLine
10
-2.16666666667
20
7.83333333333
11
-2.16666666667
21
7.16666666666
0
LINE
5
193
100
AcDbEntity
8
Shadow-mask
6
ByLayer
62
256
370
-1
100
AcDbLine
10
-2.16666666667
20
7.16666666666
11
-2.83333333334
21
7.16666666666
0
LINE
5
194
100
AcDbEntity
8
Shadow-mask
6
ByLayer
62
256
370
-1
100
AcDbLine
10
-2.83333333334
20
7.16666666666
11
-2.83333333334
21
7.83333333333
0
LINE
5
195
100
AcDbEntity
8
Shadow-mask
6
ByLayer
62
256
370
-1
100
AcDbLine
10
11.4
20
8.65
11
11.4
21
9
0
LINE
5
196
100
AcDbEntity
8
Shadow-mask
6
ByLayer
62
256
370
-1
100
AcDbLine
10
11.4
20
9
11
11.7
21
9
0
LINE
5
197
100
AcDbEntity
8
Shadow-mask
6
ByLayer
62
256
370
-1
100
AcDbLine
10
11.7
20
9
11
11.7
21
8.65
0
LINE
5
198
100
AcDbEntity
8
Shadow-mask
6
ByLayer
62
256
370
-1
100
AcDbLine
10
11.7
20
8.65
11
12.05
21
8.65
0
LINE
5
199
100
AcDbEntity
8
Shadow-mask
6
ByLayer
62
256
370
-1
100
AcDbLine
10
12.05
20
8.65
11
12.05
21
8.35
0
LINE
5
19A
100
AcDbEntity
8
Shadow-mask
6
ByLayer
62
256
370
-1
100
AcDbLine
10
12.05
20
8.35
11
11.7
21
8.35
0
LINE
5
19B
100
AcDbEntity
8
Shadow-mask
6
ByLayer
62
256
370
-1
100
AcDbLine
10
11.7
20
8.35
11
11.7
21
8
0
LINE
5
19C
100
AcDbEntity
8
Shadow-mask
6
ByLayer
62
256
370
-1
100
AcDbLine
10
11.7
20
8
11
11.4
21
8
0
LINE
5
19D
100
AcDbEntity
8
Shadow-mask
6
ByLayer
62
256
370
-1
100
AcDbLine
10
11.4
20
8
11
11.4
21
8.35
0
LINE
5
19E
100
AcDbEntity
8
Shadow-mask
6
ByLayer
62
256
370
-1
100
AcDbLine
10
11.4
20
8.35
11
11.05
21
8.35
0
LINE
5
19F
100
AcDbEntity
8
Shadow-mask
6
ByLayer
62
256
370
-1
100
AcDbLine
10
11.05
20
8.35
11
11.05
21
8.65
0
LINE
5
1A0
100
AcDbEntity
8
Shadow-mask
6
ByLayer
62
256
370
-1
100
AcDbLine
10
11.05
20
8.65
11
11.4
21
8.65
0
CIRCLE
5
1A1
100
AcDbEntity
8
Shadow-mask
6
ByLayer
62
256
370
-1
100
AcDbCircle
10
-11.5
20
-8.5
40
0.5
0
LINE
5
1A2
100
AcDbEntity
8
Shadow-mask
6
ByLayer
62
256
370
-1
100
AcDbLine
10
-12
20
6
11
-14
21
6
0
LINE
5
1A3
100
AcDbEntity
8
Shadow-mask
6
ByLayer
62
256
370
-1
100
AcDbLine
10
-14
20
6
11
-14
21
-6.00000000004
0
LINE
5
1A4
100
AcDbEntity
8
Shadow-mask
6
ByLayer
62
256
370
-1
100
AcDbLine
10
-14
20
-6.00000000004
11
-12
21
-6.00000000004
0
LINE
5
1A5
100
AcDbEntity
8
Shadow-mask
6
ByLayer
62
256
370
-1
100
AcDbLine
10
12
20
6
11
14
21
6
0
LINE
5
1A6
100
AcDbEntity
8
Shadow-mask
6
ByLayer
62
256
370
-1
100
AcDbLine
10
14
20
6
11
14
21
-5.9999999999
0
LINE
5
1A7
100
AcDbEntity
8
Shadow-mask
6
ByLayer
62
256
370
-1
100
AcDbLine
10
14
20
-5.9999999999
11
12
21
-5.9999999999
0
LINE
5
1A8
100
AcDbEntity
8
Shadow-mask
6
ByLayer
62
256
370
-1
100
AcDbLine
10
7.75
20
-7.8
11
6.25
21
-7.8
0
LINE
5
1A9
100
AcDbEntity
8
Shadow-mask
6
ByLayer
62
256
370
-1
100
AcDbLine
10
6.25
20
-7.8
11
6.25
21
-3.2
0
LINE
5
1AA
100
AcDbEntity
8
Shadow-mask
6
ByLayer
62
256
370
-1
100
AcDbLine
10
6.25
20
-3.2
11
7.75
21
-3.2
0
LINE
5
1AB
100
AcDbEntity
8
Shadow-mask
6
ByLayer
62
256
370
-1
100
AcDbLine
10
7.75
20
-3.2
11
7.75
21
-7.8
0
LINE
5
1AC
100
AcDbEntity
8
Shadow-mask
6
ByLayer
62
256
370
-1
100
AcDbLine
10
-1.25
20
-7.8
11
-2.75
21
-7.8
0
LINE
5
1AD
100
AcDbEntity
8
Shadow-mask
6
ByLayer
62
256
370
-1
100
AcDbLine
10
-2.75
20
-7.8
11
-2.75
21
-3.2
0
LINE
5
1AE
100
AcDbEntity
8
Shadow-mask
6
ByLayer
62
256
370
-1
100
AcDbLine
10
-2.75
20
-3.2
11
-1.25
21
-3.2
0
LINE
5
1AF
100
AcDbEntity
8
Shadow-mask
6
ByLayer
62
256
370
-1
100
AcDbLine
10
-1.25
20
-3.2
11
-1.25
21
-7.8
0
LINE
5
1B0
100
AcDbEntity
8
Shadow-mask
6
ByLayer
62
256
370
-1
100
AcDbLine
10
-6.25
20
-7.8
11
-7.75
21
-7.8
0
LINE
5
1B1
100
AcDbEntity
8
Shadow-mask
6
ByLayer
62
256
370
-1
100
AcDbLine
10
-7.75
20
-7.8
11
-7.75
21
-3.2
0
LINE
5
1B2
100
AcDbEntity
8
Shadow-mask
6
ByLayer
62
256
370
-1
100
AcDbLine
10
-7.75
20
-3.2
11
-6.25
21
-3.2
0
LINE
5
1B3
100
AcDbEntity
8
Shadow-mask
6
ByLayer
62
256
370
-1
100
AcDbLine
10
-6.25
20
-3.2
11
-6.25
21
-7.8
0
LINE
5
1B4
100
AcDbEntity
8
Shadow-mask
6
ByLayer
62
256
370
-1
100
AcDbLine
10
2.83333333334
20
-7.83333333333
11
2.16666666667
21
-7.83333333333
0
LINE
5
1B5
100
AcDbEntity
8
Shadow-mask
6
ByLayer
62
256
370
-1
100
AcDbLine
10
2.16666666667
20
-7.83333333333
11
2.16666666667
21
-7.16666666666
0
LINE
5
1B6
100
AcDbEntity
8
Shadow-mask
6
ByLayer
62
256
370
-1
100
AcDbLine
10
2.16666666667
20
-7.16666666666
11
2.83333333334
21
-7.16666666666
0
LINE
5
1B7
100
AcDbEntity
8
Shadow-mask
6
ByLayer
62
256
370
-1
100
AcDbLine
10
2.83333333334
20
-7.16666666666
11
2.83333333334
21
-7.83333333333
0
LINE
5
1B8
100
AcDbEntity
8
Shadow-mask
6
ByLayer
62
256
370
-1
100
AcDbLine
10
-14
20
14
11
14
21
14
0
LINE
5
1B9
100
AcDbEntity
8
Shadow-mask
6
ByLayer
62
256
370
-1
100
AcDbLine
10
14
20
14
11
14
21
-14
0
LINE
5
1BA
100
AcDbEntity
8
Shadow-mask
6
ByLayer
62
256
370
-1
100
AcDbLine
10
14
20
-14
11
-14
21
-14
0
LINE
5
1BB
100
AcDbEntity
8
Shadow-mask
6
ByLayer
62
256
370
-1
100
AcDbLine
10
-14
20
-14
11
-14
21
14
0
LINE
5
1BC
100
AcDbEntity
8
Shadow-mask
6
ByLayer
62
256
370
-1
100
AcDbLine
10
10
20
9
11
9
21
9
0
LINE
5
1BD
100
AcDbEntity
8
Shadow-mask
6
ByLayer
62
256
370
-1
100
AcDbLine
10
9
20
9
11
9
21
8
0
LINE
5
1BE
100
AcDbEntity
8
Shadow-mask
6
ByLayer
62
256
370
-1
100
AcDbLine
10
9
20
8
11
10
21
8
0
LINE
5
1BF
100
AcDbEntity
8
Shadow-mask
6
ByLayer
62
256
370
-1
100
AcDbLine
10
10
20
8
11
10
21
9
0
LINE
5
1C0
100
AcDbEntity
8
Shadow-mask
6
ByLayer
62
256
370
-1
100
AcDbLine
10
-10
20
-9
11
-9
21
-9
0
LINE
5
1C1
100
AcDbEntity
8
Shadow-mask
6
ByLayer
62
256
370
-1
100
AcDbLine
10
-9
20
-9
11
-9
21
-8
0
LINE
5
1C2
100
AcDbEntity
8
Shadow-mask
6
ByLayer
62
256
370
-1
100
AcDbLine
10
-9
20
-8
11
-10
21
-8
0
LINE
5
1C3
100
AcDbEntity
8
Shadow-mask
6
ByLayer
62
256
370
-1
100
AcDbLine
10
-10
20
-8
11
-10
21
-9
0
LINE
5
1C4
100
AcDbEntity
8
Shadow-mask
6
ByLayer
62
256
370
-1
100
AcDbLine
10
-9
20
-1
11
-10
21
-1
0
LINE
5
1C5
100
AcDbEntity
8
Shadow-mask
6
ByLayer
62
256
370
-1
100
AcDbLine
10
-10
20
-1
11
-10
21
-2
0
LINE
5
1C6
100
AcDbEntity
8
Shadow-mask
6
ByLayer
62
256
370
-1
100
AcDbLine
10
-10
20
-2
11
-9
21
-2
0
LINE
5
1C7
100
AcDbEntity
8
Shadow-mask
6
ByLayer
62
256
370
-1
100
AcDbLine
10
-9
20
-2
11
-9
21
-1
0
LINE
5
1C8
100
AcDbEntity
8
Shadow-mask
6
ByLayer
62
256
370
-1
100
AcDbLine
10
10
20
-1
11
9
21
-1
0
LINE
5
1C9
100
AcDbEntity
8
Shadow-mask
6
ByLayer
62
256
370
-1
100
AcDbLine
10
9
20
-1
11
9
21
-2
0
LINE
5
1CA
100
AcDbEntity
8
Shadow-mask
6
ByLayer
62
256
370
-1
100
AcDbLine
10
9
20
-2
11
10
21
-2
0
LINE
5
1CB
100
AcDbEntity
8
Shadow-mask
6
ByLayer
62
256
370
-1
100
AcDbLine
10
10
20
-2
11
10
21
-1
0
LINE
5
1CC
100
AcDbEntity
8
Shadow-mask
6
ByLayer
62
256
370
-1
100
AcDbLine
10
10
20
1
11
9
21
1
0
LINE
5
1CD
100
AcDbEntity
8
Shadow-mask
6
ByLayer
62
256
370
-1
100
AcDbLine
10
9
20
1
11
9
21
2
0
LINE
5
1CE
100
AcDbEntity
8
Shadow-mask
6
ByLayer
62
256
370
-1
100
AcDbLine
10
9
20
2
11
10
21
2
0
LINE
5
1CF
100
AcDbEntity
8
Shadow-mask
6
ByLayer
62
256
370
-1
100
AcDbLine
10
10
20
2
11
10
21
1
0
LINE
5
1D0
100
AcDbEntity
8
Shadow-mask
6
ByLayer
62
256
370
-1
100
AcDbLine
10
-10
20
1
11
-9
21
1
0
LINE
5
1D1
100
AcDbEntity
8
Shadow-mask
6
ByLayer
62
256
370
-1
100
AcDbLine
10
-9
20
1
11
-9
21
2
0
LINE
5
1D2
100
AcDbEntity
8
Shadow-mask
6
ByLayer
62
256
370
-1
100
AcDbLine
10
-9
20
2
11
-10
21
2
0
LINE
5
1D3
100
AcDbEntity
8
Shadow-mask
6
ByLayer
62
256
370
-1
100
AcDbLine
10
-10
20
2
11
-10
21
1
0
LINE
5
1D4
100
AcDbEntity
8
Shadow-mask
6
ByLayer
62
256
370
-1
100
AcDbLine
10
-11
20
2
11
-12
21
2
0
LINE
5
1D5
100
AcDbEntity
8
Shadow-mask
6
ByLayer
62
256
370
-1
100
AcDbLine
10
-12
20
-2
11
-11
21
-2
0
LINE
5
1D6
100
AcDbEntity
8
Shadow-mask
6
ByLayer
62
256
370
-1
100
AcDbLine
10
-11
20
-2
11
-11
21
2
0
LINE
5
1D7
100
AcDbEntity
8
Shadow-mask
6
ByLayer
62
256
370
-1
100
AcDbLine
10
11
20
2
11
12
21
2
0
LINE
5
1D8
100
AcDbEntity
8
Shadow-mask
6
ByLayer
62
256
370
-1
100
AcDbLine
10
12
20
-2
11
11
21
-2
0
LINE
5
1D9
100
AcDbEntity
8
Shadow-mask
6
ByLayer
62
256
370
-1
100
AcDbLine
10
11
20
-2
11
11
21
2
0
LINE
5
1DA
100
AcDbEntity
8
Shadow-mask
6
ByLayer
62
256
370
-1
100
AcDbLine
10
-12
20
2
11
-12
21
6
0
LINE
5
1DB
100
AcDbEntity
8
Shadow-mask
6
ByLayer
62
256
370
-1
100
AcDbLine
10
12
20
2
11
12
21
6
0
LINE
5
1DC
100
AcDbEntity
8
Shadow-mask
6
ByLayer
62
256
370
-1
100
AcDbLine
10
-12
20
-2
11
-12
21
-6.00000000004
0
LINE
5
1DD
100
AcDbEntity
8
Shadow-mask
6
ByLayer
62
256
370
-1
100
AcDbLine
10
12
20
-2
11
12
21
-5.9999999999
0
LINE
5
1DE
100
AcDbEntity
8
Shadow-mask
6
ByLayer
62
256
370
-1
100
AcDbLine
10
-13
20
11.2
11
-10.0833333333
21
9.91666666667
0
LINE
5
1DF
100
AcDbEntity
8
Shadow-mask
6
ByLayer
62
256
370
-1
100
AcDbLine
10
-8
20
11.2
11
-8
21
14
0
LINE
5
1E0
100
AcDbEntity
8
Shadow-mask
6
ByLayer
62
256
370
-1
100
AcDbLine
10
-8
20
14
11
-13
21
14
0
LINE
5
1E1
100
AcDbEntity
8
Shadow-mask
6
ByLayer
62
256
370
-1
100
AcDbLine
10
-13
20
14
11
-13
21
11.2
0
LINE
5
1E2
100
AcDbEntity
8
Shadow-mask
6
ByLayer
62
256
370
-1
100
AcDbLine
10
13
20
-14
11
13
21
-11.2
0
LINE
5
1E3
100
AcDbEntity
8
Shadow-mask
6
ByLayer
62
256
370
-1
100
AcDbLine
10
8
20
-11.2
11
8
21
-14
0
LINE
5
1E4
100
AcDbEntity
8
Shadow-mask
6
ByLayer
62
256
370
-1
100
AcDbLine
10
8
20
-14
11
13
21
-14
0
LINE
5
1E5
100
AcDbEntity
8
Shadow-mask
6
ByLayer
62
256
370
-1
100
AcDbLine
10
13
20
-11.2
11
11.1693700126
21
-10.3945225955
0
LINE
5
1E6
100
AcDbEntity
8
Shadow-mask
6
ByLayer
62
256
370
-1
100
AcDbLine
10
11.1693700126
20
-10.3945225955
11
7.26774753182
21
-10.3945225955
0
LINE
5
1E7
100
AcDbEntity
8
Shadow-mask
6
ByLayer
62
256
370
-1
100
AcDbLine
10
8
20
-11.2
11
7.26774753182
21
-10.3945225955
0
LINE
5
1E8
100
AcDbEntity
8
Shadow-mask
6
ByLayer
62
256
370
-1
100
AcDbLine
10
-10.0833333333
20
9.91666666667
11
-6.83333333333
21
9.91666666667
0
LINE
5
1E9
100
AcDbEntity
8
Shadow-mask
6
ByLayer
62
256
370
-1
100
AcDbLine
10
-8
20
11.2
11
-6.83333333333
21
9.91666666667
0
LINE
5
1EA
100
AcDbEntity
8
0
6
ByLayer
62
256
370
-1
100
AcDbLine
10
-14
20
-14
11
-14
21
14
0
CIRCLE
5
1EB
100
AcDbEntity
8
pin_contacts
6
ByLayer
62
256
370
-1
100
AcDbCircle
10
-40.73
20
0
40
0.87
0
CIRCLE
5
1EC
100
AcDbEntity
8
pin_contacts
6
ByLayer
62
256
370
-1
100
AcDbCircle
10
-15.27
20
0
40
0.87
0
CIRCLE
5
1ED
100
AcDbEntity
8
pin_contacts
6
ByLayer
62
256
370
-1
100
AcDbCircle
10
-39.78
20
-12.744
40
0.87
0
CIRCLE
5
1EE
100
AcDbEntity
8
pin_contacts
6
ByLayer
62
256
370
-1
100
AcDbCircle
10
-37.22
20
-12.744
40
0.87
0
CIRCLE
5
1EF
100
AcDbEntity
8
pin_contacts
6
ByLayer
62
256
370
-1
100
AcDbCircle
10
-32.77
20
-12.744
40
0.87
0
CIRCLE
5
1F0
100
AcDbEntity
8
pin_contacts
6
ByLayer
62
256
370
-1
100
AcDbCircle
10
-30.24
20
-12.744
40
0.87
0
CIRCLE
5
1F1
100
AcDbEntity
8
pin_contacts
6
ByLayer
62
256
370
-1
100
AcDbCircle
10
-25.77
20
-12.744
40
0.87
0
CIRCLE
5
1F2
100
AcDbEntity
8
pin_contacts
6
ByLayer
62
256
370
-1
100
AcDbCircle
10
-23.23
20
-12.744
40
0.87
0
CIRCLE
5
1F3
100
AcDbEntity
8
pin_contacts
6
ByLayer
62
256
370
-1
100
AcDbCircle
10
-18.77
20
-12.744
40
0.87
0
CIRCLE
5
1F4
100
AcDbEntity
8
pin_contacts
6
ByLayer
62
256
370
-1
100
AcDbCircle
10
-16.23
20
-12.744
40
0.87
0
CIRCLE
5
1F5
100
AcDbEntity
8
pin_contacts
6
ByLayer
62
256
370
-1
100
AcDbCircle
10
-39.78
20
12.744
40
0.87
0
CIRCLE
5
1F6
100
AcDbEntity
8
pin_contacts
6
ByLayer
62
256
370
-1
100
AcDbCircle
10
-37.22
20
12.744
40
0.87
0
CIRCLE
5
1F7
100
AcDbEntity
8
pin_contacts
6
ByLayer
62
256
370
-1
100
AcDbCircle
10
-32.77
20
12.744
40
0.87
0
CIRCLE
5
1F8
100
AcDbEntity
8
pin_contacts
6
ByLayer
62
256
370
-1
100
AcDbCircle
10
-30.24
20
12.744
40
0.87
0
CIRCLE
5
1F9
100
AcDbEntity
8
pin_contacts
6
ByLayer
62
256
370
-1
100
AcDbCircle
10
-25.77
20
12.744
40
0.87
0
CIRCLE
5
1FA
100
AcDbEntity
8
pin_contacts
6
ByLayer
62
256
370
-1
100
AcDbCircle
10
-23.23
20
12.744
40
0.87
0
CIRCLE
5
1FB
100
AcDbEntity
8
pin_contacts
6
ByLayer
62
256
370
-1
100
AcDbCircle
10
-18.77
20
12.744
40
0.87
0
CIRCLE
5
1FC
100
AcDbEntity
8
pin_contacts
6
ByLayer
62
256
370
-1
100
AcDbCircle
10
-16.23
20
12.744
40
0.87
0
LWPOLYLINE
5
1FD
100
AcDbEntity
8
safety_border
6
ByLayer
62
256
370
-1
100
AcDbPolyline
90
4
70
1
43
0
10
-38
20
-10
10
-18
20
-10
10
-18
20
10
10
-38
20
10
0
LINE
5
1FE
100
AcDbEntity
8
active_windows
6
ByLayer
62
256
370
-1
100
AcDbLine
10
-36.5
20
9
11
-33.5
21
9
0
LINE
5
1FF
100
AcDbEntity
8
active_windows
6
ByLayer
62
256
370
-1
100
AcDbLine
10
-33.5
20
9
11
-33.5
21
2
0
LINE
5
200
100
AcDbEntity
8
active_windows
6
ByLayer
62
256
370
-1
100
AcDbLine
10
-33.5
20
2
11
-36.5
21
2
0
LINE
5
201
100
AcDbEntity
8
active_windows
6
ByLayer
62
256
370
-1
100
AcDbLine
10
-36.5
20
2
11
-36.5
21
9
0
LINE
5
202
100
AcDbEntity
8
active_windows
6
ByLayer
62
256
370
-1
100
AcDbLine
10
-31.5
20
9
11
-29.5
21
9
0
LINE
5
203
100
AcDbEntity
8
active_windows
6
ByLayer
62
256
370
-1
100
AcDbLine
10
-27.5
20
9
11
-24.5
21
9
0
LINE
5
204
100
AcDbEntity
8
active_windows
6
ByLayer
62
256
370
-1
100
AcDbLine
10
-24.5
20
9
11
-24.5
21
2
0
LINE
5
205
100
AcDbEntity
8
active_windows
6
ByLayer
62
256
370
-1
100
AcDbLine
10
-24.5
20
2
11
-27.5
21
2
0
LINE
5
206
100
AcDbEntity
8
active_windows
6
ByLayer
62
256
370
-1
100
AcDbLine
10
-27.5
20
2
11
-27.5
21
9
0
LINE
5
207
100
AcDbEntity
8
active_windows
6
ByLayer
62
256
370
-1
100
AcDbLine
10
-22.5
20
9
11
-19.5
21
9
0
LINE
5
208
100
AcDbEntity
8
active_windows
6
ByLayer
62
256
370
-1
100
AcDbLine
10
-19.5
20
9
11
-19.5
21
2
0
LINE
5
209
100
AcDbEntity
8
active_windows
6
ByLayer
62
256
370
-1
100
AcDbLine
10
-19.5
20
2
11
-22.5
21
2
0
LINE
5
20A
100
AcDbEntity
8
active_windows
6
ByLayer
62
256
370
-1
100
AcDbLine
10
-22.5
20
2
11
-22.5
21
9
0
LINE
5
20B
100
AcDbEntity
8
active_windows
6
ByLayer
62
256
370
-1
100
AcDbLine
10
-29.5
20
9
11
-29.5
21
6
0
LINE
5
20C
100
AcDbEntity
8
active_windows
6
ByLayer
62
256
370
-1
100
AcDbLine
10
-29.5
20
6
11
-31.5
21
6
0
LINE
5
20D
100
AcDbEntity
8
active_windows
6
ByLayer
62
256
370
-1
100
AcDbLine
10
-31.5
20
6
11
-31.5
21
9
0
LINE
5
20E
100
AcDbEntity
8
active_windows
6
ByLayer
62
256
370
-1
100
AcDbLine
10
-19.5
20
-9
11
-22.5
21
-9
0
LINE
5
20F
100
AcDbEntity
8
active_windows
6
ByLayer
62
256
370
-1
100
AcDbLine
10
-22.5
20
-9
11
-22.5
21
-2
0
LINE
5
210
100
AcDbEntity
8
active_windows
6
ByLayer
62
256
370
-1
100
AcDbLine
10
-22.5
20
-2
11
-19.5
21
-2
0
LINE
5
211
100
AcDbEntity
8
active_windows
6
ByLayer
62
256
370
-1
100
AcDbLine
10
-19.5
20
-2
11
-19.5
21
-9
0
LINE
5
212
100
AcDbEntity
8
active_windows
6
ByLayer
62
256
370
-1
100
AcDbLine
10
-24.5
20
-9
11
-26.5
21
-9
0
LINE
5
213
100
AcDbEntity
8
active_windows
6
ByLayer
62
256
370
-1
100
AcDbLine
10
-28.5
20
-9
11
-31.5
21
-9
0
LINE
5
214
100
AcDbEntity
8
active_windows
6
ByLayer
62
256
370
-1
100
AcDbLine
10
-31.5
20
-9
11
-31.5
21
-2
0
LINE
5
215
100
AcDbEntity
8
active_windows
6
ByLayer
62
256
370
-1
100
AcDbLine
10
-31.5
20
-2
11
-28.5
21
-2
0
LINE
5
216
100
AcDbEntity
8
active_windows
6
ByLayer
62
256
370
-1
100
AcDbLine
10
-28.5
20
-2
11
-28.5
21
-9
0
LINE
5
217
100
AcDbEntity
8
active_windows
6
ByLayer
62
256
370
-1
100
AcDbLine
10
-33.5
20
-9
11
-36.5
21
-9
0
LINE
5
218
100
AcDbEntity
8
active_windows
6
ByLayer
62
256
370
-1
100
AcDbLine
10
-36.5
20
-9
11
-36.5
21
-2
0
LINE
5
219
100
AcDbEntity
8
active_windows
6
ByLayer
62
256
370
-1
100
AcDbLine
10
-36.5
20
-2
11
-33.5
21
-2
0
LINE
5
21A
100
AcDbEntity
8
active_windows
6
ByLayer
62
256
370
-1
100
AcDbLine
10
-33.5
20
-2
11
-33.5
21
-9
0
LINE
5
21B
100
AcDbEntity
8
active_windows
6
ByLayer
62
256
370
-1
100
AcDbLine
10
-26.5
20
-9
11
-26.5
21
-6
0
LINE
5
21C
100
AcDbEntity
8
active_windows
6
ByLayer
62
256
370
-1
100
AcDbLine
10
-26.5
20
-6
11
-24.5
21
-6
0
LINE
5
21D
100
AcDbEntity
8
active_windows
6
ByLayer
62
256
370
-1
100
AcDbLine
10
-24.5
20
-6
11
-24.5
21
-9
0
DIMENSION
5
21E
100
AcDbEntity
8
quotes
6
ByLayer
62
256
370
-1
100
AcDbDimension
2
*D7
10
-25
20
-18.5739720988
30
0
11
-25.5
21
-16.6989720988
31
0
70
32
71
5
72
0
3
Standard
53
0
210
0
220
0
230
1
100
AcDbAlignedDimension
13
-26
23
-8
33
0
14
-25
24
-8
34
0
100
AcDbRotatedDimension
0
LINE
5
21F
100
AcDbEntity
8
Shadow-mask
6
ByLayer
62
256
370
-1
100
AcDbLine
10
-35.75
20
7.8
11
-34.25
21
7.8
0
LINE
5
220
100
AcDbEntity
8
Shadow-mask
6
ByLayer
62
256
370
-1
100
AcDbLine
10
-34.25
20
7.8
11
-34.25
21
3.2
0
LINE
5
221
100
AcDbEntity
8
Shadow-mask
6
ByLayer
62
256
370
-1
100
AcDbLine
10
-34.25
20
3.2
11
-35.75
21
3.2
0
LINE
5
222
100
AcDbEntity
8
Shadow-mask
6
ByLayer
62
256
370
-1
100
AcDbLine
10
-35.75
20
3.2
11
-35.75
21
7.8
0
LINE
5
223
100
AcDbEntity
8
Shadow-mask
6
ByLayer
62
256
370
-1
100
AcDbLine
10
-26.75
20
7.8
11
-25.25
21
7.8
0
LINE
5
224
100
AcDbEntity
8
Shadow-mask
6
ByLayer
62
256
370
-1
100
AcDbLine
10
-25.25
20
7.8
11
-25.25
21
3.2
0
LINE
5
225
100
AcDbEntity
8
Shadow-mask
6
ByLayer
62
256
370
-1
100
AcDbLine
10
-25.25
20
3.2
11
-26.75
21
3.2
0
LINE
5
226
100
AcDbEntity
8
Shadow-mask
6
ByLayer
62
256
370
-1
100
AcDbLine
10
-26.75
20
3.2
11
-26.75
21
7.8
0
LINE
5
227
100
AcDbEntity
8
Shadow-mask
6
ByLayer
62
256
370
-1
100
AcDbLine
10
-21.75
20
7.8
11
-20.25
21
7.8
0
LINE
5
228
100
AcDbEntity
8
Shadow-mask
6
ByLayer
62
256
370
-1
100
AcDbLine
10
-20.25
20
7.8
11
-20.25
21
3.2
0
LINE
5
229
100
AcDbEntity
8
Shadow-mask
6
ByLayer
62
256
370
-1
100
AcDbLine
10
-20.25
20
3.2
11
-21.75
21
3.2
0
LINE
5
22A
100
AcDbEntity
8
Shadow-mask
6
ByLayer
62
256
370
-1
100
AcDbLine
10
-21.75
20
3.2
11
-21.75
21
7.8
0
LINE
5
22B
100
AcDbEntity
8
Shadow-mask
6
ByLayer
62
256
370
-1
100
AcDbLine
10
-30.8333333333
20
7.83333333333
11
-30.1666666667
21
7.83333333333
0
LINE
5
22C
100
AcDbEntity
8
Shadow-mask
6
ByLayer
62
256
370
-1
100
AcDbLine
10
-30.1666666667
20
7.83333333333
11
-30.1666666667
21
7.16666666666
0
LINE
5
22D
100
AcDbEntity
8
Shadow-mask
6
ByLayer
62
256
370
-1
100
AcDbLine
10
-30.1666666667
20
7.16666666666
11
-30.8333333333
21
7.16666666666
0
LINE
5
22E
100
AcDbEntity
8
Shadow-mask
6
ByLayer
62
256
370
-1
100
AcDbLine
10
-30.8333333333
20
7.16666666666
11
-30.8333333333
21
7.83333333333
0
LINE
5
22F
100
AcDbEntity
8
Shadow-mask
6
ByLayer
62
256
370
-1
100
AcDbLine
10
-16.6
20
8.65
11
-16.6
21
9
0
LINE
5
230
100
AcDbEntity
8
Shadow-mask
6
ByLayer
62
256
370
-1
100
AcDbLine
10
-16.6
20
9
11
-16.3
21
9
0
LINE
5
231
100
AcDbEntity
8
Shadow-mask
6
ByLayer
62
256
370
-1
100
AcDbLine
10
-16.3
20
9
11
-16.3
21
8.65
0
LINE
5
232
100
AcDbEntity
8
Shadow-mask
6
ByLayer
62
256
370
-1
100
AcDbLine
10
-16.3
20
8.65
11
-15.95
21
8.65
0
LINE
5
233
100
AcDbEntity
8
Shadow-mask
6
ByLayer
62
256
370
-1
100
AcDbLine
10
-15.95
20
8.65
11
-15.95
21
8.35
0
LINE
5
234
100
AcDbEntity
8
Shadow-mask
6
ByLayer
62
256
370
-1
100
AcDbLine
10
-15.95
20
8.35
11
-16.3
21
8.35
0
LINE
5
235
100
AcDbEntity
8
Shadow-mask
6
ByLayer
62
256
370
-1
100
AcDbLine
10
-16.3
20
8.35
11
-16.3
21
8
0
LINE
5
236
100
AcDbEntity
8
Shadow-mask
6
ByLayer
62
256
370
-1
100
AcDbLine
10
-16.3
20
8
11
-16.6
21
8
0
LINE
5
237
100
AcDbEntity
8
Shadow-mask
6
ByLayer
62
256
370
-1
100
AcDbLine
10
-16.6
20
8
11
-16.6
21
8.35
0
LINE
5
238
100
AcDbEntity
8
Shadow-mask
6
ByLayer
62
256
370
-1
100
AcDbLine
10
-16.6
20
8.35
11
-16.95
21
8.35
0
LINE
5
239
100
AcDbEntity
8
Shadow-mask
6
ByLayer
62
256
370
-1
100
AcDbLine
10
-16.95
20
8.35
11
-16.95
21
8.65
0
LINE
5
23A
100
AcDbEntity
8
Shadow-mask
6
ByLayer
62
256
370
-1
100
AcDbLine
10
-16.95
20
8.65
11
-16.6
21
8.65
0
CIRCLE
5
23B
100
AcDbEntity
8
Shadow-mask
6
ByLayer
62
256
370
-1
100
AcDbCircle
10
-39.5
20
-8.5
40
0.5
0
LINE
5
23C
100
AcDbEntity
8
Shadow-mask
6
ByLayer
62
256
370
-1
100
AcDbLine
10
-40
20
6
11
-42
21
6
0
LINE
5
23D
100
AcDbEntity
8
Shadow-mask
6
ByLayer
62
256
370
-1
100
AcDbLine
10
-42
20
6
11
-42
21
-6.00000000004
0
LINE
5
23E
100
AcDbEntity
8
Shadow-mask
6
ByLayer
62
256
370
-1
100
AcDbLine
10
-42
20
-6.00000000004
11
-40
21
-6.00000000004
0
LINE
5
23F
100
AcDbEntity
8
Shadow-mask
6
ByLayer
62
256
370
-1
100
AcDbLine
10
-16
20
6
11
-14
21
6
0
LINE
5
240
100
AcDbEntity
8
Shadow-mask
6
ByLayer
62
256
370
-1
100
AcDbLine
10
-14
20
6
11
-14
21
-5.9999999999
0
LINE
5
241
100
AcDbEntity
8
Shadow-mask
6
ByLayer
62
256
370
-1
100
AcDbLine
10
-14
20
-5.9999999999
11
-16
21
-5.9999999999
0
LINE
5
242
100
AcDbEntity
8
Shadow-mask
6
ByLayer
62
256
370
-1
100
AcDbLine
10
-20.25
20
-7.8
11
-21.75
21
-7.8
0
LINE
5
243
100
AcDbEntity
8
Shadow-mask
6
ByLayer
62
256
370
-1
100
AcDbLine
10
-21.75
20
-7.8
11
-21.75
21
-3.2
0
LINE
5
244
100
AcDbEntity
8
Shadow-mask
6
ByLayer
62
256
370
-1
100
AcDbLine
10
-21.75
20
-3.2
11
-20.25
21
-3.2
0
LINE
5
245
100
AcDbEntity
8
Shadow-mask
6
ByLayer
62
256
370
-1
100
AcDbLine
10
-20.25
20
-3.2
11
-20.25
21
-7.8
0
LINE
5
246
100
AcDbEntity
8
Shadow-mask
6
ByLayer
62
256
370
-1
100
AcDbLine
10
-29.25
20
-7.8
11
-30.75
21
-7.8
0
LINE
5
247
100
AcDbEntity
8
Shadow-mask
6
ByLayer
62
256
370
-1
100
AcDbLine
10
-30.75
20
-7.8
11
-30.75
21
-3.2
0
LINE
5
248
100
AcDbEntity
8
Shadow-mask
6
ByLayer
62
256
370
-1
100
AcDbLine
10
-30.75
20
-3.2
11
-29.25
21
-3.2
0
LINE
5
249
100
AcDbEntity
8
Shadow-mask
6
ByLayer
62
256
370
-1
100
AcDbLine
10
-29.25
20
-3.2
11
-29.25
21
-7.8
0
LINE
5
24A
100
AcDbEntity
8
Shadow-mask
6
ByLayer
62
256
370
-1
100
AcDbLine
10
-34.25
20
-7.8
11
-35.75
21
-7.8
0
LINE
5
24B
100
AcDbEntity
8
Shadow-mask
6
ByLayer
62
256
370
-1
100
AcDbLine
10
-35.75
20
-7.8
11
-35.75
21
-3.2
0
LINE
5
24C
100
AcDbEntity
8
Shadow-mask
6
ByLayer
62
256
370
-1
100
AcDbLine
10
-35.75
20
-3.2
11
-34.25
21
-3.2
0
LINE
5
24D
100
AcDbEntity
8
Shadow-mask
6
ByLayer
62
256
370
-1
100
AcDbLine
10
-34.25
20
-3.2
11
-34.25
21
-7.8
0
LINE
5
24E
100
AcDbEntity
8
Shadow-mask
6
ByLayer
62
256
370
-1
100
AcDbLine
10
-25.1666666667
20
-7.83333333333
11
-25.8333333333
21
-7.83333333333
0
LINE
5
24F
100
AcDbEntity
8
Shadow-mask
6
ByLayer
62
256
370
-1
100
AcDbLine
10
-25.8333333333
20
-7.83333333333
11
-25.8333333333
21
-7.16666666666
0
LINE
5
250
100
AcDbEntity
8
Shadow-mask
6
ByLayer
62
256
370
-1
100
AcDbLine
10
-25.8333333333
20
-7.16666666666
11
-25.1666666667
21
-7.16666666666
0
LINE
5
251
100
AcDbEntity
8
Shadow-mask
6
ByLayer
62
256
370
-1
100
AcDbLine
10
-25.1666666667
20
-7.16666666666
11
-25.1666666667
21
-7.83333333333
0
LINE
5
252
100
AcDbEntity
8
Shadow-mask
6
ByLayer
62
256
370
-1
100
AcDbLine
10
-42
20
14
11
-14
21
14
0
LINE
5
253
100
AcDbEntity
8
Shadow-mask
6
ByLayer
62
256
370
-1
100
AcDbLine
10
-14
20
14
11
-14
21
-14
0
LINE
5
254
100
AcDbEntity
8
Shadow-mask
6
ByLayer
62
256
370
-1
100
AcDbLine
10
-14
20
-14
11
-42
21
-14
0
LINE
5
255
100
AcDbEntity
8
Shadow-mask
6
ByLayer
62
256
370
-1
100
AcDbLine
10
-42
20
-14
11
-42
21
14
0
LINE
5
256
100
AcDbEntity
8
Shadow-mask
6
ByLayer
62
256
370
-1
100
AcDbLine
10
-18
20
9
11
-19
21
9
0
LINE
5
257
100
AcDbEntity
8
Shadow-mask
6
ByLayer
62
256
370
-1
100
AcDbLine
10
-19
20
9
11
-19
21
8
0
LINE
5
258
100
AcDbEntity
8
Shadow-mask
6
ByLayer
62
256
370
-1
100
AcDbLine
10
-19
20
8
11
-18
21
8
0
LINE
5
259
100
AcDbEntity
8
Shadow-mask
6
ByLayer
62
256
370
-1
100
AcDbLine
10
-18
20
8
11
-18
21
9
0
LINE
5
25A
100
AcDbEntity
8
Shadow-mask
6
ByLayer
62
256
370
-1
100
AcDbLine
10
-38
20
-9
11
-37
21
-9
0
LINE
5
25B
100
AcDbEntity
8
Shadow-mask
6
ByLayer
62
256
370
-1
100
AcDbLine
10
-37
20
-9
11
-37
21
-8
0
LINE
5
25C
100
AcDbEntity
8
Shadow-mask
6
ByLayer
62
256
370
-1
100
AcDbLine
10
-37
20
-8
11
-38
21
-8
0
LINE
5
25D
100
AcDbEntity
8
Shadow-mask
6
ByLayer
62
256
370
-1
100
AcDbLine
10
-38
20
-8
11
-38
21
-9
0
LINE
5
25E
100
AcDbEntity
8
Shadow-mask
6
ByLayer
62
256
370
-1
100
AcDbLine
10
-37
20
-1
11
-38
21
-1
0
LINE
5
25F
100
AcDbEntity
8
Shadow-mask
6
ByLayer
62
256
370
-1
100
AcDbLine
10
-38
20
-1
11
-38
21
-2
0
LINE
5
260
100
AcDbEntity
8
Shadow-mask
6
ByLayer
62
256
370
-1
100
AcDbLine
10
-38
20
-2
11
-37
21
-2
0
LINE
5
261
100
AcDbEntity
8
Shadow-mask
6
ByLayer
62
256
370
-1
100
AcDbLine
10
-37
20
-2
11
-37
21
-1
0
LINE
5
262
100
AcDbEntity
8
Shadow-mask
6
ByLayer
62
256
370
-1
100
AcDbLine
10
-18
20
-1
11
-19
21
-1
0
LINE
5
263
100
AcDbEntity
8
Shadow-mask
6
ByLayer
62
256
370
-1
100
AcDbLine
10
-19
20
-1
11
-19
21
-2
0
LINE
5
264
100
AcDbEntity
8
Shadow-mask
6
ByLayer
62
256
370
-1
100
AcDbLine
10
-19
20
-2
11
-18
21
-2
0
LINE
5
265
100
AcDbEntity
8
Shadow-mask
6
ByLayer
62
256
370
-1
100
AcDbLine
10
-18
20
-2
11
-18
21
-1
0
LINE
5
266
100
AcDbEntity
8
Shadow-mask
6
ByLayer
62
256
370
-1
100
AcDbLine
10
-18
20
1
11
-19
21
1
0
LINE
5
267
100
AcDbEntity
8
Shadow-mask
6
ByLayer
62
256
370
-1
100
AcDbLine
10
-19
20
1
11
-19
21
2
0
LINE
5
268
100
AcDbEntity
8
Shadow-mask
6
ByLayer
62
256
370
-1
100
AcDbLine
10
-19
20
2
11
-18
21
2
0
LINE
5
269
100
AcDbEntity
8
Shadow-mask
6
ByLayer
62
256
370
-1
100
AcDbLine
10
-18
20
2
11
-18
21
1
0
LINE
5
26A
100
AcDbEntity
8
Shadow-mask
6
ByLayer
62
256
370
-1
100
AcDbLine
10
-38
20
1
11
-37
21
1
0
LINE
5
26B
100
AcDbEntity
8
Shadow-mask
6
ByLayer
62
256
370
-1
100
AcDbLine
10
-37
20
1
11
-37
21
2
0
LINE
5
26C
100
AcDbEntity
8
Shadow-mask
6
ByLayer
62
256
370
-1
100
AcDbLine
10
-37
20
2
11
-38
21
2
0
LINE
5
26D
100
AcDbEntity
8
Shadow-mask
6
ByLayer
62
256
370
-1
100
AcDbLine
10
-38
20
2
11
-38
21
1
0
LINE
5
26E
100
AcDbEntity
8
Shadow-mask
6
ByLayer
62
256
370
-1
100
AcDbLine
10
-39
20
2
11
-40
21
2
0
LINE
5
26F
100
AcDbEntity
8
Shadow-mask
6
ByLayer
62
256
370
-1
100
AcDbLine
10
-40
20
-2
11
-39
21
-2
0
LINE
5
270
100
AcDbEntity
8
Shadow-mask
6
ByLayer
62
256
370
-1
100
AcDbLine
10
-39
20
-2
11
-39
21
2
0
LINE
5
271
100
AcDbEntity
8
Shadow-mask
6
ByLayer
62
256
370
-1
100
AcDbLine
10
-17
20
2
11
-16
21
2
0
LINE
5
272
100
AcDbEntity
8
Shadow-mask
6
ByLayer
62
256
370
-1
100
AcDbLine
10
-16
20
-2
11
-17
21
-2
0
LINE
5
273
100
AcDbEntity
8
Shadow-mask
6
ByLayer
62
256
370
-1
100
AcDbLine
10
-17
20
-2
11
-17
21
2
0
LINE
5
274
100
AcDbEntity
8
Shadow-mask
6
ByLayer
62
256
370
-1
100
AcDbLine
10
-40
20
2
11
-40
21
6
0
LINE
5
275
100
AcDbEntity
8
Shadow-mask
6
ByLayer
62
256
370
-1
100
AcDbLine
10
-16
20
2
11
-16
21
6
0
LINE
5
276
100
AcDbEntity
8
Shadow-mask
6
ByLayer
62
256
370
-1
100
AcDbLine
10
-40
20
-2
11
-40
21
-6.00000000004
0
LINE
5
277
100
AcDbEntity
8
Shadow-mask
6
ByLayer
62
256
370
-1
100
AcDbLine
10
-16
20
-2
11
-16
21
-5.9999999999
0
LINE
5
278
100
AcDbEntity
8
Shadow-mask
6
ByLayer
62
256
370
-1
100
AcDbLine
10
-41
20
11.2
11
-38.0833333333
21
9.91666666667
0
LINE
5
279
100
AcDbEntity
8
Shadow-mask
6
ByLayer
62
256
370
-1
100
AcDbLine
10
-36
20
11.2
11
-36
21
14
0
LINE
5
27A
100
AcDbEntity
8
Shadow-mask
6
ByLayer
62
256
370
-1
100
AcDbLine
10
-36
20
14
11
-41
21
14
0
LINE
5
27B
100
AcDbEntity
8
Shadow-mask
6
ByLayer
62
256
370
-1
100
AcDbLine
10
-41
20
14
11
-41
21
11.2
0
LINE
5
27C
100
AcDbEntity
8
Shadow-mask
6
ByLayer
62
256
370
-1
100
AcDbLine
10
-15
20
-14
11
-15
21
-11.2
0
LINE
5
27D
100
AcDbEntity
8
Shadow-mask
6
ByLayer
62
256
370
-1
100
AcDbLine
10
-20
20
-11.2
11
-20
21
-14
0
LINE
5
27E
100
AcDbEntity
8
Shadow-mask
6
ByLayer
62
256
370
-1
100
AcDbLine
10
-20
20
-14
11
-15
21
-14
0
LINE
5
27F
100
AcDbEntity
8
Shadow-mask
6
ByLayer
62
256
370
-1
100
AcDbLine
10
-15
20
-11.2
11
-16.8306299874
21
-10.3945225955
0
LINE
5
280
100
AcDbEntity
8
Shadow-mask
6
ByLayer
62
256
370
-1
100
AcDbLine
10
-16.8306299874
20
-10.3945225955
11
-20.7322524682
21
-10.3945225955
0
LINE
5
281
100
AcDbEntity
8
Shadow-mask
6
ByLayer
62
256
370
-1
100
AcDbLine
10
-20
20
-11.2
11
-20.7322524682
21
-10.3945225955
0
LINE
5
282
100
AcDbEntity
8
Shadow-mask
6
ByLayer
62
256
370
-1
100
AcDbLine
10
-38.0833333333
20
9.91666666667
11
-34.8333333333
21
9.91666666667
0
LINE
5
283
100
AcDbEntity
8
Shadow-mask
6
ByLayer
62
256
370
-1
100
AcDbLine
10
-36
20
11.2
11
-34.8333333333
21
9.91666666667
0
LINE
5
284
100
AcDbEntity
8
0
6
ByLayer
62
256
370
-1
100
AcDbLine
10
14
20
-14
11
-14
21
-14
0
LWPOLYLINE
5
285
100
AcDbEntity
8
safety_border
6
ByLayer
62
256
370
-1
100
AcDbPolyline
90
4
70
1
43
0
10
-10
20
-38
10
10
20
-38
10
10
20
-18
10
-10
20
-18
0
LWPOLYLINE
5
286
100
AcDbEntity
8
safety_border
6
ByLayer
62
256
370
-1
100
AcDbPolyline
90
4
70
1
43
0
10
-38
20
-38
10
-18
20
-38
10
-18
20
-18
10
-38
20
-18
0
LINE
5
287
100
AcDbEntity
8
0
6
ByLayer
62
256
370
-1
100
AcDbLine
10
-200
20
-18
11
-172
21
-18
0
LINE
5
288
100
AcDbEntity
8
0
6
ByLayer
62
256
370
-1
100
AcDbLine
10
-172
20
-18
11
-172
21
10
0
LINE
5
289
100
AcDbEntity
8
0
6
ByLayer
62
256
370
-1
100
AcDbLine
10
-172
20
10
11
-200
21
10
0
LINE
5
28A
100
AcDbEntity
8
0
6
ByLayer
62
256
370
-1
100
AcDbLine
10
-200
20
10
11
-200
21
-18
0
LINE
5
28B
100
AcDbEntity
8
encapsulation
6
ByLayer
62
256
370
-1
100
AcDbLine
10
-197
20
-15
11
-175
21
-15
0
LINE
5
28C
100
AcDbEntity
8
encapsulation
6
ByLayer
62
256
370
-1
100
AcDbLine
10
-175
20
-15
11
-175
21
7
0
LINE
5
28D
100
AcDbEntity
8
encapsulation
6
ByLayer
62
256
370
-1
100
AcDbLine
10
-175
20
7
11
-197
21
7
0
LINE
5
28E
100
AcDbEntity
8
encapsulation
6
ByLayer
62
256
370
-1
100
AcDbLine
10
-197
20
7
11
-197
21
-15
0
LINE
5
28F
100
AcDbEntity
8
encapsulation
6
ByLayer
62
256
370
-1
100
AcDbLine
10
-176
20
6
11
-196
21
6
0
LINE
5
290
100
AcDbEntity
8
encapsulation
6
ByLayer
62
256
370
-1
100
AcDbLine
10
-196
20
6
11
-196
21
-14
0
LINE
5
291
100
AcDbEntity
8
encapsulation
6
ByLayer
62
256
370
-1
100
AcDbLine
10
-176
20
-14
11
-176
21
6
0
LINE
5
292
100
AcDbEntity
8
encapsulation
6
ByLayer
62
256
370
-1
100
AcDbLine
10
-197
20
7
11
-175
21
7
0
LINE
5
293
100
AcDbEntity
8
encapsulation
6
ByLayer
62
256
370
-1
100
AcDbLine
10
-175
20
7
11
-175
21
-15
0
LINE
5
294
100
AcDbEntity
8
encapsulation
6
ByLayer
62
256
370
-1
100
AcDbLine
10
-175
20
-15
11
-197
21
-15
0
LINE
5
295
100
AcDbEntity
8
encapsulation
6
ByLayer
62
256
370
-1
100
AcDbLine
10
-197
20
-15
11
-197
21
7
0
LINE
5
296
100
AcDbEntity
8
encapsulation
6
ByLayer
62
256
370
-1
100
AcDbLine
10
-196
20
6
11
-176
21
6
0
LINE
5
297
100
AcDbEntity
8
encapsulation
6
ByLayer
62
256
370
-1
100
AcDbLine
10
-176
20
6
11
-176
21
-14
0
LINE
5
298
100
AcDbEntity
8
encapsulation
6
ByLayer
62
256
370
-1
100
AcDbLine
10
-176
20
-14
11
-196
21
-14
0
LINE
5
299
100
AcDbEntity
8
encapsulation
6
ByLayer
62
256
370
-1
100
AcDbLine
10
-196
20
-14
11
-196
21
6
0
LINE
5
29A
100
AcDbEntity
8
TCO
6
ByLayer
62
256
370
-1
100
AcDbLine
10
-172
20
4
11
-172
21
-1
0
LINE
5
29B
100
AcDbEntity
8
TCO
6
ByLayer
62
256
370
-1
100
AcDbLine
10
-172
20
-1
11
-186.5
21
-1
0
LINE
5
29C
100
AcDbEntity
8
TCO
6
ByLayer
62
256
370
-1
100
AcDbLine
10
-186.5
20
-1
11
-186.5
21
3
0
LINE
5
29D
100
AcDbEntity
8
TCO
6
ByLayer
62
256
370
-1
100
AcDbLine
10
-190.5
20
-1
11
-190.5
21
3
0
LINE
5
29E
100
AcDbEntity
8
TCO
6
ByLayer
62
256
370
-1
100
AcDbLine
10
-190.5
20
3
11
-186.5
21
3
0
LINE
5
29F
100
AcDbEntity
8
TCO
6
ByLayer
62
256
370
-1
100
AcDbLine
10
-172
20
-7
11
-172
21
-12
0
LINE
5
2A0
100
AcDbEntity
8
TCO
6
ByLayer
62
256
370
-1
100
AcDbLine
10
-172
20
-7
11
-181.5
21
-7
0
LINE
5
2A1
100
AcDbEntity
8
TCO
6
ByLayer
62
256
370
-1
100
AcDbLine
10
-185.5
20
-7
11
-185.5
21
-11
0
LINE
5
2A2
100
AcDbEntity
8
TCO
6
ByLayer
62
256
370
-1
100
AcDbLine
10
-181.5
20
-7
11
-181.5
21
-11
0
LINE
5
2A3
100
AcDbEntity
8
TCO
6
ByLayer
62
256
370
-1
100
AcDbLine
10
-181.5
20
-11
11
-185.5
21
-11
0
LINE
5
2A4
100
AcDbEntity
8
0
6
ByLayer
62
256
370
-1
100
AcDbLine
10
-200
20
-18
11
-200
21
10
0
LINE
5
2A5
100
AcDbEntity
8
0
6
ByLayer
62
256
370
-1
100
AcDbLine
10
-172
20
-18
11
-200
21
-18
0
LINE
5
2A6
100
AcDbEntity
8
0
6
ByLayer
62
256
370
-1
100
AcDbLine
10
-172
20
-18
11
-144
21
-18
0
LINE
5
2A7
100
AcDbEntity
8
0
6
ByLayer
62
256
370
-1
100
AcDbLine
10
-144
20
-18
11
-144
21
10
0
LINE
5
2A8
100
AcDbEntity
8
0
6
ByLayer
62
256
370
-1
100
AcDbLine
10
-144
20
10
11
-172
21
10
0
LINE
5
2A9
100
AcDbEntity
8
0
6
ByLayer
62
256
370
-1
100
AcDbLine
10
-172
20
10
11
-172
21
-18
0
LINE
5
2AA
100
AcDbEntity
8
encapsulation
6
ByLayer
62
256
370
-1
100
AcDbLine
10
-169
20
-15
11
-147
21
-15
0
LINE
5
2AB
100
AcDbEntity
8
encapsulation
6
ByLayer
62
256
370
-1
100
AcDbLine
10
-147
20
-15
11
-147
21
7
0
LINE
5
2AC
100
AcDbEntity
8
encapsulation
6
ByLayer
62
256
370
-1
100
AcDbLine
10
-147
20
7
11
-169
21
7
0
LINE
5
2AD
100
AcDbEntity
8
encapsulation
6
ByLayer
62
256
370
-1
100
AcDbLine
10
-169
20
7
11
-169
21
-15
0
LINE
5
2AE
100
AcDbEntity
8
encapsulation
6
ByLayer
62
256
370
-1
100
AcDbLine
10
-148
20
6
11
-168
21
6
0
LINE
5
2AF
100
AcDbEntity
8
encapsulation
6
ByLayer
62
256
370
-1
100
AcDbLine
10
-168
20
6
11
-168
21
-14
0
LINE
5
2B0
100
AcDbEntity
8
encapsulation
6
ByLayer
62
256
370
-1
100
AcDbLine
10
-148
20
-14
11
-148
21
6
0
LINE
5
2B1
100
AcDbEntity
8
encapsulation
6
ByLayer
62
256
370
-1
100
AcDbLine
10
-169
20
7
11
-147
21
7
0
LINE
5
2B2
100
AcDbEntity
8
encapsulation
6
ByLayer
62
256
370
-1
100
AcDbLine
10
-147
20
7
11
-147
21
-15
0
LINE
5
2B3
100
AcDbEntity
8
encapsulation
6
ByLayer
62
256
370
-1
100
AcDbLine
10
-147
20
-15
11
-169
21
-15
0
LINE
5
2B4
100
AcDbEntity
8
encapsulation
6
ByLayer
62
256
370
-1
100
AcDbLine
10
-169
20
-15
11
-169
21
7
0
LINE
5
2B5
100
AcDbEntity
8
encapsulation
6
ByLayer
62
256
370
-1
100
AcDbLine
10
-168
20
6
11
-148
21
6
0
LINE
5
2B6
100
AcDbEntity
8
encapsulation
6
ByLayer
62
256
370
-1
100
AcDbLine
10
-148
20
6
11
-148
21
-14
0
LINE
5
2B7
100
AcDbEntity
8
encapsulation
6
ByLayer
62
256
370
-1
100
AcDbLine
10
-148
20
-14
11
-168
21
-14
0
LINE
5
2B8
100
AcDbEntity
8
encapsulation
6
ByLayer
62
256
370
-1
100
AcDbLine
10
-168
20
-14
11
-168
21
6
0
LINE
5
2B9
100
AcDbEntity
8
0
6
ByLayer
62
256
370
-1
100
AcDbLine
10
-172
20
-18
11
-172
21
10
0
LINE
5
2BA
100
AcDbEntity
8
0
6
ByLayer
62
256
370
-1
100
AcDbLine
10
-144
20
-18
11
-172
21
-18
0
LINE
5
2BB
100
AcDbEntity
8
0
6
ByLayer
62
256
370
-1
100
AcDbLine
10
-200
20
-46
11
-172
21
-46
0
LINE
5
2BC
100
AcDbEntity
8
0
6
ByLayer
62
256
370
-1
100
AcDbLine
10
-172
20
-46
11
-172
21
-18
0
LINE
5
2BD
100
AcDbEntity
8
0
6
ByLayer
62
256
370
-1
100
AcDbLine
10
-172
20
-18
11
-200
21
-18
0
LINE
5
2BE
100
AcDbEntity
8
0
6
ByLayer
62
256
370
-1
100
AcDbLine
10
-200
20
-18
11
-200
21
-46
0
LINE
5
2BF
100
AcDbEntity
8
encapsulation
6
ByLayer
62
256
370
-1
100
AcDbLine
10
-197
20
-43
11
-175
21
-43
0
LINE
5
2C0
100
AcDbEntity
8
encapsulation
6
ByLayer
62
256
370
-1
100
AcDbLine
10
-175
20
-43
11
-175
21
-21
0
LINE
5
2C1
100
AcDbEntity
8
encapsulation
6
ByLayer
62
256
370
-1
100
AcDbLine
10
-175
20
-21
11
-197
21
-21
0
LINE
5
2C2
100
AcDbEntity
8
encapsulation
6
ByLayer
62
256
370
-1
100
AcDbLine
10
-197
20
-21
11
-197
21
-43
0
LINE
5
2C3
100
AcDbEntity
8
encapsulation
6
ByLayer
62
256
370
-1
100
AcDbLine
10
-176
20
-22
11
-196
21
-22
0
LINE
5
2C4
100
AcDbEntity
8
encapsulation
6
ByLayer
62
256
370
-1
100
AcDbLine
10
-196
20
-22
11
-196
21
-42
0
LINE
5
2C5
100
AcDbEntity
8
encapsulation
6
ByLayer
62
256
370
-1
100
AcDbLine
10
-176
20
-42
11
-176
21
-22
0
LINE
5
2C6
100
AcDbEntity
8
encapsulation
6
ByLayer
62
256
370
-1
100
AcDbLine
10
-197
20
-21
11
-175
21
-21
0
LINE
5
2C7
100
AcDbEntity
8
encapsulation
6
ByLayer
62
256
370
-1
100
AcDbLine
10
-175
20
-21
11
-175
21
-43
0
LINE
5
2C8
100
AcDbEntity
8
encapsulation
6
ByLayer
62
256
370
-1
100
AcDbLine
10
-175
20
-43
11
-197
21
-43
0
LINE
5
2C9
100
AcDbEntity
8
encapsulation
6
ByLayer
62
256
370
-1
100
AcDbLine
10
-197
20
-43
11
-197
21
-21
0
LINE
5
2CA
100
AcDbEntity
8
encapsulation
6
ByLayer
62
256
370
-1
100
AcDbLine
10
-196
20
-22
11
-176
21
-22
0
LINE
5
2CB
100
AcDbEntity
8
encapsulation
6
ByLayer
62
256
370
-1
100
AcDbLine
10
-176
20
-22
11
-176
21
-42
0
LINE
5
2CC
100
AcDbEntity
8
encapsulation
6
ByLayer
62
256
370
-1
100
AcDbLine
10
-176
20
-42
11
-196
21
-42
0
LINE
5
2CD
100
AcDbEntity
8
encapsulation
6
ByLayer
62
256
370
-1
100
AcDbLine
10
-196
20
-42
11
-196
21
-22
0
LINE
5
2CE
100
AcDbEntity
8
0
6
ByLayer
62
256
370
-1
100
AcDbLine
10
-200
20
-46
11
-200
21
-18
0
LINE
5
2CF
100
AcDbEntity
8
0
6
ByLayer
62
256
370
-1
100
AcDbLine
10
-172
20
-46
11
-200
21
-46
0
LINE
5
2D0
100
AcDbEntity
8
0
6
ByLayer
62
256
370
-1
100
AcDbLine
10
-172
20
-46
11
-144
21
-46
0
LINE
5
2D1
100
AcDbEntity
8
0
6
ByLayer
62
256
370
-1
100
AcDbLine
10
-144
20
-46
11
-144
21
-18
0
LINE
5
2D2
100
AcDbEntity
8
0
6
ByLayer
62
256
370
-1
100
AcDbLine
10
-144
20
-18
11
-172
21
-18
0
LINE
5
2D3
100
AcDbEntity
8
0
6
ByLayer
62
256
370
-1
100
AcDbLine
10
-172
20
-18
11
-172
21
-46
0
LINE
5
2D4
100
AcDbEntity
8
encapsulation
6
ByLayer
62
256
370
-1
100
AcDbLine
10
-169
20
-43
11
-147
21
-43
0
LINE
5
2D5
100
AcDbEntity
8
encapsulation
6
ByLayer
62
256
370
-1
100
AcDbLine
10
-147
20
-43
11
-147
21
-21
0
LINE
5
2D6
100
AcDbEntity
8
encapsulation
6
ByLayer
62
256
370
-1
100
AcDbLine
10
-147
20
-21
11
-169
21
-21
0
LINE
5
2D7
100
AcDbEntity
8
encapsulation
6
ByLayer
62
256
370
-1
100
AcDbLine
10
-169
20
-21
11
-169
21
-43
0
LINE
5
2D8
100
AcDbEntity
8
encapsulation
6
ByLayer
62
256
370
-1
100
AcDbLine
10
-148
20
-22
11
-168
21
-22
0
LINE
5
2D9
100
AcDbEntity
8
encapsulation
6
ByLayer
62
256
370
-1
100
AcDbLine
10
-168
20
-22
11
-168
21
-42
0
LINE
5
2DA
100
AcDbEntity
8
encapsulation
6
ByLayer
62
256
370
-1
100
AcDbLine
10
-148
20
-42
11
-148
21
-22
0
LINE
5
2DB
100
AcDbEntity
8
encapsulation
6
ByLayer
62
256
370
-1
100
AcDbLine
10
-169
20
-21
11
-147
21
-21
0
LINE
5
2DC
100
AcDbEntity
8
encapsulation
6
ByLayer
62
256
370
-1
100
AcDbLine
10
-147
20
-21
11
-147
21
-43
0
LINE
5
2DD
100
AcDbEntity
8
encapsulation
6
ByLayer
62
256
370
-1
100
AcDbLine
10
-147
20
-43
11
-169
21
-43
0
LINE
5
2DE
100
AcDbEntity
8
encapsulation
6
ByLayer
62
256
370
-1
100
AcDbLine
10
-169
20
-43
11
-169
21
-21
0
LINE
5
2DF
100
AcDbEntity
8
encapsulation
6
ByLayer
62
256
370
-1
100
AcDbLine
10
-168
20
-22
11
-148
21
-22
0
LINE
5
2E0
100
AcDbEntity
8
encapsulation
6
ByLayer
62
256
370
-1
100
AcDbLine
10
-148
20
-22
11
-148
21
-42
0
LINE
5
2E1
100
AcDbEntity
8
encapsulation
6
ByLayer
62
256
370
-1
100
AcDbLine
10
-148
20
-42
11
-168
21
-42
0
LINE
5
2E2
100
AcDbEntity
8
encapsulation
6
ByLayer
62
256
370
-1
100
AcDbLine
10
-168
20
-42
11
-168
21
-22
0
LINE
5
2E3
100
AcDbEntity
8
0
6
ByLayer
62
256
370
-1
100
AcDbLine
10
-172
20
-46
11
-172
21
-18
0
LINE
5
2E4
100
AcDbEntity
8
0
6
ByLayer
62
256
370
-1
100
AcDbLine
10
-144
20
-46
11
-172
21
-46
0
ARC
5
2E5
100
AcDbEntity
8
metal_layer_evap_std
6
ByLayer
62
256
370
-1
100
AcDbCircle
10
-149.55
20
4.45
40
5
100
AcDbArc
50
355.364536573
51
94.6354634269
0
ARC
5
2E6
100
AcDbEntity
8
metal_layer_evap_std
6
ByLayer
62
256
370
-1
100
AcDbCircle
10
-149.55
20
-40.45
40
5
100
AcDbArc
50
267.302194367
51
4.6354634269
0
ARC
5
2E7
100
AcDbEntity
8
metal_layer_evap_std
6
ByLayer
62
256
370
-1
100
AcDbCircle
10
-194.45
20
4.45
40
5
100
AcDbArc
50
85.3645365731
51
184.635463427
0
LINE
5
2E8
100
AcDbEntity
8
metal_layer_evap_std
6
ByLayer
62
256
370
-1
100
AcDbLine
10
-194.045920656
20
9.43364524057
11
-149.954079344
21
9.43364524057
0
ARC
5
2E9
100
AcDbEntity
8
metal_layer_evap_std
6
ByLayer
62
256
370
-1
100
AcDbCircle
10
-194.45
20
-40.45
40
5
100
AcDbArc
50
175.364536573
51
272.697805633
0
LINE
5
2EA
100
AcDbEntity
8
metal_layer_evap_std
6
ByLayer
62
256
370
-1
100
AcDbLine
10
-199.433645241
20
4.04592065617
11
-199.433645241
21
-40.0459206562
0
LINE
5
2EB
100
AcDbEntity
8
metal_layer_evap_std
6
ByLayer
62
256
370
-1
100
AcDbLine
10
-194.214659029
20
-45.4444583918
11
-149.785340971
21
-45.4444583918
0
LINE
5
2EC
100
AcDbEntity
8
metal_layer_evap_std
6
ByLayer
62
256
370
-1
100
AcDbLine
10
-144.566354759
20
-40.0459206562
11
-144.566354759
21
4.04592065617
0
LINE
5
2ED
100
AcDbEntity
8
TCO
6
ByLayer
62
256
370
-1
100
AcDbLine
10
-197.881484703
20
-1
11
-190.5
21
-1
0
LINE
5
2EE
100
AcDbEntity
8
TCO
6
ByLayer
62
256
370
-1
100
AcDbLine
10
-197.881484703
20
4
11
-172
21
4
0
LINE
5
2EF
100
AcDbEntity
8
TCO
6
ByLayer
62
256
370
-1
100
AcDbLine
10
-197.881484703
20
-1
11
-197.881484703
21
4
0
LINE
5
2F0
100
AcDbEntity
8
TCO
6
ByLayer
62
256
370
-1
100
AcDbLine
10
-197.881484703
20
-7
11
-185.5
21
-7
0
LINE
5
2F1
100
AcDbEntity
8
TCO
6
ByLayer
62
256
370
-1
100
AcDbLine
10
-172
20
-12
11
-197.881484703
21
-12
0
LINE
5
2F2
100
AcDbEntity
8
TCO
6
ByLayer
62
256
370
-1
100
AcDbLine
10
-197.881484703
20
-12
11
-197.881484703
21
-7
0
LINE
5
2F3
100
AcDbEntity
8
TCO
6
ByLayer
62
256
370
-1
100
AcDbLine
10
-146.118515297
20
4
11
-146.118515297
21
-1
0
LINE
5
2F4
100
AcDbEntity
8
TCO
6
ByLayer
62
256
370
-1
100
AcDbLine
10
-146.118515297
20
-1
11
-160.618515297
21
-1
0
LINE
5
2F5
100
AcDbEntity
8
TCO
6
ByLayer
62
256
370
-1
100
AcDbLine
10
-160.618515297
20
-1
11
-160.618515297
21
3
0
LINE
5
2F6
100
AcDbEntity
8
TCO
6
ByLayer
62
256
370
-1
100
AcDbLine
10
-164.618515297
20
-1
11
-164.618515297
21
3
0
LINE
5
2F7
100
AcDbEntity
8
TCO
6
ByLayer
62
256
370
-1
100
AcDbLine
10
-164.618515297
20
3
11
-160.618515297
21
3
0
LINE
5
2F8
100
AcDbEntity
8
TCO
6
ByLayer
62
256
370
-1
100
AcDbLine
10
-172
20
-1
11
-164.618515297
21
-1
0
LINE
5
2F9
100
AcDbEntity
8
TCO
6
ByLayer
62
256
370
-1
100
AcDbLine
10
-172
20
4
11
-146.118515297
21
4
0
LINE
5
2FA
100
AcDbEntity
8
TCO
6
ByLayer
62
256
370
-1
100
AcDbLine
10
-172
20
-1
11
-172
21
4
0
LINE
5
2FB
100
AcDbEntity
8
TCO
6
ByLayer
62
256
370
-1
100
AcDbLine
10
-146.118515297
20
-7
11
-146.118515297
21
-12
0
LINE
5
2FC
100
AcDbEntity
8
TCO
6
ByLayer
62
256
370
-1
100
AcDbLine
10
-146.118515297
20
-7
11
-155.618515297
21
-7
0
LINE
5
2FD
100
AcDbEntity
8
TCO
6
ByLayer
62
256
370
-1
100
AcDbLine
10
-159.618515297
20
-7
11
-159.618515297
21
-11
0
LINE
5
2FE
100
AcDbEntity
8
TCO
6
ByLayer
62
256
370
-1
100
AcDbLine
10
-155.618515297
20
-7
11
-155.618515297
21
-11
0
LINE
5
2FF
100
AcDbEntity
8
TCO
6
ByLayer
62
256
370
-1
100
AcDbLine
10
-155.618515297
20
-11
11
-159.618515297
21
-11
0
LINE
5
300
100
AcDbEntity
8
TCO
6
ByLayer
62
256
370
-1
100
AcDbLine
10
-172
20
-7
11
-159.618515297
21
-7
0
LINE
5
301
100
AcDbEntity
8
TCO
6
ByLayer
62
256
370
-1
100
AcDbLine
10
-146.118515297
20
-12
11
-172
21
-12
0
LINE
5
302
100
AcDbEntity
8
TCO
6
ByLayer
62
256
370
-1
100
AcDbLine
10
-172
20
-12
11
-172
21
-7
0
LINE
5
303
100
AcDbEntity
8
TCO
6
ByLayer
62
256
370
-1
100
AcDbLine
10
-172
20
-24
11
-172
21
-29
0
LINE
5
304
100
AcDbEntity
8
TCO
6
ByLayer
62
256
370
-1
100
AcDbLine
10
-172
20
-29
11
-186.5
21
-29
0
LINE
5
305
100
AcDbEntity
8
TCO
6
ByLayer
62
256
370
-1
100
AcDbLine
10
-186.5
20
-29
11
-186.5
21
-25
0
LINE
5
306
100
AcDbEntity
8
TCO
6
ByLayer
62
256
370
-1
100
AcDbLine
10
-190.5
20
-29
11
-190.5
21
-25
0
LINE
5
307
100
AcDbEntity
8
TCO
6
ByLayer
62
256
370
-1
100
AcDbLine
10
-190.5
20
-25
11
-186.5
21
-25
0
LINE
5
308
100
AcDbEntity
8
TCO
6
ByLayer
62
256
370
-1
100
AcDbLine
10
-172
20
-35
11
-172
21
-40
0
LINE
5
309
100
AcDbEntity
8
TCO
6
ByLayer
62
256
370
-1
100
AcDbLine
10
-172
20
-35
11
-181.5
21
-35
0
LINE
5
30A
100
AcDbEntity
8
TCO
6
ByLayer
62
256
370
-1
100
AcDbLine
10
-185.5
20
-35
11
-185.5
21
-39
0
LINE
5
30B
100
AcDbEntity
8
TCO
6
ByLayer
62
256
370
-1
100
AcDbLine
10
-181.5
20
-35
11
-181.5
21
-39
0
LINE
5
30C
100
AcDbEntity
8
TCO
6
ByLayer
62
256
370
-1
100
AcDbLine
10
-181.5
20
-39
11
-185.5
21
-39
0
LINE
5
30D
100
AcDbEntity
8
TCO
6
ByLayer
62
256
370
-1
100
AcDbLine
10
-197.881484703
20
-29
11
-190.5
21
-29
0
LINE
5
30E
100
AcDbEntity
8
TCO
6
ByLayer
62
256
370
-1
100
AcDbLine
10
-197.881484703
20
-24
11
-172
21
-24
0
LINE
5
30F
100
AcDbEntity
8
TCO
6
ByLayer
62
256
370
-1
100
AcDbLine
10
-197.881484703
20
-29
11
-197.881484703
21
-24
0
LINE
5
310
100
AcDbEntity
8
TCO
6
ByLayer
62
256
370
-1
100
AcDbLine
10
-197.881484703
20
-35
11
-185.5
21
-35
0
LINE
5
311
100
AcDbEntity
8
TCO
6
ByLayer
62
256
370
-1
100
AcDbLine
10
-172
20
-40
11
-197.881484703
21
-40
0
LINE
5
312
100
AcDbEntity
8
TCO
6
ByLayer
62
256
370
-1
100
AcDbLine
10
-197.881484703
20
-40
11
-197.881484703
21
-35
0
LINE
5
313
100
AcDbEntity
8
TCO
6
ByLayer
62
256
370
-1
100
AcDbLine
10
-146.118515297
20
-24
11
-146.118515297
21
-29
0
LINE
5
314
100
AcDbEntity
8
TCO
6
ByLayer
62
256
370
-1
100
AcDbLine
10
-146.118515297
20
-29
11
-160.618515297
21
-29
0
LINE
5
315
100
AcDbEntity
8
TCO
6
ByLayer
62
256
370
-1
100
AcDbLine
10
-160.618515297
20
-29
11
-160.618515297
21
-25
0
LINE
5
316
100
AcDbEntity
8
TCO
6
ByLayer
62
256
370
-1
100
AcDbLine
10
-164.618515297
20
-29
11
-164.618515297
21
-25
0
LINE
5
317
100
AcDbEntity
8
TCO
6
ByLayer
62
256
370
-1
100
AcDbLine
10
-164.618515297
20
-25
11
-160.618515297
21
-25
0
LINE
5
318
100
AcDbEntity
8
TCO
6
ByLayer
62
256
370
-1
100
AcDbLine
10
-172
20
-29
11
-164.618515297
21
-29
0
LINE
5
319
100
AcDbEntity
8
TCO
6
ByLayer
62
256
370
-1
100
AcDbLine
10
-172
20
-24
11
-146.118515297
21
-24
0
LINE
5
31A
100
AcDbEntity
8
TCO
6
ByLayer
62
256
370
-1
100
AcDbLine
10
-172
20
-29
11
-172
21
-24
0
LINE
5
31B
100
AcDbEntity
8
TCO
6
ByLayer
62
256
370
-1
100
AcDbLine
10
-146.118515297
20
-35
11
-146.118515297
21
-40
0
LINE
5
31C
100
AcDbEntity
8
TCO
6
ByLayer
62
256
370
-1
100
AcDbLine
10
-146.118515297
20
-35
11
-155.618515297
21
-35
0
LINE
5
31D
100
AcDbEntity
8
TCO
6
ByLayer
62
256
370
-1
100
AcDbLine
10
-159.618515297
20
-35
11
-159.618515297
21
-39
0
LINE
5
31E
100
AcDbEntity
8
TCO
6
ByLayer
62
256
370
-1
100
AcDbLine
10
-155.618515297
20
-35
11
-155.618515297
21
-39
0
LINE
5
31F
100
AcDbEntity
8
TCO
6
ByLayer
62
256
370
-1
100
AcDbLine
10
-155.618515297
20
-39
11
-159.618515297
21
-39
0
LINE
5
320
100
AcDbEntity
8
TCO
6
ByLayer
62
256
370
-1
100
AcDbLine
10
-172
20
-35
11
-159.618515297
21
-35
0
LINE
5
321
100
AcDbEntity
8
TCO
6
ByLayer
62
256
370
-1
100
AcDbLine
10
-146.118515297
20
-40
11
-172
21
-40
0
LINE
5
322
100
AcDbEntity
8
TCO
6
ByLayer
62
256
370
-1
100
AcDbLine
10
-172
20
-40
11
-172
21
-35
0
ENDSEC
0
SECTION
2
OBJECTS
0
DICTIONARY
5
C
330
0
100
AcDbDictionary
281
1
3
ACAD_GROUP
350
D
0
DICTIONARY
5
D
330
C
100
AcDbDictionary
281
1
0
ENDSEC
0
EOF
