999
dxfrw 0.5.10
0
SECTION
2
HEADER
9
$ACADVER
1
AC1021
9
$HANDSEED
5
20000
9
$DWGCODEPAGE
3
ANSI_1252
9
$INSBASE
10
0
20
0
30
0
9
$EXTMIN
10
10000000000
20
10000000000
30
0
9
$EXTMAX
10
-10000000000
20
-10000000000
30
0
9
$LIMMIN
10
0
20
0
9
$LIMMAX
10
420
20
297
9
$ORTHOMODE
70
0
9
$LTSCALE
40
1
9
$TEXTSTYLE
7
STANDARD
9
$CLAYER
8
cut
9
$DIMASZ
40
2.5
9
$DIMLFAC
40
1
9
$DIMSCALE
40
1
9
$DIMEXO
40
0.625
9
$DIMEXE
40
1.25
9
$DIMTXT
40
2.5
9
$DIMTSZ
40
0
9
$DIMAUNIT
70
0
9
$DIMADEC
70
0
9
$DIMLUNIT
70
2
9
$DIMSTYLE
2
ISO-25
9
$DIMGAP
40
0.625
9
$DIMTIH
70
0
9
$LUNITS
70
2
9
$LUPREC
70
3
9
$AUNITS
70
0
9
$AUPREC
70
0
9
$SPLINESEGS
70
8
9
$GRIDMODE
70
0
9
$SNAPSTYLE
70
0
9
$GRIDUNIT
10
0.1
20
0.1
9
$PINSBASE
10
98.4729790903
20
155.714703394
30
0
9
$PLIMMIN
10
0
20
0
9
$PLIMMAX
10
210
20
297
9
$INSUNITS
70
0
9
$PSVPSCALE
40
2
0
ENDSEC
0
SECTION
2
CLASSES
0
ENDSEC
0
SECTION
2
TABLES
0
TABLE
2
VPORT
5
8
330
0
100
AcDbSymbolTable
70
1
0
VPORT
5
31
330
2
100
AcDbSymbolTableRecord
100
AcDbViewportTableRecord
2
*ACTIVE
70
0
10
0
20
0
11
1
21
1
12
25.20247892
22
21.5109765827
13
0
23
0
14
10
24
10
15
0.1
25
0.1
16
0
26
0
36
1
17
0
27
0
37
0
40
77.2025303625
41
1.85714285714
42
50
43
0
44
0
50
0
51
0
71
0
72
100
73
1
74
3
75
0
76
0
77
0
78
0
281
0
65
1
110
0
120
0
130
0
111
1
121
0
131
0
112
0
122
1
132
0
79
0
146
0
348
10020
60
3
61
5
292
1
282
1
141
0
142
0
63
250
421
3358443
0
ENDTAB
0
TABLE
2
LTYPE
5
5
330
0
100
AcDbSymbolTable
70
4
0
LTYPE
5
14
330
5
100
AcDbSymbolTableRecord
100
AcDbLinetypeTableRecord
2
ByBlock
70
0
3

72
65
73
0
40
0
0
LTYPE
5
15
330
5
100
AcDbSymbolTableRecord
100
AcDbLinetypeTableRecord
2
ByLayer
70
0
3

72
65
73
0
40
0
0
LTYPE
5
16
330
5
100
AcDbSymbolTableRecord
100
AcDbLinetypeTableRecord
2
Continuous
70
0
3
Solid line
72
65
73
0
40
0
0
LTYPE
5
32
330
5
100
AcDbSymbolTableRecord
100
AcDbLinetypeTableRecord
2
DOT
70
0
3
Dot . . . . . . . . . . . . . . . . . . . . . .
72
65
73
2
40
6.35
49
0
74
0
49
-6.35
74
0
0
LTYPE
5
33
330
5
100
AcDbSymbolTableRecord
100
AcDbLinetypeTableRecord
2
DOT2
70
0
3
Dot (.5x) .....................................
72
65
73
2
40
3.175
49
0
74
0
49
-3.175
74
0
0
LTYPE
5
34
330
5
100
AcDbSymbolTableRecord
100
AcDbLinetypeTableRecord
2
DOTX2
70
0
3
Dot (2x) .  .  .  .  .  .  .  .  .  .  .  .  .
72
65
73
2
40
12.7
49
0
74
0
49
-12.7
74
0
0
LTYPE
5
35
330
5
100
AcDbSymbolTableRecord
100
AcDbLinetypeTableRecord
2
DASHED
70
0
3
Dot . . . . . . . . . . . . . . . . . . . . . .
72
65
73
2
40
19.05
49
12.7
74
0
49
-6.35
74
0
0
LTYPE
5
36
330
5
100
AcDbSymbolTableRecord
100
AcDbLinetypeTableRecord
2
DASHED2
70
0
3
Dashed (.5x) _ _ _ _ _ _ _ _ _ _ _ _ _ _ _ _ _
72
65
73
2
40
9.525
49
6.35
74
0
49
-3.175
74
0
0
LTYPE
5
37
330
5
100
AcDbSymbolTableRecord
100
AcDbLinetypeTableRecord
2
DASHEDX2
70
0
3
Dashed (2x) ____  ____  ____  ____  ____  ___
72
65
73
2
40
38.1
49
25.4
74
0
49
-12.7
74
0
0
LTYPE
5
38
330
5
100
AcDbSymbolTableRecord
100
AcDbLinetypeTableRecord
2
DASHDOT
70
0
3
Dash dot __ . __ . __ . __ . __ . __ . __ . __
72
65
73
4
40
25.4
49
12.7
74
0
49
-6.35
74
0
49
0
74
0
49
-6.35
74
0
0
LTYPE
5
39
330
5
100
AcDbSymbolTableRecord
100
AcDbLinetypeTableRecord
2
DASHDOT2
70
0
3
Dash dot (.5x) _._._._._._._._._._._._._._._.
72
65
73
4
40
12.7
49
6.35
74
0
49
-3.175
74
0
49
0
74
0
49
-3.175
74
0
0
LTYPE
5
3A
330
5
100
AcDbSymbolTableRecord
100
AcDbLinetypeTableRecord
2
DASHDOTX2
70
0
3
Dash dot (2x) ____  .  ____  .  ____  .  ___
72
65
73
4
40
50.8
49
25.4
74
0
49
-12.7
74
0
49
0
74
0
49
-12.7
74
0
0
LTYPE
5
3B
330
5
100
AcDbSymbolTableRecord
100
AcDbLinetypeTableRecord
2
DIVIDE
70
0
3
Divide ____ . . ____ . . ____ . . ____ . . ____
72
65
73
6
40
31.75
49
12.7
74
0
49
-6.35
74
0
49
0
74
0
49
-6.35
74
0
49
0
74
0
49
-6.35
74
0
0
LTYPE
5
3C
330
5
100
AcDbSymbolTableRecord
100
AcDbLinetypeTableRecord
2
DIVIDE2
70
0
3
Divide (.5x) __..__..__..__..__..__..__..__.._
72
65
73
6
40
15.875
49
6.35
74
0
49
-3.175
74
0
49
0
74
0
49
-3.175
74
0
49
0
74
0
49
-3.175
74
0
0
LTYPE
5
3D
330
5
100
AcDbSymbolTableRecord
100
AcDbLinetypeTableRecord
2
DIVIDEX2
70
0
3
Divide (2x) ________  .  .  ________  .  .  _
72
65
73
6
40
63.5
49
25.4
74
0
49
-12.7
74
0
49
0
74
0
49
-12.7
74
0
49
0
74
0
49
-12.7
74
0
0
LTYPE
5
3E
330
5
100
AcDbSymbolTableRecord
100
AcDbLinetypeTableRecord
2
BORDER
70
0
3
Border __ __ . __ __ . __ __ . __ __ . __ __ .
72
65
73
6
40
44.45
49
12.7
74
0
49
-6.35
74
0
49
12.7
74
0
49
-6.35
74
0
49
0
74
0
49
-6.35
74
0
0
LTYPE
5
3F
330
5
100
AcDbSymbolTableRecord
100
AcDbLinetypeTableRecord
2
BORDER2
70
0
3
Border (.5x) __.__.__.__.__.__.__.__.__.__.__.
72
65
73
6
40
22.225
49
6.35
74
0
49
-3.175
74
0
49
6.35
74
0
49
-3.175
74
0
49
0
74
0
49
-3.175
74
0
0
LTYPE
5
40
330
5
100
AcDbSymbolTableRecord
100
AcDbLinetypeTableRecord
2
BORDERX2
70
0
3
Border (2x) ____  ____  .  ____  ____  .  ___
72
65
73
6
40
88.9
49
25.4
74
0
49
-12.7
74
0
49
25.4
74
0
49
-12.7
74
0
49
0
74
0
49
-12.7
74
0
0
LTYPE
5
41
330
5
100
AcDbSymbolTableRecord
100
AcDbLinetypeTableRecord
2
CENTER
70
0
3
Center ____ _ ____ _ ____ _ ____ _ ____ _ ____
72
65
73
4
40
50.8
49
31.75
74
0
49
-6.35
74
0
49
6.35
74
0
49
-6.35
74
0
0
LTYPE
5
42
330
5
100
AcDbSymbolTableRecord
100
AcDbLinetypeTableRecord
2
CENTER2
70
0
3
Center (.5x) ___ _ ___ _ ___ _ ___ _ ___ _ ___
72
65
73
4
40
28.575
49
19.05
74
0
49
-3.175
74
0
49
3.175
74
0
49
-3.175
74
0
0
LTYPE
5
43
330
5
100
AcDbSymbolTableRecord
100
AcDbLinetypeTableRecord
2
CENTERX2
70
0
3
Center (2x) ________  __  ________  __  _____
72
65
73
4
40
101.6
49
63.5
74
0
49
-12.7
74
0
49
12.7
74
0
49
-12.7
74
0
0
ENDTAB
0
TABLE
2
LAYER
5
2
330
0
100
AcDbSymbolTable
70
1
0
LAYER
5
10
330
2
100
AcDbSymbolTableRecord
100
AcDbLayerTableRecord
2
0
70
1
62
256
6
CONTINUOUS
370
-3
390
F
0
LAYER
5
44
330
2
100
AcDbSymbolTableRecord
100
AcDbLayerTableRecord
2
cut
70
0
62
7
6
CONTINUOUS
370
0
390
F
0
LAYER
5
45
330
2
100
AcDbSymbolTableRecord
100
AcDbLayerTableRecord
2
engrave
70
0
62
5
6
CONTINUOUS
370
18
390
F
0
ENDTAB
0
TABLE
2
STYLE
5
3
330
0
100
AcDbSymbolTable
70
3
0
STYLE
5
46
330
2
100
AcDbSymbolTableRecord
100
AcDbTextStyleTableRecord
2
Standard
70
0
40
0
41
1
50
0
71
0
42
1
3
txt
4

0
ENDTAB
0
TABLE
2
VIEW
5
6
330
0
100
AcDbSymbolTable
70
0
0
ENDTAB
0
TABLE
2
UCS
5
7
330
0
100
AcDbSymbolTable
70
0
0
ENDTAB
0
TABLE
2
APPID
5
9
330
0
100
AcDbSymbolTable
70
1
0
APPID
5
12
330
9
100
AcDbSymbolTableRecord
100
AcDbRegAppTableRecord
2
ACAD
70
0
0
ENDTAB
0
TABLE
2
DIMSTYLE
5
A
330
0
100
AcDbSymbolTable
70
1
100
AcDbDimStyleTable
71
1
0
DIMSTYLE
105
47
330
A
100
AcDbSymbolTableRecord
100
AcDbDimStyleTableRecord
2
Standard
70
0
40
1
41
2.5
42
0.625
43
0.38
44
1.25
45
0
46
0
47
0
48
0
140
2.5
141
0.09
142
0
143
25.4
144
1
145
0
146
1
147
0.625
148
0
71
0
72
0
73
0
74
1
75
0
76
0
77
0
78
0
79
0
170
0
171
2
172
0
173
0
174
0
175
0
176
0
177
0
178
0
179
0
271
4
272
4
273
2
274
2
275
0
276
0
277
2
278
46
279
0
280
0
281
0
282
0
283
1
284
0
285
0
286
0
288
0
289
3
340
Standard
341

371
-2
372
-2
0
ENDTAB
0
TABLE
2
BLOCK_RECORD
5
1
330
0
100
AcDbSymbolTable
70
2
0
BLOCK_RECORD
5
1F
330
1
100
AcDbSymbolTableRecord
100
AcDbBlockTableRecord
2
*Model_Space
70
0
280
1
281
0
0
BLOCK_RECORD
5
1E
330
1
100
AcDbSymbolTableRecord
100
AcDbBlockTableRecord
2
*Paper_Space
70
0
280
1
281
0
0
ENDTAB
0
ENDSEC
0
SECTION
2
BLOCKS
0
BLOCK
5
20
330
1F
100
AcDbEntity
8
0
100
AcDbBlockBegin
2
*Model_Space
70
0
10
0
20
0
30
0
3
*Model_Space
1

0
ENDBLK
5
21
330
1F
100
AcDbEntity
8
0
100
AcDbBlockEnd
0
BLOCK
5
1C
330
1B
100
AcDbEntity
8
0
100
AcDbBlockBegin
2
*Paper_Space
70
0
10
0
20
0
30
0
3
*Paper_Space
1

0
ENDBLK
5
1D
330
1F
100
AcDbEntity
8
0
100
AcDbBlockEnd
0
ENDSEC
0
SECTION
2
ENTITIES
0
LINE
5
48
100
AcDbEntity
8
cut
6
ByLayer
62
256
370
-1
100
AcDbLine
10
-26
20
20
11
-26
21
16
0
LINE
5
49
100
AcDbEntity
8
cut
6
ByLayer
62
256
370
-1
100
AcDbLine
10
-22
20
25.2
11
-20
21
23
0
LINE
5
4A
100
AcDbEntity
8
cut
6
ByLayer
62
256
370
-1
100
AcDbLine
10
-15
20
25.2
11
-16
21
23
0
LINE
5
4B
100
AcDbEntity
8
cut
6
ByLayer
62
256
370
-1
100
AcDbLine
10
-13
20
25.2
11
-13
21
23
0
LINE
5
4C
100
AcDbEntity
8
cut
6
ByLayer
62
256
370
-1
100
AcDbLine
10
-6
20
25.2
11
-8
21
23
0
LINE
5
4D
100
AcDbEntity
8
cut
6
ByLayer
62
256
370
-1
100
AcDbLine
10
-26
20
16
11
-25
21
16
0
LINE
5
4E
100
AcDbEntity
8
cut
6
ByLayer
62
256
370
-1
100
AcDbLine
10
-2
20
20
11
-2
21
16
0
LINE
5
4F
100
AcDbEntity
8
cut
6
ByLayer
62
256
370
-1
100
AcDbLine
10
-2
20
16
11
-3
21
16
0
LINE
5
50
100
AcDbEntity
8
cut
6
ByLayer
62
256
370
-1
100
AcDbLine
10
-20
20
23
11
-20
21
16
0
LINE
5
51
100
AcDbEntity
8
cut
6
ByLayer
62
256
370
-1
100
AcDbLine
10
-20
20
16
11
-22
21
16
0
LINE
5
52
100
AcDbEntity
8
cut
6
ByLayer
62
256
370
-1
100
AcDbLine
10
-22
20
16
11
-22
21
23
0
LINE
5
53
100
AcDbEntity
8
cut
6
ByLayer
62
256
370
-1
100
AcDbLine
10
-11
20
23
11
-11
21
16
0
LINE
5
54
100
AcDbEntity
8
cut
6
ByLayer
62
256
370
-1
100
AcDbLine
10
-11
20
16
11
-13
21
16
0
LINE
5
55
100
AcDbEntity
8
cut
6
ByLayer
62
256
370
-1
100
AcDbLine
10
-13
20
16
11
-13
21
23
0
LINE
5
56
100
AcDbEntity
8
cut
6
ByLayer
62
256
370
-1
100
AcDbLine
10
-6
20
23
11
-6
21
16
0
LINE
5
57
100
AcDbEntity
8
cut
6
ByLayer
62
256
370
-1
100
AcDbLine
10
-6
20
16
11
-8
21
16
0
LINE
5
58
100
AcDbEntity
8
cut
6
ByLayer
62
256
370
-1
100
AcDbLine
10
-8
20
16
11
-8
21
23
0
LINE
5
59
100
AcDbEntity
8
cut
6
ByLayer
62
256
370
-1
100
AcDbLine
10
-1
20
25.2
11
-6
21
23
0
LINE
5
5A
100
AcDbEntity
8
cut
6
ByLayer
62
256
370
-1
100
AcDbLine
10
-8
20
25.2
11
-11
21
23
0
LINE
5
5B
100
AcDbEntity
8
cut
6
ByLayer
62
256
370
-1
100
AcDbLine
10
-20
20
25.2
11
-17
21
23
0
LINE
5
5C
100
AcDbEntity
8
cut
6
ByLayer
62
256
370
-1
100
AcDbLine
10
-25
20
16
11
-25
21
15
0
LINE
5
5D
100
AcDbEntity
8
cut
6
ByLayer
62
256
370
-1
100
AcDbLine
10
-3
20
16
11
-3
21
15
0
LINE
5
5E
100
AcDbEntity
8
cut
6
ByLayer
62
256
370
-1
100
AcDbLine
10
-16
20
23
11
-16
21
20
0
LINE
5
5F
100
AcDbEntity
8
cut
6
ByLayer
62
256
370
-1
100
AcDbLine
10
-16
20
20
11
-17
21
20
0
LINE
5
60
100
AcDbEntity
8
cut
6
ByLayer
62
256
370
-1
100
AcDbLine
10
-17
20
20
11
-17
21
23
0
LINE
5
61
100
AcDbEntity
8
cut
6
ByLayer
62
256
370
-1
100
AcDbLine
10
-2
20
8
11
-2
21
12
0
LINE
5
62
100
AcDbEntity
8
cut
6
ByLayer
62
256
370
-1
100
AcDbLine
10
-6
20
2.8
11
-8
21
5
0
LINE
5
63
100
AcDbEntity
8
cut
6
ByLayer
62
256
370
-1
100
AcDbLine
10
-13
20
2.8
11
-12
21
5
0
LINE
5
64
100
AcDbEntity
8
cut
6
ByLayer
62
256
370
-1
100
AcDbLine
10
-15
20
2.8
11
-15
21
5
0
LINE
5
65
100
AcDbEntity
8
cut
6
ByLayer
62
256
370
-1
100
AcDbLine
10
-22
20
2.8
11
-20
21
5
0
LINE
5
66
100
AcDbEntity
8
cut
6
ByLayer
62
256
370
-1
100
AcDbLine
10
-2
20
12
11
-3
21
12
0
LINE
5
67
100
AcDbEntity
8
cut
6
ByLayer
62
256
370
-1
100
AcDbLine
10
-26
20
8
11
-26
21
12
0
LINE
5
68
100
AcDbEntity
8
cut
6
ByLayer
62
256
370
-1
100
AcDbLine
10
-26
20
12
11
-25
21
12
0
LINE
5
69
100
AcDbEntity
8
cut
6
ByLayer
62
256
370
-1
100
AcDbLine
10
-8
20
5
11
-8
21
12
0
LINE
5
6A
100
AcDbEntity
8
cut
6
ByLayer
62
256
370
-1
100
AcDbLine
10
-8
20
12
11
-6
21
12
0
LINE
5
6B
100
AcDbEntity
8
cut
6
ByLayer
62
256
370
-1
100
AcDbLine
10
-6
20
12
11
-6
21
5
0
LINE
5
6C
100
AcDbEntity
8
cut
6
ByLayer
62
256
370
-1
100
AcDbLine
10
-17
20
5
11
-17
21
12
0
LINE
5
6D
100
AcDbEntity
8
cut
6
ByLayer
62
256
370
-1
100
AcDbLine
10
-17
20
12
11
-15
21
12
0
LINE
5
6E
100
AcDbEntity
8
cut
6
ByLayer
62
256
370
-1
100
AcDbLine
10
-15
20
12
11
-15
21
5
0
LINE
5
6F
100
AcDbEntity
8
cut
6
ByLayer
62
256
370
-1
100
AcDbLine
10
-22
20
5
11
-22
21
12
0
LINE
5
70
100
AcDbEntity
8
cut
6
ByLayer
62
256
370
-1
100
AcDbLine
10
-22
20
12
11
-20
21
12
0
LINE
5
71
100
AcDbEntity
8
cut
6
ByLayer
62
256
370
-1
100
AcDbLine
10
-20
20
12
11
-20
21
5
0
LINE
5
72
100
AcDbEntity
8
cut
6
ByLayer
62
256
370
-1
100
AcDbLine
10
-27
20
2.8
11
-22
21
5
0
LINE
5
73
100
AcDbEntity
8
cut
6
ByLayer
62
256
370
-1
100
AcDbLine
10
-20
20
2.8
11
-17
21
5
0
LINE
5
74
100
AcDbEntity
8
cut
6
ByLayer
62
256
370
-1
100
AcDbLine
10
-8
20
2.8
11
-11
21
5
0
LINE
5
75
100
AcDbEntity
8
cut
6
ByLayer
62
256
370
-1
100
AcDbLine
10
-1
20
2.8
11
-6
21
5
0
LINE
5
76
100
AcDbEntity
8
cut
6
ByLayer
62
256
370
-1
100
AcDbLine
10
-3
20
12
11
-3
21
13
0
LINE
5
77
100
AcDbEntity
8
cut
6
ByLayer
62
256
370
-1
100
AcDbLine
10
-25
20
12
11
-25
21
13
0
LINE
5
78
100
AcDbEntity
8
cut
6
ByLayer
62
256
370
-1
100
AcDbLine
10
-12
20
5
11
-12
21
8
0
LINE
5
79
100
AcDbEntity
8
cut
6
ByLayer
62
256
370
-1
100
AcDbLine
10
-12
20
8
11
-11
21
8
0
LINE
5
7A
100
AcDbEntity
8
cut
6
ByLayer
62
256
370
-1
100
AcDbLine
10
-11
20
8
11
-11
21
5
0
CIRCLE
5
7B
100
AcDbEntity
8
cut
6
ByLayer
62
256
370
-1
100
AcDbCircle
10
-25.5
20
5.5
40
0.5
0
LINE
5
7C
100
AcDbEntity
8
cut
6
ByLayer
62
256
370
-1
100
AcDbLine
10
-2.95
20
22.65
11
-2.6
21
22.65
0
LINE
5
7D
100
AcDbEntity
8
cut
6
ByLayer
62
256
370
-1
100
AcDbLine
10
-2.6
20
22.65
11
-2.6
21
23
0
LINE
5
7E
100
AcDbEntity
8
cut
6
ByLayer
62
256
370
-1
100
AcDbLine
10
-2.3
20
23
11
-2.3
21
22.65
0
LINE
5
7F
100
AcDbEntity
8
cut
6
ByLayer
62
256
370
-1
100
AcDbLine
10
-2.3
20
22.65
11
-1.95
21
22.65
0
LINE
5
80
100
AcDbEntity
8
cut
6
ByLayer
62
256
370
-1
100
AcDbLine
10
-1.95
20
22.65
11
-1.95
21
22.35
0
LINE
5
81
100
AcDbEntity
8
cut
6
ByLayer
62
256
370
-1
100
AcDbLine
10
-1.95
20
22.35
11
-2.3
21
22.35
0
LINE
5
82
100
AcDbEntity
8
cut
6
ByLayer
62
256
370
-1
100
AcDbLine
10
-2.3
20
22.35
11
-2.3
21
22
0
LINE
5
83
100
AcDbEntity
8
cut
6
ByLayer
62
256
370
-1
100
AcDbLine
10
-2.3
20
22
11
-2.6
21
22
0
LINE
5
84
100
AcDbEntity
8
cut
6
ByLayer
62
256
370
-1
100
AcDbLine
10
-2.6
20
22
11
-2.6
21
22.35
0
LINE
5
85
100
AcDbEntity
8
cut
6
ByLayer
62
256
370
-1
100
AcDbLine
10
-2.6
20
22.35
11
-2.95
21
22.35
0
LINE
5
86
100
AcDbEntity
8
cut
6
ByLayer
62
256
370
-1
100
AcDbLine
10
-2.95
20
22.35
11
-2.95
21
22.65
0
LINE
5
87
100
AcDbEntity
8
cut
6
ByLayer
62
256
370
-1
100
AcDbLine
10
-2.6
20
23
11
-2.3
21
23
0
LINE
5
88
100
AcDbEntity
8
cut
6
ByLayer
62
256
370
-1
100
AcDbLine
10
-26.5
20
22.5
11
-25.986969785
21
23.9095389312
0
LINE
5
89
100
AcDbEntity
8
cut
6
ByLayer
62
256
370
-1
100
AcDbLine
10
-25.986969785
20
23.9095389312
11
-25.786969785
21
23.9095389312
0
LINE
5
8A
100
AcDbEntity
8
cut
6
ByLayer
62
256
370
-1
100
AcDbLine
10
-25.786969785
20
23.9095389312
11
-25.27393957
21
22.5
0
LINE
5
8B
100
AcDbEntity
8
cut
6
ByLayer
62
256
370
-1
100
AcDbLine
10
-26.5
20
22.5
11
-26.3
21
22.5
0
LINE
5
8C
100
AcDbEntity
8
cut
6
ByLayer
62
256
370
-1
100
AcDbLine
10
-25.27393957
20
22.5
11
-25.47393957
21
22.5
0
LINE
5
8D
100
AcDbEntity
8
cut
6
ByLayer
62
256
370
-1
100
AcDbLine
10
-25.47393957
20
22.5
11
-25.6449496417
21
22.9698463104
0
LINE
5
8E
100
AcDbEntity
8
cut
6
ByLayer
62
256
370
-1
100
AcDbLine
10
-26.3
20
22.5
11
-26.1289899283
21
22.9698463104
0
LINE
5
8F
100
AcDbEntity
8
cut
6
ByLayer
62
256
370
-1
100
AcDbLine
10
-26.1289899283
20
22.9698463104
11
-25.6449496417
21
22.9698463104
0
ARC
5
90
100
AcDbEntity
8
cut
6
ByLayer
62
256
370
-1
100
AcDbCircle
10
-22.45
20
22.45
40
5
100
AcDbArc
50
90
51
148.380202933
0
ARC
5
91
100
AcDbEntity
8
cut
6
ByLayer
62
256
370
-1
100
AcDbCircle
10
-22.45
20
22.45
40
5
100
AcDbArc
50
148.380202933
51
180
0
LINE
5
92
100
AcDbEntity
8
cut
6
ByLayer
62
256
370
-1
100
AcDbLine
10
-27.45
20
22.45
11
-27.45
21
20
0
LINE
5
93
100
AcDbEntity
8
cut
6
ByLayer
62
256
370
-1
100
AcDbLine
10
-27.45
20
20
11
-27.45
21
8
0
LINE
5
94
100
AcDbEntity
8
cut
6
ByLayer
62
256
370
-1
100
AcDbLine
10
-27.45
20
8
11
-27.45
21
-8
0
LINE
5
95
100
AcDbEntity
8
cut
6
ByLayer
62
256
370
-1
100
AcDbLine
10
-27.45
20
-8
11
-27.45
21
-20
0
LINE
5
96
100
AcDbEntity
8
cut
6
ByLayer
62
256
370
-1
100
AcDbLine
10
-27.45
20
-20
11
-27.45
21
-22.45
0
ARC
5
97
100
AcDbEntity
8
cut
6
ByLayer
62
256
370
-1
100
AcDbCircle
10
-22.45
20
-22.45
40
5
100
AcDbArc
50
180
51
211.619797067
0
ARC
5
98
100
AcDbEntity
8
cut
6
ByLayer
62
256
370
-1
100
AcDbCircle
10
-22.45
20
-22.45
40
5
100
AcDbArc
50
211.619797067
51
270
0
LINE
5
99
100
AcDbEntity
8
cut
6
ByLayer
62
256
370
-1
100
AcDbLine
10
-22.45
20
-27.45
11
-22
21
-27.45
0
LINE
5
9A
100
AcDbEntity
8
cut
6
ByLayer
62
256
370
-1
100
AcDbLine
10
-22
20
-27.45
11
-20
21
-27.45
0
LINE
5
9B
100
AcDbEntity
8
cut
6
ByLayer
62
256
370
-1
100
AcDbLine
10
-20
20
-27.45
11
-15
21
-27.45
0
LINE
5
9C
100
AcDbEntity
8
cut
6
ByLayer
62
256
370
-1
100
AcDbLine
10
-15
20
-27.45
11
-13
21
-27.45
0
LINE
5
9D
100
AcDbEntity
8
cut
6
ByLayer
62
256
370
-1
100
AcDbLine
10
-13
20
-27.45
11
-8
21
-27.45
0
LINE
5
9E
100
AcDbEntity
8
cut
6
ByLayer
62
256
370
-1
100
AcDbLine
10
-8
20
-27.45
11
-6
21
-27.45
0
LINE
5
9F
100
AcDbEntity
8
cut
6
ByLayer
62
256
370
-1
100
AcDbLine
10
-6
20
-27.45
11
-1
21
-27.45
0
LINE
5
A0
100
AcDbEntity
8
cut
6
ByLayer
62
256
370
-1
100
AcDbLine
10
-1
20
-27.45
11
1
21
-27.45
0
LINE
5
A1
100
AcDbEntity
8
cut
6
ByLayer
62
256
370
-1
100
AcDbLine
10
-15
20
27.45
11
-13
21
27.45
0
LINE
5
A2
100
AcDbEntity
8
cut
6
ByLayer
62
256
370
-1
100
AcDbLine
10
-8
20
27.45
11
-13
21
27.45
0
LINE
5
A3
100
AcDbEntity
8
cut
6
ByLayer
62
256
370
-1
100
AcDbLine
10
-6
20
27.45
11
-8
21
27.45
0
LINE
5
A4
100
AcDbEntity
8
cut
6
ByLayer
62
256
370
-1
100
AcDbLine
10
-6
20
27.45
11
-1
21
27.45
0
LINE
5
A5
100
AcDbEntity
8
cut
6
ByLayer
62
256
370
-1
100
AcDbLine
10
1
20
27.45
11
-1
21
27.45
0
LINE
5
A6
100
AcDbEntity
8
cut
6
ByLayer
62
256
370
-1
100
AcDbLine
10
-22
20
27.45
11
-22.45
21
27.45
0
LINE
5
A7
100
AcDbEntity
8
cut
6
ByLayer
62
256
370
-1
100
AcDbLine
10
-15
20
27.45
11
-20
21
27.45
0
LINE
5
A8
100
AcDbEntity
8
cut
6
ByLayer
62
256
370
-1
100
AcDbLine
10
-20
20
27.45
11
-22
21
27.45
0
LINE
5
A9
100
AcDbEntity
8
cut
6
ByLayer
62
256
370
-1
100
AcDbLine
10
-2
20
20
11
-0.5
21
20
0
LINE
5
AA
100
AcDbEntity
8
cut
6
ByLayer
62
256
370
-1
100
AcDbLine
10
-2
20
8
11
-0.5
21
8
0
LINE
5
AB
100
AcDbEntity
8
cut
6
ByLayer
62
256
370
-1
100
AcDbLine
10
-0.5
20
20
11
-0.5
21
8
0
LINE
5
AC
100
AcDbEntity
8
cut
6
ByLayer
62
256
370
-1
100
AcDbLine
10
-1
20
2.8
11
-1
21
0.5
0
LINE
5
AD
100
AcDbEntity
8
cut
6
ByLayer
62
256
370
-1
100
AcDbLine
10
-6
20
2.8
11
-6
21
0.5
0
LINE
5
AE
100
AcDbEntity
8
cut
6
ByLayer
62
256
370
-1
100
AcDbLine
10
-8
20
2.8
11
-8
21
0.5
0
LINE
5
AF
100
AcDbEntity
8
cut
6
ByLayer
62
256
370
-1
100
AcDbLine
10
-13
20
2.8
11
-13
21
0.5
0
LINE
5
B0
100
AcDbEntity
8
cut
6
ByLayer
62
256
370
-1
100
AcDbLine
10
-15
20
2.8
11
-15
21
0.5
0
LINE
5
B1
100
AcDbEntity
8
cut
6
ByLayer
62
256
370
-1
100
AcDbLine
10
-20
20
2.8
11
-20
21
0.5
0
LINE
5
B2
100
AcDbEntity
8
cut
6
ByLayer
62
256
370
-1
100
AcDbLine
10
-22
20
2.8
11
-22
21
0.5
0
LINE
5
B3
100
AcDbEntity
8
cut
6
ByLayer
62
256
370
-1
100
AcDbLine
10
-27
20
2.8
11
-27
21
0.5
0
LINE
5
B4
100
AcDbEntity
8
cut
6
ByLayer
62
256
370
-1
100
AcDbLine
10
-27
20
0.5
11
-22
21
0.5
0
LINE
5
B5
100
AcDbEntity
8
cut
6
ByLayer
62
256
370
-1
100
AcDbLine
10
-20
20
0.5
11
-15
21
0.5
0
LINE
5
B6
100
AcDbEntity
8
cut
6
ByLayer
62
256
370
-1
100
AcDbLine
10
-13
20
0.5
11
-8
21
0.5
0
LINE
5
B7
100
AcDbEntity
8
cut
6
ByLayer
62
256
370
-1
100
AcDbLine
10
-6
20
0.5
11
-1
21
0.5
0
ARC
5
B8
100
AcDbEntity
8
cut
6
ByLayer
62
256
370
-1
100
AcDbCircle
10
-22.45
20
22.45
40
4.5
100
AcDbArc
50
90
51
147.499212037
0
LINE
5
B9
100
AcDbEntity
8
cut
6
ByLayer
62
256
370
-1
100
AcDbLine
10
-22.45
20
26.95
11
-22
21
26.95
0
LINE
5
BA
100
AcDbEntity
8
cut
6
ByLayer
62
256
370
-1
100
AcDbLine
10
-22
20
25.2
11
-22
21
26.95
0
LINE
5
BB
100
AcDbEntity
8
cut
6
ByLayer
62
256
370
-1
100
AcDbLine
10
-26.2452282542
20
24.8679004319
11
-22
21
23
0
LINE
5
BC
100
AcDbEntity
8
cut
6
ByLayer
62
256
370
-1
100
AcDbLine
10
-6
20
25.2
11
-6
21
26.95
0
LINE
5
BD
100
AcDbEntity
8
cut
6
ByLayer
62
256
370
-1
100
AcDbLine
10
-8
20
25.2
11
-8
21
26.95
0
LINE
5
BE
100
AcDbEntity
8
cut
6
ByLayer
62
256
370
-1
100
AcDbLine
10
-13
20
25.2
11
-13
21
26.95
0
LINE
5
BF
100
AcDbEntity
8
cut
6
ByLayer
62
256
370
-1
100
AcDbLine
10
-15
20
25.2
11
-15
21
26.95
0
LINE
5
C0
100
AcDbEntity
8
cut
6
ByLayer
62
256
370
-1
100
AcDbLine
10
-20
20
25.2
11
-20
21
26.95
0
LINE
5
C1
100
AcDbEntity
8
cut
6
ByLayer
62
256
370
-1
100
AcDbLine
10
-6
20
26.95
11
-1
21
26.95
0
LINE
5
C2
100
AcDbEntity
8
cut
6
ByLayer
62
256
370
-1
100
AcDbLine
10
-13
20
26.95
11
-8
21
26.95
0
LINE
5
C3
100
AcDbEntity
8
cut
6
ByLayer
62
256
370
-1
100
AcDbLine
10
-20
20
26.95
11
-15
21
26.95
0
LINE
5
C4
100
AcDbEntity
8
cut
6
ByLayer
62
256
370
-1
100
AcDbLine
10
-26
20
20
11
-26.95
21
20
0
LINE
5
C5
100
AcDbEntity
8
cut
6
ByLayer
62
256
370
-1
100
AcDbLine
10
-26
20
8
11
-26.95
21
8
0
LINE
5
C6
100
AcDbEntity
8
cut
6
ByLayer
62
256
370
-1
100
AcDbLine
10
-26.95
20
20
11
-26.95
21
8
0
LINE
5
C7
100
AcDbEntity
8
cut
6
ByLayer
62
256
370
-1
100
AcDbLine
10
-1
20
25.2
11
-1
21
26.95
0
LINE
5
C8
100
AcDbEntity
8
engrave
6
ByLayer
62
256
370
-1
100
AcDbLine
10
0
20
25
11
0.433013
21
24.75
0
LINE
5
C9
100
AcDbEntity
8
engrave
6
ByLayer
62
256
370
-1
100
AcDbLine
10
0
20
25
11
-0.433013
21
24.75
0
LINE
5
CA
100
AcDbEntity
8
engrave
6
ByLayer
62
256
370
-1
100
AcDbLine
10
-1e-16
20
23
11
0
21
25
0
LINE
5
CB
100
AcDbEntity
8
cut
6
ByLayer
62
256
370
-1
100
AcDbLine
10
26
20
20
11
26
21
16
0
LINE
5
CC
100
AcDbEntity
8
cut
6
ByLayer
62
256
370
-1
100
AcDbLine
10
22
20
25.2
11
20
21
23
0
LINE
5
CD
100
AcDbEntity
8
cut
6
ByLayer
62
256
370
-1
100
AcDbLine
10
15
20
25.2
11
16
21
23
0
LINE
5
CE
100
AcDbEntity
8
cut
6
ByLayer
62
256
370
-1
100
AcDbLine
10
13
20
25.2
11
13
21
23
0
LINE
5
CF
100
AcDbEntity
8
cut
6
ByLayer
62
256
370
-1
100
AcDbLine
10
6
20
25.2
11
8
21
23
0
LINE
5
D0
100
AcDbEntity
8
cut
6
ByLayer
62
256
370
-1
100
AcDbLine
10
26
20
16
11
25
21
16
0
LINE
5
D1
100
AcDbEntity
8
cut
6
ByLayer
62
256
370
-1
100
AcDbLine
10
2
20
20
11
2
21
16
0
LINE
5
D2
100
AcDbEntity
8
cut
6
ByLayer
62
256
370
-1
100
AcDbLine
10
2
20
16
11
3
21
16
0
LINE
5
D3
100
AcDbEntity
8
cut
6
ByLayer
62
256
370
-1
100
AcDbLine
10
20
20
23
11
20
21
16
0
LINE
5
D4
100
AcDbEntity
8
cut
6
ByLayer
62
256
370
-1
100
AcDbLine
10
20
20
16
11
22
21
16
0
LINE
5
D5
100
AcDbEntity
8
cut
6
ByLayer
62
256
370
-1
100
AcDbLine
10
22
20
16
11
22
21
23
0
LINE
5
D6
100
AcDbEntity
8
cut
6
ByLayer
62
256
370
-1
100
AcDbLine
10
11
20
23
11
11
21
16
0
LINE
5
D7
100
AcDbEntity
8
cut
6
ByLayer
62
256
370
-1
100
AcDbLine
10
11
20
16
11
13
21
16
0
LINE
5
D8
100
AcDbEntity
8
cut
6
ByLayer
62
256
370
-1
100
AcDbLine
10
13
20
16
11
13
21
23
0
LINE
5
D9
100
AcDbEntity
8
cut
6
ByLayer
62
256
370
-1
100
AcDbLine
10
6
20
23
11
6
21
16
0
LINE
5
DA
100
AcDbEntity
8
cut
6
ByLayer
62
256
370
-1
100
AcDbLine
10
6
20
16
11
8
21
16
0
LINE
5
DB
100
AcDbEntity
8
cut
6
ByLayer
62
256
370
-1
100
AcDbLine
10
8
20
16
11
8
21
23
0
LINE
5
DC
100
AcDbEntity
8
cut
6
ByLayer
62
256
370
-1
100
AcDbLine
10
1
20
25.2
11
6
21
23
0
LINE
5
DD
100
AcDbEntity
8
cut
6
ByLayer
62
256
370
-1
100
AcDbLine
10
8
20
25.2
11
11
21
23
0
LINE
5
DE
100
AcDbEntity
8
cut
6
ByLayer
62
256
370
-1
100
AcDbLine
10
20
20
25.2
11
17
21
23
0
LINE
5
DF
100
AcDbEntity
8
cut
6
ByLayer
62
256
370
-1
100
AcDbLine
10
25
20
16
11
25
21
15
0
LINE
5
E0
100
AcDbEntity
8
cut
6
ByLayer
62
256
370
-1
100
AcDbLine
10
3
20
16
11
3
21
15
0
LINE
5
E1
100
AcDbEntity
8
cut
6
ByLayer
62
256
370
-1
100
AcDbLine
10
16
20
23
11
16
21
20
0
LINE
5
E2
100
AcDbEntity
8
cut
6
ByLayer
62
256
370
-1
100
AcDbLine
10
16
20
20
11
17
21
20
0
LINE
5
E3
100
AcDbEntity
8
cut
6
ByLayer
62
256
370
-1
100
AcDbLine
10
17
20
20
11
17
21
23
0
LINE
5
E4
100
AcDbEntity
8
cut
6
ByLayer
62
256
370
-1
100
AcDbLine
10
2
20
8
11
2
21
12
0
LINE
5
E5
100
AcDbEntity
8
cut
6
ByLayer
62
256
370
-1
100
AcDbLine
10
6
20
2.8
11
8
21
5
0
LINE
5
E6
100
AcDbEntity
8
cut
6
ByLayer
62
256
370
-1
100
AcDbLine
10
13
20
2.8
11
12
21
5
0
LINE
5
E7
100
AcDbEntity
8
cut
6
ByLayer
62
256
370
-1
100
AcDbLine
10
15
20
2.8
11
15
21
5
0
LINE
5
E8
100
AcDbEntity
8
cut
6
ByLayer
62
256
370
-1
100
AcDbLine
10
22
20
2.8
11
20
21
5
0
LINE
5
E9
100
AcDbEntity
8
cut
6
ByLayer
62
256
370
-1
100
AcDbLine
10
2
20
12
11
3
21
12
0
LINE
5
EA
100
AcDbEntity
8
cut
6
ByLayer
62
256
370
-1
100
AcDbLine
10
26
20
8
11
26
21
12
0
LINE
5
EB
100
AcDbEntity
8
cut
6
ByLayer
62
256
370
-1
100
AcDbLine
10
26
20
12
11
25
21
12
0
LINE
5
EC
100
AcDbEntity
8
cut
6
ByLayer
62
256
370
-1
100
AcDbLine
10
8
20
5
11
8
21
12
0
LINE
5
ED
100
AcDbEntity
8
cut
6
ByLayer
62
256
370
-1
100
AcDbLine
10
8
20
12
11
6
21
12
0
LINE
5
EE
100
AcDbEntity
8
cut
6
ByLayer
62
256
370
-1
100
AcDbLine
10
6
20
12
11
6
21
5
0
LINE
5
EF
100
AcDbEntity
8
cut
6
ByLayer
62
256
370
-1
100
AcDbLine
10
17
20
5
11
17
21
12
0
LINE
5
F0
100
AcDbEntity
8
cut
6
ByLayer
62
256
370
-1
100
AcDbLine
10
17
20
12
11
15
21
12
0
LINE
5
F1
100
AcDbEntity
8
cut
6
ByLayer
62
256
370
-1
100
AcDbLine
10
15
20
12
11
15
21
5
0
LINE
5
F2
100
AcDbEntity
8
cut
6
ByLayer
62
256
370
-1
100
AcDbLine
10
22
20
5
11
22
21
12
0
LINE
5
F3
100
AcDbEntity
8
cut
6
ByLayer
62
256
370
-1
100
AcDbLine
10
22
20
12
11
20
21
12
0
LINE
5
F4
100
AcDbEntity
8
cut
6
ByLayer
62
256
370
-1
100
AcDbLine
10
20
20
12
11
20
21
5
0
LINE
5
F5
100
AcDbEntity
8
cut
6
ByLayer
62
256
370
-1
100
AcDbLine
10
27
20
2.8
11
22
21
5
0
LINE
5
F6
100
AcDbEntity
8
cut
6
ByLayer
62
256
370
-1
100
AcDbLine
10
20
20
2.8
11
17
21
5
0
LINE
5
F7
100
AcDbEntity
8
cut
6
ByLayer
62
256
370
-1
100
AcDbLine
10
8
20
2.8
11
11
21
5
0
LINE
5
F8
100
AcDbEntity
8
cut
6
ByLayer
62
256
370
-1
100
AcDbLine
10
1
20
2.8
11
6
21
5
0
LINE
5
F9
100
AcDbEntity
8
cut
6
ByLayer
62
256
370
-1
100
AcDbLine
10
3
20
12
11
3
21
13
0
LINE
5
FA
100
AcDbEntity
8
cut
6
ByLayer
62
256
370
-1
100
AcDbLine
10
25
20
12
11
25
21
13
0
LINE
5
FB
100
AcDbEntity
8
cut
6
ByLayer
62
256
370
-1
100
AcDbLine
10
12
20
5
11
12
21
8
0
LINE
5
FC
100
AcDbEntity
8
cut
6
ByLayer
62
256
370
-1
100
AcDbLine
10
12
20
8
11
11
21
8
0
LINE
5
FD
100
AcDbEntity
8
cut
6
ByLayer
62
256
370
-1
100
AcDbLine
10
11
20
8
11
11
21
5
0
CIRCLE
5
FE
100
AcDbEntity
8
cut
6
ByLayer
62
256
370
-1
100
AcDbCircle
10
25.5
20
5.5
40
0.5
0
LINE
5
FF
100
AcDbEntity
8
cut
6
ByLayer
62
256
370
-1
100
AcDbLine
10
2.95
20
22.65
11
2.6
21
22.65
0
LINE
5
100
100
AcDbEntity
8
cut
6
ByLayer
62
256
370
-1
100
AcDbLine
10
2.6
20
22.65
11
2.6
21
23
0
LINE
5
101
100
AcDbEntity
8
cut
6
ByLayer
62
256
370
-1
100
AcDbLine
10
2.3
20
23
11
2.3
21
22.65
0
LINE
5
102
100
AcDbEntity
8
cut
6
ByLayer
62
256
370
-1
100
AcDbLine
10
2.3
20
22.65
11
1.95
21
22.65
0
LINE
5
103
100
AcDbEntity
8
cut
6
ByLayer
62
256
370
-1
100
AcDbLine
10
1.95
20
22.65
11
1.95
21
22.35
0
LINE
5
104
100
AcDbEntity
8
cut
6
ByLayer
62
256
370
-1
100
AcDbLine
10
1.95
20
22.35
11
2.3
21
22.35
0
LINE
5
105
100
AcDbEntity
8
cut
6
ByLayer
62
256
370
-1
100
AcDbLine
10
2.3
20
22.35
11
2.3
21
22
0
LINE
5
106
100
AcDbEntity
8
cut
6
ByLayer
62
256
370
-1
100
AcDbLine
10
2.3
20
22
11
2.6
21
22
0
LINE
5
107
100
AcDbEntity
8
cut
6
ByLayer
62
256
370
-1
100
AcDbLine
10
2.6
20
22
11
2.6
21
22.35
0
LINE
5
108
100
AcDbEntity
8
cut
6
ByLayer
62
256
370
-1
100
AcDbLine
10
2.6
20
22.35
11
2.95
21
22.35
0
LINE
5
109
100
AcDbEntity
8
cut
6
ByLayer
62
256
370
-1
100
AcDbLine
10
2.95
20
22.35
11
2.95
21
22.65
0
LINE
5
10A
100
AcDbEntity
8
cut
6
ByLayer
62
256
370
-1
100
AcDbLine
10
2.6
20
23
11
2.3
21
23
0
ARC
5
10B
100
AcDbEntity
8
cut
6
ByLayer
62
256
370
-1
100
AcDbCircle
10
22.45
20
22.45
40
5
100
AcDbArc
50
31.619797067
51
90
0
ARC
5
10C
100
AcDbEntity
8
cut
6
ByLayer
62
256
370
-1
100
AcDbCircle
10
22.45
20
22.45
40
5
100
AcDbArc
50
360
51
31.619797067
0
LINE
5
10D
100
AcDbEntity
8
cut
6
ByLayer
62
256
370
-1
100
AcDbLine
10
27.45
20
22.45
11
27.45
21
20
0
LINE
5
10E
100
AcDbEntity
8
cut
6
ByLayer
62
256
370
-1
100
AcDbLine
10
27.45
20
20
11
27.45
21
8
0
LINE
5
10F
100
AcDbEntity
8
cut
6
ByLayer
62
256
370
-1
100
AcDbLine
10
27.45
20
8
11
27.45
21
-8
0
LINE
5
110
100
AcDbEntity
8
cut
6
ByLayer
62
256
370
-1
100
AcDbLine
10
27.45
20
-8
11
27.45
21
-20
0
LINE
5
111
100
AcDbEntity
8
cut
6
ByLayer
62
256
370
-1
100
AcDbLine
10
27.45
20
-20
11
27.45
21
-22.45
0
ARC
5
112
100
AcDbEntity
8
cut
6
ByLayer
62
256
370
-1
100
AcDbCircle
10
22.45
20
-22.45
40
5
100
AcDbArc
50
328.380202933
51
360
0
ARC
5
113
100
AcDbEntity
8
cut
6
ByLayer
62
256
370
-1
100
AcDbCircle
10
22.45
20
-22.45
40
5
100
AcDbArc
50
270
51
328.380202933
0
LINE
5
114
100
AcDbEntity
8
cut
6
ByLayer
62
256
370
-1
100
AcDbLine
10
22.45
20
-27.45
11
22
21
-27.45
0
LINE
5
115
100
AcDbEntity
8
cut
6
ByLayer
62
256
370
-1
100
AcDbLine
10
22
20
-27.45
11
20
21
-27.45
0
LINE
5
116
100
AcDbEntity
8
cut
6
ByLayer
62
256
370
-1
100
AcDbLine
10
20
20
-27.45
11
15
21
-27.45
0
LINE
5
117
100
AcDbEntity
8
cut
6
ByLayer
62
256
370
-1
100
AcDbLine
10
15
20
-27.45
11
13
21
-27.45
0
LINE
5
118
100
AcDbEntity
8
cut
6
ByLayer
62
256
370
-1
100
AcDbLine
10
13
20
-27.45
11
8
21
-27.45
0
LINE
5
119
100
AcDbEntity
8
cut
6
ByLayer
62
256
370
-1
100
AcDbLine
10
8
20
-27.45
11
6
21
-27.45
0
LINE
5
11A
100
AcDbEntity
8
cut
6
ByLayer
62
256
370
-1
100
AcDbLine
10
6
20
-27.45
11
1
21
-27.45
0
LINE
5
11B
100
AcDbEntity
8
cut
6
ByLayer
62
256
370
-1
100
AcDbLine
10
1
20
-27.45
11
-1
21
-27.45
0
LINE
5
11C
100
AcDbEntity
8
cut
6
ByLayer
62
256
370
-1
100
AcDbLine
10
15
20
27.45
11
13
21
27.45
0
LINE
5
11D
100
AcDbEntity
8
cut
6
ByLayer
62
256
370
-1
100
AcDbLine
10
8
20
27.45
11
13
21
27.45
0
LINE
5
11E
100
AcDbEntity
8
cut
6
ByLayer
62
256
370
-1
100
AcDbLine
10
6
20
27.45
11
8
21
27.45
0
LINE
5
11F
100
AcDbEntity
8
cut
6
ByLayer
62
256
370
-1
100
AcDbLine
10
6
20
27.45
11
1
21
27.45
0
LINE
5
120
100
AcDbEntity
8
cut
6
ByLayer
62
256
370
-1
100
AcDbLine
10
-1
20
27.45
11
1
21
27.45
0
LINE
5
121
100
AcDbEntity
8
cut
6
ByLayer
62
256
370
-1
100
AcDbLine
10
22
20
27.45
11
22.45
21
27.45
0
LINE
5
122
100
AcDbEntity
8
cut
6
ByLayer
62
256
370
-1
100
AcDbLine
10
15
20
27.45
11
20
21
27.45
0
LINE
5
123
100
AcDbEntity
8
cut
6
ByLayer
62
256
370
-1
100
AcDbLine
10
20
20
27.45
11
22
21
27.45
0
LINE
5
124
100
AcDbEntity
8
cut
6
ByLayer
62
256
370
-1
100
AcDbLine
10
2
20
20
11
0.5
21
20
0
LINE
5
125
100
AcDbEntity
8
cut
6
ByLayer
62
256
370
-1
100
AcDbLine
10
2
20
8
11
0.5
21
8
0
LINE
5
126
100
AcDbEntity
8
cut
6
ByLayer
62
256
370
-1
100
AcDbLine
10
0.5
20
20
11
0.5
21
8
0
LINE
5
127
100
AcDbEntity
8
cut
6
ByLayer
62
256
370
-1
100
AcDbLine
10
1
20
2.8
11
1
21
0.5
0
LINE
5
128
100
AcDbEntity
8
cut
6
ByLayer
62
256
370
-1
100
AcDbLine
10
6
20
2.8
11
6
21
0.5
0
LINE
5
129
100
AcDbEntity
8
cut
6
ByLayer
62
256
370
-1
100
AcDbLine
10
8
20
2.8
11
8
21
0.5
0
LINE
5
12A
100
AcDbEntity
8
cut
6
ByLayer
62
256
370
-1
100
AcDbLine
10
13
20
2.8
11
13
21
0.5
0
LINE
5
12B
100
AcDbEntity
8
cut
6
ByLayer
62
256
370
-1
100
AcDbLine
10
15
20
2.8
11
15
21
0.5
0
LINE
5
12C
100
AcDbEntity
8
cut
6
ByLayer
62
256
370
-1
100
AcDbLine
10
20
20
2.8
11
20
21
0.5
0
LINE
5
12D
100
AcDbEntity
8
cut
6
ByLayer
62
256
370
-1
100
AcDbLine
10
22
20
2.8
11
22
21
0.5
0
LINE
5
12E
100
AcDbEntity
8
cut
6
ByLayer
62
256
370
-1
100
AcDbLine
10
27
20
2.8
11
27
21
0.5
0
LINE
5
12F
100
AcDbEntity
8
cut
6
ByLayer
62
256
370
-1
100
AcDbLine
10
27
20
0.5
11
22
21
0.5
0
LINE
5
130
100
AcDbEntity
8
cut
6
ByLayer
62
256
370
-1
100
AcDbLine
10
20
20
0.5
11
15
21
0.5
0
LINE
5
131
100
AcDbEntity
8
cut
6
ByLayer
62
256
370
-1
100
AcDbLine
10
13
20
0.5
11
8
21
0.5
0
LINE
5
132
100
AcDbEntity
8
cut
6
ByLayer
62
256
370
-1
100
AcDbLine
10
6
20
0.5
11
1
21
0.5
0
ARC
5
133
100
AcDbEntity
8
cut
6
ByLayer
62
256
370
-1
100
AcDbCircle
10
22.45
20
22.45
40
4.5
100
AcDbArc
50
32.500787963
51
90
0
LINE
5
134
100
AcDbEntity
8
cut
6
ByLayer
62
256
370
-1
100
AcDbLine
10
22.45
20
26.95
11
22
21
26.95
0
LINE
5
135
100
AcDbEntity
8
cut
6
ByLayer
62
256
370
-1
100
AcDbLine
10
22
20
25.2
11
22
21
26.95
0
LINE
5
136
100
AcDbEntity
8
cut
6
ByLayer
62
256
370
-1
100
AcDbLine
10
26.2452282542
20
24.8679004319
11
22
21
23
0
LINE
5
137
100
AcDbEntity
8
cut
6
ByLayer
62
256
370
-1
100
AcDbLine
10
6
20
25.2
11
6
21
26.95
0
LINE
5
138
100
AcDbEntity
8
cut
6
ByLayer
62
256
370
-1
100
AcDbLine
10
8
20
25.2
11
8
21
26.95
0
LINE
5
139
100
AcDbEntity
8
cut
6
ByLayer
62
256
370
-1
100
AcDbLine
10
13
20
25.2
11
13
21
26.95
0
LINE
5
13A
100
AcDbEntity
8
cut
6
ByLayer
62
256
370
-1
100
AcDbLine
10
15
20
25.2
11
15
21
26.95
0
LINE
5
13B
100
AcDbEntity
8
cut
6
ByLayer
62
256
370
-1
100
AcDbLine
10
20
20
25.2
11
20
21
26.95
0
LINE
5
13C
100
AcDbEntity
8
cut
6
ByLayer
62
256
370
-1
100
AcDbLine
10
6
20
26.95
11
1
21
26.95
0
LINE
5
13D
100
AcDbEntity
8
cut
6
ByLayer
62
256
370
-1
100
AcDbLine
10
13
20
26.95
11
8
21
26.95
0
LINE
5
13E
100
AcDbEntity
8
cut
6
ByLayer
62
256
370
-1
100
AcDbLine
10
20
20
26.95
11
15
21
26.95
0
LINE
5
13F
100
AcDbEntity
8
cut
6
ByLayer
62
256
370
-1
100
AcDbLine
10
26
20
20
11
26.95
21
20
0
LINE
5
140
100
AcDbEntity
8
cut
6
ByLayer
62
256
370
-1
100
AcDbLine
10
26
20
8
11
26.95
21
8
0
LINE
5
141
100
AcDbEntity
8
cut
6
ByLayer
62
256
370
-1
100
AcDbLine
10
26.95
20
20
11
26.95
21
8
0
LINE
5
142
100
AcDbEntity
8
cut
6
ByLayer
62
256
370
-1
100
AcDbLine
10
1
20
25.2
11
1
21
26.95
0
LINE
5
143
100
AcDbEntity
8
cut
6
ByLayer
62
256
370
-1
100
AcDbLine
10
-26
20
-20
11
-26
21
-16
0
LINE
5
144
100
AcDbEntity
8
cut
6
ByLayer
62
256
370
-1
100
AcDbLine
10
-22
20
-25.2
11
-20
21
-23
0
LINE
5
145
100
AcDbEntity
8
cut
6
ByLayer
62
256
370
-1
100
AcDbLine
10
-15
20
-25.2
11
-16
21
-23
0
LINE
5
146
100
AcDbEntity
8
cut
6
ByLayer
62
256
370
-1
100
AcDbLine
10
-13
20
-25.2
11
-13
21
-23
0
LINE
5
147
100
AcDbEntity
8
cut
6
ByLayer
62
256
370
-1
100
AcDbLine
10
-6
20
-25.2
11
-8
21
-23
0
LINE
5
148
100
AcDbEntity
8
cut
6
ByLayer
62
256
370
-1
100
AcDbLine
10
-26
20
-16
11
-25
21
-16
0
LINE
5
149
100
AcDbEntity
8
cut
6
ByLayer
62
256
370
-1
100
AcDbLine
10
-2
20
-20
11
-2
21
-16
0
LINE
5
14A
100
AcDbEntity
8
cut
6
ByLayer
62
256
370
-1
100
AcDbLine
10
-2
20
-16
11
-3
21
-16
0
LINE
5
14B
100
AcDbEntity
8
cut
6
ByLayer
62
256
370
-1
100
AcDbLine
10
-20
20
-23
11
-20
21
-16
0
LINE
5
14C
100
AcDbEntity
8
cut
6
ByLayer
62
256
370
-1
100
AcDbLine
10
-20
20
-16
11
-22
21
-16
0
LINE
5
14D
100
AcDbEntity
8
cut
6
ByLayer
62
256
370
-1
100
AcDbLine
10
-22
20
-16
11
-22
21
-23
0
LINE
5
14E
100
AcDbEntity
8
cut
6
ByLayer
62
256
370
-1
100
AcDbLine
10
-11
20
-23
11
-11
21
-16
0
LINE
5
14F
100
AcDbEntity
8
cut
6
ByLayer
62
256
370
-1
100
AcDbLine
10
-11
20
-16
11
-13
21
-16
0
LINE
5
150
100
AcDbEntity
8
cut
6
ByLayer
62
256
370
-1
100
AcDbLine
10
-13
20
-16
11
-13
21
-23
0
LINE
5
151
100
AcDbEntity
8
cut
6
ByLayer
62
256
370
-1
100
AcDbLine
10
-6
20
-23
11
-6
21
-16
0
LINE
5
152
100
AcDbEntity
8
cut
6
ByLayer
62
256
370
-1
100
AcDbLine
10
-6
20
-16
11
-8
21
-16
0
LINE
5
153
100
AcDbEntity
8
cut
6
ByLayer
62
256
370
-1
100
AcDbLine
10
-8
20
-16
11
-8
21
-23
0
LINE
5
154
100
AcDbEntity
8
cut
6
ByLayer
62
256
370
-1
100
AcDbLine
10
-1
20
-25.2
11
-6
21
-23
0
LINE
5
155
100
AcDbEntity
8
cut
6
ByLayer
62
256
370
-1
100
AcDbLine
10
-8
20
-25.2
11
-11
21
-23
0
LINE
5
156
100
AcDbEntity
8
cut
6
ByLayer
62
256
370
-1
100
AcDbLine
10
-20
20
-25.2
11
-17
21
-23
0
LINE
5
157
100
AcDbEntity
8
cut
6
ByLayer
62
256
370
-1
100
AcDbLine
10
-25
20
-16
11
-25
21
-15
0
LINE
5
158
100
AcDbEntity
8
cut
6
ByLayer
62
256
370
-1
100
AcDbLine
10
-3
20
-16
11
-3
21
-15
0
LINE
5
159
100
AcDbEntity
8
cut
6
ByLayer
62
256
370
-1
100
AcDbLine
10
-16
20
-23
11
-16
21
-20
0
LINE
5
15A
100
AcDbEntity
8
cut
6
ByLayer
62
256
370
-1
100
AcDbLine
10
-16
20
-20
11
-17
21
-20
0
LINE
5
15B
100
AcDbEntity
8
cut
6
ByLayer
62
256
370
-1
100
AcDbLine
10
-17
20
-20
11
-17
21
-23
0
LINE
5
15C
100
AcDbEntity
8
cut
6
ByLayer
62
256
370
-1
100
AcDbLine
10
-2
20
-8
11
-2
21
-12
0
LINE
5
15D
100
AcDbEntity
8
cut
6
ByLayer
62
256
370
-1
100
AcDbLine
10
-6
20
-2.8
11
-8
21
-5
0
LINE
5
15E
100
AcDbEntity
8
cut
6
ByLayer
62
256
370
-1
100
AcDbLine
10
-13
20
-2.8
11
-12
21
-5
0
LINE
5
15F
100
AcDbEntity
8
cut
6
ByLayer
62
256
370
-1
100
AcDbLine
10
-15
20
-2.8
11
-15
21
-5
0
LINE
5
160
100
AcDbEntity
8
cut
6
ByLayer
62
256
370
-1
100
AcDbLine
10
-22
20
-2.8
11
-20
21
-5
0
LINE
5
161
100
AcDbEntity
8
cut
6
ByLayer
62
256
370
-1
100
AcDbLine
10
-2
20
-12
11
-3
21
-12
0
LINE
5
162
100
AcDbEntity
8
cut
6
ByLayer
62
256
370
-1
100
AcDbLine
10
-26
20
-8
11
-26
21
-12
0
LINE
5
163
100
AcDbEntity
8
cut
6
ByLayer
62
256
370
-1
100
AcDbLine
10
-26
20
-12
11
-25
21
-12
0
LINE
5
164
100
AcDbEntity
8
cut
6
ByLayer
62
256
370
-1
100
AcDbLine
10
-8
20
-5
11
-8
21
-12
0
LINE
5
165
100
AcDbEntity
8
cut
6
ByLayer
62
256
370
-1
100
AcDbLine
10
-8
20
-12
11
-6
21
-12
0
LINE
5
166
100
AcDbEntity
8
cut
6
ByLayer
62
256
370
-1
100
AcDbLine
10
-6
20
-12
11
-6
21
-5
0
LINE
5
167
100
AcDbEntity
8
cut
6
ByLayer
62
256
370
-1
100
AcDbLine
10
-17
20
-5
11
-17
21
-12
0
LINE
5
168
100
AcDbEntity
8
cut
6
ByLayer
62
256
370
-1
100
AcDbLine
10
-17
20
-12
11
-15
21
-12
0
LINE
5
169
100
AcDbEntity
8
cut
6
ByLayer
62
256
370
-1
100
AcDbLine
10
-15
20
-12
11
-15
21
-5
0
LINE
5
16A
100
AcDbEntity
8
cut
6
ByLayer
62
256
370
-1
100
AcDbLine
10
-22
20
-5
11
-22
21
-12
0
LINE
5
16B
100
AcDbEntity
8
cut
6
ByLayer
62
256
370
-1
100
AcDbLine
10
-22
20
-12
11
-20
21
-12
0
LINE
5
16C
100
AcDbEntity
8
cut
6
ByLayer
62
256
370
-1
100
AcDbLine
10
-20
20
-12
11
-20
21
-5
0
LINE
5
16D
100
AcDbEntity
8
cut
6
ByLayer
62
256
370
-1
100
AcDbLine
10
-27
20
-2.8
11
-22
21
-5
0
LINE
5
16E
100
AcDbEntity
8
cut
6
ByLayer
62
256
370
-1
100
AcDbLine
10
-20
20
-2.8
11
-17
21
-5
0
LINE
5
16F
100
AcDbEntity
8
cut
6
ByLayer
62
256
370
-1
100
AcDbLine
10
-8
20
-2.8
11
-11
21
-5
0
LINE
5
170
100
AcDbEntity
8
cut
6
ByLayer
62
256
370
-1
100
AcDbLine
10
-1
20
-2.8
11
-6
21
-5
0
LINE
5
171
100
AcDbEntity
8
cut
6
ByLayer
62
256
370
-1
100
AcDbLine
10
-3
20
-12
11
-3
21
-13
0
LINE
5
172
100
AcDbEntity
8
cut
6
ByLayer
62
256
370
-1
100
AcDbLine
10
-25
20
-12
11
-25
21
-13
0
LINE
5
173
100
AcDbEntity
8
cut
6
ByLayer
62
256
370
-1
100
AcDbLine
10
-12
20
-5
11
-12
21
-8
0
LINE
5
174
100
AcDbEntity
8
cut
6
ByLayer
62
256
370
-1
100
AcDbLine
10
-12
20
-8
11
-11
21
-8
0
LINE
5
175
100
AcDbEntity
8
cut
6
ByLayer
62
256
370
-1
100
AcDbLine
10
-11
20
-8
11
-11
21
-5
0
CIRCLE
5
176
100
AcDbEntity
8
cut
6
ByLayer
62
256
370
-1
100
AcDbCircle
10
-25.5
20
-5.5
40
0.5
0
LINE
5
177
100
AcDbEntity
8
cut
6
ByLayer
62
256
370
-1
100
AcDbLine
10
-2.95
20
-22.65
11
-2.6
21
-22.65
0
LINE
5
178
100
AcDbEntity
8
cut
6
ByLayer
62
256
370
-1
100
AcDbLine
10
-2.6
20
-22.65
11
-2.6
21
-23
0
LINE
5
179
100
AcDbEntity
8
cut
6
ByLayer
62
256
370
-1
100
AcDbLine
10
-2.3
20
-23
11
-2.3
21
-22.65
0
LINE
5
17A
100
AcDbEntity
8
cut
6
ByLayer
62
256
370
-1
100
AcDbLine
10
-2.3
20
-22.65
11
-1.95
21
-22.65
0
LINE
5
17B
100
AcDbEntity
8
cut
6
ByLayer
62
256
370
-1
100
AcDbLine
10
-1.95
20
-22.65
11
-1.95
21
-22.35
0
LINE
5
17C
100
AcDbEntity
8
cut
6
ByLayer
62
256
370
-1
100
AcDbLine
10
-1.95
20
-22.35
11
-2.3
21
-22.35
0
LINE
5
17D
100
AcDbEntity
8
cut
6
ByLayer
62
256
370
-1
100
AcDbLine
10
-2.3
20
-22.35
11
-2.3
21
-22
0
LINE
5
17E
100
AcDbEntity
8
cut
6
ByLayer
62
256
370
-1
100
AcDbLine
10
-2.3
20
-22
11
-2.6
21
-22
0
LINE
5
17F
100
AcDbEntity
8
cut
6
ByLayer
62
256
370
-1
100
AcDbLine
10
-2.6
20
-22
11
-2.6
21
-22.35
0
LINE
5
180
100
AcDbEntity
8
cut
6
ByLayer
62
256
370
-1
100
AcDbLine
10
-2.6
20
-22.35
11
-2.95
21
-22.35
0
LINE
5
181
100
AcDbEntity
8
cut
6
ByLayer
62
256
370
-1
100
AcDbLine
10
-2.95
20
-22.35
11
-2.95
21
-22.65
0
LINE
5
182
100
AcDbEntity
8
cut
6
ByLayer
62
256
370
-1
100
AcDbLine
10
-2.6
20
-23
11
-2.3
21
-23
0
LINE
5
183
100
AcDbEntity
8
cut
6
ByLayer
62
256
370
-1
100
AcDbLine
10
-2
20
-20
11
-0.5
21
-20
0
LINE
5
184
100
AcDbEntity
8
cut
6
ByLayer
62
256
370
-1
100
AcDbLine
10
-2
20
-8
11
-0.5
21
-8
0
LINE
5
185
100
AcDbEntity
8
cut
6
ByLayer
62
256
370
-1
100
AcDbLine
10
-0.5
20
-20
11
-0.5
21
-8
0
LINE
5
186
100
AcDbEntity
8
cut
6
ByLayer
62
256
370
-1
100
AcDbLine
10
-1
20
-2.8
11
-1
21
-0.5
0
LINE
5
187
100
AcDbEntity
8
cut
6
ByLayer
62
256
370
-1
100
AcDbLine
10
-6
20
-2.8
11
-6
21
-0.5
0
LINE
5
188
100
AcDbEntity
8
cut
6
ByLayer
62
256
370
-1
100
AcDbLine
10
-8
20
-2.8
11
-8
21
-0.5
0
LINE
5
189
100
AcDbEntity
8
cut
6
ByLayer
62
256
370
-1
100
AcDbLine
10
-13
20
-2.8
11
-13
21
-0.5
0
LINE
5
18A
100
AcDbEntity
8
cut
6
ByLayer
62
256
370
-1
100
AcDbLine
10
-15
20
-2.8
11
-15
21
-0.5
0
LINE
5
18B
100
AcDbEntity
8
cut
6
ByLayer
62
256
370
-1
100
AcDbLine
10
-20
20
-2.8
11
-20
21
-0.5
0
LINE
5
18C
100
AcDbEntity
8
cut
6
ByLayer
62
256
370
-1
100
AcDbLine
10
-22
20
-2.8
11
-22
21
-0.5
0
LINE
5
18D
100
AcDbEntity
8
cut
6
ByLayer
62
256
370
-1
100
AcDbLine
10
-27
20
-2.8
11
-27
21
-0.5
0
LINE
5
18E
100
AcDbEntity
8
cut
6
ByLayer
62
256
370
-1
100
AcDbLine
10
-27
20
-0.5
11
-22
21
-0.5
0
LINE
5
18F
100
AcDbEntity
8
cut
6
ByLayer
62
256
370
-1
100
AcDbLine
10
-20
20
-0.5
11
-15
21
-0.5
0
LINE
5
190
100
AcDbEntity
8
cut
6
ByLayer
62
256
370
-1
100
AcDbLine
10
-13
20
-0.5
11
-8
21
-0.5
0
LINE
5
191
100
AcDbEntity
8
cut
6
ByLayer
62
256
370
-1
100
AcDbLine
10
-6
20
-0.5
11
-1
21
-0.5
0
ARC
5
192
100
AcDbEntity
8
cut
6
ByLayer
62
256
370
-1
100
AcDbCircle
10
-22.45
20
-22.45
40
4.5
100
AcDbArc
50
212.500787963
51
270
0
LINE
5
193
100
AcDbEntity
8
cut
6
ByLayer
62
256
370
-1
100
AcDbLine
10
-22.45
20
-26.95
11
-22
21
-26.95
0
LINE
5
194
100
AcDbEntity
8
cut
6
ByLayer
62
256
370
-1
100
AcDbLine
10
-22
20
-25.2
11
-22
21
-26.95
0
LINE
5
195
100
AcDbEntity
8
cut
6
ByLayer
62
256
370
-1
100
AcDbLine
10
-26.2452282542
20
-24.8679004319
11
-22
21
-23
0
LINE
5
196
100
AcDbEntity
8
cut
6
ByLayer
62
256
370
-1
100
AcDbLine
10
-6
20
-25.2
11
-6
21
-26.95
0
LINE
5
197
100
AcDbEntity
8
cut
6
ByLayer
62
256
370
-1
100
AcDbLine
10
-8
20
-25.2
11
-8
21
-26.95
0
LINE
5
198
100
AcDbEntity
8
cut
6
ByLayer
62
256
370
-1
100
AcDbLine
10
-13
20
-25.2
11
-13
21
-26.95
0
LINE
5
199
100
AcDbEntity
8
cut
6
ByLayer
62
256
370
-1
100
AcDbLine
10
-15
20
-25.2
11
-15
21
-26.95
0
LINE
5
19A
100
AcDbEntity
8
cut
6
ByLayer
62
256
370
-1
100
AcDbLine
10
-20
20
-25.2
11
-20
21
-26.95
0
LINE
5
19B
100
AcDbEntity
8
cut
6
ByLayer
62
256
370
-1
100
AcDbLine
10
-6
20
-26.95
11
-1
21
-26.95
0
LINE
5
19C
100
AcDbEntity
8
cut
6
ByLayer
62
256
370
-1
100
AcDbLine
10
-13
20
-26.95
11
-8
21
-26.95
0
LINE
5
19D
100
AcDbEntity
8
cut
6
ByLayer
62
256
370
-1
100
AcDbLine
10
-20
20
-26.95
11
-15
21
-26.95
0
LINE
5
19E
100
AcDbEntity
8
cut
6
ByLayer
62
256
370
-1
100
AcDbLine
10
-26
20
-20
11
-26.95
21
-20
0
LINE
5
19F
100
AcDbEntity
8
cut
6
ByLayer
62
256
370
-1
100
AcDbLine
10
-26
20
-8
11
-26.95
21
-8
0
LINE
5
1A0
100
AcDbEntity
8
cut
6
ByLayer
62
256
370
-1
100
AcDbLine
10
-26.95
20
-20
11
-26.95
21
-8
0
LINE
5
1A1
100
AcDbEntity
8
cut
6
ByLayer
62
256
370
-1
100
AcDbLine
10
-1
20
-25.2
11
-1
21
-26.95
0
LINE
5
1A2
100
AcDbEntity
8
cut
6
ByLayer
62
256
370
-1
100
AcDbLine
10
26
20
-20
11
26
21
-16
0
LINE
5
1A3
100
AcDbEntity
8
cut
6
ByLayer
62
256
370
-1
100
AcDbLine
10
22
20
-25.2
11
20
21
-23
0
LINE
5
1A4
100
AcDbEntity
8
cut
6
ByLayer
62
256
370
-1
100
AcDbLine
10
15
20
-25.2
11
16
21
-23
0
LINE
5
1A5
100
AcDbEntity
8
cut
6
ByLayer
62
256
370
-1
100
AcDbLine
10
13
20
-25.2
11
13
21
-23
0
LINE
5
1A6
100
AcDbEntity
8
cut
6
ByLayer
62
256
370
-1
100
AcDbLine
10
6
20
-25.2
11
8
21
-23
0
LINE
5
1A7
100
AcDbEntity
8
cut
6
ByLayer
62
256
370
-1
100
AcDbLine
10
26
20
-16
11
25
21
-16
0
LINE
5
1A8
100
AcDbEntity
8
cut
6
ByLayer
62
256
370
-1
100
AcDbLine
10
2
20
-20
11
2
21
-16
0
LINE
5
1A9
100
AcDbEntity
8
cut
6
ByLayer
62
256
370
-1
100
AcDbLine
10
2
20
-16
11
3
21
-16
0
LINE
5
1AA
100
AcDbEntity
8
cut
6
ByLayer
62
256
370
-1
100
AcDbLine
10
20
20
-23
11
20
21
-16
0
LINE
5
1AB
100
AcDbEntity
8
cut
6
ByLayer
62
256
370
-1
100
AcDbLine
10
20
20
-16
11
22
21
-16
0
LINE
5
1AC
100
AcDbEntity
8
cut
6
ByLayer
62
256
370
-1
100
AcDbLine
10
22
20
-16
11
22
21
-23
0
LINE
5
1AD
100
AcDbEntity
8
cut
6
ByLayer
62
256
370
-1
100
AcDbLine
10
11
20
-23
11
11
21
-16
0
LINE
5
1AE
100
AcDbEntity
8
cut
6
ByLayer
62
256
370
-1
100
AcDbLine
10
11
20
-16
11
13
21
-16
0
LINE
5
1AF
100
AcDbEntity
8
cut
6
ByLayer
62
256
370
-1
100
AcDbLine
10
13
20
-16
11
13
21
-23
0
LINE
5
1B0
100
AcDbEntity
8
cut
6
ByLayer
62
256
370
-1
100
AcDbLine
10
6
20
-23
11
6
21
-16
0
LINE
5
1B1
100
AcDbEntity
8
cut
6
ByLayer
62
256
370
-1
100
AcDbLine
10
6
20
-16
11
8
21
-16
0
LINE
5
1B2
100
AcDbEntity
8
cut
6
ByLayer
62
256
370
-1
100
AcDbLine
10
8
20
-16
11
8
21
-23
0
LINE
5
1B3
100
AcDbEntity
8
cut
6
ByLayer
62
256
370
-1
100
AcDbLine
10
1
20
-25.2
11
6
21
-23
0
LINE
5
1B4
100
AcDbEntity
8
cut
6
ByLayer
62
256
370
-1
100
AcDbLine
10
8
20
-25.2
11
11
21
-23
0
LINE
5
1B5
100
AcDbEntity
8
cut
6
ByLayer
62
256
370
-1
100
AcDbLine
10
20
20
-25.2
11
17
21
-23
0
LINE
5
1B6
100
AcDbEntity
8
cut
6
ByLayer
62
256
370
-1
100
AcDbLine
10
25
20
-16
11
25
21
-15
0
LINE
5
1B7
100
AcDbEntity
8
cut
6
ByLayer
62
256
370
-1
100
AcDbLine
10
3
20
-16
11
3
21
-15
0
LINE
5
1B8
100
AcDbEntity
8
cut
6
ByLayer
62
256
370
-1
100
AcDbLine
10
16
20
-23
11
16
21
-20
0
LINE
5
1B9
100
AcDbEntity
8
cut
6
ByLayer
62
256
370
-1
100
AcDbLine
10
16
20
-20
11
17
21
-20
0
LINE
5
1BA
100
AcDbEntity
8
cut
6
ByLayer
62
256
370
-1
100
AcDbLine
10
17
20
-20
11
17
21
-23
0
LINE
5
1BB
100
AcDbEntity
8
cut
6
ByLayer
62
256
370
-1
100
AcDbLine
10
2
20
-8
11
2
21
-12
0
LINE
5
1BC
100
AcDbEntity
8
cut
6
ByLayer
62
256
370
-1
100
AcDbLine
10
6
20
-2.8
11
8
21
-5
0
LINE
5
1BD
100
AcDbEntity
8
cut
6
ByLayer
62
256
370
-1
100
AcDbLine
10
13
20
-2.8
11
12
21
-5
0
LINE
5
1BE
100
AcDbEntity
8
cut
6
ByLayer
62
256
370
-1
100
AcDbLine
10
15
20
-2.8
11
15
21
-5
0
LINE
5
1BF
100
AcDbEntity
8
cut
6
ByLayer
62
256
370
-1
100
AcDbLine
10
22
20
-2.8
11
20
21
-5
0
LINE
5
1C0
100
AcDbEntity
8
cut
6
ByLayer
62
256
370
-1
100
AcDbLine
10
2
20
-12
11
3
21
-12
0
LINE
5
1C1
100
AcDbEntity
8
cut
6
ByLayer
62
256
370
-1
100
AcDbLine
10
26
20
-8
11
26
21
-12
0
LINE
5
1C2
100
AcDbEntity
8
cut
6
ByLayer
62
256
370
-1
100
AcDbLine
10
26
20
-12
11
25
21
-12
0
LINE
5
1C3
100
AcDbEntity
8
cut
6
ByLayer
62
256
370
-1
100
AcDbLine
10
8
20
-5
11
8
21
-12
0
LINE
5
1C4
100
AcDbEntity
8
cut
6
ByLayer
62
256
370
-1
100
AcDbLine
10
8
20
-12
11
6
21
-12
0
LINE
5
1C5
100
AcDbEntity
8
cut
6
ByLayer
62
256
370
-1
100
AcDbLine
10
6
20
-12
11
6
21
-5
0
LINE
5
1C6
100
AcDbEntity
8
cut
6
ByLayer
62
256
370
-1
100
AcDbLine
10
17
20
-5
11
17
21
-12
0
LINE
5
1C7
100
AcDbEntity
8
cut
6
ByLayer
62
256
370
-1
100
AcDbLine
10
17
20
-12
11
15
21
-12
0
LINE
5
1C8
100
AcDbEntity
8
cut
6
ByLayer
62
256
370
-1
100
AcDbLine
10
15
20
-12
11
15
21
-5
0
LINE
5
1C9
100
AcDbEntity
8
cut
6
ByLayer
62
256
370
-1
100
AcDbLine
10
22
20
-5
11
22
21
-12
0
LINE
5
1CA
100
AcDbEntity
8
cut
6
ByLayer
62
256
370
-1
100
AcDbLine
10
22
20
-12
11
20
21
-12
0
LINE
5
1CB
100
AcDbEntity
8
cut
6
ByLayer
62
256
370
-1
100
AcDbLine
10
20
20
-12
11
20
21
-5
0
LINE
5
1CC
100
AcDbEntity
8
cut
6
ByLayer
62
256
370
-1
100
AcDbLine
10
27
20
-2.8
11
22
21
-5
0
LINE
5
1CD
100
AcDbEntity
8
cut
6
ByLayer
62
256
370
-1
100
AcDbLine
10
20
20
-2.8
11
17
21
-5
0
LINE
5
1CE
100
AcDbEntity
8
cut
6
ByLayer
62
256
370
-1
100
AcDbLine
10
8
20
-2.8
11
11
21
-5
0
LINE
5
1CF
100
AcDbEntity
8
cut
6
ByLayer
62
256
370
-1
100
AcDbLine
10
1
20
-2.8
11
6
21
-5
0
LINE
5
1D0
100
AcDbEntity
8
cut
6
ByLayer
62
256
370
-1
100
AcDbLine
10
3
20
-12
11
3
21
-13
0
LINE
5
1D1
100
AcDbEntity
8
cut
6
ByLayer
62
256
370
-1
100
AcDbLine
10
25
20
-12
11
25
21
-13
0
LINE
5
1D2
100
AcDbEntity
8
cut
6
ByLayer
62
256
370
-1
100
AcDbLine
10
12
20
-5
11
12
21
-8
0
LINE
5
1D3
100
AcDbEntity
8
cut
6
ByLayer
62
256
370
-1
100
AcDbLine
10
12
20
-8
11
11
21
-8
0
LINE
5
1D4
100
AcDbEntity
8
cut
6
ByLayer
62
256
370
-1
100
AcDbLine
10
11
20
-8
11
11
21
-5
0
CIRCLE
5
1D5
100
AcDbEntity
8
cut
6
ByLayer
62
256
370
-1
100
AcDbCircle
10
25.5
20
-5.5
40
0.5
0
LINE
5
1D6
100
AcDbEntity
8
cut
6
ByLayer
62
256
370
-1
100
AcDbLine
10
2.95
20
-22.65
11
2.6
21
-22.65
0
LINE
5
1D7
100
AcDbEntity
8
cut
6
ByLayer
62
256
370
-1
100
AcDbLine
10
2.6
20
-22.65
11
2.6
21
-23
0
LINE
5
1D8
100
AcDbEntity
8
cut
6
ByLayer
62
256
370
-1
100
AcDbLine
10
2.3
20
-23
11
2.3
21
-22.65
0
LINE
5
1D9
100
AcDbEntity
8
cut
6
ByLayer
62
256
370
-1
100
AcDbLine
10
2.3
20
-22.65
11
1.95
21
-22.65
0
LINE
5
1DA
100
AcDbEntity
8
cut
6
ByLayer
62
256
370
-1
100
AcDbLine
10
1.95
20
-22.65
11
1.95
21
-22.35
0
LINE
5
1DB
100
AcDbEntity
8
cut
6
ByLayer
62
256
370
-1
100
AcDbLine
10
1.95
20
-22.35
11
2.3
21
-22.35
0
LINE
5
1DC
100
AcDbEntity
8
cut
6
ByLayer
62
256
370
-1
100
AcDbLine
10
2.3
20
-22.35
11
2.3
21
-22
0
LINE
5
1DD
100
AcDbEntity
8
cut
6
ByLayer
62
256
370
-1
100
AcDbLine
10
2.3
20
-22
11
2.6
21
-22
0
LINE
5
1DE
100
AcDbEntity
8
cut
6
ByLayer
62
256
370
-1
100
AcDbLine
10
2.6
20
-22
11
2.6
21
-22.35
0
LINE
5
1DF
100
AcDbEntity
8
cut
6
ByLayer
62
256
370
-1
100
AcDbLine
10
2.6
20
-22.35
11
2.95
21
-22.35
0
LINE
5
1E0
100
AcDbEntity
8
cut
6
ByLayer
62
256
370
-1
100
AcDbLine
10
2.95
20
-22.35
11
2.95
21
-22.65
0
LINE
5
1E1
100
AcDbEntity
8
cut
6
ByLayer
62
256
370
-1
100
AcDbLine
10
2.6
20
-23
11
2.3
21
-23
0
LINE
5
1E2
100
AcDbEntity
8
cut
6
ByLayer
62
256
370
-1
100
AcDbLine
10
2
20
-20
11
0.5
21
-20
0
LINE
5
1E3
100
AcDbEntity
8
cut
6
ByLayer
62
256
370
-1
100
AcDbLine
10
2
20
-8
11
0.5
21
-8
0
LINE
5
1E4
100
AcDbEntity
8
cut
6
ByLayer
62
256
370
-1
100
AcDbLine
10
0.5
20
-20
11
0.5
21
-8
0
LINE
5
1E5
100
AcDbEntity
8
cut
6
ByLayer
62
256
370
-1
100
AcDbLine
10
1
20
-2.8
11
1
21
-0.5
0
LINE
5
1E6
100
AcDbEntity
8
cut
6
ByLayer
62
256
370
-1
100
AcDbLine
10
6
20
-2.8
11
6
21
-0.5
0
LINE
5
1E7
100
AcDbEntity
8
cut
6
ByLayer
62
256
370
-1
100
AcDbLine
10
8
20
-2.8
11
8
21
-0.5
0
LINE
5
1E8
100
AcDbEntity
8
cut
6
ByLayer
62
256
370
-1
100
AcDbLine
10
13
20
-2.8
11
13
21
-0.5
0
LINE
5
1E9
100
AcDbEntity
8
cut
6
ByLayer
62
256
370
-1
100
AcDbLine
10
15
20
-2.8
11
15
21
-0.5
0
LINE
5
1EA
100
AcDbEntity
8
cut
6
ByLayer
62
256
370
-1
100
AcDbLine
10
20
20
-2.8
11
20
21
-0.5
0
LINE
5
1EB
100
AcDbEntity
8
cut
6
ByLayer
62
256
370
-1
100
AcDbLine
10
22
20
-2.8
11
22
21
-0.5
0
LINE
5
1EC
100
AcDbEntity
8
cut
6
ByLayer
62
256
370
-1
100
AcDbLine
10
27
20
-2.8
11
27
21
-0.5
0
LINE
5
1ED
100
AcDbEntity
8
cut
6
ByLayer
62
256
370
-1
100
AcDbLine
10
27
20
-0.5
11
22
21
-0.5
0
LINE
5
1EE
100
AcDbEntity
8
cut
6
ByLayer
62
256
370
-1
100
AcDbLine
10
20
20
-0.5
11
15
21
-0.5
0
LINE
5
1EF
100
AcDbEntity
8
cut
6
ByLayer
62
256
370
-1
100
AcDbLine
10
13
20
-0.5
11
8
21
-0.5
0
LINE
5
1F0
100
AcDbEntity
8
cut
6
ByLayer
62
256
370
-1
100
AcDbLine
10
6
20
-0.5
11
1
21
-0.5
0
ARC
5
1F1
100
AcDbEntity
8
cut
6
ByLayer
62
256
370
-1
100
AcDbCircle
10
22.45
20
-22.45
40
4.5
100
AcDbArc
50
270
51
327.499212037
0
LINE
5
1F2
100
AcDbEntity
8
cut
6
ByLayer
62
256
370
-1
100
AcDbLine
10
22
20
-25.2
11
22
21
-26.95
0
LINE
5
1F3
100
AcDbEntity
8
cut
6
ByLayer
62
256
370
-1
100
AcDbLine
10
26.2452282542
20
-24.8679004319
11
22
21
-23
0
LINE
5
1F4
100
AcDbEntity
8
cut
6
ByLayer
62
256
370
-1
100
AcDbLine
10
6
20
-25.2
11
6
21
-26.95
0
LINE
5
1F5
100
AcDbEntity
8
cut
6
ByLayer
62
256
370
-1
100
AcDbLine
10
8
20
-25.2
11
8
21
-26.95
0
LINE
5
1F6
100
AcDbEntity
8
cut
6
ByLayer
62
256
370
-1
100
AcDbLine
10
13
20
-25.2
11
13
21
-26.95
0
LINE
5
1F7
100
AcDbEntity
8
cut
6
ByLayer
62
256
370
-1
100
AcDbLine
10
15
20
-25.2
11
15
21
-26.95
0
LINE
5
1F8
100
AcDbEntity
8
cut
6
ByLayer
62
256
370
-1
100
AcDbLine
10
20
20
-25.2
11
20
21
-26.95
0
LINE
5
1F9
100
AcDbEntity
8
cut
6
ByLayer
62
256
370
-1
100
AcDbLine
10
6
20
-26.95
11
1
21
-26.95
0
LINE
5
1FA
100
AcDbEntity
8
cut
6
ByLayer
62
256
370
-1
100
AcDbLine
10
13
20
-26.95
11
8
21
-26.95
0
LINE
5
1FB
100
AcDbEntity
8
cut
6
ByLayer
62
256
370
-1
100
AcDbLine
10
20
20
-26.95
11
15
21
-26.95
0
LINE
5
1FC
100
AcDbEntity
8
cut
6
ByLayer
62
256
370
-1
100
AcDbLine
10
26
20
-20
11
26.95
21
-20
0
LINE
5
1FD
100
AcDbEntity
8
cut
6
ByLayer
62
256
370
-1
100
AcDbLine
10
26
20
-8
11
26.95
21
-8
0
LINE
5
1FE
100
AcDbEntity
8
cut
6
ByLayer
62
256
370
-1
100
AcDbLine
10
26.95
20
-20
11
26.95
21
-8
0
LINE
5
1FF
100
AcDbEntity
8
cut
6
ByLayer
62
256
370
-1
100
AcDbLine
10
1
20
-25.2
11
1
21
-26.95
0
LINE
5
200
100
AcDbEntity
8
cut
6
ByLayer
62
256
370
-1
100
AcDbLine
10
25.5
20
22.5
11
25.5
21
23.91
0
ARC
5
201
100
AcDbEntity
8
cut
6
ByLayer
62
256
370
-1
100
AcDbCircle
10
25.8
20
22.8525
40
0.3525
100
AcDbArc
50
270
51
90.0218389755
0
ARC
5
202
100
AcDbEntity
8
cut
6
ByLayer
62
256
370
-1
100
AcDbCircle
10
25.7998656404
20
23.5574999744
40
0.3525
100
AcDbArc
50
270
51
90.0218389755
0
LINE
5
203
100
AcDbEntity
8
cut
6
ByLayer
62
256
370
-1
100
AcDbLine
10
25.5
20
23.91
11
25.7997312808
21
23.9099999488
0
LINE
5
204
100
AcDbEntity
8
cut
6
ByLayer
62
256
370
-1
100
AcDbLine
10
25.5
20
22.5
11
25.8
21
22.5
0
LINE
5
205
100
AcDbEntity
8
cut
6
ByLayer
62
256
370
-1
100
AcDbLine
10
1.5
20
-5.5
11
1.5
21
-4.09
0
LINE
5
206
100
AcDbEntity
8
cut
6
ByLayer
62
256
370
-1
100
AcDbLine
10
1.5
20
-5.5
11
1.8
21
-5.5
0
ARC
5
207
100
AcDbEntity
8
cut
6
ByLayer
62
256
370
-1
100
AcDbCircle
10
1.71862495352
20
-4.79501550854
40
0.709665436237
100
AcDbArc
50
276.584405486
51
83.437433489
0
ARC
5
208
100
AcDbEntity
8
cut
6
ByLayer
62
256
370
-1
100
AcDbCircle
10
-1.7484375
20
-4.75
40
0.7515625
100
AcDbArc
50
86.304779468
51
273.695220532
0
LINE
5
209
100
AcDbEntity
8
cut
6
ByLayer
62
256
370
-1
100
AcDbLine
10
-1.7
20
-5.5
11
-1.7
21
-5.3
0
LINE
5
20A
100
AcDbEntity
8
cut
6
ByLayer
62
256
370
-1
100
AcDbLine
10
-1.7
20
-4
11
-1.7
21
-4.2
0
ARC
5
20B
100
AcDbEntity
8
cut
6
ByLayer
62
256
370
-1
100
AcDbCircle
10
-1.6927297733
20
-4.75
40
0.550048048989
100
AcDbArc
50
90.7573255395
51
269.242674461
0
LINE
5
20C
100
AcDbEntity
8
cut
6
ByLayer
62
256
370
-1
100
AcDbLine
10
1.5
20
-4.09
11
1.79973128078
21
-4.09000005121
0
LINE
5
20D
100
AcDbEntity
8
engrave
6
ByLayer
62
256
370
-1
100
AcDbLine
10
-3.15277803492
20
-20.5
11
-3.15277803492
21
-21.5
0
LINE
5
20E
100
AcDbEntity
8
engrave
6
ByLayer
62
256
370
-1
100
AcDbLine
10
-3.15277803492
20
-21.5
11
-3.4305558127
21
-21.5
0
ARC
5
20F
100
AcDbEntity
8
engrave
6
ByLayer
62
256
370
-1
100
AcDbCircle
10
-3.43055593721
20
-21.3333334578
40
0.166666542154
100
AcDbArc
50
179.999957196
51
270.000042804
0
LINE
5
210
100
AcDbEntity
8
engrave
6
ByLayer
62
256
370
-1
100
AcDbLine
10
-3.59722247937
20
-21.3333333333
11
-3.59722247937
21
-21
0
ARC
5
211
100
AcDbEntity
8
engrave
6
ByLayer
62
256
370
-1
100
AcDbCircle
10
-3.43055593721
20
-20.9999998755
40
0.166666542154
100
AcDbArc
50
89.9999571957
51
180.000042804
0
LINE
5
212
100
AcDbEntity
8
engrave
6
ByLayer
62
256
370
-1
100
AcDbLine
10
-3.4305558127
20
-20.8333333333
11
-3.15277803492
21
-20.8333333333
0
LINE
5
213
100
AcDbEntity
8
engrave
6
ByLayer
62
256
370
-1
100
AcDbLine
10
-2.37500025714
20
-21.5
11
-2.65277803492
21
-21.5
0
ARC
5
214
100
AcDbEntity
8
engrave
6
ByLayer
62
256
370
-1
100
AcDbCircle
10
-2.65277815943
20
-21.3333334578
40
0.166666542154
100
AcDbArc
50
179.999957196
51
270.000042804
0
LINE
5
215
100
AcDbEntity
8
engrave
6
ByLayer
62
256
370
-1
100
AcDbLine
10
-2.81944470159
20
-21.3333333333
11
-2.81944470159
21
-21.0555555556
0
ARC
5
216
100
AcDbEntity
8
engrave
6
ByLayer
62
256
370
-1
100
AcDbCircle
10
-2.59722247937
20
-21.0555555556
40
0.222222222222
100
AcDbArc
50
0
51
180
0
LINE
5
217
100
AcDbEntity
8
engrave
6
ByLayer
62
256
370
-1
100
AcDbLine
10
-2.37500025714
20
-21.0555555556
11
-2.37500025714
21
-21.1666666667
0
LINE
5
218
100
AcDbEntity
8
engrave
6
ByLayer
62
256
370
-1
100
AcDbLine
10
-2.37500025714
20
-21.1666666667
11
-2.81944470159
21
-21.1666666667
0
LINE
5
219
100
AcDbEntity
8
engrave
6
ByLayer
62
256
370
-1
100
AcDbLine
10
-2.04166692381
20
-20.8333333333
11
-1.81944470159
21
-21.5
0
LINE
5
21A
100
AcDbEntity
8
engrave
6
ByLayer
62
256
370
-1
100
AcDbLine
10
-1.81944470159
20
-21.5
11
-1.59722247937
21
-20.8333333333
0
LINE
5
21B
100
AcDbEntity
8
engrave
6
ByLayer
62
256
370
-1
100
AcDbLine
10
-1.26388914603
20
-21.5
11
-1.26388914603
21
-20.8333333333
0
LINE
5
21C
100
AcDbEntity
8
engrave
6
ByLayer
62
256
370
-1
100
AcDbLine
10
-1.26388914603
20
-20.5555555556
11
-1.26388914603
21
-20.5
0
LINE
5
21D
100
AcDbEntity
8
engrave
6
ByLayer
62
256
370
-1
100
AcDbLine
10
-0.597222479366
20
-20.8333333333
11
-0.763889146033
21
-20.8333333333
0
ARC
5
21E
100
AcDbEntity
8
engrave
6
ByLayer
62
256
370
-1
100
AcDbCircle
10
-0.763889270545
20
-20.9999998755
40
0.166666542154
100
AcDbArc
50
89.9999571957
51
180.000042804
0
LINE
5
21F
100
AcDbEntity
8
engrave
6
ByLayer
62
256
370
-1
100
AcDbLine
10
-0.930555812699
20
-21
11
-0.930555812699
21
-21.3333333333
0
ARC
5
220
100
AcDbEntity
8
engrave
6
ByLayer
62
256
370
-1
100
AcDbCircle
10
-0.763889270545
20
-21.3333334578
40
0.166666542154
100
AcDbArc
50
179.999957196
51
270.000042804
0
LINE
5
221
100
AcDbEntity
8
engrave
6
ByLayer
62
256
370
-1
100
AcDbLine
10
-0.763889146033
20
-21.5
11
-0.597222479366
21
-21.5
0
LINE
5
222
100
AcDbEntity
8
engrave
6
ByLayer
62
256
370
-1
100
AcDbLine
10
0.180555298412
20
-21.5
11
-0.0972224793658
21
-21.5
0
ARC
5
223
100
AcDbEntity
8
engrave
6
ByLayer
62
256
370
-1
100
AcDbCircle
10
-0.0972226038784
20
-21.3333334578
40
0.166666542154
100
AcDbArc
50
179.999957196
51
270.000042804
0
LINE
5
224
100
AcDbEntity
8
engrave
6
ByLayer
62
256
370
-1
100
AcDbLine
10
-0.263889146033
20
-21.3333333333
11
-0.263889146033
21
-21.0555555556
0
ARC
5
225
100
AcDbEntity
8
engrave
6
ByLayer
62
256
370
-1
100
AcDbCircle
10
-0.0416669238103
20
-21.0555555556
40
0.222222222222
100
AcDbArc
50
0
51
180
0
LINE
5
226
100
AcDbEntity
8
engrave
6
ByLayer
62
256
370
-1
100
AcDbLine
10
0.180555298412
20
-21.0555555556
11
0.180555298412
21
-21.1666666667
0
LINE
5
227
100
AcDbEntity
8
engrave
6
ByLayer
62
256
370
-1
100
AcDbLine
10
0.180555298412
20
-21.1666666667
11
-0.263889146033
21
-21.1666666667
0
ARC
5
228
100
AcDbEntity
8
engrave
6
ByLayer
62
256
370
-1
100
AcDbCircle
10
1.5692205362
20
-20.6331745255
40
0.866825503351
100
AcDbArc
50
249.375524082
51
270.01478298
0
ARC
5
229
100
AcDbEntity
8
engrave
6
ByLayer
62
256
370
-1
100
AcDbCircle
10
1.56944533771
20
-21.3611117472
40
0.138888252768
100
AcDbArc
50
269.999525421
51
64.2329219197
0
LINE
5
22A
100
AcDbEntity
8
engrave
6
ByLayer
62
256
370
-1
100
AcDbLine
10
1.62982196508
20
-21.2360333333
11
1.34239974286
21
-21.0973
0
ARC
5
22B
100
AcDbEntity
8
engrave
6
ByLayer
62
256
370
-1
100
AcDbCircle
10
1.40228488175
20
-20.9721091667
40
0.138776707737
100
AcDbArc
50
89.796607162
51
244.435840178
0
ARC
5
22C
100
AcDbEntity
8
engrave
6
ByLayer
62
256
370
-1
100
AcDbCircle
10
1.40127627255
20
-21.4303667275
40
0.597035281588
100
AcDbArc
50
65.086455246
51
89.8559293357
0
LINE
5
22D
100
AcDbEntity
8
engrave
6
ByLayer
62
256
370
-1
100
AcDbLine
10
2.04166692381
20
-21.5
11
2.04166692381
21
-20.8333333333
0
LINE
5
22E
100
AcDbEntity
8
engrave
6
ByLayer
62
256
370
-1
100
AcDbLine
10
2.04166692381
20
-20.5555555556
11
2.04166692381
21
-20.5
0
LINE
5
22F
100
AcDbEntity
8
engrave
6
ByLayer
62
256
370
-1
100
AcDbLine
10
2.81944470159
20
-20.5
11
2.81944470159
21
-21.5
0
LINE
5
230
100
AcDbEntity
8
engrave
6
ByLayer
62
256
370
-1
100
AcDbLine
10
2.81944470159
20
-21.5
11
2.54166692381
21
-21.5
0
ARC
5
231
100
AcDbEntity
8
engrave
6
ByLayer
62
256
370
-1
100
AcDbCircle
10
2.5416667993
20
-21.3333334578
40
0.166666542154
100
AcDbArc
50
179.999957196
51
270.000042804
0
LINE
5
232
100
AcDbEntity
8
engrave
6
ByLayer
62
256
370
-1
100
AcDbLine
10
2.37500025714
20
-21.3333333333
11
2.37500025714
21
-21
0
ARC
5
233
100
AcDbEntity
8
engrave
6
ByLayer
62
256
370
-1
100
AcDbCircle
10
2.5416667993
20
-20.9999998755
40
0.166666542154
100
AcDbArc
50
89.9999571957
51
180.000042804
0
LINE
5
234
100
AcDbEntity
8
engrave
6
ByLayer
62
256
370
-1
100
AcDbLine
10
2.54166692381
20
-20.8333333333
11
2.81944470159
21
-20.8333333333
0
LINE
5
235
100
AcDbEntity
8
engrave
6
ByLayer
62
256
370
-1
100
AcDbLine
10
3.59722247937
20
-21.5
11
3.31944470159
21
-21.5
0
ARC
5
236
100
AcDbEntity
8
engrave
6
ByLayer
62
256
370
-1
100
AcDbCircle
10
3.31944457708
20
-21.3333334578
40
0.166666542154
100
AcDbArc
50
179.999957196
51
270.000042804
0
LINE
5
237
100
AcDbEntity
8
engrave
6
ByLayer
62
256
370
-1
100
AcDbLine
10
3.15277803492
20
-21.3333333333
11
3.15277803492
21
-21.0555555556
0
ARC
5
238
100
AcDbEntity
8
engrave
6
ByLayer
62
256
370
-1
100
AcDbCircle
10
3.37500025714
20
-21.0555555556
40
0.222222222222
100
AcDbArc
50
0
51
180
0
LINE
5
239
100
AcDbEntity
8
engrave
6
ByLayer
62
256
370
-1
100
AcDbLine
10
3.59722247937
20
-21.0555555556
11
3.59722247937
21
-21.1666666667
0
LINE
5
23A
100
AcDbEntity
8
engrave
6
ByLayer
62
256
370
-1
100
AcDbLine
10
3.59722247937
20
-21.1666666667
11
3.15277803492
21
-21.1666666667
0
LINE
5
23B
100
AcDbEntity
8
cut
6
ByLayer
62
256
370
-1
100
AcDbLine
10
-25
20
15
11
-3
21
15
0
LINE
5
23C
100
AcDbEntity
8
cut
6
ByLayer
62
256
370
-1
100
AcDbLine
10
-3
20
13
11
-25
21
13
0
LINE
5
23D
100
AcDbEntity
8
cut
6
ByLayer
62
256
370
-1
100
AcDbLine
10
3
20
15
11
25
21
15
0
LINE
5
23E
100
AcDbEntity
8
cut
6
ByLayer
62
256
370
-1
100
AcDbLine
10
25
20
13
11
3
21
13
0
LINE
5
23F
100
AcDbEntity
8
cut
6
ByLayer
62
256
370
-1
100
AcDbLine
10
-25
20
-13
11
-3
21
-13
0
LINE
5
240
100
AcDbEntity
8
cut
6
ByLayer
62
256
370
-1
100
AcDbLine
10
-3
20
-15
11
-25
21
-15
0
LINE
5
241
100
AcDbEntity
8
cut
6
ByLayer
62
256
370
-1
100
AcDbLine
10
3
20
-13
11
25
21
-13
0
LINE
5
242
100
AcDbEntity
8
cut
6
ByLayer
62
256
370
-1
100
AcDbLine
10
25
20
-15
11
3
21
-15
0
ENDSEC
0
SECTION
2
OBJECTS
0
DICTIONARY
5
C
330
0
100
AcDbDictionary
281
1
3
ACAD_GROUP
350
D
0
DICTIONARY
5
D
330
C
100
AcDbDictionary
281
1
0
ENDSEC
0
EOF
