999
dxfrw 0.5.11
0
SECTION
2
HEADER
9
$ACADVER
1
AC1021
9
$HANDSEED
5
20000
9
$DWGCODEPAGE
3
ANSI_1252
9
$INSBASE
10
0
20
0
30
0
9
$EXTMIN
10
10000000000
20
10000000000
30
0
9
$EXTMAX
10
-10000000000
20
-10000000000
30
0
9
$LIMMIN
10
0
20
0
9
$LIMMAX
10
420
20
297
9
$ORTHOMODE
70
0
9
$LTSCALE
40
1
9
$TEXTSTYLE
7
STANDARD
9
$CLAYER
8
holder_mask
9
$DIMASZ
40
2.5
9
$DIMLFAC
40
1
9
$DIMSCALE
40
1
9
$DIMEXO
40
0.625
9
$DIMEXE
40
1.25
9
$DIMTXT
40
2.5
9
$DIMTSZ
40
0
9
$DIMAUNIT
70
0
9
$DIMADEC
70
0
9
$DIMLUNIT
70
2
9
$DIMSTYLE
2
ISO-25
9
$DIMGAP
40
0.625
9
$DIMTIH
70
0
9
$LUNITS
70
2
9
$LUPREC
70
3
9
$AUNITS
70
0
9
$AUPREC
70
0
9
$SPLINESEGS
70
8
9
$GRIDMODE
70
1
9
$SNAPSTYLE
70
0
9
$PINSBASE
10
164.715945771
20
148.5
30
0
9
$PLIMMIN
10
0
20
0
9
$PLIMMAX
10
210
20
297
9
$INSUNITS
70
0
9
$PSVPSCALE
40
1.19432
0
ENDSEC
0
SECTION
2
CLASSES
0
ENDSEC
0
SECTION
2
TABLES
0
TABLE
2
VPORT
5
8
330
0
100
AcDbSymbolTable
70
1
0
VPORT
5
31
330
2
100
AcDbSymbolTableRecord
100
AcDbViewportTableRecord
2
*ACTIVE
70
0
10
0
20
0
11
1
21
1
12
-79.4582038674
22
-13.730294098
13
0
23
0
14
10
24
10
15
10
25
10
16
0
26
0
36
1
17
0
27
0
37
0
40
6.47359873821
41
1.79032258065
42
50
43
0
44
0
50
0
51
0
71
0
72
100
73
1
74
3
75
0
76
1
77
0
78
0
281
0
65
1
110
0
120
0
130
0
111
1
121
0
131
0
112
0
122
1
132
0
79
0
146
0
348
10020
60
7
61
5
292
1
282
1
141
0
142
0
63
250
421
3358443
0
ENDTAB
0
TABLE
2
LTYPE
5
5
330
0
100
AcDbSymbolTable
70
4
0
LTYPE
5
14
330
5
100
AcDbSymbolTableRecord
100
AcDbLinetypeTableRecord
2
ByBlock
70
0
3

72
65
73
0
40
0
0
LTYPE
5
15
330
5
100
AcDbSymbolTableRecord
100
AcDbLinetypeTableRecord
2
ByLayer
70
0
3

72
65
73
0
40
0
0
LTYPE
5
16
330
5
100
AcDbSymbolTableRecord
100
AcDbLinetypeTableRecord
2
Continuous
70
0
3
Solid line
72
65
73
0
40
0
0
LTYPE
5
32
330
5
100
AcDbSymbolTableRecord
100
AcDbLinetypeTableRecord
2
DOT
70
0
3
Dot . . . . . . . . . . . . . . . . . . . . . .
72
65
73
2
40
6.35
49
0
74
0
49
-6.35
74
0
0
LTYPE
5
33
330
5
100
AcDbSymbolTableRecord
100
AcDbLinetypeTableRecord
2
DOT2
70
0
3
Dot (.5x) .....................................
72
65
73
2
40
3.175
49
0
74
0
49
-3.175
74
0
0
LTYPE
5
34
330
5
100
AcDbSymbolTableRecord
100
AcDbLinetypeTableRecord
2
DOTX2
70
0
3
Dot (2x) .  .  .  .  .  .  .  .  .  .  .  .  .
72
65
73
2
40
12.7
49
0
74
0
49
-12.7
74
0
0
LTYPE
5
35
330
5
100
AcDbSymbolTableRecord
100
AcDbLinetypeTableRecord
2
DASHED
70
0
3
Dot . . . . . . . . . . . . . . . . . . . . . .
72
65
73
2
40
19.05
49
12.7
74
0
49
-6.35
74
0
0
LTYPE
5
36
330
5
100
AcDbSymbolTableRecord
100
AcDbLinetypeTableRecord
2
DASHED2
70
0
3
Dashed (.5x) _ _ _ _ _ _ _ _ _ _ _ _ _ _ _ _ _
72
65
73
2
40
9.525
49
6.35
74
0
49
-3.175
74
0
0
LTYPE
5
37
330
5
100
AcDbSymbolTableRecord
100
AcDbLinetypeTableRecord
2
DASHEDX2
70
0
3
Dashed (2x) ____  ____  ____  ____  ____  ___
72
65
73
2
40
38.1
49
25.4
74
0
49
-12.7
74
0
0
LTYPE
5
38
330
5
100
AcDbSymbolTableRecord
100
AcDbLinetypeTableRecord
2
DASHDOT
70
0
3
Dash dot __ . __ . __ . __ . __ . __ . __ . __
72
65
73
4
40
25.4
49
12.7
74
0
49
-6.35
74
0
49
0
74
0
49
-6.35
74
0
0
LTYPE
5
39
330
5
100
AcDbSymbolTableRecord
100
AcDbLinetypeTableRecord
2
DASHDOT2
70
0
3
Dash dot (.5x) _._._._._._._._._._._._._._._.
72
65
73
4
40
12.7
49
6.35
74
0
49
-3.175
74
0
49
0
74
0
49
-3.175
74
0
0
LTYPE
5
3A
330
5
100
AcDbSymbolTableRecord
100
AcDbLinetypeTableRecord
2
DASHDOTX2
70
0
3
Dash dot (2x) ____  .  ____  .  ____  .  ___
72
65
73
4
40
50.8
49
25.4
74
0
49
-12.7
74
0
49
0
74
0
49
-12.7
74
0
0
LTYPE
5
3B
330
5
100
AcDbSymbolTableRecord
100
AcDbLinetypeTableRecord
2
DIVIDE
70
0
3
Divide ____ . . ____ . . ____ . . ____ . . ____
72
65
73
6
40
31.75
49
12.7
74
0
49
-6.35
74
0
49
0
74
0
49
-6.35
74
0
49
0
74
0
49
-6.35
74
0
0
LTYPE
5
3C
330
5
100
AcDbSymbolTableRecord
100
AcDbLinetypeTableRecord
2
DIVIDE2
70
0
3
Divide (.5x) __..__..__..__..__..__..__..__.._
72
65
73
6
40
15.875
49
6.35
74
0
49
-3.175
74
0
49
0
74
0
49
-3.175
74
0
49
0
74
0
49
-3.175
74
0
0
LTYPE
5
3D
330
5
100
AcDbSymbolTableRecord
100
AcDbLinetypeTableRecord
2
DIVIDEX2
70
0
3
Divide (2x) ________  .  .  ________  .  .  _
72
65
73
6
40
63.5
49
25.4
74
0
49
-12.7
74
0
49
0
74
0
49
-12.7
74
0
49
0
74
0
49
-12.7
74
0
0
LTYPE
5
3E
330
5
100
AcDbSymbolTableRecord
100
AcDbLinetypeTableRecord
2
BORDER
70
0
3
Border __ __ . __ __ . __ __ . __ __ . __ __ .
72
65
73
6
40
44.45
49
12.7
74
0
49
-6.35
74
0
49
12.7
74
0
49
-6.35
74
0
49
0
74
0
49
-6.35
74
0
0
LTYPE
5
3F
330
5
100
AcDbSymbolTableRecord
100
AcDbLinetypeTableRecord
2
BORDER2
70
0
3
Border (.5x) __.__.__.__.__.__.__.__.__.__.__.
72
65
73
6
40
22.225
49
6.35
74
0
49
-3.175
74
0
49
6.35
74
0
49
-3.175
74
0
49
0
74
0
49
-3.175
74
0
0
LTYPE
5
40
330
5
100
AcDbSymbolTableRecord
100
AcDbLinetypeTableRecord
2
BORDERX2
70
0
3
Border (2x) ____  ____  .  ____  ____  .  ___
72
65
73
6
40
88.9
49
25.4
74
0
49
-12.7
74
0
49
25.4
74
0
49
-12.7
74
0
49
0
74
0
49
-12.7
74
0
0
LTYPE
5
41
330
5
100
AcDbSymbolTableRecord
100
AcDbLinetypeTableRecord
2
CENTER
70
0
3
Center ____ _ ____ _ ____ _ ____ _ ____ _ ____
72
65
73
4
40
50.8
49
31.75
74
0
49
-6.35
74
0
49
6.35
74
0
49
-6.35
74
0
0
LTYPE
5
42
330
5
100
AcDbSymbolTableRecord
100
AcDbLinetypeTableRecord
2
CENTER2
70
0
3
Center (.5x) ___ _ ___ _ ___ _ ___ _ ___ _ ___
72
65
73
4
40
28.575
49
19.05
74
0
49
-3.175
74
0
49
3.175
74
0
49
-3.175
74
0
0
LTYPE
5
43
330
5
100
AcDbSymbolTableRecord
100
AcDbLinetypeTableRecord
2
CENTERX2
70
0
3
Center (2x) ________  __  ________  __  _____
72
65
73
4
40
101.6
49
63.5
74
0
49
-12.7
74
0
49
12.7
74
0
49
-12.7
74
0
0
ENDTAB
0
TABLE
2
LAYER
5
2
330
0
100
AcDbSymbolTable
70
1
0
LAYER
5
10
330
2
100
AcDbSymbolTableRecord
100
AcDbLayerTableRecord
2
0
70
0
62
256
6
CONTINUOUS
370
-3
390
F
0
LAYER
5
44
330
2
100
AcDbSymbolTableRecord
100
AcDbLayerTableRecord
2
TCO
70
0
62
1
6
CONTINUOUS
370
-3
390
F
0
LAYER
5
45
330
2
100
AcDbSymbolTableRecord
100
AcDbLayerTableRecord
2
active_layer_evap_std
70
0
62
5
6
CONTINUOUS
370
0
390
F
0
LAYER
5
46
330
2
100
AcDbSymbolTableRecord
100
AcDbLayerTableRecord
2
active_layer_evap_std_mask
70
1
62
7
6
CONTINUOUS
370
0
390
F
0
LAYER
5
47
330
2
100
AcDbSymbolTableRecord
100
AcDbLayerTableRecord
2
alternative1_TCO
70
1
62
1
6
CONTINUOUS
370
0
390
F
0
LAYER
5
48
330
2
100
AcDbSymbolTableRecord
100
AcDbLayerTableRecord
2
alternative1_active_layer_evap
70
1
62
5
6
CONTINUOUS
370
0
390
F
0
LAYER
5
49
330
2
100
AcDbSymbolTableRecord
100
AcDbLayerTableRecord
2
alternative1_active_layer_evap_mask
70
1
62
7
6
CONTINUOUS
370
0
390
F
0
LAYER
5
4A
330
2
100
AcDbSymbolTableRecord
100
AcDbLayerTableRecord
2
encapsulation
70
1
62
3
6
CONTINUOUS
370
0
390
F
0
LAYER
5
4B
330
2
100
AcDbSymbolTableRecord
100
AcDbLayerTableRecord
2
holder
70
1
62
7
6
CONTINUOUS
370
0
390
F
0
LAYER
5
4C
330
2
100
AcDbSymbolTableRecord
100
AcDbLayerTableRecord
2
holder_mask
70
1
62
7
6
CONTINUOUS
370
0
390
F
0
LAYER
5
4D
330
2
100
AcDbSymbolTableRecord
100
AcDbLayerTableRecord
2
measurement-mask
70
1
62
7
6
CONTINUOUS
370
-3
390
F
0
LAYER
5
4E
330
2
100
AcDbSymbolTableRecord
100
AcDbLayerTableRecord
2
metal_layer_evap_OTRACE
70
1
62
7
6
CONTINUOUS
370
-3
390
F
0
LAYER
5
4F
330
2
100
AcDbSymbolTableRecord
100
AcDbLayerTableRecord
2
metal_layer_evap_OTRACE_mask
70
1
62
7
6
CONTINUOUS
370
0
390
F
0
LAYER
5
50
330
2
100
AcDbSymbolTableRecord
100
AcDbLayerTableRecord
2
metal_layer_evap_std
70
0
62
7
6
CONTINUOUS
370
0
390
F
0
LAYER
5
51
330
2
100
AcDbSymbolTableRecord
100
AcDbLayerTableRecord
2
metal_layer_evap_std_mask
70
1
62
7
6
CONTINUOUS
370
0
390
F
0
LAYER
5
52
330
2
100
AcDbSymbolTableRecord
100
AcDbLayerTableRecord
2
metal_layer_evap_std_mask1
70
1
62
7
6
CONTINUOUS
370
0
390
F
0
LAYER
5
53
330
2
100
AcDbSymbolTableRecord
100
AcDbLayerTableRecord
2
metal_layer_evap_std_mask2
70
1
62
7
6
CONTINUOUS
370
0
390
F
0
LAYER
5
54
330
2
100
AcDbSymbolTableRecord
100
AcDbLayerTableRecord
2
pin_contacts
70
1
62
6
6
CONTINUOUS
370
-3
390
F
0
LAYER
5
55
330
2
100
AcDbSymbolTableRecord
100
AcDbLayerTableRecord
2
safety_border
70
1
62
3
6
CONTINUOUS
370
-3
390
F
0
ENDTAB
0
TABLE
2
STYLE
5
3
330
0
100
AcDbSymbolTable
70
3
0
STYLE
5
56
330
2
100
AcDbSymbolTableRecord
100
AcDbTextStyleTableRecord
2
Standard
70
0
40
0
41
1
50
0
71
0
42
1
3
txt
4

0
ENDTAB
0
TABLE
2
VIEW
5
6
330
0
100
AcDbSymbolTable
70
0
0
ENDTAB
0
TABLE
2
UCS
5
7
330
0
100
AcDbSymbolTable
70
0
0
ENDTAB
0
TABLE
2
APPID
5
9
330
0
100
AcDbSymbolTable
70
1
0
APPID
5
12
330
9
100
AcDbSymbolTableRecord
100
AcDbRegAppTableRecord
2
ACAD
70
0
0
ENDTAB
0
TABLE
2
DIMSTYLE
5
A
330
0
100
AcDbSymbolTable
70
1
100
AcDbDimStyleTable
71
1
0
DIMSTYLE
105
57
330
A
100
AcDbSymbolTableRecord
100
AcDbDimStyleTableRecord
2
Standard
70
0
40
1
41
2.5
42
0.625
43
0.38
44
1.25
45
0
46
0
47
0
48
0
140
2.5
141
0.09
142
0
143
25.4
144
1
145
0
146
1
147
0.625
148
0
71
0
72
0
73
0
74
1
75
0
76
0
77
0
78
0
79
0
170
0
171
2
172
0
173
0
174
0
175
0
176
0
177
0
178
0
179
0
271
4
272
4
273
2
274
2
275
0
276
0
277
2
278
46
279
0
280
0
281
0
282
0
283
1
284
0
285
0
286
0
288
0
289
3
340
Standard
341

371
-2
372
-2
0
ENDTAB
0
TABLE
2
BLOCK_RECORD
5
1
330
0
100
AcDbSymbolTable
70
2
0
BLOCK_RECORD
5
1F
330
1
100
AcDbSymbolTableRecord
100
AcDbBlockTableRecord
2
*Model_Space
70
0
280
1
281
0
0
BLOCK_RECORD
5
1E
330
1
100
AcDbSymbolTableRecord
100
AcDbBlockTableRecord
2
*Paper_Space
70
0
280
1
281
0
0
ENDTAB
0
ENDSEC
0
SECTION
2
BLOCKS
0
BLOCK
5
20
330
1F
100
AcDbEntity
8
0
100
AcDbBlockBegin
2
*Model_Space
70
0
10
0
20
0
30
0
3
*Model_Space
1

0
ENDBLK
5
21
330
1F
100
AcDbEntity
8
0
100
AcDbBlockEnd
0
BLOCK
5
1C
330
1B
100
AcDbEntity
8
0
100
AcDbBlockBegin
2
*Paper_Space
70
0
10
0
20
0
30
0
3
*Paper_Space
1

0
ENDBLK
5
1D
330
1F
100
AcDbEntity
8
0
100
AcDbBlockEnd
0
ENDSEC
0
SECTION
2
ENTITIES
0
HATCH
5
58
100
AcDbEntity
8
holder_mask
6
ByLayer
62
256
370
-1
100
AcDbHatch
10
0
20
0
30
0
210
0
220
0
230
1
2
SOLID
70
1
71
0
91
1
92
0
93
8
72
2
10
-22.45
20
22.45
40
5
50
90
51
180
73
1
72
1
10
-27.45
20
22.45
11
-27.45
21
-22.45
72
2
10
-22.45
20
-22.45
40
5
50
180
51
270
73
1
72
1
10
-22.45
20
-27.45
11
22.45
21
-27.45
72
2
10
22.45
20
-22.45
40
5
50
270
51
0
73
1
72
1
10
27.45
20
-22.45
11
27.45
21
22.45
72
2
10
22.45
20
22.45
40
5
50
0
51
90
73
1
72
1
10
22.45
20
27.45
11
-22.45
21
27.45
97
0
75
0
76
1
98
0
0
HATCH
5
59
100
AcDbEntity
8
holder_mask
6
ByLayer
62
256
370
-1
100
AcDbHatch
10
0
20
0
30
0
210
0
220
0
230
1
2
SOLID
70
1
71
0
91
1
92
0
93
8
72
2
10
-122.45
20
22.45
40
5
50
90
51
180
73
1
72
1
10
-127.45
20
22.45
11
-127.45
21
-22.45
72
2
10
-122.45
20
-22.45
40
5
50
180
51
270
73
1
72
1
10
-122.45
20
-27.45
11
-77.55
21
-27.45
72
2
10
-77.55
20
-22.45
40
5
50
270
51
0
73
1
72
1
10
-72.55
20
-22.45
11
-72.55
21
22.45
72
2
10
-77.55
20
22.45
40
5
50
0
51
90
73
1
72
1
10
-77.55
20
27.45
11
-122.45
21
27.45
97
0
75
0
76
1
98
0
0
HATCH
5
5A
100
AcDbEntity
8
metal_layer_evap_std_mask2
6
ByLayer
62
256
370
-1
100
AcDbHatch
10
0
20
0
30
0
210
0
220
0
230
1
2
SOLID
70
1
71
0
91
1
92
0
93
85
72
2
10
-111.6
20
3.65
40
0.55
50
0
51
360
73
1
72
2
10
-111.6
20
-24.35
40
0.55
50
0
51
360
73
1
72
2
10
-122.45
20
22.45
40
5
50
90
51
180
73
1
72
1
10
-127.45
20
22.45
11
-127.45
21
-22.45
72
2
10
-122.45
20
-22.45
40
5
50
180
51
270
73
1
72
1
10
-122.45
20
-27.45
11
-77.55
21
-27.45
72
2
10
-77.55
20
-22.45
40
5
50
270
51
0
73
1
72
1
10
-72.55
20
-22.45
11
-72.55
21
22.45
72
2
10
-77.55
20
22.45
40
5
50
0
51
90
73
1
72
1
10
-77.55
20
27.45
11
-122.45
21
27.45
72
1
10
-88.95
20
24.45
11
-88.6
21
24.45
72
1
10
-88.6
20
24.45
11
-88.6
21
24.8
72
1
10
-88.6
20
24.8
11
-88.3
21
24.8
72
1
10
-88.3
20
24.8
11
-88.3
21
24.45
72
1
10
-88.3
20
24.45
11
-87.95
21
24.45
72
1
10
-87.95
20
24.45
11
-87.95
21
24.15
72
1
10
-87.95
20
24.15
11
-88.3
21
24.15
72
1
10
-88.3
20
24.15
11
-88.3
21
23.8
72
1
10
-88.3
20
23.8
11
-88.6
21
23.8
72
1
10
-88.6
20
23.8
11
-88.6
21
24.15
72
1
10
-88.6
20
24.15
11
-88.95
21
24.15
72
1
10
-88.95
20
24.15
11
-88.95
21
24.45
72
1
10
-88.95
20
-3.55
11
-88.6
21
-3.55
72
1
10
-88.6
20
-3.55
11
-88.6
21
-3.2
72
1
10
-88.6
20
-3.2
11
-88.3
21
-3.2
72
1
10
-88.3
20
-3.2
11
-88.3
21
-3.55
72
1
10
-88.3
20
-3.55
11
-87.95
21
-3.55
72
1
10
-87.95
20
-3.55
11
-87.95
21
-3.85
72
1
10
-87.95
20
-3.85
11
-88.3
21
-3.85
72
1
10
-88.3
20
-3.85
11
-88.3
21
-4.2
72
1
10
-88.3
20
-4.2
11
-88.6
21
-4.2
72
1
10
-88.6
20
-4.2
11
-88.6
21
-3.85
72
1
10
-88.6
20
-3.85
11
-88.95
21
-3.85
72
1
10
-88.95
20
-3.85
11
-88.95
21
-3.55
72
1
10
-114
20
8
11
-114
21
20
72
1
10
-114
20
20
11
-112
21
20
72
1
10
-112
20
20
11
-112
21
16
72
1
10
-112
20
16
11
-111.001108935
21
16.0000045
72
1
10
-111.001108935
20
16.0000045
11
-111.001108935
21
15.0002389035
72
1
10
-111.001108935
20
15.0002389035
11
-89.0000527688
21
15.0002389035
72
1
10
-89.0000527688
20
15.0002389035
11
-89.0000527688
21
16.0000043533
72
1
10
-89.0000527688
20
16.0000043533
11
-88
21
16
72
1
10
-88
20
16
11
-88
21
20
72
1
10
-88
20
20
11
-86
21
20
72
1
10
-86
20
20
11
-86
21
8
72
1
10
-86
20
8
11
-88
21
8
72
1
10
-88
20
8
11
-88
21
12
72
1
10
-88
20
12
11
-89.0000527688
21
12.0000049681
72
1
10
-89.0000527688
20
12.0000049681
11
-89.0000527688
21
13.0000045
72
1
10
-89.0000527688
20
13.0000045
11
-111.001108935
21
13.0000045
72
1
10
-111.001108935
20
13.0000045
11
-111.001108935
21
12.0000051149
72
1
10
-111.001108935
20
12.0000051149
11
-112
21
12
72
1
10
-112
20
12
11
-112
21
8
72
1
10
-112
20
8
11
-114
21
8
72
1
10
-114
20
-20
11
-114
21
-8
72
1
10
-114
20
-8
11
-112
21
-8
72
1
10
-112
20
-8
11
-112
21
-11.9999955
72
1
10
-112
20
-11.9999955
11
-111.001108935
21
-11.9999955
72
1
10
-111.001108935
20
-11.9999955
11
-111.001108935
21
-12.9997610965
72
1
10
-111.001108935
20
-12.9997610965
11
-89.0000527688
21
-12.9997610965
72
1
10
-89.0000527688
20
-12.9997610965
11
-89.0000527688
21
-11.9999956467
72
1
10
-89.0000527688
20
-11.9999956467
11
-88
21
-12
72
1
10
-88
20
-12
11
-88
21
-8
72
1
10
-88
20
-8
11
-86
21
-8
72
1
10
-86
20
-8
11
-86
21
-20
72
1
10
-86
20
-20
11
-88
21
-20
72
1
10
-88
20
-20
11
-88
21
-16
72
1
10
-88
20
-16
11
-89.0000527688
21
-15.9999950319
72
1
10
-89.0000527688
20
-15.9999950319
11
-89.0000527688
21
-14.9999955
72
1
10
-89.0000527688
20
-14.9999955
11
-111.001108935
21
-14.9999955
72
1
10
-111.001108935
20
-14.9999955
11
-111.001108935
21
-15.9999948851
72
1
10
-111.001108935
20
-15.9999948851
11
-112
21
-16
72
1
10
-112
20
-16
11
-112
21
-20
72
1
10
-112
20
-20
11
-114
21
-20
72
1
10
-113.477485177
20
21.5
11
-112.6
21
24.132455532
72
1
10
-112.6
20
24.132455532
11
-111.722514823
21
21.5
72
1
10
-111.722514823
20
21.5
11
-112.144151844
21
21.5
72
1
10
-112.144151844
20
21.5
11
-112.6
21
22.867544468
72
1
10
-112.6
20
22.867544468
11
-113.055848156
21
21.5
72
1
10
-113.055848156
20
21.5
11
-113.477485177
21
21.5
72
2
10
-112.55
20
-4.4
40
0.6
50
90
51
270
73
1
72
2
10
-112.55
20
-5.75
40
0.75
50
90
51
270
73
1
72
1
10
-112.55
20
-6.5
11
-111.8
21
-6.5
72
1
10
-111.8
20
-6.5
11
-111.8
21
-3.8
72
1
10
-111.8
20
-3.8
11
-112.55
21
-3.8
97
0
75
0
76
1
98
0
0
HATCH
5
5B
100
AcDbEntity
8
metal_layer_evap_std_mask2
6
ByLayer
62
256
370
-1
100
AcDbHatch
10
0
20
0
30
0
210
0
220
0
230
1
2
SOLID
70
1
71
0
91
1
92
0
93
45
72
2
10
-11.6
20
-10.35
40
0.55
50
0
51
360
73
1
72
2
10
-22.45
20
22.45
40
5
50
90
51
180
73
1
72
1
10
-27.45
20
22.45
11
-27.45
21
-22.45
72
2
10
-22.45
20
-22.45
40
5
50
180
51
270
73
1
72
1
10
-22.45
20
-27.45
11
22.45
21
-27.45
72
2
10
22.45
20
-22.45
40
5
50
270
51
0
73
1
72
1
10
27.45
20
-22.45
11
27.45
21
22.45
72
2
10
22.45
20
22.45
40
5
50
0
51
90
73
1
72
1
10
22.45
20
27.45
11
-22.45
21
27.45
72
1
10
-11.0011089353
20
2
11
-11.0011089353
21
1.0002344035
72
1
10
-11.0011089353
20
1.0002344035
11
10.9999472312
21
1.0002344035
72
1
10
10.9999472312
20
1.0002344035
11
10.9999472312
21
1.9999998533
72
1
10
10.9999472312
20
1.9999998533
11
12
21
2
72
1
10
12
20
2
11
12
21
6
72
1
10
12
20
6
11
14
21
6
72
1
10
14
20
6
11
14
21
-6
72
1
10
14
20
-6
11
12
21
-6
72
1
10
12
20
-6
11
12
21
-2
72
1
10
12
20
-2
11
10.9999472312
21
-1.9999995319
72
1
10
10.9999472312
20
-1.9999995319
11
10.9999472312
21
-1
72
1
10
10.9999472312
20
-1
11
-11.0011089353
21
-1
72
1
10
-11.0011089353
20
-1
11
-11.0011089353
21
-1.9999993851
72
1
10
-11.0011089353
20
-1.9999993851
11
-12
21
-2
72
1
10
-12
20
-2
11
-12
21
-6
72
1
10
-12
20
-6
11
-14
21
-6
72
1
10
-14
20
-6
11
-14
21
6
72
1
10
-14
20
6
11
-12
21
6
72
1
10
-12
20
6
11
-12
21
2
72
1
10
-12
20
2
11
-11.0011089353
21
2
72
1
10
11.05
20
10.45
11
11.4
21
10.45
72
1
10
11.4
20
10.45
11
11.4
21
10.8
72
1
10
11.4
20
10.8
11
11.7
21
10.8
72
1
10
11.7
20
10.8
11
11.7
21
10.45
72
1
10
11.7
20
10.45
11
12.05
21
10.45
72
1
10
12.05
20
10.45
11
12.05
21
10.15
72
1
10
12.05
20
10.15
11
11.7
21
10.15
72
1
10
11.7
20
10.15
11
11.7
21
9.8
72
1
10
11.7
20
9.8
11
11.4
21
9.8
72
1
10
11.4
20
9.8
11
11.4
21
10.15
72
1
10
11.4
20
10.15
11
11.05
21
10.15
72
1
10
11.05
20
10.15
11
11.05
21
10.45
72
2
10
-12.5
20
9
40
0.5
50
1.366037834e-05
51
179.99998634
73
1
72
1
10
-13
20
9.00000011921
11
-13
21
7.99999983141
72
2
10
-12.5
20
8
40
0.5
50
180.000019319
51
0
73
1
72
1
10
-12
20
8
11
-12
21
9.00000011921
97
0
75
0
76
1
98
0
0
HATCH
5
5C
100
AcDbEntity
8
metal_layer_evap_std_mask
6
ByLayer
62
256
370
-1
100
AcDbHatch
10
0
20
0
30
0
210
0
220
0
230
1
2
SOLID
70
1
71
0
91
1
92
0
93
105
72
2
10
-11.6
20
-10.35
40
0.55
50
0
51
360
73
1
72
2
10
-22.45
20
22.45
40
5
50
90
51
180
73
1
72
1
10
-27.45
20
22.45
11
-27.45
21
-22.45
72
2
10
-22.45
20
-22.45
40
5
50
180
51
270
73
1
72
1
10
-22.45
20
-27.45
11
22.45
21
-27.45
72
2
10
22.45
20
-22.45
40
5
50
270
51
0
73
1
72
1
10
27.45
20
-22.45
11
27.45
21
22.45
72
2
10
22.45
20
22.45
40
5
50
0
51
90
73
1
72
1
10
22.45
20
27.45
11
-22.45
21
27.45
72
1
10
2.128381308
20
6.9164507105
11
2.7548547456
21
11.2
72
1
10
2.7548547456
20
11.2
11
1
21
11.2
72
1
10
1
20
11.2
11
1
21
14
72
1
10
1
20
14
11
6
21
14
72
1
10
6
20
14
11
6
21
11.2
72
1
10
6
20
11.2
11
3.765492841
21
11.2
72
1
10
3.765492841
20
11.2
11
3.1177969589
21
6.7713409877
72
2
10
2.3465837324
20
4.958572343
40
1.97
50
293.046545697
51
263.640719031
73
0
72
2
10
-2.349154095
20
6.5224485402
40
1.97
50
116.397906298
51
87.0251978726
73
1
72
1
10
-2.2469174619
20
8.4897938761
11
-2.78443305743
21
11.2
72
1
10
-2.78443305743
20
11.2
11
-1
21
11.2
72
1
10
-1
20
11.2
11
-1
21
14
72
1
10
-1
20
14
11
-6
21
14
72
1
10
-6
20
14
11
-6
21
11.2
72
1
10
-6
20
11.2
11
-3.80399383803
21
11.2
72
1
10
-3.80399383803
20
11.2
11
-3.2250209172
21
8.287032715
72
1
10
-11.0011089353
20
2
11
-11.0011089353
21
1.0002344035
72
1
10
-11.0011089353
20
1.0002344035
11
10.9999472312
21
1.0002344035
72
1
10
10.9999472312
20
1.0002344035
11
10.9999472312
21
1.9999998533
72
1
10
10.9999472312
20
1.9999998533
11
12
21
2
72
1
10
12
20
2
11
12
21
6
72
1
10
12
20
6
11
14
21
6
72
1
10
14
20
6
11
14
21
-6
72
1
10
14
20
-6
11
12
21
-6
72
1
10
12
20
-6
11
12
21
-2
72
1
10
12
20
-2
11
10.9999472312
21
-1.9999995319
72
1
10
10.9999472312
20
-1.9999995319
11
10.9999472312
21
-1
72
1
10
10.9999472312
20
-1
11
-11.0011089353
21
-1
72
1
10
-11.0011089353
20
-1
11
-11.0011089353
21
-1.9999993851
72
1
10
-11.0011089353
20
-1.9999993851
11
-12
21
-2
72
1
10
-12
20
-2
11
-12
21
-6
72
1
10
-12
20
-6
11
-14
21
-6
72
1
10
-14
20
-6
11
-14
21
6
72
1
10
-14
20
6
11
-12
21
6
72
1
10
-12
20
6
11
-12
21
2
72
1
10
-12
20
2
11
-11.0011089353
21
2
72
1
10
-2.128381308
20
-6.9164507105
11
-2.7548547456
21
-11.2
72
1
10
-2.7548547456
20
-11.2
11
-1
21
-11.2
72
1
10
-1
20
-11.2
11
-1
21
-14
72
1
10
-1
20
-14
11
-6
21
-14
72
1
10
-6
20
-14
11
-6
21
-11.2
72
1
10
-6
20
-11.2
11
-3.765492841
21
-11.2
72
1
10
-3.765492841
20
-11.2
11
-3.1177969589
21
-6.7713409877
72
2
10
-2.3465837324
20
-4.958572343
40
1.97
50
113.046545697
51
83.640719031
73
0
72
2
10
2.349154095
20
-6.5224485402
40
1.97
50
296.397906298
51
267.025197873
73
1
72
1
10
2.2469174619
20
-8.4897938761
11
2.78443305743
21
-11.2
72
1
10
2.78443305743
20
-11.2
11
1
21
-11.2
72
1
10
1
20
-11.2
11
1
21
-14
72
1
10
1
20
-14
11
6
21
-14
72
1
10
6
20
-14
11
6
21
-11.2
72
1
10
6
20
-11.2
11
3.80399383803
21
-11.2
72
1
10
3.80399383803
20
-11.2
11
3.2250209172
21
-8.287032715
72
1
10
11.05
20
10.45
11
11.4
21
10.45
72
1
10
11.4
20
10.45
11
11.4
21
10.8
72
1
10
11.4
20
10.8
11
11.7
21
10.8
72
1
10
11.7
20
10.8
11
11.7
21
10.45
72
1
10
11.7
20
10.45
11
12.05
21
10.45
72
1
10
12.05
20
10.45
11
12.05
21
10.15
72
1
10
12.05
20
10.15
11
11.7
21
10.15
72
1
10
11.7
20
10.15
11
11.7
21
9.8
72
1
10
11.7
20
9.8
11
11.4
21
9.8
72
1
10
11.4
20
9.8
11
11.4
21
10.15
72
1
10
11.4
20
10.15
11
11.05
21
10.15
72
1
10
11.05
20
10.15
11
11.05
21
10.45
72
1
10
13
20
-14
11
13
21
-11.2
72
1
10
13
20
-11.2
11
9.0280907528
21
-11.2
72
1
10
9.0280907528
20
-11.2
11
7.95598239228
21
-6.7082735306
72
2
10
7.02725831144
20
-4.9709273988
40
1.97
50
298.127391251
51
268.721567021
73
1
72
1
10
6.98330561517
20
-6.94043702317
11
8
21
-11.2
72
1
10
8
20
-11.2
11
8
21
-14
72
1
10
8
20
-14
11
13
21
-14
72
1
10
-13
20
-14
11
-13
21
-11.2
72
1
10
-13
20
-11.2
11
-9.05068245073
21
-11.1999998626
72
1
10
-9.05068245073
20
-11.1999998626
11
-8.08236586079
21
-8.19642011546
72
2
10
-7.0218106094
20
-6.5362627257
40
1.97
50
122.571585177
51
93.165760948
73
0
72
1
10
-7.1306035494
20
-8.50325639529
11
-8
21
-11.2
72
1
10
-8
20
-11.2
11
-8
21
-14
72
1
10
-8
20
-14
11
-13
21
-14
72
1
10
13
20
14
11
13
21
11.2
72
1
10
13
20
11.2
11
9.05068245073
21
11.1999998626
72
1
10
9.05068245073
20
11.1999998626
11
8.08236586079
21
8.19642011546
72
2
10
7.0218106094
20
6.5362627257
40
1.97
50
302.571585177
51
273.165760948
73
0
72
1
10
7.1306035494
20
8.50325639529
11
8
21
11.2
72
1
10
8
20
11.2
11
8
21
14
72
1
10
8
20
14
11
13
21
14
72
1
10
-8
20
14
11
-13
21
14
72
1
10
-13
20
14
11
-13
21
11.2
72
1
10
-13
20
11.2
11
-9.0280907528
21
11.2
72
1
10
-9.0280907528
20
11.2
11
-7.95598239228
21
6.7082735306
72
2
10
-7.02725831144
20
4.9709273988
40
1.97
50
118.127391251
51
88.721567021
73
1
72
1
10
-6.98330561517
20
6.94043702317
11
-8
21
11.2
72
1
10
-8
20
11.2
11
-8
21
14
72
2
10
-12.5
20
9
40
0.5
50
1.366037834e-05
51
179.99998634
73
1
72
1
10
-13
20
9.00000011921
11
-13
21
7.99999983141
72
2
10
-12.5
20
8
40
0.5
50
180.000019319
51
0
73
1
72
1
10
-12
20
8
11
-12
21
9.00000011921
97
0
75
0
76
1
98
0
0
HATCH
5
5D
100
AcDbEntity
8
metal_layer_evap_std_mask
6
ByLayer
62
256
370
-1
100
AcDbHatch
10
0
20
0
30
0
210
0
220
0
230
1
2
SOLID
70
1
71
0
91
1
92
0
93
189
72
2
10
-111.6
20
3.65
40
0.55
50
0
51
360
73
1
72
2
10
-111.6
20
-24.35
40
0.55
50
0
51
360
73
1
72
2
10
-122.45
20
22.45
40
5
50
90
51
180
73
1
72
1
10
-127.45
20
22.45
11
-127.45
21
-22.45
72
2
10
-122.45
20
-22.45
40
5
50
180
51
270
73
1
72
1
10
-122.45
20
-27.45
11
-77.55
21
-27.45
72
2
10
-77.55
20
-22.45
40
5
50
270
51
0
73
1
72
1
10
-72.55
20
-22.45
11
-72.55
21
22.45
72
2
10
-77.55
20
22.45
40
5
50
0
51
90
73
1
72
1
10
-77.55
20
27.45
11
-122.45
21
27.45
72
2
10
-102.349154095
20
20.5224530402
40
1.97
50
116.397906298
51
87.0251978726
73
1
72
1
10
-102.246917462
20
22.4897983761
11
-102.784432165
21
25.2
72
1
10
-102.784432165
20
25.2
11
-101
21
25.2
72
1
10
-101
20
25.2
11
-101
21
27.45
72
1
10
-101
20
27.45
11
-106
21
27.45
72
1
10
-106
20
27.45
11
-106
21
25.2
72
1
10
-106
20
25.2
11
-103.803992944
21
25.2
72
1
10
-103.803992944
20
25.2
11
-103.225020917
21
22.287037215
72
2
10
-97.6534162676
20
18.958576843
40
1.97
50
96.359280969
51
66.9534543035
73
1
72
1
10
-96.8822030411
20
20.7713454877
11
-96.2345078171
21
25.2
72
1
10
-96.2345078171
20
25.2
11
-94
21
25.2
72
1
10
-94
20
25.2
11
-94
21
27.45
72
1
10
-94
20
27.45
11
-99
21
27.45
72
1
10
-99
20
27.45
11
-99
21
25.2
72
1
10
-99
20
25.2
11
-97.2451459125
21
25.2
72
1
10
-97.2451459125
20
25.2
11
-97.871618692
21
20.9164552105
72
2
10
-97.650845905
20
7.4775559598
40
1.97
50
296.397906298
51
267.025197873
73
1
72
1
10
-97.7530825381
20
5.5102106239
11
-97.2155660501
21
2.8
72
1
10
-97.2155660501
20
2.8
11
-99
21
2.8
72
1
10
-99
20
2.8
11
-99
21
-2.8
72
1
10
-99
20
-2.8
11
-97.2451459125
21
-2.8
72
1
10
-97.2451459125
20
-2.8
11
-97.871618692
21
-7.0835447895
72
2
10
-97.6534162676
20
-9.041423157
40
1.97
50
96.359280969
51
66.9534543035
73
1
72
1
10
-96.8822030411
20
-7.2286545123
11
-96.2345078171
21
-2.8
72
1
10
-96.2345078171
20
-2.8
11
-94
21
-2.8
72
1
10
-94
20
-2.8
11
-94
21
2.8
72
1
10
-94
20
2.8
11
-96.1960052676
21
2.8
72
1
10
-96.1960052676
20
2.8
11
-96.7749790828
21
5.712971785
72
2
10
-102.346583732
20
9.041432157
40
1.97
50
276.359280969
51
246.953454303
73
1
72
1
10
-103.117796959
20
7.2286635123
11
-103.765493499
21
2.8
72
1
10
-103.765493499
20
2.8
11
-106
21
2.8
72
1
10
-106
20
2.8
11
-106
21
-2.8
72
1
10
-106
20
-2.8
11
-103.803992944
21
-2.8
72
1
10
-103.803992944
20
-2.8
11
-103.225020917
21
-5.712962785
72
2
10
-102.349154095
20
-7.4775469598
40
1.97
50
116.397906298
51
87.0251978726
73
1
72
1
10
-102.246917462
20
-5.5102016239
11
-102.784432165
21
-2.8
72
1
10
-102.784432165
20
-2.8
11
-101
21
-2.8
72
1
10
-101
20
-2.8
11
-101
21
2.8
72
1
10
-101
20
2.8
11
-102.754855404
21
2.8
72
1
10
-102.754855404
20
2.8
11
-102.128381308
21
7.0835537895
72
2
10
-97.650845905
20
-20.5224440402
40
1.97
50
296.397906298
51
267.025197873
73
1
72
1
10
-97.7530825381
20
-22.4897893761
11
-97.2155660501
21
-25.2
72
1
10
-97.2155660501
20
-25.2
11
-99
21
-25.2
72
1
10
-99
20
-25.2
11
-99
21
-27.45
72
1
10
-99
20
-27.45
11
-94
21
-27.45
72
1
10
-94
20
-27.45
11
-94
21
-25.2
72
1
10
-94
20
-25.2
11
-96.1960052676
21
-25.2
72
1
10
-96.1960052676
20
-25.2
11
-96.7749790828
21
-22.287028215
72
2
10
-102.346583732
20
-18.958567843
40
1.97
50
276.359280969
51
246.953454303
73
1
72
1
10
-103.117796959
20
-20.7713364877
11
-103.765493499
21
-25.2
72
1
10
-103.765493499
20
-25.2
11
-106
21
-25.2
72
1
10
-106
20
-25.2
11
-106
21
-27.45
72
1
10
-106
20
-27.45
11
-101
21
-27.45
72
1
10
-101
20
-27.45
11
-101
21
-25.2
72
1
10
-101
20
-25.2
11
-102.754855404
21
-25.2
72
1
10
-102.754855404
20
-25.2
11
-102.128381308
21
-20.9164462105
72
1
10
-108
20
-27.45
11
-113
21
-27.45
72
1
10
-113
20
-27.45
11
-113
21
-25.2
72
1
10
-113
20
-25.2
11
-109.050683993
21
-25.2
72
1
10
-109.050683993
20
-25.2
11
-108.082365875
21
-22.1964156059
72
2
10
-107.021810609
20
-20.5362582257
40
1.97
50
122.571585692
51
93.165761462
73
0
72
1
10
-107.130603567
20
-22.5032518943
11
-108
21
-25.1999953626
72
1
10
-108
20
-25.1999953626
11
-108
21
-27.45
72
1
10
-92
20
-27.45
11
-87
21
-27.45
72
1
10
-87
20
-27.45
11
-87
21
-25.2
72
1
10
-87
20
-25.2
11
-90.971909288
21
-25.2
72
1
10
-90.971909288
20
-25.2
11
-92.0440178966
21
-20.708269185
72
2
10
-92.9727416886
20
-18.9709228988
40
1.97
50
298.127381726
51
268.721557497
73
1
72
1
10
-93.0166947123
20
-20.9404325159
11
-92
21
-25.2
72
1
10
-92
20
-25.2
11
-92
21
-27.45
72
1
10
-92
20
27.45
11
-87
21
27.45
72
1
10
-87
20
27.45
11
-87
21
25.2
72
1
10
-87
20
25.2
11
-90.9493159998
21
25.2000043626
72
1
10
-90.9493159998
20
25.2000043626
11
-91.9176336555
21
22.1964243064
72
2
10
-92.9781893906
20
20.5362672257
40
1.97
50
302.571601871
51
273.165777642
73
0
72
1
10
-92.8693958775
20
22.5032608636
11
-92
21
25.2
72
1
10
-92
20
25.2
11
-92
21
27.45
72
1
10
-88.95
20
24.45
11
-88.6
21
24.45
72
1
10
-88.6
20
24.45
11
-88.6
21
24.8
72
1
10
-88.6
20
24.8
11
-88.3
21
24.8
72
1
10
-88.3
20
24.8
11
-88.3
21
24.45
72
1
10
-88.3
20
24.45
11
-87.95
21
24.45
72
1
10
-87.95
20
24.45
11
-87.95
21
24.15
72
1
10
-87.95
20
24.15
11
-88.3
21
24.15
72
1
10
-88.3
20
24.15
11
-88.3
21
23.8
72
1
10
-88.3
20
23.8
11
-88.6
21
23.8
72
1
10
-88.6
20
23.8
11
-88.6
21
24.15
72
1
10
-88.6
20
24.15
11
-88.95
21
24.15
72
1
10
-88.95
20
24.15
11
-88.95
21
24.45
72
1
10
-88.95
20
-3.55
11
-88.6
21
-3.55
72
1
10
-88.6
20
-3.55
11
-88.6
21
-3.2
72
1
10
-88.6
20
-3.2
11
-88.3
21
-3.2
72
1
10
-88.3
20
-3.2
11
-88.3
21
-3.55
72
1
10
-88.3
20
-3.55
11
-87.95
21
-3.55
72
1
10
-87.95
20
-3.55
11
-87.95
21
-3.85
72
1
10
-87.95
20
-3.85
11
-88.3
21
-3.85
72
1
10
-88.3
20
-3.85
11
-88.3
21
-4.2
72
1
10
-88.3
20
-4.2
11
-88.6
21
-4.2
72
1
10
-88.6
20
-4.2
11
-88.6
21
-3.85
72
1
10
-88.6
20
-3.85
11
-88.95
21
-3.85
72
1
10
-88.95
20
-3.85
11
-88.95
21
-3.55
72
1
10
-114
20
8
11
-114
21
20
72
1
10
-114
20
20
11
-112
21
20
72
1
10
-112
20
20
11
-112
21
16
72
1
10
-112
20
16
11
-111.001108935
21
16.0000045
72
1
10
-111.001108935
20
16.0000045
11
-111.001108935
21
15.0002389035
72
1
10
-111.001108935
20
15.0002389035
11
-89.0000527688
21
15.0002389035
72
1
10
-89.0000527688
20
15.0002389035
11
-89.0000527688
21
16.0000043533
72
1
10
-89.0000527688
20
16.0000043533
11
-88
21
16
72
1
10
-88
20
16
11
-88
21
20
72
1
10
-88
20
20
11
-86
21
20
72
1
10
-86
20
20
11
-86
21
8
72
1
10
-86
20
8
11
-88
21
8
72
1
10
-88
20
8
11
-88
21
12
72
1
10
-88
20
12
11
-89.0000527688
21
12.0000049681
72
1
10
-89.0000527688
20
12.0000049681
11
-89.0000527688
21
13.0000045
72
1
10
-89.0000527688
20
13.0000045
11
-111.001108935
21
13.0000045
72
1
10
-111.001108935
20
13.0000045
11
-111.001108935
21
12.0000051149
72
1
10
-111.001108935
20
12.0000051149
11
-112
21
12
72
1
10
-112
20
12
11
-112
21
8
72
1
10
-112
20
8
11
-114
21
8
72
1
10
-114
20
-20
11
-114
21
-8
72
1
10
-114
20
-8
11
-112
21
-8
72
1
10
-112
20
-8
11
-112
21
-11.9999955
72
1
10
-112
20
-11.9999955
11
-111.001108935
21
-11.9999955
72
1
10
-111.001108935
20
-11.9999955
11
-111.001108935
21
-12.9997610965
72
1
10
-111.001108935
20
-12.9997610965
11
-89.0000527688
21
-12.9997610965
72
1
10
-89.0000527688
20
-12.9997610965
11
-89.0000527688
21
-11.9999956467
72
1
10
-89.0000527688
20
-11.9999956467
11
-88
21
-12
72
1
10
-88
20
-12
11
-88
21
-8
72
1
10
-88
20
-8
11
-86
21
-8
72
1
10
-86
20
-8
11
-86
21
-20
72
1
10
-86
20
-20
11
-88
21
-20
72
1
10
-88
20
-20
11
-88
21
-16
72
1
10
-88
20
-16
11
-89.0000527688
21
-15.9999950319
72
1
10
-89.0000527688
20
-15.9999950319
11
-89.0000527688
21
-14.9999955
72
1
10
-89.0000527688
20
-14.9999955
11
-111.001108935
21
-14.9999955
72
1
10
-111.001108935
20
-14.9999955
11
-111.001108935
21
-15.9999948851
72
1
10
-111.001108935
20
-15.9999948851
11
-112
21
-16
72
1
10
-112
20
-16
11
-112
21
-20
72
1
10
-112
20
-20
11
-114
21
-20
72
1
10
-108
20
25.2
11
-108
21
27.45
72
1
10
-108
20
27.45
11
-113
21
27.45
72
1
10
-113
20
27.45
11
-113
21
25.2
72
1
10
-113
20
25.2
11
-109.028090794
21
25.2
72
1
10
-109.028090794
20
25.2
11
-107.955982681
21
20.7082778762
72
2
10
-107.027258311
20
18.9709318988
40
1.97
50
118.127400779
51
88.7215765495
73
1
72
1
10
-106.983305942
20
20.9404415305
11
-108
21
25.2
72
2
10
-107.027258311
20
-9.0290681012
40
1.97
50
118.127400779
51
88.7215765493
73
1
72
1
10
-106.983305942
20
-7.05955846952
11
-108
21
-2.8
72
1
10
-108
20
-2.8
11
-108
21
2.8
72
1
10
-108
20
2.8
11
-107.130602976
21
5.49674807302
72
2
10
-107.021810609
20
7.4637417743
40
1.97
50
266.834255742
51
237.428431513
73
1
72
1
10
-108.082365377
20
5.80358407562
11
-109.050682396
21
2.8
72
1
10
-109.050682396
20
2.8
11
-113
21
2.8
72
1
10
-113
20
2.8
11
-113
21
-2.8
72
1
10
-113
20
-2.8
11
-109.028090794
21
-2.8
72
1
10
-109.028090794
20
-2.8
11
-107.955982681
21
-7.29172212385
72
2
10
-92.9781893906
20
-7.4637327743
40
1.97
50
86.8342223583
51
57.4283981288
73
1
72
1
10
-91.9176336555
20
-5.80357569356
11
-90.9493174063
21
-2.8
72
1
10
-90.9493174063
20
-2.8
11
-87
21
-2.8
72
1
10
-87
20
-2.8
11
-87
21
2.8
72
1
10
-87
20
2.8
11
-90.971909288
21
2.8
72
1
10
-90.971909288
20
2.8
11
-92.0440178966
21
7.29173081502
72
2
10
-92.9727416886
20
9.0290771012
40
1.97
50
298.127381726
51
268.721557497
73
1
72
1
10
-93.0166947123
20
7.05956748414
11
-92
21
2.8
72
1
10
-92
20
2.8
11
-92
21
-2.8
72
1
10
-92
20
-2.8
11
-92.8693958775
21
-5.49673913641
72
1
10
-113.477485177
20
21.5
11
-112.6
21
24.132455532
72
1
10
-112.6
20
24.132455532
11
-111.722514823
21
21.5
72
1
10
-111.722514823
20
21.5
11
-112.144151844
21
21.5
72
1
10
-112.144151844
20
21.5
11
-112.6
21
22.867544468
72
1
10
-112.6
20
22.867544468
11
-113.055848156
21
21.5
72
1
10
-113.055848156
20
21.5
11
-113.477485177
21
21.5
72
2
10
-112.55
20
-4.4
40
0.6
50
90
51
270
73
1
72
2
10
-112.55
20
-5.75
40
0.75
50
90
51
270
73
1
72
1
10
-112.55
20
-6.5
11
-111.8
21
-6.5
72
1
10
-111.8
20
-6.5
11
-111.8
21
-3.8
72
1
10
-111.8
20
-3.8
11
-112.55
21
-3.8
97
0
75
0
76
1
98
0
0
HATCH
5
5E
100
AcDbEntity
8
metal_layer_evap_OTRACE_mask
6
ByLayer
62
256
370
-1
100
AcDbHatch
10
0
20
0
30
0
210
0
220
0
230
1
2
SOLID
70
1
71
0
91
1
92
0
93
105
72
2
10
-11.6
20
-10.35
40
0.55
50
0
51
360
73
1
72
2
10
2.3465837324
20
4.958572343
40
1.97
50
96.35928097
51
66.953454306
73
1
72
1
10
3.1177969589
20
6.7713409877
11
3.765492841
21
11.2
72
1
10
3.765492841
20
11.2
11
6
21
11.2
72
1
10
6
20
11.2
11
6
21
14
72
1
10
6
20
14
11
1
21
14
72
1
10
1
20
14
11
1
21
11.2
72
1
10
1
20
11.2
11
2.7548547456
21
11.2
72
1
10
2.7548547456
20
11.2
11
2.128381308
21
6.9164507105
72
2
10
-22.45
20
22.45
40
5
50
90
51
180
73
1
72
1
10
-27.45
20
22.45
11
-27.45
21
-22.45
72
2
10
-22.45
20
-22.45
40
5
50
180
51
270
73
1
72
1
10
-22.45
20
-27.45
11
22.45
21
-27.45
72
2
10
22.45
20
-22.45
40
5
50
270
51
0
73
1
72
1
10
27.45
20
-22.45
11
27.45
21
22.45
72
2
10
22.45
20
22.45
40
5
50
0
51
90
73
1
72
1
10
22.45
20
27.45
11
-22.45
21
27.45
72
2
10
7.0218109068
20
6.5362628489
40
1
50
102.131329393
51
42.1313293932
73
1
72
1
10
7.76342004688
20
7.20709508079
11
9.05068252481
21
11.2
72
1
10
9.05068252481
20
11.2
11
13
21
11.2
72
1
10
13
20
11.2
11
13
21
14
72
1
10
13
20
14
11
8
21
14
72
1
10
8
20
14
11
8
21
11.1999998626
72
1
10
8
20
11.1999998626
11
6.81165772235
21
7.51393131984
72
2
10
-2.3465837324
20
-4.958572343
40
1.97
50
276.35928097
51
246.953454306
73
1
72
1
10
-3.1177969589
20
-6.7713409877
11
-3.765492841
21
-11.2
72
1
10
-3.765492841
20
-11.2
11
-6
21
-11.2
72
1
10
-6
20
-11.2
11
-6
21
-14
72
1
10
-6
20
-14
11
-1
21
-14
72
1
10
-1
20
-14
11
-1
21
-11.2
72
1
10
-1
20
-11.2
11
-2.7548547456
21
-11.2
72
1
10
-2.7548547456
20
-11.2
11
-2.128381308
21
-6.9164507105
72
2
10
-7.0218109068
20
-6.5362628489
40
1
50
282.131329393
51
222.131329393
73
1
72
1
10
-7.76342004688
20
-7.20709508079
11
-9.05068252481
21
-11.2
72
1
10
-9.05068252481
20
-11.2
11
-13
21
-11.2
72
1
10
-13
20
-11.2
11
-13
21
-14
72
1
10
-13
20
-14
11
-8
21
-14
72
1
10
-8
20
-14
11
-8
21
-11.1999998626
72
1
10
-8
20
-11.1999998626
11
-6.81165772235
21
-7.51393131984
72
1
10
-11.0011089353
20
-1
11
10.9999472312
21
-1
72
1
10
10.9999472312
20
-1
11
10.9999472312
21
-1.9999995319
72
1
10
10.9999472312
20
-1.9999995319
11
12
21
-2
72
1
10
12
20
-2
11
12
21
-6
72
1
10
12
20
-6
11
14
21
-6
72
1
10
14
20
-6
11
14
21
6
72
1
10
14
20
6
11
12
21
6
72
1
10
12
20
6
11
12
21
2
72
1
10
12
20
2
11
10.9999472312
21
1.9999998533
72
1
10
10.9999472312
20
1.9999998533
11
10.9999472312
21
1.0002344035
72
1
10
10.9999472312
20
1.0002344035
11
-11.0011089353
21
1.0002344035
72
1
10
-11.0011089353
20
1.0002344035
11
-11.0011089353
21
2
72
1
10
-11.0011089353
20
2
11
-12
21
2
72
1
10
-12
20
2
11
-12
21
6
72
1
10
-12
20
6
11
-14
21
6
72
1
10
-14
20
6
11
-14
21
-6
72
1
10
-14
20
-6
11
-12
21
-6
72
1
10
-12
20
-6
11
-12
21
-2
72
1
10
-12
20
-2
11
-11.0011089353
21
-1.9999993851
72
1
10
-11.0011089353
20
-1.9999993851
11
-11.0011089353
21
-1
72
2
10
-2.349154095
20
6.5224485402
40
1.4
50
122.827957636
51
81.0355648725
73
1
72
1
10
-2.13100420085
20
7.90534789434
11
-2.78443305743
21
11.2
72
1
10
-2.78443305743
20
11.2
11
-1
21
11.2
72
1
10
-1
20
11.2
11
-1
21
14
72
1
10
-1
20
14
11
-6
21
14
72
1
10
-6
20
14
11
-6
21
11.2002276702
72
1
10
-6
20
11.2002276702
11
-3.80399934055
21
11.2000276846
72
1
10
-3.80399934055
20
11.2000276846
11
-3.10811971864
21
7.69887158577
72
1
10
-8.14508650887
20
7.5
11
-7.11706543294
21
7.5
72
1
10
-7.11706543294
20
7.5
11
-8
21
11.2038201013
72
1
10
-8
20
11.2038201013
11
-8
21
14
72
1
10
-8
20
14
11
-13
21
14
72
1
10
-13
20
14
11
-13
21
11.2
72
1
10
-13
20
11.2
11
-9.02711042169
21
11.2
72
1
10
-9.02711042169
20
11.2
11
-8.14508650887
21
7.5
72
2
10
2.349154095
20
-6.5224485402
40
1.4
50
302.827957636
51
261.035564872
73
1
72
1
10
2.13100420085
20
-7.90534789434
11
2.78443305743
21
-11.2
72
1
10
2.78443305743
20
-11.2
11
1
21
-11.2
72
1
10
1
20
-11.2
11
1
21
-14
72
1
10
1
20
-14
11
6
21
-14
72
1
10
6
20
-14
11
6
21
-11.2
72
1
10
6
20
-11.2
11
3.80399383803
21
-11.2
72
1
10
3.80399383803
20
-11.2
11
3.10811971864
21
-7.69887158577
72
1
10
7.11706543294
20
-7.5
11
8.14508650887
21
-7.5
72
1
10
8.14508650887
20
-7.5
11
9.02711042169
21
-11.2
72
1
10
9.02711042169
20
-11.2
11
13
21
-11.2
72
1
10
13
20
-11.2
11
13
21
-14
72
1
10
13
20
-14
11
8
21
-14
72
1
10
8
20
-14
11
8
21
-11.2038201013
72
1
10
8
20
-11.2038201013
11
7.11706543294
21
-7.5
72
1
10
11.05
20
10.45
11
11.4
21
10.45
72
1
10
11.4
20
10.45
11
11.4
21
10.8
72
1
10
11.4
20
10.8
11
11.7
21
10.8
72
1
10
11.7
20
10.8
11
11.7
21
10.45
72
1
10
11.7
20
10.45
11
12.05
21
10.45
72
1
10
12.05
20
10.45
11
12.05
21
10.15
72
1
10
12.05
20
10.15
11
11.7
21
10.15
72
1
10
11.7
20
10.15
11
11.7
21
9.8
72
1
10
11.7
20
9.8
11
11.4
21
9.8
72
1
10
11.4
20
9.8
11
11.4
21
10.15
72
1
10
11.4
20
10.15
11
11.05
21
10.15
72
1
10
11.05
20
10.15
11
11.05
21
10.45
72
1
10
-13
20
9
11
-13
21
8
72
2
10
-12.5
20
8
40
0.5
50
180
51
0
73
1
72
1
10
-12
20
8
11
-12
21
9
72
2
10
-12.5
20
9
40
0.5
50
0
51
180
73
1
97
0
75
0
76
1
98
0
0
HATCH
5
5F
100
AcDbEntity
8
metal_layer_evap_OTRACE_mask
6
ByLayer
62
256
370
-1
100
AcDbHatch
10
0
20
0
30
0
210
0
220
0
230
1
2
SOLID
70
1
71
0
91
1
92
0
93
189
72
2
10
-111.6
20
-24.35
40
0.55
50
0
51
360
73
1
72
2
10
-111.6
20
3.65
40
0.55
50
0
51
360
73
1
72
2
10
-122.45
20
22.45
40
5
50
90
51
180
73
1
72
1
10
-127.45
20
22.45
11
-127.45
21
-22.45
72
2
10
-122.45
20
-22.45
40
5
50
180
51
270
73
1
72
1
10
-122.45
20
-27.45
11
-77.55
21
-27.45
72
2
10
-77.55
20
-22.45
40
5
50
270
51
0
73
1
72
1
10
-72.55
20
-22.45
11
-72.55
21
22.45
72
2
10
-77.55
20
22.45
40
5
50
0
51
90
73
1
72
1
10
-77.55
20
27.45
11
-122.45
21
27.45
72
1
10
-113.477485177
20
21.5
11
-113.055848156
21
21.5
72
1
10
-113.055848156
20
21.5
11
-112.6
21
22.867544468
72
1
10
-112.6
20
22.867544468
11
-112.144151844
21
21.5
72
1
10
-112.144151844
20
21.5
11
-111.722514823
21
21.5
72
1
10
-111.722514823
20
21.5
11
-112.6
21
24.132455532
72
1
10
-112.6
20
24.132455532
11
-113.477485177
21
21.5
72
2
10
-112.55
20
-4.4
40
0.6
50
90
51
270
73
1
72
2
10
-112.55
20
-5.75
40
0.75
50
90
51
270
73
1
72
1
10
-112.55
20
-6.5
11
-111.8
21
-6.5
72
1
10
-111.8
20
-6.5
11
-111.8
21
-3.8
72
1
10
-111.8
20
-3.8
11
-112.55
21
-3.8
72
2
10
-97.6534162676
20
-9.041427657
40
1.97
50
96.35928097
51
66.953454306
73
1
72
1
10
-96.8822030411
20
-7.2286590123
11
-96.234507159
21
-2.8
72
1
10
-96.234507159
20
-2.8
11
-94
21
-2.8
72
1
10
-94
20
-2.8
11
-94
21
2.8
72
1
10
-94
20
2.8
11
-96.196006162
21
2.8
72
1
10
-96.196006162
20
2.8
11
-96.8918802814
21
6.30112841423
72
2
10
-97.650845905
20
7.4775514598
40
1.4
50
302.827957636
51
261.035564872
73
1
72
1
10
-97.8689957991
20
6.09465210566
11
-97.2155669426
21
2.8
72
1
10
-97.2155669426
20
2.8
11
-99
21
2.8
72
1
10
-99
20
2.8
11
-99
21
-2.8
72
1
10
-99
20
-2.8
11
-97.2451452544
21
-2.8
72
1
10
-97.2451452544
20
-2.8
11
-97.871618692
21
-7.0835492895
72
2
10
-92.9781890932
20
-7.4637371511
40
1
50
102.131329393
51
42.1313293932
73
1
72
1
10
-92.2365799531
20
-6.79290491921
11
-90.9493174752
21
-2.8
72
1
10
-90.9493174752
20
-2.8
11
-87
21
-2.8
72
1
10
-87
20
-2.8
11
-87
21
2.8
72
1
10
-87
20
2.8
11
-90.9728895783
21
2.8
72
1
10
-90.9728895783
20
2.8
11
-91.8549134911
21
6.5
72
1
10
-91.8549134911
20
6.5
11
-92.8829345671
21
6.5
72
1
10
-92.8829345671
20
6.5
11
-92
21
2.7961798987
72
1
10
-92
20
2.7961798987
11
-92
21
-2.8000001374
72
1
10
-92
20
-2.8000001374
11
-93.1883422776
21
-6.48606868016
72
2
10
-102.346583732
20
-18.958572343
40
1.97
50
276.35928097
51
246.953454306
73
1
72
1
10
-103.117796959
20
-20.7713409877
11
-103.765492841
21
-25.2
72
1
10
-103.765492841
20
-25.2
11
-106
21
-25.2
72
1
10
-106
20
-25.2
11
-106
21
-27.45
72
1
10
-106
20
-27.45
11
-101
21
-27.45
72
1
10
-101
20
-27.45
11
-101
21
-25.2
72
1
10
-101
20
-25.2
11
-102.754854746
21
-25.2
72
1
10
-102.754854746
20
-25.2
11
-102.128381308
21
-20.9164507105
72
2
10
-107.021810907
20
-20.5362628489
40
1
50
282.131329393
51
222.131329393
73
1
72
1
10
-107.763420047
20
-21.2070950808
11
-109.050682525
21
-25.2
72
1
10
-109.050682525
20
-25.2
11
-113
21
-25.2
72
1
10
-113
20
-25.2
11
-113
21
-27.45
72
1
10
-113
20
-27.45
11
-108
21
-27.45
72
1
10
-108
20
-27.45
11
-108
21
-25.1999998626
72
1
10
-108
20
-25.1999998626
11
-106.811657722
21
-21.5139313198
72
1
10
-111.001108935
20
-15
11
-89.0000527688
21
-15
72
1
10
-89.0000527688
20
-15
11
-89.0000527688
21
-15.9999995319
72
1
10
-89.0000527688
20
-15.9999995319
11
-88
21
-16
72
1
10
-88
20
-16
11
-88
21
-20
72
1
10
-88
20
-20
11
-86
21
-20
72
1
10
-86
20
-20
11
-86
21
-8
72
1
10
-86
20
-8
11
-88
21
-8
72
1
10
-88
20
-8
11
-88
21
-12
72
1
10
-88
20
-12
11
-89.0000527688
21
-12.0000001467
72
1
10
-89.0000527688
20
-12.0000001467
11
-89.0000527688
21
-12.9997655965
72
1
10
-89.0000527688
20
-12.9997655965
11
-111.001108935
21
-12.9997655965
72
1
10
-111.001108935
20
-12.9997655965
11
-111.001108935
21
-12
72
1
10
-111.001108935
20
-12
11
-112
21
-12
72
1
10
-112
20
-12
11
-112
21
-8
72
1
10
-112
20
-8
11
-114
21
-8
72
1
10
-114
20
-8
11
-114
21
-20
72
1
10
-114
20
-20
11
-112
21
-20
72
1
10
-112
20
-20
11
-112
21
-16
72
1
10
-112
20
-16
11
-111.001108935
21
-15.9999993851
72
1
10
-111.001108935
20
-15.9999993851
11
-111.001108935
21
-15
72
2
10
-102.349154095
20
-7.4775514598
40
1.4
50
122.827957636
51
81.0355648725
73
1
72
1
10
-102.131004201
20
-6.09465210566
11
-102.784433057
21
-2.8
72
1
10
-102.784433057
20
-2.8
11
-101
21
-2.8
72
1
10
-101
20
-2.8
11
-101
21
2.8
72
1
10
-101
20
2.8
11
-102.754854746
21
2.8
72
1
10
-102.754854746
20
2.8
11
-102.128381308
21
7.0835492895
72
2
10
-102.346583732
20
9.041427657
40
1.97
50
276.35928097
51
246.953454306
73
1
72
1
10
-103.117796959
20
7.2286590123
11
-103.765492841
21
2.8
72
1
10
-103.765492841
20
2.8
11
-106
21
2.8
72
1
10
-106
20
2.8
11
-106
21
-2.7997723298
72
1
10
-106
20
-2.7997723298
11
-103.803999341
21
-2.79997231536
72
1
10
-103.803999341
20
-2.79997231536
11
-103.108119719
21
-6.30112841423
72
1
10
-108.145086509
20
-6.5
11
-107.117065433
21
-6.5
72
1
10
-107.117065433
20
-6.5
11
-108
21
-2.7961798987
72
1
10
-108
20
-2.7961798987
11
-108
21
2.8000001374
72
1
10
-108
20
2.8000001374
11
-106.811657722
21
6.48606868016
72
2
10
-107.021810907
20
7.4637371511
40
1
50
282.131329393
51
222.131329393
73
1
72
1
10
-107.763420047
20
6.79290491921
11
-109.050682525
21
2.8
72
1
10
-109.050682525
20
2.8
11
-113
21
2.8
72
1
10
-113
20
2.8
11
-113
21
-2.8
72
1
10
-113
20
-2.8
11
-109.027110422
21
-2.8
72
1
10
-109.027110422
20
-2.8
11
-108.145086509
21
-6.5
72
2
10
-97.650845905
20
-20.5224485402
40
1.4
50
302.827957636
51
261.035564872
73
1
72
1
10
-97.8689957991
20
-21.9053478943
11
-97.2155669426
21
-25.2
72
1
10
-97.2155669426
20
-25.2
11
-99
21
-25.2
72
1
10
-99
20
-25.2
11
-99
21
-27.45
72
1
10
-99
20
-27.45
11
-94
21
-27.45
72
1
10
-94
20
-27.45
11
-94
21
-25.2
72
1
10
-94
20
-25.2
11
-96.196006162
21
-25.2
72
1
10
-96.196006162
20
-25.2
11
-96.8918802814
21
-21.6988715858
72
1
10
-92.8829345671
20
-21.5
11
-91.8549134911
21
-21.5
72
1
10
-91.8549134911
20
-21.5
11
-90.9728895783
21
-25.2
72
1
10
-90.9728895783
20
-25.2
11
-87
21
-25.2
72
1
10
-87
20
-25.2
11
-87
21
-27.45
72
1
10
-87
20
-27.45
11
-92
21
-27.45
72
1
10
-92
20
-27.45
11
-92
21
-25.2038201013
72
1
10
-92
20
-25.2038201013
11
-92.8829345671
21
-21.5
72
1
10
-88.95
20
-3.55
11
-88.6
21
-3.55
72
1
10
-88.6
20
-3.55
11
-88.6
21
-3.2
72
1
10
-88.6
20
-3.2
11
-88.3
21
-3.2
72
1
10
-88.3
20
-3.2
11
-88.3
21
-3.55
72
1
10
-88.3
20
-3.55
11
-87.95
21
-3.55
72
1
10
-87.95
20
-3.55
11
-87.95
21
-3.85
72
1
10
-87.95
20
-3.85
11
-88.3
21
-3.85
72
1
10
-88.3
20
-3.85
11
-88.3
21
-4.2
72
1
10
-88.3
20
-4.2
11
-88.6
21
-4.2
72
1
10
-88.6
20
-4.2
11
-88.6
21
-3.85
72
1
10
-88.6
20
-3.85
11
-88.95
21
-3.85
72
1
10
-88.95
20
-3.85
11
-88.95
21
-3.55
72
2
10
-97.6534162676
20
18.958572343
40
1.97
50
96.35928097
51
66.953454306
73
1
72
1
10
-96.8822030411
20
20.7713409877
11
-96.234507159
21
25.2
72
1
10
-96.234507159
20
25.2
11
-94
21
25.2
72
1
10
-94
20
25.2
11
-94
21
27.45
72
1
10
-94
20
27.45
11
-99
21
27.45
72
1
10
-99
20
27.45
11
-99
21
25.2
72
1
10
-99
20
25.2
11
-97.2451452544
21
25.2
72
1
10
-97.2451452544
20
25.2
11
-97.871618692
21
20.9164507105
72
2
10
-92.9781890932
20
20.5362628489
40
1
50
102.131329393
51
42.1313293932
73
1
72
1
10
-92.2365799531
20
21.2070950808
11
-90.9493174752
21
25.2
72
1
10
-90.9493174752
20
25.2
11
-87
21
25.2
72
1
10
-87
20
25.2
11
-87
21
27.45
72
1
10
-87
20
27.45
11
-92
21
27.45
72
1
10
-92
20
27.45
11
-92
21
25.1999998626
72
1
10
-92
20
25.1999998626
11
-93.1883422776
21
21.5139313198
72
1
10
-111.001108935
20
13
11
-89.0000527688
21
13
72
1
10
-89.0000527688
20
13
11
-89.0000527688
21
12.0000004681
72
1
10
-89.0000527688
20
12.0000004681
11
-88
21
12
72
1
10
-88
20
12
11
-88
21
8
72
1
10
-88
20
8
11
-86
21
8
72
1
10
-86
20
8
11
-86
21
20
72
1
10
-86
20
20
11
-88
21
20
72
1
10
-88
20
20
11
-88
21
16
72
1
10
-88
20
16
11
-89.0000527688
21
15.9999998533
72
1
10
-89.0000527688
20
15.9999998533
11
-89.0000527688
21
15.0002344035
72
1
10
-89.0000527688
20
15.0002344035
11
-111.001108935
21
15.0002344035
72
1
10
-111.001108935
20
15.0002344035
11
-111.001108935
21
16
72
1
10
-111.001108935
20
16
11
-112
21
16
72
1
10
-112
20
16
11
-112
21
20
72
1
10
-112
20
20
11
-114
21
20
72
1
10
-114
20
20
11
-114
21
8
72
1
10
-114
20
8
11
-112
21
8
72
1
10
-112
20
8
11
-112
21
12
72
1
10
-112
20
12
11
-111.001108935
21
12.0000006149
72
1
10
-111.001108935
20
12.0000006149
11
-111.001108935
21
13
72
2
10
-102.349154095
20
20.5224485402
40
1.4
50
122.827957636
51
81.0355648725
73
1
72
1
10
-102.131004201
20
21.9053478943
11
-102.784433057
21
25.2
72
1
10
-102.784433057
20
25.2
11
-101
21
25.2
72
1
10
-101
20
25.2
11
-101
21
27.45
72
1
10
-101
20
27.45
11
-106
21
27.45
72
1
10
-106
20
27.45
11
-106
21
25.2002276702
72
1
10
-106
20
25.2002276702
11
-103.803999341
21
25.2000276846
72
1
10
-103.803999341
20
25.2000276846
11
-103.108119719
21
21.6988715858
72
1
10
-108.145086509
20
21.5
11
-107.117065433
21
21.5
72
1
10
-107.117065433
20
21.5
11
-108
21
25.2038201013
72
1
10
-108
20
25.2038201013
11
-108
21
27.45
72
1
10
-108
20
27.45
11
-113
21
27.45
72
1
10
-113
20
27.45
11
-113
21
25.2
72
1
10
-113
20
25.2
11
-109.027110422
21
25.2
72
1
10
-109.027110422
20
25.2
11
-108.145086509
21
21.5
72
1
10
-88.95
20
24.45
11
-88.6
21
24.45
72
1
10
-88.6
20
24.45
11
-88.6
21
24.8
72
1
10
-88.6
20
24.8
11
-88.3
21
24.8
72
1
10
-88.3
20
24.8
11
-88.3
21
24.45
72
1
10
-88.3
20
24.45
11
-87.95
21
24.45
72
1
10
-87.95
20
24.45
11
-87.95
21
24.15
72
1
10
-87.95
20
24.15
11
-88.3
21
24.15
72
1
10
-88.3
20
24.15
11
-88.3
21
23.8
72
1
10
-88.3
20
23.8
11
-88.6
21
23.8
72
1
10
-88.6
20
23.8
11
-88.6
21
24.15
72
1
10
-88.6
20
24.15
11
-88.95
21
24.15
72
1
10
-88.95
20
24.15
11
-88.95
21
24.45
97
0
75
0
76
1
98
0
0
HATCH
5
60
100
AcDbEntity
8
metal_layer_evap_std_mask1
6
ByLayer
62
256
370
-1
100
AcDbHatch
10
0
20
0
30
0
210
0
220
0
230
1
2
SOLID
70
1
71
0
91
1
92
0
93
85
72
2
10
-11.6
20
-10.35
40
0.55
50
0
51
360
73
1
72
2
10
-22.45
20
22.45
40
5
50
90
51
180
73
1
72
1
10
-27.45
20
22.45
11
-27.45
21
-22.45
72
2
10
-22.45
20
-22.45
40
5
50
180
51
270
73
1
72
1
10
-22.45
20
-27.45
11
22.45
21
-27.45
72
2
10
22.45
20
-22.45
40
5
50
270
51
0
73
1
72
1
10
27.45
20
-22.45
11
27.45
21
22.45
72
2
10
22.45
20
22.45
40
5
50
0
51
90
73
1
72
1
10
22.45
20
27.45
11
-22.45
21
27.45
72
1
10
2.128381308
20
6.9164507105
11
2.7548547456
21
11.2
72
1
10
2.7548547456
20
11.2
11
1
21
11.2
72
1
10
1
20
11.2
11
1
21
14
72
1
10
1
20
14
11
6
21
14
72
1
10
6
20
14
11
6
21
11.2
72
1
10
6
20
11.2
11
3.765492841
21
11.2
72
1
10
3.765492841
20
11.2
11
3.1177969589
21
6.7713409877
72
2
10
2.3465837324
20
4.958572343
40
1.97
50
293.046545697
51
263.640719031
73
0
72
2
10
-2.349154095
20
6.5224485402
40
1.97
50
116.397906298
51
87.0251978726
73
1
72
1
10
-2.2469174619
20
8.4897938761
11
-2.78443305743
21
11.2
72
1
10
-2.78443305743
20
11.2
11
-1
21
11.2
72
1
10
-1
20
11.2
11
-1
21
14
72
1
10
-1
20
14
11
-6
21
14
72
1
10
-6
20
14
11
-6
21
11.2
72
1
10
-6
20
11.2
11
-3.80399383803
21
11.2
72
1
10
-3.80399383803
20
11.2
11
-3.2250209172
21
8.287032715
72
1
10
-2.128381308
20
-6.9164507105
11
-2.7548547456
21
-11.2
72
1
10
-2.7548547456
20
-11.2
11
-1
21
-11.2
72
1
10
-1
20
-11.2
11
-1
21
-14
72
1
10
-1
20
-14
11
-6
21
-14
72
1
10
-6
20
-14
11
-6
21
-11.2
72
1
10
-6
20
-11.2
11
-3.765492841
21
-11.2
72
1
10
-3.765492841
20
-11.2
11
-3.1177969589
21
-6.7713409877
72
2
10
-2.3465837324
20
-4.958572343
40
1.97
50
113.046545697
51
83.640719031
73
0
72
2
10
2.349154095
20
-6.5224485402
40
1.97
50
296.397906298
51
267.025197873
73
1
72
1
10
2.2469174619
20
-8.4897938761
11
2.78443305743
21
-11.2
72
1
10
2.78443305743
20
-11.2
11
1
21
-11.2
72
1
10
1
20
-11.2
11
1
21
-14
72
1
10
1
20
-14
11
6
21
-14
72
1
10
6
20
-14
11
6
21
-11.2
72
1
10
6
20
-11.2
11
3.80399383803
21
-11.2
72
1
10
3.80399383803
20
-11.2
11
3.2250209172
21
-8.287032715
72
1
10
11.05
20
10.45
11
11.4
21
10.45
72
1
10
11.4
20
10.45
11
11.4
21
10.8
72
1
10
11.4
20
10.8
11
11.7
21
10.8
72
1
10
11.7
20
10.8
11
11.7
21
10.45
72
1
10
11.7
20
10.45
11
12.05
21
10.45
72
1
10
12.05
20
10.45
11
12.05
21
10.15
72
1
10
12.05
20
10.15
11
11.7
21
10.15
72
1
10
11.7
20
10.15
11
11.7
21
9.8
72
1
10
11.7
20
9.8
11
11.4
21
9.8
72
1
10
11.4
20
9.8
11
11.4
21
10.15
72
1
10
11.4
20
10.15
11
11.05
21
10.15
72
1
10
11.05
20
10.15
11
11.05
21
10.45
72
1
10
13
20
-14
11
13
21
-11.2
72
1
10
13
20
-11.2
11
9.0280907528
21
-11.2
72
1
10
9.0280907528
20
-11.2
11
7.95598239228
21
-6.7082735306
72
2
10
7.02725831144
20
-4.9709273988
40
1.97
50
298.127391251
51
268.721567021
73
1
72
1
10
6.98330561517
20
-6.94043702317
11
8
21
-11.2
72
1
10
8
20
-11.2
11
8
21
-14
72
1
10
8
20
-14
11
13
21
-14
72
1
10
-13
20
-14
11
-13
21
-11.2
72
1
10
-13
20
-11.2
11
-9.05068245073
21
-11.1999998626
72
1
10
-9.05068245073
20
-11.1999998626
11
-8.08236586079
21
-8.19642011546
72
2
10
-7.0218106094
20
-6.5362627257
40
1.97
50
122.571585177
51
93.165760948
73
0
72
1
10
-7.1306035494
20
-8.50325639529
11
-8
21
-11.2
72
1
10
-8
20
-11.2
11
-8
21
-14
72
1
10
-8
20
-14
11
-13
21
-14
72
1
10
13
20
14
11
13
21
11.2
72
1
10
13
20
11.2
11
9.05068245073
21
11.1999998626
72
1
10
9.05068245073
20
11.1999998626
11
8.08236586079
21
8.19642011546
72
2
10
7.0218106094
20
6.5362627257
40
1.97
50
302.571585177
51
273.165760948
73
0
72
1
10
7.1306035494
20
8.50325639529
11
8
21
11.2
72
1
10
8
20
11.2
11
8
21
14
72
1
10
8
20
14
11
13
21
14
72
1
10
-8
20
14
11
-13
21
14
72
1
10
-13
20
14
11
-13
21
11.2
72
1
10
-13
20
11.2
11
-9.0280907528
21
11.2
72
1
10
-9.0280907528
20
11.2
11
-7.95598239228
21
6.7082735306
72
2
10
-7.02725831144
20
4.9709273988
40
1.97
50
118.127391251
51
88.721567021
73
1
72
1
10
-6.98330561517
20
6.94043702317
11
-8
21
11.2
72
1
10
-8
20
11.2
11
-8
21
14
72
2
10
-12.5
20
9
40
0.5
50
1.366037834e-05
51
179.99998634
73
1
72
1
10
-13
20
9.00000011921
11
-13
21
7.99999983141
72
2
10
-12.5
20
8
40
0.5
50
180.000019319
51
0
73
1
72
1
10
-12
20
8
11
-12
21
9.00000011921
97
0
75
0
76
1
98
0
0
HATCH
5
61
100
AcDbEntity
8
metal_layer_evap_std_mask1
6
ByLayer
62
256
370
-1
100
AcDbHatch
10
0
20
0
30
0
210
0
220
0
230
1
2
SOLID
70
1
71
0
91
1
92
0
93
149
72
2
10
-111.6
20
3.65
40
0.55
50
0
51
360
73
1
72
2
10
-111.6
20
-24.35
40
0.55
50
0
51
360
73
1
72
2
10
-122.45
20
22.45
40
5
50
90
51
180
73
1
72
1
10
-127.45
20
22.45
11
-127.45
21
-22.45
72
2
10
-122.45
20
-22.45
40
5
50
180
51
270
73
1
72
1
10
-122.45
20
-27.45
11
-77.55
21
-27.45
72
2
10
-77.55
20
-22.45
40
5
50
270
51
0
73
1
72
1
10
-72.55
20
-22.45
11
-72.55
21
22.45
72
2
10
-77.55
20
22.45
40
5
50
0
51
90
73
1
72
1
10
-77.55
20
27.45
11
-122.45
21
27.45
72
2
10
-102.349154095
20
20.5224530402
40
1.97
50
116.397906298
51
87.0251978726
73
1
72
1
10
-102.246917462
20
22.4897983761
11
-102.784432165
21
25.2
72
1
10
-102.784432165
20
25.2
11
-101
21
25.2
72
1
10
-101
20
25.2
11
-101
21
27.45
72
1
10
-101
20
27.45
11
-106
21
27.45
72
1
10
-106
20
27.45
11
-106
21
25.2
72
1
10
-106
20
25.2
11
-103.803992944
21
25.2
72
1
10
-103.803992944
20
25.2
11
-103.225020917
21
22.287037215
72
2
10
-97.6534162676
20
18.958576843
40
1.97
50
96.359280969
51
66.9534543035
73
1
72
1
10
-96.8822030411
20
20.7713454877
11
-96.2345078171
21
25.2
72
1
10
-96.2345078171
20
25.2
11
-94
21
25.2
72
1
10
-94
20
25.2
11
-94
21
27.45
72
1
10
-94
20
27.45
11
-99
21
27.45
72
1
10
-99
20
27.45
11
-99
21
25.2
72
1
10
-99
20
25.2
11
-97.2451459125
21
25.2
72
1
10
-97.2451459125
20
25.2
11
-97.871618692
21
20.9164552105
72
2
10
-97.650845905
20
7.4775559598
40
1.97
50
296.397906298
51
267.025197873
73
1
72
1
10
-97.7530825381
20
5.5102106239
11
-97.2155660501
21
2.8
72
1
10
-97.2155660501
20
2.8
11
-99
21
2.8
72
1
10
-99
20
2.8
11
-99
21
-2.8
72
1
10
-99
20
-2.8
11
-97.2451459125
21
-2.8
72
1
10
-97.2451459125
20
-2.8
11
-97.871618692
21
-7.0835447895
72
2
10
-97.6534162676
20
-9.041423157
40
1.97
50
96.359280969
51
66.9534543035
73
1
72
1
10
-96.8822030411
20
-7.2286545123
11
-96.2345078171
21
-2.8
72
1
10
-96.2345078171
20
-2.8
11
-94
21
-2.8
72
1
10
-94
20
-2.8
11
-94
21
2.8
72
1
10
-94
20
2.8
11
-96.1960052676
21
2.8
72
1
10
-96.1960052676
20
2.8
11
-96.7749790828
21
5.712971785
72
2
10
-102.346583732
20
9.041432157
40
1.97
50
276.359280969
51
246.953454303
73
1
72
1
10
-103.117796959
20
7.2286635123
11
-103.765493499
21
2.8
72
1
10
-103.765493499
20
2.8
11
-106
21
2.8
72
1
10
-106
20
2.8
11
-106
21
-2.8
72
1
10
-106
20
-2.8
11
-103.803992944
21
-2.8
72
1
10
-103.803992944
20
-2.8
11
-103.225020917
21
-5.712962785
72
2
10
-102.349154095
20
-7.4775469598
40
1.97
50
116.397906298
51
87.0251978726
73
1
72
1
10
-102.246917462
20
-5.5102016239
11
-102.784432165
21
-2.8
72
1
10
-102.784432165
20
-2.8
11
-101
21
-2.8
72
1
10
-101
20
-2.8
11
-101
21
2.8
72
1
10
-101
20
2.8
11
-102.754855404
21
2.8
72
1
10
-102.754855404
20
2.8
11
-102.128381308
21
7.0835537895
72
2
10
-97.650845905
20
-20.5224440402
40
1.97
50
296.397906298
51
267.025197873
73
1
72
1
10
-97.7530825381
20
-22.4897893761
11
-97.2155660501
21
-25.2
72
1
10
-97.2155660501
20
-25.2
11
-99
21
-25.2
72
1
10
-99
20
-25.2
11
-99
21
-27.45
72
1
10
-99
20
-27.45
11
-94
21
-27.45
72
1
10
-94
20
-27.45
11
-94
21
-25.2
72
1
10
-94
20
-25.2
11
-96.1960052676
21
-25.2
72
1
10
-96.1960052676
20
-25.2
11
-96.7749790828
21
-22.287028215
72
2
10
-102.346583732
20
-18.958567843
40
1.97
50
276.359280969
51
246.953454303
73
1
72
1
10
-103.117796959
20
-20.7713364877
11
-103.765493499
21
-25.2
72
1
10
-103.765493499
20
-25.2
11
-106
21
-25.2
72
1
10
-106
20
-25.2
11
-106
21
-27.45
72
1
10
-106
20
-27.45
11
-101
21
-27.45
72
1
10
-101
20
-27.45
11
-101
21
-25.2
72
1
10
-101
20
-25.2
11
-102.754855404
21
-25.2
72
1
10
-102.754855404
20
-25.2
11
-102.128381308
21
-20.9164462105
72
1
10
-108
20
-27.45
11
-113
21
-27.45
72
1
10
-113
20
-27.45
11
-113
21
-25.2
72
1
10
-113
20
-25.2
11
-109.050683993
21
-25.2
72
1
10
-109.050683993
20
-25.2
11
-108.082365875
21
-22.1964156059
72
2
10
-107.021810609
20
-20.5362582257
40
1.97
50
122.571585692
51
93.165761462
73
0
72
1
10
-107.130603567
20
-22.5032518943
11
-108
21
-25.1999953626
72
1
10
-108
20
-25.1999953626
11
-108
21
-27.45
72
1
10
-92
20
-27.45
11
-87
21
-27.45
72
1
10
-87
20
-27.45
11
-87
21
-25.2
72
1
10
-87
20
-25.2
11
-90.971909288
21
-25.2
72
1
10
-90.971909288
20
-25.2
11
-92.0440178966
21
-20.708269185
72
2
10
-92.9727416886
20
-18.9709228988
40
1.97
50
298.127381726
51
268.721557497
73
1
72
1
10
-93.0166947123
20
-20.9404325159
11
-92
21
-25.2
72
1
10
-92
20
-25.2
11
-92
21
-27.45
72
1
10
-92
20
27.45
11
-87
21
27.45
72
1
10
-87
20
27.45
11
-87
21
25.2
72
1
10
-87
20
25.2
11
-90.9493159998
21
25.2000043626
72
1
10
-90.9493159998
20
25.2000043626
11
-91.9176336555
21
22.1964243064
72
2
10
-92.9781893906
20
20.5362672257
40
1.97
50
302.571601871
51
273.165777642
73
0
72
1
10
-92.8693958775
20
22.5032608636
11
-92
21
25.2
72
1
10
-92
20
25.2
11
-92
21
27.45
72
1
10
-88.95
20
24.45
11
-88.6
21
24.45
72
1
10
-88.6
20
24.45
11
-88.6
21
24.8
72
1
10
-88.6
20
24.8
11
-88.3
21
24.8
72
1
10
-88.3
20
24.8
11
-88.3
21
24.45
72
1
10
-88.3
20
24.45
11
-87.95
21
24.45
72
1
10
-87.95
20
24.45
11
-87.95
21
24.15
72
1
10
-87.95
20
24.15
11
-88.3
21
24.15
72
1
10
-88.3
20
24.15
11
-88.3
21
23.8
72
1
10
-88.3
20
23.8
11
-88.6
21
23.8
72
1
10
-88.6
20
23.8
11
-88.6
21
24.15
72
1
10
-88.6
20
24.15
11
-88.95
21
24.15
72
1
10
-88.95
20
24.15
11
-88.95
21
24.45
72
1
10
-88.95
20
-3.55
11
-88.6
21
-3.55
72
1
10
-88.6
20
-3.55
11
-88.6
21
-3.2
72
1
10
-88.6
20
-3.2
11
-88.3
21
-3.2
72
1
10
-88.3
20
-3.2
11
-88.3
21
-3.55
72
1
10
-88.3
20
-3.55
11
-87.95
21
-3.55
72
1
10
-87.95
20
-3.55
11
-87.95
21
-3.85
72
1
10
-87.95
20
-3.85
11
-88.3
21
-3.85
72
1
10
-88.3
20
-3.85
11
-88.3
21
-4.2
72
1
10
-88.3
20
-4.2
11
-88.6
21
-4.2
72
1
10
-88.6
20
-4.2
11
-88.6
21
-3.85
72
1
10
-88.6
20
-3.85
11
-88.95
21
-3.85
72
1
10
-88.95
20
-3.85
11
-88.95
21
-3.55
72
1
10
-108
20
25.2
11
-108
21
27.45
72
1
10
-108
20
27.45
11
-113
21
27.45
72
1
10
-113
20
27.45
11
-113
21
25.2
72
1
10
-113
20
25.2
11
-109.028090794
21
25.2
72
1
10
-109.028090794
20
25.2
11
-107.955982681
21
20.7082778762
72
2
10
-107.027258311
20
18.9709318988
40
1.97
50
118.127400779
51
88.7215765495
73
1
72
1
10
-106.983305942
20
20.9404415305
11
-108
21
25.2
72
2
10
-107.027258311
20
-9.0290681012
40
1.97
50
118.127400779
51
88.7215765493
73
1
72
1
10
-106.983305942
20
-7.05955846952
11
-108
21
-2.8
72
1
10
-108
20
-2.8
11
-108
21
2.8
72
1
10
-108
20
2.8
11
-107.130602976
21
5.49674807302
72
2
10
-107.021810609
20
7.4637417743
40
1.97
50
266.834255742
51
237.428431513
73
1
72
1
10
-108.082365377
20
5.80358407562
11
-109.050682396
21
2.8
72
1
10
-109.050682396
20
2.8
11
-113
21
2.8
72
1
10
-113
20
2.8
11
-113
21
-2.8
72
1
10
-113
20
-2.8
11
-109.028090794
21
-2.8
72
1
10
-109.028090794
20
-2.8
11
-107.955982681
21
-7.29172212385
72
2
10
-92.9781893906
20
-7.4637327743
40
1.97
50
86.8342223583
51
57.4283981288
73
1
72
1
10
-91.9176336555
20
-5.80357569356
11
-90.9493174063
21
-2.8
72
1
10
-90.9493174063
20
-2.8
11
-87
21
-2.8
72
1
10
-87
20
-2.8
11
-87
21
2.8
72
1
10
-87
20
2.8
11
-90.971909288
21
2.8
72
1
10
-90.971909288
20
2.8
11
-92.0440178966
21
7.29173081502
72
2
10
-92.9727416886
20
9.0290771012
40
1.97
50
298.127381726
51
268.721557497
73
1
72
1
10
-93.0166947123
20
7.05956748414
11
-92
21
2.8
72
1
10
-92
20
2.8
11
-92
21
-2.8
72
1
10
-92
20
-2.8
11
-92.8693958775
21
-5.49673913641
72
1
10
-113.477485177
20
21.5
11
-112.6
21
24.132455532
72
1
10
-112.6
20
24.132455532
11
-111.722514823
21
21.5
72
1
10
-111.722514823
20
21.5
11
-112.144151844
21
21.5
72
1
10
-112.144151844
20
21.5
11
-112.6
21
22.867544468
72
1
10
-112.6
20
22.867544468
11
-113.055848156
21
21.5
72
1
10
-113.055848156
20
21.5
11
-113.477485177
21
21.5
72
2
10
-112.55
20
-4.4
40
0.6
50
90
51
270
73
1
72
2
10
-112.55
20
-5.75
40
0.75
50
90
51
270
73
1
72
1
10
-112.55
20
-6.5
11
-111.8
21
-6.5
72
1
10
-111.8
20
-6.5
11
-111.8
21
-3.8
72
1
10
-111.8
20
-3.8
11
-112.55
21
-3.8
97
0
75
0
76
1
98
0
0
HATCH
5
62
100
AcDbEntity
8
alternative1_active_layer_evap_mask
6
ByLayer
62
256
370
-1
100
AcDbHatch
10
0
20
0
30
0
210
0
220
0
230
1
2
SOLID
70
1
71
0
91
1
92
0
93
16
72
2
10
-22.45
20
22.45
40
5
50
90
51
180
73
1
72
1
10
-27.45
20
22.45
11
-27.45
21
-22.45
72
2
10
-22.45
20
-22.45
40
5
50
180
51
270
73
1
72
1
10
-22.45
20
-27.45
11
22.45
21
-27.45
72
2
10
22.45
20
-22.45
40
5
50
270
51
0
73
1
72
1
10
27.45
20
-22.45
11
27.45
21
22.45
72
2
10
22.45
20
22.45
40
5
50
0
51
90
73
1
72
1
10
22.45
20
27.45
11
-22.45
21
27.45
72
1
10
-9.5
20
-9.5
11
9.5
21
-9.5
72
1
10
9.5
20
-9.5
11
9.5
21
-2
72
1
10
9.5
20
-2
11
-9.5
21
-2
72
1
10
-9.5
20
-2
11
-9.5
21
-9.5
72
1
10
-9.5
20
9.5
11
9.5
21
9.5
72
1
10
9.5
20
9.5
11
9.5
21
2
72
1
10
9.5
20
2
11
-9.5
21
2
72
1
10
-9.5
20
2
11
-9.5
21
9.5
97
0
75
0
76
1
98
0
0
HATCH
5
63
100
AcDbEntity
8
alternative1_active_layer_evap_mask
6
ByLayer
62
256
370
-1
100
AcDbHatch
10
0
20
0
30
0
210
0
220
0
230
1
2
SOLID
70
1
71
0
91
1
92
0
93
24
72
2
10
-122.45
20
22.45
40
5
50
90
51
180
73
1
72
1
10
-127.45
20
22.45
11
-127.45
21
-22.45
72
2
10
-122.45
20
-22.45
40
5
50
180
51
270
73
1
72
1
10
-122.45
20
-27.45
11
-77.55
21
-27.45
72
2
10
-77.55
20
-22.45
40
5
50
270
51
0
73
1
72
1
10
-72.55
20
-22.45
11
-72.55
21
22.45
72
2
10
-77.55
20
22.45
40
5
50
0
51
90
73
1
72
1
10
-77.55
20
27.45
11
-122.45
21
27.45
72
1
10
-109.5
20
4.5
11
-90.5
21
4.5
72
1
10
-90.5
20
4.5
11
-90.5
21
12
72
1
10
-90.5
20
12
11
-109.5
21
12
72
1
10
-109.5
20
12
11
-109.5
21
4.5
72
1
10
-90.5
20
16
11
-109.5
21
16
72
1
10
-109.5
20
16
11
-109.5
21
23.5
72
1
10
-109.5
20
23.5
11
-90.5
21
23.5
72
1
10
-90.5
20
23.5
11
-90.5
21
16
72
1
10
-109.5
20
-12
11
-90.5
21
-12
72
1
10
-90.5
20
-12
11
-90.5
21
-4.5
72
1
10
-90.5
20
-4.5
11
-109.5
21
-4.5
72
1
10
-109.5
20
-4.5
11
-109.5
21
-12
72
1
10
-90.5
20
-16
11
-109.5
21
-16
72
1
10
-109.5
20
-16
11
-109.5
21
-23.5
72
1
10
-109.5
20
-23.5
11
-90.5
21
-23.5
72
1
10
-90.5
20
-23.5
11
-90.5
21
-16
97
0
75
0
76
1
98
0
0
HATCH
5
64
100
AcDbEntity
8
active_layer_evap_std_mask
6
ByLayer
62
256
370
-1
100
AcDbHatch
10
0
20
0
30
0
210
0
220
0
230
1
2
SOLID
70
1
71
0
91
1
92
0
93
24
72
2
10
-122.45
20
22.45
40
5
50
90
51
180
73
1
72
1
10
-127.45
20
22.45
11
-127.45
21
-22.45
72
2
10
-122.45
20
-22.45
40
5
50
180
51
270
73
1
72
1
10
-122.45
20
-27.45
11
-77.55
21
-27.45
72
2
10
-77.55
20
-22.45
40
5
50
270
51
0
73
1
72
1
10
-72.55
20
-22.45
11
-72.55
21
22.45
72
2
10
-77.55
20
22.45
40
5
50
0
51
90
73
1
72
1
10
-77.55
20
27.45
11
-122.45
21
27.45
72
1
10
-110
20
16.0000045
11
-110
21
24.0000045
72
1
10
-110
20
24.0000045
11
-90
21
24.0000045
72
1
10
-90
20
24.0000045
11
-90
21
16.0000045
72
1
10
-90
20
16.0000045
11
-110
21
16.0000045
72
1
10
-110
20
12.0000045
11
-110
21
4.0000045
72
1
10
-110
20
4.0000045
11
-90
21
4.0000045
72
1
10
-90
20
4.0000045
11
-90
21
12.0000045
72
1
10
-90
20
12.0000045
11
-110
21
12.0000045
72
1
10
-110
20
-11.9999955
11
-110
21
-3.9999955
72
1
10
-110
20
-3.9999955
11
-90
21
-3.9999955
72
1
10
-90
20
-3.9999955
11
-90
21
-11.9999955
72
1
10
-90
20
-11.9999955
11
-110
21
-11.9999955
72
1
10
-110
20
-15.9999955
11
-110
21
-23.9999955
72
1
10
-110
20
-23.9999955
11
-90
21
-23.9999955
72
1
10
-90
20
-23.9999955
11
-90
21
-15.9999955
72
1
10
-90
20
-15.9999955
11
-110
21
-15.9999955
97
0
75
0
76
1
98
0
0
HATCH
5
65
100
AcDbEntity
8
active_layer_evap_std_mask
6
ByLayer
62
256
370
-1
100
AcDbHatch
10
0
20
0
30
0
210
0
220
0
230
1
2
SOLID
70
1
71
0
91
1
92
0
93
16
72
2
10
-22.45
20
22.45
40
5
50
90
51
180
73
1
72
1
10
-27.45
20
22.45
11
-27.45
21
-22.45
72
2
10
-22.45
20
-22.45
40
5
50
180
51
270
73
1
72
1
10
-22.45
20
-27.45
11
22.45
21
-27.45
72
2
10
22.45
20
-22.45
40
5
50
270
51
0
73
1
72
1
10
27.45
20
-22.45
11
27.45
21
22.45
72
2
10
22.45
20
22.45
40
5
50
0
51
90
73
1
72
1
10
22.45
20
27.45
11
-22.45
21
27.45
72
1
10
-10
20
2
11
-10
21
10
72
1
10
-10
20
10
11
10
21
10
72
1
10
10
20
10
11
10
21
2
72
1
10
10
20
2
11
-10
21
2
72
1
10
-10
20
-2
11
-10
21
-10
72
1
10
-10
20
-10
11
10
21
-10
72
1
10
10
20
-10
11
10
21
-2
72
1
10
10
20
-2
11
-10
21
-2
97
0
75
0
76
1
98
0
0
HATCH
5
66
100
AcDbEntity
8
active_layer_evap_std
6
ByLayer
62
256
370
-1
100
AcDbHatch
10
0
20
0
30
0
210
0
220
0
230
1
2
ansi31
70
0
71
0
91
1
92
0
93
8
72
1
10
-110
20
-11.9999955
11
-110
21
-3.9999955
72
1
10
-110
20
-3.9999955
11
-90
21
-3.9999955
72
1
10
-90
20
-3.9999955
11
-90
21
-11.9999955
72
1
10
-90
20
-11.9999955
11
-110
21
-11.9999955
72
1
10
-110
20
-15.9999955
11
-110
21
-23.9999955
72
1
10
-110
20
-23.9999955
11
-90
21
-23.9999955
72
1
10
-90
20
-23.9999955
11
-90
21
-15.9999955
72
1
10
-90
20
-15.9999955
11
-110
21
-15.9999955
97
0
75
0
76
1
52
1.57079632679
41
1
77
0
78
0
98
0
0
HATCH
5
67
100
AcDbEntity
8
TCO
6
ByLayer
62
1
370
-1
100
AcDbHatch
10
0
20
0
30
0
210
0
220
0
230
1
2
ANSI31
70
0
71
0
91
1
92
0
93
4
72
1
10
-114.000337306
20
-4.5000142185
11
-113.999999992
21
-23.499995495
72
1
10
-113.999999992
20
-23.499995495
11
-86.0000871196
21
-23.4998839499
72
1
10
-86.0000871196
20
-23.4998839499
11
-86.0000000969
21
-4.4999954488
72
1
10
-86.0000000969
20
-4.4999954488
11
-114.000337306
21
-4.5000142185
97
0
75
0
76
1
52
0
41
0.75
77
0
78
0
98
0
0
HATCH
5
68
100
AcDbEntity
8
TCO
6
ByLayer
62
1
370
-1
100
AcDbHatch
10
0
20
0
30
0
210
0
220
0
230
1
2
ANSI31
70
0
71
0
91
1
92
0
93
4
72
1
10
-114.000337306
20
23.4999857815
11
-113.999999992
21
4.50000450498
72
1
10
-113.999999992
20
4.50000450498
11
-86.0000871196
21
4.50011605015
72
1
10
-86.0000871196
20
4.50011605015
11
-86.0000000969
21
23.5000045512
72
1
10
-86.0000000969
20
23.5000045512
11
-114.000337306
21
23.4999857815
97
0
75
0
76
1
52
0
41
0.75
77
0
78
0
98
0
0
HATCH
5
69
100
AcDbEntity
8
active_layer_evap_std
6
ByLayer
62
256
370
-1
100
AcDbHatch
10
0
20
0
30
0
210
0
220
0
230
1
2
ansi31
70
0
71
0
91
1
92
0
93
8
72
1
10
-110
20
16.0000045
11
-110
21
24.0000045
72
1
10
-110
20
24.0000045
11
-90
21
24.0000045
72
1
10
-90
20
24.0000045
11
-90
21
16.0000045
72
1
10
-90
20
16.0000045
11
-110
21
16.0000045
72
1
10
-110
20
12.0000045
11
-110
21
4.0000045
72
1
10
-110
20
4.0000045
11
-90
21
4.0000045
72
1
10
-90
20
4.0000045
11
-90
21
12.0000045
72
1
10
-90
20
12.0000045
11
-110
21
12.0000045
97
0
75
0
76
1
52
1.57079632679
41
1
77
0
78
0
98
0
0
HATCH
5
6A
100
AcDbEntity
8
encapsulation
6
ByLayer
62
256
370
-1
100
AcDbHatch
10
0
20
0
30
0
210
0
220
0
230
1
2
SOLID
70
1
71
0
91
1
92
0
93
8
72
1
10
-111
20
-25
11
-89
21
-25
72
1
10
-89
20
-25
11
-89
21
-3
72
1
10
-89
20
-3
11
-111
21
-3
72
1
10
-111
20
-3
11
-111
21
-25
72
1
10
-90
20
-4
11
-110
21
-4
72
1
10
-110
20
-4
11
-110
21
-24
72
1
10
-110
20
-24
11
-90
21
-24
72
1
10
-90
20
-24
11
-90
21
-4
97
0
75
0
76
1
98
0
0
HATCH
5
6B
100
AcDbEntity
8
encapsulation
6
ByLayer
62
256
370
-1
100
AcDbHatch
10
0
20
0
30
0
210
0
220
0
230
1
2
SOLID
70
1
71
0
91
1
92
0
93
8
72
1
10
-111
20
3
11
-89
21
3
72
1
10
-89
20
3
11
-89
21
25
72
1
10
-89
20
25
11
-111
21
25
72
1
10
-111
20
25
11
-111
21
3
72
1
10
-90
20
24
11
-110
21
24
72
1
10
-110
20
24
11
-110
21
4
72
1
10
-110
20
4
11
-90
21
4
72
1
10
-90
20
4
11
-90
21
24
97
0
75
0
76
1
98
0
0
HATCH
5
6C
100
AcDbEntity
8
encapsulation
6
ByLayer
62
256
370
-1
100
AcDbHatch
10
0
20
0
30
0
210
0
220
0
230
1
2
SOLID
70
1
71
0
91
1
92
0
93
8
72
1
10
-11
20
-11
11
11
21
-11
72
1
10
11
20
-11
11
11
21
11
72
1
10
11
20
11
11
-11
21
11
72
1
10
-11
20
11
11
-11
21
-11
72
1
10
10
20
10
11
-10
21
10
72
1
10
-10
20
10
11
-10
21
-10
72
1
10
-10
20
-10
11
10
21
-10
72
1
10
10
20
-10
11
10
21
10
97
0
75
0
76
1
98
0
0
CIRCLE
5
6D
100
AcDbEntity
8
pin_contacts
6
ByLayer
62
256
370
-1
100
AcDbCircle
10
-12.73
20
0
40
0.87
0
CIRCLE
5
6E
100
AcDbEntity
8
pin_contacts
6
ByLayer
62
256
370
-1
100
AcDbCircle
10
12.73
20
0
40
0.87
0
CIRCLE
5
6F
100
AcDbEntity
8
pin_contacts
6
ByLayer
62
256
370
-1
100
AcDbCircle
10
-11.78
20
-12.744
40
0.87
0
CIRCLE
5
70
100
AcDbEntity
8
pin_contacts
6
ByLayer
62
256
370
-1
100
AcDbCircle
10
-9.22
20
-12.744
40
0.87
0
CIRCLE
5
71
100
AcDbEntity
8
pin_contacts
6
ByLayer
62
256
370
-1
100
AcDbCircle
10
-4.77
20
-12.744
40
0.87
0
CIRCLE
5
72
100
AcDbEntity
8
pin_contacts
6
ByLayer
62
256
370
-1
100
AcDbCircle
10
-2.24
20
-12.744
40
0.87
0
CIRCLE
5
73
100
AcDbEntity
8
pin_contacts
6
ByLayer
62
256
370
-1
100
AcDbCircle
10
2.23
20
-12.744
40
0.87
0
CIRCLE
5
74
100
AcDbEntity
8
pin_contacts
6
ByLayer
62
256
370
-1
100
AcDbCircle
10
4.77
20
-12.744
40
0.87
0
CIRCLE
5
75
100
AcDbEntity
8
pin_contacts
6
ByLayer
62
256
370
-1
100
AcDbCircle
10
9.23
20
-12.744
40
0.87
0
CIRCLE
5
76
100
AcDbEntity
8
pin_contacts
6
ByLayer
62
256
370
-1
100
AcDbCircle
10
11.77
20
-12.744
40
0.87
0
CIRCLE
5
77
100
AcDbEntity
8
pin_contacts
6
ByLayer
62
256
370
-1
100
AcDbCircle
10
-11.78
20
12.744
40
0.87
0
CIRCLE
5
78
100
AcDbEntity
8
pin_contacts
6
ByLayer
62
256
370
-1
100
AcDbCircle
10
-9.22
20
12.744
40
0.87
0
CIRCLE
5
79
100
AcDbEntity
8
pin_contacts
6
ByLayer
62
256
370
-1
100
AcDbCircle
10
-4.77
20
12.744
40
0.87
0
CIRCLE
5
7A
100
AcDbEntity
8
pin_contacts
6
ByLayer
62
256
370
-1
100
AcDbCircle
10
-2.24
20
12.744
40
0.87
0
CIRCLE
5
7B
100
AcDbEntity
8
pin_contacts
6
ByLayer
62
256
370
-1
100
AcDbCircle
10
2.23
20
12.744
40
0.87
0
CIRCLE
5
7C
100
AcDbEntity
8
pin_contacts
6
ByLayer
62
256
370
-1
100
AcDbCircle
10
4.77
20
12.744
40
0.87
0
CIRCLE
5
7D
100
AcDbEntity
8
pin_contacts
6
ByLayer
62
256
370
-1
100
AcDbCircle
10
9.23
20
12.744
40
0.87
0
CIRCLE
5
7E
100
AcDbEntity
8
pin_contacts
6
ByLayer
62
256
370
-1
100
AcDbCircle
10
11.77
20
12.744
40
0.87
0
LWPOLYLINE
5
7F
100
AcDbEntity
8
safety_border
6
ByLayer
62
256
370
-1
100
AcDbPolyline
90
4
70
1
43
0
10
-10
20
-10
10
10
20
-10
10
10
20
10
10
-10
20
10
0
CIRCLE
5
80
100
AcDbEntity
8
measurement-mask
6
ByLayer
62
256
370
-1
100
AcDbCircle
10
-7.02725831144
20
4.9709273988
40
1.72
0
CIRCLE
5
81
100
AcDbEntity
8
measurement-mask
6
ByLayer
62
256
370
-1
100
AcDbCircle
10
-2.349154095
20
6.5224485402
40
1.72
0
CIRCLE
5
82
100
AcDbEntity
8
measurement-mask
6
ByLayer
62
256
370
-1
100
AcDbCircle
10
2.3465837324
20
4.958572343
40
1.72
0
CIRCLE
5
83
100
AcDbEntity
8
measurement-mask
6
ByLayer
62
256
370
-1
100
AcDbCircle
10
7.0218106094
20
6.5362627257
40
1.72
0
CIRCLE
5
84
100
AcDbEntity
8
measurement-mask
6
ByLayer
62
256
370
-1
100
AcDbCircle
10
-7.02181060944
20
-6.53626272572
40
1.72
0
CIRCLE
5
85
100
AcDbEntity
8
measurement-mask
6
ByLayer
62
256
370
-1
100
AcDbCircle
10
-2.3465837324
20
-4.95857234296
40
1.72
0
CIRCLE
5
86
100
AcDbEntity
8
measurement-mask
6
ByLayer
62
256
370
-1
100
AcDbCircle
10
2.349154095
20
-6.52244854019
40
1.72
0
CIRCLE
5
87
100
AcDbEntity
8
measurement-mask
6
ByLayer
62
256
370
-1
100
AcDbCircle
10
7.0272583114
20
-4.97092739884
40
1.72
0
ARC
5
88
100
AcDbEntity
8
metal_layer_evap_OTRACE
6
ByLayer
62
256
370
-1
100
AcDbCircle
10
2.3465837324
20
4.958572343
40
1.97
100
AcDbArc
50
96.35928097
51
66.953454306
0
LINE
5
89
100
AcDbEntity
8
encapsulation
6
ByLayer
62
256
370
-1
100
AcDbLine
10
-11
20
-11
11
11
21
-11
0
LINE
5
8A
100
AcDbEntity
8
encapsulation
6
ByLayer
62
256
370
-1
100
AcDbLine
10
11
20
-11
11
11
21
11
0
LINE
5
8B
100
AcDbEntity
8
encapsulation
6
ByLayer
62
256
370
-1
100
AcDbLine
10
11
20
11
11
-11
21
11
0
LINE
5
8C
100
AcDbEntity
8
encapsulation
6
ByLayer
62
256
370
-1
100
AcDbLine
10
-11
20
11
11
-11
21
-11
0
LINE
5
8D
100
AcDbEntity
8
encapsulation
6
ByLayer
62
256
370
-1
100
AcDbLine
10
10
20
10
11
-10
21
10
0
LINE
5
8E
100
AcDbEntity
8
encapsulation
6
ByLayer
62
256
370
-1
100
AcDbLine
10
-10
20
10
11
-10
21
-10
0
LINE
5
8F
100
AcDbEntity
8
encapsulation
6
ByLayer
62
256
370
-1
100
AcDbLine
10
-10
20
-10
11
10
21
-10
0
LINE
5
90
100
AcDbEntity
8
encapsulation
6
ByLayer
62
256
370
-1
100
AcDbLine
10
10
20
-10
11
10
21
10
0
LINE
5
91
100
AcDbEntity
8
alternative1_TCO
6
ByLayer
62
256
370
-1
100
AcDbLine
10
-14
20
-9
11
14
21
-9
0
LINE
5
92
100
AcDbEntity
8
alternative1_TCO
6
ByLayer
62
256
370
-1
100
AcDbLine
10
-14
20
9
11
-14
21
-9
0
LINE
5
93
100
AcDbEntity
8
alternative1_TCO
6
ByLayer
62
256
370
-1
100
AcDbLine
10
14
20
-9
11
14
21
9
0
LINE
5
94
100
AcDbEntity
8
alternative1_TCO
6
ByLayer
62
256
370
-1
100
AcDbLine
10
14
20
9
11
-14
21
9
0
LINE
5
95
100
AcDbEntity
8
alternative1_active_layer_evap
6
ByLayer
62
256
370
-1
100
AcDbLine
10
-9.5
20
-9.5
11
9.5
21
-9.5
0
LINE
5
96
100
AcDbEntity
8
alternative1_active_layer_evap
6
ByLayer
62
256
370
-1
100
AcDbLine
10
9.5
20
-9.5
11
9.5
21
-2
0
LINE
5
97
100
AcDbEntity
8
alternative1_active_layer_evap
6
ByLayer
62
256
370
-1
100
AcDbLine
10
9.5
20
-2
11
-9.5
21
-2
0
LINE
5
98
100
AcDbEntity
8
alternative1_active_layer_evap
6
ByLayer
62
256
370
-1
100
AcDbLine
10
-9.5
20
-2
11
-9.5
21
-9.5
0
LINE
5
99
100
AcDbEntity
8
alternative1_active_layer_evap
6
ByLayer
62
256
370
-1
100
AcDbLine
10
-9.5
20
9.5
11
9.5
21
9.5
0
LINE
5
9A
100
AcDbEntity
8
alternative1_active_layer_evap
6
ByLayer
62
256
370
-1
100
AcDbLine
10
9.5
20
9.5
11
9.5
21
2
0
LINE
5
9B
100
AcDbEntity
8
alternative1_active_layer_evap
6
ByLayer
62
256
370
-1
100
AcDbLine
10
9.5
20
2
11
-9.5
21
2
0
LINE
5
9C
100
AcDbEntity
8
alternative1_active_layer_evap
6
ByLayer
62
256
370
-1
100
AcDbLine
10
-9.5
20
2
11
-9.5
21
9.5
0
ARC
5
9D
100
AcDbEntity
8
holder
6
ByLayer
62
256
370
-1
100
AcDbCircle
10
-122.45
20
22.45
40
5
100
AcDbArc
50
90
51
180
0
LINE
5
9E
100
AcDbEntity
8
holder
6
ByLayer
62
256
370
-1
100
AcDbLine
10
-122.45
20
27.45
11
-77.55
21
27.45
0
ARC
5
9F
100
AcDbEntity
8
holder
6
ByLayer
62
256
370
-1
100
AcDbCircle
10
-77.55
20
22.45
40
5
100
AcDbArc
50
0
51
90
0
LINE
5
A0
100
AcDbEntity
8
holder
6
ByLayer
62
256
370
-1
100
AcDbLine
10
-72.55
20
-22.45
11
-72.55
21
22.45
0
ARC
5
A1
100
AcDbEntity
8
holder
6
ByLayer
62
256
370
-1
100
AcDbCircle
10
-77.55
20
-22.45
40
5
100
AcDbArc
50
270
51
0
0
LINE
5
A2
100
AcDbEntity
8
holder
6
ByLayer
62
256
370
-1
100
AcDbLine
10
-122.45
20
-27.45
11
-77.55
21
-27.45
0
LINE
5
A3
100
AcDbEntity
8
holder
6
ByLayer
62
256
370
-1
100
AcDbLine
10
-127.45
20
22.45
11
-127.45
21
-22.45
0
ARC
5
A4
100
AcDbEntity
8
holder
6
ByLayer
62
256
370
-1
100
AcDbCircle
10
-122.45
20
-22.45
40
5
100
AcDbArc
50
180
51
270
0
ARC
5
A5
100
AcDbEntity
8
metal_layer_evap_OTRACE
6
ByLayer
62
256
370
-1
100
AcDbCircle
10
7.0218109068
20
6.5362628489
40
1
100
AcDbArc
50
102.131329393
51
42.1313293932
0
ARC
5
A6
100
AcDbEntity
8
metal_layer_evap_OTRACE
6
ByLayer
62
256
370
-1
100
AcDbCircle
10
-2.3465837324
20
-4.958572343
40
1.97
100
AcDbArc
50
276.35928097
51
246.953454306
0
ARC
5
A7
100
AcDbEntity
8
metal_layer_evap_OTRACE
6
ByLayer
62
256
370
-1
100
AcDbCircle
10
-7.0218109068
20
-6.5362628489
40
1
100
AcDbArc
50
282.131329393
51
222.131329393
0
LINE
5
A8
100
AcDbEntity
8
metal_layer_evap_OTRACE
6
ByLayer
62
256
370
-1
100
AcDbLine
10
-11.0011089353
20
-1
11
10.9999472312
21
-1
0
LINE
5
A9
100
AcDbEntity
8
metal_layer_evap_OTRACE
6
ByLayer
62
256
370
-1
100
AcDbLine
10
10.9999472312
20
-1
11
10.9999472312
21
-1.9999995319
0
LINE
5
AA
100
AcDbEntity
8
metal_layer_evap_OTRACE
6
ByLayer
62
256
370
-1
100
AcDbLine
10
10.9999472312
20
1.9999998533
11
10.9999472312
21
1.0002344035
0
LINE
5
AB
100
AcDbEntity
8
metal_layer_evap_OTRACE
6
ByLayer
62
256
370
-1
100
AcDbLine
10
10.9999472312
20
1.0002344035
11
-11.0011089353
21
1.0002344035
0
LINE
5
AC
100
AcDbEntity
8
metal_layer_evap_OTRACE
6
ByLayer
62
256
370
-1
100
AcDbLine
10
-11.0011089353
20
1.0002344035
11
-11.0011089353
21
2
0
LINE
5
AD
100
AcDbEntity
8
metal_layer_evap_OTRACE
6
ByLayer
62
256
370
-1
100
AcDbLine
10
-11.0011089353
20
-1.9999993851
11
-11.0011089353
21
-1
0
CIRCLE
5
AE
100
AcDbEntity
8
pin_contacts
6
ByLayer
62
256
370
-1
100
AcDbCircle
10
-112.73
20
14.0000045
40
0.87
0
CIRCLE
5
AF
100
AcDbEntity
8
pin_contacts
6
ByLayer
62
256
370
-1
100
AcDbCircle
10
-87.27
20
14.0000045
40
0.87
0
CIRCLE
5
B0
100
AcDbEntity
8
pin_contacts
6
ByLayer
62
256
370
-1
100
AcDbCircle
10
-111.78
20
1.2560045
40
0.87
0
CIRCLE
5
B1
100
AcDbEntity
8
pin_contacts
6
ByLayer
62
256
370
-1
100
AcDbCircle
10
-109.22
20
1.2560045
40
0.87
0
CIRCLE
5
B2
100
AcDbEntity
8
pin_contacts
6
ByLayer
62
256
370
-1
100
AcDbCircle
10
-104.77
20
1.2560045
40
0.87
0
CIRCLE
5
B3
100
AcDbEntity
8
pin_contacts
6
ByLayer
62
256
370
-1
100
AcDbCircle
10
-102.24
20
1.2560045
40
0.87
0
CIRCLE
5
B4
100
AcDbEntity
8
pin_contacts
6
ByLayer
62
256
370
-1
100
AcDbCircle
10
-97.77
20
1.2560045
40
0.87
0
CIRCLE
5
B5
100
AcDbEntity
8
pin_contacts
6
ByLayer
62
256
370
-1
100
AcDbCircle
10
-95.23
20
1.2560045
40
0.87
0
CIRCLE
5
B6
100
AcDbEntity
8
pin_contacts
6
ByLayer
62
256
370
-1
100
AcDbCircle
10
-90.77
20
1.2560045
40
0.87
0
CIRCLE
5
B7
100
AcDbEntity
8
pin_contacts
6
ByLayer
62
256
370
-1
100
AcDbCircle
10
-88.23
20
1.2560045
40
0.87
0
CIRCLE
5
B8
100
AcDbEntity
8
pin_contacts
6
ByLayer
62
256
370
-1
100
AcDbCircle
10
-111.78
20
26.7440045
40
0.87
0
CIRCLE
5
B9
100
AcDbEntity
8
pin_contacts
6
ByLayer
62
256
370
-1
100
AcDbCircle
10
-109.22
20
26.7440045
40
0.87
0
CIRCLE
5
BA
100
AcDbEntity
8
pin_contacts
6
ByLayer
62
256
370
-1
100
AcDbCircle
10
-104.77
20
26.7440045
40
0.87
0
CIRCLE
5
BB
100
AcDbEntity
8
pin_contacts
6
ByLayer
62
256
370
-1
100
AcDbCircle
10
-102.24
20
26.7440045
40
0.87
0
CIRCLE
5
BC
100
AcDbEntity
8
pin_contacts
6
ByLayer
62
256
370
-1
100
AcDbCircle
10
-97.77
20
26.7440045
40
0.87
0
CIRCLE
5
BD
100
AcDbEntity
8
pin_contacts
6
ByLayer
62
256
370
-1
100
AcDbCircle
10
-95.23
20
26.7440045
40
0.87
0
CIRCLE
5
BE
100
AcDbEntity
8
pin_contacts
6
ByLayer
62
256
370
-1
100
AcDbCircle
10
-90.77
20
26.7440045
40
0.87
0
CIRCLE
5
BF
100
AcDbEntity
8
pin_contacts
6
ByLayer
62
256
370
-1
100
AcDbCircle
10
-88.23
20
26.7440045
40
0.87
0
LWPOLYLINE
5
C0
100
AcDbEntity
8
TCO
6
ByLayer
62
1
370
-1
100
AcDbPolyline
90
4
70
1
43
0
10
-114.000337306
20
23.4999857815
10
-113.999999992
20
4.50000450498
10
-86.0000871196
20
4.50011605015
10
-86.0000000969
20
23.5000045512
0
LWPOLYLINE
5
C1
100
AcDbEntity
8
safety_border
6
ByLayer
62
256
370
-1
100
AcDbPolyline
90
4
70
1
43
0
10
-110
20
4.0000045
10
-90
20
4.0000045
10
-90
20
24.0000045
10
-110
20
24.0000045
0
CIRCLE
5
C2
100
AcDbEntity
8
measurement-mask
6
ByLayer
62
256
370
-1
100
AcDbCircle
10
-107.027258311
20
18.9709318988
40
1.72
0
CIRCLE
5
C3
100
AcDbEntity
8
measurement-mask
6
ByLayer
62
256
370
-1
100
AcDbCircle
10
-102.349154095
20
20.5224530402
40
1.72
0
CIRCLE
5
C4
100
AcDbEntity
8
measurement-mask
6
ByLayer
62
256
370
-1
100
AcDbCircle
10
-97.6534162676
20
18.958576843
40
1.72
0
CIRCLE
5
C5
100
AcDbEntity
8
measurement-mask
6
ByLayer
62
256
370
-1
100
AcDbCircle
10
-92.9781893906
20
20.5362672257
40
1.72
0
CIRCLE
5
C6
100
AcDbEntity
8
measurement-mask
6
ByLayer
62
256
370
-1
100
AcDbCircle
10
-107.021810609
20
7.46374177428
40
1.72
0
CIRCLE
5
C7
100
AcDbEntity
8
measurement-mask
6
ByLayer
62
256
370
-1
100
AcDbCircle
10
-102.346583732
20
9.04143215704
40
1.72
0
CIRCLE
5
C8
100
AcDbEntity
8
measurement-mask
6
ByLayer
62
256
370
-1
100
AcDbCircle
10
-97.650845905
20
7.47755595981
40
1.72
0
CIRCLE
5
C9
100
AcDbEntity
8
measurement-mask
6
ByLayer
62
256
370
-1
100
AcDbCircle
10
-92.9727416886
20
9.02907710116
40
1.72
0
LINE
5
CA
100
AcDbEntity
8
active_layer_evap_std
6
ByLayer
62
256
370
-1
100
AcDbLine
10
-110
20
16.0000045
11
-110
21
24.0000045
0
LINE
5
CB
100
AcDbEntity
8
active_layer_evap_std
6
ByLayer
62
256
370
-1
100
AcDbLine
10
-90
20
16.0000045
11
-90
21
24.0000045
0
LINE
5
CC
100
AcDbEntity
8
active_layer_evap_std
6
ByLayer
62
256
370
-1
100
AcDbLine
10
-110
20
12.0000045
11
-110
21
4.0000045
0
LINE
5
CD
100
AcDbEntity
8
active_layer_evap_std
6
ByLayer
62
256
370
-1
100
AcDbLine
10
-90
20
12.0000045
11
-90
21
4.0000045
0
LINE
5
CE
100
AcDbEntity
8
active_layer_evap_std
6
ByLayer
62
256
370
-1
100
AcDbLine
10
-110
20
24.0000045
11
-90
21
24.0000045
0
LINE
5
CF
100
AcDbEntity
8
active_layer_evap_std
6
ByLayer
62
256
370
-1
100
AcDbLine
10
-110
20
16.0000045
11
-90
21
16.0000045
0
LINE
5
D0
100
AcDbEntity
8
active_layer_evap_std
6
ByLayer
62
256
370
-1
100
AcDbLine
10
-110
20
12.0000045
11
-90
21
12.0000045
0
LINE
5
D1
100
AcDbEntity
8
active_layer_evap_std
6
ByLayer
62
256
370
-1
100
AcDbLine
10
-90
20
4.0000045
11
-110
21
4.0000045
0
ARC
5
D2
100
AcDbEntity
8
metal_layer_evap_std
6
ByLayer
62
256
370
-1
100
AcDbCircle
10
-102.349154095
20
20.5224530402
40
1.97
100
AcDbArc
50
116.397906298
51
87.0251978726
0
ARC
5
D3
100
AcDbEntity
8
metal_layer_evap_std
6
ByLayer
62
256
370
-1
100
AcDbCircle
10
-97.6534162676
20
18.958576843
40
1.97
100
AcDbArc
50
96.359280969
51
66.9534543035
0
ARC
5
D4
100
AcDbEntity
8
metal_layer_evap_std
6
ByLayer
62
256
370
-1
100
AcDbCircle
10
-97.650845905
20
7.4775559598
40
1.97
100
AcDbArc
50
296.397906298
51
267.025197873
0
ARC
5
D5
100
AcDbEntity
8
metal_layer_evap_std
6
ByLayer
62
256
370
-1
100
AcDbCircle
10
-102.346583732
20
9.041432157
40
1.97
100
AcDbArc
50
276.359280969
51
246.953454303
0
LINE
5
D6
100
AcDbEntity
8
0
6
ByLayer
62
256
370
-1
100
AcDbLine
10
-114
20
4.4999999993e-06
11
-86
21
4.4999999993e-06
0
LINE
5
D7
100
AcDbEntity
8
0
6
ByLayer
62
256
370
-1
100
AcDbLine
10
-86
20
4.4999999993e-06
11
-86
21
28.0000045
0
LINE
5
D8
100
AcDbEntity
8
0
6
ByLayer
62
256
370
-1
100
AcDbLine
10
-86
20
28.0000045
11
-114
21
28.0000045
0
LINE
5
D9
100
AcDbEntity
8
0
6
ByLayer
62
256
370
-1
100
AcDbLine
10
-114
20
28.0000045
11
-114
21
4.4999999993e-06
0
CIRCLE
5
DA
100
AcDbEntity
8
pin_contacts
6
ByLayer
62
256
370
-1
100
AcDbCircle
10
-112.73
20
-13.9999955
40
0.87
0
CIRCLE
5
DB
100
AcDbEntity
8
pin_contacts
6
ByLayer
62
256
370
-1
100
AcDbCircle
10
-87.27
20
-13.9999955
40
0.87
0
CIRCLE
5
DC
100
AcDbEntity
8
pin_contacts
6
ByLayer
62
256
370
-1
100
AcDbCircle
10
-111.78
20
-26.7439955
40
0.87
0
CIRCLE
5
DD
100
AcDbEntity
8
pin_contacts
6
ByLayer
62
256
370
-1
100
AcDbCircle
10
-109.22
20
-26.7439955
40
0.87
0
CIRCLE
5
DE
100
AcDbEntity
8
pin_contacts
6
ByLayer
62
256
370
-1
100
AcDbCircle
10
-104.77
20
-26.7439955
40
0.87
0
CIRCLE
5
DF
100
AcDbEntity
8
pin_contacts
6
ByLayer
62
256
370
-1
100
AcDbCircle
10
-102.24
20
-26.7439955
40
0.87
0
CIRCLE
5
E0
100
AcDbEntity
8
pin_contacts
6
ByLayer
62
256
370
-1
100
AcDbCircle
10
-97.77
20
-26.7439955
40
0.87
0
CIRCLE
5
E1
100
AcDbEntity
8
pin_contacts
6
ByLayer
62
256
370
-1
100
AcDbCircle
10
-95.23
20
-26.7439955
40
0.87
0
CIRCLE
5
E2
100
AcDbEntity
8
pin_contacts
6
ByLayer
62
256
370
-1
100
AcDbCircle
10
-90.77
20
-26.7439955
40
0.87
0
CIRCLE
5
E3
100
AcDbEntity
8
pin_contacts
6
ByLayer
62
256
370
-1
100
AcDbCircle
10
-88.23
20
-26.7439955
40
0.87
0
CIRCLE
5
E4
100
AcDbEntity
8
pin_contacts
6
ByLayer
62
256
370
-1
100
AcDbCircle
10
-111.78
20
-1.2559955
40
0.87
0
CIRCLE
5
E5
100
AcDbEntity
8
pin_contacts
6
ByLayer
62
256
370
-1
100
AcDbCircle
10
-109.22
20
-1.2559955
40
0.87
0
CIRCLE
5
E6
100
AcDbEntity
8
pin_contacts
6
ByLayer
62
256
370
-1
100
AcDbCircle
10
-104.77
20
-1.2559955
40
0.87
0
CIRCLE
5
E7
100
AcDbEntity
8
pin_contacts
6
ByLayer
62
256
370
-1
100
AcDbCircle
10
-102.24
20
-1.2559955
40
0.87
0
CIRCLE
5
E8
100
AcDbEntity
8
pin_contacts
6
ByLayer
62
256
370
-1
100
AcDbCircle
10
-97.77
20
-1.2559955
40
0.87
0
CIRCLE
5
E9
100
AcDbEntity
8
pin_contacts
6
ByLayer
62
256
370
-1
100
AcDbCircle
10
-95.23
20
-1.2559955
40
0.87
0
CIRCLE
5
EA
100
AcDbEntity
8
pin_contacts
6
ByLayer
62
256
370
-1
100
AcDbCircle
10
-90.77
20
-1.2559955
40
0.87
0
CIRCLE
5
EB
100
AcDbEntity
8
pin_contacts
6
ByLayer
62
256
370
-1
100
AcDbCircle
10
-88.23
20
-1.2559955
40
0.87
0
LWPOLYLINE
5
EC
100
AcDbEntity
8
TCO
6
ByLayer
62
1
370
-1
100
AcDbPolyline
90
4
70
1
43
0
10
-114.000337306
20
-4.5000142185
10
-113.999999992
20
-23.499995495
10
-86.0000871196
20
-23.4998839499
10
-86.0000000969
20
-4.4999954488
0
LWPOLYLINE
5
ED
100
AcDbEntity
8
safety_border
6
ByLayer
62
256
370
-1
100
AcDbPolyline
90
4
70
1
43
0
10
-110
20
-23.9999955
10
-90
20
-23.9999955
10
-90
20
-3.9999955
10
-110
20
-3.9999955
0
CIRCLE
5
EE
100
AcDbEntity
8
measurement-mask
6
ByLayer
62
256
370
-1
100
AcDbCircle
10
-107.027258311
20
-9.0290681012
40
1.72
0
CIRCLE
5
EF
100
AcDbEntity
8
measurement-mask
6
ByLayer
62
256
370
-1
100
AcDbCircle
10
-102.349154095
20
-7.4775469598
40
1.72
0
CIRCLE
5
F0
100
AcDbEntity
8
measurement-mask
6
ByLayer
62
256
370
-1
100
AcDbCircle
10
-97.6534162676
20
-9.041423157
40
1.72
0
CIRCLE
5
F1
100
AcDbEntity
8
measurement-mask
6
ByLayer
62
256
370
-1
100
AcDbCircle
10
-92.9781893906
20
-7.4637327743
40
1.72
0
CIRCLE
5
F2
100
AcDbEntity
8
measurement-mask
6
ByLayer
62
256
370
-1
100
AcDbCircle
10
-107.021810609
20
-20.5362582257
40
1.72
0
CIRCLE
5
F3
100
AcDbEntity
8
measurement-mask
6
ByLayer
62
256
370
-1
100
AcDbCircle
10
-102.346583732
20
-18.958567843
40
1.72
0
CIRCLE
5
F4
100
AcDbEntity
8
measurement-mask
6
ByLayer
62
256
370
-1
100
AcDbCircle
10
-97.650845905
20
-20.5224440402
40
1.72
0
CIRCLE
5
F5
100
AcDbEntity
8
measurement-mask
6
ByLayer
62
256
370
-1
100
AcDbCircle
10
-92.9727416886
20
-18.9709228988
40
1.72
0
LINE
5
F6
100
AcDbEntity
8
active_layer_evap_std
6
ByLayer
62
256
370
-1
100
AcDbLine
10
-110
20
-11.9999955
11
-110
21
-3.9999955
0
LINE
5
F7
100
AcDbEntity
8
active_layer_evap_std
6
ByLayer
62
256
370
-1
100
AcDbLine
10
-90
20
-11.9999955
11
-90
21
-3.9999955
0
LINE
5
F8
100
AcDbEntity
8
active_layer_evap_std
6
ByLayer
62
256
370
-1
100
AcDbLine
10
-110
20
-15.9999955
11
-110
21
-23.9999955
0
LINE
5
F9
100
AcDbEntity
8
active_layer_evap_std
6
ByLayer
62
256
370
-1
100
AcDbLine
10
-90
20
-15.9999955
11
-90
21
-23.9999955
0
LINE
5
FA
100
AcDbEntity
8
active_layer_evap_std
6
ByLayer
62
256
370
-1
100
AcDbLine
10
-110
20
-3.9999955
11
-90
21
-3.9999955
0
LINE
5
FB
100
AcDbEntity
8
active_layer_evap_std
6
ByLayer
62
256
370
-1
100
AcDbLine
10
-110
20
-11.9999955
11
-90
21
-11.9999955
0
LINE
5
FC
100
AcDbEntity
8
active_layer_evap_std
6
ByLayer
62
256
370
-1
100
AcDbLine
10
-110
20
-15.9999955
11
-90
21
-15.9999955
0
LINE
5
FD
100
AcDbEntity
8
active_layer_evap_std
6
ByLayer
62
256
370
-1
100
AcDbLine
10
-90
20
-23.9999955
11
-110
21
-23.9999955
0
ARC
5
FE
100
AcDbEntity
8
metal_layer_evap_std
6
ByLayer
62
256
370
-1
100
AcDbCircle
10
-102.349154095
20
-7.4775469598
40
1.97
100
AcDbArc
50
116.397906298
51
87.0251978726
0
ARC
5
FF
100
AcDbEntity
8
metal_layer_evap_std
6
ByLayer
62
256
370
-1
100
AcDbCircle
10
-97.6534162676
20
-9.041423157
40
1.97
100
AcDbArc
50
96.359280969
51
66.9534543035
0
ARC
5
100
100
AcDbEntity
8
metal_layer_evap_std
6
ByLayer
62
256
370
-1
100
AcDbCircle
10
-97.650845905
20
-20.5224440402
40
1.97
100
AcDbArc
50
296.397906298
51
267.025197873
0
ARC
5
101
100
AcDbEntity
8
metal_layer_evap_std
6
ByLayer
62
256
370
-1
100
AcDbCircle
10
-102.346583732
20
-18.958567843
40
1.97
100
AcDbArc
50
276.359280969
51
246.953454303
0
LINE
5
102
100
AcDbEntity
8
0
6
ByLayer
62
256
370
-1
100
AcDbLine
10
-114
20
-27.9999955
11
-86
21
-27.9999955
0
LINE
5
103
100
AcDbEntity
8
0
6
ByLayer
62
256
370
-1
100
AcDbLine
10
-86
20
-27.9999955
11
-86
21
4.4999999993e-06
0
LINE
5
104
100
AcDbEntity
8
0
6
ByLayer
62
256
370
-1
100
AcDbLine
10
-86
20
4.4999999993e-06
11
-114
21
4.4999999993e-06
0
LINE
5
105
100
AcDbEntity
8
0
6
ByLayer
62
256
370
-1
100
AcDbLine
10
-114
20
4.4999999993e-06
11
-114
21
-27.9999955
0
LINE
5
106
100
AcDbEntity
8
metal_layer_evap_std
6
ByLayer
62
256
370
-1
100
AcDbLine
10
-108
20
-27.45
11
-113
21
-27.45
0
LINE
5
107
100
AcDbEntity
8
metal_layer_evap_std
6
ByLayer
62
256
370
-1
100
AcDbLine
10
-101
20
-27.45
11
-106
21
-27.45
0
LINE
5
108
100
AcDbEntity
8
metal_layer_evap_std
6
ByLayer
62
256
370
-1
100
AcDbLine
10
-94
20
-27.45
11
-99
21
-27.45
0
LINE
5
109
100
AcDbEntity
8
metal_layer_evap_std
6
ByLayer
62
256
370
-1
100
AcDbLine
10
-92
20
-27.45
11
-87
21
-27.45
0
LINE
5
10A
100
AcDbEntity
8
metal_layer_evap_std
6
ByLayer
62
256
370
-1
100
AcDbLine
10
-92
20
27.45
11
-87
21
27.45
0
LINE
5
10B
100
AcDbEntity
8
metal_layer_evap_std
6
ByLayer
62
256
370
-1
100
AcDbLine
10
-99
20
27.45
11
-94
21
27.45
0
CIRCLE
5
10C
100
AcDbEntity
8
metal_layer_evap_OTRACE
6
ByLayer
62
256
370
-1
100
AcDbCircle
10
-11.6
20
-10.35
40
0.55
0
ARC
5
10D
100
AcDbEntity
8
metal_layer_evap_OTRACE
6
ByLayer
62
256
370
-1
100
AcDbCircle
10
-2.349154095
20
6.5224485402
40
1.4
100
AcDbArc
50
122.827957636
51
81.0355648725
0
LINE
5
10E
100
AcDbEntity
8
metal_layer_evap_OTRACE
6
ByLayer
62
256
370
-1
100
AcDbLine
10
-8.14508650887
20
7.5
11
-7.11706543294
21
7.5
0
LINE
5
10F
100
AcDbEntity
8
metal_layer_evap_OTRACE
6
ByLayer
62
256
370
-1
100
AcDbLine
10
-11.0011089353
20
2
11
-12
21
2
0
LINE
5
110
100
AcDbEntity
8
metal_layer_evap_OTRACE
6
ByLayer
62
256
370
-1
100
AcDbLine
10
-14
20
6
11
-12
21
6
0
LINE
5
111
100
AcDbEntity
8
metal_layer_evap_OTRACE
6
ByLayer
62
256
370
-1
100
AcDbLine
10
-12
20
6
11
-12
21
2
0
LINE
5
112
100
AcDbEntity
8
metal_layer_evap_OTRACE
6
ByLayer
62
256
370
-1
100
AcDbLine
10
-14
20
6
11
-14
21
-6
0
LINE
5
113
100
AcDbEntity
8
metal_layer_evap_OTRACE
6
ByLayer
62
256
370
-1
100
AcDbLine
10
-12
20
-2
11
-11.0011089353
21
-1.9999993851
0
LINE
5
114
100
AcDbEntity
8
metal_layer_evap_OTRACE
6
ByLayer
62
256
370
-1
100
AcDbLine
10
-14
20
-6
11
-12
21
-6
0
LINE
5
115
100
AcDbEntity
8
metal_layer_evap_OTRACE
6
ByLayer
62
256
370
-1
100
AcDbLine
10
-12
20
-6
11
-12
21
-2
0
LINE
5
116
100
AcDbEntity
8
metal_layer_evap_OTRACE
6
ByLayer
62
256
370
-1
100
AcDbLine
10
14
20
-6
11
14
21
6
0
LINE
5
117
100
AcDbEntity
8
metal_layer_evap_OTRACE
6
ByLayer
62
256
370
-1
100
AcDbLine
10
10.9999472312
20
-1.9999995319
11
12
21
-2
0
LINE
5
118
100
AcDbEntity
8
metal_layer_evap_OTRACE
6
ByLayer
62
256
370
-1
100
AcDbLine
10
12
20
2
11
10.9999472312
21
1.9999998533
0
LINE
5
119
100
AcDbEntity
8
metal_layer_evap_OTRACE
6
ByLayer
62
256
370
-1
100
AcDbLine
10
12
20
2
11
12
21
6
0
LINE
5
11A
100
AcDbEntity
8
metal_layer_evap_OTRACE
6
ByLayer
62
256
370
-1
100
AcDbLine
10
12
20
6
11
14
21
6
0
LINE
5
11B
100
AcDbEntity
8
metal_layer_evap_OTRACE
6
ByLayer
62
256
370
-1
100
AcDbLine
10
12
20
-2
11
12
21
-6
0
LINE
5
11C
100
AcDbEntity
8
metal_layer_evap_OTRACE
6
ByLayer
62
256
370
-1
100
AcDbLine
10
12
20
-6
11
14
21
-6
0
ARC
5
11D
100
AcDbEntity
8
metal_layer_evap_OTRACE
6
ByLayer
62
256
370
-1
100
AcDbCircle
10
2.349154095
20
-6.5224485402
40
1.4
100
AcDbArc
50
302.827957636
51
261.035564872
0
LINE
5
11E
100
AcDbEntity
8
metal_layer_evap_OTRACE
6
ByLayer
62
256
370
-1
100
AcDbLine
10
7.11706543294
20
-7.5
11
8.14508650887
21
-7.5
0
CIRCLE
5
11F
100
AcDbEntity
8
metal_layer_evap_std
6
ByLayer
62
256
370
-1
100
AcDbCircle
10
-111.6
20
3.65
40
0.55
0
CIRCLE
5
120
100
AcDbEntity
8
metal_layer_evap_std
6
ByLayer
62
256
370
-1
100
AcDbCircle
10
-111.6
20
-24.35
40
0.55
0
LINE
5
121
100
AcDbEntity
8
metal_layer_evap_std
6
ByLayer
62
256
370
-1
100
AcDbLine
10
-88.95
20
24.45
11
-88.6
21
24.45
0
LINE
5
122
100
AcDbEntity
8
metal_layer_evap_std
6
ByLayer
62
256
370
-1
100
AcDbLine
10
-88.6
20
24.45
11
-88.6
21
24.8
0
LINE
5
123
100
AcDbEntity
8
metal_layer_evap_std
6
ByLayer
62
256
370
-1
100
AcDbLine
10
-88.6
20
24.8
11
-88.3
21
24.8
0
LINE
5
124
100
AcDbEntity
8
metal_layer_evap_std
6
ByLayer
62
256
370
-1
100
AcDbLine
10
-88.3
20
24.8
11
-88.3
21
24.45
0
LINE
5
125
100
AcDbEntity
8
metal_layer_evap_std
6
ByLayer
62
256
370
-1
100
AcDbLine
10
-88.3
20
24.45
11
-87.95
21
24.45
0
LINE
5
126
100
AcDbEntity
8
metal_layer_evap_std
6
ByLayer
62
256
370
-1
100
AcDbLine
10
-87.95
20
24.45
11
-87.95
21
24.15
0
LINE
5
127
100
AcDbEntity
8
metal_layer_evap_std
6
ByLayer
62
256
370
-1
100
AcDbLine
10
-87.95
20
24.15
11
-88.3
21
24.15
0
LINE
5
128
100
AcDbEntity
8
metal_layer_evap_std
6
ByLayer
62
256
370
-1
100
AcDbLine
10
-88.3
20
24.15
11
-88.3
21
23.8
0
LINE
5
129
100
AcDbEntity
8
metal_layer_evap_std
6
ByLayer
62
256
370
-1
100
AcDbLine
10
-88.3
20
23.8
11
-88.6
21
23.8
0
LINE
5
12A
100
AcDbEntity
8
metal_layer_evap_std
6
ByLayer
62
256
370
-1
100
AcDbLine
10
-88.6
20
23.8
11
-88.6
21
24.15
0
LINE
5
12B
100
AcDbEntity
8
metal_layer_evap_std
6
ByLayer
62
256
370
-1
100
AcDbLine
10
-88.6
20
24.15
11
-88.95
21
24.15
0
LINE
5
12C
100
AcDbEntity
8
metal_layer_evap_std
6
ByLayer
62
256
370
-1
100
AcDbLine
10
-88.95
20
24.15
11
-88.95
21
24.45
0
LINE
5
12D
100
AcDbEntity
8
metal_layer_evap_std
6
ByLayer
62
256
370
-1
100
AcDbLine
10
-88.95
20
-3.55
11
-88.6
21
-3.55
0
LINE
5
12E
100
AcDbEntity
8
metal_layer_evap_std
6
ByLayer
62
256
370
-1
100
AcDbLine
10
-88.6
20
-3.55
11
-88.6
21
-3.2
0
LINE
5
12F
100
AcDbEntity
8
metal_layer_evap_std
6
ByLayer
62
256
370
-1
100
AcDbLine
10
-88.6
20
-3.2
11
-88.3
21
-3.2
0
LINE
5
130
100
AcDbEntity
8
metal_layer_evap_std
6
ByLayer
62
256
370
-1
100
AcDbLine
10
-88.3
20
-3.2
11
-88.3
21
-3.55
0
LINE
5
131
100
AcDbEntity
8
metal_layer_evap_std
6
ByLayer
62
256
370
-1
100
AcDbLine
10
-88.3
20
-3.55
11
-87.95
21
-3.55
0
LINE
5
132
100
AcDbEntity
8
metal_layer_evap_std
6
ByLayer
62
256
370
-1
100
AcDbLine
10
-87.95
20
-3.55
11
-87.95
21
-3.85
0
LINE
5
133
100
AcDbEntity
8
metal_layer_evap_std
6
ByLayer
62
256
370
-1
100
AcDbLine
10
-87.95
20
-3.85
11
-88.3
21
-3.85
0
LINE
5
134
100
AcDbEntity
8
metal_layer_evap_std
6
ByLayer
62
256
370
-1
100
AcDbLine
10
-88.3
20
-3.85
11
-88.3
21
-4.2
0
LINE
5
135
100
AcDbEntity
8
metal_layer_evap_std
6
ByLayer
62
256
370
-1
100
AcDbLine
10
-88.3
20
-4.2
11
-88.6
21
-4.2
0
LINE
5
136
100
AcDbEntity
8
metal_layer_evap_std
6
ByLayer
62
256
370
-1
100
AcDbLine
10
-88.6
20
-4.2
11
-88.6
21
-3.85
0
LINE
5
137
100
AcDbEntity
8
metal_layer_evap_std
6
ByLayer
62
256
370
-1
100
AcDbLine
10
-88.6
20
-3.85
11
-88.95
21
-3.85
0
LINE
5
138
100
AcDbEntity
8
metal_layer_evap_std
6
ByLayer
62
256
370
-1
100
AcDbLine
10
-88.95
20
-3.85
11
-88.95
21
-3.55
0
LINE
5
139
100
AcDbEntity
8
alternative1_TCO
6
ByLayer
62
256
370
-1
100
AcDbLine
10
-114
20
5
11
-86
21
5
0
LINE
5
13A
100
AcDbEntity
8
alternative1_TCO
6
ByLayer
62
256
370
-1
100
AcDbLine
10
-86
20
5
11
-86
21
23
0
LINE
5
13B
100
AcDbEntity
8
alternative1_TCO
6
ByLayer
62
256
370
-1
100
AcDbLine
10
-86
20
23
11
-114
21
23
0
LINE
5
13C
100
AcDbEntity
8
alternative1_TCO
6
ByLayer
62
256
370
-1
100
AcDbLine
10
-114
20
23
11
-114
21
5
0
LINE
5
13D
100
AcDbEntity
8
alternative1_TCO
6
ByLayer
62
256
370
-1
100
AcDbLine
10
-114
20
-23
11
-86
21
-23
0
LINE
5
13E
100
AcDbEntity
8
alternative1_TCO
6
ByLayer
62
256
370
-1
100
AcDbLine
10
-86
20
-23
11
-86
21
-5
0
LINE
5
13F
100
AcDbEntity
8
alternative1_TCO
6
ByLayer
62
256
370
-1
100
AcDbLine
10
-86
20
-5
11
-114
21
-5
0
LINE
5
140
100
AcDbEntity
8
alternative1_TCO
6
ByLayer
62
256
370
-1
100
AcDbLine
10
-114
20
-5
11
-114
21
-23
0
LINE
5
141
100
AcDbEntity
8
alternative1_active_layer_evap
6
ByLayer
62
256
370
-1
100
AcDbLine
10
-109.5
20
4.5
11
-90.5
21
4.5
0
LINE
5
142
100
AcDbEntity
8
alternative1_active_layer_evap
6
ByLayer
62
256
370
-1
100
AcDbLine
10
-90.5
20
4.5
11
-90.5
21
12
0
LINE
5
143
100
AcDbEntity
8
alternative1_active_layer_evap
6
ByLayer
62
256
370
-1
100
AcDbLine
10
-90.5
20
12
11
-109.5
21
12
0
LINE
5
144
100
AcDbEntity
8
alternative1_active_layer_evap
6
ByLayer
62
256
370
-1
100
AcDbLine
10
-109.5
20
12
11
-109.5
21
4.5
0
LINE
5
145
100
AcDbEntity
8
alternative1_active_layer_evap
6
ByLayer
62
256
370
-1
100
AcDbLine
10
-90.5
20
16
11
-109.5
21
16
0
LINE
5
146
100
AcDbEntity
8
alternative1_active_layer_evap
6
ByLayer
62
256
370
-1
100
AcDbLine
10
-109.5
20
16
11
-109.5
21
23.5
0
LINE
5
147
100
AcDbEntity
8
alternative1_active_layer_evap
6
ByLayer
62
256
370
-1
100
AcDbLine
10
-109.5
20
23.5
11
-90.5
21
23.5
0
LINE
5
148
100
AcDbEntity
8
alternative1_active_layer_evap
6
ByLayer
62
256
370
-1
100
AcDbLine
10
-90.5
20
23.5
11
-90.5
21
16
0
LINE
5
149
100
AcDbEntity
8
alternative1_active_layer_evap
6
ByLayer
62
256
370
-1
100
AcDbLine
10
-109.5
20
-12
11
-90.5
21
-12
0
LINE
5
14A
100
AcDbEntity
8
alternative1_active_layer_evap
6
ByLayer
62
256
370
-1
100
AcDbLine
10
-90.5
20
-12
11
-90.5
21
-4.5
0
LINE
5
14B
100
AcDbEntity
8
alternative1_active_layer_evap
6
ByLayer
62
256
370
-1
100
AcDbLine
10
-90.5
20
-4.5
11
-109.5
21
-4.5
0
LINE
5
14C
100
AcDbEntity
8
alternative1_active_layer_evap
6
ByLayer
62
256
370
-1
100
AcDbLine
10
-109.5
20
-4.5
11
-109.5
21
-12
0
LINE
5
14D
100
AcDbEntity
8
alternative1_active_layer_evap
6
ByLayer
62
256
370
-1
100
AcDbLine
10
-90.5
20
-16
11
-109.5
21
-16
0
LINE
5
14E
100
AcDbEntity
8
alternative1_active_layer_evap
6
ByLayer
62
256
370
-1
100
AcDbLine
10
-109.5
20
-16
11
-109.5
21
-23.5
0
LINE
5
14F
100
AcDbEntity
8
alternative1_active_layer_evap
6
ByLayer
62
256
370
-1
100
AcDbLine
10
-109.5
20
-23.5
11
-90.5
21
-23.5
0
LINE
5
150
100
AcDbEntity
8
alternative1_active_layer_evap
6
ByLayer
62
256
370
-1
100
AcDbLine
10
-90.5
20
-23.5
11
-90.5
21
-16
0
LINE
5
151
100
AcDbEntity
8
metal_layer_evap_OTRACE
6
ByLayer
62
256
370
-1
100
AcDbLine
10
11.05
20
10.45
11
11.4
21
10.45
0
LINE
5
152
100
AcDbEntity
8
metal_layer_evap_OTRACE
6
ByLayer
62
256
370
-1
100
AcDbLine
10
11.4
20
10.45
11
11.4
21
10.8
0
LINE
5
153
100
AcDbEntity
8
metal_layer_evap_OTRACE
6
ByLayer
62
256
370
-1
100
AcDbLine
10
11.4
20
10.8
11
11.7
21
10.8
0
LINE
5
154
100
AcDbEntity
8
metal_layer_evap_OTRACE
6
ByLayer
62
256
370
-1
100
AcDbLine
10
11.7
20
10.8
11
11.7
21
10.45
0
LINE
5
155
100
AcDbEntity
8
metal_layer_evap_OTRACE
6
ByLayer
62
256
370
-1
100
AcDbLine
10
11.7
20
10.45
11
12.05
21
10.45
0
LINE
5
156
100
AcDbEntity
8
metal_layer_evap_OTRACE
6
ByLayer
62
256
370
-1
100
AcDbLine
10
12.05
20
10.45
11
12.05
21
10.15
0
LINE
5
157
100
AcDbEntity
8
metal_layer_evap_OTRACE
6
ByLayer
62
256
370
-1
100
AcDbLine
10
12.05
20
10.15
11
11.7
21
10.15
0
LINE
5
158
100
AcDbEntity
8
metal_layer_evap_OTRACE
6
ByLayer
62
256
370
-1
100
AcDbLine
10
11.7
20
10.15
11
11.7
21
9.8
0
LINE
5
159
100
AcDbEntity
8
metal_layer_evap_OTRACE
6
ByLayer
62
256
370
-1
100
AcDbLine
10
11.7
20
9.8
11
11.4
21
9.8
0
LINE
5
15A
100
AcDbEntity
8
metal_layer_evap_OTRACE
6
ByLayer
62
256
370
-1
100
AcDbLine
10
11.4
20
9.8
11
11.4
21
10.15
0
LINE
5
15B
100
AcDbEntity
8
metal_layer_evap_OTRACE
6
ByLayer
62
256
370
-1
100
AcDbLine
10
11.4
20
10.15
11
11.05
21
10.15
0
LINE
5
15C
100
AcDbEntity
8
metal_layer_evap_OTRACE
6
ByLayer
62
256
370
-1
100
AcDbLine
10
11.05
20
10.15
11
11.05
21
10.45
0
LINE
5
15D
100
AcDbEntity
8
metal_layer_evap_std
6
ByLayer
62
256
370
-1
100
AcDbLine
10
-114
20
8
11
-114
21
20
0
LINE
5
15E
100
AcDbEntity
8
metal_layer_evap_std
6
ByLayer
62
256
370
-1
100
AcDbLine
10
-114
20
20
11
-112
21
20
0
LINE
5
15F
100
AcDbEntity
8
metal_layer_evap_std
6
ByLayer
62
256
370
-1
100
AcDbLine
10
-112
20
20
11
-112
21
16
0
LINE
5
160
100
AcDbEntity
8
metal_layer_evap_std
6
ByLayer
62
256
370
-1
100
AcDbLine
10
-112
20
16
11
-111.001108935
21
16.0000045
0
LINE
5
161
100
AcDbEntity
8
metal_layer_evap_std
6
ByLayer
62
256
370
-1
100
AcDbLine
10
-111.001108935
20
16.0000045
11
-111.001108935
21
15.0002389035
0
LINE
5
162
100
AcDbEntity
8
metal_layer_evap_std
6
ByLayer
62
256
370
-1
100
AcDbLine
10
-111.001108935
20
15.0002389035
11
-89.0000527688
21
15.0002389035
0
LINE
5
163
100
AcDbEntity
8
metal_layer_evap_std
6
ByLayer
62
256
370
-1
100
AcDbLine
10
-89.0000527688
20
15.0002389035
11
-89.0000527688
21
16.0000043533
0
LINE
5
164
100
AcDbEntity
8
metal_layer_evap_std
6
ByLayer
62
256
370
-1
100
AcDbLine
10
-89.0000527688
20
16.0000043533
11
-88
21
16
0
LINE
5
165
100
AcDbEntity
8
metal_layer_evap_std
6
ByLayer
62
256
370
-1
100
AcDbLine
10
-88
20
16
11
-88
21
20
0
LINE
5
166
100
AcDbEntity
8
metal_layer_evap_std
6
ByLayer
62
256
370
-1
100
AcDbLine
10
-88
20
20
11
-86
21
20
0
LINE
5
167
100
AcDbEntity
8
metal_layer_evap_std
6
ByLayer
62
256
370
-1
100
AcDbLine
10
-86
20
20
11
-86
21
8
0
LINE
5
168
100
AcDbEntity
8
metal_layer_evap_std
6
ByLayer
62
256
370
-1
100
AcDbLine
10
-86
20
8
11
-88
21
8
0
LINE
5
169
100
AcDbEntity
8
metal_layer_evap_std
6
ByLayer
62
256
370
-1
100
AcDbLine
10
-88
20
8
11
-88
21
12
0
LINE
5
16A
100
AcDbEntity
8
metal_layer_evap_std
6
ByLayer
62
256
370
-1
100
AcDbLine
10
-88
20
12
11
-89.0000527688
21
12.0000049681
0
LINE
5
16B
100
AcDbEntity
8
metal_layer_evap_std
6
ByLayer
62
256
370
-1
100
AcDbLine
10
-89.0000527688
20
12.0000049681
11
-89.0000527688
21
13.0000045
0
LINE
5
16C
100
AcDbEntity
8
metal_layer_evap_std
6
ByLayer
62
256
370
-1
100
AcDbLine
10
-89.0000527688
20
13.0000045
11
-111.001108935
21
13.0000045
0
LINE
5
16D
100
AcDbEntity
8
metal_layer_evap_std
6
ByLayer
62
256
370
-1
100
AcDbLine
10
-111.001108935
20
13.0000045
11
-111.001108935
21
12.0000051149
0
LINE
5
16E
100
AcDbEntity
8
metal_layer_evap_std
6
ByLayer
62
256
370
-1
100
AcDbLine
10
-111.001108935
20
12.0000051149
11
-112
21
12
0
LINE
5
16F
100
AcDbEntity
8
metal_layer_evap_std
6
ByLayer
62
256
370
-1
100
AcDbLine
10
-112
20
12
11
-112
21
8
0
LINE
5
170
100
AcDbEntity
8
metal_layer_evap_std
6
ByLayer
62
256
370
-1
100
AcDbLine
10
-112
20
8
11
-114
21
8
0
LINE
5
171
100
AcDbEntity
8
metal_layer_evap_std
6
ByLayer
62
256
370
-1
100
AcDbLine
10
-114
20
-20
11
-114
21
-8
0
LINE
5
172
100
AcDbEntity
8
metal_layer_evap_std
6
ByLayer
62
256
370
-1
100
AcDbLine
10
-114
20
-8
11
-112
21
-8
0
LINE
5
173
100
AcDbEntity
8
metal_layer_evap_std
6
ByLayer
62
256
370
-1
100
AcDbLine
10
-112
20
-8
11
-112
21
-11.9999955
0
LINE
5
174
100
AcDbEntity
8
metal_layer_evap_std
6
ByLayer
62
256
370
-1
100
AcDbLine
10
-112
20
-11.9999955
11
-111.001108935
21
-11.9999955
0
LINE
5
175
100
AcDbEntity
8
metal_layer_evap_std
6
ByLayer
62
256
370
-1
100
AcDbLine
10
-111.001108935
20
-11.9999955
11
-111.001108935
21
-12.9997610965
0
LINE
5
176
100
AcDbEntity
8
metal_layer_evap_std
6
ByLayer
62
256
370
-1
100
AcDbLine
10
-111.001108935
20
-12.9997610965
11
-89.0000527688
21
-12.9997610965
0
LINE
5
177
100
AcDbEntity
8
metal_layer_evap_std
6
ByLayer
62
256
370
-1
100
AcDbLine
10
-89.0000527688
20
-12.9997610965
11
-89.0000527688
21
-11.9999956467
0
LINE
5
178
100
AcDbEntity
8
metal_layer_evap_std
6
ByLayer
62
256
370
-1
100
AcDbLine
10
-89.0000527688
20
-11.9999956467
11
-88
21
-12
0
LINE
5
179
100
AcDbEntity
8
metal_layer_evap_std
6
ByLayer
62
256
370
-1
100
AcDbLine
10
-88
20
-12
11
-88
21
-8
0
LINE
5
17A
100
AcDbEntity
8
metal_layer_evap_std
6
ByLayer
62
256
370
-1
100
AcDbLine
10
-88
20
-8
11
-86
21
-8
0
LINE
5
17B
100
AcDbEntity
8
metal_layer_evap_std
6
ByLayer
62
256
370
-1
100
AcDbLine
10
-86
20
-8
11
-86
21
-20
0
LINE
5
17C
100
AcDbEntity
8
metal_layer_evap_std
6
ByLayer
62
256
370
-1
100
AcDbLine
10
-86
20
-20
11
-88
21
-20
0
LINE
5
17D
100
AcDbEntity
8
metal_layer_evap_std
6
ByLayer
62
256
370
-1
100
AcDbLine
10
-88
20
-20
11
-88
21
-16
0
LINE
5
17E
100
AcDbEntity
8
metal_layer_evap_std
6
ByLayer
62
256
370
-1
100
AcDbLine
10
-88
20
-16
11
-89.0000527688
21
-15.9999950319
0
LINE
5
17F
100
AcDbEntity
8
metal_layer_evap_std
6
ByLayer
62
256
370
-1
100
AcDbLine
10
-89.0000527688
20
-15.9999950319
11
-89.0000527688
21
-14.9999955
0
LINE
5
180
100
AcDbEntity
8
metal_layer_evap_std
6
ByLayer
62
256
370
-1
100
AcDbLine
10
-89.0000527688
20
-14.9999955
11
-111.001108935
21
-14.9999955
0
LINE
5
181
100
AcDbEntity
8
metal_layer_evap_std
6
ByLayer
62
256
370
-1
100
AcDbLine
10
-111.001108935
20
-14.9999955
11
-111.001108935
21
-15.9999948851
0
LINE
5
182
100
AcDbEntity
8
metal_layer_evap_std
6
ByLayer
62
256
370
-1
100
AcDbLine
10
-111.001108935
20
-15.9999948851
11
-112
21
-16
0
LINE
5
183
100
AcDbEntity
8
metal_layer_evap_std
6
ByLayer
62
256
370
-1
100
AcDbLine
10
-112
20
-16
11
-112
21
-20
0
LINE
5
184
100
AcDbEntity
8
metal_layer_evap_std
6
ByLayer
62
256
370
-1
100
AcDbLine
10
-112
20
-20
11
-114
21
-20
0
ARC
5
185
100
AcDbEntity
8
metal_layer_evap_std
6
ByLayer
62
256
370
-1
100
AcDbCircle
10
-92.9727416886
20
-18.9709228988
40
1.97
100
AcDbArc
50
298.127381726
51
268.721557497
0
LINE
5
186
100
AcDbEntity
8
metal_layer_evap_std
6
ByLayer
62
256
370
-1
100
AcDbLine
10
-87
20
27.45
11
-87
21
25.2
0
LINE
5
187
100
AcDbEntity
8
metal_layer_evap_std
6
ByLayer
62
256
370
-1
100
AcDbLine
10
-92
20
25.2
11
-92
21
27.45
0
LINE
5
188
100
AcDbEntity
8
metal_layer_evap_std
6
ByLayer
62
256
370
-1
100
AcDbLine
10
-94
20
27.45
11
-94
21
25.2
0
LINE
5
189
100
AcDbEntity
8
metal_layer_evap_std
6
ByLayer
62
256
370
-1
100
AcDbLine
10
-99
20
25.2
11
-99
21
27.45
0
LINE
5
18A
100
AcDbEntity
8
metal_layer_evap_std
6
ByLayer
62
256
370
-1
100
AcDbLine
10
-101
20
27.45
11
-101
21
25.2
0
LINE
5
18B
100
AcDbEntity
8
metal_layer_evap_std
6
ByLayer
62
256
370
-1
100
AcDbLine
10
-106
20
25.2
11
-106
21
27.45
0
LINE
5
18C
100
AcDbEntity
8
metal_layer_evap_std
6
ByLayer
62
256
370
-1
100
AcDbLine
10
-106
20
27.45
11
-101
21
27.45
0
LINE
5
18D
100
AcDbEntity
8
metal_layer_evap_std
6
ByLayer
62
256
370
-1
100
AcDbLine
10
-108
20
25.2
11
-108
21
27.45
0
LINE
5
18E
100
AcDbEntity
8
metal_layer_evap_std
6
ByLayer
62
256
370
-1
100
AcDbLine
10
-108
20
27.45
11
-113
21
27.45
0
LINE
5
18F
100
AcDbEntity
8
metal_layer_evap_std
6
ByLayer
62
256
370
-1
100
AcDbLine
10
-113
20
27.45
11
-113
21
25.2
0
ARC
5
190
100
AcDbEntity
8
metal_layer_evap_std
6
ByLayer
62
256
370
-1
100
AcDbCircle
10
-107.021810609
20
-20.5362582257
40
1.97
100
AcDbArc
50
266.834238538
51
237.428414308
0
ARC
5
191
100
AcDbEntity
8
metal_layer_evap_std
6
ByLayer
62
256
370
-1
100
AcDbCircle
10
-107.027258311
20
-9.0290681012
40
1.97
100
AcDbArc
50
118.127400779
51
88.7215765493
0
LINE
5
192
100
AcDbEntity
8
metal_layer_evap_std
6
ByLayer
62
256
370
-1
100
AcDbLine
10
-106.983305942
20
-7.05955846952
11
-108
21
-2.8
0
LINE
5
193
100
AcDbEntity
8
metal_layer_evap_std
6
ByLayer
62
256
370
-1
100
AcDbLine
10
-107.955982681
20
-7.29172212385
11
-109.028090794
21
-2.8
0
ARC
5
194
100
AcDbEntity
8
metal_layer_evap_std
6
ByLayer
62
256
370
-1
100
AcDbCircle
10
-92.9781893906
20
-7.4637327743
40
1.97
100
AcDbArc
50
86.8342223583
51
57.4283981288
0
ARC
5
195
100
AcDbEntity
8
metal_layer_evap_std
6
ByLayer
62
256
370
-1
100
AcDbCircle
10
-107.021810609
20
7.4637417743
40
1.97
100
AcDbArc
50
266.834255742
51
237.428431513
0
LINE
5
196
100
AcDbEntity
8
metal_layer_evap_std
6
ByLayer
62
256
370
-1
100
AcDbLine
10
-108.082365377
20
5.80358407562
11
-109.050682396
21
2.8
0
ARC
5
197
100
AcDbEntity
8
metal_layer_evap_std
6
ByLayer
62
256
370
-1
100
AcDbCircle
10
-92.9727416886
20
9.0290771012
40
1.97
100
AcDbArc
50
298.127381726
51
268.721557497
0
LINE
5
198
100
AcDbEntity
8
metal_layer_evap_std
6
ByLayer
62
256
370
-1
100
AcDbLine
10
-113
20
25.2
11
-109.028090794
21
25.2
0
ARC
5
199
100
AcDbEntity
8
metal_layer_evap_std
6
ByLayer
62
256
370
-1
100
AcDbCircle
10
-107.027258311
20
18.9709318988
40
1.97
100
AcDbArc
50
118.127400779
51
88.7215765495
0
LINE
5
19A
100
AcDbEntity
8
metal_layer_evap_std
6
ByLayer
62
256
370
-1
100
AcDbLine
10
-107.955982681
20
20.7082778762
11
-109.028090794
21
25.2
0
LINE
5
19B
100
AcDbEntity
8
metal_layer_evap_std
6
ByLayer
62
256
370
-1
100
AcDbLine
10
-106.983305942
20
20.9404415305
11
-108
21
25.2
0
LINE
5
19C
100
AcDbEntity
8
metal_layer_evap_std
6
ByLayer
62
256
370
-1
100
AcDbLine
10
-103.803992944
20
25.2
11
-106
21
25.2
0
LINE
5
19D
100
AcDbEntity
8
metal_layer_evap_std
6
ByLayer
62
256
370
-1
100
AcDbLine
10
-103.225020917
20
22.287037215
11
-103.803992944
21
25.2
0
LINE
5
19E
100
AcDbEntity
8
metal_layer_evap_std
6
ByLayer
62
256
370
-1
100
AcDbLine
10
-102.784432165
20
25.2
11
-102.246917462
21
22.4897983761
0
LINE
5
19F
100
AcDbEntity
8
metal_layer_evap_std
6
ByLayer
62
256
370
-1
100
AcDbLine
10
-101
20
25.2
11
-102.784432165
21
25.2
0
LINE
5
1A0
100
AcDbEntity
8
metal_layer_evap_std
6
ByLayer
62
256
370
-1
100
AcDbLine
10
-97.2451459125
20
25.2
11
-99
21
25.2
0
LINE
5
1A1
100
AcDbEntity
8
metal_layer_evap_std
6
ByLayer
62
256
370
-1
100
AcDbLine
10
-97.871618692
20
20.9164552105
11
-97.2451459125
21
25.2
0
LINE
5
1A2
100
AcDbEntity
8
metal_layer_evap_std
6
ByLayer
62
256
370
-1
100
AcDbLine
10
-96.2345078171
20
25.2
11
-96.8822030411
21
20.7713454877
0
LINE
5
1A3
100
AcDbEntity
8
metal_layer_evap_std
6
ByLayer
62
256
370
-1
100
AcDbLine
10
-94
20
25.2
11
-96.2345078171
21
25.2
0
LINE
5
1A4
100
AcDbEntity
8
metal_layer_evap_std
6
ByLayer
62
256
370
-1
100
AcDbLine
10
-87
20
25.2
11
-90.9493159998
21
25.2000043626
0
ARC
5
1A5
100
AcDbEntity
8
metal_layer_evap_std
6
ByLayer
62
256
370
-1
100
AcDbCircle
10
-92.9781893906
20
20.5362672257
40
1.97
100
AcDbArc
50
86.8342223584
51
57.4283981287
0
LINE
5
1A6
100
AcDbEntity
8
metal_layer_evap_std
6
ByLayer
62
256
370
-1
100
AcDbLine
10
-92.8693958775
20
22.5032608636
11
-92
21
25.2
0
LINE
5
1A7
100
AcDbEntity
8
metal_layer_evap_std
6
ByLayer
62
256
370
-1
100
AcDbLine
10
-91.9176336555
20
22.1964243064
11
-90.9493159998
21
25.2000043626
0
LINE
5
1A8
100
AcDbEntity
8
metal_layer_evap_std
6
ByLayer
62
256
370
-1
100
AcDbLine
10
-113.477485177
20
21.5
11
-112.6
21
24.132455532
0
LINE
5
1A9
100
AcDbEntity
8
metal_layer_evap_std
6
ByLayer
62
256
370
-1
100
AcDbLine
10
-112.6
20
24.132455532
11
-111.722514823
21
21.5
0
LINE
5
1AA
100
AcDbEntity
8
metal_layer_evap_std
6
ByLayer
62
256
370
-1
100
AcDbLine
10
-112.6
20
22.867544468
11
-112.144151844
21
21.5
0
LINE
5
1AB
100
AcDbEntity
8
metal_layer_evap_std
6
ByLayer
62
256
370
-1
100
AcDbLine
10
-113.055848156
20
21.5
11
-112.6
21
22.867544468
0
LINE
5
1AC
100
AcDbEntity
8
metal_layer_evap_std
6
ByLayer
62
256
370
-1
100
AcDbLine
10
-113.477485177
20
21.5
11
-113.055848156
21
21.5
0
LINE
5
1AD
100
AcDbEntity
8
metal_layer_evap_std
6
ByLayer
62
256
370
-1
100
AcDbLine
10
-112.144151844
20
21.5
11
-111.722514823
21
21.5
0
LINE
5
1AE
100
AcDbEntity
8
metal_layer_evap_std
6
ByLayer
62
256
370
-1
100
AcDbLine
10
-107.130602976
20
5.49674807302
11
-108
21
2.8
0
LINE
5
1AF
100
AcDbEntity
8
metal_layer_evap_std
6
ByLayer
62
256
370
-1
100
AcDbLine
10
-113
20
2.8
11
-109.050682396
21
2.8
0
LINE
5
1B0
100
AcDbEntity
8
metal_layer_evap_std
6
ByLayer
62
256
370
-1
100
AcDbLine
10
-113
20
-2.8
11
-109.028090794
21
-2.8
0
LINE
5
1B1
100
AcDbEntity
8
metal_layer_evap_std
6
ByLayer
62
256
370
-1
100
AcDbLine
10
-103.225020917
20
-5.712962785
11
-103.803992944
21
-2.8
0
LINE
5
1B2
100
AcDbEntity
8
metal_layer_evap_std
6
ByLayer
62
256
370
-1
100
AcDbLine
10
-103.803992944
20
-2.8
11
-106
21
-2.8
0
LINE
5
1B3
100
AcDbEntity
8
metal_layer_evap_std
6
ByLayer
62
256
370
-1
100
AcDbLine
10
-101
20
-2.8
11
-102.784432165
21
-2.8
0
LINE
5
1B4
100
AcDbEntity
8
metal_layer_evap_std
6
ByLayer
62
256
370
-1
100
AcDbLine
10
-102.784432165
20
-2.8
11
-102.246917462
21
-5.5102016239
0
LINE
5
1B5
100
AcDbEntity
8
metal_layer_evap_std
6
ByLayer
62
256
370
-1
100
AcDbLine
10
-101
20
2.8
11
-101
21
-2.8
0
LINE
5
1B6
100
AcDbEntity
8
metal_layer_evap_std
6
ByLayer
62
256
370
-1
100
AcDbLine
10
-106
20
-2.8
11
-106
21
2.8
0
LINE
5
1B7
100
AcDbEntity
8
metal_layer_evap_std
6
ByLayer
62
256
370
-1
100
AcDbLine
10
-108
20
2.8
11
-108
21
-2.8
0
LINE
5
1B8
100
AcDbEntity
8
metal_layer_evap_std
6
ByLayer
62
256
370
-1
100
AcDbLine
10
-113
20
2.8
11
-113
21
-2.8
0
LINE
5
1B9
100
AcDbEntity
8
metal_layer_evap_std
6
ByLayer
62
256
370
-1
100
AcDbLine
10
-106
20
2.8
11
-103.765493499
21
2.8
0
LINE
5
1BA
100
AcDbEntity
8
metal_layer_evap_std
6
ByLayer
62
256
370
-1
100
AcDbLine
10
-103.765493499
20
2.8
11
-103.117796959
21
7.2286635123
0
LINE
5
1BB
100
AcDbEntity
8
metal_layer_evap_std
6
ByLayer
62
256
370
-1
100
AcDbLine
10
-102.754855404
20
2.8
11
-101
21
2.8
0
LINE
5
1BC
100
AcDbEntity
8
metal_layer_evap_std
6
ByLayer
62
256
370
-1
100
AcDbLine
10
-102.128381308
20
7.0835537895
11
-102.754855404
21
2.8
0
LINE
5
1BD
100
AcDbEntity
8
metal_layer_evap_std
6
ByLayer
62
256
370
-1
100
AcDbLine
10
-94
20
2.8
11
-94
21
-2.8
0
LINE
5
1BE
100
AcDbEntity
8
metal_layer_evap_std
6
ByLayer
62
256
370
-1
100
AcDbLine
10
-99
20
-2.8
11
-99
21
2.8
0
LINE
5
1BF
100
AcDbEntity
8
metal_layer_evap_std
6
ByLayer
62
256
370
-1
100
AcDbLine
10
-99
20
2.8
11
-97.2155660501
21
2.8
0
LINE
5
1C0
100
AcDbEntity
8
metal_layer_evap_std
6
ByLayer
62
256
370
-1
100
AcDbLine
10
-97.2155660501
20
2.8
11
-97.7530825381
21
5.5102106239
0
LINE
5
1C1
100
AcDbEntity
8
metal_layer_evap_std
6
ByLayer
62
256
370
-1
100
AcDbLine
10
-96.1960052676
20
2.8
11
-94
21
2.8
0
LINE
5
1C2
100
AcDbEntity
8
metal_layer_evap_std
6
ByLayer
62
256
370
-1
100
AcDbLine
10
-96.7749790828
20
5.712971785
11
-96.1960052676
21
2.8
0
LINE
5
1C3
100
AcDbEntity
8
metal_layer_evap_std
6
ByLayer
62
256
370
-1
100
AcDbLine
10
-92.0440178966
20
7.29173081502
11
-90.971909288
21
2.8
0
LINE
5
1C4
100
AcDbEntity
8
metal_layer_evap_std
6
ByLayer
62
256
370
-1
100
AcDbLine
10
-91.9176336555
20
-5.80357569356
11
-90.9493174063
21
-2.8
0
LINE
5
1C5
100
AcDbEntity
8
metal_layer_evap_std
6
ByLayer
62
256
370
-1
100
AcDbLine
10
-94
20
-2.8
11
-96.2345078171
21
-2.8
0
LINE
5
1C6
100
AcDbEntity
8
metal_layer_evap_std
6
ByLayer
62
256
370
-1
100
AcDbLine
10
-96.2345078171
20
-2.8
11
-96.8822030411
21
-7.2286545123
0
LINE
5
1C7
100
AcDbEntity
8
metal_layer_evap_std
6
ByLayer
62
256
370
-1
100
AcDbLine
10
-97.871618692
20
-7.0835447895
11
-97.2451459125
21
-2.8
0
LINE
5
1C8
100
AcDbEntity
8
metal_layer_evap_std
6
ByLayer
62
256
370
-1
100
AcDbLine
10
-97.2451459125
20
-2.8
11
-99
21
-2.8
0
LINE
5
1C9
100
AcDbEntity
8
metal_layer_evap_std
6
ByLayer
62
256
370
-1
100
AcDbLine
10
-87
20
-2.8
11
-90.9493174063
21
-2.8
0
LINE
5
1CA
100
AcDbEntity
8
metal_layer_evap_std
6
ByLayer
62
256
370
-1
100
AcDbLine
10
-87
20
-2.8
11
-87
21
2.8
0
LINE
5
1CB
100
AcDbEntity
8
metal_layer_evap_std
6
ByLayer
62
256
370
-1
100
AcDbLine
10
-87
20
2.8
11
-90.971909288
21
2.8
0
LINE
5
1CC
100
AcDbEntity
8
metal_layer_evap_std
6
ByLayer
62
256
370
-1
100
AcDbLine
10
-93.0166947123
20
7.05956748414
11
-92
21
2.8
0
LINE
5
1CD
100
AcDbEntity
8
metal_layer_evap_std
6
ByLayer
62
256
370
-1
100
AcDbLine
10
-92
20
2.8
11
-92
21
-2.8
0
LINE
5
1CE
100
AcDbEntity
8
metal_layer_evap_std
6
ByLayer
62
256
370
-1
100
AcDbLine
10
-92.8693958775
20
-5.49673913641
11
-92
21
-2.8
0
LINE
5
1CF
100
AcDbEntity
8
metal_layer_evap_std
6
ByLayer
62
256
370
-1
100
AcDbLine
10
-113
20
-27.45
11
-113
21
-25.2
0
LINE
5
1D0
100
AcDbEntity
8
metal_layer_evap_std
6
ByLayer
62
256
370
-1
100
AcDbLine
10
-106
20
-27.45
11
-106
21
-25.2
0
LINE
5
1D1
100
AcDbEntity
8
metal_layer_evap_std
6
ByLayer
62
256
370
-1
100
AcDbLine
10
-87
20
-27.45
11
-87
21
-25.2
0
LINE
5
1D2
100
AcDbEntity
8
metal_layer_evap_std
6
ByLayer
62
256
370
-1
100
AcDbLine
10
-94
20
-25.2
11
-94
21
-27.45
0
LINE
5
1D3
100
AcDbEntity
8
metal_layer_evap_std
6
ByLayer
62
256
370
-1
100
AcDbLine
10
-101
20
-25.2
11
-101
21
-27.45
0
LINE
5
1D4
100
AcDbEntity
8
metal_layer_evap_std
6
ByLayer
62
256
370
-1
100
AcDbLine
10
-113
20
-25.2
11
-109.050683993
21
-25.2
0
LINE
5
1D5
100
AcDbEntity
8
metal_layer_evap_std
6
ByLayer
62
256
370
-1
100
AcDbLine
10
-108.082365875
20
-22.1964156059
11
-109.050683993
21
-25.2
0
LINE
5
1D6
100
AcDbEntity
8
metal_layer_evap_std
6
ByLayer
62
256
370
-1
100
AcDbLine
10
-108
20
-25.1999953626
11
-108
21
-27.45
0
LINE
5
1D7
100
AcDbEntity
8
metal_layer_evap_std
6
ByLayer
62
256
370
-1
100
AcDbLine
10
-107.130603567
20
-22.5032518943
11
-108
21
-25.1999953626
0
LINE
5
1D8
100
AcDbEntity
8
metal_layer_evap_std
6
ByLayer
62
256
370
-1
100
AcDbLine
10
-103.765493499
20
-25.2
11
-103.117796959
21
-20.7713364877
0
LINE
5
1D9
100
AcDbEntity
8
metal_layer_evap_std
6
ByLayer
62
256
370
-1
100
AcDbLine
10
-106
20
-25.2
11
-103.765493499
21
-25.2
0
LINE
5
1DA
100
AcDbEntity
8
metal_layer_evap_std
6
ByLayer
62
256
370
-1
100
AcDbLine
10
-102.754855404
20
-25.2
11
-101
21
-25.2
0
LINE
5
1DB
100
AcDbEntity
8
metal_layer_evap_std
6
ByLayer
62
256
370
-1
100
AcDbLine
10
-102.128381308
20
-20.9164462105
11
-102.754855404
21
-25.2
0
LINE
5
1DC
100
AcDbEntity
8
metal_layer_evap_std
6
ByLayer
62
256
370
-1
100
AcDbLine
10
-99
20
-27.45
11
-99
21
-25.2
0
LINE
5
1DD
100
AcDbEntity
8
metal_layer_evap_std
6
ByLayer
62
256
370
-1
100
AcDbLine
10
-99
20
-25.2
11
-97.2155660501
21
-25.2
0
LINE
5
1DE
100
AcDbEntity
8
metal_layer_evap_std
6
ByLayer
62
256
370
-1
100
AcDbLine
10
-97.2155660501
20
-25.2
11
-97.7530825381
21
-22.4897893761
0
LINE
5
1DF
100
AcDbEntity
8
metal_layer_evap_std
6
ByLayer
62
256
370
-1
100
AcDbLine
10
-96.1960052676
20
-25.2
11
-94
21
-25.2
0
LINE
5
1E0
100
AcDbEntity
8
metal_layer_evap_std
6
ByLayer
62
256
370
-1
100
AcDbLine
10
-96.7749790828
20
-22.287028215
11
-96.1960052676
21
-25.2
0
LINE
5
1E1
100
AcDbEntity
8
metal_layer_evap_std
6
ByLayer
62
256
370
-1
100
AcDbLine
10
-92
20
-25.2
11
-92
21
-27.45
0
LINE
5
1E2
100
AcDbEntity
8
metal_layer_evap_std
6
ByLayer
62
256
370
-1
100
AcDbLine
10
-93.0166947123
20
-20.9404325159
11
-92
21
-25.2
0
LINE
5
1E3
100
AcDbEntity
8
metal_layer_evap_std
6
ByLayer
62
256
370
-1
100
AcDbLine
10
-87
20
-25.2
11
-90.971909288
21
-25.2
0
LINE
5
1E4
100
AcDbEntity
8
metal_layer_evap_std
6
ByLayer
62
256
370
-1
100
AcDbLine
10
-92.0440178966
20
-20.708269185
11
-90.971909288
21
-25.2
0
ARC
5
1E5
100
AcDbEntity
8
metal_layer_evap_std
6
ByLayer
62
256
370
-1
100
AcDbCircle
10
-112.55
20
-4.4
40
0.6
100
AcDbArc
50
90
51
270
0
LINE
5
1E6
100
AcDbEntity
8
metal_layer_evap_std
6
ByLayer
62
256
370
-1
100
AcDbLine
10
-112.55
20
-3.8
11
-111.8
21
-3.8
0
LINE
5
1E7
100
AcDbEntity
8
metal_layer_evap_std
6
ByLayer
62
256
370
-1
100
AcDbLine
10
-111.8
20
-3.8
11
-111.8
21
-6.5
0
LINE
5
1E8
100
AcDbEntity
8
metal_layer_evap_std
6
ByLayer
62
256
370
-1
100
AcDbLine
10
-111.8
20
-6.5
11
-112.55
21
-6.5
0
ARC
5
1E9
100
AcDbEntity
8
metal_layer_evap_std
6
ByLayer
62
256
370
-1
100
AcDbCircle
10
-112.55
20
-5.75
40
0.75
100
AcDbArc
50
90
51
270
0
LINE
5
1EA
100
AcDbEntity
8
metal_layer_evap_OTRACE
6
ByLayer
62
256
370
-1
100
AcDbLine
10
-113.477485177
20
21.5
11
-113.055848156
21
21.5
0
LINE
5
1EB
100
AcDbEntity
8
metal_layer_evap_OTRACE
6
ByLayer
62
256
370
-1
100
AcDbLine
10
-113.055848156
20
21.5
11
-112.6
21
22.867544468
0
LINE
5
1EC
100
AcDbEntity
8
metal_layer_evap_OTRACE
6
ByLayer
62
256
370
-1
100
AcDbLine
10
-112.6
20
22.867544468
11
-112.144151844
21
21.5
0
LINE
5
1ED
100
AcDbEntity
8
metal_layer_evap_OTRACE
6
ByLayer
62
256
370
-1
100
AcDbLine
10
-112.144151844
20
21.5
11
-111.722514823
21
21.5
0
LINE
5
1EE
100
AcDbEntity
8
metal_layer_evap_OTRACE
6
ByLayer
62
256
370
-1
100
AcDbLine
10
-111.722514823
20
21.5
11
-112.6
21
24.132455532
0
LINE
5
1EF
100
AcDbEntity
8
metal_layer_evap_OTRACE
6
ByLayer
62
256
370
-1
100
AcDbLine
10
-112.6
20
24.132455532
11
-113.477485177
21
21.5
0
ARC
5
1F0
100
AcDbEntity
8
metal_layer_evap_OTRACE
6
ByLayer
62
256
370
-1
100
AcDbCircle
10
-112.55
20
-4.4
40
0.6
100
AcDbArc
50
90
51
270
0
LINE
5
1F1
100
AcDbEntity
8
metal_layer_evap_OTRACE
6
ByLayer
62
256
370
-1
100
AcDbLine
10
-112.55
20
-3.8
11
-111.8
21
-3.8
0
LINE
5
1F2
100
AcDbEntity
8
metal_layer_evap_OTRACE
6
ByLayer
62
256
370
-1
100
AcDbLine
10
-111.8
20
-3.8
11
-111.8
21
-6.5
0
LINE
5
1F3
100
AcDbEntity
8
metal_layer_evap_OTRACE
6
ByLayer
62
256
370
-1
100
AcDbLine
10
-111.8
20
-6.5
11
-112.55
21
-6.5
0
ARC
5
1F4
100
AcDbEntity
8
metal_layer_evap_OTRACE
6
ByLayer
62
256
370
-1
100
AcDbCircle
10
-112.55
20
-5.75
40
0.75
100
AcDbArc
50
90
51
270
0
LINE
5
1F5
100
AcDbEntity
8
metal_layer_evap_OTRACE
6
ByLayer
62
256
370
-1
100
AcDbLine
10
-13
20
9
11
-13
21
8
0
LINE
5
1F6
100
AcDbEntity
8
metal_layer_evap_OTRACE
6
ByLayer
62
256
370
-1
100
AcDbLine
10
-12
20
9
11
-12
21
8
0
ARC
5
1F7
100
AcDbEntity
8
metal_layer_evap_OTRACE
6
ByLayer
62
256
370
-1
100
AcDbCircle
10
-12.5
20
9
40
0.5
100
AcDbArc
50
0
51
180
0
ARC
5
1F8
100
AcDbEntity
8
metal_layer_evap_OTRACE
6
ByLayer
62
256
370
-1
100
AcDbCircle
10
-12.5
20
8
40
0.5
100
AcDbArc
50
180
51
0
0
LINE
5
1F9
100
AcDbEntity
8
metal_layer_evap_OTRACE
6
ByLayer
62
256
370
-1
100
AcDbLine
10
13
20
-14
11
8
21
-14
0
LINE
5
1FA
100
AcDbEntity
8
metal_layer_evap_OTRACE
6
ByLayer
62
256
370
-1
100
AcDbLine
10
13
20
-11.2
11
13
21
-14
0
LINE
5
1FB
100
AcDbEntity
8
metal_layer_evap_OTRACE
6
ByLayer
62
256
370
-1
100
AcDbLine
10
13
20
14
11
13
21
11.2
0
LINE
5
1FC
100
AcDbEntity
8
metal_layer_evap_OTRACE
6
ByLayer
62
256
370
-1
100
AcDbLine
10
8
20
14
11
13
21
14
0
LINE
5
1FD
100
AcDbEntity
8
metal_layer_evap_OTRACE
6
ByLayer
62
256
370
-1
100
AcDbLine
10
1
20
11.2
11
1
21
14
0
LINE
5
1FE
100
AcDbEntity
8
metal_layer_evap_OTRACE
6
ByLayer
62
256
370
-1
100
AcDbLine
10
6
20
14
11
6
21
11.2
0
LINE
5
1FF
100
AcDbEntity
8
metal_layer_evap_OTRACE
6
ByLayer
62
256
370
-1
100
AcDbLine
10
1
20
14
11
6
21
14
0
LINE
5
200
100
AcDbEntity
8
metal_layer_evap_OTRACE
6
ByLayer
62
256
370
-1
100
AcDbLine
10
-1
20
14
11
-1
21
11.2
0
LINE
5
201
100
AcDbEntity
8
metal_layer_evap_OTRACE
6
ByLayer
62
256
370
-1
100
AcDbLine
10
-6
20
14
11
-1
21
14
0
LINE
5
202
100
AcDbEntity
8
metal_layer_evap_OTRACE
6
ByLayer
62
256
370
-1
100
AcDbLine
10
-6
20
11.2002276702
11
-6
21
14
0
LINE
5
203
100
AcDbEntity
8
metal_layer_evap_OTRACE
6
ByLayer
62
256
370
-1
100
AcDbLine
10
-13
20
14
11
-8
21
14
0
LINE
5
204
100
AcDbEntity
8
metal_layer_evap_OTRACE
6
ByLayer
62
256
370
-1
100
AcDbLine
10
-13
20
11.2
11
-13
21
14
0
LINE
5
205
100
AcDbEntity
8
metal_layer_evap_OTRACE
6
ByLayer
62
256
370
-1
100
AcDbLine
10
-8
20
-14
11
-13
21
-14
0
LINE
5
206
100
AcDbEntity
8
metal_layer_evap_OTRACE
6
ByLayer
62
256
370
-1
100
AcDbLine
10
-1
20
-11.2
11
-1
21
-14
0
LINE
5
207
100
AcDbEntity
8
metal_layer_evap_OTRACE
6
ByLayer
62
256
370
-1
100
AcDbLine
10
-1
20
-14
11
-6
21
-14
0
LINE
5
208
100
AcDbEntity
8
metal_layer_evap_OTRACE
6
ByLayer
62
256
370
-1
100
AcDbLine
10
-6
20
-14
11
-6
21
-11.2
0
LINE
5
209
100
AcDbEntity
8
metal_layer_evap_OTRACE
6
ByLayer
62
256
370
-1
100
AcDbLine
10
1
20
-14
11
1
21
-11.2
0
LINE
5
20A
100
AcDbEntity
8
metal_layer_evap_OTRACE
6
ByLayer
62
256
370
-1
100
AcDbLine
10
6
20
-11.2
11
6
21
-14
0
LINE
5
20B
100
AcDbEntity
8
metal_layer_evap_OTRACE
6
ByLayer
62
256
370
-1
100
AcDbLine
10
6
20
-14
11
1
21
-14
0
LINE
5
20C
100
AcDbEntity
8
metal_layer_evap_OTRACE
6
ByLayer
62
256
370
-1
100
AcDbLine
10
-7.76342004688
20
-7.20709508079
11
-9.05068252481
21
-11.2
0
LINE
5
20D
100
AcDbEntity
8
metal_layer_evap_OTRACE
6
ByLayer
62
256
370
-1
100
AcDbLine
10
-13
20
-11.2
11
-9.05068252481
21
-11.2
0
LINE
5
20E
100
AcDbEntity
8
metal_layer_evap_OTRACE
6
ByLayer
62
256
370
-1
100
AcDbLine
10
-8
20
-11.1999998626
11
-8
21
-14
0
LINE
5
20F
100
AcDbEntity
8
metal_layer_evap_OTRACE
6
ByLayer
62
256
370
-1
100
AcDbLine
10
-6.81165772235
20
-7.51393131984
11
-8
21
-11.1999998626
0
LINE
5
210
100
AcDbEntity
8
metal_layer_evap_OTRACE
6
ByLayer
62
256
370
-1
100
AcDbLine
10
-3.1177969589
20
-6.7713409877
11
-3.765492841
21
-11.2
0
LINE
5
211
100
AcDbEntity
8
metal_layer_evap_OTRACE
6
ByLayer
62
256
370
-1
100
AcDbLine
10
-6
20
-11.2
11
-3.765492841
21
-11.2
0
LINE
5
212
100
AcDbEntity
8
metal_layer_evap_OTRACE
6
ByLayer
62
256
370
-1
100
AcDbLine
10
-2.7548547456
20
-11.2
11
-1
21
-11.2
0
LINE
5
213
100
AcDbEntity
8
metal_layer_evap_OTRACE
6
ByLayer
62
256
370
-1
100
AcDbLine
10
-2.7548547456
20
-11.2
11
-2.128381308
21
-6.9164507105
0
LINE
5
214
100
AcDbEntity
8
metal_layer_evap_OTRACE
6
ByLayer
62
256
370
-1
100
AcDbLine
10
2.13100420085
20
-7.90534789434
11
2.78443305743
21
-11.2
0
LINE
5
215
100
AcDbEntity
8
metal_layer_evap_OTRACE
6
ByLayer
62
256
370
-1
100
AcDbLine
10
1
20
-11.2
11
2.78443305743
21
-11.2
0
LINE
5
216
100
AcDbEntity
8
metal_layer_evap_OTRACE
6
ByLayer
62
256
370
-1
100
AcDbLine
10
3.80399383803
20
-11.2
11
6
21
-11.2
0
LINE
5
217
100
AcDbEntity
8
metal_layer_evap_OTRACE
6
ByLayer
62
256
370
-1
100
AcDbLine
10
3.80399383803
20
-11.2
11
3.10811971864
21
-7.69887158577
0
LINE
5
218
100
AcDbEntity
8
metal_layer_evap_OTRACE
6
ByLayer
62
256
370
-1
100
AcDbLine
10
8
20
-14
11
8
21
-11.2038201013
0
LINE
5
219
100
AcDbEntity
8
metal_layer_evap_OTRACE
6
ByLayer
62
256
370
-1
100
AcDbLine
10
7.11706543294
20
-7.5
11
8
21
-11.2038201013
0
LINE
5
21A
100
AcDbEntity
8
metal_layer_evap_OTRACE
6
ByLayer
62
256
370
-1
100
AcDbLine
10
9.02711042169
20
-11.2
11
13
21
-11.2
0
LINE
5
21B
100
AcDbEntity
8
metal_layer_evap_OTRACE
6
ByLayer
62
256
370
-1
100
AcDbLine
10
8.14508650887
20
-7.5
11
9.02711042169
21
-11.2
0
LINE
5
21C
100
AcDbEntity
8
metal_layer_evap_OTRACE
6
ByLayer
62
256
370
-1
100
AcDbLine
10
8
20
11.1999998626
11
8
21
14
0
LINE
5
21D
100
AcDbEntity
8
metal_layer_evap_OTRACE
6
ByLayer
62
256
370
-1
100
AcDbLine
10
6.81165772235
20
7.51393131984
11
8
21
11.1999998626
0
LINE
5
21E
100
AcDbEntity
8
metal_layer_evap_OTRACE
6
ByLayer
62
256
370
-1
100
AcDbLine
10
7.76342004688
20
7.20709508079
11
9.05068252481
21
11.2
0
LINE
5
21F
100
AcDbEntity
8
metal_layer_evap_OTRACE
6
ByLayer
62
256
370
-1
100
AcDbLine
10
13
20
11.2
11
9.05068252481
21
11.2
0
LINE
5
220
100
AcDbEntity
8
metal_layer_evap_OTRACE
6
ByLayer
62
256
370
-1
100
AcDbLine
10
6
20
11.2
11
3.765492841
21
11.2
0
LINE
5
221
100
AcDbEntity
8
metal_layer_evap_OTRACE
6
ByLayer
62
256
370
-1
100
AcDbLine
10
3.1177969589
20
6.7713409877
11
3.765492841
21
11.2
0
LINE
5
222
100
AcDbEntity
8
metal_layer_evap_OTRACE
6
ByLayer
62
256
370
-1
100
AcDbLine
10
2.7548547456
20
11.2
11
2.128381308
21
6.9164507105
0
LINE
5
223
100
AcDbEntity
8
metal_layer_evap_OTRACE
6
ByLayer
62
256
370
-1
100
AcDbLine
10
2.7548547456
20
11.2
11
1
21
11.2
0
LINE
5
224
100
AcDbEntity
8
metal_layer_evap_OTRACE
6
ByLayer
62
256
370
-1
100
AcDbLine
10
-1
20
11.2
11
-2.78443305743
21
11.2
0
LINE
5
225
100
AcDbEntity
8
metal_layer_evap_OTRACE
6
ByLayer
62
256
370
-1
100
AcDbLine
10
-2.13100420085
20
7.90534789434
11
-2.78443305743
21
11.2
0
LINE
5
226
100
AcDbEntity
8
metal_layer_evap_OTRACE
6
ByLayer
62
256
370
-1
100
AcDbLine
10
-3.80399934055
20
11.2000276846
11
-3.10811971864
21
7.69887158577
0
LINE
5
227
100
AcDbEntity
8
metal_layer_evap_OTRACE
6
ByLayer
62
256
370
-1
100
AcDbLine
10
-3.80399934055
20
11.2000276846
11
-6
21
11.2002276702
0
LINE
5
228
100
AcDbEntity
8
metal_layer_evap_OTRACE
6
ByLayer
62
256
370
-1
100
AcDbLine
10
-7.11706543294
20
7.5
11
-8
21
11.2038201013
0
LINE
5
229
100
AcDbEntity
8
metal_layer_evap_OTRACE
6
ByLayer
62
256
370
-1
100
AcDbLine
10
-8
20
14
11
-8
21
11.2038201013
0
LINE
5
22A
100
AcDbEntity
8
metal_layer_evap_OTRACE
6
ByLayer
62
256
370
-1
100
AcDbLine
10
-9.02711042169
20
11.2
11
-13
21
11.2
0
LINE
5
22B
100
AcDbEntity
8
metal_layer_evap_OTRACE
6
ByLayer
62
256
370
-1
100
AcDbLine
10
-8.14508650887
20
7.5
11
-9.02711042169
21
11.2
0
LINE
5
22C
100
AcDbEntity
8
metal_layer_evap_OTRACE
6
ByLayer
62
256
370
-1
100
AcDbLine
10
-13
20
-14
11
-13
21
-11.2
0
ARC
5
22D
100
AcDbEntity
8
metal_layer_evap_OTRACE
6
ByLayer
62
256
370
-1
100
AcDbCircle
10
-97.6534162676
20
-9.041427657
40
1.97
100
AcDbArc
50
96.35928097
51
66.953454306
0
ARC
5
22E
100
AcDbEntity
8
metal_layer_evap_OTRACE
6
ByLayer
62
256
370
-1
100
AcDbCircle
10
-92.9781890932
20
-7.4637371511
40
1
100
AcDbArc
50
102.131329393
51
42.1313293932
0
ARC
5
22F
100
AcDbEntity
8
metal_layer_evap_OTRACE
6
ByLayer
62
256
370
-1
100
AcDbCircle
10
-102.346583732
20
-18.958572343
40
1.97
100
AcDbArc
50
276.35928097
51
246.953454306
0
ARC
5
230
100
AcDbEntity
8
metal_layer_evap_OTRACE
6
ByLayer
62
256
370
-1
100
AcDbCircle
10
-107.021810907
20
-20.5362628489
40
1
100
AcDbArc
50
282.131329393
51
222.131329393
0
LINE
5
231
100
AcDbEntity
8
metal_layer_evap_OTRACE
6
ByLayer
62
256
370
-1
100
AcDbLine
10
-111.001108935
20
-15
11
-89.0000527688
21
-15
0
LINE
5
232
100
AcDbEntity
8
metal_layer_evap_OTRACE
6
ByLayer
62
256
370
-1
100
AcDbLine
10
-89.0000527688
20
-15
11
-89.0000527688
21
-15.9999995319
0
LINE
5
233
100
AcDbEntity
8
metal_layer_evap_OTRACE
6
ByLayer
62
256
370
-1
100
AcDbLine
10
-89.0000527688
20
-12.0000001467
11
-89.0000527688
21
-12.9997655965
0
LINE
5
234
100
AcDbEntity
8
metal_layer_evap_OTRACE
6
ByLayer
62
256
370
-1
100
AcDbLine
10
-89.0000527688
20
-12.9997655965
11
-111.001108935
21
-12.9997655965
0
LINE
5
235
100
AcDbEntity
8
metal_layer_evap_OTRACE
6
ByLayer
62
256
370
-1
100
AcDbLine
10
-111.001108935
20
-12.9997655965
11
-111.001108935
21
-12
0
LINE
5
236
100
AcDbEntity
8
metal_layer_evap_OTRACE
6
ByLayer
62
256
370
-1
100
AcDbLine
10
-111.001108935
20
-15.9999993851
11
-111.001108935
21
-15
0
CIRCLE
5
237
100
AcDbEntity
8
metal_layer_evap_OTRACE
6
ByLayer
62
256
370
-1
100
AcDbCircle
10
-111.6
20
-24.35
40
0.55
0
ARC
5
238
100
AcDbEntity
8
metal_layer_evap_OTRACE
6
ByLayer
62
256
370
-1
100
AcDbCircle
10
-102.349154095
20
-7.4775514598
40
1.4
100
AcDbArc
50
122.827957636
51
81.0355648725
0
LINE
5
239
100
AcDbEntity
8
metal_layer_evap_OTRACE
6
ByLayer
62
256
370
-1
100
AcDbLine
10
-108.145086509
20
-6.5
11
-107.117065433
21
-6.5
0
LINE
5
23A
100
AcDbEntity
8
metal_layer_evap_OTRACE
6
ByLayer
62
256
370
-1
100
AcDbLine
10
-111.001108935
20
-12
11
-112
21
-12
0
LINE
5
23B
100
AcDbEntity
8
metal_layer_evap_OTRACE
6
ByLayer
62
256
370
-1
100
AcDbLine
10
-114
20
-8
11
-112
21
-8
0
LINE
5
23C
100
AcDbEntity
8
metal_layer_evap_OTRACE
6
ByLayer
62
256
370
-1
100
AcDbLine
10
-112
20
-8
11
-112
21
-12
0
LINE
5
23D
100
AcDbEntity
8
metal_layer_evap_OTRACE
6
ByLayer
62
256
370
-1
100
AcDbLine
10
-114
20
-8
11
-114
21
-20
0
LINE
5
23E
100
AcDbEntity
8
metal_layer_evap_OTRACE
6
ByLayer
62
256
370
-1
100
AcDbLine
10
-112
20
-16
11
-111.001108935
21
-15.9999993851
0
LINE
5
23F
100
AcDbEntity
8
metal_layer_evap_OTRACE
6
ByLayer
62
256
370
-1
100
AcDbLine
10
-114
20
-20
11
-112
21
-20
0
LINE
5
240
100
AcDbEntity
8
metal_layer_evap_OTRACE
6
ByLayer
62
256
370
-1
100
AcDbLine
10
-112
20
-20
11
-112
21
-16
0
LINE
5
241
100
AcDbEntity
8
metal_layer_evap_OTRACE
6
ByLayer
62
256
370
-1
100
AcDbLine
10
-86
20
-20
11
-86
21
-8
0
LINE
5
242
100
AcDbEntity
8
metal_layer_evap_OTRACE
6
ByLayer
62
256
370
-1
100
AcDbLine
10
-89.0000527688
20
-15.9999995319
11
-88
21
-16
0
LINE
5
243
100
AcDbEntity
8
metal_layer_evap_OTRACE
6
ByLayer
62
256
370
-1
100
AcDbLine
10
-88
20
-12
11
-89.0000527688
21
-12.0000001467
0
LINE
5
244
100
AcDbEntity
8
metal_layer_evap_OTRACE
6
ByLayer
62
256
370
-1
100
AcDbLine
10
-88
20
-12
11
-88
21
-8
0
LINE
5
245
100
AcDbEntity
8
metal_layer_evap_OTRACE
6
ByLayer
62
256
370
-1
100
AcDbLine
10
-88
20
-8
11
-86
21
-8
0
LINE
5
246
100
AcDbEntity
8
metal_layer_evap_OTRACE
6
ByLayer
62
256
370
-1
100
AcDbLine
10
-88
20
-16
11
-88
21
-20
0
LINE
5
247
100
AcDbEntity
8
metal_layer_evap_OTRACE
6
ByLayer
62
256
370
-1
100
AcDbLine
10
-88
20
-20
11
-86
21
-20
0
ARC
5
248
100
AcDbEntity
8
metal_layer_evap_OTRACE
6
ByLayer
62
256
370
-1
100
AcDbCircle
10
-97.650845905
20
-20.5224485402
40
1.4
100
AcDbArc
50
302.827957636
51
261.035564872
0
LINE
5
249
100
AcDbEntity
8
metal_layer_evap_OTRACE
6
ByLayer
62
256
370
-1
100
AcDbLine
10
-92.8829345671
20
-21.5
11
-91.8549134911
21
-21.5
0
LINE
5
24A
100
AcDbEntity
8
metal_layer_evap_OTRACE
6
ByLayer
62
256
370
-1
100
AcDbLine
10
-88.95
20
-3.55
11
-88.6
21
-3.55
0
LINE
5
24B
100
AcDbEntity
8
metal_layer_evap_OTRACE
6
ByLayer
62
256
370
-1
100
AcDbLine
10
-88.6
20
-3.55
11
-88.6
21
-3.2
0
LINE
5
24C
100
AcDbEntity
8
metal_layer_evap_OTRACE
6
ByLayer
62
256
370
-1
100
AcDbLine
10
-88.6
20
-3.2
11
-88.3
21
-3.2
0
LINE
5
24D
100
AcDbEntity
8
metal_layer_evap_OTRACE
6
ByLayer
62
256
370
-1
100
AcDbLine
10
-88.3
20
-3.2
11
-88.3
21
-3.55
0
LINE
5
24E
100
AcDbEntity
8
metal_layer_evap_OTRACE
6
ByLayer
62
256
370
-1
100
AcDbLine
10
-88.3
20
-3.55
11
-87.95
21
-3.55
0
LINE
5
24F
100
AcDbEntity
8
metal_layer_evap_OTRACE
6
ByLayer
62
256
370
-1
100
AcDbLine
10
-87.95
20
-3.55
11
-87.95
21
-3.85
0
LINE
5
250
100
AcDbEntity
8
metal_layer_evap_OTRACE
6
ByLayer
62
256
370
-1
100
AcDbLine
10
-87.95
20
-3.85
11
-88.3
21
-3.85
0
LINE
5
251
100
AcDbEntity
8
metal_layer_evap_OTRACE
6
ByLayer
62
256
370
-1
100
AcDbLine
10
-88.3
20
-3.85
11
-88.3
21
-4.2
0
LINE
5
252
100
AcDbEntity
8
metal_layer_evap_OTRACE
6
ByLayer
62
256
370
-1
100
AcDbLine
10
-88.3
20
-4.2
11
-88.6
21
-4.2
0
LINE
5
253
100
AcDbEntity
8
metal_layer_evap_OTRACE
6
ByLayer
62
256
370
-1
100
AcDbLine
10
-88.6
20
-4.2
11
-88.6
21
-3.85
0
LINE
5
254
100
AcDbEntity
8
metal_layer_evap_OTRACE
6
ByLayer
62
256
370
-1
100
AcDbLine
10
-88.6
20
-3.85
11
-88.95
21
-3.85
0
LINE
5
255
100
AcDbEntity
8
metal_layer_evap_OTRACE
6
ByLayer
62
256
370
-1
100
AcDbLine
10
-88.95
20
-3.85
11
-88.95
21
-3.55
0
LINE
5
256
100
AcDbEntity
8
metal_layer_evap_OTRACE
6
ByLayer
62
256
370
-1
100
AcDbLine
10
-107.763420047
20
-21.2070950808
11
-109.050682525
21
-25.2
0
LINE
5
257
100
AcDbEntity
8
metal_layer_evap_OTRACE
6
ByLayer
62
256
370
-1
100
AcDbLine
10
-113
20
-25.2
11
-109.050682525
21
-25.2
0
LINE
5
258
100
AcDbEntity
8
metal_layer_evap_OTRACE
6
ByLayer
62
256
370
-1
100
AcDbLine
10
-106.811657722
20
-21.5139313198
11
-108
21
-25.1999998626
0
LINE
5
259
100
AcDbEntity
8
metal_layer_evap_OTRACE
6
ByLayer
62
256
370
-1
100
AcDbLine
10
-103.117796959
20
-20.7713409877
11
-103.765492841
21
-25.2
0
LINE
5
25A
100
AcDbEntity
8
metal_layer_evap_OTRACE
6
ByLayer
62
256
370
-1
100
AcDbLine
10
-106
20
-25.2
11
-103.765492841
21
-25.2
0
LINE
5
25B
100
AcDbEntity
8
metal_layer_evap_OTRACE
6
ByLayer
62
256
370
-1
100
AcDbLine
10
-102.754854746
20
-25.2
11
-101
21
-25.2
0
LINE
5
25C
100
AcDbEntity
8
metal_layer_evap_OTRACE
6
ByLayer
62
256
370
-1
100
AcDbLine
10
-102.754854746
20
-25.2
11
-102.128381308
21
-20.9164507105
0
LINE
5
25D
100
AcDbEntity
8
metal_layer_evap_OTRACE
6
ByLayer
62
256
370
-1
100
AcDbLine
10
-97.8689957991
20
-21.9053478943
11
-97.2155669426
21
-25.2
0
LINE
5
25E
100
AcDbEntity
8
metal_layer_evap_OTRACE
6
ByLayer
62
256
370
-1
100
AcDbLine
10
-99
20
-25.2
11
-97.2155669426
21
-25.2
0
LINE
5
25F
100
AcDbEntity
8
metal_layer_evap_OTRACE
6
ByLayer
62
256
370
-1
100
AcDbLine
10
-96.196006162
20
-25.2
11
-94
21
-25.2
0
LINE
5
260
100
AcDbEntity
8
metal_layer_evap_OTRACE
6
ByLayer
62
256
370
-1
100
AcDbLine
10
-96.196006162
20
-25.2
11
-96.8918802814
21
-21.6988715858
0
LINE
5
261
100
AcDbEntity
8
metal_layer_evap_OTRACE
6
ByLayer
62
256
370
-1
100
AcDbLine
10
-92.8829345671
20
-21.5
11
-92
21
-25.2038201013
0
LINE
5
262
100
AcDbEntity
8
metal_layer_evap_OTRACE
6
ByLayer
62
256
370
-1
100
AcDbLine
10
-90.9728895783
20
-25.2
11
-87
21
-25.2
0
LINE
5
263
100
AcDbEntity
8
metal_layer_evap_OTRACE
6
ByLayer
62
256
370
-1
100
AcDbLine
10
-91.8549134911
20
-21.5
11
-90.9728895783
21
-25.2
0
LINE
5
264
100
AcDbEntity
8
metal_layer_evap_OTRACE
6
ByLayer
62
256
370
-1
100
AcDbLine
10
-94
20
-2.8
11
-96.234507159
21
-2.8
0
LINE
5
265
100
AcDbEntity
8
metal_layer_evap_OTRACE
6
ByLayer
62
256
370
-1
100
AcDbLine
10
-96.8822030411
20
-7.2286590123
11
-96.234507159
21
-2.8
0
LINE
5
266
100
AcDbEntity
8
metal_layer_evap_OTRACE
6
ByLayer
62
256
370
-1
100
AcDbLine
10
-97.2451452544
20
-2.8
11
-97.871618692
21
-7.0835492895
0
LINE
5
267
100
AcDbEntity
8
metal_layer_evap_OTRACE
6
ByLayer
62
256
370
-1
100
AcDbLine
10
-97.2451452544
20
-2.8
11
-99
21
-2.8
0
LINE
5
268
100
AcDbEntity
8
metal_layer_evap_OTRACE
6
ByLayer
62
256
370
-1
100
AcDbLine
10
-101
20
-2.8
11
-102.784433057
21
-2.8
0
LINE
5
269
100
AcDbEntity
8
metal_layer_evap_OTRACE
6
ByLayer
62
256
370
-1
100
AcDbLine
10
-102.131004201
20
-6.09465210566
11
-102.784433057
21
-2.8
0
LINE
5
26A
100
AcDbEntity
8
metal_layer_evap_OTRACE
6
ByLayer
62
256
370
-1
100
AcDbLine
10
-103.803999341
20
-2.79997231536
11
-103.108119719
21
-6.30112841423
0
LINE
5
26B
100
AcDbEntity
8
metal_layer_evap_OTRACE
6
ByLayer
62
256
370
-1
100
AcDbLine
10
-103.803999341
20
-2.79997231536
11
-106
21
-2.7997723298
0
ARC
5
26C
100
AcDbEntity
8
metal_layer_evap_OTRACE
6
ByLayer
62
256
370
-1
100
AcDbCircle
10
-97.6534162676
20
18.958572343
40
1.97
100
AcDbArc
50
96.35928097
51
66.953454306
0
ARC
5
26D
100
AcDbEntity
8
metal_layer_evap_OTRACE
6
ByLayer
62
256
370
-1
100
AcDbCircle
10
-92.9781890932
20
20.5362628489
40
1
100
AcDbArc
50
102.131329393
51
42.1313293932
0
ARC
5
26E
100
AcDbEntity
8
metal_layer_evap_OTRACE
6
ByLayer
62
256
370
-1
100
AcDbCircle
10
-102.346583732
20
9.041427657
40
1.97
100
AcDbArc
50
276.35928097
51
246.953454306
0
ARC
5
26F
100
AcDbEntity
8
metal_layer_evap_OTRACE
6
ByLayer
62
256
370
-1
100
AcDbCircle
10
-107.021810907
20
7.4637371511
40
1
100
AcDbArc
50
282.131329393
51
222.131329393
0
LINE
5
270
100
AcDbEntity
8
metal_layer_evap_OTRACE
6
ByLayer
62
256
370
-1
100
AcDbLine
10
-111.001108935
20
13
11
-89.0000527688
21
13
0
LINE
5
271
100
AcDbEntity
8
metal_layer_evap_OTRACE
6
ByLayer
62
256
370
-1
100
AcDbLine
10
-89.0000527688
20
13
11
-89.0000527688
21
12.0000004681
0
LINE
5
272
100
AcDbEntity
8
metal_layer_evap_OTRACE
6
ByLayer
62
256
370
-1
100
AcDbLine
10
-89.0000527688
20
15.9999998533
11
-89.0000527688
21
15.0002344035
0
LINE
5
273
100
AcDbEntity
8
metal_layer_evap_OTRACE
6
ByLayer
62
256
370
-1
100
AcDbLine
10
-89.0000527688
20
15.0002344035
11
-111.001108935
21
15.0002344035
0
LINE
5
274
100
AcDbEntity
8
metal_layer_evap_OTRACE
6
ByLayer
62
256
370
-1
100
AcDbLine
10
-111.001108935
20
15.0002344035
11
-111.001108935
21
16
0
LINE
5
275
100
AcDbEntity
8
metal_layer_evap_OTRACE
6
ByLayer
62
256
370
-1
100
AcDbLine
10
-111.001108935
20
12.0000006149
11
-111.001108935
21
13
0
CIRCLE
5
276
100
AcDbEntity
8
metal_layer_evap_OTRACE
6
ByLayer
62
256
370
-1
100
AcDbCircle
10
-111.6
20
3.65
40
0.55
0
ARC
5
277
100
AcDbEntity
8
metal_layer_evap_OTRACE
6
ByLayer
62
256
370
-1
100
AcDbCircle
10
-102.349154095
20
20.5224485402
40
1.4
100
AcDbArc
50
122.827957636
51
81.0355648725
0
LINE
5
278
100
AcDbEntity
8
metal_layer_evap_OTRACE
6
ByLayer
62
256
370
-1
100
AcDbLine
10
-108.145086509
20
21.5
11
-107.117065433
21
21.5
0
LINE
5
279
100
AcDbEntity
8
metal_layer_evap_OTRACE
6
ByLayer
62
256
370
-1
100
AcDbLine
10
-111.001108935
20
16
11
-112
21
16
0
LINE
5
27A
100
AcDbEntity
8
metal_layer_evap_OTRACE
6
ByLayer
62
256
370
-1
100
AcDbLine
10
-114
20
20
11
-112
21
20
0
LINE
5
27B
100
AcDbEntity
8
metal_layer_evap_OTRACE
6
ByLayer
62
256
370
-1
100
AcDbLine
10
-112
20
20
11
-112
21
16
0
LINE
5
27C
100
AcDbEntity
8
metal_layer_evap_OTRACE
6
ByLayer
62
256
370
-1
100
AcDbLine
10
-114
20
20
11
-114
21
8
0
LINE
5
27D
100
AcDbEntity
8
metal_layer_evap_OTRACE
6
ByLayer
62
256
370
-1
100
AcDbLine
10
-112
20
12
11
-111.001108935
21
12.0000006149
0
LINE
5
27E
100
AcDbEntity
8
metal_layer_evap_OTRACE
6
ByLayer
62
256
370
-1
100
AcDbLine
10
-114
20
8
11
-112
21
8
0
LINE
5
27F
100
AcDbEntity
8
metal_layer_evap_OTRACE
6
ByLayer
62
256
370
-1
100
AcDbLine
10
-112
20
8
11
-112
21
12
0
LINE
5
280
100
AcDbEntity
8
metal_layer_evap_OTRACE
6
ByLayer
62
256
370
-1
100
AcDbLine
10
-86
20
8
11
-86
21
20
0
LINE
5
281
100
AcDbEntity
8
metal_layer_evap_OTRACE
6
ByLayer
62
256
370
-1
100
AcDbLine
10
-89.0000527688
20
12.0000004681
11
-88
21
12
0
LINE
5
282
100
AcDbEntity
8
metal_layer_evap_OTRACE
6
ByLayer
62
256
370
-1
100
AcDbLine
10
-88
20
16
11
-89.0000527688
21
15.9999998533
0
LINE
5
283
100
AcDbEntity
8
metal_layer_evap_OTRACE
6
ByLayer
62
256
370
-1
100
AcDbLine
10
-88
20
16
11
-88
21
20
0
LINE
5
284
100
AcDbEntity
8
metal_layer_evap_OTRACE
6
ByLayer
62
256
370
-1
100
AcDbLine
10
-88
20
20
11
-86
21
20
0
LINE
5
285
100
AcDbEntity
8
metal_layer_evap_OTRACE
6
ByLayer
62
256
370
-1
100
AcDbLine
10
-88
20
12
11
-88
21
8
0
LINE
5
286
100
AcDbEntity
8
metal_layer_evap_OTRACE
6
ByLayer
62
256
370
-1
100
AcDbLine
10
-88
20
8
11
-86
21
8
0
ARC
5
287
100
AcDbEntity
8
metal_layer_evap_OTRACE
6
ByLayer
62
256
370
-1
100
AcDbCircle
10
-97.650845905
20
7.4775514598
40
1.4
100
AcDbArc
50
302.827957636
51
261.035564872
0
LINE
5
288
100
AcDbEntity
8
metal_layer_evap_OTRACE
6
ByLayer
62
256
370
-1
100
AcDbLine
10
-92.8829345671
20
6.5
11
-91.8549134911
21
6.5
0
LINE
5
289
100
AcDbEntity
8
metal_layer_evap_OTRACE
6
ByLayer
62
256
370
-1
100
AcDbLine
10
-88.95
20
24.45
11
-88.6
21
24.45
0
LINE
5
28A
100
AcDbEntity
8
metal_layer_evap_OTRACE
6
ByLayer
62
256
370
-1
100
AcDbLine
10
-88.6
20
24.45
11
-88.6
21
24.8
0
LINE
5
28B
100
AcDbEntity
8
metal_layer_evap_OTRACE
6
ByLayer
62
256
370
-1
100
AcDbLine
10
-88.6
20
24.8
11
-88.3
21
24.8
0
LINE
5
28C
100
AcDbEntity
8
metal_layer_evap_OTRACE
6
ByLayer
62
256
370
-1
100
AcDbLine
10
-88.3
20
24.8
11
-88.3
21
24.45
0
LINE
5
28D
100
AcDbEntity
8
metal_layer_evap_OTRACE
6
ByLayer
62
256
370
-1
100
AcDbLine
10
-88.3
20
24.45
11
-87.95
21
24.45
0
LINE
5
28E
100
AcDbEntity
8
metal_layer_evap_OTRACE
6
ByLayer
62
256
370
-1
100
AcDbLine
10
-87.95
20
24.45
11
-87.95
21
24.15
0
LINE
5
28F
100
AcDbEntity
8
metal_layer_evap_OTRACE
6
ByLayer
62
256
370
-1
100
AcDbLine
10
-87.95
20
24.15
11
-88.3
21
24.15
0
LINE
5
290
100
AcDbEntity
8
metal_layer_evap_OTRACE
6
ByLayer
62
256
370
-1
100
AcDbLine
10
-88.3
20
24.15
11
-88.3
21
23.8
0
LINE
5
291
100
AcDbEntity
8
metal_layer_evap_OTRACE
6
ByLayer
62
256
370
-1
100
AcDbLine
10
-88.3
20
23.8
11
-88.6
21
23.8
0
LINE
5
292
100
AcDbEntity
8
metal_layer_evap_OTRACE
6
ByLayer
62
256
370
-1
100
AcDbLine
10
-88.6
20
23.8
11
-88.6
21
24.15
0
LINE
5
293
100
AcDbEntity
8
metal_layer_evap_OTRACE
6
ByLayer
62
256
370
-1
100
AcDbLine
10
-88.6
20
24.15
11
-88.95
21
24.15
0
LINE
5
294
100
AcDbEntity
8
metal_layer_evap_OTRACE
6
ByLayer
62
256
370
-1
100
AcDbLine
10
-88.95
20
24.15
11
-88.95
21
24.45
0
LINE
5
295
100
AcDbEntity
8
metal_layer_evap_OTRACE
6
ByLayer
62
256
370
-1
100
AcDbLine
10
-103.117796959
20
7.2286590123
11
-103.765492841
21
2.8
0
LINE
5
296
100
AcDbEntity
8
metal_layer_evap_OTRACE
6
ByLayer
62
256
370
-1
100
AcDbLine
10
-106
20
2.8
11
-103.765492841
21
2.8
0
LINE
5
297
100
AcDbEntity
8
metal_layer_evap_OTRACE
6
ByLayer
62
256
370
-1
100
AcDbLine
10
-102.754854746
20
2.8
11
-101
21
2.8
0
LINE
5
298
100
AcDbEntity
8
metal_layer_evap_OTRACE
6
ByLayer
62
256
370
-1
100
AcDbLine
10
-102.754854746
20
2.8
11
-102.128381308
21
7.0835492895
0
LINE
5
299
100
AcDbEntity
8
metal_layer_evap_OTRACE
6
ByLayer
62
256
370
-1
100
AcDbLine
10
-97.8689957991
20
6.09465210566
11
-97.2155669426
21
2.8
0
LINE
5
29A
100
AcDbEntity
8
metal_layer_evap_OTRACE
6
ByLayer
62
256
370
-1
100
AcDbLine
10
-99
20
2.8
11
-97.2155669426
21
2.8
0
LINE
5
29B
100
AcDbEntity
8
metal_layer_evap_OTRACE
6
ByLayer
62
256
370
-1
100
AcDbLine
10
-96.196006162
20
2.8
11
-94
21
2.8
0
LINE
5
29C
100
AcDbEntity
8
metal_layer_evap_OTRACE
6
ByLayer
62
256
370
-1
100
AcDbLine
10
-96.196006162
20
2.8
11
-96.8918802814
21
6.30112841423
0
LINE
5
29D
100
AcDbEntity
8
metal_layer_evap_OTRACE
6
ByLayer
62
256
370
-1
100
AcDbLine
10
-93.1883422776
20
21.5139313198
11
-92
21
25.1999998626
0
LINE
5
29E
100
AcDbEntity
8
metal_layer_evap_OTRACE
6
ByLayer
62
256
370
-1
100
AcDbLine
10
-92.2365799531
20
21.2070950808
11
-90.9493174752
21
25.2
0
LINE
5
29F
100
AcDbEntity
8
metal_layer_evap_OTRACE
6
ByLayer
62
256
370
-1
100
AcDbLine
10
-87
20
25.2
11
-90.9493174752
21
25.2
0
LINE
5
2A0
100
AcDbEntity
8
metal_layer_evap_OTRACE
6
ByLayer
62
256
370
-1
100
AcDbLine
10
-94
20
25.2
11
-96.234507159
21
25.2
0
LINE
5
2A1
100
AcDbEntity
8
metal_layer_evap_OTRACE
6
ByLayer
62
256
370
-1
100
AcDbLine
10
-96.8822030411
20
20.7713409877
11
-96.234507159
21
25.2
0
LINE
5
2A2
100
AcDbEntity
8
metal_layer_evap_OTRACE
6
ByLayer
62
256
370
-1
100
AcDbLine
10
-97.2451452544
20
25.2
11
-97.871618692
21
20.9164507105
0
LINE
5
2A3
100
AcDbEntity
8
metal_layer_evap_OTRACE
6
ByLayer
62
256
370
-1
100
AcDbLine
10
-97.2451452544
20
25.2
11
-99
21
25.2
0
LINE
5
2A4
100
AcDbEntity
8
metal_layer_evap_OTRACE
6
ByLayer
62
256
370
-1
100
AcDbLine
10
-101
20
25.2
11
-102.784433057
21
25.2
0
LINE
5
2A5
100
AcDbEntity
8
metal_layer_evap_OTRACE
6
ByLayer
62
256
370
-1
100
AcDbLine
10
-102.131004201
20
21.9053478943
11
-102.784433057
21
25.2
0
LINE
5
2A6
100
AcDbEntity
8
metal_layer_evap_OTRACE
6
ByLayer
62
256
370
-1
100
AcDbLine
10
-103.803999341
20
25.2000276846
11
-103.108119719
21
21.6988715858
0
LINE
5
2A7
100
AcDbEntity
8
metal_layer_evap_OTRACE
6
ByLayer
62
256
370
-1
100
AcDbLine
10
-103.803999341
20
25.2000276846
11
-106
21
25.2002276702
0
LINE
5
2A8
100
AcDbEntity
8
metal_layer_evap_OTRACE
6
ByLayer
62
256
370
-1
100
AcDbLine
10
-107.117065433
20
21.5
11
-108
21
25.2038201013
0
LINE
5
2A9
100
AcDbEntity
8
metal_layer_evap_OTRACE
6
ByLayer
62
256
370
-1
100
AcDbLine
10
-109.027110422
20
25.2
11
-113
21
25.2
0
LINE
5
2AA
100
AcDbEntity
8
metal_layer_evap_OTRACE
6
ByLayer
62
256
370
-1
100
AcDbLine
10
-108.145086509
20
21.5
11
-109.027110422
21
25.2
0
LINE
5
2AB
100
AcDbEntity
8
metal_layer_evap_OTRACE
6
ByLayer
62
256
370
-1
100
AcDbLine
10
-87
20
2.8
11
-87
21
-2.8
0
LINE
5
2AC
100
AcDbEntity
8
metal_layer_evap_OTRACE
6
ByLayer
62
256
370
-1
100
AcDbLine
10
-94
20
2.8
11
-94
21
-2.8
0
LINE
5
2AD
100
AcDbEntity
8
metal_layer_evap_OTRACE
6
ByLayer
62
256
370
-1
100
AcDbLine
10
-99
20
-2.8
11
-99
21
2.8
0
LINE
5
2AE
100
AcDbEntity
8
metal_layer_evap_OTRACE
6
ByLayer
62
256
370
-1
100
AcDbLine
10
-101
20
2.8
11
-101
21
-2.8
0
LINE
5
2AF
100
AcDbEntity
8
metal_layer_evap_OTRACE
6
ByLayer
62
256
370
-1
100
AcDbLine
10
-106
20
-2.7997723298
11
-106
21
2.8
0
LINE
5
2B0
100
AcDbEntity
8
metal_layer_evap_OTRACE
6
ByLayer
62
256
370
-1
100
AcDbLine
10
-113
20
-2.8
11
-113
21
2.8
0
LINE
5
2B1
100
AcDbEntity
8
metal_layer_evap_OTRACE
6
ByLayer
62
256
370
-1
100
AcDbLine
10
-107.763420047
20
6.79290491921
11
-109.050682525
21
2.8
0
LINE
5
2B2
100
AcDbEntity
8
metal_layer_evap_OTRACE
6
ByLayer
62
256
370
-1
100
AcDbLine
10
-113
20
2.8
11
-109.050682525
21
2.8
0
LINE
5
2B3
100
AcDbEntity
8
metal_layer_evap_OTRACE
6
ByLayer
62
256
370
-1
100
AcDbLine
10
-106.811657722
20
6.48606868016
11
-108
21
2.8000001374
0
LINE
5
2B4
100
AcDbEntity
8
metal_layer_evap_OTRACE
6
ByLayer
62
256
370
-1
100
AcDbLine
10
-108
20
2.8000001374
11
-108
21
-2.7961798987
0
LINE
5
2B5
100
AcDbEntity
8
metal_layer_evap_OTRACE
6
ByLayer
62
256
370
-1
100
AcDbLine
10
-107.117065433
20
-6.5
11
-108
21
-2.7961798987
0
LINE
5
2B6
100
AcDbEntity
8
metal_layer_evap_OTRACE
6
ByLayer
62
256
370
-1
100
AcDbLine
10
-108.145086509
20
-6.5
11
-109.027110422
21
-2.8
0
LINE
5
2B7
100
AcDbEntity
8
metal_layer_evap_OTRACE
6
ByLayer
62
256
370
-1
100
AcDbLine
10
-109.027110422
20
-2.8
11
-113
21
-2.8
0
LINE
5
2B8
100
AcDbEntity
8
metal_layer_evap_OTRACE
6
ByLayer
62
256
370
-1
100
AcDbLine
10
-93.1883422776
20
-6.48606868016
11
-92
21
-2.8000001374
0
LINE
5
2B9
100
AcDbEntity
8
metal_layer_evap_OTRACE
6
ByLayer
62
256
370
-1
100
AcDbLine
10
-92
20
-2.8000001374
11
-92
21
2.7961798987
0
LINE
5
2BA
100
AcDbEntity
8
metal_layer_evap_OTRACE
6
ByLayer
62
256
370
-1
100
AcDbLine
10
-92.8829345671
20
6.5
11
-92
21
2.7961798987
0
LINE
5
2BB
100
AcDbEntity
8
metal_layer_evap_OTRACE
6
ByLayer
62
256
370
-1
100
AcDbLine
10
-90.9728895783
20
2.8
11
-87
21
2.8
0
LINE
5
2BC
100
AcDbEntity
8
metal_layer_evap_OTRACE
6
ByLayer
62
256
370
-1
100
AcDbLine
10
-91.8549134911
20
6.5
11
-90.9728895783
21
2.8
0
LINE
5
2BD
100
AcDbEntity
8
metal_layer_evap_OTRACE
6
ByLayer
62
256
370
-1
100
AcDbLine
10
-87
20
-2.8
11
-90.9493174752
21
-2.8
0
LINE
5
2BE
100
AcDbEntity
8
metal_layer_evap_OTRACE
6
ByLayer
62
256
370
-1
100
AcDbLine
10
-92.2365799531
20
-6.79290491921
11
-90.9493174752
21
-2.8
0
LINE
5
2BF
100
AcDbEntity
8
metal_layer_evap_OTRACE
6
ByLayer
62
256
370
-1
100
AcDbLine
10
-113
20
-27.45
11
-113
21
-25.2
0
LINE
5
2C0
100
AcDbEntity
8
metal_layer_evap_OTRACE
6
ByLayer
62
256
370
-1
100
AcDbLine
10
-108
20
-25.1999998626
11
-108
21
-27.45
0
LINE
5
2C1
100
AcDbEntity
8
metal_layer_evap_OTRACE
6
ByLayer
62
256
370
-1
100
AcDbLine
10
-106
20
-27.45
11
-106
21
-25.2
0
LINE
5
2C2
100
AcDbEntity
8
metal_layer_evap_OTRACE
6
ByLayer
62
256
370
-1
100
AcDbLine
10
-101
20
-25.2
11
-101
21
-27.45
0
LINE
5
2C3
100
AcDbEntity
8
metal_layer_evap_OTRACE
6
ByLayer
62
256
370
-1
100
AcDbLine
10
-99
20
-27.45
11
-99
21
-25.2
0
LINE
5
2C4
100
AcDbEntity
8
metal_layer_evap_OTRACE
6
ByLayer
62
256
370
-1
100
AcDbLine
10
-94
20
-25.2
11
-94
21
-27.45
0
LINE
5
2C5
100
AcDbEntity
8
metal_layer_evap_OTRACE
6
ByLayer
62
256
370
-1
100
AcDbLine
10
-92
20
-27.45
11
-92
21
-25.2038201013
0
LINE
5
2C6
100
AcDbEntity
8
metal_layer_evap_OTRACE
6
ByLayer
62
256
370
-1
100
AcDbLine
10
-87
20
-25.2
11
-87
21
-27.45
0
LINE
5
2C7
100
AcDbEntity
8
metal_layer_evap_OTRACE
6
ByLayer
62
256
370
-1
100
AcDbLine
10
-87
20
27.45
11
-87
21
25.2
0
LINE
5
2C8
100
AcDbEntity
8
metal_layer_evap_OTRACE
6
ByLayer
62
256
370
-1
100
AcDbLine
10
-92
20
25.1999998626
11
-92
21
27.45
0
LINE
5
2C9
100
AcDbEntity
8
metal_layer_evap_OTRACE
6
ByLayer
62
256
370
-1
100
AcDbLine
10
-94
20
27.45
11
-94
21
25.2
0
LINE
5
2CA
100
AcDbEntity
8
metal_layer_evap_OTRACE
6
ByLayer
62
256
370
-1
100
AcDbLine
10
-99
20
25.2
11
-99
21
27.45
0
LINE
5
2CB
100
AcDbEntity
8
metal_layer_evap_OTRACE
6
ByLayer
62
256
370
-1
100
AcDbLine
10
-101
20
27.45
11
-101
21
25.2
0
LINE
5
2CC
100
AcDbEntity
8
metal_layer_evap_OTRACE
6
ByLayer
62
256
370
-1
100
AcDbLine
10
-106
20
25.2002276702
11
-106
21
27.45
0
LINE
5
2CD
100
AcDbEntity
8
metal_layer_evap_OTRACE
6
ByLayer
62
256
370
-1
100
AcDbLine
10
-108
20
27.45
11
-108
21
25.2038201013
0
LINE
5
2CE
100
AcDbEntity
8
metal_layer_evap_OTRACE
6
ByLayer
62
256
370
-1
100
AcDbLine
10
-113
20
25.2
11
-113
21
27.45
0
LINE
5
2CF
100
AcDbEntity
8
metal_layer_evap_OTRACE
6
ByLayer
62
256
370
-1
100
AcDbLine
10
-113
20
-27.45
11
-108
21
-27.45
0
LINE
5
2D0
100
AcDbEntity
8
metal_layer_evap_OTRACE
6
ByLayer
62
256
370
-1
100
AcDbLine
10
-106
20
-27.45
11
-101
21
-27.45
0
LINE
5
2D1
100
AcDbEntity
8
metal_layer_evap_OTRACE
6
ByLayer
62
256
370
-1
100
AcDbLine
10
-99
20
-27.45
11
-94
21
-27.45
0
LINE
5
2D2
100
AcDbEntity
8
metal_layer_evap_OTRACE
6
ByLayer
62
256
370
-1
100
AcDbLine
10
-92
20
-27.45
11
-87
21
-27.45
0
LINE
5
2D3
100
AcDbEntity
8
metal_layer_evap_OTRACE
6
ByLayer
62
256
370
-1
100
AcDbLine
10
-113
20
27.45
11
-108
21
27.45
0
LINE
5
2D4
100
AcDbEntity
8
metal_layer_evap_OTRACE
6
ByLayer
62
256
370
-1
100
AcDbLine
10
-106
20
27.45
11
-101
21
27.45
0
LINE
5
2D5
100
AcDbEntity
8
metal_layer_evap_OTRACE
6
ByLayer
62
256
370
-1
100
AcDbLine
10
-99
20
27.45
11
-94
21
27.45
0
LINE
5
2D6
100
AcDbEntity
8
metal_layer_evap_OTRACE
6
ByLayer
62
256
370
-1
100
AcDbLine
10
-92
20
27.45
11
-87
21
27.45
0
LINE
5
2D7
100
AcDbEntity
8
encapsulation
6
ByLayer
62
256
370
-1
100
AcDbLine
10
-11
20
11
11
11
21
11
0
LINE
5
2D8
100
AcDbEntity
8
encapsulation
6
ByLayer
62
256
370
-1
100
AcDbLine
10
11
20
11
11
11
21
-11
0
LINE
5
2D9
100
AcDbEntity
8
encapsulation
6
ByLayer
62
256
370
-1
100
AcDbLine
10
11
20
-11
11
-11
21
-11
0
LINE
5
2DA
100
AcDbEntity
8
encapsulation
6
ByLayer
62
256
370
-1
100
AcDbLine
10
-11
20
-11
11
-11
21
11
0
LINE
5
2DB
100
AcDbEntity
8
encapsulation
6
ByLayer
62
256
370
-1
100
AcDbLine
10
-10
20
10
11
10
21
10
0
LINE
5
2DC
100
AcDbEntity
8
encapsulation
6
ByLayer
62
256
370
-1
100
AcDbLine
10
10
20
10
11
10
21
-10
0
LINE
5
2DD
100
AcDbEntity
8
encapsulation
6
ByLayer
62
256
370
-1
100
AcDbLine
10
10
20
-10
11
-10
21
-10
0
LINE
5
2DE
100
AcDbEntity
8
encapsulation
6
ByLayer
62
256
370
-1
100
AcDbLine
10
-10
20
-10
11
-10
21
10
0
LINE
5
2DF
100
AcDbEntity
8
encapsulation
6
ByLayer
62
256
370
-1
100
AcDbLine
10
-111
20
25
11
-89
21
25
0
LINE
5
2E0
100
AcDbEntity
8
encapsulation
6
ByLayer
62
256
370
-1
100
AcDbLine
10
-89
20
25
11
-89
21
3
0
LINE
5
2E1
100
AcDbEntity
8
encapsulation
6
ByLayer
62
256
370
-1
100
AcDbLine
10
-89
20
3
11
-111
21
3
0
LINE
5
2E2
100
AcDbEntity
8
encapsulation
6
ByLayer
62
256
370
-1
100
AcDbLine
10
-111
20
3
11
-111
21
25
0
LINE
5
2E3
100
AcDbEntity
8
encapsulation
6
ByLayer
62
256
370
-1
100
AcDbLine
10
-90
20
4
11
-110
21
4
0
LINE
5
2E4
100
AcDbEntity
8
encapsulation
6
ByLayer
62
256
370
-1
100
AcDbLine
10
-110
20
4
11
-110
21
24
0
LINE
5
2E5
100
AcDbEntity
8
encapsulation
6
ByLayer
62
256
370
-1
100
AcDbLine
10
-110
20
24
11
-90
21
24
0
LINE
5
2E6
100
AcDbEntity
8
encapsulation
6
ByLayer
62
256
370
-1
100
AcDbLine
10
-90
20
24
11
-90
21
4
0
LINE
5
2E7
100
AcDbEntity
8
encapsulation
6
ByLayer
62
256
370
-1
100
AcDbLine
10
-111
20
-3
11
-89
21
-3
0
LINE
5
2E8
100
AcDbEntity
8
encapsulation
6
ByLayer
62
256
370
-1
100
AcDbLine
10
-89
20
-3
11
-89
21
-25
0
LINE
5
2E9
100
AcDbEntity
8
encapsulation
6
ByLayer
62
256
370
-1
100
AcDbLine
10
-89
20
-25
11
-111
21
-25
0
LINE
5
2EA
100
AcDbEntity
8
encapsulation
6
ByLayer
62
256
370
-1
100
AcDbLine
10
-111
20
-25
11
-111
21
-3
0
LINE
5
2EB
100
AcDbEntity
8
encapsulation
6
ByLayer
62
256
370
-1
100
AcDbLine
10
-90
20
-24
11
-110
21
-24
0
LINE
5
2EC
100
AcDbEntity
8
encapsulation
6
ByLayer
62
256
370
-1
100
AcDbLine
10
-110
20
-24
11
-110
21
-4
0
LINE
5
2ED
100
AcDbEntity
8
encapsulation
6
ByLayer
62
256
370
-1
100
AcDbLine
10
-110
20
-4
11
-90
21
-4
0
LINE
5
2EE
100
AcDbEntity
8
encapsulation
6
ByLayer
62
256
370
-1
100
AcDbLine
10
-90
20
-4
11
-90
21
-24
0
ENDSEC
0
SECTION
2
OBJECTS
0
DICTIONARY
5
C
330
0
100
AcDbDictionary
281
1
3
ACAD_GROUP
350
D
0
DICTIONARY
5
D
330
C
100
AcDbDictionary
281
1
0
ENDSEC
0
EOF
